<?xml version="1.0" encoding="UTF-8"?><svg id="Capa_2" xmlns="http://www.w3.org/2000/svg" viewBox="0 0 1080 1080"><g id="Capa_1-2"><g id="Multifilar_-_Receptor_IR"><rect x="190.43" y="392.43" width="289.9" height="289.9" fill="none" stroke="#000" stroke-miterlimit="10" stroke-width="5"/><path d="m283.29,472.2c35.44,35.44,35.44,92.9,0,128.34" fill="none" stroke="#000" stroke-miterlimit="10" stroke-width="5"/><rect x="422.48" y="392.43" width="57.85" height="289.9"/><path d="m217.82,514.96c11.83,11.83,11.83,31,0,42.83" fill="none" stroke="#000" stroke-miterlimit="10" stroke-width="5"/><path d="m250.51,493.36c23.75,23.75,23.75,62.27,0,86.02" fill="none" stroke="#000" stroke-miterlimit="10" stroke-width="5"/><path d="m315.96,450.53c47.41,47.41,47.41,124.27,0,171.68" fill="none" stroke="#000" stroke-miterlimit="10" stroke-width="5"/><path d="m348.33,430.57c59.15,59.15,60.32,153.89,2.6,211.61" fill="none" stroke="#000" stroke-miterlimit="10" stroke-width="5"/><circle cx="217.26" cy="332.64" r="29.36"/><line x1="217.26" y1="245.35" x2="217.26" y2="332.45" fill="none" stroke="#000" stroke-miterlimit="10" stroke-width="5"/><line x1="158" y1="332.64" x2="276.51" y2="332.64" fill="none" stroke="#000" stroke-miterlimit="10" stroke-width="5"/><line x1="334.97" y1="391.9" x2="334.97" y2="245.35" fill="none" stroke="#000" stroke-miterlimit="10" stroke-width="5"/><line x1="334.97" y1="681.88" x2="334.97" y2="832.59" fill="none" stroke="#000" stroke-miterlimit="10" stroke-width="5"/><line x1="482.63" y1="539.72" x2="488.63" y2="539.72" fill="none" stroke="#000" stroke-miterlimit="10" stroke-width="5"/><line x1="500.58" y1="539.72" x2="709.77" y2="539.72" fill="none" stroke="#000" stroke-dasharray="0 0 11.95 11.95" stroke-miterlimit="10" stroke-width="5"/><line x1="715.75" y1="539.72" x2="721.75" y2="539.72" fill="none" stroke="#000" stroke-miterlimit="10" stroke-width="5"/><line x1="657.94" y1="394.06" x2="773.72" y2="657.09" fill="none" stroke="#000" stroke-miterlimit="10" stroke-width="5"/><line x1="628.04" y1="245.89" x2="628.04" y2="422.71" fill="none" stroke="#000" stroke-miterlimit="10" stroke-width="5"/><line x1="687.28" y1="422.1" x2="628.04" y2="422.1" fill="none" stroke="#000" stroke-miterlimit="10" stroke-width="5"/><line x1="861.85" y1="422.1" x2="922" y2="422.1" fill="none" stroke="#000" stroke-miterlimit="10" stroke-width="5"/><line x1="921.47" y1="247.36" x2="921.47" y2="422" fill="none" stroke="#000" stroke-miterlimit="10" stroke-width="5"/><line x1="773.72" y1="657.09" x2="773.41" y2="834.65" fill="none" stroke="#000" stroke-miterlimit="10" stroke-width="5"/><path d="m719.58,798.14v.09l2.75,5.1-3.02.77-3.43-6.41v-3.38h29.34v3.84h-25.64Z"/><path d="m719.58,774.98v.09l2.75,5.1-3.02.77-3.43-6.41v-3.38h29.34v3.84h-25.64Z"/><path d="m573.31,308.68v.09l2.71,5.02-2.97.75-3.37-6.3v-3.33h28.85v3.77h-25.21Z"/><path d="m598.52,294.39h-2.4l-2.97-3.06c-7.01-7.37-10.74-10.7-15.09-10.74-2.93,0-5.64,1.42-5.64,5.73,0,2.62,1.33,4.79,2.44,6.13l-2.75,1.24c-1.69-2-2.93-4.84-2.93-8.17,0-6.21,4.26-8.83,8.39-8.83,5.33,0,9.63,3.86,15.49,9.94l2.13,2.31h.09v-12.96h3.24v18.42Z"/><path d="m866.29,310.64v.09l2.75,5.1-3.02.77-3.43-6.41v-3.39h29.34v3.84h-25.64Z"/><path d="m891.93,283.82h-7.99v13.63h-2.62l-18.73-13.09v-4.29h18.24v-4.11h3.11v4.11h7.99v3.75Zm-11.1,0h-9.79c-1.54,0-3.07-.05-4.6-.14v.14c1.72.9,2.98,1.63,4.33,2.44l9.98,7.18h.09v-9.62Z"/><path d="m295.89,308.75l9.23,3.05v3.92l-29.34-9.97v-4.57l29.34-10.01v4.05l-9.23,3.14v10.4Zm-2.96-9.62l-8.45,2.87c-1.91.66-3.66,1.09-5.35,1.52v.09c1.74.44,3.53.91,5.31,1.48l8.49,2.87v-8.84Z"/><path d="m280.39,279.88v.09l2.66,4.92-2.92.74-3.31-6.18v-3.26h28.3v3.7h-24.73Z"/><path d="m295.89,796.73l9.23,3.05v3.92l-29.34-9.97v-4.57l29.34-10.01v4.05l-9.23,3.14v10.4Zm-2.96-9.62l-8.45,2.87c-1.91.66-3.66,1.09-5.35,1.52v.09c1.74.44,3.53.91,5.31,1.48l8.49,2.87v-8.84Z"/><path d="m305.12,776.17h-2.35l-2.92-3c-6.88-7.23-10.53-10.49-14.8-10.53-2.87,0-5.53,1.39-5.53,5.61,0,2.57,1.31,4.7,2.39,6.01l-2.7,1.22c-1.65-1.96-2.87-4.75-2.87-8.01,0-6.09,4.18-8.66,8.23-8.66,5.22,0,9.45,3.79,15.19,9.75l2.09,2.26h.09v-12.71h3.18v18.06Z"/><rect id="Base" width="1080" height="1080" opacity="0"/></g></g></svg>