<?xml version="1.0" encoding="UTF-8"?><svg id="Capa_2" xmlns="http://www.w3.org/2000/svg" viewBox="0 0 1080 1080"><g id="Capa_1-2"><g id="Multifilar_-_Resistencia_PTC_Coeficiente_positivo_IEC"><line x1="158" y1="539.85" x2="349.44" y2="539.85" fill="none" stroke="#000" stroke-miterlimit="10" stroke-width="5"/><line x1="730.56" y1="539.85" x2="922" y2="539.85" fill="none" stroke="#000" stroke-miterlimit="10" stroke-width="5"/><rect x="349.44" y="501.74" width="381.11" height="76.22" fill="none" stroke="#000" stroke-miterlimit="10" stroke-width="5"/><line x1="424.78" y1="730.11" x2="655.22" y2="349" fill="none" stroke="#000" stroke-miterlimit="10" stroke-width="5"/><line x1="349.44" y1="731" x2="425.67" y2="731" fill="none" stroke="#000" stroke-miterlimit="10" stroke-width="5"/><path d="m582.1,663.28v29.29h28.17v7.48h-28.17v29.54h-7.98v-29.54h-28.17v-7.48h28.17v-29.29h7.98Z"/><path d="m637.57,651.94v17.33h15.71v8.35h-15.71v32.54c0,7.48,2.12,11.72,8.23,11.72,2.87,0,4.99-.37,6.36-.75l.5,8.23c-2.12.87-5.48,1.5-9.72,1.5-5.11,0-9.22-1.62-11.84-4.61-3.12-3.24-4.24-8.6-4.24-15.71v-32.91h-9.35v-8.35h9.35v-14.46l10.72-2.87Z"/><path d="m698.53,676.24c-.13,14.34-10.35,20.82-19.95,20.82-11.1,0-19.82-7.98-19.82-20.19,0-12.96,9.35-20.94,20.07-20.94,12.09,0,19.7,8.6,19.7,20.32Zm-31.41.37c0,8.23,5.36,14.21,11.59,14.21,6.61,0,11.47-5.73,11.47-14.34,0-6.23-3.36-14.34-11.59-14.34s-11.47,7.73-11.47,14.46Z"/><rect id="Base" width="1080" height="1080" opacity="0"/></g></g></svg>