<?xml version="1.0" encoding="UTF-8"?><svg id="Capa_2" xmlns="http://www.w3.org/2000/svg" viewBox="0 0 1080 1080"><g id="Capa_1-2"><g id="Multifilar_-_Contacto_auxiliar_conmutado_de_relé_térmico_2"><line x1="330.7" y1="714.53" x2="330.7" y2="886.84" fill="none" stroke="#000" stroke-miterlimit="10" stroke-width="5"/><line x1="677.97" y1="714.53" x2="677.97" y2="886.84" fill="none" stroke="#000" stroke-miterlimit="10" stroke-width="5"/><line x1="504.58" y1="365.92" x2="367.16" y2="783.98" fill="none" stroke="#000" stroke-miterlimit="10" stroke-width="5"/><line x1="503.54" y1="193.16" x2="503.54" y2="366.8" fill="none" stroke="#000" stroke-miterlimit="10" stroke-width="5"/><line x1="330.77" y1="714.07" x2="434.95" y2="714.07" fill="none" stroke="#000" stroke-miterlimit="10" stroke-width="5"/><line x1="677.17" y1="714.94" x2="572.99" y2="714.94" fill="none" stroke="#000" stroke-miterlimit="10" stroke-width="5"/><line x1="448.84" y1="539.71" x2="442.84" y2="539.71" fill="none" stroke="#000" stroke-miterlimit="10" stroke-width="5"/><line x1="430.59" y1="539.71" x2="240.67" y2="539.71" fill="none" stroke="#000" stroke-dasharray="0 0 12.25 12.25" stroke-miterlimit="10" stroke-width="5"/><line x1="234.54" y1="539.71" x2="228.54" y2="539.71" fill="none" stroke="#000" stroke-miterlimit="10" stroke-width="5"/><line x1="851.68" y1="436.25" x2="851.68" y2="505.71" fill="none" stroke="#000" stroke-miterlimit="10" stroke-width="5"/><line x1="851.68" y1="576.03" x2="922" y2="576.03" fill="none" stroke="#000" stroke-miterlimit="10" stroke-width="5"/><line x1="922" y1="505.71" x2="851.68" y2="505.71" fill="none" stroke="#000" stroke-miterlimit="10" stroke-width="5"/><line x1="851.68" y1="645.48" x2="851.68" y2="576.03" fill="none" stroke="#000" stroke-miterlimit="10" stroke-width="5"/><line x1="922" y1="576.03" x2="922" y2="505.71" fill="none" stroke="#000" stroke-miterlimit="10" stroke-width="5"/><line x1="158" y1="539.71" x2="158" y2="610.76" fill="none" stroke="#000" stroke-miterlimit="10" stroke-width="5"/><line x1="228.54" y1="539.71" x2="158" y2="539.71" fill="none" stroke="#000" stroke-miterlimit="10" stroke-width="5"/><line x1="228.54" y1="610.76" x2="228.54" y2="539.71" fill="none" stroke="#000" stroke-miterlimit="10" stroke-width="5"/><path d="m639.35,850.16c.1-.98,0-2.11-.15-3.65-.36-2.62-1.44-5.08-3.24-6.98-2-2.21-4.93-3.8-8.88-4.42v.15c2.26,1.85,3.59,4.52,3.59,7.86,0,6.01-4.52,9.86-10.22,9.86-6.32,0-11.86-4.57-11.86-11.4s5.55-11.04,14.07-11.04c7.34,0,12.48,2.46,15.66,5.75,2.52,2.57,4.06,6.11,4.47,9.71.26,1.64.31,3.08.26,4.16h-3.7Zm-19.21-1.64c4.16,0,7.09-2.52,7.09-6.42,0-3.03-1.49-5.39-3.49-6.57-.41-.26-.92-.41-1.64-.41-5.7,0-10.07,2.11-10.07,6.83,0,3.85,3.39,6.57,8.11,6.57Z"/><path d="m634.06,826.84c-4.21,0-7.19-2.52-8.94-6.62l-.15.05c-1.75,3.7-4.62,5.29-7.5,5.29-5.29,0-8.88-4.47-8.88-10.32,0-6.47,4.06-9.71,8.22-9.71,2.82,0,5.85,1.39,7.81,5.49h.15c1.64-4.16,4.57-6.73,8.63-6.73,5.8,0,9.71,4.98,9.71,11.35,0,6.98-4.16,11.19-9.04,11.19Zm-16.9-5.55c3.34,0,5.14-2.52,6.16-6.37-.98-2.88-3.03-5.08-6.06-5.08-2.67,0-5.44,1.59-5.44,5.65,0,3.75,2.46,5.8,5.34,5.8Zm16.69-12.43c-4.06,0-6.01,2.82-7.29,7.34,1.13,3.9,3.7,6.01,6.88,6.01,3.39.15,6.37-2.41,6.37-6.68s-2.52-6.68-5.96-6.68Z"/><path d="m292.27,849.83c.1-.98,0-2.12-.15-3.67-.36-2.64-1.45-5.12-3.26-7.03-2.02-2.22-4.96-3.82-8.94-4.44v.16c2.27,1.86,3.62,4.55,3.62,7.91,0,6.05-4.55,9.92-10.28,9.92-6.36,0-11.94-4.6-11.94-11.47s5.58-11.11,14.16-11.11c7.39,0,12.56,2.48,15.76,5.79,2.53,2.58,4.08,6.15,4.5,9.77.26,1.65.31,3.1.26,4.19h-3.72Zm-19.33-1.65c4.19,0,7.13-2.53,7.13-6.46,0-3.05-1.5-5.43-3.51-6.61-.41-.26-.93-.41-1.65-.41-5.74,0-10.13,2.12-10.13,6.87,0,3.88,3.41,6.61,8.17,6.61Z"/><path d="m265.09,806.78c-.05.93,0,2.12.21,3.41,1.19,7.13,6.41,10.9,11.94,11.68v-.16c-2.12-1.6-3.88-4.39-3.88-8.11,0-5.94,4.29-10.13,10.85-10.13,6.15,0,11.83,4.19,11.83,11.16s-5.58,11.89-14.31,11.89c-6.61,0-11.83-2.38-15.14-5.69-2.74-2.79-4.44-6.51-4.96-10.75-.21-1.34-.26-2.48-.26-3.31h3.72Zm19.38,1.29c-4.81,0-7.7,2.74-7.7,6.93,0,2.74,1.71,5.27,4.13,6.51.52.31,1.19.52,2.02.52,5.53-.1,9.61-2.64,9.61-7.39,0-3.93-3.26-6.56-8.06-6.56Z"/><path d="m465.77,272.29c.1-.98,0-2.11-.15-3.65-.36-2.62-1.44-5.09-3.24-7-2.01-2.21-4.94-3.81-8.9-4.42v.15c2.26,1.85,3.6,4.53,3.6,7.87,0,6.02-4.53,9.88-10.24,9.88-6.33,0-11.89-4.58-11.89-11.42s5.56-11.06,14.1-11.06c7.36,0,12.5,2.47,15.69,5.76,2.52,2.57,4.06,6.12,4.48,9.72.26,1.65.31,3.09.26,4.17h-3.7Zm-19.24-1.65c4.17,0,7.1-2.52,7.1-6.43,0-3.04-1.49-5.4-3.5-6.59-.41-.26-.93-.41-1.65-.41-5.71,0-10.08,2.11-10.08,6.84,0,3.86,3.4,6.59,8.13,6.59Z"/><path d="m439.32,228.56v12.76l8.59,1.29c-.1-.77-.21-1.49-.21-2.73,0-2.57.57-5.14,1.8-7.2,1.49-2.62,4.37-4.79,8.59-4.79,6.53,0,11.42,5.2,11.42,12.45,0,3.65-1.03,6.74-2.06,8.34l-3.45-1.13c.82-1.39,1.85-4.12,1.85-7.15,0-4.27-2.78-7.92-7.25-7.92-4.32.05-7.41,2.93-7.41,9.62,0,1.9.21,3.4.36,4.63l-16.05-2.16v-16h3.81Z"/><rect id="Base" width="1080" height="1080" opacity="0"/></g></g></svg>