<?xml version="1.0" encoding="UTF-8"?><svg id="Capa_2" xmlns="http://www.w3.org/2000/svg" viewBox="0 0 1080 1080"><g id="Capa_1-2"><g id="Multifilar_-_Limitador_de_Sobretensiones"><line x1="560.04" y1="158" x2="560.04" y2="457.23" fill="none" stroke="#000" stroke-miterlimit="10" stroke-width="5"/><line x1="560.04" y1="651.99" x2="560.04" y2="922" fill="none" stroke="#000" stroke-miterlimit="10" stroke-width="5"/><polygon points="560.04 578.51 522.86 654.64 597.23 654.64 560.04 578.51"/><polygon points="560.04 502.38 597.23 426.24 522.86 426.24 560.04 502.38"/><path d="m487.58,202.91v.12l3.57,6.62-3.92,1-4.45-8.32v-4.39h38.06v4.98h-33.26Z"/><path d="m483.5,883.13c-.39-2.36-.73-5.44-.73-9.36,0-4.82,1.12-8.35,3.14-10.59,1.79-2.07,4.54-3.31,7.9-3.31s6.11,1.01,8.07,2.91c2.75,2.58,4.15,6.78,4.15,11.55,0,1.46-.06,2.8-.34,3.92h15.14v4.88h-37.34Zm18.22-4.88c.28-1.07.39-2.41.39-4.04,0-5.89-2.86-9.47-8.07-9.47s-7.4,3.53-7.4,8.91c0,2.13.17,3.76.39,4.6h14.69Z"/><path d="m503.12,833.74v14.69h13.62v-16.37h4.09v21.25h-37.78v-20.41h4.09v15.53h11.94v-14.69h4.04Z"/><rect id="Base" width="1080" height="1080" opacity="0"/></g></g></svg>