<?xml version="1.0" encoding="UTF-8"?><svg id="Capa_2" xmlns="http://www.w3.org/2000/svg" viewBox="0 0 1080 1080"><g id="Capa_1-2"><g id="Multifilar_-_Fototransistor_con_conexión_externa_de_la_base_ANSI"><line x1="660.64" y1="247.54" x2="660.64" y2="452.16" fill="none" stroke="#000" stroke-miterlimit="10" stroke-width="5"/><line x1="572.56" y1="453.52" x2="572.56" y2="626.98" fill="none" stroke="#000" stroke-miterlimit="10" stroke-width="5"/><line x1="572.56" y1="481.98" x2="660.64" y2="452.16" fill="none" stroke="#000" stroke-miterlimit="10" stroke-width="5"/><line x1="572.56" y1="598.52" x2="660.64" y2="628.33" fill="none" stroke="#000" stroke-miterlimit="10" stroke-width="5"/><line x1="660.64" y1="628.33" x2="660.64" y2="832.96" fill="none" stroke="#000" stroke-miterlimit="10" stroke-width="5"/><polygon points="454.72 511.19 440.37 467.6 411.13 496.84 454.72 511.19"/><line x1="425.75" y1="482.22" x2="397.4" y2="453.87" fill="none" stroke="#000" stroke-miterlimit="10" stroke-width="5"/><polygon points="454.72 629.08 440.37 585.5 411.13 614.73 454.72 629.08"/><line x1="425.75" y1="600.11" x2="397.4" y2="571.76" fill="none" stroke="#000" stroke-miterlimit="10" stroke-width="5"/><line x1="514.28" y1="541.6" x2="572.56" y2="541.6" fill="none" stroke="#000" stroke-miterlimit="10" stroke-width="5"/><line x1="512.93" y1="247.54" x2="512.93" y2="541.6" fill="none" stroke="#000" stroke-miterlimit="10" stroke-width="5"/><polygon points="639.45 621.45 616.74 598.07 607.21 626.23 639.45 621.45"/><path d="m495.23,159.23c3.33-.7,8.58-1.23,13.92-1.23,7.62,0,12.52,1.31,16.2,4.29,3.07,2.28,4.9,5.78,4.9,10.42,0,5.69-3.77,10.68-9.98,12.96v.17c5.6,1.4,12.17,6.04,12.17,14.8,0,5.08-2.01,8.93-4.99,11.82-4.11,3.77-10.77,5.52-20.4,5.52-5.25,0-9.28-.35-11.82-.7v-58.06Zm7.62,24.17h6.92c8.06,0,12.79-4.2,12.79-9.9,0-6.92-5.25-9.63-12.96-9.63-3.5,0-5.52.26-6.74.53v19Zm0,28.28c1.49.26,3.68.35,6.39.35,7.88,0,15.15-2.89,15.15-11.47,0-8.06-6.92-11.38-15.24-11.38h-6.3v22.51Z"/><path d="m682.52,214.36c-2.71,1.35-8.12,2.7-15.05,2.7-16.06,0-28.15-10.14-28.15-28.83s12.09-29.92,29.76-29.92c7.1,0,11.58,1.52,13.52,2.54l-1.78,6c-2.79-1.35-6.76-2.37-11.5-2.37-13.36,0-22.23,8.54-22.23,23.5,0,13.95,8.03,22.91,21.89,22.91,4.48,0,9.04-.93,12-2.37l1.52,5.83Z"/><path d="m674.93,894.33h-22.94v21.28h25.57v6.39h-33.19v-59.02h31.87v6.39h-24.26v18.65h22.94v6.3Z"/><rect id="Base" width="1080" height="1080" opacity="0"/></g></g></svg>