<?xml version="1.0" encoding="UTF-8"?><svg id="Capa_2" xmlns="http://www.w3.org/2000/svg" viewBox="0 0 1080 1080"><g id="Capa_1-2"><g id="Multifilar_-_Interruptor_tipo_pulsador_N.O."><line x1="667.53" y1="666.94" x2="667.53" y2="922" fill="none" stroke="#000" stroke-miterlimit="10" stroke-width="5"/><line x1="540" y1="411.29" x2="667.53" y2="666.35" fill="none" stroke="#000" stroke-miterlimit="10" stroke-width="5"/><line x1="412.47" y1="465.62" x2="412.47" y2="616.95" fill="none" stroke="#000" stroke-miterlimit="10" stroke-width="5"/><line x1="514.02" y1="541.36" x2="520.02" y2="541.36" fill="none" stroke="#000" stroke-miterlimit="10" stroke-width="5"/><line x1="531.04" y1="541.36" x2="591.66" y2="541.36" fill="none" stroke="#000" stroke-dasharray="0 0 11.02 11.02" stroke-miterlimit="10" stroke-width="5"/><line x1="597.17" y1="541.36" x2="603.17" y2="541.36" fill="none" stroke="#000" stroke-miterlimit="10" stroke-width="5"/><line x1="412.47" y1="541.36" x2="418.47" y2="541.36" fill="none" stroke="#000" stroke-miterlimit="10" stroke-width="5"/><line x1="431.4" y1="541.36" x2="450.78" y2="541.36" fill="none" stroke="#000" stroke-dasharray="0 0 12.93 12.93" stroke-miterlimit="10" stroke-width="5"/><line x1="457.25" y1="541.36" x2="463.25" y2="541.36" fill="none" stroke="#000" stroke-miterlimit="10" stroke-width="5"/><line x1="463.25" y1="541.36" x2="489.22" y2="593.32" fill="none" stroke="#000" stroke-miterlimit="10" stroke-width="5"/><line x1="514.02" y1="541.36" x2="489.22" y2="593.32" fill="none" stroke="#000" stroke-miterlimit="10" stroke-width="5"/><line x1="412.47" y1="465.62" x2="463.38" y2="465.62" fill="none" stroke="#000" stroke-miterlimit="10" stroke-width="5"/><line x1="412.47" y1="616.95" x2="463.38" y2="616.95" fill="none" stroke="#000" stroke-miterlimit="10" stroke-width="5"/><line x1="667.53" y1="158" x2="667.53" y2="411.88" fill="none" stroke="#000" stroke-miterlimit="10" stroke-width="5"/><path d="m619.62,211.88v.07l2.3,4.26-2.53.64-2.87-5.35v-2.83h24.5v3.2h-21.41Z"/><path d="m637.23,198.94c.6-.94,1.55-3.13,1.55-5.43,0-4.26-2.71-5.58-4.75-5.54-3.43.04-4.9,3.13-4.9,6.33v1.85h-2.49v-1.85c0-2.41-1.24-5.47-4.15-5.47-1.96,0-3.69,1.24-3.69,4.3,0,1.96.87,3.85,1.62,4.9l-2.41.87c-.94-1.28-1.88-3.77-1.88-6.41,0-4.82,2.87-7.01,5.84-7.01,2.53,0,4.67,1.51,5.77,4.52h.08c.6-3.02,2.86-5.47,6.29-5.47,3.92,0,7.35,3.05,7.35,8.93,0,2.75-.87,5.16-1.66,6.37l-2.56-.91Z"/><path d="m619.33,892.14v.08l2.39,4.43-2.62.67-2.98-5.56v-2.94h25.46v3.33h-22.25Z"/><path d="m641.58,868.87h-6.93v11.83h-2.27l-16.25-11.36v-3.72h15.82v-3.56h2.7v3.56h6.93v3.25Zm-9.63,0h-8.5c-1.33,0-2.66-.04-4-.12v.12c1.49.78,2.58,1.41,3.76,2.11l8.65,6.23h.08v-8.34Z"/><rect id="Base" width="1080" height="1080" opacity="0"/></g></g></svg>