<?xml version="1.0" encoding="UTF-8"?><svg id="Capa_2" xmlns="http://www.w3.org/2000/svg" viewBox="0 0 1080 1080"><g id="Capa_1-2"><g id="Multifilar_-_Interruptor_magnetotérmico_bipolar_F_N_PIA_-_2"><line x1="517.2" y1="666.82" x2="517.2" y2="922" fill="none" stroke="#000" stroke-miterlimit="10" stroke-width="5"/><line x1="390.69" y1="412.21" x2="517.2" y2="666.82" fill="none" stroke="#000" stroke-miterlimit="10" stroke-width="5"/><line x1="431.87" y1="494.02" x2="313.52" y2="553.34" fill="none" stroke="#000" stroke-miterlimit="10" stroke-width="5"/><line x1="387.79" y1="630.63" x2="340.98" y2="654.09" fill="none" stroke="#000" stroke-miterlimit="10" stroke-width="5"/><polygon points="295.1 562.56 397.97 539.31 375.3 494.07 295.1 562.56"/><line x1="409.67" y1="675.6" x2="387.53" y2="631.42" fill="none" stroke="#000" stroke-miterlimit="10" stroke-width="5"/><line x1="454.65" y1="653.72" x2="410.46" y2="675.87" fill="none" stroke="#000" stroke-miterlimit="10" stroke-width="5"/><line x1="432.51" y1="609.54" x2="454.65" y2="653.72" fill="none" stroke="#000" stroke-miterlimit="10" stroke-width="5"/><line x1="478.27" y1="585.28" x2="431.98" y2="608.48" fill="none" stroke="#000" stroke-miterlimit="10" stroke-width="5"/><line x1="772.29" y1="158" x2="771.55" y2="412.36" fill="none" stroke="#000" stroke-miterlimit="10" stroke-width="5"/><line x1="771.96" y1="666.82" x2="771.96" y2="922" fill="none" stroke="#000" stroke-miterlimit="10" stroke-width="5"/><line x1="645.27" y1="412.21" x2="771.96" y2="666.82" fill="none" stroke="#000" stroke-miterlimit="10" stroke-width="5"/><circle cx="771.96" cy="425.29" r="12.93" fill="none" stroke="#000" stroke-miterlimit="10" stroke-width="5"/><circle cx="517.39" cy="425.29" r="12.93" fill="none" stroke="#000" stroke-miterlimit="10" stroke-width="5"/><line x1="517.29" y1="158" x2="517.29" y2="412.36" fill="none" stroke="#000" stroke-miterlimit="10" stroke-width="5"/><path d="m469.64,187.06v.08l2.39,4.43-2.62.67-2.98-5.56v-2.94h25.46v3.33h-22.25Z"/><path d="m491.89,896.54h-2.08l-2.58-2.66c-6.09-6.39-9.32-9.28-13.09-9.32-2.54,0-4.89,1.23-4.89,4.97,0,2.27,1.16,4.16,2.12,5.31l-2.39,1.08c-1.46-1.73-2.54-4.2-2.54-7.09,0-5.39,3.7-7.66,7.28-7.66,4.62,0,8.36,3.35,13.44,8.63l1.85,2h.08v-11.25h2.81v15.98Z"/><path d="m746.44,202.82h-25.43v-3.58l12.87-8.15c2.98-1.89,5.66-3.36,8.26-4.57l-.04-.08c-3.4.3-6.49.38-10.45.38h-10.64v-3.09h25.43v3.32l-12.91,8.08c-2.83,1.77-5.74,3.47-8.49,4.75l.04.11c3.21-.19,6.26-.26,10.49-.26h10.87v3.09Z"/><path d="m746.44,896.54h-25.43v-3.58l12.87-8.15c2.98-1.89,5.66-3.36,8.26-4.57l-.04-.08c-3.4.3-6.49.38-10.45.38h-10.64v-3.09h25.43v3.32l-12.9,8.07c-2.83,1.77-5.73,3.47-8.49,4.75l.04.11c3.21-.19,6.26-.26,10.49-.26h10.87v3.09Z"/><line x1="454.93" y1="539.55" x2="460.93" y2="539.55" fill="none" stroke="#000" stroke-miterlimit="10" stroke-width="5"/><line x1="472.42" y1="539.55" x2="696.53" y2="539.55" fill="none" stroke="#000" stroke-dasharray="0 0 11.49 11.49" stroke-miterlimit="10" stroke-width="5"/><line x1="702.28" y1="539.55" x2="708.28" y2="539.55" fill="none" stroke="#000" stroke-miterlimit="10" stroke-width="5"/><rect id="Base" width="1080" height="1080" opacity="0"/></g></g></svg>