<?xml version="1.0" encoding="UTF-8"?><svg id="Capa_2" xmlns="http://www.w3.org/2000/svg" viewBox="0 0 1080 1080"><g id="Capa_1-2"><g id="Multifilar_-_Receptor_fotoeléctrico"><rect x="278.47" y="430.28" width="63.6" height="63.6" transform="translate(417.62 -84.05) rotate(45)" fill="none" stroke="#000" stroke-miterlimit="10" stroke-width="5"/><rect x="158" y="385.95" width="304.54" height="304.54" fill="none" stroke="#000" stroke-miterlimit="10" stroke-width="5"/><line x1="310.98" y1="386.65" x2="310.98" y2="233.3" fill="none" stroke="#000" stroke-miterlimit="10" stroke-width="5"/><line x1="310.98" y1="690.48" x2="310.98" y2="843.15" fill="none" stroke="#000" stroke-miterlimit="10" stroke-width="5"/><line x1="292.36" y1="435.01" x2="292.36" y2="489.15" fill="none" stroke="#000" stroke-miterlimit="10" stroke-width="5"/><line x1="328.17" y1="435.01" x2="328.17" y2="489.15" fill="none" stroke="#000" stroke-miterlimit="10" stroke-width="5"/><line x1="219.62" y1="568.67" x2="250.07" y2="568.67" fill="none" stroke="#000" stroke-miterlimit="10" stroke-width="5"/><polygon points="249.36 568.67 249.36 553.21 264.23 560.94 279.11 568.67 264.23 576.4 249.36 584.13 249.36 568.67"/><polygon points="333.15 641.22 340.19 627.45 349.91 641.11 359.63 654.76 342.87 654.87 326.11 654.98 333.15 641.22"/><line x1="219.62" y1="629.58" x2="250.07" y2="629.58" fill="none" stroke="#000" stroke-miterlimit="10" stroke-width="5"/><polygon points="249.36 629.58 249.36 614.11 264.23 621.84 279.11 629.58 264.23 637.31 249.36 645.04 249.36 629.58"/><line x1="310.98" y1="538.92" x2="310.98" y2="660.74" fill="none" stroke="#000" stroke-miterlimit="10" stroke-width="5"/><line x1="310.98" y1="629.58" x2="371.88" y2="660.74" fill="none" stroke="#000" stroke-miterlimit="10" stroke-width="5"/><line x1="371.88" y1="538.92" x2="310.98" y2="568.67" fill="none" stroke="#000" stroke-miterlimit="10" stroke-width="5"/><line x1="647.57" y1="388.81" x2="767.9" y2="662.17" fill="none" stroke="#000" stroke-miterlimit="10" stroke-width="5"/><line x1="616.5" y1="234.83" x2="616.5" y2="418.59" fill="none" stroke="#000" stroke-miterlimit="10" stroke-width="5"/><line x1="678.06" y1="417.95" x2="616.5" y2="417.95" fill="none" stroke="#000" stroke-miterlimit="10" stroke-width="5"/><line x1="859.49" y1="417.95" x2="922" y2="417.95" fill="none" stroke="#000" stroke-miterlimit="10" stroke-width="5"/><line x1="921.45" y1="236.35" x2="921.45" y2="417.84" fill="none" stroke="#000" stroke-miterlimit="10" stroke-width="5"/><line x1="767.9" y1="662.17" x2="767.57" y2="846.7" fill="none" stroke="#000" stroke-miterlimit="10" stroke-width="5"/><path d="m711.64,808.75v.09l2.86,5.3-3.14.8-3.57-6.66v-3.52h30.49v3.99h-26.65Z"/><path d="m711.64,784.69v.09l2.86,5.3-3.14.8-3.57-6.66v-3.52h30.49v3.99h-26.65Z"/><path d="m559.61,300.04v.09l2.81,5.21-3.09.78-3.5-6.54v-3.46h29.95v3.92h-26.17Z"/><path d="m585.78,285.2h-2.49l-3.09-3.18c-7.28-7.65-11.15-11.1-15.66-11.15-3.04,0-5.85,1.47-5.85,5.94,0,2.72,1.38,4.98,2.53,6.36l-2.86,1.29c-1.75-2.07-3.04-5.02-3.04-8.48,0-6.45,4.42-9.17,8.71-9.17,5.53,0,10,4.01,16.08,10.32l2.21,2.4h.09v-13.45h3.36v19.12Z"/><path d="m864.1,302.11v.09l2.86,5.3-3.14.8-3.57-6.66v-3.52h30.49v3.99h-26.65Z"/><path d="m890.75,274.25h-8.3v14.17h-2.72l-19.47-13.6v-4.46h18.95v-4.27h3.24v4.27h8.3v3.89Zm-11.54,0h-10.18c-1.6,0-3.19-.05-4.78-.14v.14c1.78.94,3.1,1.69,4.5,2.53l10.37,7.46h.09v-9.99Z"/><path d="m271.31,300.15l9.59,3.17v4.07l-30.49-10.36v-4.75l30.49-10.41v4.21l-9.59,3.26v10.81Zm-3.08-10l-8.78,2.98c-1.99.68-3.8,1.13-5.56,1.58v.09c1.81.45,3.67.95,5.52,1.54l8.82,2.99v-9.18Z"/><path d="m255.2,270.15v.09l2.76,5.11-3.03.77-3.44-6.42v-3.39h29.41v3.85h-25.7Z"/><path d="m271.22,807.64l9.68,3.2v4.11l-30.76-10.45v-4.79l30.76-10.5v4.24l-9.68,3.29v10.91Zm-3.1-10.09l-8.85,3.01c-2.01.69-3.83,1.14-5.61,1.6v.09c1.83.46,3.7.96,5.57,1.55l8.9,3.01v-9.26Z"/><path d="m280.9,786.09h-2.46l-3.06-3.15c-7.21-7.58-11.04-11-15.52-11.04-3.01,0-5.8,1.46-5.8,5.89,0,2.69,1.37,4.93,2.51,6.3l-2.83,1.28c-1.73-2.06-3.01-4.98-3.01-8.4,0-6.39,4.38-9.08,8.63-9.08,5.48,0,9.91,3.97,15.93,10.22l2.19,2.37h.09v-13.33h3.33v18.94Z"/><line x1="462.54" y1="540.19" x2="468.54" y2="540.19" fill="none" stroke="#000" stroke-miterlimit="10" stroke-width="5"/><line x1="481.14" y1="540.19" x2="701.59" y2="540.19" fill="none" stroke="#000" stroke-dasharray="0 0 12.6 12.6" stroke-miterlimit="10" stroke-width="5"/><line x1="707.89" y1="540.19" x2="713.89" y2="540.19" fill="none" stroke="#000" stroke-miterlimit="10" stroke-width="5"/><rect id="Base" width="1080" height="1080" opacity="0"/></g></g></svg>