<?xml version="1.0" encoding="UTF-8"?><svg id="Capa_2" xmlns="http://www.w3.org/2000/svg" viewBox="0 0 1080 1080"><g id="Capa_1-2"><g id="Multifilar_-_Contactos_de_fuerza"><path d="m284.54,412.51c-17.6,0-31.87-14.27-31.87-31.87s14.27-31.87,31.87-31.87" fill="none" stroke="#000" stroke-miterlimit="10" stroke-width="5"/><path d="m603.27,412.51c-17.6,0-31.87-14.27-31.87-31.87s14.27-31.87,31.87-31.87" fill="none" stroke="#000" stroke-miterlimit="10" stroke-width="5"/><path d="m922,412.51c-17.6,0-31.87-14.27-31.87-31.87s14.27-31.87,31.87-31.87" fill="none" stroke="#000" stroke-miterlimit="10" stroke-width="5"/><line x1="284.54" y1="731.64" x2="284.54" y2="890.6" fill="none" stroke="#000" stroke-miterlimit="10" stroke-width="5"/><line x1="158" y1="411.71" x2="284.54" y2="731.64" fill="none" stroke="#000" stroke-miterlimit="10" stroke-width="5"/><line x1="922" y1="731.64" x2="922" y2="890.6" fill="none" stroke="#000" stroke-miterlimit="10" stroke-width="5"/><line x1="795.46" y1="411.71" x2="922" y2="731.64" fill="none" stroke="#000" stroke-miterlimit="10" stroke-width="5"/><line x1="603.27" y1="731.64" x2="603.27" y2="890.6" fill="none" stroke="#000" stroke-miterlimit="10" stroke-width="5"/><line x1="476.73" y1="411.71" x2="603.27" y2="731.64" fill="none" stroke="#000" stroke-miterlimit="10" stroke-width="5"/><line x1="220.15" y1="571.08" x2="226.15" y2="571.08" fill="none" stroke="#000" stroke-miterlimit="10" stroke-width="5"/><line x1="237.95" y1="571.08" x2="845.72" y2="571.08" fill="none" stroke="#000" stroke-dasharray="0 0 11.8 11.8" stroke-miterlimit="10" stroke-width="5"/><line x1="851.62" y1="571.08" x2="857.62" y2="571.08" fill="none" stroke="#000" stroke-miterlimit="10" stroke-width="5"/><line x1="284.54" y1="189.4" x2="284.54" y2="412.51" fill="none" stroke="#000" stroke-miterlimit="10" stroke-width="5"/><line x1="922" y1="189.4" x2="922" y2="412.51" fill="none" stroke="#000" stroke-miterlimit="10" stroke-width="5"/><line x1="603.27" y1="189.4" x2="603.27" y2="412.51" fill="none" stroke="#000" stroke-miterlimit="10" stroke-width="5"/><path d="m224.97,225.44v.1l2.99,5.54-3.29.83-3.73-6.96v-3.68h31.87v4.17h-27.85Z"/><path d="m252.82,858.81h-2.6l-3.23-3.33c-7.62-8-11.67-11.62-16.39-11.67-3.18,0-6.12,1.54-6.12,6.22,0,2.85,1.45,5.21,2.65,6.65l-2.99,1.35c-1.83-2.17-3.18-5.26-3.18-8.87,0-6.75,4.63-9.6,9.11-9.6,5.79,0,10.46,4.19,16.83,10.8l2.31,2.51h.1v-14.08h3.52v20.01Z"/><path d="m566.24,239.33c.76-1.19,1.94-3.94,1.94-6.83,0-5.36-3.41-7.02-5.98-6.97-4.32.05-6.17,3.94-6.17,7.97v2.32h-3.13v-2.32c0-3.04-1.57-6.88-5.22-6.88-2.47,0-4.65,1.57-4.65,5.41,0,2.47,1.09,4.84,2.04,6.17l-3.04,1.09c-1.19-1.61-2.37-4.74-2.37-8.06,0-6.07,3.6-8.82,7.35-8.82,3.18,0,5.88,1.9,7.26,5.69h.09c.76-3.79,3.6-6.88,7.92-6.88,4.93,0,9.25,3.84,9.25,11.24,0,3.46-1.09,6.5-2.09,8.02l-3.23-1.14Z"/><path d="m571.55,843.92h-8.68v14.81h-2.84l-20.35-14.22v-4.66h19.81v-4.46h3.38v4.46h8.68v4.07Zm-12.06,0h-10.64c-1.67,0-3.33-.05-5-.15v.15c1.86.98,3.24,1.77,4.71,2.65l10.84,7.8h.1v-10.44Z"/><path d="m861.98,221.9v11.96l8.05,1.2c-.1-.72-.19-1.4-.19-2.56,0-2.41.53-4.82,1.69-6.75,1.4-2.46,4.1-4.48,8.05-4.48,6.12,0,10.71,4.87,10.71,11.67,0,3.42-.96,6.32-1.93,7.81l-3.23-1.06c.77-1.3,1.74-3.86,1.74-6.7,0-4-2.6-7.43-6.8-7.43-4.05.05-6.94,2.75-6.94,9.02,0,1.78.19,3.18.34,4.34l-15.04-2.03v-15h3.57Z"/><path d="m861.83,840.59c-.05.85,0,1.95.19,3.13,1.09,6.56,5.89,10.02,10.97,10.74v-.14c-1.95-1.47-3.56-4.04-3.56-7.46,0-5.46,3.94-9.31,9.98-9.31,5.65,0,10.88,3.85,10.88,10.26s-5.13,10.92-13.16,10.92c-6.08,0-10.88-2.19-13.92-5.23-2.52-2.56-4.09-5.98-4.56-9.88-.19-1.23-.24-2.28-.24-3.04h3.42Zm17.81,1.19c-4.42,0-7.08,2.52-7.08,6.37,0,2.52,1.57,4.85,3.8,5.99.47.28,1.09.48,1.85.48,5.08-.1,8.84-2.42,8.84-6.79,0-3.61-2.99-6.03-7.41-6.03Z"/><rect id="Base" width="1080" height="1080" opacity="0"/></g></g></svg>