<?xml version="1.0" encoding="UTF-8"?><svg id="Capa_2" xmlns="http://www.w3.org/2000/svg" viewBox="0 0 1080 1080"><g id="Capa_1-2"><g id="Multifilar_-_Generador_CA"><circle cx="540" cy="540.48" r="191.24" fill="none" stroke="#000" stroke-miterlimit="10" stroke-width="5"/><line x1="540" y1="158" x2="540" y2="348.28" fill="none" stroke="#000" stroke-miterlimit="10" stroke-width="5"/><line x1="540" y1="731.72" x2="540" y2="922" fill="none" stroke="#000" stroke-miterlimit="10" stroke-width="5"/><path d="m463.03,617.93c0-21.12,17.12-38.25,38.25-38.25s38.25,17.12,38.25,38.25" fill="none" stroke="#000" stroke-miterlimit="10" stroke-width="5"/><path d="m616.02,617.93c0,21.12-17.12,38.25-38.25,38.25s-38.25-17.12-38.25-38.25" fill="none" stroke="#000" stroke-miterlimit="10" stroke-width="5"/><path d="m580.81,534.19c-6.5,2.33-19.33,6.16-34.49,6.16-16.99,0-30.99-4.33-41.98-14.83-9.66-9.33-15.66-24.32-15.66-41.82.16-33.49,23.16-57.98,60.81-57.98,12.99,0,23.16,2.83,27.99,5.16l-3.5,11.83c-6-2.67-13.5-4.83-24.82-4.83-27.32,0-45.15,16.99-45.15,45.15s17.16,45.31,43.32,45.31c9.5,0,16-1.33,19.33-3v-33.49h-22.82v-11.66h36.99v53.98Z"/><rect id="Base" width="1080" height="1080" opacity="0"/></g></g></svg>