<?xml version="1.0" encoding="UTF-8"?><svg id="Capa_2" xmlns="http://www.w3.org/2000/svg" viewBox="0 0 1080 1080"><g id="Capa_1-2"><g id="Multifilar_-_Detector_de_proximidad_inductivo"><rect x="348.57" y="441.63" width="56.46" height="56.46" transform="translate(442.6 -128.82) rotate(45)" fill="none" stroke="#000" stroke-miterlimit="10" stroke-width="5"/><rect x="241.62" y="402.27" width="270.35" height="270.35" fill="none" stroke="#000" stroke-miterlimit="10" stroke-width="5"/><line x1="377.43" y1="402.9" x2="377.43" y2="267.43" fill="none" stroke="#000" stroke-miterlimit="10" stroke-width="5"/><line x1="377.43" y1="672.63" x2="377.43" y2="810.77" fill="none" stroke="#000" stroke-miterlimit="10" stroke-width="5"/><line x1="360.9" y1="445.83" x2="360.9" y2="493.89" fill="none" stroke="#000" stroke-miterlimit="10" stroke-width="5"/><line x1="392.69" y1="445.83" x2="392.69" y2="493.89" fill="none" stroke="#000" stroke-miterlimit="10" stroke-width="5"/><rect x="158" y="482.75" width="27.35" height="110.66" fill="none" stroke="#000" stroke-miterlimit="10" stroke-width="5"/><line x1="158.31" y1="482.75" x2="185.66" y2="510.42" fill="none" stroke="#000" stroke-miterlimit="10" stroke-width="5"/><line x1="185.66" y1="536.82" x2="158.31" y2="510.42" fill="none" stroke="#000" stroke-miterlimit="10" stroke-width="5"/><line x1="158.31" y1="538.08" x2="185.66" y2="565.74" fill="none" stroke="#000" stroke-miterlimit="10" stroke-width="5"/><line x1="185.66" y1="592.15" x2="158.31" y2="565.74" fill="none" stroke="#000" stroke-miterlimit="10" stroke-width="5"/><path d="m295.06,618.56c0-22.57,18.3-40.87,40.87-40.87s40.87,18.3,40.87,40.87" fill="none" stroke="#000" stroke-miterlimit="10" stroke-width="5"/><path d="m376.8,618.56c0-22.57,18.3-40.87,40.87-40.87s40.87,18.3,40.87,40.87" fill="none" stroke="#000" stroke-miterlimit="10" stroke-width="5"/><line x1="677.5" y1="404.62" x2="784.7" y2="648.16" fill="none" stroke="#000" stroke-miterlimit="10" stroke-width="5"/><line x1="649.82" y1="267.43" x2="649.82" y2="431.15" fill="none" stroke="#000" stroke-miterlimit="10" stroke-width="5"/><line x1="704.67" y1="430.58" x2="649.82" y2="430.58" fill="none" stroke="#000" stroke-miterlimit="10" stroke-width="5"/><line x1="866.31" y1="430.58" x2="922" y2="430.58" fill="none" stroke="#000" stroke-miterlimit="10" stroke-width="5"/><line x1="921.51" y1="268.79" x2="921.51" y2="430.49" fill="none" stroke="#000" stroke-miterlimit="10" stroke-width="5"/><line x1="784.7" y1="648.16" x2="784.42" y2="812.57" fill="none" stroke="#000" stroke-miterlimit="10" stroke-width="5"/><path d="m734.6,778.73v.08l2.57,4.75-2.82.72-3.2-5.97v-3.15h27.34v3.57h-23.89Z"/><path d="m734.6,757.15v.08l2.57,4.75-2.82.72-3.2-5.97v-3.15h27.34v3.57h-23.89Z"/><path d="m599.14,325.57v.08l2.51,4.64-2.75.7-3.12-5.84v-3.08h26.71v3.49h-23.34Z"/><path d="m622.49,312.33h-2.22l-2.75-2.84c-6.49-6.82-9.95-9.91-13.97-9.95-2.71,0-5.22,1.32-5.22,5.3,0,2.43,1.23,4.44,2.26,5.67l-2.55,1.15c-1.56-1.85-2.71-4.48-2.71-7.56,0-5.75,3.95-8.18,7.77-8.18,4.93,0,8.92,3.58,14.34,9.21l1.97,2.14h.08v-12h3v17.06Z"/><path d="m870.41,327.38v.08l2.55,4.72-2.8.71-3.18-5.94v-3.13h27.17v3.55h-23.74Z"/><path d="m894.15,302.55h-7.4v12.62h-2.42l-17.34-12.12v-3.97h16.88v-3.8h2.88v3.8h7.4v3.47Zm-10.28,0h-9.07c-1.42,0-2.84-.04-4.26-.13v.13c1.59.84,2.76,1.5,4.01,2.26l9.24,6.65h.08v-8.9Z"/><path d="m342.28,325.63l8.54,2.82v3.63l-27.17-9.23v-4.23l27.17-9.27v3.75l-8.54,2.9v9.63Zm-2.74-8.91l-7.82,2.66c-1.77.61-3.39,1.01-4.96,1.41v.08c1.61.4,3.27.85,4.92,1.37l7.86,2.66v-8.18Z"/><path d="m327.92,298.9v.08l2.46,4.56-2.7.69-3.06-5.72v-3.02h26.2v3.43h-22.9Z"/><path d="m342.28,777.46l8.54,2.82v3.63l-27.17-9.23v-4.23l27.17-9.27v3.75l-8.54,2.9v9.63Zm-2.74-8.91l-7.82,2.66c-1.77.61-3.39,1.01-4.96,1.41v.08c1.61.4,3.27.85,4.92,1.37l7.86,2.66v-8.18Z"/><path d="m350.82,758.42h-2.18l-2.7-2.78c-6.37-6.69-9.75-9.71-13.7-9.75-2.66,0-5.12,1.29-5.12,5.2,0,2.38,1.21,4.36,2.22,5.56l-2.5,1.13c-1.53-1.81-2.66-4.39-2.66-7.42,0-5.64,3.87-8.02,7.62-8.02,4.84,0,8.75,3.51,14.07,9.03l1.93,2.1h.08v-11.77h2.94v16.73Z"/><line x1="513.09" y1="539.49" x2="519.09" y2="539.49" fill="none" stroke="#000" stroke-miterlimit="10" stroke-width="5"/><line x1="531.53" y1="539.49" x2="724.37" y2="539.49" fill="none" stroke="#000" stroke-dasharray="0 0 12.44 12.44" stroke-miterlimit="10" stroke-width="5"/><line x1="730.59" y1="539.49" x2="736.59" y2="539.49" fill="none" stroke="#000" stroke-miterlimit="10" stroke-width="5"/><rect id="Base" width="1080" height="1080" opacity="0"/></g></g></svg>