<?xml version="1.0" encoding="UTF-8"?><svg id="Capa_2" xmlns="http://www.w3.org/2000/svg" viewBox="0 0 1080 1080"><g id="Capa_1-2"><g id="Multifilar_-_Bobina_variable_con_destornillador"><path d="m444.57,517.02c0-26.39-21.39-47.79-47.79-47.79s-47.79,21.39-47.79,47.79" fill="none" stroke="#000" stroke-miterlimit="10" stroke-width="5"/><path d="m540.05,517.02c0-26.39-21.39-47.79-47.79-47.79s-47.79,21.39-47.79,47.79" fill="none" stroke="#000" stroke-miterlimit="10" stroke-width="5"/><path d="m635.52,517.02c0-26.39-21.39-47.79-47.79-47.79s-47.79,21.39-47.79,47.79" fill="none" stroke="#000" stroke-miterlimit="10" stroke-width="5"/><path d="m731,517.02c0-26.39-21.39-47.79-47.79-47.79s-47.79,21.39-47.79,47.79" fill="none" stroke="#000" stroke-miterlimit="10" stroke-width="5"/><line x1="922" y1="517.96" x2="731" y2="517.96" fill="none" stroke="#000" stroke-miterlimit="10" stroke-width="5"/><line x1="349" y1="518.91" x2="158" y2="518.91" fill="none" stroke="#000" stroke-miterlimit="10" stroke-width="5"/><line x1="348.77" y1="712.08" x2="693.73" y2="367.92" fill="none" stroke="#000" stroke-miterlimit="10" stroke-width="5"/><line x1="654.92" y1="367.92" x2="731.38" y2="367.92" fill="none" stroke="#000" stroke-miterlimit="10" stroke-width="5"/><rect id="Base" width="1080" height="1080" opacity="0"/></g></g></svg>