<?xml version="1.0" encoding="UTF-8"?><svg id="Capa_2" xmlns="http://www.w3.org/2000/svg" viewBox="0 0 1080 1080"><g id="Capa_1-2"><g id="Multifilar_-_Interruptor_diferencial_bipolar"><line x1="550.74" y1="162.55" x2="550.74" y2="319.79" fill="none" stroke="#000" stroke-miterlimit="10" stroke-width="5"/><line x1="393.86" y1="162.55" x2="393.86" y2="319.79" fill="none" stroke="#000" stroke-miterlimit="10" stroke-width="5"/><line x1="315.24" y1="320.15" x2="393.86" y2="477.76" fill="none" stroke="#000" stroke-miterlimit="10" stroke-width="5"/><line x1="472.48" y1="319.42" x2="551.1" y2="477.39" fill="none" stroke="#000" stroke-miterlimit="10" stroke-width="5"/><line x1="393.13" y1="477.39" x2="393.13" y2="917.45" fill="none" stroke="#000" stroke-miterlimit="10" stroke-width="5"/><line x1="551.1" y1="477.39" x2="551.1" y2="917.45" fill="none" stroke="#000" stroke-miterlimit="10" stroke-width="5"/><circle cx="551.1" cy="508.7" r="7.64"/><circle cx="393.13" cy="760.58" r="7.64"/><line x1="550.74" y1="508.33" x2="707.98" y2="508.33" fill="none" stroke="#000" stroke-miterlimit="10" stroke-width="5"/><line x1="707.62" y1="477.39" x2="707.62" y2="508.7" fill="none" stroke="#000" stroke-miterlimit="10" stroke-width="5"/><line x1="629" y1="319.42" x2="707.62" y2="477.39" fill="none" stroke="#000" stroke-miterlimit="10" stroke-width="5"/><line x1="786.97" y1="539.27" x2="865.59" y2="697.24" fill="none" stroke="#000" stroke-miterlimit="10" stroke-width="5"/><line x1="707.62" y1="240.8" x2="707.62" y2="319.42" fill="none" stroke="#000" stroke-miterlimit="10" stroke-width="5"/><line x1="865.59" y1="240.8" x2="707.62" y2="240.8" fill="none" stroke="#000" stroke-miterlimit="10" stroke-width="5"/><line x1="865.59" y1="319.42" x2="865.59" y2="240.8" fill="none" stroke="#000" stroke-miterlimit="10" stroke-width="5"/><line x1="865.59" y1="477.76" x2="865.59" y2="540.36" fill="none" stroke="#000" stroke-miterlimit="10" stroke-width="5"/><line x1="865.59" y1="697.61" x2="865.59" y2="760.21" fill="none" stroke="#000" stroke-miterlimit="10" stroke-width="5"/><rect x="833.56" y="319.42" width="63.33" height="157.97" fill="none" stroke="#000" stroke-miterlimit="10" stroke-width="5"/><line x1="692.33" y1="570.94" x2="692.33" y2="665.58" fill="none" stroke="#000" stroke-miterlimit="10" stroke-width="5"/><line x1="691.97" y1="571.3" x2="724" y2="571.3" fill="none" stroke="#000" stroke-miterlimit="10" stroke-width="5"/><line x1="692.69" y1="665.94" x2="724" y2="665.94" fill="none" stroke="#000" stroke-miterlimit="10" stroke-width="5"/><line x1="865.59" y1="760.21" x2="392.77" y2="760.21" fill="none" stroke="#000" stroke-miterlimit="10" stroke-width="5"/><path d="m582.41,665.94c17.39,0,31.48-14.1,31.48-31.48s-14.1-31.48-31.48-31.48" fill="none" stroke="#000" stroke-miterlimit="10" stroke-width="5"/><path d="m346,602.97c-17.39,0-31.48,14.1-31.48,31.48s14.1,31.48,31.48,31.48" fill="none" stroke="#000" stroke-miterlimit="10" stroke-width="5"/><line x1="345.82" y1="602.97" x2="582.41" y2="602.97" fill="none" stroke="#000" stroke-miterlimit="10" stroke-width="5"/><line x1="345.82" y1="665.94" x2="582.41" y2="665.94" fill="none" stroke="#000" stroke-miterlimit="10" stroke-width="5"/><path d="m314.88,665.94c17.39,0,31.48-14.1,31.48-31.48s-14.1-31.48-31.48-31.48" fill="none" stroke="#000" stroke-miterlimit="10" stroke-width="5"/><line x1="189.67" y1="602.97" x2="314.88" y2="602.97" fill="none" stroke="#000" stroke-miterlimit="10" stroke-width="5"/><line x1="189.67" y1="665.94" x2="314.88" y2="665.94" fill="none" stroke="#000" stroke-miterlimit="10" stroke-width="5"/><line x1="190.03" y1="618.62" x2="190.03" y2="603.33" fill="none" stroke="#000" stroke-miterlimit="10" stroke-width="5"/><line x1="190.03" y1="649.92" x2="190.03" y2="665.94" fill="none" stroke="#000" stroke-miterlimit="10" stroke-width="5"/><rect x="158.73" y="618.62" width="62.61" height="31.3" fill="none" stroke="#000" stroke-miterlimit="10" stroke-width="5"/><rect x="236.62" y="367.47" width="62.61" height="62.61" fill="none" stroke="#000" stroke-miterlimit="10" stroke-width="5"/><line x1="158" y1="366.74" x2="158" y2="430.08" fill="none" stroke="#000" stroke-miterlimit="10" stroke-width="5"/><line x1="236.62" y1="398.77" x2="299.23" y2="398.77" fill="none" stroke="#000" stroke-miterlimit="10" stroke-width="5"/><line x1="267.92" y1="366.74" x2="267.92" y2="430.08" fill="none" stroke="#000" stroke-miterlimit="10" stroke-width="5"/><path d="m377.78,901.25h-1.28l-1.59-1.64c-3.75-3.94-5.75-5.73-8.08-5.75-1.57,0-3.02.76-3.02,3.06,0,1.4.71,2.57,1.31,3.28l-1.47.67c-.9-1.07-1.57-2.59-1.57-4.37,0-3.33,2.28-4.73,4.49-4.73,2.85,0,5.16,2.07,8.29,5.32l1.14,1.24h.05v-6.94h1.73v9.86Z"/><path d="m364.05,180.8v.05l1.47,2.73-1.62.41-1.84-3.43v-1.81h15.71v2.05h-13.73Z"/><path d="m534.84,190.54h-15.71v-2.21l7.95-5.03c1.84-1.17,3.5-2.07,5.1-2.82l-.02-.05c-2.1.19-4.01.23-6.45.23h-6.57v-1.91h15.71v2.05l-7.97,4.99c-1.75,1.1-3.54,2.14-5.24,2.94l.02.07c1.98-.12,3.87-.16,6.48-.16h6.71v1.91Z"/><path d="m534.84,901.25h-15.69v-2.21l7.94-5.03c1.84-1.16,3.49-2.07,5.1-2.82l-.02-.05c-2.09.19-4,.23-6.45.23h-6.56v-1.91h15.69v2.05l-7.96,4.98c-1.75,1.09-3.54,2.14-5.24,2.93l.02.07c1.98-.12,3.86-.16,6.47-.16h6.7v1.91Z"/><path d="m911.8,367.55c1.02-.21,2.49-.33,3.88-.33,2.16,0,3.56.4,4.53,1.28.79.7,1.23,1.77,1.23,2.97,0,2.07-1.3,3.44-2.95,4v.07c1.21.42,1.93,1.53,2.3,3.16.51,2.18.88,3.7,1.21,4.3h-2.09c-.26-.44-.6-1.79-1.05-3.74-.46-2.16-1.3-2.97-3.14-3.04h-1.91v6.79h-2.02v-15.45Zm2.02,7.13h2.07c2.16,0,3.53-1.19,3.53-2.97,0-2.02-1.46-2.9-3.6-2.93-.98,0-1.67.09-2,.19v5.72Z"/><path d="m706.74,541.72h-4.78v-1.72h11.63v1.72h-4.8v13.98h-2.05v-13.98Z"/><line x1="299.23" y1="398.77" x2="305.23" y2="398.77" fill="none" stroke="#000" stroke-miterlimit="10" stroke-width="5"/><line x1="317.54" y1="398.77" x2="656.15" y2="398.77" fill="none" stroke="#000" stroke-dasharray="0 0 12.31 12.31" stroke-miterlimit="10" stroke-width="5"/><line x1="662.31" y1="398.77" x2="668.31" y2="398.77" fill="none" stroke="#000" stroke-miterlimit="10" stroke-width="5"/><line x1="692.33" y1="618.26" x2="698.33" y2="618.26" fill="none" stroke="#000" stroke-miterlimit="10" stroke-width="5"/><line x1="709.38" y1="618.26" x2="814.39" y2="618.26" fill="none" stroke="#000" stroke-dasharray="0 0 11.05 11.05" stroke-miterlimit="10" stroke-width="5"/><line x1="819.91" y1="618.26" x2="825.91" y2="618.26" fill="none" stroke="#000" stroke-miterlimit="10" stroke-width="5"/><line x1="267.92" y1="430.08" x2="267.93" y2="436.08" fill="none" stroke="#000" stroke-miterlimit="10" stroke-width="5"/><line x1="267.95" y1="447.4" x2="268.27" y2="622.97" fill="none" stroke="#000" stroke-dasharray="0 0 11.33 11.33" stroke-miterlimit="10" stroke-width="5"/><line x1="268.28" y1="628.64" x2="268.29" y2="634.64" fill="none" stroke="#000" stroke-miterlimit="10" stroke-width="5"/><line x1="268.29" y1="634.64" x2="262.29" y2="634.64" fill="none" stroke="#000" stroke-miterlimit="10" stroke-width="5"/><line x1="250.76" y1="634.64" x2="233.46" y2="634.64" fill="none" stroke="#000" stroke-dasharray="0 0 11.53 11.53" stroke-miterlimit="10" stroke-width="5"/><line x1="227.7" y1="634.64" x2="221.7" y2="634.64" fill="none" stroke="#000" stroke-miterlimit="10" stroke-width="5"/><line x1="236.62" y1="398.05" x2="230.62" y2="398.05" fill="none" stroke="#000" stroke-miterlimit="10" stroke-width="5"/><line x1="217.44" y1="398.05" x2="171.32" y2="398.05" fill="none" stroke="#000" stroke-dasharray="0 0 13.18 13.18" stroke-miterlimit="10" stroke-width="5"/><line x1="164.73" y1="398.05" x2="158.73" y2="398.05" fill="none" stroke="#000" stroke-miterlimit="10" stroke-width="5"/><rect id="Base" width="1080" height="1080" opacity="0"/></g></g></svg>