<?xml version="1.0" encoding="UTF-8"?><svg id="Capa_2" xmlns="http://www.w3.org/2000/svg" viewBox="0 0 1080 1080"><g id="Capa_1-2"><g id="Multifilar_-_Interruptor_diferencial_rearmable_bipolar"><line x1="550.83" y1="162.46" x2="550.83" y2="319.74" fill="none" stroke="#000" stroke-miterlimit="10" stroke-width="5"/><line x1="393.92" y1="162.46" x2="393.92" y2="319.74" fill="none" stroke="#000" stroke-miterlimit="10" stroke-width="5"/><line x1="315.28" y1="320.1" x2="393.92" y2="477.74" fill="none" stroke="#000" stroke-miterlimit="10" stroke-width="5"/><line x1="472.56" y1="319.37" x2="551.2" y2="477.38" fill="none" stroke="#000" stroke-miterlimit="10" stroke-width="5"/><line x1="393.19" y1="477.38" x2="393.19" y2="917.54" fill="none" stroke="#000" stroke-miterlimit="10" stroke-width="5"/><line x1="551.2" y1="477.38" x2="551.2" y2="917.54" fill="none" stroke="#000" stroke-miterlimit="10" stroke-width="5"/><circle cx="551.2" cy="508.69" r="7.65"/><circle cx="393.92" cy="209.42" r="7.65"/><circle cx="551.2" cy="272.77" r="7.65"/><circle cx="393.19" cy="760.63" r="7.65"/><line x1="550.83" y1="508.33" x2="708.11" y2="508.33" fill="none" stroke="#000" stroke-miterlimit="10" stroke-width="5"/><line x1="707.74" y1="477.38" x2="707.74" y2="508.69" fill="none" stroke="#000" stroke-miterlimit="10" stroke-width="5"/><line x1="629.11" y1="319.37" x2="707.74" y2="477.38" fill="none" stroke="#000" stroke-miterlimit="10" stroke-width="5"/><line x1="787.11" y1="539.27" x2="865.75" y2="697.28" fill="none" stroke="#000" stroke-miterlimit="10" stroke-width="5"/><line x1="707.74" y1="240.73" x2="707.74" y2="319.37" fill="none" stroke="#000" stroke-miterlimit="10" stroke-width="5"/><line x1="865.75" y1="240.73" x2="707.74" y2="240.73" fill="none" stroke="#000" stroke-miterlimit="10" stroke-width="5"/><line x1="865.75" y1="319.37" x2="865.75" y2="240.73" fill="none" stroke="#000" stroke-miterlimit="10" stroke-width="5"/><line x1="865.75" y1="477.74" x2="865.75" y2="540.36" fill="none" stroke="#000" stroke-miterlimit="10" stroke-width="5"/><line x1="865.75" y1="697.64" x2="865.75" y2="760.26" fill="none" stroke="#000" stroke-miterlimit="10" stroke-width="5"/><rect x="833.71" y="319.37" width="63.35" height="158.01" fill="none" stroke="#000" stroke-miterlimit="10" stroke-width="5"/><line x1="692.45" y1="570.95" x2="692.45" y2="665.6" fill="none" stroke="#000" stroke-miterlimit="10" stroke-width="5"/><line x1="692.09" y1="571.31" x2="724.13" y2="571.31" fill="none" stroke="#000" stroke-miterlimit="10" stroke-width="5"/><line x1="692.82" y1="665.97" x2="724.13" y2="665.97" fill="none" stroke="#000" stroke-miterlimit="10" stroke-width="5"/><line x1="865.75" y1="760.26" x2="392.82" y2="760.26" fill="none" stroke="#000" stroke-miterlimit="10" stroke-width="5"/><path d="m582.51,665.97c17.39,0,31.49-14.1,31.49-31.49s-14.1-31.49-31.49-31.49" fill="none" stroke="#000" stroke-miterlimit="10" stroke-width="5"/><path d="m346.04,602.98c-17.39,0-31.49,14.1-31.49,31.49s14.1,31.49,31.49,31.49" fill="none" stroke="#000" stroke-miterlimit="10" stroke-width="5"/><line x1="345.86" y1="602.98" x2="582.51" y2="602.98" fill="none" stroke="#000" stroke-miterlimit="10" stroke-width="5"/><line x1="345.86" y1="665.97" x2="582.51" y2="665.97" fill="none" stroke="#000" stroke-miterlimit="10" stroke-width="5"/><path d="m314.91,665.97c17.39,0,31.49-14.1,31.49-31.49s-14.1-31.49-31.49-31.49" fill="none" stroke="#000" stroke-miterlimit="10" stroke-width="5"/><line x1="189.67" y1="602.98" x2="314.91" y2="602.98" fill="none" stroke="#000" stroke-miterlimit="10" stroke-width="5"/><line x1="189.67" y1="665.97" x2="314.91" y2="665.97" fill="none" stroke="#000" stroke-miterlimit="10" stroke-width="5"/><line x1="190.04" y1="618.64" x2="190.04" y2="603.35" fill="none" stroke="#000" stroke-miterlimit="10" stroke-width="5"/><line x1="190.04" y1="649.95" x2="190.04" y2="665.97" fill="none" stroke="#000" stroke-miterlimit="10" stroke-width="5"/><rect x="158.73" y="618.64" width="62.62" height="31.31" fill="none" stroke="#000" stroke-miterlimit="10" stroke-width="5"/><rect x="203.76" y="367.21" width="62.62" height="62.62" fill="none" stroke="#000" stroke-miterlimit="10" stroke-width="5"/><line x1="158" y1="366.7" x2="158" y2="430.05" fill="none" stroke="#000" stroke-miterlimit="10" stroke-width="5"/><line x1="203.76" y1="398.52" x2="266.38" y2="398.52" fill="none" stroke="#000" stroke-miterlimit="10" stroke-width="5"/><line x1="235.07" y1="366.85" x2="235.07" y2="430.2" fill="none" stroke="#000" stroke-miterlimit="10" stroke-width="5"/><polygon points="283.24 398.12 330.57 429.54 330.57 366.7 283.24 398.12" fill="none" stroke="#000" stroke-miterlimit="10" stroke-width="5"/><rect x="204.6" y="225.44" width="63.35" height="93.93" fill="none" stroke="#000" stroke-miterlimit="10" stroke-width="5"/><line x1="173.29" y1="272.77" x2="204.6" y2="272.77" fill="none" stroke="#000" stroke-miterlimit="10" stroke-width="5"/><line x1="173.29" y1="209.42" x2="173.29" y2="272.77" fill="none" stroke="#000" stroke-miterlimit="10" stroke-width="5"/><line x1="393.92" y1="209.42" x2="173.29" y2="209.42" fill="none" stroke="#000" stroke-miterlimit="10" stroke-width="5"/><line x1="267.95" y1="272.77" x2="551.2" y2="272.77" fill="none" stroke="#000" stroke-miterlimit="10" stroke-width="5"/><path d="m376.75,901.8h-1.29l-1.6-1.64c-3.76-3.95-5.76-5.74-8.1-5.76-1.57,0-3.02.76-3.02,3.07,0,1.4.71,2.57,1.31,3.29l-1.48.67c-.9-1.07-1.57-2.59-1.57-4.38,0-3.33,2.29-4.74,4.5-4.74,2.86,0,5.17,2.07,8.31,5.33l1.14,1.24h.05v-6.95h1.74v9.88Z"/><path d="m363,179.94v.05l1.48,2.74-1.62.41-1.84-3.44v-1.82h15.74v2.06h-13.75Z"/><path d="m534.13,189.69h-15.74v-2.22l7.96-5.04c1.84-1.17,3.5-2.08,5.11-2.83l-.02-.05c-2.1.19-4.02.23-6.47.23h-6.58v-1.91h15.74v2.05l-7.99,5c-1.75,1.1-3.55,2.15-5.25,2.94l.02.07c1.98-.12,3.88-.16,6.49-.16h6.72v1.91Z"/><path d="m534.13,901.8h-15.74v-2.22l7.96-5.04c1.84-1.17,3.5-2.08,5.11-2.83l-.02-.05c-2.1.19-4.02.23-6.47.23h-6.58v-1.91h15.74v2.05l-7.99,5c-1.75,1.1-3.55,2.15-5.25,2.94l.02.07c1.98-.12,3.88-.16,6.49-.16h6.72v1.91Z"/><path d="m911.83,367.05c1.02-.21,2.48-.32,3.87-.32,2.16,0,3.55.39,4.52,1.27.79.7,1.23,1.76,1.23,2.97,0,2.06-1.3,3.43-2.94,3.99v.07c1.21.42,1.92,1.53,2.29,3.15.51,2.18.88,3.69,1.21,4.29h-2.09c-.25-.44-.6-1.78-1.04-3.73-.46-2.16-1.3-2.97-3.13-3.04h-1.9v6.77h-2.02v-15.41Zm2.02,7.12h2.06c2.16,0,3.52-1.18,3.52-2.97,0-2.02-1.46-2.9-3.59-2.92-.97,0-1.67.09-1.99.19v5.7Z"/><path d="m706.27,541.56h-4.79v-1.73h11.66v1.73h-4.81v14.02h-2.06v-14.02Z"/><line x1="692.45" y1="618.28" x2="698.45" y2="618.28" fill="none" stroke="#000" stroke-miterlimit="10" stroke-width="5"/><line x1="709.51" y1="618.28" x2="814.54" y2="618.28" fill="none" stroke="#000" stroke-dasharray="0 0 11.06 11.06" stroke-miterlimit="10" stroke-width="5"/><line x1="820.07" y1="618.28" x2="826.07" y2="618.28" fill="none" stroke="#000" stroke-miterlimit="10" stroke-width="5"/><line x1="266.38" y1="398.52" x2="272.38" y2="398.52" fill="none" stroke="#000" stroke-miterlimit="10" stroke-width="5"/><line x1="284.19" y1="398.52" x2="656.52" y2="398.52" fill="none" stroke="#000" stroke-dasharray="0 0 11.82 11.82" stroke-miterlimit="10" stroke-width="5"/><line x1="662.43" y1="398.52" x2="668.43" y2="398.52" fill="none" stroke="#000" stroke-miterlimit="10" stroke-width="5"/><line x1="235.07" y1="366.7" x2="235.07" y2="360.7" fill="none" stroke="#000" stroke-miterlimit="10" stroke-width="5"/><line x1="235.07" y1="348.93" x2="235.07" y2="331.26" fill="none" stroke="#000" stroke-dasharray="0 0 11.78 11.78" stroke-miterlimit="10" stroke-width="5"/><line x1="235.07" y1="325.37" x2="235.07" y2="319.37" fill="none" stroke="#000" stroke-miterlimit="10" stroke-width="5"/><line x1="203.76" y1="398.52" x2="197.76" y2="398.52" fill="none" stroke="#000" stroke-miterlimit="10" stroke-width="5"/><line x1="186.75" y1="398.52" x2="170.23" y2="398.52" fill="none" stroke="#000" stroke-dasharray="0 0 11.01 11.01" stroke-miterlimit="10" stroke-width="5"/><line x1="164.73" y1="398.52" x2="158.73" y2="398.52" fill="none" stroke="#000" stroke-miterlimit="10" stroke-width="5"/><line x1="235.07" y1="634.66" x2="229.07" y2="634.66" fill="none" stroke="#000" stroke-miterlimit="10" stroke-width="5"/><line x1="227.71" y1="634.66" x2="221.71" y2="634.66" fill="none" stroke="#000" stroke-miterlimit="10" stroke-width="5"/><line x1="235.07" y1="634.66" x2="235.07" y2="628.66" fill="none" stroke="#000" stroke-miterlimit="10" stroke-width="5"/><line x1="235.07" y1="617.33" x2="235.07" y2="441.72" fill="none" stroke="#000" stroke-dasharray="0 0 11.33 11.33" stroke-miterlimit="10" stroke-width="5"/><line x1="235.07" y1="436.05" x2="235.07" y2="430.05" fill="none" stroke="#000" stroke-miterlimit="10" stroke-width="5"/><rect id="Base" width="1080" height="1080" opacity="0"/></g></g></svg>