<?xml version="1.0" encoding="UTF-8"?><svg id="Capa_2" xmlns="http://www.w3.org/2000/svg" viewBox="0 0 1080 1080"><g id="Capa_1-2"><g id="Multifilar_-_Interruptor_magnetotérmico_tripolar_PIA_-_2"><line x1="389.57" y1="158" x2="389.57" y2="411.39" fill="none" stroke="#000" stroke-miterlimit="10" stroke-width="5"/><line x1="390.38" y1="666.64" x2="389.57" y2="922" fill="none" stroke="#000" stroke-miterlimit="10" stroke-width="5"/><line x1="263.82" y1="412.57" x2="390.38" y2="666.64" fill="none" stroke="#000" stroke-miterlimit="10" stroke-width="5"/><line x1="304.56" y1="493.87" x2="186.17" y2="553.21" fill="none" stroke="#000" stroke-miterlimit="10" stroke-width="5"/><line x1="260.47" y1="630.53" x2="213.64" y2="654" fill="none" stroke="#000" stroke-miterlimit="10" stroke-width="5"/><polygon points="167.75 562.44 270.65 539.18 247.97 493.92 167.75 562.44"/><line x1="282.36" y1="675.52" x2="260.21" y2="631.32" fill="none" stroke="#000" stroke-miterlimit="10" stroke-width="5"/><line x1="327.35" y1="653.63" x2="283.15" y2="675.78" fill="none" stroke="#000" stroke-miterlimit="10" stroke-width="5"/><line x1="305.2" y1="609.42" x2="327.35" y2="653.63" fill="none" stroke="#000" stroke-miterlimit="10" stroke-width="5"/><line x1="350.98" y1="585.17" x2="304.67" y2="608.37" fill="none" stroke="#000" stroke-miterlimit="10" stroke-width="5"/><circle cx="389.57" cy="425.1" r="13.07" fill="none" stroke="#000" stroke-miterlimit="10" stroke-width="5"/><line x1="773.54" y1="412.57" x2="900.09" y2="666.64" fill="none" stroke="#000" stroke-miterlimit="10" stroke-width="5"/><line x1="814.29" y1="493.87" x2="695.89" y2="553.21" fill="none" stroke="#000" stroke-miterlimit="10" stroke-width="5"/><line x1="770.19" y1="630.53" x2="723.36" y2="654" fill="none" stroke="#000" stroke-miterlimit="10" stroke-width="5"/><polygon points="677.47 562.44 780.37 539.18 757.69 493.92 677.47 562.44"/><line x1="792.08" y1="675.52" x2="769.93" y2="631.32" fill="none" stroke="#000" stroke-miterlimit="10" stroke-width="5"/><line x1="837.08" y1="653.63" x2="792.87" y2="675.78" fill="none" stroke="#000" stroke-miterlimit="10" stroke-width="5"/><line x1="814.92" y1="609.42" x2="837.08" y2="653.63" fill="none" stroke="#000" stroke-miterlimit="10" stroke-width="5"/><line x1="860.7" y1="585.17" x2="814.4" y2="608.37" fill="none" stroke="#000" stroke-miterlimit="10" stroke-width="5"/><line x1="899.27" y1="158" x2="899.27" y2="413.45" fill="none" stroke="#000" stroke-miterlimit="10" stroke-width="5"/><line x1="900.09" y1="666.64" x2="899.27" y2="922" fill="none" stroke="#000" stroke-miterlimit="10" stroke-width="5"/><circle cx="899.27" cy="425.19" r="12.99" fill="none" stroke="#000" stroke-miterlimit="10" stroke-width="5"/><line x1="517.8" y1="412.57" x2="644.97" y2="666.64" fill="none" stroke="#000" stroke-miterlimit="10" stroke-width="5"/><line x1="558.55" y1="493.87" x2="440.15" y2="553.21" fill="none" stroke="#000" stroke-miterlimit="10" stroke-width="5"/><line x1="514.45" y1="630.53" x2="467.62" y2="654" fill="none" stroke="#000" stroke-miterlimit="10" stroke-width="5"/><polygon points="421.73 562.44 524.63 539.18 501.95 493.92 421.73 562.44"/><line x1="536.34" y1="675.52" x2="514.19" y2="631.32" fill="none" stroke="#000" stroke-miterlimit="10" stroke-width="5"/><line x1="581.34" y1="653.63" x2="537.13" y2="675.78" fill="none" stroke="#000" stroke-miterlimit="10" stroke-width="5"/><line x1="559.18" y1="609.42" x2="581.34" y2="653.63" fill="none" stroke="#000" stroke-miterlimit="10" stroke-width="5"/><line x1="604.96" y1="585.17" x2="558.66" y2="608.37" fill="none" stroke="#000" stroke-miterlimit="10" stroke-width="5"/><line x1="644.77" y1="158" x2="644.77" y2="413.45" fill="none" stroke="#000" stroke-miterlimit="10" stroke-width="5"/><line x1="644.97" y1="666.64" x2="644.77" y2="922" fill="none" stroke="#000" stroke-miterlimit="10" stroke-width="5"/><circle cx="644.77" cy="425.29" r="12.89" fill="none" stroke="#000" stroke-miterlimit="10" stroke-width="5"/><path d="m614.78,197.84c.6-.94,1.54-3.12,1.54-5.42,0-4.25-2.71-5.57-4.74-5.53-3.43.04-4.89,3.12-4.89,6.32v1.84h-2.48v-1.84c0-2.41-1.24-5.46-4.14-5.46-1.96,0-3.69,1.24-3.69,4.29,0,1.96.87,3.84,1.62,4.89l-2.41.87c-.94-1.28-1.88-3.76-1.88-6.4,0-4.82,2.86-7,5.83-7,2.52,0,4.67,1.51,5.76,4.52h.07c.6-3.01,2.86-5.46,6.29-5.46,3.91,0,7.34,3.05,7.34,8.92,0,2.75-.87,5.16-1.66,6.36l-2.56-.9Z"/><path d="m619.17,884.7h-6.93v11.83h-2.27l-16.26-11.36v-3.72h15.83v-3.57h2.7v3.57h6.93v3.25Zm-9.64,0h-8.5c-1.33,0-2.66-.04-4-.12v.12c1.49.78,2.59,1.41,3.76,2.12l8.66,6.23h.08v-8.35Z"/><path d="m851.22,183.97v9.55l6.43.96c-.08-.58-.15-1.12-.15-2.04,0-1.93.42-3.85,1.35-5.39,1.12-1.96,3.27-3.58,6.43-3.58,4.89,0,8.55,3.89,8.55,9.32,0,2.74-.77,5.05-1.54,6.24l-2.58-.85c.62-1.04,1.39-3.08,1.39-5.36,0-3.2-2.08-5.93-5.43-5.93-3.24.04-5.55,2.2-5.55,7.2,0,1.43.15,2.54.27,3.47l-12.02-1.62v-11.98h2.85Z"/><path d="m851.1,882.04c-.04.68,0,1.56.15,2.5.87,5.24,4.71,8.01,8.77,8.58v-.11c-1.56-1.18-2.85-3.23-2.85-5.96,0-4.37,3.15-7.44,7.97-7.44,4.52,0,8.69,3.07,8.69,8.2s-4.1,8.73-10.51,8.73c-4.86,0-8.69-1.75-11.12-4.17-2.01-2.05-3.26-4.78-3.64-7.89-.15-.99-.19-1.82-.19-2.43h2.73Zm14.23.95c-3.53,0-5.65,2.01-5.65,5.09,0,2.01,1.25,3.87,3.04,4.78.38.23.87.38,1.48.38,4.06-.08,7.06-1.94,7.06-5.43,0-2.88-2.39-4.82-5.92-4.82Z"/><path d="m342.25,186.8v.08l2.39,4.43-2.62.67-2.98-5.56v-2.94h25.47v3.33h-22.25Z"/><path d="m364.5,896.53h-2.08l-2.58-2.66c-6.09-6.4-9.32-9.28-13.1-9.32-2.54,0-4.89,1.23-4.89,4.97,0,2.27,1.16,4.16,2.12,5.32l-2.39,1.08c-1.46-1.73-2.54-4.2-2.54-7.09,0-5.39,3.7-7.67,7.28-7.67,4.62,0,8.36,3.35,13.45,8.63l1.85,2h.08v-11.25h2.81v15.99Z"/><line x1="327.63" y1="539.41" x2="333.63" y2="539.41" fill="none" stroke="#000" stroke-miterlimit="10" stroke-width="5"/><line x1="345.68" y1="539.41" x2="821.79" y2="539.41" fill="none" stroke="#000" stroke-dasharray="0 0 12.05 12.05" stroke-miterlimit="10" stroke-width="5"/><line x1="827.82" y1="539.41" x2="833.82" y2="539.41" fill="none" stroke="#000" stroke-miterlimit="10" stroke-width="5"/><rect id="Base" width="1080" height="1080" opacity="0"/></g></g></svg>