<?xml version="1.0" encoding="UTF-8"?><svg id="Capa_2" xmlns="http://www.w3.org/2000/svg" viewBox="0 0 1080 1080"><g id="Capa_1-2"><g id="Multifilar_-_Bobina_variable_a_mano"><path d="m444.57,539.06c0-26.39-21.39-47.79-47.79-47.79s-47.79,21.39-47.79,47.79" fill="none" stroke="#000" stroke-miterlimit="10" stroke-width="5"/><path d="m540.05,539.06c0-26.39-21.39-47.79-47.79-47.79s-47.79,21.39-47.79,47.79" fill="none" stroke="#000" stroke-miterlimit="10" stroke-width="5"/><path d="m635.52,539.06c0-26.39-21.39-47.79-47.79-47.79s-47.79,21.39-47.79,47.79" fill="none" stroke="#000" stroke-miterlimit="10" stroke-width="5"/><path d="m731,539.06c0-26.39-21.39-47.79-47.79-47.79s-47.79,21.39-47.79,47.79" fill="none" stroke="#000" stroke-miterlimit="10" stroke-width="5"/><line x1="922" y1="540" x2="731" y2="540" fill="none" stroke="#000" stroke-miterlimit="10" stroke-width="5"/><line x1="349" y1="540.95" x2="158" y2="540.95" fill="none" stroke="#000" stroke-miterlimit="10" stroke-width="5"/><line x1="348.55" y1="731.09" x2="693.51" y2="386.13" fill="none" stroke="#000" stroke-miterlimit="10" stroke-width="5"/><polygon points="730.99 348.91 649.41 376.73 703.16 430.49 730.99 348.91"/><rect id="Base" width="1080" height="1080" opacity="0"/></g></g></svg>