<?xml version="1.0" encoding="UTF-8"?><svg id="Capa_2" xmlns="http://www.w3.org/2000/svg" viewBox="0 0 1080 1080"><g id="Capa_1-2"><g id="Multifilar_-_Protector_Bipolar_contra_Sobretensiones_Permanentes_"><circle cx="765.23" cy="305.27" r="11.44" fill="none" stroke="#000" stroke-miterlimit="10" stroke-width="5"/><line x1="765.23" y1="516.97" x2="765.23" y2="562.74" fill="none" stroke="#000" stroke-miterlimit="10" stroke-width="5"/><line x1="652.87" y1="291.74" x2="765.23" y2="516.45" fill="none" stroke="#000" stroke-miterlimit="10" stroke-width="5"/><line x1="765.23" y1="158.62" x2="765.23" y2="292.26" fill="none" stroke="#000" stroke-miterlimit="10" stroke-width="5"/><line x1="765.75" y1="788.07" x2="765.75" y2="922" fill="none" stroke="#000" stroke-miterlimit="10" stroke-width="5"/><rect x="653.13" y="563" width="223.93" height="223.93" fill="none" stroke="#000" stroke-miterlimit="10" stroke-width="5"/><line x1="540.52" y1="515.93" x2="540.52" y2="561.7" fill="none" stroke="#000" stroke-miterlimit="10" stroke-width="5"/><line x1="428.17" y1="290.7" x2="540.52" y2="515.41" fill="none" stroke="#000" stroke-miterlimit="10" stroke-width="5"/><line x1="360.24" y1="359.46" x2="360.24" y2="449.57" fill="none" stroke="#000" stroke-miterlimit="10" stroke-width="5"/><line x1="270.56" y1="359.46" x2="270.56" y2="449.57" fill="none" stroke="#000" stroke-miterlimit="10" stroke-width="5"/><line x1="360.37" y1="360.57" x2="270.7" y2="360.57" fill="none" stroke="#000" stroke-miterlimit="10" stroke-width="5"/><line x1="360.37" y1="450.68" x2="270.7" y2="450.68" fill="none" stroke="#000" stroke-miterlimit="10" stroke-width="5"/><line x1="540.52" y1="158" x2="540.52" y2="291.64" fill="none" stroke="#000" stroke-miterlimit="10" stroke-width="5"/><line x1="541.04" y1="787.45" x2="541.04" y2="921.38" fill="none" stroke="#000" stroke-miterlimit="10" stroke-width="5"/><line x1="202.94" y1="359.67" x2="202.94" y2="449.56" fill="none" stroke="#000" stroke-miterlimit="10" stroke-width="5"/><rect x="428.69" y="563" width="223.93" height="223.93" fill="none" stroke="#000" stroke-miterlimit="10" stroke-width="5"/><line x1="563.41" y1="607.47" x2="608.66" y2="675.09" fill="none" stroke="#000" stroke-miterlimit="10" stroke-width="5"/><line x1="563.41" y1="742.71" x2="608.66" y2="675.09" fill="none" stroke="#000" stroke-miterlimit="10" stroke-width="5"/><line x1="315.54" y1="359.78" x2="315.54" y2="449.25" fill="none" stroke="#000" stroke-miterlimit="10" stroke-width="5"/><line x1="270.28" y1="404.52" x2="360.79" y2="404.52" fill="none" stroke="#000" stroke-miterlimit="10" stroke-width="5"/><circle cx="540.52" cy="304.23" r="11.44" fill="none" stroke="#000" stroke-miterlimit="10" stroke-width="5"/><path d="m518.15,719.31c0,12.64-10.25,22.89-22.89,22.89s-22.89-10.25-22.89-22.89" fill="none" stroke="#000" stroke-miterlimit="10" stroke-width="5"/><line x1="472.38" y1="606.95" x2="472.38" y2="719.31" fill="none" stroke="#000" stroke-miterlimit="10" stroke-width="5"/><line x1="518.15" y1="606.95" x2="518.15" y2="721.39" fill="none" stroke="#000" stroke-miterlimit="10" stroke-width="5"/><line x1="789.15" y1="607.99" x2="834.41" y2="675.61" fill="none" stroke="#000" stroke-miterlimit="10" stroke-width="5"/><line x1="789.15" y1="743.23" x2="834.41" y2="675.61" fill="none" stroke="#000" stroke-miterlimit="10" stroke-width="5"/><path d="m743.9,719.83c0,12.64-10.25,22.89-22.89,22.89s-22.89-10.25-22.89-22.89" fill="none" stroke="#000" stroke-miterlimit="10" stroke-width="5"/><line x1="698.13" y1="607.47" x2="698.13" y2="719.83" fill="none" stroke="#000" stroke-miterlimit="10" stroke-width="5"/><line x1="743.9" y1="607.47" x2="743.9" y2="721.91" fill="none" stroke="#000" stroke-miterlimit="10" stroke-width="5"/><path d="m738.49,193.24c.53-.84,1.37-2.78,1.37-4.82,0-3.78-2.41-4.95-4.21-4.92-3.04.03-4.35,2.78-4.35,5.62v1.64h-2.21v-1.64c0-2.14-1.1-4.85-3.68-4.85-1.74,0-3.28,1.1-3.28,3.81,0,1.74.77,3.41,1.44,4.35l-2.14.77c-.84-1.14-1.67-3.34-1.67-5.68,0-4.28,2.54-6.22,5.18-6.22,2.24,0,4.15,1.34,5.12,4.01h.07c.53-2.68,2.54-4.85,5.58-4.85,3.48,0,6.52,2.71,6.52,7.92,0,2.44-.77,4.58-1.47,5.65l-2.27-.8Z"/><path d="m742.22,889.1h-6.11v10.43h-2l-14.33-10.02v-3.28h13.95v-3.14h2.38v3.14h6.11v2.87Zm-8.5,0h-7.5c-1.17,0-2.35-.03-3.52-.1v.1c1.31.69,2.28,1.24,3.32,1.86l7.63,5.49h.07v-7.36Z"/><path d="m497.89,183.54v.07l2.11,3.91-2.32.59-2.63-4.91v-2.59h22.47v2.94h-19.64Z"/><path d="m517.53,899.53h-1.84l-2.28-2.35c-5.37-5.64-8.23-8.19-11.56-8.23-2.24,0-4.32,1.09-4.32,4.39,0,2.01,1.02,3.67,1.87,4.69l-2.11.95c-1.29-1.53-2.24-3.71-2.24-6.25,0-4.76,3.26-6.76,6.42-6.76,4.08,0,7.38,2.96,11.86,7.61l1.63,1.77h.07v-9.93h2.48v14.11Z"/><line x1="361.07" y1="404.52" x2="367.07" y2="404.52" fill="none" stroke="#000" stroke-miterlimit="10" stroke-width="5"/><line x1="379.49" y1="404.52" x2="696.32" y2="404.52" fill="none" stroke="#000" stroke-dasharray="0 0 12.42 12.42" stroke-miterlimit="10" stroke-width="5"/><line x1="702.53" y1="404.52" x2="708.53" y2="404.52" fill="none" stroke="#000" stroke-miterlimit="10" stroke-width="5"/><line x1="202.94" y1="404.52" x2="208.94" y2="404.52" fill="none" stroke="#000" stroke-miterlimit="10" stroke-width="5"/><line x1="220.48" y1="404.52" x2="260.87" y2="404.52" fill="none" stroke="#000" stroke-dasharray="0 0 11.54 11.54" stroke-miterlimit="10" stroke-width="5"/><line x1="266.64" y1="404.52" x2="272.64" y2="404.52" fill="none" stroke="#000" stroke-miterlimit="10" stroke-width="5"/><line x1="315.54" y1="448.83" x2="315.54" y2="454.83" fill="none" stroke="#000" stroke-miterlimit="10" stroke-width="5"/><line x1="315.56" y1="467.4" x2="315.84" y2="662.29" fill="none" stroke="#000" stroke-dasharray="0 0 12.57 12.57" stroke-miterlimit="10" stroke-width="5"/><line x1="315.85" y1="668.57" x2="315.86" y2="674.57" fill="none" stroke="#000" stroke-miterlimit="10" stroke-width="5"/><line x1="315.86" y1="674.57" x2="321.86" y2="674.57" fill="none" stroke="#000" stroke-miterlimit="10" stroke-width="5"/><line x1="333.06" y1="674.57" x2="417.09" y2="674.57" fill="none" stroke="#000" stroke-dasharray="0 0 11.2 11.2" stroke-miterlimit="10" stroke-width="5"/><line x1="422.69" y1="674.57" x2="428.69" y2="674.57" fill="none" stroke="#000" stroke-miterlimit="10" stroke-width="5"/><rect id="Base" width="1080" height="1080" opacity="0"/></g></g></svg>