<?xml version="1.0" encoding="UTF-8"?><svg id="Capa_2" xmlns="http://www.w3.org/2000/svg" viewBox="0 0 1080 1080"><g id="Capa_1-2"><g id="Multifilar_-_Octoacoplador_basado_en_transistor_IEC"><line x1="687.65" y1="469.19" x2="687.65" y2="611.92" fill="none" stroke="#000" stroke-miterlimit="10" stroke-width="5"/><line x1="687.65" y1="492.61" x2="760.13" y2="468.08" fill="none" stroke="#000" stroke-miterlimit="10" stroke-width="5"/><line x1="687.65" y1="588.5" x2="760.13" y2="613.04" fill="none" stroke="#000" stroke-miterlimit="10" stroke-width="5"/><line x1="639.7" y1="541.67" x2="687.65" y2="541.67" fill="none" stroke="#000" stroke-miterlimit="10" stroke-width="5"/><line x1="638.59" y1="420.13" x2="638.59" y2="541.67" fill="none" stroke="#000" stroke-miterlimit="10" stroke-width="5"/><polyline points="708.63 608.75 735.16 604.82 716.47 585.59" fill="none" stroke="#000" stroke-miterlimit="10" stroke-width="5"/><rect x="278.43" y="371.07" width="481.14" height="337.86" fill="none" stroke="#000" stroke-miterlimit="10" stroke-width="5"/><line x1="542.21" y1="516.32" x2="518.16" y2="516.32" fill="none" stroke="#000" stroke-miterlimit="10" stroke-width="5"/><polygon points="566.59 565.22 542.14 553.31 542.14 577.12 566.59 565.22"/><polygon points="566.59 516.32 542.14 504.41 542.14 528.22 566.59 516.32"/><line x1="542.21" y1="565.22" x2="518.16" y2="565.22" fill="none" stroke="#000" stroke-miterlimit="10" stroke-width="5"/><g id="Multifilar_-_Diodo_IEC"><polygon points="398.43 588.5 446.94 492.61 349.93 492.61 398.43 588.5" fill="none" fill-rule="evenodd" stroke="#000" stroke-miterlimit="10" stroke-width="5"/><line x1="398.43" y1="660.98" x2="398.43" y2="420.13" fill="none" stroke="#000" stroke-miterlimit="10" stroke-width="5"/><line x1="446.94" y1="589.62" x2="349.93" y2="589.62" fill="none" stroke="#000" stroke-miterlimit="10" stroke-width="5"/></g><line x1="158" y1="420.13" x2="398.85" y2="420.13" fill="none" stroke="#000" stroke-miterlimit="10" stroke-width="5"/><line x1="158" y1="662.1" x2="398.85" y2="662.1" fill="none" stroke="#000" stroke-miterlimit="10" stroke-width="5"/><line x1="638.59" y1="420.13" x2="879.44" y2="420.13" fill="none" stroke="#000" stroke-miterlimit="10" stroke-width="5"/><line x1="760.13" y1="613.04" x2="879.44" y2="613.04" fill="none" stroke="#000" stroke-miterlimit="10" stroke-width="5"/><line x1="879.44" y1="468.08" x2="760.13" y2="468.08" fill="none" stroke="#000" stroke-miterlimit="10" stroke-width="5"/><path d="m921.97,478.51c-1.11.55-3.32,1.11-6.15,1.11-6.57,0-11.51-4.15-11.51-11.79s4.94-12.24,12.17-12.24c2.9,0,4.74.62,5.53,1.04l-.73,2.45c-1.14-.55-2.76-.97-4.7-.97-5.46,0-9.09,3.49-9.09,9.61,0,5.7,3.28,9.37,8.95,9.37,1.83,0,3.7-.38,4.91-.97l.62,2.39Z"/><path d="m904.3,407.8c1.33-.28,3.44-.49,5.58-.49,3.06,0,5.02.53,6.5,1.72,1.23.91,1.97,2.32,1.97,4.18,0,2.28-1.51,4.29-4,5.2v.07c2.25.56,4.88,2.42,4.88,5.94,0,2.04-.81,3.58-2,4.74-1.65,1.51-4.32,2.21-8.18,2.21-2.11,0-3.72-.14-4.74-.28v-23.29Zm3.06,9.69h2.77c3.23,0,5.13-1.69,5.13-3.97,0-2.77-2.11-3.86-5.2-3.86-1.41,0-2.21.11-2.7.21v7.62Zm0,11.34c.6.11,1.48.14,2.56.14,3.16,0,6.08-1.16,6.08-4.6,0-3.23-2.78-4.57-6.11-4.57h-2.53v9.03Z"/><path d="m917.42,613.79h-9.85v9.14h10.98v2.74h-14.25v-25.34h13.68v2.74h-10.41v8.01h9.85v2.71Z"/><rect id="Base" width="1080" height="1080" opacity="0"/></g></g></svg>