<?xml version="1.0" encoding="UTF-8"?><svg id="Capa_2" xmlns="http://www.w3.org/2000/svg" viewBox="0 0 1080 1080"><g id="Capa_1-2"><g id="Multifilar_-_Interruptor_magnetotérmico_tetrapolar_PIA_-_2"><line x1="328.46" y1="263.24" x2="328.46" y2="457.7" fill="none" stroke="#000" stroke-miterlimit="10" stroke-width="5"/><line x1="328.46" y1="652.29" x2="328.46" y2="846.75" fill="none" stroke="#000" stroke-miterlimit="10" stroke-width="5"/><line x1="230.86" y1="457.02" x2="328.8" y2="652.43" fill="none" stroke="#000" stroke-miterlimit="10" stroke-width="5"/><line x1="262.19" y1="519.52" x2="171.16" y2="565.15" fill="none" stroke="#000" stroke-miterlimit="10" stroke-width="5"/><line x1="228.29" y1="624.59" x2="192.28" y2="642.64" fill="none" stroke="#000" stroke-miterlimit="10" stroke-width="5"/><polygon points="157 572.24 236.12 554.36 218.68 519.57 157 572.24"/><line x1="245.12" y1="659.19" x2="228.09" y2="625.2" fill="none" stroke="#000" stroke-miterlimit="10" stroke-width="5"/><line x1="279.71" y1="642.36" x2="245.73" y2="659.39" fill="none" stroke="#000" stroke-miterlimit="10" stroke-width="5"/><line x1="262.68" y1="608.37" x2="279.71" y2="642.36" fill="none" stroke="#000" stroke-miterlimit="10" stroke-width="5"/><line x1="297.88" y1="589.72" x2="262.27" y2="607.56" fill="none" stroke="#000" stroke-miterlimit="10" stroke-width="5"/><line x1="426.16" y1="457.02" x2="524.09" y2="652.43" fill="none" stroke="#000" stroke-miterlimit="10" stroke-width="5"/><line x1="457.49" y1="519.52" x2="366.46" y2="565.15" fill="none" stroke="#000" stroke-miterlimit="10" stroke-width="5"/><line x1="423.58" y1="624.59" x2="387.58" y2="642.64" fill="none" stroke="#000" stroke-miterlimit="10" stroke-width="5"/><polygon points="352.29 572.24 431.41 554.36 413.97 519.57 352.29 572.24"/><line x1="440.41" y1="659.19" x2="423.38" y2="625.2" fill="none" stroke="#000" stroke-miterlimit="10" stroke-width="5"/><line x1="475.01" y1="642.36" x2="441.02" y2="659.39" fill="none" stroke="#000" stroke-miterlimit="10" stroke-width="5"/><line x1="457.97" y1="608.37" x2="475.01" y2="642.36" fill="none" stroke="#000" stroke-miterlimit="10" stroke-width="5"/><line x1="493.17" y1="589.72" x2="457.57" y2="607.56" fill="none" stroke="#000" stroke-miterlimit="10" stroke-width="5"/><circle cx="328.46" cy="466.86" r="9.84" fill="none" stroke="#000" stroke-miterlimit="10" stroke-width="5"/><line x1="523.14" y1="263.24" x2="523.14" y2="457.7" fill="none" stroke="#000" stroke-miterlimit="10" stroke-width="5"/><line x1="523.14" y1="652.29" x2="523.14" y2="846.75" fill="none" stroke="#000" stroke-miterlimit="10" stroke-width="5"/><circle cx="523.14" cy="466.86" r="9.84" fill="none" stroke="#000" stroke-miterlimit="10" stroke-width="5"/><line x1="620.82" y1="457.02" x2="718.76" y2="652.43" fill="none" stroke="#000" stroke-miterlimit="10" stroke-width="5"/><line x1="652.15" y1="519.52" x2="561.12" y2="565.15" fill="none" stroke="#000" stroke-miterlimit="10" stroke-width="5"/><line x1="618.25" y1="624.59" x2="582.24" y2="642.64" fill="none" stroke="#000" stroke-miterlimit="10" stroke-width="5"/><polygon points="546.96 572.24 626.07 554.36 608.64 519.57 546.96 572.24"/><line x1="635.08" y1="659.19" x2="618.04" y2="625.2" fill="none" stroke="#000" stroke-miterlimit="10" stroke-width="5"/><line x1="669.67" y1="642.36" x2="635.68" y2="659.39" fill="none" stroke="#000" stroke-miterlimit="10" stroke-width="5"/><line x1="652.64" y1="608.37" x2="669.67" y2="642.36" fill="none" stroke="#000" stroke-miterlimit="10" stroke-width="5"/><line x1="687.83" y1="589.72" x2="652.23" y2="607.56" fill="none" stroke="#000" stroke-miterlimit="10" stroke-width="5"/><line x1="718.15" y1="263.24" x2="718.15" y2="457.7" fill="none" stroke="#000" stroke-miterlimit="10" stroke-width="5"/><line x1="718.15" y1="652.29" x2="718.15" y2="846.75" fill="none" stroke="#000" stroke-miterlimit="10" stroke-width="5"/><circle cx="718.15" cy="466.86" r="9.84" fill="none" stroke="#000" stroke-miterlimit="10" stroke-width="5"/><line x1="815.49" y1="457.02" x2="913.42" y2="652.43" fill="none" stroke="#000" stroke-miterlimit="10" stroke-width="5"/><line x1="913.16" y1="263.24" x2="913.16" y2="457.7" fill="none" stroke="#000" stroke-miterlimit="10" stroke-width="5"/><line x1="913.16" y1="652.29" x2="913.16" y2="846.75" fill="none" stroke="#000" stroke-miterlimit="10" stroke-width="5"/><circle cx="913.16" cy="466.86" r="9.84" fill="none" stroke="#000" stroke-miterlimit="10" stroke-width="5"/><path d="m292.18,284.99v.06l1.83,3.38-2.01.51-2.28-4.25v-2.25h19.47v2.55h-17.01Z"/><path d="m309.19,827.54h-1.59l-1.97-2.03c-4.65-4.89-7.13-7.1-10.01-7.13-1.94,0-3.74.94-3.74,3.8,0,1.74.88,3.18,1.62,4.06l-1.83.82c-1.12-1.33-1.94-3.21-1.94-5.42,0-4.12,2.83-5.86,5.57-5.86,3.53,0,6.39,2.56,10.28,6.6l1.41,1.53h.06v-8.6h2.15v12.22Z"/><path d="m500.62,293.52c.46-.72,1.19-2.4,1.19-4.17,0-3.27-2.09-4.29-3.65-4.26-2.64.03-3.77,2.4-3.77,4.87v1.42h-1.91v-1.42c0-1.85-.96-4.2-3.19-4.2-1.51,0-2.84.96-2.84,3.3,0,1.51.67,2.95,1.25,3.77l-1.85.67c-.72-.99-1.45-2.9-1.45-4.92,0-3.71,2.2-5.39,4.49-5.39,1.94,0,3.59,1.16,4.43,3.48h.06c.46-2.32,2.2-4.2,4.84-4.2,3.01,0,5.65,2.35,5.65,6.87,0,2.11-.67,3.97-1.27,4.9l-1.97-.7Z"/><path d="m503.86,818.49h-5.3v9.04h-1.74l-12.43-8.68v-2.85h12.1v-2.73h2.07v2.73h5.3v2.49Zm-7.37,0h-6.5c-1.02,0-2.04-.03-3.06-.09v.09c1.14.6,1.98,1.08,2.88,1.62l6.62,4.76h.06v-6.38Z"/><path d="m681.25,282.83v7.3l4.92.74c-.06-.44-.12-.85-.12-1.56,0-1.47.32-2.94,1.03-4.12.85-1.5,2.5-2.74,4.92-2.74,3.74,0,6.54,2.97,6.54,7.13,0,2.09-.59,3.86-1.18,4.77l-1.97-.65c.47-.8,1.06-2.36,1.06-4.09,0-2.44-1.59-4.54-4.15-4.54-2.47.03-4.24,1.68-4.24,5.51,0,1.09.12,1.94.21,2.65l-9.19-1.24v-9.16h2.18Z"/><path d="m681.16,816.46c-.03.52,0,1.19.12,1.91.67,4,3.6,6.12,6.7,6.56v-.09c-1.19-.9-2.18-2.47-2.18-4.56,0-3.34,2.41-5.69,6.09-5.69,3.45,0,6.64,2.35,6.64,6.27s-3.13,6.67-8.04,6.67c-3.71,0-6.64-1.33-8.5-3.19-1.54-1.57-2.5-3.66-2.79-6.04-.12-.75-.14-1.39-.14-1.86h2.09Zm10.88.72c-2.7,0-4.32,1.54-4.32,3.89,0,1.54.96,2.96,2.32,3.66.29.17.67.29,1.13.29,3.1-.06,5.4-1.48,5.4-4.15,0-2.2-1.83-3.68-4.53-3.68Z"/><path d="m893.17,297.03h-19.42v-2.74l9.83-6.22c2.28-1.44,4.32-2.56,6.31-3.49l-.03-.06c-2.59.23-4.96.29-7.98.29h-8.13v-2.36h19.42v2.54l-9.85,6.17c-2.16,1.35-4.38,2.65-6.48,3.63l.03.09c2.45-.14,4.78-.2,8.01-.2h8.3v2.36Z"/><path d="m893.21,827.54h-19.47v-2.74l9.85-6.24c2.28-1.44,4.33-2.57,6.33-3.49l-.03-.06c-2.6.23-4.97.29-8,.29h-8.14v-2.37h19.47v2.54l-9.88,6.18c-2.17,1.36-4.39,2.66-6.5,3.64l.03.09c2.46-.14,4.79-.2,8.03-.2h8.32v2.37Z"/><line x1="279.92" y1="554.54" x2="285.92" y2="554.54" fill="none" stroke="#000" stroke-miterlimit="10" stroke-width="5"/><line x1="298.07" y1="554.54" x2="850.73" y2="554.54" fill="none" stroke="#000" stroke-dasharray="0 0 12.15 12.15" stroke-miterlimit="10" stroke-width="5"/><line x1="856.8" y1="554.54" x2="862.8" y2="554.54" fill="none" stroke="#000" stroke-miterlimit="10" stroke-width="5"/><rect id="Base" width="1080" height="1080" opacity="0"/></g></g></svg>