<?xml version="1.0" encoding="UTF-8"?><svg id="Capa_2" xmlns="http://www.w3.org/2000/svg" viewBox="0 0 1080 1080"><g id="Capa_1-2"><g id="Multifilar_-_Órgano_motor_de_un_reloj_horario_bobina_2"><circle cx="540" cy="539.52" r="190.76" fill="none" stroke="#000" stroke-miterlimit="10" stroke-width="5"/><line x1="540" y1="158" x2="540" y2="348.76" fill="none" stroke="#000" stroke-miterlimit="10" stroke-width="5"/><line x1="540" y1="922" x2="540" y2="729.33" fill="none" stroke="#000" stroke-miterlimit="10" stroke-width="5"/><path d="m468.51,201.14v.12l3.58,6.63-3.93,1-4.46-8.33v-4.4h38.15v4.99h-33.34Z"/><path d="m501.85,882.89h-3.12l-3.87-3.98c-9.12-9.58-13.97-13.91-19.62-13.97-3.81,0-7.33,1.85-7.33,7.44,0,3.4,1.73,6.23,3.17,7.97l-3.58,1.62c-2.19-2.6-3.81-6.29-3.81-10.62,0-8.08,5.54-11.49,10.91-11.49,6.92,0,12.52,5.02,20.14,12.93l2.77,3h.12v-16.85h4.21v23.95Z"/><path d="m594.79,548.81c-1.12-21.29-2.49-46.88-2.27-65.89h-.68c-5.2,17.88-11.54,36.91-19.23,57.96l-26.95,74.04h-14.93l-24.69-72.69c-7.25-21.51-13.37-41.21-17.66-59.32h-.46c-.44,19.02-1.59,44.61-2.93,67.47l-4.07,65.44h-18.81l10.66-152.61h25.13l26.03,73.81c6.34,18.8,11.54,35.56,15.39,51.4h.68c3.85-15.39,9.29-32.15,16.08-51.4l27.18-73.81h25.13l9.51,152.61h-19.25l-3.85-67.02Z"/><rect id="Base" width="1080" height="1080" opacity="0"/></g></g></svg>