<?xml version="1.0" encoding="UTF-8"?><svg id="Capa_2" xmlns="http://www.w3.org/2000/svg" viewBox="0 0 1080 1080"><g id="Capa_1-2"><g id="Multifilar_-_Bobina_con_núcleo_de_ferrita"><path d="m444.57,579.17c0-26.39-21.39-47.79-47.79-47.79s-47.79,21.39-47.79,47.79" fill="none" stroke="#000" stroke-miterlimit="10" stroke-width="5"/><path d="m540.05,579.17c0-26.39-21.39-47.79-47.79-47.79s-47.79,21.39-47.79,47.79" fill="none" stroke="#000" stroke-miterlimit="10" stroke-width="5"/><path d="m635.52,579.17c0-26.39-21.39-47.79-47.79-47.79s-47.79,21.39-47.79,47.79" fill="none" stroke="#000" stroke-miterlimit="10" stroke-width="5"/><path d="m731,579.17c0-26.39-21.39-47.79-47.79-47.79s-47.79,21.39-47.79,47.79" fill="none" stroke="#000" stroke-miterlimit="10" stroke-width="5"/><line x1="349" y1="500.83" x2="355" y2="500.83" fill="none" stroke="#000" stroke-miterlimit="10" stroke-width="5"/><line x1="366.94" y1="500.83" x2="719.03" y2="500.83" fill="none" stroke="#000" stroke-dasharray="0 0 11.94 11.94" stroke-miterlimit="10" stroke-width="5"/><line x1="725" y1="500.83" x2="731" y2="500.83" fill="none" stroke="#000" stroke-miterlimit="10" stroke-width="5"/><line x1="158" y1="579.14" x2="349" y2="579.14" fill="none" stroke="#000" stroke-miterlimit="10" stroke-width="5"/><line x1="731" y1="579.14" x2="922" y2="579.14" fill="none" stroke="#000" stroke-miterlimit="10" stroke-width="5"/><rect id="Base" width="1080" height="1080" opacity="0"/></g></g></svg>