<?xml version="1.0" encoding="UTF-8"?><svg id="Capa_2" xmlns="http://www.w3.org/2000/svg" viewBox="0 0 1080 1080"><g id="Capa_1-2"><g id="Multifilar_-_Contacto_auxiliar_de_relé_térmico_NO_y_NC_1"><line x1="465.69" y1="387.01" x2="617.46" y2="387.01" fill="none" stroke="#000" stroke-miterlimit="10" stroke-width="5"/><line x1="465.69" y1="236.07" x2="465.69" y2="386.26" fill="none" stroke="#000" stroke-miterlimit="10" stroke-width="5"/><line x1="465.69" y1="693.13" x2="465.69" y2="844.7" fill="none" stroke="#000" stroke-miterlimit="10" stroke-width="5"/><line x1="617.46" y1="325.41" x2="465.69" y2="693.13" fill="none" stroke="#000" stroke-miterlimit="10" stroke-width="5"/><line x1="250.4" y1="417.24" x2="250.4" y2="539.36" fill="none" stroke="#000" stroke-miterlimit="10" stroke-width="5"/><line x1="372.2" y1="417.24" x2="250.4" y2="417.24" fill="none" stroke="#000" stroke-miterlimit="10" stroke-width="5"/><line x1="372.2" y1="539.36" x2="372.2" y2="417.24" fill="none" stroke="#000" stroke-miterlimit="10" stroke-width="5"/><line x1="158" y1="539.36" x2="250.4" y2="539.36" fill="none" stroke="#000" stroke-miterlimit="10" stroke-width="5"/><line x1="529.9" y1="539.36" x2="372.2" y2="539.36" fill="none" stroke="#000" stroke-miterlimit="10" stroke-width="5"/><line x1="922" y1="234.54" x2="922" y2="387.27" fill="none" stroke="#000" stroke-miterlimit="10" stroke-width="5"/><line x1="922" y1="693.11" x2="922" y2="845.46" fill="none" stroke="#000" stroke-miterlimit="10" stroke-width="5"/><line x1="800.73" y1="386.51" x2="922" y2="693.11" fill="none" stroke="#000" stroke-miterlimit="10" stroke-width="5"/><line x1="529.9" y1="540" x2="535.9" y2="540" fill="none" stroke="#000" stroke-miterlimit="10" stroke-width="5"/><line x1="547.73" y1="540" x2="849.41" y2="540" fill="none" stroke="#000" stroke-dasharray="0 0 11.83 11.83" stroke-miterlimit="10" stroke-width="5"/><line x1="855.32" y1="540" x2="861.32" y2="540" fill="none" stroke="#000" stroke-miterlimit="10" stroke-width="5"/><path d="m430.36,812.41c.09-.86,0-1.86-.14-3.23-.32-2.32-1.27-4.5-2.86-6.18-1.77-1.95-4.36-3.36-7.86-3.91v.14c2,1.64,3.18,4,3.18,6.95,0,5.32-4,8.73-9.05,8.73-5.59,0-10.5-4.05-10.5-10.09s4.91-9.77,12.45-9.77c6.5,0,11.05,2.18,13.86,5.09,2.23,2.27,3.59,5.41,3.95,8.59.23,1.45.27,2.73.23,3.68h-3.27Zm-17-1.45c3.68,0,6.27-2.23,6.27-5.68,0-2.68-1.32-4.77-3.09-5.82-.36-.23-.82-.36-1.45-.36-5.05,0-8.91,1.86-8.91,6.05,0,3.41,3,5.82,7.18,5.82Z"/><path d="m406.45,774.55c-.05.82,0,1.86.18,3,1.05,6.27,5.64,9.59,10.5,10.27v-.14c-1.86-1.41-3.41-3.86-3.41-7.14,0-5.23,3.77-8.91,9.55-8.91,5.41,0,10.41,3.68,10.41,9.82s-4.91,10.46-12.59,10.46c-5.82,0-10.41-2.09-13.32-5-2.41-2.45-3.91-5.73-4.36-9.45-.18-1.18-.23-2.18-.23-2.91h3.27Zm17.05,1.14c-4.23,0-6.77,2.41-6.77,6.09,0,2.41,1.5,4.64,3.64,5.73.45.27,1.05.45,1.77.45,4.86-.09,8.45-2.32,8.45-6.5,0-3.45-2.86-5.77-7.09-5.77Z"/><path d="m430.36,304.32c.09-.86,0-1.86-.14-3.23-.32-2.32-1.27-4.5-2.86-6.18-1.77-1.95-4.36-3.36-7.86-3.91v.14c2,1.64,3.18,4,3.18,6.95,0,5.32-4,8.73-9.05,8.73-5.59,0-10.5-4.05-10.5-10.09s4.91-9.77,12.45-9.77c6.5,0,11.05,2.18,13.86,5.09,2.23,2.27,3.59,5.41,3.95,8.59.23,1.45.27,2.73.23,3.68h-3.27Zm-17-1.45c3.68,0,6.27-2.23,6.27-5.68,0-2.68-1.32-4.77-3.09-5.82-.36-.23-.82-.36-1.45-.36-5.05,0-8.91,1.86-8.91,6.05,0,3.41,3,5.82,7.18,5.82Z"/><path d="m407,265.68v11.27l7.59,1.14c-.09-.68-.18-1.32-.18-2.41,0-2.27.5-4.55,1.59-6.36,1.32-2.32,3.86-4.23,7.59-4.23,5.77,0,10.09,4.59,10.09,11,0,3.23-.91,5.95-1.82,7.36l-3.05-1c.73-1.23,1.64-3.64,1.64-6.32,0-3.77-2.45-7-6.41-7-3.82.05-6.55,2.59-6.55,8.5,0,1.68.18,3,.32,4.09l-14.18-1.91v-14.14h3.36Z"/><path d="m888.53,305.26c.09-.86,0-1.86-.14-3.23-.31-2.32-1.27-4.5-2.86-6.18-1.77-1.96-4.36-3.36-7.86-3.91v.14c2,1.64,3.18,4,3.18,6.95,0,5.32-4,8.72-9.04,8.72-5.59,0-10.5-4.04-10.5-10.09s4.91-9.77,12.45-9.77c6.5,0,11.04,2.18,13.86,5.09,2.22,2.27,3.59,5.41,3.95,8.59.23,1.45.27,2.73.23,3.68h-3.27Zm-16.99-1.45c3.68,0,6.27-2.23,6.27-5.68,0-2.68-1.32-4.77-3.09-5.82-.36-.23-.82-.36-1.45-.36-5.04,0-8.9,1.86-8.9,6.04,0,3.41,3,5.82,7.18,5.82Z"/><path d="m861.82,265.09h2.63l26.9,12.86v4.14l-26.13-12.81h-.09v14.45h-3.31v-18.63Z"/><path d="m888.55,812.42c.09-.86,0-1.87-.14-3.23-.31-2.32-1.27-4.5-2.86-6.18-1.77-1.95-4.36-3.36-7.87-3.91v.13c2,1.64,3.18,4,3.18,6.95,0,5.32-4,8.73-9.05,8.73-5.59,0-10.5-4.05-10.5-10.09s4.91-9.77,12.45-9.77c6.5,0,11.04,2.18,13.86,5.09,2.22,2.27,3.59,5.41,3.95,8.59.23,1.45.27,2.73.23,3.68h-3.28Zm-17-1.45c3.68,0,6.27-2.23,6.27-5.68,0-2.68-1.32-4.77-3.09-5.82-.36-.23-.82-.36-1.45-.36-5.04,0-8.91,1.86-8.91,6.04,0,3.41,3,5.82,7.18,5.82Z"/><path d="m883.86,791.77c-3.73,0-6.36-2.23-7.91-5.87l-.13.05c-1.55,3.27-4.09,4.68-6.64,4.68-4.68,0-7.87-3.96-7.87-9.14,0-5.73,3.59-8.59,7.27-8.59,2.5,0,5.18,1.23,6.91,4.86h.13c1.45-3.68,4.05-5.96,7.64-5.96,5.13,0,8.59,4.41,8.59,10.05,0,6.18-3.68,9.91-8,9.91Zm-14.95-4.91c2.95,0,4.55-2.23,5.46-5.64-.87-2.54-2.68-4.5-5.37-4.5-2.36,0-4.82,1.41-4.82,5,0,3.32,2.18,5.14,4.73,5.14Zm14.77-11c-3.59,0-5.32,2.5-6.45,6.5,1,3.46,3.28,5.32,6.09,5.32,3,.14,5.64-2.14,5.64-5.91s-2.23-5.91-5.27-5.91Z"/><rect id="Base" width="1080" height="1080" opacity="0"/></g></g></svg>