<?xml version="1.0" encoding="UTF-8"?><svg id="Capa_2" xmlns="http://www.w3.org/2000/svg" viewBox="0 0 1080 1080"><g id="Capa_1-2"><g id="Multifilar_-_Emisor_fotoeléctrico"><rect x="278.36" y="429.64" width="63.8" height="63.8" transform="translate(417.23 -84.21) rotate(45)" fill="none" stroke="#000" stroke-miterlimit="10" stroke-width="5"/><rect x="158" y="385.17" width="305.47" height="305.47" fill="none" stroke="#000" stroke-miterlimit="10" stroke-width="5"/><line x1="310.74" y1="385.88" x2="310.74" y2="234.88" fill="none" stroke="#000" stroke-miterlimit="10" stroke-width="5"/><line x1="310.74" y1="690.64" x2="310.74" y2="843.86" fill="none" stroke="#000" stroke-miterlimit="10" stroke-width="5"/><line x1="372.78" y1="568.45" x2="403.32" y2="568.45" fill="none" stroke="#000" stroke-miterlimit="10" stroke-width="5"/><line x1="292.3" y1="434.38" x2="292.3" y2="488.68" fill="none" stroke="#000" stroke-miterlimit="10" stroke-width="5"/><line x1="328.22" y1="434.38" x2="328.22" y2="488.68" fill="none" stroke="#000" stroke-miterlimit="10" stroke-width="5"/><line x1="310.5" y1="537.19" x2="310.5" y2="660.8" fill="none" stroke="#000" stroke-miterlimit="10" stroke-width="5"/><line x1="279.95" y1="629.54" x2="341.05" y2="629.54" fill="none" stroke="#000" stroke-miterlimit="10" stroke-width="5"/><polygon points="310.5 570.58 340.34 570.58 325.42 599.8 310.5 629.01 295.58 599.8 280.66 570.58 310.5 570.58" fill="none" stroke="#000" stroke-miterlimit="10" stroke-width="5"/><polygon points="402.61 568.45 402.61 552.94 417.53 560.69 432.45 568.45 417.53 576.2 402.61 583.96 402.61 568.45"/><line x1="372.78" y1="629.54" x2="403.32" y2="629.54" fill="none" stroke="#000" stroke-miterlimit="10" stroke-width="5"/><polygon points="402.61 629.54 402.61 614.03 417.53 621.79 432.45 629.54 417.53 637.3 402.61 645.05 402.61 629.54"/><line x1="647.61" y1="388.08" x2="767.92" y2="661.39" fill="none" stroke="#000" stroke-miterlimit="10" stroke-width="5"/><line x1="616.55" y1="234.11" x2="616.55" y2="417.85" fill="none" stroke="#000" stroke-miterlimit="10" stroke-width="5"/><line x1="678.1" y1="417.21" x2="616.55" y2="417.21" fill="none" stroke="#000" stroke-miterlimit="10" stroke-width="5"/><line x1="859.5" y1="417.21" x2="922" y2="417.21" fill="none" stroke="#000" stroke-miterlimit="10" stroke-width="5"/><line x1="921.45" y1="235.64" x2="921.45" y2="417.1" fill="none" stroke="#000" stroke-miterlimit="10" stroke-width="5"/><line x1="767.92" y1="661.39" x2="767.6" y2="845.89" fill="none" stroke="#000" stroke-miterlimit="10" stroke-width="5"/><path d="m711.67,807.95v.09l2.86,5.3-3.14.8-3.56-6.66v-3.52h30.49v3.99h-26.64Z"/><path d="m711.67,783.89v.09l2.86,5.3-3.14.8-3.56-6.66v-3.52h30.49v3.99h-26.64Z"/><path d="m559.68,299.36v.09l2.81,5.21-3.09.78-3.51-6.55v-3.46h29.98v3.92h-26.2Z"/><path d="m585.88,284.51h-2.49l-3.09-3.18c-7.29-7.66-11.16-11.12-15.68-11.16-3.04,0-5.86,1.48-5.86,5.95,0,2.72,1.38,4.98,2.54,6.37l-2.86,1.29c-1.75-2.08-3.04-5.03-3.04-8.49,0-6.46,4.43-9.18,8.72-9.18,5.53,0,10.01,4.01,16.1,10.33l2.21,2.4h.09v-13.47h3.37v19.14Z"/><path d="m864.11,301.39v.09l2.86,5.3-3.14.8-3.56-6.66v-3.52h30.49v3.99h-26.64Z"/><path d="m890.75,273.53h-8.3v14.17h-2.72l-19.46-13.6v-4.46h18.95v-4.27h3.24v4.27h8.3v3.89Zm-11.54,0h-10.18c-1.6,0-3.19-.05-4.78-.14v.14c1.78.94,3.09,1.69,4.5,2.53l10.37,7.46h.09v-9.99Z"/><path d="m271.41,299.43l9.59,3.17v4.07l-30.49-10.36v-4.75l30.49-10.4v4.21l-9.59,3.26v10.81Zm-3.08-10l-8.78,2.98c-1.99.68-3.8,1.13-5.56,1.58v.09c1.81.45,3.66.95,5.52,1.54l8.82,2.99v-9.18Z"/><path d="m255.31,269.43v.09l2.76,5.11-3.03.77-3.44-6.42v-3.39h29.4v3.85h-25.69Z"/><path d="m271.41,806.48l9.59,3.17v4.07l-30.49-10.36v-4.75l30.49-10.4v4.21l-9.59,3.26v10.81Zm-3.08-10l-8.78,2.98c-1.99.68-3.8,1.13-5.56,1.58v.09c1.81.45,3.66.95,5.52,1.54l8.82,2.99v-9.18Z"/><path d="m281,785.12h-2.44l-3.03-3.12c-7.15-7.51-10.95-10.9-15.38-10.95-2.99,0-5.75,1.45-5.75,5.83,0,2.67,1.36,4.89,2.49,6.24l-2.8,1.27c-1.72-2.04-2.99-4.93-2.99-8.32,0-6.33,4.34-9,8.55-9,5.43,0,9.82,3.94,15.79,10.13l2.17,2.35h.09v-13.21h3.3v18.77Z"/><line x1="463.47" y1="539.43" x2="469.47" y2="539.43" fill="none" stroke="#000" stroke-miterlimit="10" stroke-width="5"/><line x1="482.02" y1="539.43" x2="701.65" y2="539.43" fill="none" stroke="#000" stroke-dasharray="0 0 12.55 12.55" stroke-miterlimit="10" stroke-width="5"/><line x1="707.92" y1="539.43" x2="713.92" y2="539.43" fill="none" stroke="#000" stroke-miterlimit="10" stroke-width="5"/><rect id="Base" width="1080" height="1080" opacity="0"/></g></g></svg>