<?xml version="1.0" encoding="UTF-8"?><svg id="Capa_1" xmlns="http://www.w3.org/2000/svg" viewBox="0 0 1080 1080"><rect id="Base" width="1080" height="1080" style="fill:#000; opacity:0; stroke-width:0px;"/><g id="Multifilar_-_Óhmetro"><circle cx="540" cy="540.44" r="190.34" style="fill:none; stroke:#000; stroke-miterlimit:10; stroke-width:5px;"/><line x1="541.48" y1="158" x2="541.48" y2="350.1" style="fill:none; stroke:#000; stroke-miterlimit:10; stroke-width:5px;"/><line x1="538.52" y1="730.78" x2="538.52" y2="922" style="fill:none; stroke:#000; stroke-miterlimit:10; stroke-width:5px;"/><path d="M468.29,616.14v-15.34h32.23v-.89c-14.89-12.23-29.34-34.46-29.34-63.35,0-42.68,30.01-72.69,69.8-72.69s67.58,31.34,67.58,70.91c0,30.68-14.67,52.68-29.56,65.13v.89h32.68v15.34h-56.24v-12.23c17.78-12.22,33.12-36.01,33.12-66.02,0-27.34-16.23-58.24-48.02-58.24s-49.13,29.12-49.13,58.46,15.56,54.68,33.34,65.8v12.23h-56.46Z" style="fill:#000; stroke-width:0px;"/><path d="M469.53,203.24v.12l3.56,6.6-3.91.99-4.44-8.29v-4.38h37.94v4.96h-33.15Z" style="fill:#000; stroke-width:0px;"/><path d="M502.68,883.24h-3.15l-3.91-4.03c-9.22-9.69-14.12-14.07-19.85-14.12-3.85,0-7.41,1.87-7.41,7.53,0,3.45,1.75,6.3,3.21,8.06l-3.62,1.63c-2.22-2.63-3.85-6.36-3.85-10.74,0-8.17,5.6-11.61,11.03-11.61,7.01,0,12.67,5.08,20.37,13.07l2.8,3.04h.11v-17.04h4.26v24.22Z" style="fill:#000; stroke-width:0px;"/></g></svg>