<?xml version="1.0" encoding="UTF-8"?><svg id="Capa_2" xmlns="http://www.w3.org/2000/svg" viewBox="0 0 1080 1080"><g id="Capa_1-2"><g id="Multifilar_-_Interruptor_por_Presión_Presostato_"><line x1="528.07" y1="666.94" x2="528.07" y2="922" fill="none" stroke="#000" stroke-miterlimit="10" stroke-width="5"/><line x1="400.54" y1="411.29" x2="528.07" y2="666.35" fill="none" stroke="#000" stroke-miterlimit="10" stroke-width="5"/><line x1="528.07" y1="158" x2="528.07" y2="411.88" fill="none" stroke="#000" stroke-miterlimit="10" stroke-width="5"/><line x1="781.1" y1="413.36" x2="909.65" y2="413.36" fill="none" stroke="#000" stroke-miterlimit="10" stroke-width="5"/><line x1="781.61" y1="158" x2="781.61" y2="412.72" fill="none" stroke="#000" stroke-miterlimit="10" stroke-width="5"/><line x1="781.61" y1="667.6" x2="781.61" y2="922" fill="none" stroke="#000" stroke-miterlimit="10" stroke-width="5"/><line x1="909.65" y1="362.44" x2="781.61" y2="667.6" fill="none" stroke="#000" stroke-miterlimit="10" stroke-width="5"/><line x1="272.81" y1="540" x2="278.81" y2="540.01" fill="none" stroke="#000" stroke-miterlimit="10" stroke-width="5"/><line x1="291.02" y1="540.02" x2="822.22" y2="540.63" fill="none" stroke="#000" stroke-dasharray="0 0 12.21 12.21" stroke-miterlimit="10" stroke-width="5"/><line x1="828.32" y1="540.64" x2="834.32" y2="540.65" fill="none" stroke="#000" stroke-miterlimit="10" stroke-width="5"/><rect x="170.35" y="488.45" width="101.82" height="101.82" fill="none" stroke="#000" stroke-miterlimit="10" stroke-width="5"/><path d="m206.85,515.52c3.15-.53,7.27-.97,12.52-.97,6.45,0,11.17,1.5,14.17,4.2,2.77,2.4,4.42,6.07,4.42,10.57s-1.35,8.17-3.9,10.8c-3.45,3.67-9.07,5.55-15.45,5.55-1.95,0-3.75-.07-5.25-.45v20.25h-6.52v-49.94Zm6.52,24.37c1.42.38,3.22.53,5.4.53,7.87,0,12.67-3.82,12.67-10.8s-4.72-9.9-11.92-9.9c-2.85,0-5.02.23-6.15.53v19.64Z"/><path d="m479.98,211.09v.07l2.31,4.28-2.54.64-2.88-5.38v-2.84h24.62v3.22h-21.52Z"/><path d="m497.67,198.08c.61-.95,1.55-3.14,1.55-5.45,0-4.28-2.73-5.61-4.77-5.57-3.45.04-4.92,3.14-4.92,6.36v1.86h-2.5v-1.86c0-2.42-1.25-5.49-4.17-5.49-1.97,0-3.71,1.25-3.71,4.32,0,1.97.87,3.86,1.63,4.93l-2.42.87c-.95-1.29-1.89-3.79-1.89-6.44,0-4.85,2.88-7.04,5.87-7.04,2.54,0,4.7,1.51,5.8,4.55h.08c.61-3.03,2.88-5.49,6.32-5.49,3.94,0,7.39,3.07,7.39,8.98,0,2.76-.87,5.19-1.67,6.4l-2.58-.91Z"/><path d="m479.66,891.1v.08l2.38,4.42-2.62.66-2.97-5.55v-2.93h25.4v3.32h-22.19Z"/><path d="m501.86,867.88h-6.92v11.8h-2.27l-16.22-11.33v-3.71h15.79v-3.55h2.69v3.55h6.92v3.25Zm-9.61,0h-8.48c-1.33,0-2.66-.04-3.99-.12v.12c1.49.78,2.58,1.41,3.75,2.11l8.63,6.21h.08v-8.32Z"/><path d="m756.48,214.01h-2.08l-2.58-2.66c-6.08-6.39-9.32-9.28-13.09-9.32-2.54,0-4.89,1.23-4.89,4.97,0,2.27,1.16,4.16,2.12,5.32l-2.39,1.08c-1.46-1.73-2.54-4.2-2.54-7.09,0-5.39,3.7-7.66,7.28-7.66,4.62,0,8.36,3.35,13.44,8.63l1.85,2h.08v-11.25h2.81v15.98Z"/><path d="m734.6,186.89v.08l2.35,4.35-2.58.65-2.93-5.47v-2.89h25.03v3.27h-21.88Z"/><path d="m756.24,896.39h-2.06l-2.56-2.63c-6.03-6.33-9.23-9.19-12.97-9.23-2.52,0-4.85,1.22-4.85,4.92,0,2.25,1.14,4.12,2.1,5.27l-2.37,1.07c-1.45-1.72-2.52-4.16-2.52-7.02,0-5.34,3.66-7.59,7.21-7.59,4.58,0,8.28,3.32,13.31,8.55l1.83,1.98h.08v-11.14h2.78v15.83Z"/><path d="m756.24,876.81h-2.06l-2.56-2.63c-6.03-6.33-9.23-9.19-12.97-9.23-2.52,0-4.85,1.22-4.85,4.92,0,2.25,1.14,4.12,2.1,5.27l-2.37,1.07c-1.45-1.72-2.52-4.16-2.52-7.02,0-5.34,3.66-7.59,7.21-7.59,4.58,0,8.28,3.32,13.31,8.55l1.83,1.98h.08v-11.14h2.78v15.83Z"/><rect id="Base" width="1080" height="1080" opacity="0"/></g></g></svg>