<?xml version="1.0" encoding="UTF-8"?><svg id="Capa_2" xmlns="http://www.w3.org/2000/svg" viewBox="0 0 1080 1080"><g id="Capa_1-2"><g id="Multifilar_-_Temporizador_con_doble_función_a_la_conexión-desconexión_Contactos_"><line x1="512.63" y1="267.63" x2="512.63" y2="403.81" fill="none" stroke="#000" stroke-miterlimit="10" stroke-width="5"/><line x1="512.63" y1="676.53" x2="512.63" y2="812.37" fill="none" stroke="#000" stroke-miterlimit="10" stroke-width="5"/><line x1="404.5" y1="403.13" x2="512.63" y2="676.53" fill="none" stroke="#000" stroke-miterlimit="10" stroke-width="5"/><line x1="785" y1="267.63" x2="785" y2="403.81" fill="none" stroke="#000" stroke-miterlimit="10" stroke-width="5"/><line x1="785" y1="676.53" x2="785" y2="812.37" fill="none" stroke="#000" stroke-miterlimit="10" stroke-width="5"/><line x1="922" y1="350.02" x2="785" y2="676.53" fill="none" stroke="#000" stroke-miterlimit="10" stroke-width="5"/><line x1="243.8" y1="513.44" x2="854.59" y2="513.44" fill="none" stroke="#000" stroke-miterlimit="10" stroke-width="5"/><line x1="245.16" y1="566.56" x2="831.44" y2="566.56" fill="none" stroke="#000" stroke-miterlimit="10" stroke-width="5"/><path d="m321.42,621.03c-45.13,0-81.71-36.58-81.71-81.71s36.58-81.71,81.71-81.71" fill="none" stroke="#000" stroke-miterlimit="10" stroke-width="5"/><line x1="784.45" y1="404.5" x2="922" y2="404.5" fill="none" stroke="#000" stroke-miterlimit="10" stroke-width="5"/><path d="m158,457.61c45.13,0,81.71,36.58,81.71,81.71s-36.58,81.71-81.71,81.71" fill="none" stroke="#000" stroke-miterlimit="10" stroke-width="5"/><path d="m461.72,326.04v.08l2.56,4.74-2.81.71-3.18-5.95v-3.14h27.24v3.56h-23.8Z"/><path d="m458.29,294.87h2.43l24.81,11.86v3.81l-24.09-11.82h-.08v13.33h-3.06v-17.18Z"/><path d="m734.04,324.65v.08l2.51,4.66-2.76.7-3.13-5.85v-3.09h26.78v3.5h-23.4Z"/><path d="m733.71,295.4v10.22l6.88,1.03c-.08-.62-.17-1.2-.17-2.18,0-2.06.45-4.12,1.44-5.77,1.19-2.1,3.5-3.83,6.88-3.83,5.23,0,9.15,4.16,9.15,9.97,0,2.93-.82,5.4-1.65,6.68l-2.76-.91c.66-1.11,1.48-3.3,1.48-5.73,0-3.42-2.23-6.35-5.81-6.35-3.46.04-5.93,2.35-5.93,7.71,0,1.52.16,2.72.29,3.71l-12.86-1.73v-12.82h3.05Z"/><path d="m462.06,779.78v.08l2.47,4.58-2.72.69-3.08-5.76v-3.04h26.35v3.45h-23.02Z"/><path d="m478.39,767.06c-3.32,0-5.67-1.99-7.05-5.23l-.12.04c-1.38,2.92-3.65,4.17-5.92,4.17-4.17,0-7.01-3.53-7.01-8.15,0-5.11,3.2-7.66,6.49-7.66,2.23,0,4.62,1.09,6.16,4.34h.12c1.3-3.28,3.61-5.31,6.81-5.31,4.58,0,7.66,3.93,7.66,8.96,0,5.51-3.28,8.84-7.13,8.84Zm-.16-14.19c-3.2,0-4.74,2.23-5.76,5.8.89,3.08,2.92,4.74,5.43,4.74,2.68.12,5.03-1.9,5.03-5.27s-1.99-5.27-4.7-5.27Zm-13.17,9.81c2.63,0,4.05-1.99,4.86-5.03-.77-2.27-2.39-4.01-4.78-4.01-2.11,0-4.3,1.26-4.3,4.46,0,2.96,1.95,4.58,4.22,4.58Z"/><path d="m734.39,779.78v.08l2.48,4.59-2.72.69-3.08-5.76v-3.04h26.38v3.45h-23.06Z"/><path d="m733.58,751.65c-.04.73,0,1.66.16,2.68.93,5.6,5.03,8.56,9.38,9.17v-.12c-1.66-1.26-3.04-3.45-3.04-6.37,0-4.67,3.37-7.96,8.52-7.96,4.83,0,9.3,3.29,9.3,8.77s-4.38,9.34-11.24,9.34c-5.2,0-9.3-1.87-11.89-4.46-2.15-2.19-3.49-5.11-3.9-8.44-.16-1.06-.2-1.95-.2-2.6h2.92Zm15.22,1.01c-3.78,0-6.05,2.15-6.05,5.44,0,2.15,1.34,4.14,3.25,5.11.41.24.93.41,1.58.41,4.34-.08,7.55-2.07,7.55-5.8,0-3.08-2.56-5.16-6.33-5.16Z"/><rect id="Base" width="1080" height="1080" opacity="0"/></g></g></svg>