<?xml version="1.0" encoding="UTF-8"?><svg id="Capa_2" xmlns="http://www.w3.org/2000/svg" viewBox="0 0 1080 1080"><g id="Capa_1-2"><g id="Multifilar_-_Conmutador_rotativo_de_tres_posiciones"><line x1="367.15" y1="539.82" x2="402.6" y2="610.74" fill="none" stroke="#000" stroke-miterlimit="10" stroke-width="5"/><line x1="228.36" y1="436.44" x2="228.36" y2="642.98" fill="none" stroke="#000" stroke-miterlimit="10" stroke-width="5"/><line x1="436.45" y1="539.82" x2="442.45" y2="539.82" fill="none" stroke="#000" stroke-miterlimit="10" stroke-width="5"/><line x1="454.56" y1="539.82" x2="739.2" y2="539.82" fill="none" stroke="#000" stroke-dasharray="0 0 12.11 12.11" stroke-miterlimit="10" stroke-width="5"/><line x1="745.26" y1="539.82" x2="751.26" y2="539.82" fill="none" stroke="#000" stroke-miterlimit="10" stroke-width="5"/><line x1="228.36" y1="539.82" x2="234.36" y2="539.82" fill="none" stroke="#000" stroke-miterlimit="10" stroke-width="5"/><line x1="245.88" y1="539.82" x2="355.38" y2="539.82" fill="none" stroke="#000" stroke-dasharray="0 0 11.53 11.53" stroke-miterlimit="10" stroke-width="5"/><line x1="361.15" y1="539.82" x2="367.15" y2="539.82" fill="none" stroke="#000" stroke-miterlimit="10" stroke-width="5"/><line x1="436.45" y1="539.82" x2="402.6" y2="610.74" fill="none" stroke="#000" stroke-miterlimit="10" stroke-width="5"/><line x1="228.36" y1="436.44" x2="297.85" y2="436.44" fill="none" stroke="#000" stroke-miterlimit="10" stroke-width="5"/><line x1="158" y1="642.98" x2="229.23" y2="642.98" fill="none" stroke="#000" stroke-miterlimit="10" stroke-width="5"/><line x1="750.23" y1="365.5" x2="750.23" y2="192.65" fill="none" stroke="#000" stroke-miterlimit="10" stroke-width="5"/><line x1="750.39" y1="712.94" x2="750.08" y2="400.24" fill="none" stroke="#000" stroke-miterlimit="10" stroke-width="5"/><line x1="922" y1="887.35" x2="922" y2="713.63" fill="none" stroke="#000" stroke-miterlimit="10" stroke-width="5"/><line x1="576.54" y1="886.48" x2="576.54" y2="712.76" fill="none" stroke="#000" stroke-miterlimit="10" stroke-width="5"/><line x1="922" y1="713.63" x2="818.51" y2="713.63" fill="none" stroke="#000" stroke-miterlimit="10" stroke-width="5"/><line x1="679.16" y1="712.76" x2="576.54" y2="712.76" fill="none" stroke="#000" stroke-miterlimit="10" stroke-width="5"/><line x1="402.6" y1="539.82" x2="402.6" y2="611.31" fill="none" stroke="#000" stroke-miterlimit="10" stroke-width="5"/><circle cx="750.23" cy="382" r="17.37" fill="none" stroke="#000" stroke-miterlimit="10" stroke-width="5"/><path d="m364.87,469.73v34.74h-4.48v-34.74h4.48Z"/><path d="m414.03,486.74c0,11.43-4.24,17.73-11.68,17.73-6.57,0-11.01-6.15-11.12-17.27,0-11.27,4.86-17.48,11.68-17.48s11.12,6.31,11.12,17.01Zm-18.25.52c0,8.74,2.69,13.7,6.82,13.7,4.65,0,6.87-5.43,6.87-14.01s-2.12-13.7-6.82-13.7c-3.98,0-6.88,4.86-6.88,14.01Z"/><path d="m442.66,469.73v34.74h-4.49v-34.74h4.49Z"/><path d="m454.99,469.73v34.74h-4.49v-34.74h4.49Z"/><rect id="Base" width="1080" height="1080" opacity="0"/></g></g></svg>