<?xml version="1.0" encoding="UTF-8"?><svg id="Capa_2" xmlns="http://www.w3.org/2000/svg" viewBox="0 0 1080 1080"><g id="Capa_1-2"><g id="Multifilar_-_Transformador_3"><line x1="160.65" y1="159.56" x2="397.15" y2="159.56" fill="none" stroke="#000" stroke-miterlimit="10" stroke-width="5"/><line x1="160.65" y1="922" x2="397.15" y2="922" fill="none" stroke="#000" stroke-miterlimit="10" stroke-width="5"/><path d="m396.99,350.31c52.68,0,95.38-42.7,95.38-95.38s-42.7-95.38-95.38-95.38" fill="none" stroke="#000" stroke-miterlimit="10" stroke-width="5"/><path d="m396.99,540.88c52.68,0,95.38-42.7,95.38-95.38s-42.7-95.38-95.38-95.38" fill="none" stroke="#000" stroke-miterlimit="10" stroke-width="5"/><path d="m396.99,731.44c52.68,0,95.38-42.7,95.38-95.38s-42.7-95.38-95.38-95.38" fill="none" stroke="#000" stroke-miterlimit="10" stroke-width="5"/><path d="m396.99,922c52.68,0,95.38-42.7,95.38-95.38s-42.7-95.38-95.38-95.38" fill="none" stroke="#000" stroke-miterlimit="10" stroke-width="5"/><line x1="919.35" y1="922" x2="682.85" y2="922" fill="none" stroke="#000" stroke-miterlimit="10" stroke-width="5"/><line x1="919.35" y1="159.56" x2="682.85" y2="159.56" fill="none" stroke="#000" stroke-miterlimit="10" stroke-width="5"/><path d="m683.01,731.24c-52.68,0-95.38,42.7-95.38,95.38s42.7,95.38,95.38,95.38" fill="none" stroke="#000" stroke-miterlimit="10" stroke-width="5"/><path d="m683.01,540.68c-52.68,0-95.38,42.7-95.38,95.38,0,52.68,42.7,95.38,95.38,95.38" fill="none" stroke="#000" stroke-miterlimit="10" stroke-width="5"/><path d="m683.01,350.12c-52.68,0-95.38,42.7-95.38,95.38,0,52.68,42.7,95.38,95.38,95.38" fill="none" stroke="#000" stroke-miterlimit="10" stroke-width="5"/><path d="m683.01,159.56c-52.68,0-95.38,42.7-95.38,95.38,0,52.68,42.7,95.38,95.38,95.38" fill="none" stroke="#000" stroke-miterlimit="10" stroke-width="5"/><line x1="541.76" y1="158" x2="541.76" y2="920.24" fill="none" stroke="#000" stroke-miterlimit="10" stroke-width="5"/><rect id="Base" width="1080" height="1080" opacity="0"/></g></g></svg>