<?xml version="1.0" encoding="UTF-8"?><svg id="Capa_2" xmlns="http://www.w3.org/2000/svg" viewBox="0 0 1080 1080"><g id="Capa_1-2"><g id="Multifilar_-_Pulsador_con_señalización_luminosa"><line x1="757.12" y1="666.94" x2="757.12" y2="922" fill="none" stroke="#000" stroke-miterlimit="10" stroke-width="5"/><line x1="629.59" y1="411.29" x2="757.12" y2="666.35" fill="none" stroke="#000" stroke-miterlimit="10" stroke-width="5"/><line x1="757.12" y1="158" x2="757.12" y2="411.88" fill="none" stroke="#000" stroke-miterlimit="10" stroke-width="5"/><line x1="553.71" y1="540" x2="559.71" y2="540" fill="none" stroke="#000" stroke-miterlimit="10" stroke-width="5"/><line x1="571.31" y1="540" x2="681.55" y2="540" fill="none" stroke="#000" stroke-dasharray="0 0 11.6 11.6" stroke-miterlimit="10" stroke-width="5"/><line x1="687.35" y1="540" x2="693.35" y2="540" fill="none" stroke="#000" stroke-miterlimit="10" stroke-width="5"/><line x1="322.88" y1="540" x2="328.88" y2="540" fill="none" stroke="#000" stroke-miterlimit="10" stroke-width="5"/><line x1="341.86" y1="540" x2="439.2" y2="540" fill="none" stroke="#000" stroke-dasharray="0 0 12.98 12.98" stroke-miterlimit="10" stroke-width="5"/><line x1="445.69" y1="540" x2="451.69" y2="540" fill="none" stroke="#000" stroke-miterlimit="10" stroke-width="5"/><line x1="539.29" y1="576.34" x2="466.16" y2="503.21" fill="none" stroke="#000" stroke-miterlimit="10" stroke-width="5"/><line x1="539.29" y1="503.21" x2="466.16" y2="576.34" fill="none" stroke="#000" stroke-miterlimit="10" stroke-width="5"/><circle cx="502.61" cy="539.77" r="50.79" fill="none" stroke="#000" stroke-miterlimit="10" stroke-width="5"/><line x1="323.52" y1="488.35" x2="323.52" y2="591.65" fill="none" stroke="#000" stroke-miterlimit="10" stroke-width="5"/><line x1="323.52" y1="591.65" x2="375.8" y2="591.65" fill="none" stroke="#000" stroke-miterlimit="10" stroke-width="5"/><line x1="323.52" y1="488.35" x2="375.8" y2="488.35" fill="none" stroke="#000" stroke-miterlimit="10" stroke-width="5"/><path d="m709.64,210.81v.07l2.32,4.29-2.54.65-2.88-5.39v-2.84h24.66v3.22h-21.55Z"/><path d="m727.35,197.79c.61-.95,1.56-3.15,1.56-5.46,0-4.29-2.73-5.62-4.78-5.58-3.45.04-4.93,3.15-4.93,6.37v1.86h-2.5v-1.86c0-2.43-1.25-5.5-4.17-5.5-1.97,0-3.72,1.25-3.72,4.32,0,1.97.87,3.87,1.63,4.93l-2.43.87c-.95-1.29-1.9-3.79-1.9-6.45,0-4.86,2.88-7.05,5.88-7.05,2.54,0,4.7,1.52,5.8,4.55h.08c.61-3.04,2.88-5.5,6.33-5.5,3.95,0,7.4,3.07,7.4,8.99,0,2.77-.87,5.2-1.67,6.41l-2.58-.91Z"/><path d="m709.32,891.91v.08l2.39,4.43-2.63.67-2.98-5.57v-2.94h25.49v3.33h-22.28Z"/><path d="m731.6,868.6h-6.94v11.84h-2.27l-16.28-11.37v-3.72h15.85v-3.57h2.7v3.57h6.94v3.25Zm-9.65,0h-8.51c-1.33,0-2.67-.04-4-.12v.12c1.49.78,2.59,1.41,3.76,2.12l8.67,6.24h.08v-8.35Z"/><rect id="Base" width="1080" height="1080" opacity="0"/></g></g></svg>