<?xml version="1.0" encoding="UTF-8"?><svg id="Capa_2" xmlns="http://www.w3.org/2000/svg" viewBox="0 0 1080 1080"><g id="Capa_1-2"><g id="Multifilar_-_Elemento_Calefactor"><rect x="403.93" y="295.33" width="272.77" height="54.3" fill="none" stroke="#000" stroke-miterlimit="10" stroke-width="5"/><rect x="403.93" y="349.84" width="272.77" height="54.3" fill="none" stroke="#000" stroke-miterlimit="10" stroke-width="5"/><rect x="403.93" y="404.35" width="272.77" height="54.3" fill="none" stroke="#000" stroke-miterlimit="10" stroke-width="5"/><rect x="403.93" y="458.86" width="272.77" height="54.3" fill="none" stroke="#000" stroke-miterlimit="10" stroke-width="5"/><rect x="403.93" y="513.38" width="272.77" height="54.3" fill="none" stroke="#000" stroke-miterlimit="10" stroke-width="5"/><rect x="403.93" y="567.89" width="272.77" height="54.3" fill="none" stroke="#000" stroke-miterlimit="10" stroke-width="5"/><rect x="403.93" y="622.4" width="272.77" height="54.3" fill="none" stroke="#000" stroke-miterlimit="10" stroke-width="5"/><rect x="403.93" y="676.91" width="272.77" height="54.3" fill="none" stroke="#000" stroke-miterlimit="10" stroke-width="5"/><rect x="403.93" y="731.42" width="272.77" height="54.3" fill="none" stroke="#000" stroke-miterlimit="10" stroke-width="5"/><rect x="403.93" y="785.93" width="272.77" height="54.3" fill="none" stroke="#000" stroke-miterlimit="10" stroke-width="5"/><line x1="539.37" y1="158" x2="539.37" y2="295.65" fill="none" stroke="#000" stroke-miterlimit="10" stroke-width="5"/><line x1="267.86" y1="158" x2="267.86" y2="922" fill="none" stroke="#000" stroke-miterlimit="10" stroke-width="5"/><line x1="539.37" y1="839.92" x2="539.37" y2="922" fill="none" stroke="#000" stroke-miterlimit="10" stroke-width="5"/><line x1="267.86" y1="922" x2="539.37" y2="922" fill="none" stroke="#000" stroke-miterlimit="10" stroke-width="5"/><line x1="732.58" y1="567.78" x2="812.14" y2="567.78" fill="none" stroke="#000" stroke-miterlimit="10" stroke-width="5"/><line x1="812.14" y1="158" x2="812.14" y2="568.41" fill="none" stroke="#000" stroke-miterlimit="10" stroke-width="5"/><line x1="731" y1="512.85" x2="731" y2="622.71" fill="none" stroke="#000" stroke-miterlimit="10" stroke-width="5"/><circle cx="731" cy="567.78" r="26.83"/><rect id="Base" width="1080" height="1080" opacity="0"/></g></g></svg>