<?xml version="1.0" encoding="UTF-8"?><svg id="Capa_2" xmlns="http://www.w3.org/2000/svg" viewBox="0 0 1080 1080"><g id="Capa_1-2"><g id="Multifilar_-_Interruptor_magnetotérmico_unipolar_PIA_ICP_-_1"><line x1="616.72" y1="463.12" x2="616.72" y2="494.27" fill="none" stroke="#000" stroke-miterlimit="10" stroke-width="5"/><line x1="540.27" y1="309.85" x2="616.72" y2="462.76" fill="none" stroke="#000" stroke-miterlimit="10" stroke-width="5"/><line x1="494.6" y1="355.87" x2="494.6" y2="416.75" fill="none" stroke="#000" stroke-miterlimit="10" stroke-width="5"/><line x1="433.01" y1="356.22" x2="433.01" y2="417.1" fill="none" stroke="#000" stroke-miterlimit="10" stroke-width="5"/><line x1="494.96" y1="356.58" x2="434.08" y2="356.58" fill="none" stroke="#000" stroke-miterlimit="10" stroke-width="5"/><line x1="494.25" y1="417.46" x2="433.37" y2="417.46" fill="none" stroke="#000" stroke-miterlimit="10" stroke-width="5"/><line x1="616.72" y1="158" x2="616.72" y2="310.21" fill="none" stroke="#000" stroke-miterlimit="10" stroke-width="5"/><line x1="617.08" y1="800.09" x2="617.08" y2="922" fill="none" stroke="#000" stroke-miterlimit="10" stroke-width="5"/><line x1="387" y1="355.87" x2="387" y2="417.46" fill="none" stroke="#000" stroke-miterlimit="10" stroke-width="5"/><rect x="540.62" y="495.15" width="152.38" height="152.38" fill="none" stroke="#000" stroke-miterlimit="10" stroke-width="5"/><rect x="540.62" y="648.24" width="152.21" height="152.21" fill="none" stroke="#000" stroke-miterlimit="10" stroke-width="5"/><line x1="617.08" y1="493.91" x2="617.08" y2="539.93" fill="none" stroke="#000" stroke-miterlimit="10" stroke-width="5"/><line x1="662.38" y1="539.93" x2="617.08" y2="539.93" fill="none" stroke="#000" stroke-miterlimit="10" stroke-width="5"/><line x1="617.43" y1="601.52" x2="662.74" y2="601.52" fill="none" stroke="#000" stroke-miterlimit="10" stroke-width="5"/><line x1="662.38" y1="540.64" x2="662.38" y2="601.52" fill="none" stroke="#000" stroke-miterlimit="10" stroke-width="5"/><line x1="617.08" y1="601.87" x2="617.08" y2="647.89" fill="none" stroke="#000" stroke-miterlimit="10" stroke-width="5"/><line x1="571.06" y1="676.91" x2="571.06" y2="770.01" fill="none" stroke="#000" stroke-miterlimit="10" stroke-width="5"/><line x1="601.15" y1="677.62" x2="663.09" y2="723.64" fill="none" stroke="#000" stroke-miterlimit="10" stroke-width="5"/><line x1="601.15" y1="769.65" x2="663.09" y2="723.64" fill="none" stroke="#000" stroke-miterlimit="10" stroke-width="5"/><line x1="464.16" y1="356.58" x2="464.16" y2="417.46" fill="none" stroke="#000" stroke-miterlimit="10" stroke-width="5"/><line x1="433.01" y1="386.31" x2="494.6" y2="386.31" fill="none" stroke="#000" stroke-miterlimit="10" stroke-width="5"/><circle cx="616.72" cy="319.05" r="7.79" fill="none" stroke="#000" stroke-miterlimit="10" stroke-width="5"/><path d="m601.2,907.2h-1.25l-1.55-1.6c-3.66-3.84-5.6-5.58-7.87-5.6-1.53,0-2.94.74-2.94,2.99,0,1.37.69,2.5,1.27,3.19l-1.44.65c-.88-1.04-1.53-2.52-1.53-4.26,0-3.24,2.22-4.61,4.37-4.61,2.78,0,5.02,2.01,8.08,5.18l1.11,1.2h.05v-6.76h1.69v9.61Z"/><path d="m587.82,174.79v.05l1.43,2.65-1.57.4-1.78-3.33v-1.76h15.24v1.99h-13.32Z"/><line x1="494.6" y1="386.31" x2="500.6" y2="386.31" fill="none" stroke="#000" stroke-miterlimit="10" stroke-width="5"/><line x1="510.92" y1="386.31" x2="567.69" y2="386.31" fill="none" stroke="#000" stroke-dasharray="0 0 10.32 10.32" stroke-miterlimit="10" stroke-width="5"/><line x1="572.85" y1="386.31" x2="578.85" y2="386.31" fill="none" stroke="#000" stroke-miterlimit="10" stroke-width="5"/><line x1="464.52" y1="571.08" x2="470.52" y2="571.08" fill="none" stroke="#000" stroke-miterlimit="10" stroke-width="5"/><line x1="483.34" y1="571.08" x2="528.21" y2="571.08" fill="none" stroke="#000" stroke-dasharray="0 0 12.82 12.82" stroke-miterlimit="10" stroke-width="5"/><line x1="534.62" y1="571.08" x2="540.62" y2="571.08" fill="none" stroke="#000" stroke-miterlimit="10" stroke-width="5"/><line x1="464.52" y1="723.28" x2="470.52" y2="723.28" fill="none" stroke="#000" stroke-miterlimit="10" stroke-width="5"/><line x1="483.34" y1="723.28" x2="528.21" y2="723.28" fill="none" stroke="#000" stroke-dasharray="0 0 12.82 12.82" stroke-miterlimit="10" stroke-width="5"/><line x1="534.62" y1="723.28" x2="540.62" y2="723.28" fill="none" stroke="#000" stroke-miterlimit="10" stroke-width="5"/><line x1="464.16" y1="417.46" x2="464.17" y2="423.46" fill="none" stroke="#000" stroke-miterlimit="10" stroke-width="5"/><line x1="464.18" y1="435.21" x2="464.5" y2="711.41" fill="none" stroke="#000" stroke-dasharray="0 0 11.75 11.75" stroke-miterlimit="10" stroke-width="5"/><line x1="464.51" y1="717.28" x2="464.52" y2="723.28" fill="none" stroke="#000" stroke-miterlimit="10" stroke-width="5"/><line x1="434.43" y1="387.02" x2="428.43" y2="387.02" fill="none" stroke="#000" stroke-miterlimit="10" stroke-width="5"/><line x1="416.62" y1="387.02" x2="398.9" y2="387.02" fill="none" stroke="#000" stroke-dasharray="0 0 11.81 11.81" stroke-miterlimit="10" stroke-width="5"/><line x1="393" y1="387.02" x2="387" y2="387.02" fill="none" stroke="#000" stroke-miterlimit="10" stroke-width="5"/><rect id="Base" width="1080" height="1080" opacity="0"/></g></g></svg>