<?xml version="1.0" encoding="UTF-8"?><svg id="Capa_2" xmlns="http://www.w3.org/2000/svg" viewBox="0 0 1080 1080"><g id="Capa_1-2"><g id="Multifilar_-_Fototransistor_de_dos_patillas_IEC"><line x1="632.16" y1="247.26" x2="632.16" y2="451.61" fill="none" stroke="#000" stroke-miterlimit="10" stroke-width="5"/><line x1="544.2" y1="452.97" x2="544.2" y2="626.2" fill="none" stroke="#000" stroke-miterlimit="10" stroke-width="5"/><line x1="544.2" y1="481.39" x2="632.16" y2="451.61" fill="none" stroke="#000" stroke-miterlimit="10" stroke-width="5"/><line x1="544.2" y1="597.78" x2="632.16" y2="627.55" fill="none" stroke="#000" stroke-miterlimit="10" stroke-width="5"/><line x1="632.16" y1="627.55" x2="632.16" y2="831.91" fill="none" stroke="#000" stroke-miterlimit="10" stroke-width="5"/><polygon points="484.71 510.56 470.37 467.03 441.17 496.23 484.71 510.56"/><line x1="455.77" y1="481.63" x2="427.46" y2="453.31" fill="none" stroke="#000" stroke-miterlimit="10" stroke-width="5"/><polygon points="484.71 628.3 470.37 584.77 441.17 613.97 484.71 628.3"/><line x1="455.77" y1="599.37" x2="427.46" y2="571.06" fill="none" stroke="#000" stroke-miterlimit="10" stroke-width="5"/><polyline points="569.65 622.36 601.86 617.59 579.17 594.24" fill="none" stroke="#000" stroke-miterlimit="10" stroke-width="5"/><path d="m652.46,214.07c-2.71,1.35-8.12,2.71-15.05,2.71-16.07,0-28.16-10.15-28.16-28.84s12.09-29.94,29.77-29.94c7.1,0,11.59,1.52,13.53,2.54l-1.78,6c-2.79-1.35-6.76-2.37-11.5-2.37-13.36,0-22.24,8.54-22.24,23.51,0,13.95,8.03,22.92,21.9,22.92,4.48,0,9.05-.93,12.01-2.37l1.52,5.84Z"/><path d="m644.87,894.32h-22.95v21.29h25.58v6.4h-33.2v-59.05h31.89v6.4h-24.27v18.66h22.95v6.31Z"/><rect id="Base" width="1080" height="1080" opacity="0"/></g></g></svg>