<?xml version="1.0" encoding="UTF-8"?><svg id="Capa_2" xmlns="http://www.w3.org/2000/svg" viewBox="0 0 1080 1080"><g id="Capa_1-2"><g id="Multifilar_-_Fuente_de_alimentación"><path d="m680.79,391.54v296.92h-296.92v-296.92h296.92m5-5h-306.92v306.92h306.92v-306.92h0Z"/><line x1="682.32" y1="689.29" x2="383.04" y2="390.01" fill="none" stroke="#000" stroke-miterlimit="10" stroke-width="5"/><line x1="683.01" y1="480.28" x2="833" y2="480.28" fill="none" stroke="#000" stroke-miterlimit="10" stroke-width="5"/><line x1="683.01" y1="599.72" x2="833" y2="599.72" fill="none" stroke="#000" stroke-miterlimit="10" stroke-width="5"/><line x1="233.05" y1="480.28" x2="383.04" y2="480.28" fill="none" stroke="#000" stroke-miterlimit="10" stroke-width="5"/><line x1="233.05" y1="599.72" x2="383.04" y2="599.72" fill="none" stroke="#000" stroke-miterlimit="10" stroke-width="5"/><g id="Unifilar_-_Corriente_continua"><line x1="533.03" y1="449.8" x2="652.46" y2="449.8" fill="none" stroke="#000" stroke-miterlimit="10" stroke-width="5"/><line x1="533.03" y1="480.98" x2="557.36" y2="480.98" fill="none" stroke="#000" stroke-miterlimit="10" stroke-width="5"/><line x1="580.89" y1="480.98" x2="604.67" y2="480.98" fill="none" stroke="#000" stroke-miterlimit="10" stroke-width="5"/><line x1="628.27" y1="480.98" x2="652.46" y2="480.98" fill="none" stroke="#000" stroke-miterlimit="10" stroke-width="5"/></g><g id="Multifilar_-_Terminal"><path id="Terminal" d="m533.03,600.65c0,16.45-13.34,29.79-29.79,29.79s-29.93-14.83-29.93-29.93c0-13.72-13.48-29.79-29.93-29.79s-29.79,13.34-29.79,29.79" fill="none" stroke="#000" stroke-miterlimit="10" stroke-width="5"/></g><path d="m170,450.71h7.74v53.44h25.61v6.49h-33.34v-59.93Z"/><path d="m158,630.52v-60.4h8.51l19.35,30.56c4.48,7.08,7.98,13.44,10.84,19.62l.18-.09c-.72-8.07-.9-15.41-.9-24.82v-25.27h7.35v60.4h-7.88l-19.18-30.65c-4.21-6.72-8.24-13.62-11.29-20.16l-.27.09c.45,7.62.63,14.88.63,24.91v25.81h-7.35Z"/><path d="m895.75,450.31v26.66h26.25v6.81h-26.25v26.88h-7.43v-26.88h-26.25v-6.81h26.25v-26.66h7.43Z"/><line x1="862.06" y1="599.72" x2="922" y2="599.72" fill="none" stroke="#000" stroke-miterlimit="10" stroke-width="5"/><rect id="Base" width="1080" height="1080" opacity="0"/></g></g></svg>