<?xml version="1.0" encoding="UTF-8"?><svg id="Capa_2" xmlns="http://www.w3.org/2000/svg" viewBox="0 0 1080 1080"><g id="Capa_1-2"><g id="Multifilar_-_Bocina"><rect x="158" y="365.69" width="346.88" height="346.88" fill="none" stroke="#000" stroke-miterlimit="10" stroke-width="5"/><polygon points="922 713.44 504.88 573.82 504.88 504.44 852.62 366.56 922 713.44" fill="none" stroke="#000" stroke-miterlimit="10" stroke-width="5"/><line x1="331.73" y1="193.12" x2="331.73" y2="366.56" fill="none" stroke="#000" stroke-miterlimit="10" stroke-width="5"/><line x1="331.73" y1="886.88" x2="331.73" y2="713.44" fill="none" stroke="#000" stroke-miterlimit="10" stroke-width="5"/><path d="m266.44,230.43v.11l3.26,6.03-3.58.91-4.06-7.58v-4h34.69v4.54h-30.31Z"/><path d="m296.75,850.96h-2.82l-3.5-3.61c-8.26-8.67-12.65-12.59-17.77-12.65-3.45,0-6.64,1.67-6.64,6.74,0,3.08,1.57,5.64,2.87,7.21l-3.24,1.46c-1.98-2.35-3.45-5.7-3.45-9.62,0-7.32,5.02-10.4,9.88-10.4,6.27,0,11.34,4.55,18.24,11.7l2.51,2.72h.1v-15.26h3.81v21.69Z"/><rect id="Base" width="1080" height="1080" opacity="0"/></g></g></svg>