<?xml version="1.0" encoding="UTF-8"?><svg id="Capa_2" xmlns="http://www.w3.org/2000/svg" viewBox="0 0 1080 1080"><g id="Capa_1-2"><g id="Multifilar_-_Interruptor_de_tirador_de_emergencia_NA_NC"><line x1="744.47" y1="666.94" x2="744.47" y2="922" fill="none" stroke="#000" stroke-miterlimit="10" stroke-width="5"/><line x1="744.47" y1="158" x2="744.47" y2="411.88" fill="none" stroke="#000" stroke-miterlimit="10" stroke-width="5"/><line x1="745.06" y1="411.29" x2="896.79" y2="411.29" fill="none" stroke="#000" stroke-miterlimit="10" stroke-width="5"/><line x1="896.79" y1="360.51" x2="744.47" y2="666.35" fill="none" stroke="#000" stroke-miterlimit="10" stroke-width="5"/><line x1="489.41" y1="666.94" x2="489.41" y2="922" fill="none" stroke="#000" stroke-miterlimit="10" stroke-width="5"/><line x1="361.88" y1="411.29" x2="489.41" y2="666.35" fill="none" stroke="#000" stroke-miterlimit="10" stroke-width="5"/><line x1="234.35" y1="538.82" x2="240.35" y2="538.82" fill="none" stroke="#000" stroke-miterlimit="10" stroke-width="5"/><line x1="252.3" y1="538.82" x2="796.25" y2="538.82" fill="none" stroke="#000" stroke-dasharray="0 0 11.96 11.96" stroke-miterlimit="10" stroke-width="5"/><line x1="802.23" y1="538.82" x2="808.23" y2="538.82" fill="none" stroke="#000" stroke-miterlimit="10" stroke-width="5"/><line x1="489.41" y1="158" x2="489.41" y2="411.88" fill="none" stroke="#000" stroke-miterlimit="10" stroke-width="5"/><line x1="234.35" y1="463.25" x2="183.21" y2="463.25" fill="none" stroke="#000" stroke-miterlimit="10" stroke-width="5"/><line x1="234.35" y1="462.66" x2="234.35" y2="614.98" fill="none" stroke="#000" stroke-miterlimit="10" stroke-width="5"/><line x1="234.35" y1="615.57" x2="183.21" y2="615.57" fill="none" stroke="#000" stroke-miterlimit="10" stroke-width="5"/><path d="m696.18,186.45v.08l2.39,4.43-2.63.67-2.98-5.57v-2.94h25.48v3.33h-22.26Z"/><path d="m718.44,896.7h-2.08l-2.58-2.66c-6.09-6.4-9.33-9.29-13.11-9.33-2.54,0-4.9,1.23-4.9,4.97,0,2.27,1.16,4.16,2.12,5.32l-2.39,1.08c-1.46-1.73-2.54-4.2-2.54-7.09,0-5.4,3.7-7.67,7.29-7.67,4.63,0,8.36,3.35,13.45,8.63l1.85,2h.08v-11.26h2.81v16Z"/><path d="m459.41,197.78c.61-.95,1.55-3.15,1.55-5.46,0-4.28-2.73-5.61-4.78-5.57-3.45.04-4.93,3.15-4.93,6.37v1.86h-2.5v-1.86c0-2.43-1.25-5.5-4.17-5.5-1.97,0-3.72,1.25-3.72,4.32,0,1.97.87,3.87,1.63,4.93l-2.43.87c-.95-1.29-1.9-3.79-1.9-6.45,0-4.85,2.88-7.05,5.88-7.05,2.54,0,4.7,1.52,5.8,4.55h.08c.61-3.03,2.88-5.5,6.33-5.5,3.94,0,7.39,3.07,7.39,8.99,0,2.77-.87,5.19-1.67,6.41l-2.58-.91Z"/><path d="m463.65,884.86h-6.94v11.84h-2.27l-16.27-11.37v-3.72h15.84v-3.57h2.7v3.57h6.94v3.25Zm-9.64,0h-8.51c-1.33,0-2.67-.04-4-.12v.12c1.49.78,2.59,1.41,3.76,2.12l8.66,6.23h.08v-8.35Z"/><rect id="Base" width="1080" height="1080" opacity="0"/></g></g></svg>