<?xml version="1.0" encoding="UTF-8"?><svg id="Capa_2" xmlns="http://www.w3.org/2000/svg" viewBox="0 0 1080 1080"><g id="Capa_1-2"><g id="Multifilar_-_Divisor_de_tensión_IEC"><line x1="287.02" y1="374.42" x2="385.09" y2="374.42" fill="none" stroke="#000" stroke-miterlimit="10" stroke-width="5"/><line x1="580.09" y1="374.42" x2="773.96" y2="374.42" fill="none" stroke="#000" stroke-miterlimit="10" stroke-width="5"/><line x1="676.38" y1="374.42" x2="676.38" y2="471.72" fill="none" stroke="#000" stroke-miterlimit="10" stroke-width="5"/><line x1="676.38" y1="665.7" x2="676.38" y2="763.78" fill="none" stroke="#000" stroke-miterlimit="10" stroke-width="5"/><line x1="286.86" y1="763.78" x2="774.12" y2="763.78" fill="none" stroke="#000" stroke-miterlimit="10" stroke-width="5"/><path d="m715.44,491.93c2.52-.52,6.12-.8,9.56-.8,5.33,0,8.75.97,11.16,3.15,1.95,1.71,3.03,4.35,3.03,7.32,0,5.09-3.21,8.47-7.27,9.84v.17c2.98,1.03,4.75,3.77,5.67,7.78,1.26,5.38,2.18,9.1,2.98,10.59h-5.15c-.63-1.09-1.49-4.41-2.58-9.21-1.15-5.32-3.21-7.32-7.73-7.5h-4.69v16.71h-4.98v-38.05Zm4.98,17.57h5.09c5.32,0,8.7-2.92,8.7-7.32,0-4.98-3.61-7.15-8.87-7.21-2.4,0-4.12.23-4.92.46v14.08Z"/><path d="m170.59,588.27l-12.59-38.57h5.38l6.01,19c1.66,5.2,3.09,9.9,4.12,14.42h.12c1.09-4.46,2.69-9.33,4.41-14.36l6.52-19.06h5.32l-13.79,38.57h-5.49Z"/><path d="m864.12,588.4l-12.68-38.84h5.42l6.05,19.13c1.67,5.24,3.11,9.96,4.15,14.52h.12c1.09-4.49,2.71-9.39,4.44-14.46l6.57-19.19h5.36l-13.89,38.84h-5.53Z"/><path d="m193.93,570.93c.03.84-.59,1.52-1.57,1.52-.87,0-1.49-.67-1.49-1.52s.65-1.55,1.55-1.55,1.52.67,1.52,1.55Zm-2.75,17.41v-13.59h2.47v13.59h-2.47Z"/><path d="m197.75,578.42c0-1.4-.03-2.56-.11-3.68h2.19l.14,2.25h.05c.67-1.29,2.25-2.55,4.49-2.55,1.88,0,4.8,1.12,4.8,5.79v8.12h-2.47v-7.83c0-2.19-.81-4.02-3.15-4.02-1.63,0-2.89,1.15-3.31,2.53-.11.31-.17.73-.17,1.15v8.17h-2.47v-9.91Z"/><path d="m896.88,581.12c0,5.03-3.48,7.22-6.77,7.22-3.68,0-6.51-2.7-6.51-6.99,0-4.55,2.98-7.22,6.74-7.22s6.54,2.84,6.54,6.99Zm-10.78.14c0,2.98,1.71,5.23,4.13,5.23s4.13-2.22,4.13-5.28c0-2.3-1.15-5.23-4.07-5.23s-4.18,2.7-4.18,5.28Z"/><path d="m911.37,584.32c0,1.4.03,2.64.11,3.71h-2.19l-.14-2.22h-.05c-.65,1.1-2.08,2.53-4.49,2.53-2.14,0-4.69-1.18-4.69-5.95v-7.95h2.47v7.53c0,2.58.79,4.33,3.03,4.33,1.66,0,2.81-1.15,3.26-2.25.14-.37.23-.81.23-1.26v-8.34h2.47v9.89Z"/><path d="m918.46,570.53v3.9h3.54v1.88h-3.54v7.33c0,1.69.48,2.64,1.85,2.64.64,0,1.12-.08,1.43-.17l.11,1.85c-.48.2-1.23.34-2.19.34-1.15,0-2.08-.37-2.67-1.04-.7-.73-.96-1.94-.96-3.54v-7.41h-2.11v-1.88h2.11v-3.26l2.41-.64Z"/><path d="m742.53,529.98v-1.52l1.94-1.88c4.66-4.44,6.77-6.8,6.8-9.55,0-1.85-.9-3.56-3.62-3.56-1.66,0-3.03.84-3.88,1.54l-.79-1.74c1.26-1.07,3.06-1.85,5.17-1.85,3.93,0,5.59,2.7,5.59,5.31,0,3.37-2.44,6.09-6.29,9.8l-1.46,1.35v.05h8.2v2.05h-11.65Z"/><g id="Unifilar_-_Unión_punto_de_conexión"><circle id="Union_punto_de_conexión" cx="676.38" cy="374.42" r="9.73"/></g><g id="Unifilar_-_Unión_punto_de_conexión-2"><circle id="Union_punto_de_conexión-2" cx="676.38" cy="763.45" r="9.73"/></g><g id="Unifilar_-_Terminal_o_punto_de_conexión"><circle id="Terminal" cx="793.57" cy="374.91" r="19.45" fill="none" stroke="#000" stroke-miterlimit="10" stroke-width="5"/></g><g id="Unifilar_-_Terminal_o_punto_de_conexión-2"><circle id="Terminal-2" cx="793.57" cy="763.93" r="19.45" fill="none" stroke="#000" stroke-miterlimit="10" stroke-width="5"/></g><g id="Unifilar_-_Terminal_o_punto_de_conexión-3"><circle id="Terminal-3" cx="267.41" cy="374.91" r="19.45" fill="none" stroke="#000" stroke-miterlimit="10" stroke-width="5"/></g><g id="Unifilar_-_Terminal_o_punto_de_conexión-4"><circle id="Terminal-4" cx="267.41" cy="763.93" r="19.45" fill="none" stroke="#000" stroke-miterlimit="10" stroke-width="5"/></g><path d="m464.52,297.42c2.52-.52,6.12-.8,9.56-.8,5.33,0,8.75.97,11.16,3.15,1.95,1.71,3.03,4.35,3.03,7.32,0,5.09-3.21,8.47-7.27,9.84v.17c2.98,1.03,4.75,3.77,5.67,7.78,1.26,5.38,2.18,9.1,2.98,10.59h-5.15c-.63-1.09-1.49-4.41-2.58-9.21-1.15-5.32-3.21-7.32-7.73-7.5h-4.69v16.71h-4.98v-38.05Zm4.98,17.57h5.09c5.32,0,8.7-2.92,8.7-7.32,0-4.98-3.61-7.15-8.87-7.21-2.4,0-4.12.23-4.92.46v14.08Z"/><path d="m495.55,319.52h-.05l-3.17,1.71-.48-1.88,3.99-2.14h2.11v18.25h-2.39v-15.95Z"/><rect x="384.12" y="355.57" width="194.96" height="37.71" fill="none" stroke="#000" stroke-miterlimit="10" stroke-width="5"/><rect x="579.38" y="549.86" width="193.99" height="37.71" transform="translate(1245.09 -107.67) rotate(90)" fill="none" stroke="#000" stroke-miterlimit="10" stroke-width="5"/><rect id="Base" width="1080" height="1080" opacity="0"/></g></g></svg>