<?xml version="1.0" encoding="UTF-8"?><svg id="Capa_2" xmlns="http://www.w3.org/2000/svg" viewBox="0 0 1080 1080"><g id="Capa_1-2"><g id="Multifilar_-_Interruptor_de_Llave_N.O."><path d="m681.52,889.24v.11l3.39,6.28-3.72.95-4.22-7.89v-4.17h36.13v4.72h-31.57Z"/><path d="m713.09,856.21h-9.84v16.79h-3.22l-23.07-16.12v-5.28h22.46v-5.06h3.83v5.06h9.84v4.62Zm-13.67,0h-12.06c-1.89,0-3.78-.05-5.67-.17v.17c2.11,1.11,3.67,2,5.34,3l12.28,8.84h.11v-11.84Z"/><path d="m681.52,226.67v.11l3.39,6.28-3.72.95-4.22-7.89v-4.17h36.13v4.72h-31.57Z"/><path d="m707.48,207.58c.89-1.39,2.28-4.61,2.28-8,0-6.28-4-8.23-7-8.17-5.06.05-7.23,4.61-7.23,9.34v2.72h-3.67v-2.72c0-3.56-1.83-8.06-6.11-8.06-2.89,0-5.45,1.83-5.45,6.34,0,2.89,1.28,5.67,2.39,7.23l-3.56,1.28c-1.39-1.89-2.78-5.56-2.78-9.45,0-7.11,4.22-10.34,8.61-10.34,3.72,0,6.89,2.22,8.5,6.67h.11c.89-4.45,4.22-8.06,9.28-8.06,5.78,0,10.84,4.5,10.84,13.17,0,4.06-1.28,7.61-2.45,9.39l-3.78-1.34Z"/><line x1="739.92" y1="666.94" x2="739.92" y2="922" fill="none" stroke="#000" stroke-miterlimit="10" stroke-width="5"/><line x1="612.39" y1="411.29" x2="739.92" y2="666.35" fill="none" stroke="#000" stroke-miterlimit="10" stroke-width="5"/><line x1="739.92" y1="158" x2="739.92" y2="411.88" fill="none" stroke="#000" stroke-miterlimit="10" stroke-width="5"/><line x1="510.95" y1="541.04" x2="516.95" y2="541.04" fill="none" stroke="#000" stroke-miterlimit="10" stroke-width="5"/><line x1="528.84" y1="541.04" x2="665.5" y2="541.04" fill="none" stroke="#000" stroke-dasharray="0 0 11.88 11.88" stroke-miterlimit="10" stroke-width="5"/><line x1="671.44" y1="541.04" x2="677.44" y2="541.04" fill="none" stroke="#000" stroke-miterlimit="10" stroke-width="5"/><line x1="370.31" y1="541.04" x2="376.31" y2="541.04" fill="none" stroke="#000" stroke-miterlimit="10" stroke-width="5"/><line x1="386.71" y1="541.04" x2="423.13" y2="541.04" fill="none" stroke="#000" stroke-dasharray="0 0 10.4 10.4" stroke-miterlimit="10" stroke-width="5"/><line x1="428.33" y1="541.04" x2="434.33" y2="541.04" fill="none" stroke="#000" stroke-miterlimit="10" stroke-width="5"/><line x1="510.7" y1="489.81" x2="561.7" y2="541.67" fill="none" stroke="#000" stroke-miterlimit="10" stroke-width="5"/><line x1="510.7" y1="541.67" x2="510.7" y2="489.81" fill="none" stroke="#000" stroke-miterlimit="10" stroke-width="5"/><line x1="561.7" y1="463.39" x2="561.7" y2="514.94" fill="none" stroke="#000" stroke-miterlimit="10" stroke-width="5"/><line x1="433.95" y1="540.92" x2="459.4" y2="540.92" fill="none" stroke="#000" stroke-miterlimit="10" stroke-width="5"/><line x1="433.95" y1="514.83" x2="433.95" y2="566.38" fill="none" stroke="#000" stroke-miterlimit="10" stroke-width="5"/><line x1="459.4" y1="566.38" x2="433.95" y2="566.38" fill="none" stroke="#000" stroke-miterlimit="10" stroke-width="5"/><line x1="459.4" y1="514.83" x2="433.95" y2="514.83" fill="none" stroke="#000" stroke-miterlimit="10" stroke-width="5"/><path d="m374.66,524.48c0-9.55-7.74-17.29-17.29-17.29s-17.29,7.74-17.29,17.29c0,4.62,1.81,8.81,4.76,11.91l-4.76,39.54h34.58l-5.08-39.2c3.14-3.13,5.08-7.46,5.08-12.24Z" fill="none" stroke="#000" stroke-miterlimit="10" stroke-width="5"/><rect id="Base" width="1080" height="1080" opacity="0"/></g></g></svg>