<?xml version="1.0" encoding="UTF-8"?><svg id="Capa_2" xmlns="http://www.w3.org/2000/svg" viewBox="0 0 1080 1080"><g id="Capa_1-2"><g id="Multifilar_-_Varistor_o_Protector_contra_Sobretensiones_ANSI"><line x1="158" y1="539.61" x2="349.44" y2="539.61" fill="none" stroke="#000" stroke-miterlimit="10" stroke-width="5"/><line x1="730.56" y1="539.61" x2="922" y2="539.61" fill="none" stroke="#000" stroke-miterlimit="10" stroke-width="5"/><line x1="347.67" y1="500.62" x2="347.67" y2="578.61" fill="none" stroke="#000" stroke-miterlimit="10" stroke-width="5"/><line x1="425.54" y1="578.49" x2="347.67" y2="500.62" fill="none" stroke="#000" stroke-miterlimit="10" stroke-width="5"/><line x1="423.89" y1="501.26" x2="423.89" y2="579.25" fill="none" stroke="#000" stroke-miterlimit="10" stroke-width="5"/><line x1="501.77" y1="579.13" x2="423.89" y2="501.26" fill="none" stroke="#000" stroke-miterlimit="10" stroke-width="5"/><line x1="501.89" y1="501.26" x2="501.89" y2="579.25" fill="none" stroke="#000" stroke-miterlimit="10" stroke-width="5"/><line x1="579.76" y1="579.13" x2="501.89" y2="501.26" fill="none" stroke="#000" stroke-miterlimit="10" stroke-width="5"/><line x1="578.11" y1="501.26" x2="578.11" y2="579.25" fill="none" stroke="#000" stroke-miterlimit="10" stroke-width="5"/><line x1="730.56" y1="501.26" x2="730.56" y2="579.25" fill="none" stroke="#000" stroke-miterlimit="10" stroke-width="5"/><line x1="655.98" y1="579.13" x2="578.11" y2="501.26" fill="none" stroke="#000" stroke-miterlimit="10" stroke-width="5"/><line x1="654.33" y1="501.26" x2="654.33" y2="579.25" fill="none" stroke="#000" stroke-miterlimit="10" stroke-width="5"/><line x1="732.21" y1="579.13" x2="654.33" y2="501.26" fill="none" stroke="#000" stroke-miterlimit="10" stroke-width="5"/><line x1="424.78" y1="729.93" x2="655.22" y2="348.81" fill="none" stroke="#000" stroke-miterlimit="10" stroke-width="5"/><line x1="349.44" y1="730.81" x2="425.67" y2="730.81" fill="none" stroke="#000" stroke-miterlimit="10" stroke-width="5"/><path d="m598.64,654.71v44.55c0,16.86,7.48,24,17.53,24,11.16,0,18.31-7.37,18.31-24v-44.55h9.82v43.88c0,23.11-12.17,32.6-28.47,32.6-15.41,0-27.02-8.82-27.02-32.15v-44.32h9.82Z"/><rect id="Base" width="1080" height="1080" opacity="0"/></g></g></svg>