<?xml version="1.0" encoding="UTF-8"?><svg id="Capa_2" xmlns="http://www.w3.org/2000/svg" viewBox="0 0 1080 1080"><g id="Capa_1-2"><g id="Multifilar_-_NOR_IEC"><rect x="434.03" y="432.21" width="215.59" height="215.59" fill="none" stroke="#000" stroke-miterlimit="10" stroke-width="5"/><line x1="255.27" y1="468.14" x2="434.93" y2="468.14" fill="none" stroke="#000" stroke-miterlimit="10" stroke-width="5"/><line x1="255.27" y1="612.38" x2="434.93" y2="612.38" fill="none" stroke="#000" stroke-miterlimit="10" stroke-width="5"/><line x1="684.65" y1="540" x2="830.17" y2="540" fill="none" stroke="#000" stroke-miterlimit="10" stroke-width="5"/><path d="m598.08,497.01h-.35l-19.99,10.79-3.01-11.84,25.12-13.45h13.27v114.98h-15.04v-100.48Z"/><circle cx="667.58" cy="540" r="17.07" fill="none" stroke="#000" stroke-miterlimit="10" stroke-width="5"/><line x1="684.65" y1="540" x2="830.17" y2="540" fill="none" stroke="#000" stroke-miterlimit="10" stroke-width="5"/><line x1="469.36" y1="468.14" x2="541.22" y2="504.07" fill="none" stroke="#000" stroke-miterlimit="10" stroke-width="5"/><line x1="469.36" y1="539.1" x2="541.22" y2="504.97" fill="none" stroke="#000" stroke-miterlimit="10" stroke-width="5"/><line x1="469.36" y1="576.83" x2="541.22" y2="576.83" fill="none" stroke="#000" stroke-miterlimit="10" stroke-width="5"/><path d="m919.71,575.78c-8.33-2.2-16.47-4.67-23.6-7.13-1.28-.46-2.56-.92-3.75-.92-14.63-.55-27.17-11.34-27.17-31.19s12.07-32.47,28.72-32.47,27.62,12.99,27.62,31.19c0,15.83-7.31,25.98-17.56,29.54v.36c6.13,1.56,12.81,3.02,18.02,3.94l-2.29,6.68Zm-6.58-40.15c0-12.35-6.4-25.06-19.48-25.06s-20.03,12.44-19.94,25.79c-.09,13.08,7.13,24.88,19.57,24.88s19.85-11.52,19.85-25.61Z"/><path d="m175.06,481.47l-7.47,22.6h-9.59l24.41-71.86h11.2l24.53,71.86h-9.92l-7.67-22.6h-25.48Zm23.56-7.25l-7.03-20.68c-1.61-4.69-2.67-8.96-3.73-13.11h-.22c-1.07,4.27-2.24,8.64-3.62,13.01l-7.04,20.79h21.64Z"/><path d="m173.79,577.39c3.97-.84,10.23-1.46,16.59-1.46,9.08,0,14.92,1.56,19.3,5.11,3.65,2.71,5.84,6.89,5.84,12.42,0,6.78-4.49,12.73-11.89,15.44v.21c6.68,1.67,14.5,7.2,14.5,17.63,0,6.05-2.4,10.64-5.95,14.08-4.9,4.49-12.84,6.57-24.31,6.57-6.26,0-11.05-.42-14.08-.83v-69.17Zm9.08,28.79h8.24c9.6,0,15.23-5.01,15.23-11.79,0-8.24-6.26-11.48-15.44-11.48-4.18,0-6.57.31-8.04.62v22.64Zm0,33.7c1.78.31,4.38.42,7.61.42,9.4,0,18.05-3.44,18.05-13.67,0-9.59-8.24-13.56-18.15-13.56h-7.51v26.81Z"/><rect id="Base" width="1080" height="1080" opacity="0"/></g></g></svg>