<?xml version="1.0" encoding="UTF-8"?><svg id="Capa_2" xmlns="http://www.w3.org/2000/svg" viewBox="0 0 1080 1080"><g id="Capa_1-2"><g id="Multifilar_-_Interruptor_magnetotérmico_unipolar_PIA_ICP_-_2"><line x1="645.25" y1="158" x2="645.25" y2="413.45" fill="none" stroke="#000" stroke-miterlimit="10" stroke-width="5"/><line x1="645.25" y1="666.55" x2="645.25" y2="922" fill="none" stroke="#000" stroke-miterlimit="10" stroke-width="5"/><line x1="518.46" y1="412.57" x2="645.84" y2="666.73" fill="none" stroke="#000" stroke-miterlimit="10" stroke-width="5"/><line x1="559.21" y1="493.87" x2="440.81" y2="553.21" fill="none" stroke="#000" stroke-miterlimit="10" stroke-width="5"/><line x1="515.11" y1="630.53" x2="468.28" y2="654" fill="none" stroke="#000" stroke-miterlimit="10" stroke-width="5"/><polygon points="422.39 562.44 525.29 539.18 502.61 493.92 422.39 562.44"/><line x1="537" y1="675.52" x2="514.85" y2="631.32" fill="none" stroke="#000" stroke-miterlimit="10" stroke-width="5"/><line x1="581.99" y1="653.63" x2="537.79" y2="675.78" fill="none" stroke="#000" stroke-miterlimit="10" stroke-width="5"/><line x1="559.84" y1="609.42" x2="581.99" y2="653.63" fill="none" stroke="#000" stroke-miterlimit="10" stroke-width="5"/><line x1="605.62" y1="585.17" x2="559.31" y2="608.37" fill="none" stroke="#000" stroke-miterlimit="10" stroke-width="5"/><circle cx="645.25" cy="425.81" r="12.36" fill="none" stroke="#000" stroke-miterlimit="10" stroke-width="5"/><path d="m618.95,896.53h-2.08l-2.58-2.66c-6.09-6.4-9.32-9.29-13.1-9.32-2.54,0-4.89,1.23-4.89,4.97,0,2.27,1.16,4.16,2.12,5.32l-2.39,1.08c-1.46-1.73-2.54-4.2-2.54-7.09,0-5.39,3.7-7.67,7.28-7.67,4.62,0,8.36,3.35,13.45,8.63l1.85,2h.08v-11.25h2.81v15.99Z"/><path d="m596.68,186.78v.08l2.38,4.41-2.61.66-2.97-5.54v-2.93h25.36v3.32h-22.16Z"/><rect id="Base" width="1080" height="1080" opacity="0"/></g></g></svg>