<?xml version="1.0" encoding="UTF-8"?><svg id="Capa_2" xmlns="http://www.w3.org/2000/svg" viewBox="0 0 1080 1080"><g id="Capa_1-2"><g id="Multifilar_-_Fusible_tripolar"><rect x="158" y="381.49" width="128.28" height="317.02" fill="none" stroke="#000" stroke-miterlimit="10" stroke-width="5"/><line x1="222.88" y1="222.24" x2="222.88" y2="857.76" fill="none" stroke="#000" stroke-miterlimit="10" stroke-width="5"/><path d="m163.15,258.5v.1l2.98,5.53-3.28.83-3.72-6.94v-3.67h31.79v4.16h-27.78Z" stroke="#000" stroke-miterlimit="10" stroke-width=".25"/><path d="m190.92,826.07h-2.6l-3.22-3.32c-7.6-7.98-11.64-11.59-16.35-11.64-3.17,0-6.11,1.54-6.11,6.2,0,2.84,1.44,5.19,2.64,6.64l-2.98,1.35c-1.83-2.16-3.17-5.24-3.17-8.85,0-6.73,4.62-9.57,9.09-9.57,5.77,0,10.43,4.18,16.78,10.77l2.31,2.5h.1v-14.04h3.51v19.96Z" stroke="#000" stroke-miterlimit="10" stroke-width=".25"/><rect x="475.86" y="381.49" width="128.28" height="317.02" fill="none" stroke="#000" stroke-miterlimit="10" stroke-width="5"/><line x1="540.74" y1="222.24" x2="540.74" y2="857.76" fill="none" stroke="#000" stroke-miterlimit="10" stroke-width="5"/><rect x="793.72" y="381.49" width="128.28" height="317.02" fill="none" stroke="#000" stroke-miterlimit="10" stroke-width="5"/><line x1="858.6" y1="222.24" x2="858.6" y2="857.76" fill="none" stroke="#000" stroke-miterlimit="10" stroke-width="5"/><path d="m502.92,272.1c.76-1.18,1.94-3.92,1.94-6.81,0-5.35-3.4-7-5.96-6.95-4.3.05-6.15,3.92-6.15,7.95v2.32h-3.12v-2.32c0-3.03-1.56-6.86-5.2-6.86-2.46,0-4.64,1.56-4.64,5.39,0,2.46,1.09,4.83,2.03,6.15l-3.03,1.09c-1.18-1.61-2.36-4.73-2.36-8.04,0-6.05,3.6-8.8,7.33-8.8,3.17,0,5.87,1.89,7.24,5.68h.1c.76-3.79,3.59-6.86,7.9-6.86,4.92,0,9.22,3.83,9.22,11.21,0,3.45-1.09,6.48-2.08,7.99l-3.22-1.14Z"/><path d="m508.21,811.21h-8.66v14.77h-2.83l-20.29-14.18v-4.64h19.76v-4.45h3.37v4.45h8.66v4.06Zm-12.03,0h-10.61c-1.66,0-3.33-.05-4.99-.15v.15c1.86.98,3.23,1.76,4.69,2.64l10.81,7.78h.1v-10.42Z"/><path d="m797.85,254.55v11.93l8.03,1.2c-.1-.72-.19-1.39-.19-2.55,0-2.4.53-4.81,1.68-6.73,1.4-2.46,4.09-4.47,8.03-4.47,6.11,0,10.68,4.86,10.68,11.64,0,3.41-.96,6.3-1.92,7.79l-3.22-1.06c.77-1.3,1.73-3.85,1.73-6.68,0-3.99-2.6-7.4-6.78-7.4-4.04.05-6.92,2.74-6.92,8.99,0,1.78.19,3.18.34,4.33l-15-2.02v-14.96h3.56Z"/><path d="m797.7,807.98c-.05.85,0,1.94.19,3.13,1.09,6.53,5.87,9.99,10.94,10.7v-.14c-1.94-1.47-3.55-4.03-3.55-7.44,0-5.45,3.93-9.28,9.95-9.28,5.64,0,10.85,3.84,10.85,10.23s-5.12,10.89-13.12,10.89c-6.06,0-10.85-2.18-13.88-5.21-2.51-2.56-4.08-5.97-4.55-9.86-.19-1.23-.24-2.27-.24-3.03h3.41Zm17.76,1.18c-4.41,0-7.06,2.51-7.06,6.35,0,2.51,1.56,4.83,3.79,5.97.47.29,1.09.47,1.85.47,5.07-.1,8.81-2.41,8.81-6.77,0-3.6-2.99-6.02-7.39-6.02Z"/><rect id="Base" width="1080" height="1080" opacity="0"/></g></g></svg>