<?xml version="1.0" encoding="UTF-8"?><svg id="Capa_2" xmlns="http://www.w3.org/2000/svg" viewBox="0 0 1080 1080"><g id="Capa_1-2"><g id="Multifilar_-_Órgano_motor_de_un_reloj_horario_Contactos_1"><line x1="515.03" y1="666.94" x2="515.03" y2="922" fill="none" stroke="#000" stroke-miterlimit="10" stroke-width="5"/><line x1="387.5" y1="411.29" x2="515.03" y2="666.35" fill="none" stroke="#000" stroke-miterlimit="10" stroke-width="5"/><line x1="515.03" y1="158" x2="515.03" y2="411.88" fill="none" stroke="#000" stroke-miterlimit="10" stroke-width="5"/><line x1="768.05" y1="413.36" x2="896.6" y2="413.36" fill="none" stroke="#000" stroke-miterlimit="10" stroke-width="5"/><line x1="768.56" y1="158" x2="768.56" y2="412.72" fill="none" stroke="#000" stroke-miterlimit="10" stroke-width="5"/><line x1="768.56" y1="667.6" x2="768.56" y2="922" fill="none" stroke="#000" stroke-miterlimit="10" stroke-width="5"/><line x1="896.6" y1="362.44" x2="768.56" y2="667.6" fill="none" stroke="#000" stroke-miterlimit="10" stroke-width="5"/><line x1="336.13" y1="540" x2="342.13" y2="540.01" fill="none" stroke="#000" stroke-miterlimit="10" stroke-width="5"/><line x1="354.27" y1="540.02" x2="809.21" y2="540.63" fill="none" stroke="#000" stroke-dasharray="0 0 12.13 12.13" stroke-miterlimit="10" stroke-width="5"/><line x1="815.28" y1="540.64" x2="821.28" y2="540.65" fill="none" stroke="#000" stroke-miterlimit="10" stroke-width="5"/><circle cx="259.76" cy="540" r="76.37" fill="none" stroke="#000" stroke-miterlimit="10" stroke-width="5"/><line x1="259.76" y1="479.02" x2="259.76" y2="540" fill="none" stroke="#000" stroke-miterlimit="10" stroke-width="5"/><line x1="259.76" y1="539.43" x2="214.17" y2="539.43" fill="none" stroke="#000" stroke-miterlimit="10" stroke-width="5"/><path d="m466.94,211.09v.07l2.31,4.28-2.54.64-2.88-5.38v-2.84h24.62v3.22h-21.52Z"/><path d="m484.63,198.08c.61-.95,1.55-3.14,1.55-5.45,0-4.28-2.73-5.61-4.77-5.57-3.45.04-4.92,3.14-4.92,6.36v1.86h-2.5v-1.86c0-2.42-1.25-5.49-4.17-5.49-1.97,0-3.71,1.25-3.71,4.32,0,1.97.87,3.86,1.63,4.93l-2.42.87c-.95-1.29-1.89-3.79-1.89-6.44,0-4.85,2.88-7.04,5.87-7.04,2.54,0,4.7,1.51,5.8,4.55h.08c.61-3.03,2.88-5.49,6.32-5.49,3.94,0,7.39,3.07,7.39,8.98,0,2.76-.87,5.19-1.67,6.4l-2.58-.91Z"/><path d="m466.41,891.05v.08l2.41,4.46-2.64.67-3-5.6v-2.96h25.64v3.35h-22.4Z"/><path d="m488.81,867.61h-6.98v11.91h-2.29l-16.37-11.44v-3.75h15.94v-3.59h2.72v3.59h6.98v3.28Zm-9.7,0h-8.56c-1.34,0-2.68-.04-4.02-.12v.12c1.5.79,2.6,1.42,3.79,2.13l8.72,6.27h.08v-8.4Z"/><path d="m743.43,214.01h-2.08l-2.58-2.66c-6.08-6.39-9.32-9.28-13.09-9.32-2.54,0-4.89,1.23-4.89,4.97,0,2.27,1.16,4.16,2.12,5.32l-2.39,1.08c-1.46-1.73-2.54-4.2-2.54-7.09,0-5.39,3.7-7.66,7.28-7.66,4.62,0,8.36,3.35,13.44,8.63l1.85,2h.08v-11.25h2.81v15.98Z"/><path d="m721.56,186.89v.08l2.35,4.35-2.58.65-2.93-5.47v-2.89h25.03v3.27h-21.88Z"/><path d="m743.43,896.39h-2.08l-2.58-2.66c-6.08-6.39-9.32-9.28-13.09-9.32-2.54,0-4.89,1.23-4.89,4.97,0,2.27,1.16,4.16,2.12,5.32l-2.39,1.08c-1.46-1.73-2.54-4.2-2.54-7.09,0-5.39,3.7-7.66,7.28-7.66,4.62,0,8.36,3.35,13.44,8.63l1.85,2h.08v-11.24h2.81v15.98Z"/><path d="m743.43,876.62h-2.08l-2.58-2.66c-6.08-6.39-9.32-9.28-13.09-9.32-2.54,0-4.89,1.23-4.89,4.97,0,2.27,1.16,4.16,2.12,5.32l-2.39,1.08c-1.46-1.73-2.54-4.2-2.54-7.09,0-5.39,3.7-7.66,7.28-7.66,4.62,0,8.36,3.35,13.44,8.63l1.85,2h.08v-11.25h2.81v15.98Z"/><rect id="Base" width="1080" height="1080" opacity="0"/></g></g></svg>