<?xml version="1.0" encoding="UTF-8"?><svg id="Capa_2" xmlns="http://www.w3.org/2000/svg" viewBox="0 0 1080 1080"><g id="Capa_1-2"><g id="Multifilar_-_Timbre_-_1"><path d="m921.11,539.11c0-210.48-170.63-381.11-381.11-381.11s-381.11,170.63-381.11,381.11h762.23Z" fill="none" stroke="#000" stroke-miterlimit="10" stroke-width="5"/><line x1="385.78" y1="537.34" x2="385.78" y2="920.23" fill="none" stroke="#000" stroke-miterlimit="10" stroke-width="5"/><line x1="158.89" y1="920.23" x2="385.78" y2="920.23" fill="none" stroke="#000" stroke-miterlimit="10" stroke-width="5"/><line x1="694.22" y1="537.34" x2="694.22" y2="920.23" fill="none" stroke="#000" stroke-miterlimit="10" stroke-width="5"/><line x1="921.11" y1="920.23" x2="694.22" y2="920.23" fill="none" stroke="#000" stroke-miterlimit="10" stroke-width="5"/><line x1="538.23" y1="539.11" x2="538.23" y2="545.11" fill="none" stroke="#000" stroke-miterlimit="10" stroke-width="5"/><line x1="538.23" y1="557.08" x2="538.23" y2="910.02" fill="none" stroke="#000" stroke-dasharray="0 0 11.96 11.96" stroke-miterlimit="10" stroke-width="5"/><line x1="538.23" y1="916" x2="538.23" y2="922" fill="none" stroke="#000" stroke-miterlimit="10" stroke-width="5"/><path d="m248.37,778.84h-.23s-13.28,7.17-13.28,7.17l-2-7.88,16.69-8.93h8.82s0,76.4,0,76.4h-9.99s0-66.76,0-66.76Z"/><path d="m797.52,845.6v-6.24s7.98-7.75,7.98-7.75c19.18-18.26,27.86-27.97,27.97-39.3,0-7.63-3.7-14.68-14.91-14.68-6.82,0-12.48,3.47-15.95,6.36l-3.24-7.17c5.2-4.39,12.6-7.63,21.27-7.63,16.18,0,23,11.1,23,21.84,0,13.87-10.06,25.09-25.89,40.34l-6.01,5.55v.23h33.75s0,8.44,0,8.44h-47.97Z"/><rect id="Base" width="1080" height="1080" opacity="0"/></g></g></svg>