<?xml version="1.0" encoding="UTF-8"?><svg id="Capa_2" xmlns="http://www.w3.org/2000/svg" viewBox="0 0 1080 1080"><g id="Capa_1-2"><g id="Multifilar_-_Conmutador_rotativo"><line x1="292.8" y1="426.11" x2="292.8" y2="653.25" fill="none" stroke="#000" stroke-miterlimit="10" stroke-width="5"/><line x1="445.23" y1="539.8" x2="451.23" y2="539.8" fill="none" stroke="#000" stroke-miterlimit="10" stroke-width="5"/><line x1="462.83" y1="539.8" x2="596.23" y2="539.8" fill="none" stroke="#000" stroke-dasharray="0 0 11.6 11.6" stroke-miterlimit="10" stroke-width="5"/><line x1="602.03" y1="539.8" x2="608.03" y2="539.8" fill="none" stroke="#000" stroke-miterlimit="10" stroke-width="5"/><line x1="292.8" y1="539.8" x2="298.8" y2="539.8" fill="none" stroke="#000" stroke-miterlimit="10" stroke-width="5"/><line x1="311.64" y1="539.8" x2="356.59" y2="539.8" fill="none" stroke="#000" stroke-dasharray="0 0 12.84 12.84" stroke-miterlimit="10" stroke-width="5"/><line x1="363.01" y1="539.8" x2="369.01" y2="539.8" fill="none" stroke="#000" stroke-miterlimit="10" stroke-width="5"/><line x1="369.01" y1="539.8" x2="408" y2="617.79" fill="none" stroke="#000" stroke-miterlimit="10" stroke-width="5"/><line x1="445.23" y1="539.8" x2="408" y2="617.79" fill="none" stroke="#000" stroke-miterlimit="10" stroke-width="5"/><line x1="292.8" y1="426.11" x2="369.22" y2="426.11" fill="none" stroke="#000" stroke-miterlimit="10" stroke-width="5"/><line x1="215.42" y1="653.25" x2="293.75" y2="653.25" fill="none" stroke="#000" stroke-miterlimit="10" stroke-width="5"/><line x1="675.51" y1="349.8" x2="675.51" y2="158" fill="none" stroke="#000" stroke-miterlimit="10" stroke-width="5"/><line x1="523.01" y1="771.27" x2="675.51" y2="350.68" fill="none" stroke="#000" stroke-miterlimit="10" stroke-width="5"/><line x1="864.58" y1="922" x2="864.58" y2="730.95" fill="none" stroke="#000" stroke-miterlimit="10" stroke-width="5"/><line x1="484.66" y1="921.04" x2="484.66" y2="730" fill="none" stroke="#000" stroke-miterlimit="10" stroke-width="5"/><line x1="864.58" y1="730.95" x2="750.77" y2="730.95" fill="none" stroke="#000" stroke-miterlimit="10" stroke-width="5"/><line x1="597.52" y1="730" x2="484.66" y2="730" fill="none" stroke="#000" stroke-miterlimit="10" stroke-width="5"/><rect id="Base" width="1080" height="1080" opacity="0"/></g></g></svg>