<?xml version="1.0" encoding="UTF-8"?><svg id="Capa_2" xmlns="http://www.w3.org/2000/svg" viewBox="0 0 1080 1080"><g id="Capa_1-2"><g id="Multifilar_-_Sensor_tirador"><line x1="501.98" y1="666.94" x2="501.98" y2="922" fill="none" stroke="#000" stroke-miterlimit="10" stroke-width="5"/><line x1="374.45" y1="411.29" x2="501.98" y2="666.35" fill="none" stroke="#000" stroke-miterlimit="10" stroke-width="5"/><line x1="501.98" y1="158" x2="501.98" y2="411.88" fill="none" stroke="#000" stroke-miterlimit="10" stroke-width="5"/><line x1="755" y1="413.36" x2="883.56" y2="413.36" fill="none" stroke="#000" stroke-miterlimit="10" stroke-width="5"/><line x1="755.51" y1="158" x2="755.51" y2="412.72" fill="none" stroke="#000" stroke-miterlimit="10" stroke-width="5"/><line x1="755.51" y1="667.6" x2="755.51" y2="922" fill="none" stroke="#000" stroke-miterlimit="10" stroke-width="5"/><line x1="883.56" y1="362.44" x2="755.51" y2="667.6" fill="none" stroke="#000" stroke-miterlimit="10" stroke-width="5"/><line x1="246.72" y1="540" x2="252.72" y2="540.01" fill="none" stroke="#000" stroke-miterlimit="10" stroke-width="5"/><line x1="264.93" y1="540.02" x2="796.12" y2="540.63" fill="none" stroke="#000" stroke-dasharray="0 0 12.21 12.21" stroke-miterlimit="10" stroke-width="5"/><line x1="802.23" y1="540.64" x2="808.23" y2="540.65" fill="none" stroke="#000" stroke-miterlimit="10" stroke-width="5"/><line x1="246.72" y1="513.91" x2="246.72" y2="564.82" fill="none" stroke="#000" stroke-miterlimit="10" stroke-width="5"/><line x1="196.44" y1="564.82" x2="246.72" y2="564.82" fill="none" stroke="#000" stroke-miterlimit="10" stroke-width="5"/><line x1="196.44" y1="513.91" x2="246.72" y2="513.91" fill="none" stroke="#000" stroke-miterlimit="10" stroke-width="5"/><path d="m453.89,211.09v.07l2.31,4.28-2.54.64-2.88-5.38v-2.84h24.62v3.22h-21.52Z"/><path d="m471.58,198.08c.61-.95,1.55-3.14,1.55-5.45,0-4.28-2.73-5.61-4.77-5.57-3.45.04-4.92,3.14-4.92,6.36v1.86h-2.5v-1.86c0-2.42-1.25-5.49-4.17-5.49-1.97,0-3.71,1.25-3.71,4.32,0,1.97.87,3.86,1.63,4.93l-2.42.87c-.95-1.29-1.89-3.79-1.89-6.44,0-4.85,2.88-7.04,5.87-7.04,2.54,0,4.7,1.51,5.8,4.55h.08c.61-3.03,2.88-5.49,6.32-5.49,3.94,0,7.39,3.07,7.39,8.98,0,2.76-.87,5.19-1.67,6.4l-2.58-.91Z"/><path d="m453.58,891.09v.08l2.39,4.43-2.62.67-2.98-5.56v-2.94h25.46v3.33h-22.25Z"/><path d="m475.82,867.82h-6.93v11.83h-2.27l-16.25-11.36v-3.72h15.82v-3.56h2.7v3.56h6.93v3.25Zm-9.63,0h-8.5c-1.33,0-2.66-.04-4-.12v.12c1.49.78,2.58,1.41,3.76,2.11l8.65,6.23h.08v-8.34Z"/><path d="m730.39,214.01h-2.08l-2.58-2.66c-6.08-6.39-9.32-9.28-13.09-9.32-2.54,0-4.89,1.23-4.89,4.97,0,2.27,1.16,4.16,2.12,5.32l-2.39,1.08c-1.46-1.73-2.54-4.2-2.54-7.09,0-5.39,3.7-7.66,7.28-7.66,4.62,0,8.36,3.35,13.44,8.63l1.85,2h.08v-11.25h2.81v15.98Z"/><path d="m708.51,186.89v.08l2.35,4.35-2.58.65-2.93-5.47v-2.89h25.03v3.27h-21.88Z"/><path d="m730.39,896.39h-2.08l-2.58-2.66c-6.08-6.39-9.32-9.28-13.09-9.32-2.54,0-4.89,1.23-4.89,4.97,0,2.27,1.16,4.16,2.12,5.32l-2.39,1.08c-1.46-1.73-2.54-4.2-2.54-7.09,0-5.39,3.7-7.66,7.28-7.66,4.62,0,8.36,3.35,13.44,8.63l1.85,2h.08v-11.24h2.81v15.98Z"/><path d="m730.39,876.62h-2.08l-2.58-2.66c-6.08-6.39-9.32-9.28-13.09-9.32-2.54,0-4.89,1.23-4.89,4.97,0,2.27,1.16,4.16,2.12,5.32l-2.39,1.08c-1.46-1.73-2.54-4.2-2.54-7.09,0-5.39,3.7-7.66,7.28-7.66,4.62,0,8.36,3.35,13.44,8.63l1.85,2h.08v-11.25h2.81v15.98Z"/><rect id="Base" width="1080" height="1080" opacity="0"/></g></g></svg>