<?xml version="1.0" encoding="UTF-8"?><svg id="Capa_2" xmlns="http://www.w3.org/2000/svg" viewBox="0 0 1080 1080"><g id="Capa_1-2"><g id="Multifilar_-_SI_IEC"><rect x="433.83" y="432.16" width="215.67" height="215.67" fill="none" stroke="#000" stroke-miterlimit="10" stroke-width="5"/><line x1="255.01" y1="540" x2="434.73" y2="540" fill="none" stroke="#000" stroke-miterlimit="10" stroke-width="5"/><line x1="648.61" y1="540" x2="830.13" y2="540" fill="none" stroke="#000" stroke-miterlimit="10" stroke-width="5"/><path d="m919.71,575.79c-8.33-2.2-16.47-4.67-23.61-7.14-1.28-.46-2.56-.92-3.75-.92-14.64-.55-27.18-11.35-27.18-31.2s12.08-32.48,28.73-32.48,27.63,12.99,27.63,31.2c0,15.83-7.32,25.99-17.57,29.56v.37c6.13,1.56,12.81,3.02,18.03,3.94l-2.29,6.68Zm-6.59-40.17c0-12.35-6.41-25.07-19.49-25.07s-20.04,12.44-19.95,25.8c-.09,13.09,7.14,24.89,19.58,24.89s19.86-11.53,19.86-25.62Z"/><path d="m175.07,553.33l-7.47,22.61h-9.6l24.42-71.89h11.2l24.54,71.89h-9.93l-7.68-22.61h-25.49Zm23.57-7.26l-7.03-20.69c-1.61-4.69-2.67-8.96-3.73-13.12h-.22c-1.07,4.27-2.24,8.64-3.62,13.01l-7.04,20.8h21.65Z"/><path d="m541.98,499.68h-.33l-18.75,10.12-2.82-11.1,23.56-12.62h12.45v107.84h-14.1v-94.23Z"/><rect id="Base" width="1080" height="1080" opacity="0"/></g></g></svg>