<?xml version="1.0" encoding="UTF-8"?><svg id="Capa_2" xmlns="http://www.w3.org/2000/svg" viewBox="0 0 1080 1080"><g id="Capa_1-2"><g id="Multifilar_-_Interruptor_Bipolar"><line x1="412.47" y1="411.29" x2="540" y2="666.35" fill="none" stroke="#000" stroke-miterlimit="10" stroke-width="5"/><line x1="540" y1="666.94" x2="540" y2="922" fill="none" stroke="#000" stroke-miterlimit="10" stroke-width="5"/><line x1="284.94" y1="463.84" x2="284.94" y2="616.16" fill="none" stroke="#000" stroke-miterlimit="10" stroke-width="5"/><line x1="386.49" y1="538.82" x2="392.49" y2="538.82" fill="none" stroke="#000" stroke-miterlimit="10" stroke-width="5"/><line x1="403.51" y1="538.82" x2="464.13" y2="538.82" fill="none" stroke="#000" stroke-dasharray="0 0 11.02 11.02" stroke-miterlimit="10" stroke-width="5"/><line x1="469.64" y1="538.82" x2="475.64" y2="538.82" fill="none" stroke="#000" stroke-miterlimit="10" stroke-width="5"/><line x1="284.94" y1="538.82" x2="290.94" y2="538.82" fill="none" stroke="#000" stroke-miterlimit="10" stroke-width="5"/><line x1="303.87" y1="538.82" x2="323.25" y2="538.82" fill="none" stroke="#000" stroke-dasharray="0 0 12.93 12.93" stroke-miterlimit="10" stroke-width="5"/><line x1="329.72" y1="538.82" x2="335.72" y2="538.82" fill="none" stroke="#000" stroke-miterlimit="10" stroke-width="5"/><line x1="335.72" y1="538.82" x2="361.69" y2="590.78" fill="none" stroke="#000" stroke-miterlimit="10" stroke-width="5"/><line x1="540" y1="158" x2="540" y2="411.88" fill="none" stroke="#000" stroke-miterlimit="10" stroke-width="5"/><line x1="386.49" y1="538.82" x2="361.69" y2="590.78" fill="none" stroke="#000" stroke-miterlimit="10" stroke-width="5"/><line x1="667.53" y1="411.29" x2="795.06" y2="666.35" fill="none" stroke="#000" stroke-miterlimit="10" stroke-width="5"/><line x1="795.06" y1="666.94" x2="795.06" y2="922" fill="none" stroke="#000" stroke-miterlimit="10" stroke-width="5"/><line x1="795.06" y1="158" x2="795.06" y2="411.88" fill="none" stroke="#000" stroke-miterlimit="10" stroke-width="5"/><line x1="475.05" y1="538.82" x2="481.05" y2="538.82" fill="none" stroke="#000" stroke-miterlimit="10" stroke-width="5"/><line x1="492.66" y1="538.82" x2="718.9" y2="538.82" fill="none" stroke="#000" stroke-dasharray="0 0 11.6 11.6" stroke-miterlimit="10" stroke-width="5"/><line x1="724.7" y1="538.82" x2="730.7" y2="538.82" fill="none" stroke="#000" stroke-miterlimit="10" stroke-width="5"/><rect id="Base" width="1080" height="1080" opacity="0"/></g></g></svg>