<?xml version="1.0" encoding="UTF-8"?><svg id="Capa_2" xmlns="http://www.w3.org/2000/svg" viewBox="0 0 1080 1080"><g id="Capa_1-2"><g id="Multifilar_-_Interfono"><rect x="369.12" y="370.05" width="423.26" height="338.79" fill="none" stroke="#000" stroke-miterlimit="10" stroke-width="5"/><rect x="538.04" y="455" width="84.45" height="168.9" fill="none" stroke="#000" stroke-miterlimit="10" stroke-width="5"/><line x1="622.49" y1="454.62" x2="793.36" y2="370.17" fill="none" stroke="#000" stroke-miterlimit="10" stroke-width="5"/><line x1="622.49" y1="623.53" x2="793.36" y2="709.95" fill="none" stroke="#000" stroke-miterlimit="10" stroke-width="5"/><polygon points="751.13 539.45 751.13 580.99 707.92 560.22 664.71 539.45 707.92 518.68 751.13 497.91 751.13 539.45"/><line x1="750.15" y1="539.45" x2="836.57" y2="539.45" fill="none" stroke="#000" stroke-miterlimit="10" stroke-width="5"/><polygon points="835.58 539.45 835.58 497.91 878.79 518.68 922 539.45 878.79 560.22 835.58 580.99 835.58 539.45"/><line x1="158" y1="624.88" x2="369.12" y2="624.88" fill="none" stroke="#000" stroke-miterlimit="10" stroke-width="5"/><line x1="158" y1="455.97" x2="369.12" y2="455.97" fill="none" stroke="#000" stroke-miterlimit="10" stroke-width="5"/><path d="m206.81,376.12h-.13l-7.26,3.92-1.09-4.31,9.13-4.88h4.82v41.78h-5.46v-36.51Z"/><path d="m198.32,582.44v-3.47l4.44-4.31c10.68-10.16,15.5-15.57,15.57-21.87,0-4.25-2.06-8.17-8.3-8.17-3.8,0-6.95,1.93-8.88,3.54l-1.8-3.99c2.9-2.44,7.01-4.25,11.84-4.25,9.01,0,12.8,6.18,12.8,12.16,0,7.72-5.6,13.96-14.41,22.45l-3.35,3.09v.13h18.79v4.7h-26.7Z"/><rect id="Base" width="1080" height="1080" opacity="0"/></g></g></svg>