<?xml version="1.0" encoding="UTF-8"?><svg id="Capa_2" xmlns="http://www.w3.org/2000/svg" viewBox="0 0 1080 1080"><g id="Capa_1-2"><g id="Multifilar_-_Electroválvula_de_gas_con_rearme_manual_"><rect x="158" y="471.12" width="277.13" height="139.37" fill="none" stroke="#000" stroke-miterlimit="10" stroke-width="5"/><polygon points="818.09 540.91 922 366.83 714.19 366.83 818.09 540.91" fill="none" stroke="#000" stroke-miterlimit="10" stroke-width="5"/><polygon points="818.09 540.83 714.19 714.91 922 714.91 818.09 540.83" fill="none" stroke="#000" stroke-miterlimit="10" stroke-width="5"/><line x1="818.09" y1="366.83" x2="818.09" y2="192.78" fill="none" stroke="#000" stroke-miterlimit="10" stroke-width="5"/><line x1="818.09" y1="714.91" x2="818.09" y2="887.22" fill="none" stroke="#000" stroke-miterlimit="10" stroke-width="5"/><line x1="296.57" y1="471.12" x2="296.57" y2="192.78" fill="none" stroke="#000" stroke-miterlimit="10" stroke-width="5"/><line x1="296.57" y1="610.49" x2="296.57" y2="887.22" fill="none" stroke="#000" stroke-miterlimit="10" stroke-width="5"/><line x1="436.94" y1="540.87" x2="442.94" y2="540.87" fill="none" stroke="#000" stroke-miterlimit="10" stroke-width="5"/><line x1="454.85" y1="540.87" x2="806.14" y2="540.87" fill="none" stroke="#000" stroke-dasharray="0 0 11.91 11.91" stroke-miterlimit="10" stroke-width="5"/><line x1="812.09" y1="540.87" x2="818.09" y2="540.87" fill="none" stroke="#000" stroke-miterlimit="10" stroke-width="5"/><line x1="574.43" y1="469.51" x2="644.05" y2="540.87" fill="none" stroke="#000" stroke-miterlimit="10" stroke-width="5"/><line x1="574.43" y1="545.22" x2="574.43" y2="468.64" fill="none" stroke="#000" stroke-miterlimit="10" stroke-width="5"/><line x1="644.05" y1="434.7" x2="644.05" y2="505.19" fill="none" stroke="#000" stroke-miterlimit="10" stroke-width="5"/><path d="m251.08,265.35l10.95,3.62v4.65l-34.81-11.83v-5.42l34.81-11.88v4.8l-10.95,3.72v12.34Zm-3.51-11.41l-10.02,3.41c-2.27.77-4.34,1.29-6.35,1.81v.1c2.07.52,4.18,1.08,6.3,1.76l10.07,3.41v-10.48Z"/><path d="m232.69,231.11v.1l3.15,5.84-3.46.88-3.93-7.33v-3.87h33.57v4.39h-29.33Z"/><path d="m251.08,845.01l10.95,3.62v4.65l-34.81-11.83v-5.42l34.81-11.88v4.8l-10.95,3.72v12.34Zm-3.51-11.41l-10.02,3.41c-2.27.77-4.34,1.29-6.35,1.81v.1c2.07.52,4.18,1.08,6.3,1.76l10.07,3.41v-10.48Z"/><path d="m262.02,820.64h-2.79l-3.46-3.56c-8.16-8.57-12.5-12.45-17.56-12.5-3.41,0-6.56,1.65-6.56,6.66,0,3.05,1.55,5.58,2.84,7.13l-3.2,1.45c-1.96-2.32-3.41-5.63-3.41-9.5,0-7.23,4.96-10.28,9.76-10.28,6.2,0,11.21,4.49,18.02,11.57l2.48,2.69h.1v-15.08h3.77v21.43Z"/><rect id="Base" width="1080" height="1080" opacity="0"/></g></g></svg>