<?xml version="1.0" encoding="UTF-8"?><svg id="Capa_2" xmlns="http://www.w3.org/2000/svg" viewBox="0 0 1080 1080"><g id="Capa_1-2"><g id="Multifilar_-_Interruptor_magnetotérmico_tripolar_PIA_-_1"><line x1="619.78" y1="444.98" x2="619.78" y2="477.37" fill="none" stroke="#000" stroke-miterlimit="10" stroke-width="5"/><line x1="540.28" y1="285.6" x2="619.78" y2="444.61" fill="none" stroke="#000" stroke-miterlimit="10" stroke-width="5"/><line x1="619.78" y1="158.74" x2="619.78" y2="285.97" fill="none" stroke="#000" stroke-miterlimit="10" stroke-width="5"/><line x1="620.15" y1="795.24" x2="620.15" y2="922" fill="none" stroke="#000" stroke-miterlimit="10" stroke-width="5"/><rect x="540.46" y="477.55" width="158.45" height="158.45" fill="none" stroke="#000" stroke-miterlimit="10" stroke-width="5"/><rect x="541.2" y="636.74" width="157.9" height="157.9" fill="none" stroke="#000" stroke-miterlimit="10" stroke-width="5"/><line x1="620.15" y1="477.37" x2="620.15" y2="525.22" fill="none" stroke="#000" stroke-miterlimit="10" stroke-width="5"/><line x1="667.26" y1="524.11" x2="619.78" y2="524.11" fill="none" stroke="#000" stroke-miterlimit="10" stroke-width="5"/><line x1="620.52" y1="588.16" x2="667.26" y2="588.16" fill="none" stroke="#000" stroke-miterlimit="10" stroke-width="5"/><line x1="667.26" y1="524.11" x2="667.26" y2="588.16" fill="none" stroke="#000" stroke-miterlimit="10" stroke-width="5"/><line x1="619.41" y1="588.53" x2="619.41" y2="636.38" fill="none" stroke="#000" stroke-miterlimit="10" stroke-width="5"/><line x1="603.58" y1="667.29" x2="667.83" y2="715.14" fill="none" stroke="#000" stroke-miterlimit="10" stroke-width="5"/><line x1="603.58" y1="762.99" x2="667.83" y2="715.14" fill="none" stroke="#000" stroke-miterlimit="10" stroke-width="5"/><circle cx="619.78" cy="295.17" r="8.1" fill="none" stroke="#000" stroke-miterlimit="10" stroke-width="5"/><line x1="460.77" y1="444.24" x2="460.77" y2="476.63" fill="none" stroke="#000" stroke-miterlimit="10" stroke-width="5"/><line x1="381.27" y1="284.87" x2="460.77" y2="443.88" fill="none" stroke="#000" stroke-miterlimit="10" stroke-width="5"/><line x1="333.79" y1="332.72" x2="333.79" y2="396.03" fill="none" stroke="#000" stroke-miterlimit="10" stroke-width="5"/><line x1="269.74" y1="333.09" x2="269.74" y2="396.39" fill="none" stroke="#000" stroke-miterlimit="10" stroke-width="5"/><line x1="334.16" y1="333.45" x2="270.85" y2="333.45" fill="none" stroke="#000" stroke-miterlimit="10" stroke-width="5"/><line x1="333.42" y1="396.76" x2="270.11" y2="396.76" fill="none" stroke="#000" stroke-miterlimit="10" stroke-width="5"/><line x1="460.77" y1="158" x2="460.77" y2="285.24" fill="none" stroke="#000" stroke-miterlimit="10" stroke-width="5"/><line x1="461.14" y1="794.65" x2="461.14" y2="921.41" fill="none" stroke="#000" stroke-miterlimit="10" stroke-width="5"/><line x1="221.89" y1="332.72" x2="221.89" y2="396.76" fill="none" stroke="#000" stroke-miterlimit="10" stroke-width="5"/><rect x="381.64" y="477.55" width="158.45" height="158.45" fill="none" stroke="#000" stroke-miterlimit="10" stroke-width="5"/><rect x="381.64" y="636.74" width="158.27" height="158.27" fill="none" stroke="#000" stroke-miterlimit="10" stroke-width="5"/><line x1="461.14" y1="476.27" x2="461.14" y2="524.11" fill="none" stroke="#000" stroke-miterlimit="10" stroke-width="5"/><line x1="508.25" y1="524.11" x2="461.14" y2="524.11" fill="none" stroke="#000" stroke-miterlimit="10" stroke-width="5"/><line x1="461.51" y1="588.16" x2="508.62" y2="588.16" fill="none" stroke="#000" stroke-miterlimit="10" stroke-width="5"/><line x1="508.25" y1="524.85" x2="508.25" y2="588.16" fill="none" stroke="#000" stroke-miterlimit="10" stroke-width="5"/><line x1="461.14" y1="588.53" x2="461.14" y2="636.38" fill="none" stroke="#000" stroke-miterlimit="10" stroke-width="5"/><line x1="413.29" y1="666.56" x2="413.29" y2="763.36" fill="none" stroke="#000" stroke-miterlimit="10" stroke-width="5"/><line x1="572.3" y1="667.29" x2="572.3" y2="764.1" fill="none" stroke="#000" stroke-miterlimit="10" stroke-width="5"/><line x1="778.79" y1="444.98" x2="778.79" y2="477.37" fill="none" stroke="#000" stroke-miterlimit="10" stroke-width="5"/><line x1="699.28" y1="285.6" x2="778.79" y2="444.61" fill="none" stroke="#000" stroke-miterlimit="10" stroke-width="5"/><line x1="778.79" y1="158.74" x2="778.79" y2="285.97" fill="none" stroke="#000" stroke-miterlimit="10" stroke-width="5"/><line x1="779.15" y1="795.24" x2="779.15" y2="922" fill="none" stroke="#000" stroke-miterlimit="10" stroke-width="5"/><rect x="699.47" y="477.55" width="158.45" height="158.45" fill="none" stroke="#000" stroke-miterlimit="10" stroke-width="5"/><rect x="700.2" y="636.74" width="157.9" height="157.9" fill="none" stroke="#000" stroke-miterlimit="10" stroke-width="5"/><line x1="779.15" y1="477.37" x2="779.15" y2="525.22" fill="none" stroke="#000" stroke-miterlimit="10" stroke-width="5"/><line x1="826.27" y1="524.11" x2="778.79" y2="524.11" fill="none" stroke="#000" stroke-miterlimit="10" stroke-width="5"/><line x1="779.52" y1="588.16" x2="826.27" y2="588.16" fill="none" stroke="#000" stroke-miterlimit="10" stroke-width="5"/><line x1="826.27" y1="524.11" x2="826.27" y2="588.16" fill="none" stroke="#000" stroke-miterlimit="10" stroke-width="5"/><line x1="778.42" y1="588.53" x2="778.42" y2="636.38" fill="none" stroke="#000" stroke-miterlimit="10" stroke-width="5"/><line x1="762.59" y1="667.29" x2="826.84" y2="715.14" fill="none" stroke="#000" stroke-miterlimit="10" stroke-width="5"/><line x1="762.59" y1="762.99" x2="826.84" y2="715.14" fill="none" stroke="#000" stroke-miterlimit="10" stroke-width="5"/><circle cx="778.79" cy="295.17" r="8.1" fill="none" stroke="#000" stroke-miterlimit="10" stroke-width="5"/><line x1="731.31" y1="667.29" x2="731.31" y2="764.1" fill="none" stroke="#000" stroke-miterlimit="10" stroke-width="5"/><line x1="444.58" y1="667.29" x2="508.99" y2="715.14" fill="none" stroke="#000" stroke-miterlimit="10" stroke-width="5"/><line x1="444.58" y1="762.99" x2="508.99" y2="715.14" fill="none" stroke="#000" stroke-miterlimit="10" stroke-width="5"/><line x1="302.13" y1="333.45" x2="302.13" y2="396.76" fill="none" stroke="#000" stroke-miterlimit="10" stroke-width="5"/><line x1="269.74" y1="364.37" x2="333.79" y2="364.37" fill="none" stroke="#000" stroke-miterlimit="10" stroke-width="5"/><circle cx="460.77" cy="294.44" r="8.1" fill="none" stroke="#000" stroke-miterlimit="10" stroke-width="5"/><path d="m430.6,176.44v.05l1.49,2.77-1.64.42-1.86-3.48v-1.84h15.91v2.08h-13.91Z"/><path d="m444.51,906.42h-1.3l-1.61-1.66c-3.8-4-5.83-5.8-8.19-5.83-1.59,0-3.06.77-3.06,3.11,0,1.42.72,2.6,1.32,3.32l-1.49.67c-.91-1.08-1.59-2.62-1.59-4.43,0-3.37,2.31-4.79,4.55-4.79,2.89,0,5.22,2.09,8.4,5.39l1.16,1.25h.05v-7.03h1.76v9.99Z"/><path d="m600.9,183.34c.38-.59.96-1.95.96-3.38,0-2.66-1.69-3.48-2.96-3.45-2.14.02-3.05,1.95-3.05,3.95v1.15h-1.55v-1.15c0-1.5-.78-3.41-2.58-3.41-1.22,0-2.3.78-2.3,2.68,0,1.22.54,2.4,1.01,3.05l-1.5.54c-.59-.8-1.18-2.35-1.18-3.99,0-3.01,1.79-4.37,3.64-4.37,1.57,0,2.91.94,3.6,2.82h.05c.38-1.88,1.79-3.41,3.92-3.41,2.44,0,4.58,1.9,4.58,5.57,0,1.72-.54,3.22-1.03,3.97l-1.6-.56Z"/><path d="m603.66,899.02h-4.33v7.39h-1.42l-10.16-7.1v-2.33h9.89v-2.23h1.69v2.23h4.33v2.03Zm-6.02,0h-5.31c-.83,0-1.67-.02-2.5-.07v.07c.93.49,1.62.88,2.35,1.32l5.41,3.89h.05v-5.22Z"/><path d="m748.68,174.67v5.97l4.02.6c-.05-.36-.1-.7-.1-1.28,0-1.2.27-2.41.84-3.37.7-1.23,2.05-2.24,4.02-2.24,3.06,0,5.35,2.43,5.35,5.83,0,1.71-.48,3.15-.96,3.9l-1.61-.53c.38-.65.87-1.93.87-3.35,0-2-1.3-3.71-3.39-3.71-2.02.02-3.47,1.37-3.47,4.5,0,.89.1,1.59.17,2.17l-7.51-1.01v-7.49h1.78Z"/><path d="m748.6,897.38c-.02.43,0,.97.09,1.57.55,3.27,2.94,5,5.48,5.36v-.07c-.97-.73-1.78-2.02-1.78-3.72,0-2.73,1.97-4.65,4.98-4.65,2.82,0,5.43,1.92,5.43,5.12s-2.56,5.46-6.57,5.46c-3.04,0-5.43-1.09-6.95-2.61-1.26-1.28-2.04-2.99-2.28-4.93-.09-.62-.12-1.14-.12-1.52h1.71Zm8.89.59c-2.21,0-3.53,1.26-3.53,3.18,0,1.26.78,2.42,1.9,2.99.24.14.55.24.92.24,2.54-.05,4.41-1.21,4.41-3.39,0-1.8-1.49-3.01-3.7-3.01Z"/><line x1="333.79" y1="364.37" x2="339.79" y2="364.37" fill="none" stroke="#000" stroke-miterlimit="10" stroke-width="5"/><line x1="351.7" y1="364.37" x2="727.08" y2="364.37" fill="none" stroke="#000" stroke-dasharray="0 0 11.92 11.92" stroke-miterlimit="10" stroke-width="5"/><line x1="733.03" y1="364.37" x2="739.03" y2="364.37" fill="none" stroke="#000" stroke-miterlimit="10" stroke-width="5"/><line x1="221.89" y1="365.11" x2="227.89" y2="365.11" fill="none" stroke="#000" stroke-miterlimit="10" stroke-width="5"/><line x1="240.33" y1="365.11" x2="259" y2="365.11" fill="none" stroke="#000" stroke-dasharray="0 0 12.44 12.44" stroke-miterlimit="10" stroke-width="5"/><line x1="265.22" y1="365.11" x2="271.22" y2="365.11" fill="none" stroke="#000" stroke-miterlimit="10" stroke-width="5"/><line x1="302.13" y1="396.76" x2="302.14" y2="402.76" fill="none" stroke="#000" stroke-miterlimit="10" stroke-width="5"/><line x1="302.16" y1="415" x2="302.49" y2="702.66" fill="none" stroke="#000" stroke-dasharray="0 0 12.24 12.24" stroke-miterlimit="10" stroke-width="5"/><line x1="302.5" y1="708.78" x2="302.5" y2="714.78" fill="none" stroke="#000" stroke-miterlimit="10" stroke-width="5"/><line x1="302.5" y1="714.78" x2="308.5" y2="714.78" fill="none" stroke="#000" stroke-miterlimit="10" stroke-width="5"/><line x1="321.93" y1="714.78" x2="368.92" y2="714.78" fill="none" stroke="#000" stroke-dasharray="0 0 13.43 13.43" stroke-miterlimit="10" stroke-width="5"/><line x1="375.64" y1="714.78" x2="381.64" y2="714.78" fill="none" stroke="#000" stroke-miterlimit="10" stroke-width="5"/><line x1="302.5" y1="556.51" x2="308.5" y2="556.51" fill="none" stroke="#000" stroke-miterlimit="10" stroke-width="5"/><line x1="321.93" y1="556.51" x2="368.92" y2="556.51" fill="none" stroke="#000" stroke-dasharray="0 0 13.43 13.43" stroke-miterlimit="10" stroke-width="5"/><line x1="375.64" y1="556.51" x2="381.64" y2="556.51" fill="none" stroke="#000" stroke-miterlimit="10" stroke-width="5"/><rect id="Base" width="1080" height="1080" opacity="0"/></g></g></svg>