<?xml version="1.0" encoding="UTF-8"?><svg id="Capa_2" xmlns="http://www.w3.org/2000/svg" viewBox="0 0 1080 1080"><g id="Capa_1-2"><g id="Multifilar_-_Silbato"><polygon points="731 731 349 731 349 158 731 158 731 426.35 540 656.51 731 656.51 731 731" fill="none" stroke="#000" stroke-miterlimit="10" stroke-width="5"/><line x1="462.65" y1="922" x2="462.65" y2="731" fill="none" stroke="#000" stroke-miterlimit="10" stroke-width="5"/><line x1="615.44" y1="922" x2="615.44" y2="731" fill="none" stroke="#000" stroke-miterlimit="10" stroke-width="5"/><path d="m392.02,877v.12l3.59,6.64-3.94,1-4.47-8.35v-4.41h38.2v5h-33.38Z"/><path d="m578.2,884.76h-3.12l-3.87-3.99c-9.13-9.59-13.99-13.93-19.65-13.99-3.81,0-7.34,1.85-7.34,7.45,0,3.41,1.73,6.24,3.18,7.98l-3.58,1.62c-2.2-2.6-3.81-6.3-3.81-10.63,0-8.09,5.55-11.5,10.92-11.5,6.94,0,12.54,5.03,20.17,12.95l2.77,3h.12v-16.87h4.22v23.98Z"/><rect id="Base" width="1080" height="1080" opacity="0"/></g></g></svg>