<?xml version="1.0" encoding="UTF-8"?><svg id="Capa_2" xmlns="http://www.w3.org/2000/svg" viewBox="0 0 1080 1080"><g id="Capa_1-2"><g id="Multifilar_-_Reactancia_-_2"><path d="m349.21,598.09c0-26.15,21.15-47.39,47.3-47.39s47.34,21.24,47.34,47.39" fill="none" stroke="#000" stroke-miterlimit="10" stroke-width="5"/><path d="m444.83,598.09c0-26.15,21.2-47.39,47.34-47.39s47.34,21.24,47.34,47.39" fill="none" stroke="#000" stroke-miterlimit="10" stroke-width="5"/><path d="m540.49,598.09c0-26.15,21.2-47.39,47.34-47.39s47.34,21.24,47.34,47.39" fill="none" stroke="#000" stroke-miterlimit="10" stroke-width="5"/><path d="m636.15,598.09c0-26.15,21.2-47.39,47.34-47.39s47.31,21.24,47.31,47.39" fill="none" stroke="#000" stroke-miterlimit="10" stroke-width="5"/><line x1="349.46" y1="520.12" x2="732.05" y2="520.12" fill="none" stroke="#000" stroke-miterlimit="10" stroke-width="5"/><line x1="158" y1="598.09" x2="349.21" y2="598.09" fill="none" stroke="#000" stroke-miterlimit="10" stroke-width="5"/><line x1="922" y1="598.09" x2="730.8" y2="598.09" fill="none" stroke="#000" stroke-miterlimit="10" stroke-width="5"/><line x1="349.46" y1="481.91" x2="732.05" y2="481.91" fill="none" stroke="#000" stroke-miterlimit="10" stroke-width="5"/><rect id="Base" width="1080" height="1080" opacity="0"/></g></g></svg>