<?xml version="1.0" encoding="UTF-8"?><svg id="Capa_2" xmlns="http://www.w3.org/2000/svg" viewBox="0 0 1080 1080"><g id="Capa_1-2"><g id="Multifilar_-_Telerruptor"><rect x="158" y="483.28" width="323.23" height="115.91" fill="none" stroke="#000" stroke-miterlimit="10" stroke-width="5"/><rect x="158" y="483.28" width="116.8" height="116.65" fill="none" stroke="#000" stroke-miterlimit="10" stroke-width="5"/><line x1="216.77" y1="511.04" x2="246.15" y2="511.04" fill="none" stroke="#000" stroke-miterlimit="10" stroke-width="5"/><line x1="187.38" y1="569.81" x2="216.77" y2="569.81" fill="none" stroke="#000" stroke-miterlimit="10" stroke-width="5"/><line x1="216.77" y1="511.04" x2="216.77" y2="569.81" fill="none" stroke="#000" stroke-miterlimit="10" stroke-width="5"/><line x1="334.34" y1="482.66" x2="334.34" y2="245.11" fill="none" stroke="#000" stroke-miterlimit="10" stroke-width="5"/><line x1="334.34" y1="594.86" x2="334.34" y2="834.89" fill="none" stroke="#000" stroke-miterlimit="10" stroke-width="5"/><line x1="628.03" y1="540.43" x2="599.34" y2="599.27" fill="none" stroke="#000" stroke-miterlimit="10" stroke-width="5"/><line x1="569.38" y1="540.43" x2="599.34" y2="599.27" fill="none" stroke="#000" stroke-miterlimit="10" stroke-width="5"/><line x1="658.27" y1="394.23" x2="775.81" y2="658.7" fill="none" stroke="#000" stroke-miterlimit="10" stroke-width="5"/><line x1="629.81" y1="245.11" x2="629.81" y2="422.2" fill="none" stroke="#000" stroke-miterlimit="10" stroke-width="5"/><line x1="687.66" y1="422.3" x2="629.81" y2="422.3" fill="none" stroke="#000" stroke-miterlimit="10" stroke-width="5"/><line x1="863.97" y1="422.3" x2="922" y2="422.3" fill="none" stroke="#000" stroke-miterlimit="10" stroke-width="5"/><line x1="922" y1="245.11" x2="922" y2="422.2" fill="none" stroke="#000" stroke-miterlimit="10" stroke-width="5"/><line x1="775.81" y1="659.43" x2="775.81" y2="834.89" fill="none" stroke="#000" stroke-miterlimit="10" stroke-width="5"/><path d="m295.68,308.57l9.24,3.05v3.92l-29.38-9.98v-4.58l29.38-10.03v4.05l-9.24,3.14v10.42Zm-2.96-9.63l-8.46,2.88c-1.92.65-3.66,1.09-5.36,1.53v.09c1.74.44,3.53.92,5.32,1.48l8.5,2.88v-8.85Z"/><path d="m280.16,279.67v.09l2.66,4.93-2.92.74-3.31-6.19v-3.27h28.34v3.71h-24.76Z"/><path d="m295.68,798.11l9.24,3.05v3.92l-29.38-9.98v-4.58l29.38-10.03v4.05l-9.24,3.14v10.42Zm-2.96-9.64l-8.46,2.88c-1.92.65-3.66,1.09-5.36,1.53v.09c1.74.44,3.53.92,5.32,1.48l8.5,2.88v-8.85Z"/><path d="m304.92,777.53h-2.35l-2.92-3.01c-6.89-7.24-10.55-10.51-14.82-10.55-2.88,0-5.54,1.39-5.54,5.62,0,2.57,1.31,4.71,2.4,6.02l-2.7,1.22c-1.66-1.96-2.88-4.75-2.88-8.02,0-6.1,4.19-8.68,8.24-8.68,5.23,0,9.46,3.79,15.22,9.77l2.09,2.27h.09v-12.73h3.18v18.09Z"/><path d="m720.01,798.92v.09l2.76,5.11-3.03.77-3.44-6.42v-3.39h29.38v3.84h-25.68Z"/><path d="m720.01,775.73v.09l2.76,5.11-3.03.77-3.44-6.42v-3.39h29.38v3.84h-25.68Z"/><path d="m573.52,308.72v.09l2.71,5.02-2.98.76-3.38-6.31v-3.33h28.9v3.78h-25.25Z"/><path d="m598.77,294.41h-2.4l-2.98-3.07c-7.02-7.38-10.76-10.71-15.11-10.76-2.93,0-5.65,1.42-5.65,5.73,0,2.62,1.33,4.8,2.45,6.13l-2.76,1.24c-1.69-2-2.93-4.85-2.93-8.18,0-6.22,4.27-8.85,8.4-8.85,5.33,0,9.65,3.87,15.51,9.96l2.13,2.31h.09v-12.98h3.25v18.45Z"/><path d="m866.94,310.68v.09l2.76,5.11-3.03.77-3.44-6.42v-3.39h29.38v3.84h-25.68Z"/><path d="m892.62,283.83h-8v13.65h-2.62l-18.76-13.11v-4.29h18.26v-4.11h3.12v4.11h8v3.75Zm-11.12,0h-9.81c-1.54,0-3.07-.04-4.61-.14v.14c1.72.9,2.98,1.63,4.34,2.44l9.99,7.19h.09v-9.63Z"/><line x1="480.5" y1="540.43" x2="486.5" y2="540.43" fill="none" stroke="#000" stroke-miterlimit="10" stroke-width="5"/><line x1="497.48" y1="540.43" x2="557.89" y2="540.43" fill="none" stroke="#000" stroke-dasharray="0 0 10.98 10.98" stroke-miterlimit="10" stroke-width="5"/><line x1="563.38" y1="540.43" x2="569.38" y2="540.43" fill="none" stroke="#000" stroke-miterlimit="10" stroke-width="5"/><line x1="627.42" y1="540.43" x2="633.42" y2="540.43" fill="none" stroke="#000" stroke-miterlimit="10" stroke-width="5"/><line x1="645.3" y1="540.43" x2="710.66" y2="540.43" fill="none" stroke="#000" stroke-dasharray="0 0 11.88 11.88" stroke-miterlimit="10" stroke-width="5"/><line x1="716.6" y1="540.43" x2="722.6" y2="540.43" fill="none" stroke="#000" stroke-miterlimit="10" stroke-width="5"/><rect id="Base" width="1080" height="1080" opacity="0"/></g></g></svg>