<?xml version="1.0" encoding="UTF-8"?><svg id="Capa_2" xmlns="http://www.w3.org/2000/svg" viewBox="0 0 1080 1080"><g id="Capa_1-2"><g id="Multifilar_-_Relé_ANSI"><circle cx="349" cy="539.64" r="77.35" fill="none" stroke="#000" stroke-miterlimit="10" stroke-width="5"/><path d="m324.86,502.76h9.52v35.57h.33c1.97-2.85,3.94-5.47,5.8-7.88l22.55-27.69h11.82l-26.7,31.3,28.79,42.46h-11.27l-24.3-36.23-7,8.1v28.13h-9.52v-73.77Z"/><line x1="158" y1="348.64" x2="349" y2="348.64" fill="none" stroke="#000" stroke-miterlimit="10" stroke-width="5"/><line x1="158" y1="731.36" x2="349" y2="731.36" fill="none" stroke="#000" stroke-miterlimit="10" stroke-width="5"/><line x1="731.95" y1="348.64" x2="922" y2="348.64" fill="none" stroke="#000" stroke-miterlimit="10" stroke-width="5"/><line x1="731.95" y1="731.36" x2="922" y2="731.36" fill="none" stroke="#000" stroke-miterlimit="10" stroke-width="5"/><line x1="349" y1="348.64" x2="349" y2="462.29" fill="none" stroke="#000" stroke-miterlimit="10" stroke-width="5"/><line x1="349" y1="731.36" x2="349" y2="617" fill="none" stroke="#000" stroke-miterlimit="10" stroke-width="5"/><line x1="654.6" y1="502.4" x2="807.4" y2="502.4" fill="none" stroke="#000" stroke-miterlimit="10" stroke-width="5"/><line x1="654.6" y1="577.84" x2="807.4" y2="577.84" fill="none" stroke="#000" stroke-miterlimit="10" stroke-width="5"/><line x1="731.95" y1="731.36" x2="731.95" y2="577.84" fill="none" stroke="#000" stroke-miterlimit="10" stroke-width="5"/><line x1="731.95" y1="348.64" x2="731.95" y2="502.4" fill="none" stroke="#000" stroke-miterlimit="10" stroke-width="5"/><rect id="Base" width="1080" height="1080" opacity="0"/></g></g></svg>