<?xml version="1.0" encoding="UTF-8"?><svg id="Capa_2" xmlns="http://www.w3.org/2000/svg" viewBox="0 0 1080 1080"><g id="Capa_1-2"><g id="Multifilar_-_Interruptores_de_Persianas"><line x1="540.72" y1="484.36" x2="540.72" y2="594.12" fill="none" stroke="#000" stroke-miterlimit="10" stroke-width="5"/><line x1="540.72" y1="158.51" x2="540.72" y2="311.58" fill="none" stroke="#000" stroke-miterlimit="10" stroke-width="5"/><line x1="409.22" y1="681.1" x2="415.22" y2="681.1" fill="none" stroke="#000" stroke-miterlimit="10" stroke-width="5"/><line x1="427.51" y1="681.1" x2="593.32" y2="681.1" fill="none" stroke="#000" stroke-dasharray="0 0 12.28 12.28" stroke-miterlimit="10" stroke-width="5"/><line x1="599.46" y1="681.1" x2="605.46" y2="681.1" fill="none" stroke="#000" stroke-miterlimit="10" stroke-width="5"/><line x1="321.8" y1="681.1" x2="327.8" y2="681.1" fill="none" stroke="#000" stroke-miterlimit="10" stroke-width="5"/><line x1="338.44" y1="681.1" x2="354.41" y2="681.1" fill="none" stroke="#000" stroke-dasharray="0 0 10.64 10.64" stroke-miterlimit="10" stroke-width="5"/><line x1="359.73" y1="681.1" x2="365.73" y2="681.1" fill="none" stroke="#000" stroke-miterlimit="10" stroke-width="5"/><line x1="365.73" y1="681.1" x2="387.98" y2="725.61" fill="none" stroke="#000" stroke-miterlimit="10" stroke-width="5"/><line x1="409.22" y1="681.1" x2="387.98" y2="725.61" fill="none" stroke="#000" stroke-miterlimit="10" stroke-width="5"/><line x1="409.22" y1="396.86" x2="415.22" y2="396.86" fill="none" stroke="#000" stroke-miterlimit="10" stroke-width="5"/><line x1="428.1" y1="396.86" x2="473.16" y2="396.86" fill="none" stroke="#000" stroke-dasharray="0 0 12.87 12.87" stroke-miterlimit="10" stroke-width="5"/><line x1="479.59" y1="396.86" x2="485.59" y2="396.86" fill="none" stroke="#000" stroke-miterlimit="10" stroke-width="5"/><line x1="321.8" y1="396.86" x2="327.8" y2="396.86" fill="none" stroke="#000" stroke-miterlimit="10" stroke-width="5"/><line x1="338.44" y1="396.86" x2="354.41" y2="396.86" fill="none" stroke="#000" stroke-dasharray="0 0 10.64 10.64" stroke-miterlimit="10" stroke-width="5"/><line x1="359.73" y1="396.86" x2="365.73" y2="396.86" fill="none" stroke="#000" stroke-miterlimit="10" stroke-width="5"/><line x1="365.73" y1="396.86" x2="387.98" y2="441.37" fill="none" stroke="#000" stroke-miterlimit="10" stroke-width="5"/><line x1="409.22" y1="396.86" x2="387.98" y2="441.37" fill="none" stroke="#000" stroke-miterlimit="10" stroke-width="5"/><line x1="649.97" y1="747.36" x2="649.97" y2="922" fill="none" stroke="#000" stroke-miterlimit="10" stroke-width="5"/><line x1="758.2" y1="594.12" x2="758.2" y2="158" fill="none" stroke="#000" stroke-miterlimit="10" stroke-width="5"/><line x1="540.72" y1="594.12" x2="605.46" y2="594.12" fill="none" stroke="#000" stroke-miterlimit="10" stroke-width="5"/><line x1="693.46" y1="594.12" x2="758.2" y2="594.12" fill="none" stroke="#000" stroke-miterlimit="10" stroke-width="5"/><line x1="562.98" y1="571.86" x2="649.97" y2="748.88" fill="none" stroke="#000" stroke-miterlimit="10" stroke-width="5"/><line x1="453.26" y1="308.85" x2="540.72" y2="485.37" fill="none" stroke="#000" stroke-miterlimit="10" stroke-width="5"/><line x1="321.8" y1="615.86" x2="321.8" y2="746.34" fill="none" stroke="#000" stroke-miterlimit="10" stroke-width="5"/><line x1="321.8" y1="331.62" x2="321.8" y2="462.1" fill="none" stroke="#000" stroke-miterlimit="10" stroke-width="5"/><rect id="Base" width="1080" height="1080" opacity="0"/></g></g></svg>