<?xml version="1.0" encoding="UTF-8"?><svg id="Capa_2" xmlns="http://www.w3.org/2000/svg" viewBox="0 0 1080 1080"><g id="Capa_1-2"><g id="Multifilar_-_Interruptor_de_Pedal_N.O."><line x1="731.3" y1="666.94" x2="731.3" y2="922" fill="none" stroke="#000" stroke-miterlimit="10" stroke-width="5"/><line x1="603.77" y1="411.29" x2="731.3" y2="666.35" fill="none" stroke="#000" stroke-miterlimit="10" stroke-width="5"/><line x1="476.83" y1="538.82" x2="482.83" y2="538.82" fill="none" stroke="#000" stroke-miterlimit="10" stroke-width="5"/><line x1="494.7" y1="538.82" x2="655" y2="538.82" fill="none" stroke="#000" stroke-dasharray="0 0 11.87 11.87" stroke-miterlimit="10" stroke-width="5"/><line x1="660.94" y1="538.82" x2="666.94" y2="538.82" fill="none" stroke="#000" stroke-miterlimit="10" stroke-width="5"/><line x1="731.3" y1="158" x2="731.3" y2="411.88" fill="none" stroke="#000" stroke-miterlimit="10" stroke-width="5"/><line x1="525.83" y1="463.25" x2="424.28" y2="615.57" fill="none" stroke="#000" stroke-miterlimit="10" stroke-width="5"/><line x1="348.7" y1="564.8" x2="424.28" y2="615.57" fill="none" stroke="#000" stroke-miterlimit="10" stroke-width="5"/><path d="m700.75,199.08c.6-.94,1.55-3.14,1.55-5.44,0-4.27-2.72-5.59-4.76-5.55-3.44.04-4.91,3.14-4.91,6.34v1.85h-2.49v-1.85c0-2.42-1.25-5.48-4.15-5.48-1.96,0-3.7,1.25-3.7,4.31,0,1.96.87,3.85,1.62,4.91l-2.42.87c-.94-1.28-1.89-3.78-1.89-6.42,0-4.83,2.87-7.03,5.85-7.03,2.53,0,4.68,1.51,5.78,4.53h.08c.6-3.02,2.87-5.48,6.31-5.48,3.93,0,7.36,3.06,7.36,8.95,0,2.76-.87,5.17-1.66,6.38l-2.57-.91Z"/><path d="m704.98,883.56h-6.91v11.79h-2.26l-16.21-11.32v-3.71h15.78v-3.55h2.69v3.55h6.91v3.24Zm-9.61,0h-8.47c-1.33,0-2.66-.04-3.98-.12v.12c1.48.78,2.58,1.41,3.75,2.11l8.63,6.21h.08v-8.32Z"/><rect id="Base" width="1080" height="1080" opacity="0"/></g></g></svg>