<?xml version="1.0" encoding="UTF-8"?><svg id="Capa_2" xmlns="http://www.w3.org/2000/svg" viewBox="0 0 1080 1080"><g id="Capa_1-2"><g id="Multifilar_-_Relé_térmico_para_circuito_de_fuerza"><rect x="158" y="412.47" width="764" height="255.05" fill="none" stroke="#000" stroke-miterlimit="10" stroke-width="5"/><line x1="540.22" y1="285.33" x2="540.22" y2="489.07" fill="none" stroke="#000" stroke-miterlimit="10" stroke-width="5"/><line x1="287.32" y1="285.33" x2="287.32" y2="489.07" fill="none" stroke="#000" stroke-miterlimit="10" stroke-width="5"/><line x1="795.3" y1="285.33" x2="795.3" y2="489.07" fill="none" stroke="#000" stroke-miterlimit="10" stroke-width="5"/><line x1="540.22" y1="590.93" x2="540.22" y2="794.67" fill="none" stroke="#000" stroke-miterlimit="10" stroke-width="5"/><line x1="287.32" y1="590.93" x2="287.32" y2="794.67" fill="none" stroke="#000" stroke-miterlimit="10" stroke-width="5"/><line x1="795.3" y1="590.93" x2="795.3" y2="794.67" fill="none" stroke="#000" stroke-miterlimit="10" stroke-width="5"/><line x1="285.97" y1="590.93" x2="387.84" y2="590.93" fill="none" stroke="#000" stroke-miterlimit="10" stroke-width="5"/><line x1="285.97" y1="489.07" x2="387.84" y2="489.07" fill="none" stroke="#000" stroke-miterlimit="10" stroke-width="5"/><line x1="540.22" y1="489.07" x2="642.5" y2="489.07" fill="none" stroke="#000" stroke-miterlimit="10" stroke-width="5"/><line x1="540.22" y1="590.93" x2="642.5" y2="590.93" fill="none" stroke="#000" stroke-miterlimit="10" stroke-width="5"/><line x1="795.3" y1="489.07" x2="897.17" y2="489.07" fill="none" stroke="#000" stroke-miterlimit="10" stroke-width="5"/><line x1="795.3" y1="590.93" x2="897.17" y2="590.93" fill="none" stroke="#000" stroke-miterlimit="10" stroke-width="5"/><line x1="897.17" y1="489.07" x2="897.17" y2="590.93" fill="none" stroke="#000" stroke-miterlimit="10" stroke-width="5"/><line x1="642.5" y1="489.07" x2="642.5" y2="590.93" fill="none" stroke="#000" stroke-miterlimit="10" stroke-width="5"/><line x1="387.84" y1="489.07" x2="387.84" y2="590.93" fill="none" stroke="#000" stroke-miterlimit="10" stroke-width="5"/><path d="m238.25,314.13v.08l2.39,4.43-2.63.67-2.98-5.56v-2.94h25.47v3.33h-22.25Z"/><path d="m260.5,769.2h-2.08l-2.58-2.66c-6.09-6.4-9.32-9.29-13.1-9.32-2.54,0-4.89,1.23-4.89,4.97,0,2.27,1.16,4.16,2.12,5.32l-2.39,1.08c-1.46-1.73-2.54-4.2-2.54-7.09,0-5.39,3.7-7.67,7.28-7.67,4.62,0,8.36,3.35,13.45,8.63l1.85,2h.08v-11.25h2.81v15.99Z"/><path d="m510.93,325.28c.61-.95,1.55-3.15,1.55-5.46,0-4.28-2.73-5.61-4.78-5.57-3.45.04-4.93,3.15-4.93,6.37v1.86h-2.5v-1.86c0-2.43-1.25-5.5-4.17-5.5-1.97,0-3.71,1.25-3.71,4.32,0,1.97.87,3.87,1.63,4.93l-2.43.87c-.95-1.29-1.89-3.79-1.89-6.44,0-4.85,2.88-7.05,5.87-7.05,2.54,0,4.7,1.52,5.8,4.55h.08c.61-3.03,2.88-5.5,6.33-5.5,3.94,0,7.39,3.07,7.39,8.98,0,2.77-.87,5.19-1.67,6.4l-2.58-.91Z"/><path d="m515.17,757.37h-6.94v11.83h-2.27l-16.26-11.36v-3.72h15.83v-3.56h2.7v3.56h6.94v3.25Zm-9.64,0h-8.5c-1.33,0-2.67-.04-4-.12v.12c1.49.78,2.59,1.41,3.76,2.12l8.66,6.23h.08v-8.35Z"/><path d="m747.22,311.47v9.56l6.43.96c-.08-.58-.15-1.12-.15-2.04,0-1.93.42-3.85,1.35-5.39,1.12-1.96,3.28-3.58,6.43-3.58,4.89,0,8.55,3.89,8.55,9.32,0,2.74-.77,5.05-1.54,6.24l-2.58-.85c.62-1.04,1.39-3.08,1.39-5.35,0-3.2-2.08-5.93-5.43-5.93-3.24.04-5.55,2.2-5.55,7.2,0,1.43.15,2.54.27,3.47l-12.02-1.62v-11.98h2.85Z"/><path d="m747.08,754.81c-.04.68,0,1.54.15,2.49.87,5.2,4.67,7.95,8.7,8.51v-.11c-1.54-1.17-2.83-3.2-2.83-5.92,0-4.33,3.13-7.38,7.91-7.38,4.48,0,8.63,3.05,8.63,8.14s-4.07,8.67-10.44,8.67c-4.82,0-8.63-1.73-11.04-4.14-2-2.03-3.24-4.75-3.62-7.84-.15-.98-.19-1.81-.19-2.41h2.71Zm14.13.94c-3.5,0-5.61,2-5.61,5.05,0,2,1.24,3.84,3.01,4.75.38.23.87.38,1.47.38,4.03-.08,7.01-1.92,7.01-5.39,0-2.86-2.37-4.79-5.88-4.79Z"/><rect id="Base" width="1080" height="1080" opacity="0"/></g></g></svg>