<?xml version="1.0" encoding="UTF-8"?><svg id="Capa_2" xmlns="http://www.w3.org/2000/svg" viewBox="0 0 1080 1080"><g id="Capa_1-2"><g id="Multifilar_-_Seta_de_emergencia_con_enclavamiento_mecánico_NC"><line x1="629.45" y1="666.94" x2="629.45" y2="922" fill="none" stroke="#000" stroke-miterlimit="10" stroke-width="5"/><line x1="374.39" y1="462.66" x2="374.39" y2="614.98" fill="none" stroke="#000" stroke-miterlimit="10" stroke-width="5"/><line x1="374.47" y1="538.82" x2="380.47" y2="538.82" fill="none" stroke="#000" stroke-miterlimit="10" stroke-width="5"/><line x1="392.74" y1="538.82" x2="681.08" y2="538.82" fill="none" stroke="#000" stroke-dasharray="0 0 12.27 12.27" stroke-miterlimit="10" stroke-width="5"/><line x1="687.21" y1="538.82" x2="693.21" y2="538.82" fill="none" stroke="#000" stroke-miterlimit="10" stroke-width="5"/><line x1="629.45" y1="158" x2="629.45" y2="411.88" fill="none" stroke="#000" stroke-miterlimit="10" stroke-width="5"/><line x1="630.04" y1="411.29" x2="781.78" y2="411.29" fill="none" stroke="#000" stroke-miterlimit="10" stroke-width="5"/><line x1="781.78" y1="360.51" x2="629.45" y2="666.35" fill="none" stroke="#000" stroke-miterlimit="10" stroke-width="5"/><path d="m374.68,615.58c-42.23,0-76.46-34.23-76.46-76.46s34.23-76.46,76.46-76.46" fill="none" stroke="#000" stroke-miterlimit="10" stroke-width="5"/><path d="m604.94,896.53h-2.08l-2.58-2.66c-6.09-6.4-9.32-9.29-13.1-9.32-2.54,0-4.89,1.23-4.89,4.97,0,2.27,1.16,4.16,2.12,5.32l-2.39,1.08c-1.46-1.73-2.54-4.2-2.54-7.09,0-5.39,3.7-7.67,7.28-7.67,4.62,0,8.36,3.35,13.45,8.63l1.85,2h.08v-11.25h2.81v15.99Z"/><path d="m582.69,186.52v.08l2.39,4.43-2.62.67-2.98-5.56v-2.94h25.47v3.33h-22.25Z"/><line x1="426.63" y1="487.91" x2="477.64" y2="539.8" fill="none" stroke="#000" stroke-miterlimit="10" stroke-width="5"/><line x1="426.63" y1="539.8" x2="426.63" y2="487.91" fill="none" stroke="#000" stroke-miterlimit="10" stroke-width="5"/><line x1="477.64" y1="461.49" x2="477.64" y2="513.06" fill="none" stroke="#000" stroke-miterlimit="10" stroke-width="5"/><rect id="Base" width="1080" height="1080" opacity="0"/></g></g></svg>