<?xml version="1.0" encoding="UTF-8"?><svg id="Capa_2" xmlns="http://www.w3.org/2000/svg" viewBox="0 0 1080 1080"><g id="Capa_1-2"><g id="Multifilar_-_SI_ANSI"><line x1="255.17" y1="540" x2="434.64" y2="540" fill="none" stroke="#000" stroke-miterlimit="10" stroke-width="5"/><line x1="648.21" y1="540" x2="829.48" y2="540" fill="none" stroke="#000" stroke-miterlimit="10" stroke-width="5"/><polygon points="648.21 540 434.64 431.42 434.64 648.58 648.21 540" fill="none" stroke="#000" stroke-miterlimit="10" stroke-width="5"/><path d="m919.71,575.89c-8.34-2.2-16.48-4.67-23.63-7.14-1.28-.46-2.56-.92-3.75-.92-14.65-.55-27.2-11.36-27.2-31.22s12.09-32.5,28.75-32.5,27.65,13,27.65,31.22c0,15.84-7.32,26.01-17.58,29.58v.37c6.14,1.56,12.82,3.02,18.04,3.94l-2.29,6.68Zm-6.59-40.2c0-12.36-6.41-25.09-19.5-25.09s-20.06,12.45-19.97,25.82c-.09,13.1,7.14,24.91,19.59,24.91s19.88-11.54,19.88-25.64Z"/><path d="m175.04,553.31l-7.46,22.58h-9.58l24.39-71.79h11.19l24.5,71.79h-9.91l-7.67-22.58h-25.45Zm23.54-7.25l-7.02-20.66c-1.6-4.68-2.66-8.95-3.73-13.1h-.22c-1.07,4.26-2.24,8.63-3.62,13l-7.03,20.77h21.62Z"/><rect id="Base" width="1080" height="1080" opacity="0"/></g></g></svg>