<?xml version="1.0" encoding="UTF-8"?><svg id="Capa_2" xmlns="http://www.w3.org/2000/svg" viewBox="0 0 1080 1080"><g id="Capa_1-2"><g id="Multifilar_-_Conductores_blindados_apantallados_-_2"><line x1="922" y1="385.82" x2="158" y2="385.82" fill="none" stroke="#000" stroke-miterlimit="10" stroke-width="5"/><line x1="922" y1="539.81" x2="158" y2="539.81" fill="none" stroke="#000" stroke-miterlimit="10" stroke-width="5"/><line x1="922" y1="693.92" x2="158" y2="693.92" fill="none" stroke="#000" stroke-miterlimit="10" stroke-width="5"/><path d="m385.29,388.15c0-2.01.04-4.01.11-6" fill="none" stroke="#000" stroke-miterlimit="10" stroke-width="5"/><path d="m386.34,370.03c8.97-76.91,74.35-136.59,153.66-136.59s148.09,62.84,154.25,142.64" fill="none" stroke="#000" stroke-dasharray="0 0 12.16 12.16" stroke-miterlimit="10" stroke-width="5"/><path d="m694.6,382.15c.08,1.99.11,3.99.11,6" fill="none" stroke="#000" stroke-miterlimit="10" stroke-width="5"/><path d="m694.71,691.84c0,2.01-.04,4.01-.11,6" fill="none" stroke="#000" stroke-miterlimit="10" stroke-width="5"/><path d="m693.66,709.97c-8.97,76.91-74.35,136.59-153.66,136.59s-148.09-62.84-154.25-142.64" fill="none" stroke="#000" stroke-dasharray="0 0 12.16 12.16" stroke-miterlimit="10" stroke-width="5"/><path d="m385.4,697.85c-.08-1.99-.11-3.99-.11-6" fill="none" stroke="#000" stroke-miterlimit="10" stroke-width="5"/><line x1="385.29" y1="386.24" x2="385.29" y2="392.24" fill="none" stroke="#000" stroke-miterlimit="10" stroke-width="5"/><line x1="385.29" y1="404.14" x2="385.29" y2="683.72" fill="none" stroke="#000" stroke-dasharray="0 0 11.9 11.9" stroke-miterlimit="10" stroke-width="5"/><line x1="385.29" y1="689.66" x2="385.29" y2="695.66" fill="none" stroke="#000" stroke-miterlimit="10" stroke-width="5"/><line x1="694.71" y1="386.24" x2="694.71" y2="392.24" fill="none" stroke="#000" stroke-miterlimit="10" stroke-width="5"/><line x1="694.71" y1="404.14" x2="694.71" y2="683.72" fill="none" stroke="#000" stroke-dasharray="0 0 11.9 11.9" stroke-miterlimit="10" stroke-width="5"/><line x1="694.71" y1="689.66" x2="694.71" y2="695.66" fill="none" stroke="#000" stroke-miterlimit="10" stroke-width="5"/><rect id="Base" width="1080" height="1080" opacity="0"/></g></g></svg>