<?xml version="1.0" encoding="UTF-8"?><svg id="Capa_2" xmlns="http://www.w3.org/2000/svg" viewBox="0 0 1080 1080"><g id="Capa_1-2"><g id="Multifilar_-_Protector_tetrapolar_contra_sobretensiones_combinado"><circle cx="370.58" cy="476.21" r="4.32"/><circle cx="285.78" cy="518.21" r="4.32"/><circle cx="624.97" cy="772.99" r="4.32"/><circle cx="709.76" cy="772.86" r="4.32"/><circle cx="794.56" cy="772.86" r="4.32"/><line x1="285.98" y1="349.01" x2="285.98" y2="560.92" fill="none" stroke="#000" stroke-miterlimit="10" stroke-width="5"/><line x1="625.17" y1="518.41" x2="625.17" y2="645.6" fill="none" stroke="#000" stroke-miterlimit="10" stroke-width="5"/><line x1="625.16" y1="518.6" x2="285.59" y2="518.6" fill="none" stroke="#000" stroke-miterlimit="10" stroke-width="5"/><line x1="709.96" y1="476.21" x2="370.38" y2="476.21" fill="none" stroke="#000" stroke-miterlimit="10" stroke-width="5"/><line x1="879.16" y1="772.86" x2="624.77" y2="772.86" fill="none" stroke="#000" stroke-miterlimit="10" stroke-width="5"/><line x1="243.39" y1="264.41" x2="285.78" y2="349.21" fill="none" stroke="#000" stroke-miterlimit="10" stroke-width="5"/><line x1="217.67" y1="289.54" x2="217.67" y2="323.3" fill="none" stroke="#000" stroke-miterlimit="10" stroke-width="5"/><line x1="183.52" y1="289.73" x2="183.52" y2="323.49" fill="none" stroke="#000" stroke-miterlimit="10" stroke-width="5"/><line x1="217.87" y1="289.93" x2="184.11" y2="289.93" fill="none" stroke="#000" stroke-miterlimit="10" stroke-width="5"/><line x1="217.48" y1="323.69" x2="183.71" y2="323.69" fill="none" stroke="#000" stroke-miterlimit="10" stroke-width="5"/><line x1="285.78" y1="221.82" x2="285.78" y2="264.52" fill="none" stroke="#000" stroke-miterlimit="10" stroke-width="5"/><line x1="624.97" y1="730.4" x2="624.97" y2="857.99" fill="none" stroke="#000" stroke-miterlimit="10" stroke-width="5"/><line x1="286.37" y1="815.59" x2="286.37" y2="857.99" fill="none" stroke="#000" stroke-miterlimit="10" stroke-width="5"/><line x1="370.38" y1="815.59" x2="370.38" y2="857.99" fill="none" stroke="#000" stroke-miterlimit="10" stroke-width="5"/><line x1="455.57" y1="815.78" x2="455.57" y2="858.18" fill="none" stroke="#000" stroke-miterlimit="10" stroke-width="5"/><line x1="539.58" y1="815.78" x2="539.58" y2="858.18" fill="none" stroke="#000" stroke-miterlimit="10" stroke-width="5"/><line x1="158" y1="289.54" x2="158" y2="323.69" fill="none" stroke="#000" stroke-miterlimit="10" stroke-width="5"/><rect x="243.58" y="730.75" width="84.5" height="84.47" fill="none" stroke="#000" stroke-miterlimit="10" stroke-width="5"/><line x1="294.42" y1="747.48" x2="311.5" y2="772.99" fill="none" stroke="#000" stroke-miterlimit="10" stroke-width="5"/><line x1="294.42" y1="798.51" x2="311.5" y2="772.99" fill="none" stroke="#000" stroke-miterlimit="10" stroke-width="5"/><line x1="200.79" y1="289.93" x2="200.79" y2="323.69" fill="none" stroke="#000" stroke-miterlimit="10" stroke-width="5"/><line x1="183.52" y1="306.42" x2="217.67" y2="306.42" fill="none" stroke="#000" stroke-miterlimit="10" stroke-width="5"/><circle cx="285.78" cy="268.67" r="4.32" fill="none" stroke="#000" stroke-miterlimit="10" stroke-width="5"/><line x1="370.58" y1="349.01" x2="370.58" y2="561.2" fill="none" stroke="#000" stroke-miterlimit="10" stroke-width="5"/><line x1="328.18" y1="264.41" x2="370.58" y2="349.21" fill="none" stroke="#000" stroke-miterlimit="10" stroke-width="5"/><line x1="370.58" y1="221.82" x2="370.58" y2="265" fill="none" stroke="#000" stroke-miterlimit="10" stroke-width="5"/><circle cx="370.58" cy="268.67" r="4.32" fill="none" stroke="#000" stroke-miterlimit="10" stroke-width="5"/><circle cx="540.17" cy="392.2" r="4.32"/><circle cx="455.38" cy="434.2" r="4.32"/><line x1="455.57" y1="349.01" x2="455.57" y2="560.92" fill="none" stroke="#000" stroke-miterlimit="10" stroke-width="5"/><line x1="794.76" y1="434.59" x2="455.18" y2="434.59" fill="none" stroke="#000" stroke-miterlimit="10" stroke-width="5"/><line x1="879.55" y1="392.2" x2="539.98" y2="392.2" fill="none" stroke="#000" stroke-miterlimit="10" stroke-width="5"/><line x1="412.98" y1="264.41" x2="455.38" y2="349.21" fill="none" stroke="#000" stroke-miterlimit="10" stroke-width="5"/><line x1="455.38" y1="221.82" x2="455.38" y2="265" fill="none" stroke="#000" stroke-miterlimit="10" stroke-width="5"/><circle cx="455.38" cy="268.67" r="4.32" fill="none" stroke="#000" stroke-miterlimit="10" stroke-width="5"/><line x1="540.17" y1="348.82" x2="540.17" y2="561.2" fill="none" stroke="#000" stroke-miterlimit="10" stroke-width="5"/><line x1="497.77" y1="264.41" x2="540.17" y2="349.21" fill="none" stroke="#000" stroke-miterlimit="10" stroke-width="5"/><line x1="540.17" y1="221.82" x2="540.17" y2="265" fill="none" stroke="#000" stroke-miterlimit="10" stroke-width="5"/><circle cx="540.17" cy="268.67" r="4.32" fill="none" stroke="#000" stroke-miterlimit="10" stroke-width="5"/><path d="m277.34,789.68c0,4.77-3.87,8.64-8.64,8.64s-8.64-3.87-8.64-8.64" fill="none" stroke="#000" stroke-miterlimit="10" stroke-width="5"/><line x1="260.07" y1="747.28" x2="260.07" y2="789.68" fill="none" stroke="#000" stroke-miterlimit="10" stroke-width="5"/><line x1="277.34" y1="747.28" x2="277.34" y2="790.46" fill="none" stroke="#000" stroke-miterlimit="10" stroke-width="5"/><rect x="243.58" y="560.9" width="84.5" height="84.7" fill="none" stroke="#000" stroke-miterlimit="10" stroke-width="5"/><rect x="243.58" y="646" width="84.4" height="84.4" fill="none" stroke="#000" stroke-miterlimit="10" stroke-width="5"/><line x1="285.98" y1="560.9" x2="285.98" y2="585.93" fill="none" stroke="#000" stroke-miterlimit="10" stroke-width="5"/><line x1="311.1" y1="585.93" x2="285.98" y2="585.93" fill="none" stroke="#000" stroke-miterlimit="10" stroke-width="5"/><line x1="286.18" y1="620.09" x2="311.3" y2="620.09" fill="none" stroke="#000" stroke-miterlimit="10" stroke-width="5"/><line x1="311.1" y1="586.32" x2="311.1" y2="620.09" fill="none" stroke="#000" stroke-miterlimit="10" stroke-width="5"/><line x1="285.98" y1="620.28" x2="285.98" y2="645.8" fill="none" stroke="#000" stroke-miterlimit="10" stroke-width="5"/><line x1="260.46" y1="661.89" x2="260.46" y2="713.52" fill="none" stroke="#000" stroke-miterlimit="10" stroke-width="5"/><line x1="277.15" y1="662.29" x2="311.5" y2="687.8" fill="none" stroke="#000" stroke-miterlimit="10" stroke-width="5"/><line x1="277.15" y1="713.32" x2="311.5" y2="687.8" fill="none" stroke="#000" stroke-miterlimit="10" stroke-width="5"/><rect x="328.38" y="730.75" width="84.5" height="84.47" fill="none" stroke="#000" stroke-miterlimit="10" stroke-width="5"/><line x1="379.22" y1="747.48" x2="396.29" y2="772.99" fill="none" stroke="#000" stroke-miterlimit="10" stroke-width="5"/><line x1="379.22" y1="798.51" x2="396.29" y2="772.99" fill="none" stroke="#000" stroke-miterlimit="10" stroke-width="5"/><path d="m362.14,789.68c0,4.77-3.87,8.64-8.64,8.64s-8.64-3.87-8.64-8.64" fill="none" stroke="#000" stroke-miterlimit="10" stroke-width="5"/><line x1="344.87" y1="747.28" x2="344.87" y2="789.68" fill="none" stroke="#000" stroke-miterlimit="10" stroke-width="5"/><line x1="362.14" y1="747.28" x2="362.14" y2="790.46" fill="none" stroke="#000" stroke-miterlimit="10" stroke-width="5"/><rect x="328.38" y="560.9" width="84.5" height="84.7" fill="none" stroke="#000" stroke-miterlimit="10" stroke-width="5"/><rect x="328.38" y="646" width="84.4" height="84.4" fill="none" stroke="#000" stroke-miterlimit="10" stroke-width="5"/><line x1="370.78" y1="560.9" x2="370.78" y2="585.93" fill="none" stroke="#000" stroke-miterlimit="10" stroke-width="5"/><line x1="395.9" y1="585.93" x2="370.78" y2="585.93" fill="none" stroke="#000" stroke-miterlimit="10" stroke-width="5"/><line x1="370.97" y1="620.09" x2="396.1" y2="620.09" fill="none" stroke="#000" stroke-miterlimit="10" stroke-width="5"/><line x1="395.9" y1="586.32" x2="395.9" y2="620.09" fill="none" stroke="#000" stroke-miterlimit="10" stroke-width="5"/><line x1="370.78" y1="620.28" x2="370.78" y2="645.8" fill="none" stroke="#000" stroke-miterlimit="10" stroke-width="5"/><line x1="345.26" y1="661.89" x2="345.26" y2="713.52" fill="none" stroke="#000" stroke-miterlimit="10" stroke-width="5"/><line x1="361.94" y1="662.29" x2="396.29" y2="687.8" fill="none" stroke="#000" stroke-miterlimit="10" stroke-width="5"/><line x1="361.94" y1="713.32" x2="396.29" y2="687.8" fill="none" stroke="#000" stroke-miterlimit="10" stroke-width="5"/><rect x="413.17" y="730.75" width="84.5" height="84.47" fill="none" stroke="#000" stroke-miterlimit="10" stroke-width="5"/><line x1="464.01" y1="747.48" x2="481.09" y2="772.99" fill="none" stroke="#000" stroke-miterlimit="10" stroke-width="5"/><line x1="464.01" y1="798.51" x2="481.09" y2="772.99" fill="none" stroke="#000" stroke-miterlimit="10" stroke-width="5"/><path d="m446.94,789.68c0,4.77-3.87,8.64-8.64,8.64s-8.64-3.87-8.64-8.64" fill="none" stroke="#000" stroke-miterlimit="10" stroke-width="5"/><line x1="429.66" y1="747.28" x2="429.66" y2="789.68" fill="none" stroke="#000" stroke-miterlimit="10" stroke-width="5"/><line x1="446.94" y1="747.28" x2="446.94" y2="790.46" fill="none" stroke="#000" stroke-miterlimit="10" stroke-width="5"/><rect x="413.17" y="560.9" width="84.5" height="84.7" fill="none" stroke="#000" stroke-miterlimit="10" stroke-width="5"/><rect x="413.17" y="646" width="84.4" height="84.4" fill="none" stroke="#000" stroke-miterlimit="10" stroke-width="5"/><line x1="455.57" y1="560.9" x2="455.57" y2="585.93" fill="none" stroke="#000" stroke-miterlimit="10" stroke-width="5"/><line x1="480.7" y1="585.93" x2="455.57" y2="585.93" fill="none" stroke="#000" stroke-miterlimit="10" stroke-width="5"/><line x1="455.77" y1="620.09" x2="480.89" y2="620.09" fill="none" stroke="#000" stroke-miterlimit="10" stroke-width="5"/><line x1="480.7" y1="586.32" x2="480.7" y2="620.09" fill="none" stroke="#000" stroke-miterlimit="10" stroke-width="5"/><line x1="455.57" y1="620.28" x2="455.57" y2="645.8" fill="none" stroke="#000" stroke-miterlimit="10" stroke-width="5"/><line x1="430.05" y1="661.89" x2="430.05" y2="713.52" fill="none" stroke="#000" stroke-miterlimit="10" stroke-width="5"/><line x1="446.74" y1="662.29" x2="481.09" y2="687.8" fill="none" stroke="#000" stroke-miterlimit="10" stroke-width="5"/><line x1="446.74" y1="713.32" x2="481.09" y2="687.8" fill="none" stroke="#000" stroke-miterlimit="10" stroke-width="5"/><rect x="497.97" y="730.75" width="84.5" height="84.47" fill="none" stroke="#000" stroke-miterlimit="10" stroke-width="5"/><line x1="548.81" y1="747.48" x2="565.89" y2="772.99" fill="none" stroke="#000" stroke-miterlimit="10" stroke-width="5"/><line x1="548.81" y1="798.51" x2="565.89" y2="772.99" fill="none" stroke="#000" stroke-miterlimit="10" stroke-width="5"/><path d="m531.73,789.68c0,4.77-3.87,8.64-8.64,8.64s-8.64-3.87-8.64-8.64" fill="none" stroke="#000" stroke-miterlimit="10" stroke-width="5"/><line x1="514.46" y1="747.28" x2="514.46" y2="789.68" fill="none" stroke="#000" stroke-miterlimit="10" stroke-width="5"/><line x1="531.73" y1="747.28" x2="531.73" y2="790.46" fill="none" stroke="#000" stroke-miterlimit="10" stroke-width="5"/><rect x="497.97" y="560.9" width="84.5" height="84.7" fill="none" stroke="#000" stroke-miterlimit="10" stroke-width="5"/><rect x="497.97" y="646" width="84.4" height="84.4" fill="none" stroke="#000" stroke-miterlimit="10" stroke-width="5"/><line x1="540.37" y1="560.9" x2="540.37" y2="585.93" fill="none" stroke="#000" stroke-miterlimit="10" stroke-width="5"/><line x1="565.49" y1="585.93" x2="540.37" y2="585.93" fill="none" stroke="#000" stroke-miterlimit="10" stroke-width="5"/><line x1="540.56" y1="620.09" x2="565.69" y2="620.09" fill="none" stroke="#000" stroke-miterlimit="10" stroke-width="5"/><line x1="565.49" y1="586.32" x2="565.49" y2="620.09" fill="none" stroke="#000" stroke-miterlimit="10" stroke-width="5"/><line x1="540.37" y1="620.28" x2="540.37" y2="645.8" fill="none" stroke="#000" stroke-miterlimit="10" stroke-width="5"/><line x1="514.85" y1="661.89" x2="514.85" y2="713.52" fill="none" stroke="#000" stroke-miterlimit="10" stroke-width="5"/><line x1="531.54" y1="662.29" x2="565.89" y2="687.8" fill="none" stroke="#000" stroke-miterlimit="10" stroke-width="5"/><line x1="531.54" y1="713.32" x2="565.89" y2="687.8" fill="none" stroke="#000" stroke-miterlimit="10" stroke-width="5"/><rect x="582.37" y="560.9" width="85.24" height="254.32" fill="none" stroke="#000" stroke-miterlimit="10" stroke-width="5"/><polygon points="625.13 696.44 608.28 730.2 641.97 730.2 625.13 696.44"/><polygon points="625.13 679.56 641.97 645.8 608.28 645.8 625.13 679.56"/><line x1="709.96" y1="476.01" x2="709.96" y2="645.6" fill="none" stroke="#000" stroke-miterlimit="10" stroke-width="5"/><line x1="709.76" y1="730.4" x2="709.76" y2="772.8" fill="none" stroke="#000" stroke-miterlimit="10" stroke-width="5"/><rect x="667.17" y="560.9" width="85.24" height="254.32" fill="none" stroke="#000" stroke-miterlimit="10" stroke-width="5"/><polygon points="709.92 696.44 693.08 730.2 726.76 730.2 709.92 696.44"/><polygon points="709.92 679.56 726.76 645.8 693.08 645.8 709.92 679.56"/><line x1="794.76" y1="433.61" x2="794.76" y2="645.6" fill="none" stroke="#000" stroke-miterlimit="10" stroke-width="5"/><line x1="794.56" y1="730.4" x2="794.56" y2="772.8" fill="none" stroke="#000" stroke-miterlimit="10" stroke-width="5"/><rect x="751.97" y="560.9" width="85.24" height="254.32" fill="none" stroke="#000" stroke-miterlimit="10" stroke-width="5"/><polygon points="794.72 696.44 777.88 730.2 811.56 730.2 794.72 696.44"/><polygon points="794.72 679.56 811.56 645.8 777.88 645.8 794.72 679.56"/><line x1="879.55" y1="391.21" x2="879.55" y2="645.6" fill="none" stroke="#000" stroke-miterlimit="10" stroke-width="5"/><line x1="879.36" y1="730.4" x2="879.36" y2="772.8" fill="none" stroke="#000" stroke-miterlimit="10" stroke-width="5"/><rect x="836.76" y="560.9" width="85.24" height="254.32" fill="none" stroke="#000" stroke-miterlimit="10" stroke-width="5"/><polygon points="879.51 696.44 862.67 730.2 896.36 730.2 879.51 696.44"/><polygon points="879.51 679.56 896.36 645.8 862.67 645.8 879.51 679.56"/><path d="m608.05,849.72c-.09-.52-.16-1.21-.16-2.09,0-1.07.25-1.86.7-2.36.4-.46,1.01-.74,1.76-.74s1.36.22,1.8.65c.61.57.92,1.51.92,2.57,0,.32-.01.62-.07.87h3.37v1.09h-8.32Zm4.06-1.09c.06-.24.09-.54.09-.9,0-1.31-.64-2.11-1.8-2.11s-1.65.79-1.65,1.99c0,.47.04.84.09,1.02h3.27Z"/><path d="m612.42,838.72v3.27h3.04v-3.65h.91v4.73h-8.42v-4.55h.91v3.46h2.66v-3.27h.9Z"/><path d="m269.52,231.38v.03l.8,1.48-.87.22-.99-1.85v-.98h8.49v1.11h-7.42Z"/><path d="m276.86,849.73h-.69l-.85-.88c-2.01-2.11-3.08-3.06-4.32-3.08-.84,0-1.61.41-1.61,1.64,0,.75.38,1.37.7,1.75l-.79.36c-.48-.57-.84-1.39-.84-2.34,0-1.78,1.22-2.53,2.4-2.53,1.53,0,2.76,1.11,4.44,2.85l.61.66h.03v-3.71h.93v5.28Z"/><path d="m531.53,236.65h-8.5v-1.2l4.3-2.72c1-.63,1.89-1.12,2.76-1.53v-.03c-1.15.1-2.18.13-3.51.13h-3.56v-1.03h8.5v1.11l-4.31,2.7c-.95.59-1.92,1.16-2.84,1.59v.04c1.08-.06,2.11-.09,3.52-.09h3.63v1.03Z"/><path d="m531.51,849.73h-8.49v-1.2l4.29-2.72c.99-.63,1.89-1.12,2.76-1.52v-.03c-1.15.1-2.18.13-3.5.13h-3.55v-1.03h8.49v1.11l-4.31,2.69c-.94.59-1.91,1.16-2.83,1.59v.04c1.08-.06,2.1-.09,3.51-.09h3.63v1.03Z"/><path d="m360.38,235.02c.2-.32.52-1.05.52-1.82,0-1.43-.91-1.87-1.59-1.86-1.15.01-1.64,1.05-1.64,2.12v.62h-.83v-.62c0-.81-.42-1.83-1.39-1.83-.66,0-1.24.42-1.24,1.44,0,.66.29,1.29.54,1.64l-.81.29c-.32-.43-.63-1.26-.63-2.15,0-1.62.96-2.35,1.96-2.35.85,0,1.57.51,1.93,1.52h.03c.2-1.01.96-1.83,2.11-1.83,1.31,0,2.46,1.02,2.46,2.99,0,.92-.29,1.73-.56,2.13l-.86-.3Z"/><path d="m361.75,845.87h-2.3v3.92h-.75l-5.38-3.76v-1.23h5.24v-1.18h.9v1.18h2.3v1.08Zm-3.19,0h-2.82c-.44,0-.88-.01-1.32-.04v.04c.49.26.86.47,1.25.7l2.87,2.06h.03v-2.76Z"/><path d="m439.11,230.37v3.17l2.13.32c-.03-.19-.05-.37-.05-.68,0-.64.14-1.28.45-1.79.37-.65,1.09-1.19,2.13-1.19,1.62,0,2.83,1.29,2.83,3.09,0,.91-.26,1.67-.51,2.07l-.86-.28c.2-.34.46-1.02.46-1.77,0-1.06-.69-1.97-1.8-1.97-1.07.01-1.84.73-1.84,2.39,0,.47.05.84.09,1.15l-3.98-.54v-3.97h.94Z"/><path d="m439.08,844.9c-.01.23,0,.52.05.83.29,1.75,1.57,2.67,2.92,2.86v-.04c-.52-.39-.95-1.07-.95-1.99,0-1.45,1.05-2.48,2.66-2.48,1.5,0,2.9,1.02,2.9,2.73s-1.37,2.91-3.5,2.91c-1.62,0-2.9-.58-3.71-1.39-.67-.68-1.09-1.59-1.21-2.63-.05-.33-.06-.61-.06-.81h.91Zm4.74.32c-1.18,0-1.88.67-1.88,1.69,0,.67.42,1.29,1.01,1.59.13.08.29.13.49.13,1.35-.03,2.35-.64,2.35-1.81,0-.96-.8-1.61-1.97-1.61Z"/><line x1="217.67" y1="306.42" x2="223.67" y2="306.42" fill="none" stroke="#000" stroke-miterlimit="10" stroke-width="5"/><line x1="235.24" y1="306.42" x2="506.99" y2="306.42" fill="none" stroke="#000" stroke-dasharray="0 0 11.56 11.56" stroke-miterlimit="10" stroke-width="5"/><line x1="512.78" y1="306.42" x2="518.78" y2="306.42" fill="none" stroke="#000" stroke-miterlimit="10" stroke-width="5"/><line x1="158.2" y1="306.42" x2="164.2" y2="306.42" fill="none" stroke="#000" stroke-miterlimit="10" stroke-width="5"/><line x1="178.5" y1="306.42" x2="184.5" y2="306.42" fill="none" stroke="#000" stroke-miterlimit="10" stroke-width="5"/><line x1="200.79" y1="323.69" x2="200.79" y2="329.69" fill="none" stroke="#000" stroke-miterlimit="10" stroke-width="5"/><line x1="200.8" y1="341.52" x2="200.98" y2="761.28" fill="none" stroke="#000" stroke-dasharray="0 0 11.82 11.82" stroke-miterlimit="10" stroke-width="5"/><line x1="200.98" y1="767.19" x2="200.99" y2="773.19" fill="none" stroke="#000" stroke-miterlimit="10" stroke-width="5"/><line x1="200.99" y1="603.2" x2="206.99" y2="603.2" fill="none" stroke="#000" stroke-miterlimit="10" stroke-width="5"/><line x1="217.25" y1="603.2" x2="232.65" y2="603.2" fill="none" stroke="#000" stroke-dasharray="0 0 10.26 10.26" stroke-miterlimit="10" stroke-width="5"/><line x1="237.78" y1="603.2" x2="243.78" y2="603.2" fill="none" stroke="#000" stroke-miterlimit="10" stroke-width="5"/><line x1="200.99" y1="688" x2="206.99" y2="688" fill="none" stroke="#000" stroke-miterlimit="10" stroke-width="5"/><line x1="217.25" y1="688" x2="232.65" y2="688" fill="none" stroke="#000" stroke-dasharray="0 0 10.26 10.26" stroke-miterlimit="10" stroke-width="5"/><line x1="237.78" y1="688" x2="243.78" y2="688" fill="none" stroke="#000" stroke-miterlimit="10" stroke-width="5"/><line x1="200.99" y1="773.19" x2="206.99" y2="773.19" fill="none" stroke="#000" stroke-miterlimit="10" stroke-width="5"/><line x1="217.25" y1="773.19" x2="232.65" y2="773.19" fill="none" stroke="#000" stroke-dasharray="0 0 10.26 10.26" stroke-miterlimit="10" stroke-width="5"/><line x1="237.78" y1="773.19" x2="243.78" y2="773.19" fill="none" stroke="#000" stroke-miterlimit="10" stroke-width="5"/><rect id="Base" width="1080" height="1080" opacity="0"/></g></g></svg>