<?xml version="1.0" encoding="UTF-8"?><svg id="Capa_2" xmlns="http://www.w3.org/2000/svg" viewBox="0 0 1080 1080"><g id="Capa_1-2"><g id="Multifilar_-_Detector_de_proximidad_capacitivo"><rect x="348.61" y="441.96" width="56.68" height="56.68" transform="translate(442.96 -128.8) rotate(45)" fill="none" stroke="#000" stroke-miterlimit="10" stroke-width="5"/><rect x="241.67" y="402.45" width="271.4" height="271.4" fill="none" stroke="#000" stroke-miterlimit="10" stroke-width="5"/><line x1="377.37" y1="403.08" x2="377.37" y2="266.97" fill="none" stroke="#000" stroke-miterlimit="10" stroke-width="5"/><line x1="377.37" y1="673.85" x2="377.37" y2="811.23" fill="none" stroke="#000" stroke-miterlimit="10" stroke-width="5"/><line x1="360.99" y1="446.18" x2="360.99" y2="494.42" fill="none" stroke="#000" stroke-miterlimit="10" stroke-width="5"/><line x1="392.91" y1="446.18" x2="392.91" y2="494.42" fill="none" stroke="#000" stroke-miterlimit="10" stroke-width="5"/><line x1="404.09" y1="538.5" x2="404.09" y2="646.49" fill="none" stroke="#000" stroke-miterlimit="10" stroke-width="5"/><line x1="349.81" y1="538.5" x2="349.81" y2="646.49" fill="none" stroke="#000" stroke-miterlimit="10" stroke-width="5"/><line x1="295.53" y1="592.5" x2="349.81" y2="592.5" fill="none" stroke="#000" stroke-miterlimit="10" stroke-width="5"/><line x1="404.09" y1="592.5" x2="458.37" y2="592.5" fill="none" stroke="#000" stroke-miterlimit="10" stroke-width="5"/><rect x="158" y="484.72" width="26.74" height="108.18" fill="none" stroke="#000" stroke-miterlimit="10" stroke-width="5"/><line x1="158.3" y1="484.72" x2="185.04" y2="511.77" fill="none" stroke="#000" stroke-miterlimit="10" stroke-width="5"/><line x1="185.04" y1="537.58" x2="158.3" y2="511.77" fill="none" stroke="#000" stroke-miterlimit="10" stroke-width="5"/><line x1="158.3" y1="538.81" x2="185.04" y2="565.86" fill="none" stroke="#000" stroke-miterlimit="10" stroke-width="5"/><line x1="185.04" y1="591.67" x2="158.3" y2="565.86" fill="none" stroke="#000" stroke-miterlimit="10" stroke-width="5"/><line x1="677.08" y1="404.39" x2="784.47" y2="648.35" fill="none" stroke="#000" stroke-miterlimit="10" stroke-width="5"/><line x1="649.36" y1="266.97" x2="649.36" y2="430.97" fill="none" stroke="#000" stroke-miterlimit="10" stroke-width="5"/><line x1="704.3" y1="430.4" x2="649.36" y2="430.4" fill="none" stroke="#000" stroke-miterlimit="10" stroke-width="5"/><line x1="866.21" y1="430.4" x2="922" y2="430.4" fill="none" stroke="#000" stroke-miterlimit="10" stroke-width="5"/><line x1="921.51" y1="268.33" x2="921.51" y2="430.3" fill="none" stroke="#000" stroke-miterlimit="10" stroke-width="5"/><line x1="784.47" y1="648.35" x2="784.18" y2="813.03" fill="none" stroke="#000" stroke-miterlimit="10" stroke-width="5"/><path d="m734.26,779.17v.08l2.55,4.73-2.81.71-3.18-5.95v-3.14h27.21v3.56h-23.78Z"/><path d="m734.26,757.69v.08l2.55,4.73-2.81.71-3.18-5.95v-3.14h27.21v3.56h-23.78Z"/><path d="m598.59,325.17v.08l2.51,4.65-2.75.7-3.12-5.84v-3.08h26.72v3.5h-23.35Z"/><path d="m621.94,311.93h-2.22l-2.75-2.84c-6.5-6.83-9.95-9.91-13.98-9.95-2.71,0-5.22,1.32-5.22,5.3,0,2.43,1.23,4.44,2.26,5.67l-2.55,1.15c-1.56-1.85-2.71-4.48-2.71-7.57,0-5.76,3.95-8.18,7.77-8.18,4.93,0,8.92,3.58,14.35,9.21l1.97,2.14h.08v-12.01h3v17.06Z"/><path d="m870.33,327.02v.08l2.55,4.73-2.81.71-3.18-5.95v-3.14h27.21v3.56h-23.78Z"/><path d="m894.11,302.15h-7.41v12.64h-2.43l-17.37-12.14v-3.98h16.91v-3.81h2.89v3.81h7.41v3.47Zm-10.3,0h-9.08c-1.42,0-2.85-.04-4.27-.13v.13c1.59.84,2.76,1.51,4.02,2.26l9.25,6.66h.08v-8.92Z"/><path d="m341.29,325.27l8.56,2.83v3.63l-27.21-9.24v-4.24l27.21-9.29v3.75l-8.56,2.91v9.65Zm-2.75-8.92l-7.83,2.66c-1.78.61-3.39,1.01-4.97,1.41v.08c1.62.4,3.27.85,4.93,1.37l7.87,2.67v-8.2Z"/><path d="m326.92,298.49v.08l2.46,4.56-2.71.69-3.07-5.73v-3.03h26.24v3.43h-22.93Z"/><path d="m341.29,777.86l8.56,2.83v3.63l-27.21-9.24v-4.24l27.21-9.29v3.75l-8.56,2.91v9.65Zm-2.75-8.92l-7.83,2.66c-1.78.61-3.39,1.01-4.97,1.41v.08c1.62.4,3.27.85,4.93,1.37l7.87,2.67v-8.2Z"/><path d="m349.85,758.79h-2.18l-2.71-2.78c-6.38-6.7-9.77-9.73-13.73-9.77-2.66,0-5.13,1.29-5.13,5.21,0,2.38,1.21,4.36,2.22,5.57l-2.5,1.13c-1.53-1.82-2.66-4.4-2.66-7.43,0-5.65,3.88-8.03,7.63-8.03,4.85,0,8.76,3.51,14.09,9.04l1.94,2.1h.08v-11.79h2.95v16.75Z"/><line x1="511.96" y1="539.49" x2="517.96" y2="539.49" fill="none" stroke="#000" stroke-miterlimit="10" stroke-width="5"/><line x1="530.44" y1="539.49" x2="724.03" y2="539.49" fill="none" stroke="#000" stroke-dasharray="0 0 12.49 12.49" stroke-miterlimit="10" stroke-width="5"/><line x1="730.27" y1="539.49" x2="736.27" y2="539.49" fill="none" stroke="#000" stroke-miterlimit="10" stroke-width="5"/><rect id="Base" width="1080" height="1080" opacity="0"/></g></g></svg>