<?xml version="1.0" encoding="UTF-8"?><svg id="Capa_2" xmlns="http://www.w3.org/2000/svg" viewBox="0 0 1080 1080"><g id="Capa_1-2"><g id="Multifilar_-_Interruptor"><line x1="667.53" y1="666.94" x2="667.53" y2="922" fill="none" stroke="#000" stroke-miterlimit="10" stroke-width="5"/><line x1="540" y1="411.29" x2="667.53" y2="666.35" fill="none" stroke="#000" stroke-miterlimit="10" stroke-width="5"/><line x1="412.47" y1="465.2" x2="412.47" y2="617.53" fill="none" stroke="#000" stroke-miterlimit="10" stroke-width="5"/><line x1="514.02" y1="541.36" x2="520.02" y2="541.36" fill="none" stroke="#000" stroke-miterlimit="10" stroke-width="5"/><line x1="531.04" y1="541.36" x2="591.66" y2="541.36" fill="none" stroke="#000" stroke-dasharray="0 0 11.02 11.02" stroke-miterlimit="10" stroke-width="5"/><line x1="597.17" y1="541.36" x2="603.17" y2="541.36" fill="none" stroke="#000" stroke-miterlimit="10" stroke-width="5"/><line x1="412.47" y1="541.36" x2="418.47" y2="541.36" fill="none" stroke="#000" stroke-miterlimit="10" stroke-width="5"/><line x1="431.4" y1="541.36" x2="450.78" y2="541.36" fill="none" stroke="#000" stroke-dasharray="0 0 12.93 12.93" stroke-miterlimit="10" stroke-width="5"/><line x1="457.25" y1="541.36" x2="463.25" y2="541.36" fill="none" stroke="#000" stroke-miterlimit="10" stroke-width="5"/><line x1="463.25" y1="541.36" x2="489.22" y2="593.32" fill="none" stroke="#000" stroke-miterlimit="10" stroke-width="5"/><line x1="667.53" y1="158" x2="667.53" y2="411.88" fill="none" stroke="#000" stroke-miterlimit="10" stroke-width="5"/><line x1="514.02" y1="541.36" x2="489.22" y2="593.32" fill="none" stroke="#000" stroke-miterlimit="10" stroke-width="5"/><path d="m637.33,199.01c.61-.95,1.55-3.14,1.55-5.45,0-4.28-2.73-5.61-4.77-5.57-3.45.04-4.92,3.14-4.92,6.36v1.86h-2.5v-1.86c0-2.42-1.25-5.49-4.17-5.49-1.97,0-3.71,1.25-3.71,4.32,0,1.97.87,3.86,1.63,4.92l-2.42.87c-.95-1.29-1.89-3.79-1.89-6.44,0-4.85,2.88-7.05,5.87-7.05,2.54,0,4.7,1.51,5.8,4.55h.08c.61-3.03,2.88-5.49,6.33-5.49,3.94,0,7.39,3.07,7.39,8.98,0,2.77-.87,5.19-1.67,6.4l-2.58-.91Z"/><path d="m641.58,885.48h-6.93v11.83h-2.27l-16.25-11.36v-3.72h15.82v-3.56h2.7v3.56h6.93v3.25Zm-9.63,0h-8.5c-1.33,0-2.66-.04-3.99-.12v.12c1.49.78,2.58,1.41,3.76,2.12l8.66,6.23h.08v-8.34Z"/><rect id="Base" width="1080" height="1080" opacity="0"/></g></g></svg>