<?xml version="1.0" encoding="UTF-8"?><svg id="Capa_2" xmlns="http://www.w3.org/2000/svg" viewBox="0 0 1080 1080"><g id="Capa_1-2"><g id="Multifilar_-_Transistor_Power_MOSFET_de_canal_P_con_diodo_IEC"><circle cx="646.86" cy="540.22" r="146.48" fill="none" stroke="#000" stroke-miterlimit="10" stroke-width="5"/><line x1="705.76" y1="247.26" x2="705.76" y2="480.52" fill="none" stroke="#000" stroke-miterlimit="10" stroke-width="5"/><line x1="587.64" y1="480.52" x2="587.64" y2="599.92" fill="none" stroke="#000" stroke-miterlimit="10" stroke-width="5"/><line x1="705.76" y1="539.3" x2="705.76" y2="833.19" fill="none" stroke="#000" stroke-miterlimit="10" stroke-width="5"/><line x1="617.65" y1="480.52" x2="705.76" y2="480.52" fill="none" stroke="#000" stroke-miterlimit="10" stroke-width="5"/><line x1="617.65" y1="598.07" x2="705.76" y2="598.07" fill="none" stroke="#000" stroke-miterlimit="10" stroke-width="5"/><line x1="351.81" y1="598.07" x2="586.9" y2="598.07" fill="none" stroke="#000" stroke-miterlimit="10" stroke-width="5"/><line x1="617.65" y1="540.03" x2="705.76" y2="540.03" fill="none" stroke="#000" stroke-miterlimit="10" stroke-width="5"/><line x1="617.76" y1="465.09" x2="617.76" y2="495.95" fill="none" stroke="#000" stroke-miterlimit="10" stroke-width="5"/><line x1="617.76" y1="524.6" x2="617.76" y2="555.46" fill="none" stroke="#000" stroke-miterlimit="10" stroke-width="5"/><line x1="617.72" y1="582.64" x2="617.72" y2="613.5" fill="none" stroke="#000" stroke-miterlimit="10" stroke-width="5"/><circle cx="706.22" cy="628.62" r="10.12"/><circle cx="706.22" cy="452.29" r="10.12"/><line x1="749.3" y1="451.87" x2="749.3" y2="628.19" fill="none" stroke="#000" stroke-miterlimit="10" stroke-width="5"/><line x1="766.93" y1="553.1" x2="731.67" y2="553.1" fill="none" stroke="#000" stroke-miterlimit="10" stroke-width="5"/><polyline points="647 554.9 676.03 540.03 647 525.16" fill="none" stroke="#000" stroke-miterlimit="10" stroke-width="5"/><line x1="750" y1="451.13" x2="705.92" y2="451.13" fill="none" stroke="#000" stroke-miterlimit="10" stroke-width="5"/><line x1="750" y1="628.93" x2="705.92" y2="628.93" fill="none" stroke="#000" stroke-miterlimit="10" stroke-width="5"/><polygon points="749.3 552.99 763.37 525.18 735.24 525.18 749.3 552.99" fill="none" fill-rule="evenodd" stroke="#000" stroke-miterlimit="10" stroke-width="5"/><line x1="766.93" y1="553.1" x2="731.67" y2="553.1" fill="none" stroke="#000" stroke-miterlimit="10" stroke-width="5"/><path d="m726.75,214.07c-2.71,1.35-8.12,2.71-15.05,2.71-16.07,0-28.16-10.15-28.16-28.84s12.09-29.94,29.77-29.94c7.1,0,11.59,1.52,13.53,2.54l-1.78,6c-2.79-1.35-6.76-2.37-11.5-2.37-13.36,0-22.24,8.54-22.24,23.51,0,13.95,8.03,22.92,21.9,22.92,4.48,0,9.05-.93,12.01-2.37l1.52,5.84Z"/><path d="m286.65,568.86c3.33-.7,8.58-1.23,13.93-1.23,7.62,0,12.53,1.31,16.21,4.29,3.07,2.28,4.91,5.78,4.91,10.42,0,5.69-3.77,10.69-9.99,12.97v.17c5.61,1.4,12.18,6.05,12.18,14.81,0,5.08-2.01,8.94-4.99,11.83-4.12,3.77-10.78,5.52-20.41,5.52-5.26,0-9.29-.35-11.83-.7v-58.08Zm7.62,24.18h6.92c8.06,0,12.79-4.21,12.79-9.9,0-6.92-5.26-9.64-12.97-9.64-3.5,0-5.52.26-6.75.53v19.01Zm0,28.3c1.49.26,3.68.35,6.39.35,7.88,0,15.16-2.89,15.16-11.48,0-8.06-6.92-11.39-15.24-11.39h-6.31v22.51Z"/><path d="m719.16,894.32h-22.95v21.29h25.58v6.4h-33.2v-59.05h31.89v6.4h-24.27v18.66h22.95v6.31Z"/><rect id="Base" width="1080" height="1080" opacity="0"/></g></g></svg>