<?xml version="1.0" encoding="UTF-8"?><svg id="Capa_2" xmlns="http://www.w3.org/2000/svg" viewBox="0 0 1080 1080"><g id="Capa_1-2"><g id="Multifilar_-_Electroválvula_de_agua"><rect x="158" y="468.84" width="277.69" height="139.65" fill="none" stroke="#000" stroke-miterlimit="10" stroke-width="5"/><polygon points="817.84 539.46 921.32 366.11 714.37 366.11 817.84 539.46" fill="none" stroke="#000" stroke-miterlimit="10" stroke-width="5"/><polygon points="818.52 539.39 715.05 712.75 922 712.75 818.52 539.39" fill="none" stroke="#000" stroke-miterlimit="10" stroke-width="5"/><line x1="435.69" y1="520.2" x2="807.1" y2="520.2" fill="none" stroke="#000" stroke-miterlimit="10" stroke-width="5"/><line x1="435.69" y1="553.91" x2="807.1" y2="553.91" fill="none" stroke="#000" stroke-miterlimit="10" stroke-width="5"/><line x1="818.47" y1="366.91" x2="818.47" y2="191.97" fill="none" stroke="#000" stroke-miterlimit="10" stroke-width="5"/><line x1="818.47" y1="712.82" x2="818.47" y2="888.03" fill="none" stroke="#000" stroke-miterlimit="10" stroke-width="5"/><line x1="296.04" y1="468.84" x2="296.04" y2="191.97" fill="none" stroke="#000" stroke-miterlimit="10" stroke-width="5"/><line x1="297.65" y1="608.49" x2="297.65" y2="888.03" fill="none" stroke="#000" stroke-miterlimit="10" stroke-width="5"/><path d="m251.37,265.56l10.89,3.6v4.63l-34.64-11.77v-5.4l34.64-11.82v4.78l-10.89,3.7v12.28Zm-3.49-11.36l-9.97,3.39c-2.26.77-4.32,1.29-6.32,1.8v.1c2.06.51,4.16,1.08,6.27,1.75l10.02,3.39v-10.43Z"/><path d="m233.08,231.49v.1l3.13,5.81-3.44.87-3.91-7.3v-3.85h33.4v4.37h-29.19Z"/><path d="m251.44,845.21l10.93,3.61v4.64l-34.74-11.8v-5.41l34.74-11.85v4.79l-10.93,3.71v12.32Zm-3.51-11.39l-10,3.4c-2.27.77-4.33,1.29-6.34,1.8v.1c2.06.52,4.17,1.08,6.29,1.75l10.05,3.4v-10.46Z"/><path d="m262.37,820.89h-2.78l-3.45-3.56c-8.14-8.56-12.47-12.42-17.53-12.47-3.4,0-6.55,1.65-6.55,6.65,0,3.04,1.55,5.57,2.83,7.11l-3.2,1.44c-1.96-2.32-3.4-5.62-3.4-9.48,0-7.22,4.95-10.26,9.74-10.26,6.19,0,11.19,4.48,17.99,11.55l2.47,2.68h.1v-15.05h3.76v21.39Z"/><rect id="Base" width="1080" height="1080" opacity="0"/></g></g></svg>