<?xml version="1.0" encoding="UTF-8"?><svg id="Capa_2" xmlns="http://www.w3.org/2000/svg" viewBox="0 0 1080 1080"><g id="Capa_1-2"><g id="Multifilar_-_Temporizador_con_doble_función_a_la_conexión-desconexión_bobina_"><line x1="612.22" y1="444.5" x2="612.22" y2="158" fill="none" stroke="#000" stroke-miterlimit="10" stroke-width="5"/><line x1="612.22" y1="635.5" x2="612.22" y2="922" fill="none" stroke="#000" stroke-miterlimit="10" stroke-width="5"/><rect x="231.42" y="444.5" width="618.36" height="193.2" fill="none" stroke="#000" stroke-miterlimit="10" stroke-width="5"/><rect x="230.22" y="444.5" width="143.25" height="193.39"/><line x1="516.72" y1="444.5" x2="516.72" y2="637.89" fill="none" stroke="#000" stroke-miterlimit="10" stroke-width="5"/><line x1="374.67" y1="443.31" x2="517.92" y2="636.69" fill="none" stroke="#000" stroke-miterlimit="10" stroke-width="5"/><line x1="517.92" y1="443.31" x2="374.67" y2="636.69" fill="none" stroke="#000" stroke-miterlimit="10" stroke-width="5"/><path d="m549.45,258.74l15.02,4.96v6.38l-47.75-16.22v-7.44l47.75-16.29v6.59l-15.02,5.1v16.93Zm-4.82-15.66l-13.74,4.67c-3.12,1.06-5.95,1.77-8.71,2.48v.14c2.83.71,5.74,1.49,8.64,2.41l13.82,4.67v-14.38Z"/><path d="m524.23,211.77v.14l4.32,8.01-4.75,1.2-5.38-10.06v-5.31h46.05v6.02h-40.24Z"/><path d="m549.45,862.91l15.02,4.96v6.38l-47.75-16.22v-7.44l47.75-16.29v6.59l-15.02,5.1v16.93Zm-4.82-15.66l-13.74,4.67c-3.12,1.06-5.95,1.77-8.71,2.48v.14c2.83.71,5.74,1.49,8.64,2.41l13.82,4.67v-14.38Z"/><path d="m564.47,829.48h-3.83l-4.75-4.89c-11.19-11.76-17.14-17.07-24.09-17.15-4.68,0-9,2.27-9,9.14,0,4.18,2.13,7.65,3.9,9.78l-4.39,1.98c-2.69-3.19-4.68-7.72-4.68-13.04,0-9.92,6.8-14.1,13.39-14.1,8.5,0,15.37,6.16,24.73,15.87l3.4,3.68h.14v-20.69h5.17v29.4Z"/><rect id="Base" width="1080" height="1080" opacity="0"/></g></g></svg>