<?xml version="1.0" encoding="UTF-8"?><svg id="Capa_2" xmlns="http://www.w3.org/2000/svg" viewBox="0 0 1080 1080"><g id="Capa_1-2"><g id="Multifilar_-_Detector_capacitivo"><rect x="158" y="385.83" width="304.54" height="304.54" fill="none" stroke="#000" stroke-miterlimit="10" stroke-width="5"/><line x1="310.98" y1="386.54" x2="310.98" y2="235.23" fill="none" stroke="#000" stroke-miterlimit="10" stroke-width="5"/><line x1="310.98" y1="690.37" x2="310.98" y2="845.32" fill="none" stroke="#000" stroke-miterlimit="10" stroke-width="5"/><rect x="278.47" y="430.16" width="63.6" height="63.6" transform="translate(417.53 -84.09) rotate(45)" fill="none" stroke="#000" stroke-miterlimit="10" stroke-width="5"/><line x1="292.36" y1="434.9" x2="292.36" y2="489.03" fill="none" stroke="#000" stroke-miterlimit="10" stroke-width="5"/><line x1="328.17" y1="434.9" x2="328.17" y2="489.03" fill="none" stroke="#000" stroke-miterlimit="10" stroke-width="5"/><line x1="340.72" y1="538.49" x2="340.72" y2="659.66" fill="none" stroke="#000" stroke-miterlimit="10" stroke-width="5"/><line x1="279.82" y1="538.49" x2="279.82" y2="659.66" fill="none" stroke="#000" stroke-miterlimit="10" stroke-width="5"/><line x1="218.91" y1="599.08" x2="279.82" y2="599.08" fill="none" stroke="#000" stroke-miterlimit="10" stroke-width="5"/><line x1="340.72" y1="599.08" x2="401.63" y2="599.08" fill="none" stroke="#000" stroke-miterlimit="10" stroke-width="5"/><line x1="647.57" y1="388.05" x2="767.9" y2="661.41" fill="none" stroke="#000" stroke-miterlimit="10" stroke-width="5"/><line x1="616.5" y1="234.07" x2="616.5" y2="417.83" fill="none" stroke="#000" stroke-miterlimit="10" stroke-width="5"/><line x1="678.06" y1="417.19" x2="616.5" y2="417.19" fill="none" stroke="#000" stroke-miterlimit="10" stroke-width="5"/><line x1="859.49" y1="417.19" x2="922" y2="417.19" fill="none" stroke="#000" stroke-miterlimit="10" stroke-width="5"/><line x1="921.45" y1="235.59" x2="921.45" y2="417.08" fill="none" stroke="#000" stroke-miterlimit="10" stroke-width="5"/><line x1="767.9" y1="661.41" x2="767.57" y2="845.93" fill="none" stroke="#000" stroke-miterlimit="10" stroke-width="5"/><path d="m711.64,807.99v.09l2.86,5.3-3.14.8-3.57-6.66v-3.52h30.49v3.99h-26.65Z"/><path d="m711.64,783.93v.09l2.86,5.3-3.14.8-3.57-6.66v-3.52h30.49v3.99h-26.65Z"/><path d="m864.1,301.35v.09l2.86,5.3-3.14.8-3.57-6.66v-3.52h30.49v3.99h-26.65Z"/><path d="m890.75,273.48h-8.3v14.17h-2.72l-19.47-13.6v-4.46h18.95v-4.27h3.24v4.27h8.3v3.89Zm-11.54,0h-10.18c-1.6,0-3.19-.05-4.78-.14v.14c1.78.94,3.1,1.69,4.5,2.53l10.37,7.46h.09v-9.99Z"/><path d="m559.61,299.27v.09l2.81,5.21-3.09.78-3.5-6.54v-3.46h29.95v3.92h-26.17Z"/><path d="m585.78,284.44h-2.49l-3.09-3.18c-7.28-7.65-11.15-11.1-15.66-11.15-3.04,0-5.85,1.47-5.85,5.94,0,2.72,1.38,4.98,2.53,6.36l-2.86,1.29c-1.75-2.07-3.04-5.02-3.04-8.48,0-6.45,4.42-9.17,8.71-9.17,5.53,0,10,4.01,16.08,10.32l2.21,2.4h.09v-13.45h3.36v19.12Z"/><path d="m271.31,299.39l9.59,3.17v4.07l-30.49-10.36v-4.75l30.49-10.41v4.21l-9.59,3.26v10.81Zm-3.08-10l-8.78,2.98c-1.99.68-3.8,1.13-5.56,1.58v.09c1.81.45,3.67.95,5.52,1.54l8.82,2.99v-9.18Z"/><path d="m255.2,269.38v.09l2.76,5.11-3.03.77-3.44-6.42v-3.39h29.41v3.85h-25.7Z"/><path d="m271.31,806.53l9.59,3.17v4.07l-30.49-10.36v-4.75l30.49-10.41v4.21l-9.59,3.26v10.81Zm-3.08-10l-8.78,2.98c-1.99.68-3.8,1.13-5.56,1.58v.09c1.81.45,3.67.95,5.52,1.54l8.82,2.99v-9.18Z"/><path d="m280.9,785.16h-2.44l-3.03-3.12c-7.15-7.51-10.95-10.9-15.38-10.95-2.99,0-5.75,1.45-5.75,5.84,0,2.67,1.36,4.89,2.49,6.24l-2.81,1.27c-1.72-2.04-2.99-4.93-2.99-8.33,0-6.33,4.34-9,8.55-9,5.43,0,9.82,3.94,15.79,10.13l2.17,2.35h.09v-13.21h3.3v18.77Z"/><line x1="462.54" y1="539.43" x2="468.54" y2="539.43" fill="none" stroke="#000" stroke-miterlimit="10" stroke-width="5"/><line x1="481.14" y1="539.43" x2="701.59" y2="539.43" fill="none" stroke="#000" stroke-dasharray="0 0 12.6 12.6" stroke-miterlimit="10" stroke-width="5"/><line x1="707.89" y1="539.43" x2="713.89" y2="539.43" fill="none" stroke="#000" stroke-miterlimit="10" stroke-width="5"/><rect id="Base" width="1080" height="1080" opacity="0"/></g></g></svg>