<?xml version="1.0" encoding="UTF-8"?><svg id="Capa_2" xmlns="http://www.w3.org/2000/svg" viewBox="0 0 1080 1080"><g id="Capa_1-2"><g id="Multifilar_-_Interruptor_magnético"><line x1="779.26" y1="658.95" x2="779.26" y2="897.95" fill="none" stroke="#000" stroke-miterlimit="10" stroke-width="5"/><line x1="779.26" y1="182.05" x2="779.26" y2="419.94" fill="none" stroke="#000" stroke-miterlimit="10" stroke-width="5"/><line x1="779.81" y1="419.39" x2="922" y2="419.39" fill="none" stroke="#000" stroke-miterlimit="10" stroke-width="5"/><line x1="922" y1="371.81" x2="779.26" y2="658.4" fill="none" stroke="#000" stroke-miterlimit="10" stroke-width="5"/><line x1="540.26" y1="658.95" x2="540.26" y2="897.95" fill="none" stroke="#000" stroke-miterlimit="10" stroke-width="5"/><line x1="420.75" y1="419.39" x2="540.26" y2="658.4" fill="none" stroke="#000" stroke-miterlimit="10" stroke-width="5"/><line x1="301.25" y1="538.89" x2="307.25" y2="538.89" fill="none" stroke="#000" stroke-miterlimit="10" stroke-width="5"/><line x1="319.48" y1="538.89" x2="826.9" y2="538.89" fill="none" stroke="#000" stroke-dasharray="0 0 12.23 12.23" stroke-miterlimit="10" stroke-width="5"/><line x1="833.01" y1="538.89" x2="839.01" y2="538.89" fill="none" stroke="#000" stroke-miterlimit="10" stroke-width="5"/><line x1="540.26" y1="182.05" x2="540.26" y2="419.94" fill="none" stroke="#000" stroke-miterlimit="10" stroke-width="5"/><path d="m734.01,208.7v.07l2.24,4.15-2.46.62-2.79-5.22v-2.75h23.88v3.12h-20.86Z"/><path d="m754.87,874.25h-1.95l-2.42-2.49c-5.71-6-8.74-8.7-12.28-8.74-2.38,0-4.59,1.16-4.59,4.66,0,2.13,1.08,3.9,1.99,4.98l-2.24,1.01c-1.37-1.63-2.38-3.94-2.38-6.65,0-5.06,3.47-7.19,6.83-7.19,4.33,0,7.84,3.14,12.61,8.09l1.73,1.88h.07v-10.55h2.64v14.99Z"/><path d="m512.15,219.32c.57-.89,1.46-2.95,1.46-5.12,0-4.01-2.56-5.26-4.48-5.22-3.23.04-4.62,2.95-4.62,5.97v1.74h-2.34v-1.74c0-2.27-1.17-5.15-3.91-5.15-1.85,0-3.48,1.17-3.48,4.05,0,1.85.82,3.62,1.53,4.62l-2.27.82c-.89-1.21-1.78-3.55-1.78-6.04,0-4.55,2.7-6.61,5.51-6.61,2.38,0,4.41,1.42,5.44,4.26h.07c.57-2.84,2.7-5.15,5.93-5.15,3.69,0,6.93,2.88,6.93,8.42,0,2.59-.82,4.87-1.56,6l-2.42-.85Z"/><path d="m516.13,863.16h-6.5v11.09h-2.13l-15.24-10.65v-3.49h14.84v-3.34h2.53v3.34h6.5v3.05Zm-9.04,0h-7.97c-1.25,0-2.5-.04-3.75-.11v.11c1.4.74,2.42,1.32,3.53,1.98l8.12,5.84h.07v-7.82Z"/><g id="Multifilar_-_Sensor_de_proximidad"><polygon points="265.47 575.2 229.62 539.49 265.47 503.5 301.32 539.49 265.47 575.2" fill="none" stroke="#000" stroke-miterlimit="10" stroke-width="5"/><line x1="251.2" y1="517.77" x2="251.2" y2="560.93" fill="none" stroke="#000" stroke-miterlimit="10" stroke-width="5"/><line x1="279.75" y1="517.77" x2="279.75" y2="560.93" fill="none" stroke="#000" stroke-miterlimit="10" stroke-width="5"/></g><polygon points="205.75 516.12 205.75 492.25 158 492.25 158 496.73 158 516.12 158 563.28 158 585.36 158 587.75 205.75 587.75 205.75 563.28 181.88 563.28 181.88 516.12 205.75 516.12"/><rect id="Base" width="1080" height="1080" opacity="0"/></g></g></svg>