<?xml version="1.0" encoding="UTF-8"?><svg id="Capa_2" xmlns="http://www.w3.org/2000/svg" viewBox="0 0 1080 1080"><g id="Capa_1-2"><g id="Multifilar_-_Interruptor_diferencial_rearmable_tetrapolar"><line x1="658.72" y1="272.76" x2="658.72" y2="384.09" fill="none" stroke="#000" stroke-miterlimit="10" stroke-width="5"/><line x1="324.99" y1="272.76" x2="324.99" y2="384.09" fill="none" stroke="#000" stroke-miterlimit="10" stroke-width="5"/><line x1="268.81" y1="383.83" x2="324.99" y2="495.93" fill="none" stroke="#000" stroke-miterlimit="10" stroke-width="5"/><line x1="603.31" y1="383.83" x2="658.97" y2="495.68" fill="none" stroke="#000" stroke-miterlimit="10" stroke-width="5"/><line x1="324.48" y1="495.68" x2="324.48" y2="807.24" fill="none" stroke="#000" stroke-miterlimit="10" stroke-width="5"/><line x1="658.97" y1="495.68" x2="658.97" y2="807.24" fill="none" stroke="#000" stroke-miterlimit="10" stroke-width="5"/><circle cx="658.97" cy="517.84" r="5.41"/><circle cx="658.97" cy="350.33" r="5.41"/><circle cx="324.99" cy="306.01" r="5.41"/><line x1="658.72" y1="517.58" x2="770.04" y2="517.58" fill="none" stroke="#000" stroke-miterlimit="10" stroke-width="5"/><line x1="769.79" y1="495.68" x2="769.79" y2="517.84" fill="none" stroke="#000" stroke-miterlimit="10" stroke-width="5"/><line x1="714.12" y1="383.83" x2="769.79" y2="495.68" fill="none" stroke="#000" stroke-miterlimit="10" stroke-width="5"/><line x1="825.96" y1="539.48" x2="881.63" y2="651.33" fill="none" stroke="#000" stroke-miterlimit="10" stroke-width="5"/><line x1="769.79" y1="328.17" x2="769.79" y2="383.83" fill="none" stroke="#000" stroke-miterlimit="10" stroke-width="5"/><line x1="881.63" y1="328.17" x2="769.79" y2="328.17" fill="none" stroke="#000" stroke-miterlimit="10" stroke-width="5"/><line x1="881.63" y1="383.83" x2="881.63" y2="328.17" fill="none" stroke="#000" stroke-miterlimit="10" stroke-width="5"/><line x1="881.63" y1="495.93" x2="881.63" y2="540.26" fill="none" stroke="#000" stroke-miterlimit="10" stroke-width="5"/><line x1="881.63" y1="651.59" x2="881.63" y2="695.91" fill="none" stroke="#000" stroke-miterlimit="10" stroke-width="5"/><rect x="858.95" y="383.83" width="44.84" height="111.84" fill="none" stroke="#000" stroke-miterlimit="10" stroke-width="5"/><line x1="758.96" y1="561.9" x2="758.96" y2="628.91" fill="none" stroke="#000" stroke-miterlimit="10" stroke-width="5"/><line x1="758.7" y1="562.16" x2="781.38" y2="562.16" fill="none" stroke="#000" stroke-miterlimit="10" stroke-width="5"/><line x1="759.22" y1="629.17" x2="781.38" y2="629.17" fill="none" stroke="#000" stroke-miterlimit="10" stroke-width="5"/><line x1="881.63" y1="695.91" x2="546.87" y2="695.91" fill="none" stroke="#000" stroke-miterlimit="10" stroke-width="5"/><path d="m703.41,629.17c12.31,0,22.29-9.98,22.29-22.29s-9.98-22.29-22.29-22.29" fill="none" stroke="#000" stroke-miterlimit="10" stroke-width="5"/><path d="m279.97,584.58c-12.31,0-22.29,9.98-22.29,22.29s9.98,22.29,22.29,22.29" fill="none" stroke="#000" stroke-miterlimit="10" stroke-width="5"/><line x1="279.84" y1="584.58" x2="703.41" y2="584.58" fill="none" stroke="#000" stroke-miterlimit="10" stroke-width="5"/><line x1="279.84" y1="629.17" x2="703.41" y2="629.17" fill="none" stroke="#000" stroke-miterlimit="10" stroke-width="5"/><path d="m257.93,629.17c12.31,0,22.29-9.98,22.29-22.29s-9.98-22.29-22.29-22.29" fill="none" stroke="#000" stroke-miterlimit="10" stroke-width="5"/><line x1="180.42" y1="584.58" x2="257.93" y2="584.58" fill="none" stroke="#000" stroke-miterlimit="10" stroke-width="5"/><line x1="180.42" y1="629.17" x2="257.93" y2="629.17" fill="none" stroke="#000" stroke-miterlimit="10" stroke-width="5"/><line x1="180.68" y1="595.66" x2="180.68" y2="584.84" fill="none" stroke="#000" stroke-miterlimit="10" stroke-width="5"/><line x1="180.68" y1="617.83" x2="180.68" y2="629.17" fill="none" stroke="#000" stroke-miterlimit="10" stroke-width="5"/><rect x="158.52" y="595.66" width="44.32" height="22.16" fill="none" stroke="#000" stroke-miterlimit="10" stroke-width="5"/><line x1="436.32" y1="272.76" x2="436.32" y2="384.09" fill="none" stroke="#000" stroke-miterlimit="10" stroke-width="5"/><line x1="380.65" y1="384.35" x2="436.32" y2="495.93" fill="none" stroke="#000" stroke-miterlimit="10" stroke-width="5"/><line x1="435.8" y1="495.68" x2="435.8" y2="807.24" fill="none" stroke="#000" stroke-miterlimit="10" stroke-width="5"/><line x1="547.65" y1="272.76" x2="547.65" y2="384.09" fill="none" stroke="#000" stroke-miterlimit="10" stroke-width="5"/><line x1="491.98" y1="384.35" x2="547.65" y2="495.93" fill="none" stroke="#000" stroke-miterlimit="10" stroke-width="5"/><line x1="547.13" y1="495.68" x2="547.13" y2="807.24" fill="none" stroke="#000" stroke-miterlimit="10" stroke-width="5"/><circle cx="547.13" cy="696.17" r="5.41"/><rect x="191.5" y="417.42" width="44.32" height="44.32" fill="none" stroke="#000" stroke-miterlimit="10" stroke-width="5"/><line x1="158" y1="417.16" x2="158" y2="462" fill="none" stroke="#000" stroke-miterlimit="10" stroke-width="5"/><line x1="191.5" y1="439.58" x2="235.83" y2="439.58" fill="none" stroke="#000" stroke-miterlimit="10" stroke-width="5"/><line x1="213.66" y1="417.16" x2="213.66" y2="462" fill="none" stroke="#000" stroke-miterlimit="10" stroke-width="5"/><polygon points="246.65 439.57 280.15 461.81 280.15 417.33 246.65 439.57" fill="none" stroke="#000" stroke-miterlimit="10" stroke-width="5"/><rect x="190.99" y="317.35" width="44.84" height="66.49" fill="none" stroke="#000" stroke-miterlimit="10" stroke-width="5"/><line x1="168.82" y1="350.85" x2="190.99" y2="350.85" fill="none" stroke="#000" stroke-miterlimit="10" stroke-width="5"/><line x1="168.82" y1="306.01" x2="168.82" y2="350.85" fill="none" stroke="#000" stroke-miterlimit="10" stroke-width="5"/><line x1="324.99" y1="306.01" x2="168.82" y2="306.01" fill="none" stroke="#000" stroke-miterlimit="10" stroke-width="5"/><line x1="235.83" y1="350.85" x2="658.97" y2="350.85" fill="none" stroke="#000" stroke-miterlimit="10" stroke-width="5"/><path d="m914.8,417.78c.72-.15,1.76-.23,2.74-.23,1.53,0,2.51.28,3.2.9.56.49.87,1.25.87,2.1,0,1.46-.92,2.43-2.08,2.82v.05c.85.3,1.36,1.08,1.62,2.23.36,1.54.62,2.61.85,3.03h-1.48c-.18-.31-.43-1.26-.74-2.64-.33-1.53-.92-2.1-2.21-2.15h-1.35v4.79h-1.43v-10.91Zm1.43,5.04h1.46c1.53,0,2.49-.84,2.49-2.1,0-1.43-1.03-2.05-2.54-2.07-.69,0-1.18.07-1.41.13v4.04Z"/><path d="m303.63,285.32v.03l1.05,1.94-1.15.29-1.3-2.43v-1.29h11.14v1.46h-9.73Z"/><path d="m313.36,796.24h-.91l-1.13-1.16c-2.66-2.8-4.08-4.06-5.73-4.08-1.11,0-2.14.54-2.14,2.17,0,.99.51,1.82.93,2.33l-1.04.47c-.64-.76-1.11-1.84-1.11-3.1,0-2.36,1.62-3.35,3.18-3.35,2.02,0,3.66,1.47,5.88,3.77l.81.88h.03v-4.92h1.23v6.99Z"/><path d="m422.88,290.23c.27-.41.68-1.38.68-2.39,0-1.87-1.19-2.45-2.09-2.44-1.51.02-2.15,1.38-2.15,2.78v.81h-1.09v-.81c0-1.06-.55-2.4-1.82-2.4-.86,0-1.62.55-1.62,1.89,0,.86.38,1.69.71,2.15l-1.06.38c-.41-.56-.83-1.66-.83-2.82,0-2.12,1.26-3.08,2.57-3.08,1.11,0,2.06.66,2.54,1.99h.03c.27-1.33,1.26-2.4,2.77-2.4,1.72,0,3.23,1.34,3.23,3.93,0,1.21-.38,2.27-.73,2.8l-1.13-.4Z"/><path d="m424.74,791.06h-3.03v5.17h-.99l-7.11-4.97v-1.63h6.92v-1.56h1.18v1.56h3.03v1.42Zm-4.22,0h-3.72c-.58,0-1.17-.02-1.75-.05v.05c.65.34,1.13.62,1.64.93l3.79,2.72h.03v-3.65Z"/><path d="m526.23,284.12v4.18l2.81.42c-.03-.25-.07-.49-.07-.89,0-.84.19-1.69.59-2.36.49-.86,1.43-1.57,2.81-1.57,2.14,0,3.74,1.7,3.74,4.08,0,1.2-.34,2.21-.67,2.73l-1.13-.37c.27-.45.61-1.35.61-2.34,0-1.4-.91-2.59-2.38-2.59-1.42.02-2.43.96-2.43,3.15,0,.62.07,1.11.12,1.52l-5.26-.71v-5.24h1.25Z"/><path d="m526.28,790.01c-.02.29,0,.67.07,1.07.37,2.25,2.02,3.44,3.76,3.68v-.05c-.67-.5-1.22-1.38-1.22-2.56,0-1.87,1.35-3.19,3.42-3.19,1.94,0,3.73,1.32,3.73,3.52s-1.76,3.75-4.51,3.75c-2.08,0-3.73-.75-4.77-1.79-.86-.88-1.4-2.05-1.56-3.39-.07-.42-.08-.78-.08-1.04h1.17Zm6.11.41c-1.51,0-2.43.86-2.43,2.18,0,.86.54,1.66,1.3,2.05.16.1.37.16.64.16,1.74-.03,3.03-.83,3.03-2.33,0-1.24-1.03-2.07-2.54-2.07Z"/><path d="m647.49,292.25h-11.13v-1.57l5.63-3.57c1.3-.83,2.48-1.47,3.62-2l-.02-.03c-1.49.13-2.84.17-4.57.17h-4.66v-1.35h11.13v1.45l-5.65,3.53c-1.24.78-2.51,1.52-3.71,2.08l.02.05c1.4-.08,2.74-.12,4.59-.12h4.75v1.35Z"/><path d="m647.49,796.24h-11.14v-1.57l5.63-3.57c1.31-.83,2.48-1.47,3.62-2l-.02-.03c-1.49.13-2.84.17-4.58.17h-4.66v-1.36h11.14v1.45l-5.65,3.54c-1.24.78-2.51,1.52-3.72,2.08l.02.05c1.4-.08,2.74-.12,4.59-.12h4.76v1.36Z"/><path d="m769.2,541.29h-3.39v-1.22h8.25v1.22h-3.4v9.91h-1.45v-9.91Z"/><line x1="235.83" y1="439.58" x2="241.83" y2="439.58" fill="none" stroke="#000" stroke-miterlimit="10" stroke-width="5"/><line x1="253.88" y1="439.58" x2="729.93" y2="439.58" fill="none" stroke="#000" stroke-dasharray="0 0 12.05 12.05" stroke-miterlimit="10" stroke-width="5"/><line x1="735.95" y1="439.58" x2="741.95" y2="439.58" fill="none" stroke="#000" stroke-miterlimit="10" stroke-width="5"/><line x1="758.96" y1="595.96" x2="764.96" y2="595.96" fill="none" stroke="#000" stroke-miterlimit="10" stroke-width="5"/><line x1="776.76" y1="595.96" x2="841.64" y2="595.96" fill="none" stroke="#000" stroke-dasharray="0 0 11.8 11.8" stroke-miterlimit="10" stroke-width="5"/><line x1="847.54" y1="595.96" x2="853.54" y2="595.96" fill="none" stroke="#000" stroke-miterlimit="10" stroke-width="5"/><line x1="213.11" y1="607" x2="213.11" y2="601" fill="none" stroke="#000" stroke-miterlimit="10" stroke-width="5"/><line x1="213.11" y1="588.95" x2="213.11" y2="474.46" fill="none" stroke="#000" stroke-dasharray="0 0 12.05 12.05" stroke-miterlimit="10" stroke-width="5"/><line x1="213.11" y1="468.43" x2="213.11" y2="462.43" fill="none" stroke="#000" stroke-miterlimit="10" stroke-width="5"/><line x1="213.11" y1="607" x2="201.98" y2="607" fill="none" stroke="#000" stroke-dasharray="0 11.12" stroke-miterlimit="10" stroke-width="5"/><line x1="191.5" y1="439.58" x2="185.5" y2="439.58" fill="none" stroke="#000" stroke-miterlimit="10" stroke-width="5"/><line x1="178.51" y1="439.58" x2="168.01" y2="439.58" fill="none" stroke="#000" stroke-dasharray="0 0 7 7" stroke-miterlimit="10" stroke-width="5"/><line x1="164.52" y1="439.58" x2="158.52" y2="439.58" fill="none" stroke="#000" stroke-miterlimit="10" stroke-width="5"/><line x1="213.11" y1="417.33" x2="213.11" y2="411.33" fill="none" stroke="#000" stroke-miterlimit="10" stroke-width="5"/><line x1="213.11" y1="404.17" x2="213.11" y2="393.42" fill="none" stroke="#000" stroke-dasharray="0 0 7.17 7.17" stroke-miterlimit="10" stroke-width="5"/><line x1="213.11" y1="389.83" x2="213.11" y2="383.83" fill="none" stroke="#000" stroke-miterlimit="10" stroke-width="5"/><rect id="Base" width="1080" height="1080" opacity="0"/></g></g></svg>