<?xml version="1.0" encoding="UTF-8"?><svg id="Capa_2" xmlns="http://www.w3.org/2000/svg" viewBox="0 0 1080 1080"><g id="Capa_1-2"><g id="Multifilar_-_Resistencia_NTC_Coeficiente_negativo_ANSI"><line x1="158" y1="539.8" x2="349.44" y2="539.8" fill="none" stroke="#000" stroke-miterlimit="10" stroke-width="5"/><line x1="730.56" y1="539.8" x2="922" y2="539.8" fill="none" stroke="#000" stroke-miterlimit="10" stroke-width="5"/><line x1="347.67" y1="500.81" x2="347.67" y2="578.8" fill="none" stroke="#000" stroke-miterlimit="10" stroke-width="5"/><line x1="425.54" y1="578.68" x2="347.67" y2="500.81" fill="none" stroke="#000" stroke-miterlimit="10" stroke-width="5"/><line x1="423.89" y1="501.45" x2="423.89" y2="579.44" fill="none" stroke="#000" stroke-miterlimit="10" stroke-width="5"/><line x1="501.77" y1="579.32" x2="423.89" y2="501.45" fill="none" stroke="#000" stroke-miterlimit="10" stroke-width="5"/><line x1="501.89" y1="501.45" x2="501.89" y2="579.44" fill="none" stroke="#000" stroke-miterlimit="10" stroke-width="5"/><line x1="579.76" y1="579.32" x2="501.89" y2="501.45" fill="none" stroke="#000" stroke-miterlimit="10" stroke-width="5"/><line x1="578.11" y1="501.45" x2="578.11" y2="579.44" fill="none" stroke="#000" stroke-miterlimit="10" stroke-width="5"/><line x1="730.56" y1="501.45" x2="730.56" y2="579.44" fill="none" stroke="#000" stroke-miterlimit="10" stroke-width="5"/><line x1="655.98" y1="579.32" x2="578.11" y2="501.45" fill="none" stroke="#000" stroke-miterlimit="10" stroke-width="5"/><line x1="654.33" y1="501.45" x2="654.33" y2="579.44" fill="none" stroke="#000" stroke-miterlimit="10" stroke-width="5"/><line x1="732.21" y1="579.32" x2="654.33" y2="501.45" fill="none" stroke="#000" stroke-miterlimit="10" stroke-width="5"/><line x1="424.78" y1="730.11" x2="655.22" y2="349" fill="none" stroke="#000" stroke-miterlimit="10" stroke-width="5"/><line x1="349.44" y1="731" x2="425.67" y2="731" fill="none" stroke="#000" stroke-miterlimit="10" stroke-width="5"/><path d="m611.06,691.62v8.15h-30.95v-8.15h30.95Z"/><path d="m637.25,651.52v17.42h15.79v8.4h-15.79v32.71c0,7.52,2.13,11.78,8.27,11.78,2.88,0,5.01-.38,6.39-.75l.5,8.27c-2.13.88-5.51,1.5-9.77,1.5-5.14,0-9.27-1.63-11.91-4.64-3.13-3.26-4.26-8.65-4.26-15.79v-33.08h-9.4v-8.4h9.4v-14.54l10.78-2.88Z"/><path d="m698.53,675.96c-.13,14.41-10.4,20.93-20.05,20.93-11.15,0-19.93-8.02-19.93-20.3,0-13.03,9.4-21.05,20.18-21.05,12.16,0,19.8,8.65,19.8,20.43Zm-31.58.38c0,8.27,5.39,14.29,11.66,14.29,6.64,0,11.53-5.76,11.53-14.41,0-6.27-3.38-14.41-11.65-14.41s-11.53,7.77-11.53,14.54Z"/><rect id="Base" width="1080" height="1080" opacity="0"/></g></g></svg>