<?xml version="1.0" encoding="UTF-8"?><svg id="Capa_2" xmlns="http://www.w3.org/2000/svg" viewBox="0 0 1080 1080"><g id="Capa_1-2"><g id="Multifilar_-_Resistencia_variable_Potenciómetro_ANSI_-_2"><line x1="158" y1="464.05" x2="349.44" y2="464.05" fill="none" stroke="#000" stroke-miterlimit="10" stroke-width="5"/><line x1="730.56" y1="464.05" x2="922" y2="464.05" fill="none" stroke="#000" stroke-miterlimit="10" stroke-width="5"/><line x1="347.67" y1="425.05" x2="347.67" y2="503.05" fill="none" stroke="#000" stroke-miterlimit="10" stroke-width="5"/><line x1="425.54" y1="502.93" x2="347.67" y2="425.05" fill="none" stroke="#000" stroke-miterlimit="10" stroke-width="5"/><line x1="423.89" y1="425.69" x2="423.89" y2="503.69" fill="none" stroke="#000" stroke-miterlimit="10" stroke-width="5"/><line x1="501.77" y1="503.57" x2="423.89" y2="425.69" fill="none" stroke="#000" stroke-miterlimit="10" stroke-width="5"/><line x1="501.89" y1="425.69" x2="501.89" y2="503.69" fill="none" stroke="#000" stroke-miterlimit="10" stroke-width="5"/><line x1="579.76" y1="503.57" x2="501.89" y2="425.69" fill="none" stroke="#000" stroke-miterlimit="10" stroke-width="5"/><line x1="578.11" y1="425.69" x2="578.11" y2="503.69" fill="none" stroke="#000" stroke-miterlimit="10" stroke-width="5"/><line x1="730.56" y1="425.69" x2="730.56" y2="503.69" fill="none" stroke="#000" stroke-miterlimit="10" stroke-width="5"/><line x1="655.98" y1="503.57" x2="578.11" y2="425.69" fill="none" stroke="#000" stroke-miterlimit="10" stroke-width="5"/><line x1="654.33" y1="425.69" x2="654.33" y2="503.69" fill="none" stroke="#000" stroke-miterlimit="10" stroke-width="5"/><line x1="732.21" y1="503.57" x2="654.33" y2="425.69" fill="none" stroke="#000" stroke-miterlimit="10" stroke-width="5"/><line x1="349.14" y1="654.95" x2="541.27" y2="654.95" fill="none" stroke="#000" stroke-miterlimit="10" stroke-width="5"/><polygon points="540.01 507.09 501.92 578.78 578.1 578.78 540.01 507.09"/><line x1="541.27" y1="577.83" x2="541.27" y2="654.95" fill="none" stroke="#000" stroke-miterlimit="10" stroke-width="5"/><rect id="Base" width="1080" height="1080" opacity="0"/></g></g></svg>