<?xml version="1.0" encoding="UTF-8"?><svg id="Capa_2" xmlns="http://www.w3.org/2000/svg" viewBox="0 0 1080 1080"><g id="Capa_1-2"><g id="Multifilar_-_Interruptor_magnetotérmico_bipolar_PIA_-_1"><line x1="693.07" y1="463.6" x2="693.07" y2="494.73" fill="none" stroke="#000" stroke-miterlimit="10" stroke-width="5"/><line x1="616.67" y1="310.45" x2="693.07" y2="463.25" fill="none" stroke="#000" stroke-miterlimit="10" stroke-width="5"/><line x1="693.07" y1="158.71" x2="693.07" y2="310.8" fill="none" stroke="#000" stroke-miterlimit="10" stroke-width="5"/><line x1="693.42" y1="800.19" x2="693.42" y2="922" fill="none" stroke="#000" stroke-miterlimit="10" stroke-width="5"/><rect x="616.84" y="494.9" width="152.27" height="152.27" fill="none" stroke="#000" stroke-miterlimit="10" stroke-width="5"/><rect x="617.55" y="647.88" width="151.74" height="151.74" fill="none" stroke="#000" stroke-miterlimit="10" stroke-width="5"/><line x1="693.42" y1="494.73" x2="693.42" y2="540.71" fill="none" stroke="#000" stroke-miterlimit="10" stroke-width="5"/><line x1="738.69" y1="539.65" x2="693.07" y2="539.65" fill="none" stroke="#000" stroke-miterlimit="10" stroke-width="5"/><line x1="693.77" y1="601.19" x2="738.69" y2="601.19" fill="none" stroke="#000" stroke-miterlimit="10" stroke-width="5"/><line x1="738.69" y1="539.65" x2="738.69" y2="601.19" fill="none" stroke="#000" stroke-miterlimit="10" stroke-width="5"/><line x1="692.71" y1="601.54" x2="692.71" y2="647.53" fill="none" stroke="#000" stroke-miterlimit="10" stroke-width="5"/><line x1="677.5" y1="677.24" x2="739.24" y2="723.22" fill="none" stroke="#000" stroke-miterlimit="10" stroke-width="5"/><line x1="677.5" y1="769.2" x2="739.24" y2="723.22" fill="none" stroke="#000" stroke-miterlimit="10" stroke-width="5"/><circle cx="693.07" cy="319.64" r="7.78" fill="none" stroke="#000" stroke-miterlimit="10" stroke-width="5"/><line x1="540.27" y1="462.89" x2="540.27" y2="494.02" fill="none" stroke="#000" stroke-miterlimit="10" stroke-width="5"/><line x1="463.87" y1="309.74" x2="540.27" y2="462.54" fill="none" stroke="#000" stroke-miterlimit="10" stroke-width="5"/><line x1="418.24" y1="355.72" x2="418.24" y2="416.56" fill="none" stroke="#000" stroke-miterlimit="10" stroke-width="5"/><line x1="356.69" y1="356.07" x2="356.69" y2="416.91" fill="none" stroke="#000" stroke-miterlimit="10" stroke-width="5"/><line x1="418.59" y1="356.43" x2="357.75" y2="356.43" fill="none" stroke="#000" stroke-miterlimit="10" stroke-width="5"/><line x1="417.88" y1="417.26" x2="357.05" y2="417.26" fill="none" stroke="#000" stroke-miterlimit="10" stroke-width="5"/><line x1="540.27" y1="158" x2="540.27" y2="310.09" fill="none" stroke="#000" stroke-miterlimit="10" stroke-width="5"/><line x1="540.62" y1="799.62" x2="540.62" y2="921.43" fill="none" stroke="#000" stroke-miterlimit="10" stroke-width="5"/><line x1="310.71" y1="355.72" x2="310.71" y2="417.26" fill="none" stroke="#000" stroke-miterlimit="10" stroke-width="5"/><rect x="464.22" y="494.9" width="152.27" height="152.27" fill="none" stroke="#000" stroke-miterlimit="10" stroke-width="5"/><rect x="464.22" y="647.88" width="152.09" height="152.09" fill="none" stroke="#000" stroke-miterlimit="10" stroke-width="5"/><line x1="540.62" y1="493.66" x2="540.62" y2="539.65" fill="none" stroke="#000" stroke-miterlimit="10" stroke-width="5"/><line x1="585.89" y1="539.65" x2="540.62" y2="539.65" fill="none" stroke="#000" stroke-miterlimit="10" stroke-width="5"/><line x1="540.97" y1="601.19" x2="586.25" y2="601.19" fill="none" stroke="#000" stroke-miterlimit="10" stroke-width="5"/><line x1="585.89" y1="540.35" x2="585.89" y2="601.19" fill="none" stroke="#000" stroke-miterlimit="10" stroke-width="5"/><line x1="540.62" y1="601.54" x2="540.62" y2="647.53" fill="none" stroke="#000" stroke-miterlimit="10" stroke-width="5"/><line x1="494.64" y1="676.53" x2="494.64" y2="769.55" fill="none" stroke="#000" stroke-miterlimit="10" stroke-width="5"/><line x1="647.44" y1="677.24" x2="647.44" y2="770.26" fill="none" stroke="#000" stroke-miterlimit="10" stroke-width="5"/><line x1="524.7" y1="677.24" x2="586.6" y2="723.22" fill="none" stroke="#000" stroke-miterlimit="10" stroke-width="5"/><line x1="524.7" y1="769.2" x2="586.6" y2="723.22" fill="none" stroke="#000" stroke-miterlimit="10" stroke-width="5"/><line x1="387.82" y1="356.43" x2="387.82" y2="417.26" fill="none" stroke="#000" stroke-miterlimit="10" stroke-width="5"/><line x1="356.69" y1="386.14" x2="418.24" y2="386.14" fill="none" stroke="#000" stroke-miterlimit="10" stroke-width="5"/><circle cx="540.27" cy="318.94" r="7.78" fill="none" stroke="#000" stroke-miterlimit="10" stroke-width="5"/><path d="m511.33,174.84v.05l1.44,2.66-1.58.4-1.79-3.34v-1.76h15.29v2h-13.36Z"/><path d="m524.7,907.18h-1.25l-1.55-1.6c-3.66-3.84-5.6-5.58-7.87-5.6-1.53,0-2.94.74-2.94,2.99,0,1.37.69,2.5,1.27,3.19l-1.43.65c-.88-1.04-1.53-2.52-1.53-4.26,0-3.24,2.22-4.61,4.37-4.61,2.78,0,5.02,2.01,8.08,5.18l1.11,1.2h.05v-6.76h1.69v9.6Z"/><path d="m675.13,181.54c.36-.57.93-1.89.93-3.28,0-2.57-1.64-3.37-2.87-3.35-2.07.02-2.96,1.89-2.96,3.82v1.12h-1.5v-1.12c0-1.46-.75-3.3-2.5-3.3-1.18,0-2.23.75-2.23,2.6,0,1.18.52,2.32.98,2.96l-1.46.52c-.57-.77-1.14-2.28-1.14-3.87,0-2.91,1.73-4.23,3.53-4.23,1.53,0,2.82.91,3.48,2.73h.05c.36-1.82,1.73-3.3,3.8-3.3,2.37,0,4.44,1.84,4.44,5.4,0,1.66-.52,3.12-1,3.85l-1.55-.55Z"/><path d="m677.68,900.07h-4.17v7.11h-1.36l-9.77-6.83v-2.24h9.51v-2.14h1.62v2.14h4.17v1.95Zm-5.79,0h-5.11c-.8,0-1.6-.02-2.4-.07v.07c.89.47,1.55.85,2.26,1.27l5.2,3.74h.05v-5.01Z"/><line x1="418.24" y1="386.14" x2="424.24" y2="386.14" fill="none" stroke="#000" stroke-miterlimit="10" stroke-width="5"/><line x1="436.04" y1="386.14" x2="642.61" y2="386.14" fill="none" stroke="#000" stroke-dasharray="0 0 11.8 11.8" stroke-miterlimit="10" stroke-width="5"/><line x1="648.51" y1="386.14" x2="654.51" y2="386.14" fill="none" stroke="#000" stroke-miterlimit="10" stroke-width="5"/><line x1="358.11" y1="386.85" x2="352.11" y2="386.85" fill="none" stroke="#000" stroke-miterlimit="10" stroke-width="5"/><line x1="340.31" y1="386.85" x2="322.61" y2="386.85" fill="none" stroke="#000" stroke-dasharray="0 0 11.8 11.8" stroke-miterlimit="10" stroke-width="5"/><line x1="316.71" y1="386.85" x2="310.71" y2="386.85" fill="none" stroke="#000" stroke-miterlimit="10" stroke-width="5"/><line x1="387.82" y1="417.26" x2="387.83" y2="423.26" fill="none" stroke="#000" stroke-miterlimit="10" stroke-width="5"/><line x1="387.84" y1="435.01" x2="388.16" y2="710.99" fill="none" stroke="#000" stroke-dasharray="0 0 11.74 11.74" stroke-miterlimit="10" stroke-width="5"/><line x1="388.17" y1="716.86" x2="388.17" y2="722.86" fill="none" stroke="#000" stroke-miterlimit="10" stroke-width="5"/><line x1="388.17" y1="722.86" x2="394.17" y2="722.86" fill="none" stroke="#000" stroke-miterlimit="10" stroke-width="5"/><line x1="406.98" y1="722.86" x2="451.81" y2="722.86" fill="none" stroke="#000" stroke-dasharray="0 0 12.81 12.81" stroke-miterlimit="10" stroke-width="5"/><line x1="458.22" y1="722.86" x2="464.22" y2="722.86" fill="none" stroke="#000" stroke-miterlimit="10" stroke-width="5"/><line x1="388.17" y1="570.77" x2="394.17" y2="570.77" fill="none" stroke="#000" stroke-miterlimit="10" stroke-width="5"/><line x1="406.98" y1="570.77" x2="451.81" y2="570.77" fill="none" stroke="#000" stroke-dasharray="0 0 12.81 12.81" stroke-miterlimit="10" stroke-width="5"/><line x1="458.22" y1="570.77" x2="464.22" y2="570.77" fill="none" stroke="#000" stroke-miterlimit="10" stroke-width="5"/><rect id="Base" width="1080" height="1080" opacity="0"/></g></g></svg>