<?xml version="1.0" encoding="UTF-8"?><svg id="Capa_2" xmlns="http://www.w3.org/2000/svg" viewBox="0 0 1080 1080"><g id="Capa_1-2"><g id="Multifilar_-_Telerruptor_Temporizado"><line x1="196.14" y1="295.46" x2="196.14" y2="784.54" fill="none" stroke="#000" stroke-miterlimit="10" stroke-width="5"/><line x1="557.82" y1="603.34" x2="557.82" y2="784.54" fill="none" stroke="#000" stroke-miterlimit="10" stroke-width="5"/><line x1="739.36" y1="602.92" x2="739.36" y2="784.54" fill="none" stroke="#000" stroke-miterlimit="10" stroke-width="5"/><line x1="920" y1="367.71" x2="920" y2="784.54" fill="none" stroke="#000" stroke-miterlimit="10" stroke-width="5"/><circle cx="196.56" cy="602.51" r="9.18"/><line x1="195.74" y1="602.92" x2="360.91" y2="602.92" fill="none" stroke="#000" stroke-miterlimit="10" stroke-width="5"/><line x1="557.82" y1="603.76" x2="432.67" y2="603.76" fill="none" stroke="#000" stroke-miterlimit="10" stroke-width="5"/><line x1="432.67" y1="547.44" x2="432.67" y2="602.51" fill="none" stroke="#000" stroke-miterlimit="10" stroke-width="5"/><line x1="360.91" y1="547.44" x2="360.91" y2="602.51" fill="none" stroke="#000" stroke-miterlimit="10" stroke-width="5"/><rect x="254.11" y="475.27" width="214.43" height="71.75" fill="none" stroke="#000" stroke-miterlimit="10" stroke-width="5"/><line x1="631.31" y1="421.87" x2="738.95" y2="602.92" fill="none" stroke="#000" stroke-miterlimit="10" stroke-width="5"/><line x1="395.22" y1="475.59" x2="395.22" y2="367.71" fill="none" stroke="#000" stroke-miterlimit="10" stroke-width="5"/><line x1="920" y1="367.71" x2="395.22" y2="367.71" fill="none" stroke="#000" stroke-miterlimit="10" stroke-width="5"/><line x1="195.74" y1="295.88" x2="739.29" y2="295.88" fill="none" stroke="#000" stroke-miterlimit="10" stroke-width="5"/><line x1="739.36" y1="421.75" x2="739.36" y2="295.46" fill="none" stroke="#000" stroke-miterlimit="10" stroke-width="5"/><line x1="468.54" y1="511.15" x2="474.54" y2="511.15" fill="none" stroke="#000" stroke-miterlimit="10" stroke-width="5"/><line x1="486.5" y1="511.15" x2="671.83" y2="511.15" fill="none" stroke="#000" stroke-dasharray="0 0 11.96 11.96" stroke-miterlimit="10" stroke-width="5"/><line x1="677.81" y1="511.15" x2="683.81" y2="511.15" fill="none" stroke="#000" stroke-miterlimit="10" stroke-width="5"/><path d="m558.65,475.27c19.81,0,35.88,16.06,35.88,35.88s-16.06,35.88-35.88,35.88" fill="none" stroke="#000" stroke-miterlimit="10" stroke-width="5"/><path d="m253.04,474.57v72.59h72.59v-72.59h-72.59Zm64,51.69c-.51.76-1.96.06-2.64-.19-2.51-.94-4.47-2.82-6.19-4.8-3.96-4.53-6.91-9.83-10.43-14.68-1.67-2.3-3.51-4.64-5.87-6.28-2.52-1.75-4.47-.79-6.58,1.1-4.83,4.32-7.91,10.41-11.63,15.63-1.87,2.63-3.86,5.35-6.45,7.34-1.24.96-2.68,1.83-4.25,2.11-1.82.32-1.56-.58-1.56-2.11,0,0-.02,0-.03,0,0-1.5-.17-1.65,1.15-2.2,1.14-.48,2.11-1.1,3.04-1.93,2.3-2.07,4.12-4.73,5.85-7.26,3.34-4.87,6.31-10.14,10.51-14.35,4.01-4.01,8.96-4.86,13.49-1.07,4.36,3.64,7.37,8.94,10.49,13.59,1.65,2.45,3.31,4.93,5.23,7.18.77.89,1.58,1.75,2.5,2.49.48.39,1.01.8,1.57,1.08.53.26,1.46.3,1.82.8.32.45.26,3.16-.01,3.57Z"/><path d="m160.35,766.09c-.19-1.12-.35-2.59-.35-4.45,0-2.29.53-3.97,1.49-5.04.85-.99,2.16-1.57,3.76-1.57s2.9.48,3.84,1.39c1.31,1.23,1.97,3.22,1.97,5.49,0,.69-.03,1.33-.16,1.87h7.2v2.32h-17.75Zm8.66-2.32c.13-.51.19-1.15.19-1.92,0-2.8-1.36-4.5-3.84-4.5s-3.52,1.68-3.52,4.24c0,1.01.08,1.79.19,2.19h6.98Z"/><path d="m540.01,766.09h-18.1v-2.55l9.16-5.8c2.12-1.34,4.03-2.39,5.88-3.25l-.03-.05c-2.42.21-4.62.27-7.44.27h-7.57v-2.2h18.1v2.36l-9.18,5.75c-2.01,1.26-4.08,2.47-6.04,3.38l.03.08c2.28-.13,4.46-.19,7.46-.19h7.73v2.2Z"/><path d="m898.93,765.38c.43-.67,1.1-2.22,1.1-3.85,0-3.02-1.93-3.96-3.37-3.93-2.43.03-3.48,2.22-3.48,4.49v1.31h-1.77v-1.31c0-1.71-.88-3.88-2.94-3.88-1.39,0-2.62.88-2.62,3.05,0,1.39.61,2.73,1.15,3.48l-1.71.61c-.67-.91-1.34-2.67-1.34-4.55,0-3.42,2.03-4.97,4.14-4.97,1.79,0,3.32,1.07,4.09,3.21h.05c.43-2.14,2.03-3.88,4.47-3.88,2.78,0,5.21,2.17,5.21,6.34,0,1.95-.62,3.66-1.18,4.52l-1.82-.64Z"/><path d="m720.97,757.68h-4.93v8.41h-1.61l-11.55-8.07v-2.64h11.25v-2.53h1.92v2.53h4.93v2.31Zm-6.85,0h-6.04c-.95,0-1.89-.03-2.84-.08v.08c1.06.56,1.84,1,2.67,1.5l6.15,4.43h.06v-5.93Z"/><rect id="Base" width="1080" height="1080" opacity="0"/></g></g></svg>