<?xml version="1.0" encoding="UTF-8"?><svg id="Capa_2" xmlns="http://www.w3.org/2000/svg" viewBox="0 0 1080 1080"><g id="Capa_1-2"><g id="Multifilar_-_Punto_de_luz_o_lámpara"><line x1="677.82" y1="402.62" x2="402.18" y2="678.26" fill="none" stroke="#000" stroke-miterlimit="10" stroke-width="5"/><line x1="402.18" y1="402.62" x2="677.82" y2="678.26" fill="none" stroke="#000" stroke-miterlimit="10" stroke-width="5"/><circle cx="540" cy="540.89" r="191.44" fill="none" stroke="#000" stroke-miterlimit="10" stroke-width="5"/><line x1="540" y1="158" x2="540" y2="349.44" fill="none" stroke="#000" stroke-miterlimit="10" stroke-width="5"/><line x1="540" y1="922" x2="540" y2="732.33" fill="none" stroke="#000" stroke-miterlimit="10" stroke-width="5"/><path d="m469.08,201.86v.12l3.58,6.62-3.93.99-4.45-8.32v-4.4h38.08v4.98h-33.28Z"/><path d="m502.36,883.36h-3.16l-3.93-4.04c-9.26-9.73-14.18-14.12-19.92-14.18-3.87,0-7.44,1.87-7.44,7.56,0,3.46,1.76,6.33,3.22,8.09l-3.63,1.64c-2.23-2.64-3.87-6.39-3.87-10.78,0-8.2,5.62-11.66,11.07-11.66,7.03,0,12.71,5.1,20.45,13.12l2.81,3.05h.12v-17.11h4.28v24.31Z"/><rect id="Base" width="1080" height="1080" opacity="0"/></g></g></svg>