<?xml version="1.0" encoding="UTF-8"?><svg id="Capa_2" xmlns="http://www.w3.org/2000/svg" viewBox="0 0 1080 1080"><g id="Capa_1-2"><g id="Multifilar_-_Interruptor_horario"><line x1="309.55" y1="387.02" x2="309.55" y2="233.53" fill="none" stroke="#000" stroke-miterlimit="10" stroke-width="5"/><line x1="309.55" y1="690.95" x2="309.55" y2="844.45" fill="none" stroke="#000" stroke-miterlimit="10" stroke-width="5"/><line x1="309.85" y1="417.57" x2="309.85" y2="538.87" fill="none" stroke="#000" stroke-miterlimit="10" stroke-width="5"/><line x1="249.22" y1="539.66" x2="310.15" y2="539.78" fill="none" stroke="#000" stroke-miterlimit="10" stroke-width="5"/><circle cx="309.85" cy="539.72" r="151.85" fill="none" stroke="#000" stroke-miterlimit="10" stroke-width="5"/><line x1="647.09" y1="387.78" x2="767.62" y2="661.62" fill="none" stroke="#000" stroke-miterlimit="10" stroke-width="5"/><line x1="615.97" y1="233.53" x2="615.97" y2="417.61" fill="none" stroke="#000" stroke-miterlimit="10" stroke-width="5"/><line x1="677.63" y1="416.97" x2="615.97" y2="416.97" fill="none" stroke="#000" stroke-miterlimit="10" stroke-width="5"/><line x1="859.38" y1="416.97" x2="922" y2="416.97" fill="none" stroke="#000" stroke-miterlimit="10" stroke-width="5"/><line x1="921.45" y1="235.05" x2="921.45" y2="416.86" fill="none" stroke="#000" stroke-miterlimit="10" stroke-width="5"/><line x1="767.62" y1="661.62" x2="767.3" y2="846.47" fill="none" stroke="#000" stroke-miterlimit="10" stroke-width="5"/><path d="m270.16,807.41l9.61,3.17v4.08l-30.55-10.38v-4.76l30.55-10.42v4.21l-9.61,3.26v10.83Zm-3.08-10.02l-8.79,2.99c-1.99.68-3.81,1.13-5.57,1.59v.09c1.81.45,3.67.95,5.53,1.54l8.84,2.99v-9.2Z"/><path d="m279.77,786.03h-2.45l-3.04-3.13c-7.16-7.52-10.97-10.92-15.41-10.97-2.99,0-5.76,1.45-5.76,5.85,0,2.67,1.36,4.89,2.49,6.25l-2.81,1.27c-1.72-2.04-2.99-4.94-2.99-8.34,0-6.35,4.35-9.02,8.57-9.02,5.44,0,9.83,3.94,15.82,10.15l2.17,2.36h.09v-13.23h3.31v18.81Z"/><path d="m270.16,298.73l9.61,3.17v4.08l-30.55-10.38v-4.76l30.55-10.42v4.21l-9.61,3.26v10.83Zm-3.08-10.02l-8.79,2.99c-1.99.68-3.81,1.13-5.57,1.59v.09c1.81.45,3.67.95,5.53,1.54l8.84,2.99v-9.2Z"/><path d="m254.03,268.69v.09l2.77,5.12-3.04.77-3.44-6.44v-3.4h29.46v3.85h-25.74Z"/><path d="m711.27,808.46v.09l2.87,5.31-3.15.8-3.57-6.67v-3.52h30.55v3.99h-26.69Z"/><path d="m711.27,784.36v.09l2.87,5.31-3.15.8-3.57-6.67v-3.52h30.55v3.99h-26.69Z"/><path d="m558.98,298.89v.09l2.82,5.22-3.1.79-3.51-6.56v-3.47h30.04v3.93h-26.25Z"/><path d="m585.23,284.01h-2.5l-3.1-3.19c-7.3-7.67-11.18-11.14-15.71-11.18-3.05,0-5.87,1.48-5.87,5.96,0,2.73,1.39,4.99,2.54,6.38l-2.87,1.29c-1.76-2.08-3.05-5.04-3.05-8.5,0-6.47,4.44-9.2,8.73-9.2,5.55,0,10.03,4.02,16.13,10.35l2.22,2.4h.09v-13.49h3.37v19.18Z"/><path d="m864,301.09v.09l2.87,5.31-3.15.8-3.57-6.67v-3.52h30.55v3.99h-26.69Z"/><path d="m890.69,273.18h-8.32v14.19h-2.73l-19.5-13.63v-4.46h18.98v-4.28h3.24v4.28h8.32v3.9Zm-11.56,0h-10.2c-1.6,0-3.2-.05-4.79-.14v.14c1.79.94,3.1,1.69,4.51,2.54l10.39,7.47h.09v-10.01Z"/><line x1="463.05" y1="539.43" x2="469.05" y2="539.43" fill="none" stroke="#000" stroke-miterlimit="10" stroke-width="5"/><line x1="481.6" y1="539.43" x2="701.25" y2="539.43" fill="none" stroke="#000" stroke-dasharray="0 0 12.55 12.55" stroke-miterlimit="10" stroke-width="5"/><line x1="707.52" y1="539.43" x2="713.52" y2="539.43" fill="none" stroke="#000" stroke-miterlimit="10" stroke-width="5"/><rect id="Base" width="1080" height="1080" opacity="0"/></g></g></svg>