<?xml version="1.0" encoding="UTF-8"?><svg id="Capa_2" xmlns="http://www.w3.org/2000/svg" viewBox="0 0 1080 1080"><g id="Capa_1-2"><g id="Multifilar_-_Detector_inductivo"><rect x="278.48" y="430.78" width="63.61" height="63.61" transform="translate(417.98 -83.92) rotate(45)" fill="none" stroke="#000" stroke-miterlimit="10" stroke-width="5"/><rect x="158" y="386.44" width="304.58" height="304.58" fill="none" stroke="#000" stroke-miterlimit="10" stroke-width="5"/><line x1="292.38" y1="435.51" x2="292.38" y2="489.65" fill="none" stroke="#000" stroke-miterlimit="10" stroke-width="5"/><line x1="328.2" y1="435.51" x2="328.2" y2="489.65" fill="none" stroke="#000" stroke-miterlimit="10" stroke-width="5"/><path d="m247.96,630.1c0-17.21,13.95-31.17,31.17-31.17s31.17,13.95,31.17,31.17" fill="none" stroke="#000" stroke-miterlimit="10" stroke-width="5"/><path d="m310.29,630.1c0-17.21,13.95-31.17,31.17-31.17s31.17,13.95,31.17,31.17" fill="none" stroke="#000" stroke-miterlimit="10" stroke-width="5"/><line x1="218.21" y1="630.1" x2="247.96" y2="630.1" fill="none" stroke="#000" stroke-miterlimit="10" stroke-width="5"/><line x1="372.62" y1="630.1" x2="400.95" y2="630.1" fill="none" stroke="#000" stroke-miterlimit="10" stroke-width="5"/><line x1="310.37" y1="385.04" x2="310.37" y2="233.58" fill="none" stroke="#000" stroke-miterlimit="10" stroke-width="5"/><line x1="310.37" y1="689.17" x2="310.37" y2="846.42" fill="none" stroke="#000" stroke-miterlimit="10" stroke-width="5"/><line x1="647.3" y1="388.08" x2="767.74" y2="661.71" fill="none" stroke="#000" stroke-miterlimit="10" stroke-width="5"/><line x1="616.2" y1="233.94" x2="616.2" y2="417.89" fill="none" stroke="#000" stroke-miterlimit="10" stroke-width="5"/><line x1="677.82" y1="417.24" x2="616.2" y2="417.24" fill="none" stroke="#000" stroke-miterlimit="10" stroke-width="5"/><line x1="859.43" y1="417.24" x2="922" y2="417.24" fill="none" stroke="#000" stroke-miterlimit="10" stroke-width="5"/><line x1="921.45" y1="235.47" x2="921.45" y2="417.14" fill="none" stroke="#000" stroke-miterlimit="10" stroke-width="5"/><line x1="767.74" y1="661.71" x2="767.74" y2="846.42" fill="none" stroke="#000" stroke-miterlimit="10" stroke-width="5"/><path d="m711.37,808.29v.09s2.85,5.31,2.85,5.31l-3.14.79-3.55-6.67v-3.52s30.5.05,30.5.05v3.99s-26.66-.05-26.66-.05Z"/><path d="m711.41,784.22v.09s2.85,5.31,2.85,5.31l-3.14.79-3.55-6.67v-3.52s30.5.05,30.5.05v3.99s-26.66-.05-26.66-.05Z"/><path d="m559.26,299.26v.09l2.82,5.22-3.09.79-3.51-6.56v-3.46h30.01v3.93h-26.23Z"/><path d="m585.49,284.39h-2.49l-3.09-3.19c-7.3-7.67-11.17-11.13-15.7-11.18-3.05,0-5.86,1.48-5.86,5.96,0,2.72,1.38,4.99,2.54,6.37l-2.86,1.29c-1.75-2.08-3.05-5.03-3.05-8.5,0-6.47,4.43-9.19,8.73-9.19,5.54,0,10.02,4.02,16.12,10.34l2.22,2.4h.09v-13.48h3.37v19.16Z"/><path d="m864.04,301.29v.09l2.86,5.31-3.15.8-3.57-6.67v-3.52h30.52v3.99h-26.67Z"/><path d="m890.71,273.4h-8.31v14.18h-2.72l-19.49-13.62v-4.46h18.97v-4.27h3.24v4.27h8.31v3.9Zm-11.55,0h-10.19c-1.6,0-3.19-.05-4.79-.14v.14c1.78.94,3.1,1.69,4.51,2.54l10.38,7.47h.09v-10Z"/><path d="m270.66,299.33l9.6,3.17v4.07l-30.52-10.37v-4.76l30.52-10.42v4.21l-9.6,3.26v10.82Zm-3.08-10.01l-8.79,2.99c-1.99.68-3.8,1.13-5.57,1.59v.09c1.81.45,3.67.95,5.53,1.54l8.83,2.99v-9.19Z"/><path d="m254.54,269.3v.09l2.76,5.12-3.03.77-3.44-6.43v-3.4h29.44v3.85h-25.72Z"/><path d="m270.66,806.97l9.6,3.17v4.07l-30.52-10.37v-4.76l30.52-10.42v4.21l-9.6,3.26v10.82Zm-3.08-10.01l-8.79,2.99c-1.99.68-3.8,1.13-5.57,1.59v.09c1.81.45,3.67.95,5.53,1.54l8.83,2.99v-9.19Z"/><path d="m280.26,785.58h-2.44l-3.03-3.12c-7.16-7.52-10.96-10.91-15.4-10.96-2.99,0-5.75,1.45-5.75,5.84,0,2.67,1.36,4.89,2.49,6.25l-2.81,1.27c-1.72-2.04-2.99-4.94-2.99-8.33,0-6.34,4.35-9.01,8.56-9.01,5.44,0,9.83,3.94,15.81,10.14l2.17,2.36h.09v-13.22h3.31v18.79Z"/><line x1="462.58" y1="539.61" x2="468.58" y2="539.61" fill="none" stroke="#000" stroke-miterlimit="10" stroke-width="5"/><line x1="481.16" y1="539.61" x2="701.39" y2="539.61" fill="none" stroke="#000" stroke-dasharray="0 0 12.58 12.58" stroke-miterlimit="10" stroke-width="5"/><line x1="707.68" y1="539.61" x2="713.68" y2="539.61" fill="none" stroke="#000" stroke-miterlimit="10" stroke-width="5"/><rect id="Base" width="1080" height="1080" opacity="0"/></g></g></svg>