<?xml version="1.0" encoding="UTF-8"?><svg id="Capa_2" xmlns="http://www.w3.org/2000/svg" viewBox="0 0 1080 1080"><g id="Capa_1-2"><g id="Multifilar_-_Protector_contra_sobretensiones_transitorias_monofásico"><line x1="539.92" y1="654.93" x2="539.92" y2="922" fill="none" stroke="#000" stroke-miterlimit="10" stroke-width="5"/><polygon points="540.49 578.63 502.34 654.93 578.65 654.93 540.49 578.63"/><line x1="540" y1="426.97" x2="540" y2="158" fill="none" stroke="#000" stroke-miterlimit="10" stroke-width="5"/><polygon points="540 503.16 578.15 426.02 501.85 426.02 540 503.16"/><rect x="425.54" y="313.11" width="228.91" height="455.38" fill="none" stroke="#000" stroke-miterlimit="10" stroke-width="5"/><path d="m464.48,883.91c-.39-2.36-.73-5.45-.73-9.39,0-4.83,1.12-8.37,3.15-10.62,1.8-2.08,4.55-3.31,7.92-3.31s6.13,1.01,8.09,2.92c2.75,2.59,4.16,6.8,4.16,11.58,0,1.46-.05,2.81-.34,3.93h15.17v4.89h-37.42Zm18.26-4.89c.28-1.07.39-2.42.39-4.04,0-5.9-2.87-9.5-8.09-9.5s-7.42,3.54-7.42,8.93c0,2.13.17,3.76.39,4.61h14.72Z"/><path d="m484.14,834.41v14.72h13.65v-16.41h4.1v21.3h-37.87v-20.45h4.1v15.56h11.97v-14.72h4.05Z"/><path d="m463.75,217.86v-4.92h34.02v-16.3h4.13v21.23h-38.15Z"/><rect id="Base" width="1080" height="1080" opacity="0"/></g></g></svg>