<?xml version="1.0" encoding="UTF-8"?><svg id="Capa_2" xmlns="http://www.w3.org/2000/svg" viewBox="0 0 1080 1080"><g id="Capa_1-2"><g id="Multifilar_-_Interruptor_diferencial_tetrapolar"><line x1="659.08" y1="272.57" x2="659.08" y2="383.98" fill="none" stroke="#000" stroke-miterlimit="10" stroke-width="5"/><line x1="325.11" y1="272.57" x2="325.11" y2="383.98" fill="none" stroke="#000" stroke-miterlimit="10" stroke-width="5"/><line x1="268.89" y1="383.72" x2="325.11" y2="495.9" fill="none" stroke="#000" stroke-miterlimit="10" stroke-width="5"/><line x1="603.63" y1="383.72" x2="659.34" y2="495.64" fill="none" stroke="#000" stroke-miterlimit="10" stroke-width="5"/><line x1="324.6" y1="495.64" x2="324.6" y2="807.43" fill="none" stroke="#000" stroke-miterlimit="10" stroke-width="5"/><line x1="659.34" y1="495.64" x2="659.34" y2="807.43" fill="none" stroke="#000" stroke-miterlimit="10" stroke-width="5"/><circle cx="659.34" cy="517.82" r="5.42"/><line x1="659.08" y1="517.56" x2="770.49" y2="517.56" fill="none" stroke="#000" stroke-miterlimit="10" stroke-width="5"/><line x1="770.23" y1="495.64" x2="770.23" y2="517.82" fill="none" stroke="#000" stroke-miterlimit="10" stroke-width="5"/><line x1="714.53" y1="383.72" x2="770.23" y2="495.64" fill="none" stroke="#000" stroke-miterlimit="10" stroke-width="5"/><line x1="826.45" y1="539.48" x2="882.15" y2="651.41" fill="none" stroke="#000" stroke-miterlimit="10" stroke-width="5"/><line x1="770.23" y1="328.01" x2="770.23" y2="383.72" fill="none" stroke="#000" stroke-miterlimit="10" stroke-width="5"/><line x1="882.15" y1="328.01" x2="770.23" y2="328.01" fill="none" stroke="#000" stroke-miterlimit="10" stroke-width="5"/><line x1="882.15" y1="383.72" x2="882.15" y2="328.01" fill="none" stroke="#000" stroke-miterlimit="10" stroke-width="5"/><line x1="882.15" y1="495.9" x2="882.15" y2="540.26" fill="none" stroke="#000" stroke-miterlimit="10" stroke-width="5"/><line x1="882.15" y1="651.67" x2="882.15" y2="696.02" fill="none" stroke="#000" stroke-miterlimit="10" stroke-width="5"/><rect x="859.46" y="383.72" width="44.87" height="111.92" fill="none" stroke="#000" stroke-miterlimit="10" stroke-width="5"/><line x1="759.4" y1="561.92" x2="759.4" y2="628.97" fill="none" stroke="#000" stroke-miterlimit="10" stroke-width="5"/><line x1="759.14" y1="562.18" x2="781.83" y2="562.18" fill="none" stroke="#000" stroke-miterlimit="10" stroke-width="5"/><line x1="759.66" y1="629.23" x2="781.83" y2="629.23" fill="none" stroke="#000" stroke-miterlimit="10" stroke-width="5"/><line x1="882.15" y1="696.02" x2="547.16" y2="696.02" fill="none" stroke="#000" stroke-miterlimit="10" stroke-width="5"/><path d="m681.52,629.23c12.32,0,22.31-9.99,22.31-22.31s-9.99-22.31-22.31-22.31" fill="none" stroke="#000" stroke-miterlimit="10" stroke-width="5"/><path d="m291.2,584.61c-12.32,0-22.31,9.99-22.31,22.31s9.99,22.31,22.31,22.31" fill="none" stroke="#000" stroke-miterlimit="10" stroke-width="5"/><line x1="291.07" y1="584.61" x2="681.52" y2="584.61" fill="none" stroke="#000" stroke-miterlimit="10" stroke-width="5"/><line x1="291.07" y1="629.23" x2="681.52" y2="629.23" fill="none" stroke="#000" stroke-miterlimit="10" stroke-width="5"/><path d="m269.15,629.23c12.32,0,22.31-9.99,22.31-22.31s-9.99-22.31-22.31-22.31" fill="none" stroke="#000" stroke-miterlimit="10" stroke-width="5"/><line x1="180.44" y1="584.61" x2="269.15" y2="584.61" fill="none" stroke="#000" stroke-miterlimit="10" stroke-width="5"/><line x1="180.44" y1="629.23" x2="269.15" y2="629.23" fill="none" stroke="#000" stroke-miterlimit="10" stroke-width="5"/><line x1="180.69" y1="595.7" x2="180.69" y2="584.87" fill="none" stroke="#000" stroke-miterlimit="10" stroke-width="5"/><line x1="180.69" y1="617.88" x2="180.69" y2="629.23" fill="none" stroke="#000" stroke-miterlimit="10" stroke-width="5"/><rect x="158.52" y="595.7" width="44.36" height="22.18" fill="none" stroke="#000" stroke-miterlimit="10" stroke-width="5"/><line x1="436.52" y1="272.57" x2="436.52" y2="383.98" fill="none" stroke="#000" stroke-miterlimit="10" stroke-width="5"/><line x1="380.82" y1="384.23" x2="436.52" y2="495.9" fill="none" stroke="#000" stroke-miterlimit="10" stroke-width="5"/><line x1="436" y1="495.64" x2="436" y2="807.43" fill="none" stroke="#000" stroke-miterlimit="10" stroke-width="5"/><line x1="547.93" y1="272.57" x2="547.93" y2="383.98" fill="none" stroke="#000" stroke-miterlimit="10" stroke-width="5"/><line x1="492.22" y1="384.23" x2="547.93" y2="495.9" fill="none" stroke="#000" stroke-miterlimit="10" stroke-width="5"/><line x1="547.41" y1="495.64" x2="547.41" y2="807.43" fill="none" stroke="#000" stroke-miterlimit="10" stroke-width="5"/><circle cx="547.41" cy="696.28" r="5.42"/><rect x="213.7" y="417.76" width="44.36" height="44.36" fill="none" stroke="#000" stroke-miterlimit="10" stroke-width="5"/><line x1="158" y1="417.24" x2="158" y2="462.12" fill="none" stroke="#000" stroke-miterlimit="10" stroke-width="5"/><line x1="213.7" y1="439.94" x2="258.06" y2="439.94" fill="none" stroke="#000" stroke-miterlimit="10" stroke-width="5"/><line x1="235.88" y1="417.24" x2="235.88" y2="462.12" fill="none" stroke="#000" stroke-miterlimit="10" stroke-width="5"/><path d="m914.8,417.81c.72-.15,1.75-.23,2.74-.23,1.52,0,2.51.28,3.2.9.56.49.87,1.25.87,2.1,0,1.46-.92,2.43-2.08,2.82v.05c.85.29,1.36,1.08,1.62,2.23.36,1.54.62,2.61.85,3.03h-1.48c-.18-.31-.43-1.26-.74-2.64-.33-1.52-.92-2.1-2.21-2.15h-1.34v4.79h-1.43v-10.9Zm1.43,5.03h1.46c1.52,0,2.49-.84,2.49-2.1,0-1.43-1.03-2.05-2.54-2.07-.69,0-1.18.07-1.41.13v4.03Z"/><path d="m304.09,285.48v.03l1.04,1.93-1.14.29-1.3-2.43v-1.28h11.1v1.45h-9.7Z"/><path d="m313.82,795.98h-.91l-1.13-1.16c-2.66-2.79-4.07-4.06-5.72-4.07-1.11,0-2.14.54-2.14,2.17,0,.99.51,1.82.93,2.32l-1.04.47c-.64-.76-1.11-1.84-1.11-3.1,0-2.36,1.62-3.35,3.18-3.35,2.02,0,3.65,1.46,5.88,3.77l.81.88h.03v-4.92h1.23v6.99Z"/><path d="m423.26,290.35c.26-.41.68-1.37.68-2.38,0-1.87-1.19-2.45-2.09-2.43-1.51.02-2.15,1.37-2.15,2.78v.81h-1.09v-.81c0-1.06-.55-2.4-1.82-2.4-.86,0-1.62.55-1.62,1.89,0,.86.38,1.69.71,2.15l-1.06.38c-.41-.56-.83-1.66-.83-2.82,0-2.12,1.26-3.08,2.57-3.08,1.11,0,2.05.66,2.53,1.99h.03c.26-1.32,1.26-2.4,2.77-2.4,1.72,0,3.23,1.34,3.23,3.93,0,1.21-.38,2.27-.73,2.8l-1.13-.4Z"/><path d="m425.11,790.8h-3.03v5.17h-.99l-7.11-4.97v-1.63h6.92v-1.56h1.18v1.56h3.03v1.42Zm-4.21,0h-3.72c-.58,0-1.16-.02-1.75-.05v.05c.65.34,1.13.62,1.64.92l3.78,2.72h.03v-3.65Z"/><path d="m526.52,284.24v4.18l2.81.42c-.03-.25-.07-.49-.07-.89,0-.84.19-1.68.59-2.36.49-.86,1.43-1.57,2.81-1.57,2.14,0,3.74,1.7,3.74,4.07,0,1.2-.34,2.21-.67,2.73l-1.13-.37c.27-.45.61-1.35.61-2.34,0-1.4-.91-2.59-2.37-2.59-1.41.02-2.42.96-2.42,3.15,0,.62.07,1.11.12,1.52l-5.25-.71v-5.24h1.25Z"/><path d="m526.47,789.64c-.02.3,0,.68.07,1.09.38,2.29,2.06,3.5,3.83,3.75v-.05c-.68-.51-1.24-1.41-1.24-2.6,0-1.91,1.38-3.25,3.48-3.25,1.97,0,3.8,1.34,3.8,3.58s-1.79,3.82-4.59,3.82c-2.12,0-3.8-.76-4.86-1.82-.88-.9-1.43-2.09-1.59-3.45-.07-.43-.08-.8-.08-1.06h1.19Zm6.22.41c-1.54,0-2.47.88-2.47,2.22,0,.88.55,1.69,1.33,2.09.17.1.38.17.65.17,1.77-.03,3.09-.85,3.09-2.37,0-1.26-1.04-2.11-2.59-2.11Z"/><path d="m647.7,292.38h-11.13v-1.57l5.63-3.57c1.3-.83,2.48-1.47,3.62-2l-.02-.03c-1.49.13-2.84.17-4.57.17h-4.66v-1.35h11.13v1.45l-5.65,3.53c-1.24.78-2.51,1.52-3.72,2.08l.02.05c1.4-.08,2.74-.12,4.59-.12h4.76v1.35Z"/><path d="m647.7,795.98h-11.13v-1.57l5.63-3.57c1.3-.83,2.48-1.47,3.62-2l-.02-.03c-1.49.13-2.84.17-4.57.17h-4.66v-1.35h11.13v1.45l-5.65,3.53c-1.24.78-2.51,1.52-3.72,2.08l.02.05c1.4-.08,2.74-.12,4.59-.12h4.76v1.35Z"/><path d="m769.6,541.22h-3.39v-1.22h8.24v1.22h-3.4v9.91h-1.45v-9.91Z"/><line x1="158.52" y1="439.42" x2="164.52" y2="439.42" fill="none" stroke="#000" stroke-miterlimit="10" stroke-width="5"/><line x1="178.91" y1="439.42" x2="200.51" y2="439.42" fill="none" stroke="#000" stroke-dasharray="0 0 14.4 14.4" stroke-miterlimit="10" stroke-width="5"/><line x1="207.7" y1="439.42" x2="213.7" y2="439.42" fill="none" stroke="#000" stroke-miterlimit="10" stroke-width="5"/><line x1="235.88" y1="607.05" x2="229.88" y2="607.05" fill="none" stroke="#000" stroke-miterlimit="10" stroke-width="5"/><line x1="222.97" y1="607.05" x2="212.59" y2="607.05" fill="none" stroke="#000" stroke-dasharray="0 0 6.92 6.92" stroke-miterlimit="10" stroke-width="5"/><line x1="209.13" y1="607.05" x2="203.13" y2="607.05" fill="none" stroke="#000" stroke-miterlimit="10" stroke-width="5"/><line x1="235.88" y1="462.12" x2="235.88" y2="468.12" fill="none" stroke="#000" stroke-miterlimit="10" stroke-width="5"/><line x1="235.88" y1="480.2" x2="235.88" y2="595.01" fill="none" stroke="#000" stroke-dasharray="0 0 12.08 12.08" stroke-miterlimit="10" stroke-width="5"/><line x1="235.88" y1="601.05" x2="235.88" y2="607.05" fill="none" stroke="#000" stroke-miterlimit="10" stroke-width="5"/><line x1="258.06" y1="439.94" x2="264.06" y2="439.94" fill="none" stroke="#000" stroke-miterlimit="10" stroke-width="5"/><line x1="276.17" y1="439.94" x2="730.32" y2="439.94" fill="none" stroke="#000" stroke-dasharray="0 0 12.11 12.11" stroke-miterlimit="10" stroke-width="5"/><line x1="736.38" y1="439.94" x2="742.38" y2="439.94" fill="none" stroke="#000" stroke-miterlimit="10" stroke-width="5"/><line x1="759.4" y1="595.45" x2="765.4" y2="595.45" fill="none" stroke="#000" stroke-miterlimit="10" stroke-width="5"/><line x1="777.2" y1="595.45" x2="842.14" y2="595.45" fill="none" stroke="#000" stroke-dasharray="0 0 11.81 11.81" stroke-miterlimit="10" stroke-width="5"/><line x1="848.04" y1="595.45" x2="854.04" y2="595.45" fill="none" stroke="#000" stroke-miterlimit="10" stroke-width="5"/><rect id="Base" width="1080" height="1080" opacity="0"/></g></g></svg>