<?xml version="1.0" encoding="UTF-8"?><svg id="Capa_2" xmlns="http://www.w3.org/2000/svg" viewBox="0 0 1080 1080"><g id="Capa_1-2"><g id="Multifilar_-_Final_de_carrera_N.C._Interruptor_de_Posición_-_1"><line x1="501.3" y1="413.36" x2="629.85" y2="413.36" fill="none" stroke="#000" stroke-miterlimit="10" stroke-width="5"/><line x1="501.8" y1="158" x2="501.8" y2="412.72" fill="none" stroke="#000" stroke-miterlimit="10" stroke-width="5"/><line x1="501.8" y1="667.6" x2="501.8" y2="922" fill="none" stroke="#000" stroke-miterlimit="10" stroke-width="5"/><line x1="629.85" y1="362.44" x2="501.8" y2="667.6" fill="none" stroke="#000" stroke-miterlimit="10" stroke-width="5"/><line x1="543.6" y1="568.13" x2="549.22" y2="488.13" fill="none" stroke="#000" stroke-miterlimit="10" stroke-width="5"/><line x1="572.98" y1="498.1" x2="549.22" y2="488.13" fill="none" stroke="#000" stroke-miterlimit="10" stroke-width="5"/><path d="m453.73,891.95v.08l2.35,4.35-2.58.66-2.93-5.47v-2.89h25.03v3.27h-21.88Z"/><path d="m475.61,879.54h-2.08l-2.58-2.66c-6.08-6.39-9.32-9.28-13.09-9.32-2.54,0-4.89,1.23-4.89,4.97,0,2.27,1.15,4.16,2.12,5.31l-2.39,1.08c-1.46-1.73-2.54-4.2-2.54-7.09,0-5.39,3.7-7.66,7.28-7.66,4.62,0,8.36,3.35,13.44,8.63l1.85,2h.08v-11.24h2.81v15.98Z"/><path d="m453.36,207.69v.08l2.39,4.43-2.62.66-2.98-5.56v-2.94h25.46v3.33h-22.25Z"/><path d="m453.36,187.59v.08l2.39,4.43-2.62.67-2.98-5.56v-2.94h25.46v3.33h-22.25Z"/><rect id="Base" width="1080" height="1080" opacity="0"/></g></g></svg>