<?xml version="1.0" encoding="UTF-8"?><svg id="Capa_2" xmlns="http://www.w3.org/2000/svg" viewBox="0 0 1080 1080"><g id="Capa_1-2"><g id="Multifilar_-_Termostato"><line x1="312.05" y1="417.83" x2="312.05" y2="234.34" fill="none" stroke="#000" stroke-miterlimit="10" stroke-width="5"/><line x1="312.05" y1="662.43" x2="312.05" y2="845.81" fill="none" stroke="#000" stroke-miterlimit="10" stroke-width="5"/><line x1="647.68" y1="388.12" x2="767.96" y2="661.36" fill="none" stroke="#000" stroke-miterlimit="10" stroke-width="5"/><line x1="616.63" y1="234.19" x2="616.63" y2="417.88" fill="none" stroke="#000" stroke-miterlimit="10" stroke-width="5"/><line x1="678.16" y1="417.24" x2="616.63" y2="417.24" fill="none" stroke="#000" stroke-miterlimit="10" stroke-width="5"/><line x1="859.52" y1="417.24" x2="922" y2="417.24" fill="none" stroke="#000" stroke-miterlimit="10" stroke-width="5"/><line x1="921.45" y1="235.72" x2="921.45" y2="417.13" fill="none" stroke="#000" stroke-miterlimit="10" stroke-width="5"/><line x1="767.96" y1="661.36" x2="767.64" y2="845.81" fill="none" stroke="#000" stroke-miterlimit="10" stroke-width="5"/><rect x="190.49" y="418.6" width="243.84" height="243.84" fill="none" stroke="#000" stroke-miterlimit="10" stroke-width="5"/><path d="m386.69,570.68s-38.4-20.21-55.58-54.57c-17.18-34.36-11.12-59.62,0-65.57,8.82-4.72,36.38,4.93,40.42,40.3,3.79,33.13-10.11,76.8-20.21,94.99-6.82,12.27-27.29,53.56-52.55,44.47-25.26-9.1-32.34-35.37-18.61-59.62,13.94-24.62,16.59-56.59-7.67-61.65-24.25-5.05-34.36,35.37-34.36,35.37" fill="none" stroke="#000" stroke-miterlimit="10" stroke-width="5"/><circle cx="219.94" cy="356.2" r="30.79"/><line x1="158" y1="355.14" x2="281.17" y2="355.14" fill="none" stroke="#000" stroke-miterlimit="10" stroke-width="5"/><line x1="219.58" y1="263.83" x2="219.58" y2="354.43" fill="none" stroke="#000" stroke-miterlimit="10" stroke-width="5"/><path d="m711.73,807.88v.09l2.86,5.3-3.14.8-3.56-6.66v-3.52h30.48v3.99h-26.63Z"/><path d="m711.73,783.82v.09l2.86,5.3-3.14.8-3.56-6.66v-3.52h30.48v3.99h-26.63Z"/><path d="m559.67,299.55v.09l2.82,5.23-3.1.79-3.52-6.57v-3.47h30.09v3.94h-26.29Z"/><path d="m585.96,284.65h-2.5l-3.1-3.19c-7.31-7.69-11.2-11.16-15.74-11.2-3.06,0-5.88,1.48-5.88,5.97,0,2.73,1.39,5,2.55,6.39l-2.87,1.3c-1.76-2.08-3.05-5.05-3.05-8.52,0-6.48,4.44-9.21,8.75-9.21,5.55,0,10.04,4.03,16.16,10.37l2.22,2.41h.09v-13.52h3.38v19.21Z"/><path d="m864.12,301.45v.09l2.86,5.3-3.14.8-3.56-6.66v-3.52h30.48v3.99h-26.63Z"/><path d="m890.76,273.6h-8.3v14.16h-2.72l-19.46-13.6v-4.45h18.94v-4.27h3.24v4.27h8.3v3.89Zm-11.54,0h-10.17c-1.59,0-3.19-.05-4.78-.14v.14c1.78.94,3.09,1.69,4.5,2.53l10.36,7.46h.09v-9.99Z"/><path d="m271.58,299.49l9.59,3.17v4.07l-30.48-10.35v-4.75l30.48-10.4v4.21l-9.59,3.26v10.81Zm-3.08-9.99l-8.77,2.98c-1.99.68-3.8,1.13-5.56,1.58v.09c1.81.45,3.66.95,5.52,1.54l8.82,2.99v-9.18Z"/><path d="m255.48,269.5v.09l2.76,5.11-3.03.77-3.44-6.42v-3.39h29.4v3.84h-25.69Z"/><path d="m271.58,806.41l9.59,3.17v4.07l-30.48-10.35v-4.75l30.48-10.4v4.21l-9.59,3.26v10.81Zm-3.08-9.99l-8.77,2.98c-1.99.68-3.8,1.13-5.56,1.58v.09c1.81.45,3.66.95,5.52,1.54l8.82,2.99v-9.18Z"/><path d="m281.17,785.05h-2.44l-3.03-3.12c-7.15-7.51-10.94-10.9-15.38-10.94-2.98,0-5.74,1.45-5.74,5.83,0,2.67,1.36,4.89,2.49,6.24l-2.8,1.27c-1.72-2.04-2.98-4.93-2.98-8.32,0-6.33,4.34-9,8.55-9,5.43,0,9.81,3.94,15.78,10.13l2.17,2.35h.09v-13.2h3.3v18.76Z"/><line x1="434.33" y1="539.43" x2="440.33" y2="539.43" fill="none" stroke="#000" stroke-miterlimit="10" stroke-width="5"/><line x1="451.96" y1="539.43" x2="702.16" y2="539.43" fill="none" stroke="#000" stroke-dasharray="0 0 11.64 11.64" stroke-miterlimit="10" stroke-width="5"/><line x1="707.98" y1="539.43" x2="713.98" y2="539.43" fill="none" stroke="#000" stroke-miterlimit="10" stroke-width="5"/><rect id="Base" width="1080" height="1080" opacity="0"/></g></g></svg>