<?xml version="1.0" encoding="UTF-8"?><svg id="Capa_2" xmlns="http://www.w3.org/2000/svg" viewBox="0 0 1080 1080"><g id="Capa_1-2"><g id="Multifilar_-_Watímetro"><rect x="349.62" y="349.17" width="378.12" height="378.12" fill="none" stroke="#000" stroke-miterlimit="10" stroke-width="5"/><line x1="538.67" y1="158" x2="538.67" y2="347.71" fill="none" stroke="#000" stroke-miterlimit="10" stroke-width="5"/><line x1="538.67" y1="727.29" x2="538.67" y2="922" fill="none" stroke="#000" stroke-miterlimit="10" stroke-width="5"/><line x1="727.73" y1="538.23" x2="921.56" y2="538.23" fill="none" stroke="#000" stroke-miterlimit="10" stroke-width="5"/><line x1="158.44" y1="538.23" x2="349.62" y2="538.23" fill="none" stroke="#000" stroke-miterlimit="10" stroke-width="5"/><path d="m501.81,871.76l-38.13,12.44v-5.32l18.78-5.94c5.15-1.64,9.79-3.05,14.26-4.07v-.11c-4.41-1.07-9.22-2.66-14.2-4.35l-18.84-6.45v-5.26l38.13,13.63v5.43Z"/><path d="m501.81,215.22l-38.13,12.44v-5.32l18.78-5.94c5.15-1.64,9.79-3.05,14.26-4.07v-.11c-4.41-1.07-9.22-2.66-14.2-4.36l-18.84-6.45v-5.26l38.13,13.63v5.43Z"/><path d="m206.41,489.84l-3.96,12h-5.09l12.96-38.16h5.94l13.02,38.16h-5.27l-4.08-12h-13.53Zm12.51-3.85l-3.74-10.98c-.85-2.49-1.42-4.76-1.98-6.96h-.11c-.57,2.26-1.19,4.59-1.92,6.91l-3.74,11.04h11.49Z"/><path d="m861.1,489.84l-3.96,12h-5.1l12.97-38.16h5.94l13.02,38.16h-5.26l-4.08-12h-13.53Zm12.51-3.85l-3.74-10.98c-.85-2.49-1.41-4.76-1.98-6.96h-.11c-.57,2.26-1.19,4.59-1.92,6.91l-3.74,11.04h11.49Z"/><path d="m485.54,616.31l-38.72-152.62h20.83l18.12,77.22c4.53,19.02,8.6,38.04,11.32,52.76h.45c2.49-15.17,7.25-33.29,12.45-52.99l20.38-76.99h20.61l18.57,77.44c4.3,18.12,8.38,36.23,10.64,52.31h.45c3.17-16.76,7.47-33.74,12.23-52.76l20.15-76.99h20.15l-43.25,152.62h-20.61l-19.25-79.48c-4.76-19.47-7.93-34.42-9.96-49.82h-.45c-2.72,15.17-6.11,30.12-11.77,49.82l-21.74,79.48h-20.61Z"/><rect id="Base" width="1080" height="1080" opacity="0"/></g></g></svg>