<?xml version="1.0" encoding="UTF-8"?><svg id="Capa_2" xmlns="http://www.w3.org/2000/svg" viewBox="0 0 1080 1080"><g id="Capa_1-2"><g id="Multifilar_-_Línea_de_Protección"><path d="m158,486.45c6.89-1.15,15.91-2.13,27.39-2.13,14.11,0,24.44,3.28,31,9.18,6.07,5.25,9.67,13.29,9.67,23.12s-2.95,17.88-8.53,23.62c-7.55,8.04-19.84,12.14-33.79,12.14-4.26,0-8.2-.16-11.48-.98v44.28h-14.27v-109.23Zm14.27,53.31c3.12.82,7.06,1.15,11.81,1.15,17.23,0,27.72-8.37,27.72-23.62s-10.33-21.65-26.08-21.65c-6.23,0-10.99.49-13.45,1.15v42.97Z"/><path d="m302.48,543.85h-42.97v39.85h47.89v11.97h-62.16v-110.54h59.7v11.97h-45.43v34.93h42.97v11.81Z"/><line x1="363.28" y1="540.19" x2="369.28" y2="540.19" fill="none" stroke="#000" stroke-miterlimit="10" stroke-width="5"/><line x1="381.43" y1="540.19" x2="909.93" y2="540.19" fill="none" stroke="#000" stroke-dasharray="0 0 12.15 12.15" stroke-miterlimit="10" stroke-width="5"/><line x1="916" y1="540.19" x2="922" y2="540.19" fill="none" stroke="#000" stroke-miterlimit="10" stroke-width="5"/><rect id="Base" width="1080" height="1080" opacity="0"/></g></g></svg>