<?xml version="1.0" encoding="UTF-8"?><svg id="Capa_2" xmlns="http://www.w3.org/2000/svg" viewBox="0 0 1080 1080"><g id="Capa_1-2"><g id="Multifilar_-_Fusible_bipolar"><rect x="271.83" y="349.44" width="154.22" height="381.11" fill="none" stroke="#000" stroke-miterlimit="10" stroke-width="5"/><line x1="349.82" y1="158" x2="349.82" y2="922" fill="none" stroke="#000" stroke-miterlimit="10" stroke-width="5"/><path d="m278.02,201.59v.12l3.59,6.64-3.94,1-4.47-8.35v-4.41h38.21v5h-33.39Z" stroke="#000" stroke-miterlimit="10" stroke-width=".25"/><path d="m311.41,883.91h-3.12l-3.87-3.99c-9.13-9.6-13.99-13.93-19.66-13.99-3.82,0-7.34,1.85-7.34,7.46,0,3.41,1.73,6.24,3.18,7.98l-3.58,1.62c-2.2-2.6-3.82-6.3-3.82-10.64,0-8.09,5.55-11.51,10.93-11.51,6.94,0,12.54,5.03,20.18,12.95l2.78,3.01h.12v-16.88h4.22v23.99Z" stroke="#000" stroke-miterlimit="10" stroke-width=".25"/><rect x="653.95" y="349.44" width="154.22" height="381.11" fill="none" stroke="#000" stroke-miterlimit="10" stroke-width="5"/><line x1="731.95" y1="158" x2="731.95" y2="922" fill="none" stroke="#000" stroke-miterlimit="10" stroke-width="5"/><path d="m686.24,218.74c.94-1.47,2.42-4.89,2.42-8.49,0-6.67-4.25-8.73-7.43-8.67-5.37.06-7.67,4.89-7.67,9.91v2.89h-3.89v-2.89c0-3.77-1.95-8.55-6.49-8.55-3.07,0-5.78,1.95-5.78,6.72,0,3.07,1.36,6.02,2.54,7.67l-3.77,1.35c-1.47-2-2.95-5.9-2.95-10.03,0-7.55,4.48-10.97,9.14-10.97,3.95,0,7.31,2.36,9.02,7.08h.12c.94-4.72,4.48-8.55,9.85-8.55,6.14,0,11.5,4.78,11.5,13.98,0,4.3-1.36,8.08-2.6,9.97l-4.01-1.42Z"/><path d="m692.85,866.05h-10.41v17.75h-3.41l-24.4-17.05v-5.58h23.75v-5.35h4.05v5.35h10.41v4.88Zm-14.46,0h-12.76c-2,0-4-.06-6-.18v.18c2.24,1.17,3.88,2.12,5.64,3.17l12.99,9.35h.12v-12.52Z"/><rect id="Base" width="1080" height="1080" opacity="0"/></g></g></svg>