<?xml version="1.0" encoding="UTF-8"?><svg id="Capa_2" xmlns="http://www.w3.org/2000/svg" viewBox="0 0 1080 1080"><g id="Capa_1-2"><g id="Multifilar_-_Voltímetro"><circle cx="540" cy="538.23" r="191" fill="none" stroke="#000" stroke-miterlimit="10" stroke-width="5"/><line x1="540.88" y1="158" x2="541.48" y2="347.23" fill="none" stroke="#000" stroke-miterlimit="10" stroke-width="5"/><line x1="538.52" y1="729.23" x2="539.12" y2="922" fill="none" stroke="#000" stroke-miterlimit="10" stroke-width="5"/><path d="m469.28,202.07v.12l3.57,6.62-3.92,1-4.45-8.32v-4.39h38.07v4.98h-33.27Z"/><path d="m502.55,884.44h-3.16l-3.92-4.04c-9.25-9.72-14.17-14.12-19.92-14.17-3.86,0-7.43,1.87-7.43,7.55,0,3.46,1.75,6.33,3.22,8.08l-3.63,1.64c-2.23-2.64-3.87-6.39-3.87-10.78,0-8.2,5.62-11.66,11.07-11.66,7.03,0,12.71,5.1,20.44,13.12l2.81,3.05h.11v-17.1h4.28v24.31Z"/><path d="m526.74,616.4l-49.88-152.8h21.31l23.8,75.27c6.58,20.63,12.24,39.22,16.32,57.13h.45c4.31-17.68,10.65-36.95,17.46-56.9l25.85-75.49h21.08l-54.64,152.8h-21.76Z"/><rect id="Base" width="1080" height="1080" opacity="0"/></g></g></svg>