<?xml version="1.0" encoding="UTF-8"?><svg id="Capa_2" xmlns="http://www.w3.org/2000/svg" viewBox="0 0 1080 1080"><g id="Capa_1-2"><g id="Multifilar_-_Fusible"><rect x="462.89" y="349.44" width="154.22" height="381.11" fill="none" stroke="#000" stroke-miterlimit="10" stroke-width="5"/><line x1="540.89" y1="158" x2="540.89" y2="922" fill="none" stroke="#000" stroke-miterlimit="10" stroke-width="5"/><path d="m469.08,201.59v.12l3.59,6.64-3.94,1-4.47-8.35v-4.41h38.21v5h-33.39Z" stroke="#000" stroke-miterlimit="10" stroke-width=".25"/><path d="m502.47,883.91h-3.12l-3.87-3.99c-9.13-9.6-13.99-13.93-19.66-13.99-3.82,0-7.34,1.85-7.34,7.46,0,3.41,1.73,6.24,3.18,7.98l-3.58,1.62c-2.2-2.6-3.82-6.3-3.82-10.64,0-8.09,5.55-11.51,10.93-11.51,6.94,0,12.54,5.03,20.18,12.95l2.78,3.01h.12v-16.88h4.22v23.99Z" stroke="#000" stroke-miterlimit="10" stroke-width=".25"/><rect id="Base" width="1080" height="1080" opacity="0"/></g></g></svg>