<?xml version="1.0" encoding="UTF-8"?><svg id="Capa_2" xmlns="http://www.w3.org/2000/svg" viewBox="0 0 1080 1080"><g id="Capa_1-2"><g id="Multifilar_-_Detector_fotoeléctrico_de_proximidad"><rect x="349.42" y="442.54" width="56.71" height="56.71" transform="translate(443.63 -129.21) rotate(45)" fill="none" stroke="#000" stroke-miterlimit="10" stroke-width="5"/><rect x="242" y="403.01" width="271.57" height="271.57" fill="none" stroke="#000" stroke-miterlimit="10" stroke-width="5"/><line x1="378.41" y1="403.64" x2="378.41" y2="267.46" fill="none" stroke="#000" stroke-miterlimit="10" stroke-width="5"/><line x1="378.41" y1="674.57" x2="378.41" y2="812" fill="none" stroke="#000" stroke-miterlimit="10" stroke-width="5"/><line x1="351.25" y1="565.95" x2="378.41" y2="565.95" fill="none" stroke="#000" stroke-miterlimit="10" stroke-width="5"/><line x1="361.81" y1="446.76" x2="361.81" y2="495.04" fill="none" stroke="#000" stroke-miterlimit="10" stroke-width="5"/><line x1="393.75" y1="446.76" x2="393.75" y2="495.04" fill="none" stroke="#000" stroke-miterlimit="10" stroke-width="5"/><line x1="295.89" y1="538.16" x2="295.89" y2="648.05" fill="none" stroke="#000" stroke-miterlimit="10" stroke-width="5"/><line x1="268.73" y1="620.26" x2="323.05" y2="620.26" fill="none" stroke="#000" stroke-miterlimit="10" stroke-width="5"/><polygon points="295.89 567.84 322.41 567.84 309.15 593.81 295.89 619.79 282.63 593.81 269.36 567.84 295.89 567.84" fill="none" stroke="#000" stroke-miterlimit="10" stroke-width="5"/><polygon points="377.78 565.95 377.78 552.16 391.04 559.05 404.3 565.95 391.04 572.84 377.78 579.74 377.78 565.95"/><polygon points="452.5 630.64 458.78 618.37 467.44 630.54 476.11 642.72 461.16 642.82 446.21 642.92 452.5 630.64"/><line x1="351.25" y1="620.26" x2="378.41" y2="620.26" fill="none" stroke="#000" stroke-miterlimit="10" stroke-width="5"/><polygon points="377.78 620.26 377.78 606.47 391.04 613.37 404.3 620.26 391.04 627.16 377.78 634.05 377.78 620.26"/><line x1="432.72" y1="539.42" x2="432.72" y2="648.05" fill="none" stroke="#000" stroke-miterlimit="10" stroke-width="5"/><line x1="432.72" y1="620.26" x2="487.04" y2="648.05" fill="none" stroke="#000" stroke-miterlimit="10" stroke-width="5"/><line x1="487.04" y1="539.42" x2="432.72" y2="565.95" fill="none" stroke="#000" stroke-miterlimit="10" stroke-width="5"/><rect x="158" y="483.85" width="27.48" height="111.15" fill="none" stroke="#000" stroke-miterlimit="10" stroke-width="5"/><line x1="158.31" y1="483.85" x2="185.79" y2="511.63" fill="none" stroke="#000" stroke-miterlimit="10" stroke-width="5"/><line x1="185.79" y1="538.16" x2="158.31" y2="511.63" fill="none" stroke="#000" stroke-miterlimit="10" stroke-width="5"/><line x1="158.31" y1="539.42" x2="185.79" y2="567.21" fill="none" stroke="#000" stroke-miterlimit="10" stroke-width="5"/><line x1="185.79" y1="593.74" x2="158.31" y2="567.21" fill="none" stroke="#000" stroke-miterlimit="10" stroke-width="5"/><line x1="677.52" y1="404.64" x2="784.71" y2="648.16" fill="none" stroke="#000" stroke-miterlimit="10" stroke-width="5"/><line x1="649.84" y1="267.46" x2="649.84" y2="431.16" fill="none" stroke="#000" stroke-miterlimit="10" stroke-width="5"/><line x1="704.68" y1="430.59" x2="649.84" y2="430.59" fill="none" stroke="#000" stroke-miterlimit="10" stroke-width="5"/><line x1="866.31" y1="430.59" x2="922" y2="430.59" fill="none" stroke="#000" stroke-miterlimit="10" stroke-width="5"/><line x1="921.51" y1="268.81" x2="921.51" y2="430.5" fill="none" stroke="#000" stroke-miterlimit="10" stroke-width="5"/><line x1="784.71" y1="648.16" x2="784.43" y2="812.54" fill="none" stroke="#000" stroke-miterlimit="10" stroke-width="5"/><path d="m734.62,778.58v.08l2.57,4.75-2.82.72-3.2-5.97v-3.15h27.34v3.57h-23.89Z"/><path d="m734.62,757v.08l2.57,4.75-2.82.72-3.2-5.97v-3.15h27.34v3.57h-23.89Z"/><path d="m599.16,325.55v.08l2.5,4.64-2.75.7-3.12-5.83v-3.08h26.68v3.49h-23.31Z"/><path d="m622.48,312.33h-2.22l-2.75-2.83c-6.48-6.81-9.93-9.89-13.95-9.93-2.71,0-5.21,1.31-5.21,5.29,0,2.42,1.23,4.43,2.26,5.66l-2.55,1.15c-1.56-1.85-2.71-4.47-2.71-7.55,0-5.75,3.94-8.17,7.76-8.17,4.92,0,8.91,3.57,14.32,9.19l1.97,2.13h.08v-11.98h3v17.03Z"/><path d="m870.42,327.4v.08l2.55,4.72-2.8.71-3.18-5.93v-3.13h27.16v3.55h-23.74Z"/><path d="m894.16,302.57h-7.4v12.62h-2.42l-17.34-12.12v-3.97h16.88v-3.8h2.88v3.8h7.4v3.47Zm-10.28,0h-9.07c-1.42,0-2.84-.04-4.26-.13v.13c1.59.84,2.76,1.5,4.01,2.26l9.24,6.65h.08v-8.9Z"/><path d="m342.32,325.65l8.54,2.82v3.63l-27.16-9.23v-4.23l27.16-9.27v3.75l-8.54,2.9v9.63Zm-2.74-8.91l-7.82,2.66c-1.77.61-3.39,1.01-4.96,1.41v.08c1.61.4,3.27.85,4.92,1.37l7.86,2.66v-8.18Z"/><path d="m327.97,298.92v.08l2.46,4.56-2.7.69-3.06-5.72v-3.02h26.2v3.43h-22.89Z"/><path d="m342.32,777.44l8.54,2.82v3.63l-27.16-9.23v-4.23l27.16-9.27v3.75l-8.54,2.9v9.63Zm-2.74-8.91l-7.82,2.66c-1.77.61-3.39,1.01-4.96,1.41v.08c1.61.4,3.27.85,4.92,1.37l7.86,2.66v-8.18Z"/><path d="m350.87,758.4h-2.18l-2.7-2.78c-6.37-6.69-9.75-9.71-13.7-9.75-2.66,0-5.12,1.29-5.12,5.2,0,2.38,1.21,4.35,2.22,5.56l-2.5,1.13c-1.53-1.81-2.66-4.39-2.66-7.42,0-5.64,3.87-8.02,7.62-8.02,4.84,0,8.75,3.51,14.07,9.03l1.93,2.1h.08v-11.77h2.94v16.72Z"/><line x1="513.13" y1="539.49" x2="519.13" y2="539.49" fill="none" stroke="#000" stroke-miterlimit="10" stroke-width="5"/><line x1="531.57" y1="539.49" x2="724.38" y2="539.49" fill="none" stroke="#000" stroke-dasharray="0 0 12.44 12.44" stroke-miterlimit="10" stroke-width="5"/><line x1="730.6" y1="539.49" x2="736.6" y2="539.49" fill="none" stroke="#000" stroke-miterlimit="10" stroke-width="5"/><rect id="Base" width="1080" height="1080" opacity="0"/></g></g></svg>