<?xml version="1.0" encoding="UTF-8"?><svg id="Capa_2" xmlns="http://www.w3.org/2000/svg" viewBox="0 0 1080 1080"><g id="Capa_1-2"><g id="Multifilar_-_Automático_de_Escalera"><line x1="194.4" y1="294.6" x2="194.4" y2="785.4" fill="none" stroke="#000" stroke-miterlimit="10" stroke-width="5"/><line x1="558.41" y1="604.45" x2="558.41" y2="784.98" fill="none" stroke="#000" stroke-miterlimit="10" stroke-width="5"/><line x1="739.79" y1="604.03" x2="739.79" y2="784.56" fill="none" stroke="#000" stroke-miterlimit="10" stroke-width="5"/><line x1="922" y1="366.39" x2="922" y2="784.98" fill="none" stroke="#000" stroke-miterlimit="10" stroke-width="5"/><circle cx="194.82" cy="603.61" r="9.24"/><line x1="194.84" y1="604.03" x2="360.24" y2="604.03" fill="none" stroke="#000" stroke-miterlimit="10" stroke-width="5"/><line x1="558.41" y1="604.87" x2="432.46" y2="604.87" fill="none" stroke="#000" stroke-miterlimit="10" stroke-width="5"/><line x1="432.46" y1="548.19" x2="432.46" y2="603.61" fill="none" stroke="#000" stroke-miterlimit="10" stroke-width="5"/><line x1="360.24" y1="548.19" x2="360.24" y2="603.61" fill="none" stroke="#000" stroke-miterlimit="10" stroke-width="5"/><rect x="252.76" y="475.55" width="215.8" height="72.21" fill="none" stroke="#000" stroke-miterlimit="10" stroke-width="5"/><rect x="251.5" y="475.13" width="73.05" height="73.05"/><line x1="631.46" y1="421.81" x2="739.79" y2="604.03" fill="none" stroke="#000" stroke-miterlimit="10" stroke-width="5"/><line x1="396.35" y1="475.55" x2="396.35" y2="366.39" fill="none" stroke="#000" stroke-miterlimit="10" stroke-width="5"/><line x1="922" y1="366.39" x2="396.35" y2="366.39" fill="none" stroke="#000" stroke-miterlimit="10" stroke-width="5"/><line x1="194.84" y1="295.02" x2="741.04" y2="295.02" fill="none" stroke="#000" stroke-miterlimit="10" stroke-width="5"/><line x1="740.62" y1="420.97" x2="740.62" y2="294.6" fill="none" stroke="#000" stroke-miterlimit="10" stroke-width="5"/><line x1="468.56" y1="511.66" x2="474.56" y2="511.66" fill="none" stroke="#000" stroke-miterlimit="10" stroke-width="5"/><line x1="486.6" y1="511.66" x2="673.19" y2="511.66" fill="none" stroke="#000" stroke-dasharray="0 0 12.04 12.04" stroke-miterlimit="10" stroke-width="5"/><line x1="679.2" y1="511.66" x2="685.2" y2="511.66" fill="none" stroke="#000" stroke-miterlimit="10" stroke-width="5"/><path d="m559.25,475.55c19.94,0,36.11,16.17,36.11,36.11s-16.17,36.11-36.11,36.11" fill="none" stroke="#000" stroke-miterlimit="10" stroke-width="5"/><path d="m158.35,767.28c-.19-1.12-.35-2.6-.35-4.47,0-2.3.54-3.99,1.5-5.06.86-.99,2.17-1.58,3.78-1.58s2.92.48,3.86,1.39c1.31,1.23,1.98,3.24,1.98,5.52,0,.7-.03,1.34-.16,1.88h7.23v2.33h-17.84Zm8.71-2.33c.13-.51.19-1.15.19-1.93,0-2.81-1.37-4.53-3.86-4.53s-3.54,1.69-3.54,4.26c0,1.02.08,1.79.19,2.2h7.02Z"/><path d="m540.01,767.28h-18.19v-2.56l9.2-5.83c2.13-1.35,4.05-2.4,5.91-3.27l-.03-.05c-2.43.22-4.64.27-7.48.27h-7.61v-2.21h18.19v2.38l-9.23,5.78c-2.02,1.27-4.1,2.48-6.07,3.4l.03.08c2.29-.14,4.48-.19,7.5-.19h7.77v2.21Z"/><path d="m718.91,766.64c.43-.67,1.1-2.23,1.1-3.87,0-3.04-1.94-3.98-3.39-3.95-2.45.03-3.5,2.23-3.5,4.52v1.32h-1.77v-1.32c0-1.72-.89-3.9-2.96-3.9-1.4,0-2.63.89-2.63,3.06,0,1.4.62,2.74,1.16,3.49l-1.72.62c-.67-.91-1.34-2.69-1.34-4.57,0-3.44,2.04-5,4.17-5,1.8,0,3.33,1.08,4.11,3.23h.05c.43-2.15,2.04-3.9,4.49-3.9,2.8,0,5.24,2.18,5.24,6.37,0,1.96-.62,3.68-1.18,4.54l-1.83-.65Z"/><path d="m903.83,758.83h-4.95v8.45h-1.62l-11.61-8.12v-2.66h11.31v-2.55h1.93v2.55h4.95v2.32Zm-6.88,0h-6.07c-.95,0-1.9-.03-2.85-.08v.08c1.06.56,1.85,1.01,2.69,1.51l6.18,4.45h.06v-5.96Z"/><rect id="Base" width="1080" height="1080" opacity="0"/></g></g></svg>