<?xml version="1.0" encoding="UTF-8"?><svg id="Capa_2" xmlns="http://www.w3.org/2000/svg" viewBox="0 0 1080 1080"><g id="Capa_1-2"><g id="Multifilar_-_Resistencia_ajustable_ANSI"><line x1="158" y1="539.51" x2="349.44" y2="539.51" fill="none" stroke="#000" stroke-miterlimit="10" stroke-width="5"/><line x1="730.56" y1="539.51" x2="922" y2="539.51" fill="none" stroke="#000" stroke-miterlimit="10" stroke-width="5"/><line x1="347.67" y1="500.51" x2="347.67" y2="578.51" fill="none" stroke="#000" stroke-miterlimit="10" stroke-width="5"/><line x1="425.54" y1="578.39" x2="347.67" y2="500.51" fill="none" stroke="#000" stroke-miterlimit="10" stroke-width="5"/><line x1="423.89" y1="501.15" x2="423.89" y2="579.15" fill="none" stroke="#000" stroke-miterlimit="10" stroke-width="5"/><line x1="501.77" y1="579.03" x2="423.89" y2="501.15" fill="none" stroke="#000" stroke-miterlimit="10" stroke-width="5"/><line x1="501.89" y1="501.15" x2="501.89" y2="579.15" fill="none" stroke="#000" stroke-miterlimit="10" stroke-width="5"/><line x1="579.76" y1="579.03" x2="501.89" y2="501.15" fill="none" stroke="#000" stroke-miterlimit="10" stroke-width="5"/><line x1="578.11" y1="501.15" x2="578.11" y2="579.15" fill="none" stroke="#000" stroke-miterlimit="10" stroke-width="5"/><line x1="730.56" y1="501.15" x2="730.56" y2="579.15" fill="none" stroke="#000" stroke-miterlimit="10" stroke-width="5"/><line x1="655.98" y1="579.03" x2="578.11" y2="501.15" fill="none" stroke="#000" stroke-miterlimit="10" stroke-width="5"/><line x1="654.33" y1="501.15" x2="654.33" y2="579.15" fill="none" stroke="#000" stroke-miterlimit="10" stroke-width="5"/><line x1="732.21" y1="579.03" x2="654.33" y2="501.15" fill="none" stroke="#000" stroke-miterlimit="10" stroke-width="5"/><line x1="349.14" y1="730.41" x2="693.03" y2="386.52" fill="none" stroke="#000" stroke-miterlimit="10" stroke-width="5"/><line x1="654.33" y1="349.59" x2="730.56" y2="425.82" fill="none" stroke="#000" stroke-miterlimit="10" stroke-width="5"/><rect id="Base" width="1080" height="1080" opacity="0"/></g></g></svg>