<?xml version="1.0" encoding="UTF-8"?><svg id="Capa_2" xmlns="http://www.w3.org/2000/svg" viewBox="0 0 1080 1080"><g id="Capa_1-2"><g id="Multifilar_-_Detector_de_nivel_de_fluidos_-_2"><ellipse cx="310.7" cy="539.22" rx="152.7" ry="76.35" fill="none" stroke="#000" stroke-miterlimit="10" stroke-width="5"/><line x1="310.7" y1="463.63" x2="310.7" y2="235.29" fill="none" stroke="#000" stroke-miterlimit="10" stroke-width="5"/><line x1="647.29" y1="387.9" x2="767.74" y2="661.53" fill="none" stroke="#000" stroke-miterlimit="10" stroke-width="5"/><line x1="616.2" y1="233.76" x2="616.2" y2="417.71" fill="none" stroke="#000" stroke-miterlimit="10" stroke-width="5"/><line x1="677.82" y1="417.06" x2="616.2" y2="417.06" fill="none" stroke="#000" stroke-miterlimit="10" stroke-width="5"/><line x1="859.43" y1="417.06" x2="922" y2="417.06" fill="none" stroke="#000" stroke-miterlimit="10" stroke-width="5"/><line x1="921.45" y1="235.29" x2="921.45" y2="416.96" fill="none" stroke="#000" stroke-miterlimit="10" stroke-width="5"/><line x1="767.74" y1="661.53" x2="767.42" y2="846.24" fill="none" stroke="#000" stroke-miterlimit="10" stroke-width="5"/><path d="m711.43,808.26v.09l2.86,5.31-3.15.8-3.57-6.67v-3.52h30.52v3.99h-26.67Z"/><path d="m711.43,784.17v.09l2.86,5.31-3.15.8-3.57-6.67v-3.52h30.52v3.99h-26.67Z"/><path d="m559.25,299.03v.09l2.81,5.21-3.09.78-3.5-6.55v-3.46h29.98v3.92h-26.19Z"/><path d="m585.45,284.18h-2.49l-3.09-3.18c-7.29-7.66-11.16-11.11-15.68-11.16-3.04,0-5.86,1.48-5.86,5.95,0,2.72,1.38,4.98,2.54,6.36l-2.86,1.29c-1.75-2.08-3.04-5.03-3.04-8.49,0-6.46,4.43-9.18,8.72-9.18,5.53,0,10.01,4.01,16.09,10.33l2.21,2.4h.09v-13.47h3.37v19.14Z"/><path d="m864.04,301.11v.09l2.86,5.31-3.15.8-3.57-6.67v-3.52h30.52v3.99h-26.67Z"/><path d="m890.71,273.22h-8.31v14.18h-2.72l-19.49-13.62v-4.46h18.97v-4.27h3.24v4.27h8.31v3.9Zm-11.55,0h-10.19c-1.6,0-3.19-.05-4.79-.14v.14c1.78.94,3.1,1.69,4.51,2.54l10.38,7.47h.09v-10Z"/><line x1="464.92" y1="539.43" x2="470.92" y2="539.43" fill="none" stroke="#000" stroke-miterlimit="10" stroke-width="5"/><line x1="483.46" y1="539.43" x2="702.94" y2="539.43" fill="none" stroke="#000" stroke-dasharray="0 0 12.54 12.54" stroke-miterlimit="10" stroke-width="5"/><line x1="709.21" y1="539.43" x2="715.21" y2="539.43" fill="none" stroke="#000" stroke-miterlimit="10" stroke-width="5"/><rect id="Base" width="1080" height="1080" opacity="0"/></g></g></svg>