<?xml version="1.0" encoding="UTF-8"?><svg id="Capa_2" xmlns="http://www.w3.org/2000/svg" viewBox="0 0 1080 1080"><g id="Capa_1-2"><g id="Multifilar_-_Sensor_de_proximidad_Contacto_NA_"><line x1="686.36" y1="666.94" x2="686.36" y2="922" fill="none" stroke="#000" stroke-miterlimit="10" stroke-width="5"/><line x1="558.83" y1="411.29" x2="686.36" y2="666.35" fill="none" stroke="#000" stroke-miterlimit="10" stroke-width="5"/><line x1="686.36" y1="158" x2="686.36" y2="411.88" fill="none" stroke="#000" stroke-miterlimit="10" stroke-width="5"/><line x1="469.49" y1="541.04" x2="475.49" y2="541.04" fill="none" stroke="#000" stroke-miterlimit="10" stroke-width="5"/><line x1="488.43" y1="541.04" x2="611.41" y2="541.04" fill="none" stroke="#000" stroke-dasharray="0 0 12.94 12.94" stroke-miterlimit="10" stroke-width="5"/><line x1="617.88" y1="541.04" x2="623.88" y2="541.04" fill="none" stroke="#000" stroke-miterlimit="10" stroke-width="5"/><polygon points="431.3 578.55 393.64 541.04 431.3 503.22 468.97 541.04 431.3 578.55" fill="none" stroke="#000" stroke-miterlimit="10" stroke-width="5"/><line x1="416.31" y1="518.22" x2="416.31" y2="563.56" fill="none" stroke="#000" stroke-miterlimit="10" stroke-width="5"/><line x1="446.3" y1="518.22" x2="446.3" y2="563.56" fill="none" stroke="#000" stroke-miterlimit="10" stroke-width="5"/><path d="m638.16,892.14v.08l2.39,4.43-2.62.67-2.98-5.56v-2.94h25.46v3.33h-22.25Z"/><path d="m660.41,868.87h-6.93v11.83h-2.27l-16.25-11.36v-3.72h15.82v-3.56h2.7v3.56h6.93v3.25Zm-9.63,0h-8.5c-1.33,0-2.66-.04-4-.12v.12c1.49.78,2.58,1.41,3.76,2.11l8.65,6.23h.08v-8.34Z"/><path d="m638.47,212.01v.07l2.31,4.28-2.54.64-2.88-5.38v-2.84h24.62v3.22h-21.52Z"/><path d="m656.16,199.01c.61-.95,1.55-3.14,1.55-5.45,0-4.28-2.73-5.61-4.77-5.57-3.45.04-4.92,3.14-4.92,6.36v1.86h-2.5v-1.86c0-2.42-1.25-5.49-4.17-5.49-1.97,0-3.71,1.25-3.71,4.32,0,1.97.87,3.86,1.63,4.93l-2.42.87c-.95-1.29-1.89-3.79-1.89-6.44,0-4.85,2.88-7.04,5.87-7.04,2.54,0,4.7,1.51,5.8,4.55h.08c.61-3.03,2.88-5.49,6.32-5.49,3.94,0,7.39,3.07,7.39,8.98,0,2.76-.87,5.19-1.67,6.4l-2.58-.91Z"/><rect id="Base" width="1080" height="1080" opacity="0"/></g></g></svg>