<?xml version="1.0" encoding="UTF-8"?><svg id="Capa_2" xmlns="http://www.w3.org/2000/svg" viewBox="0 0 1080 1080"><g id="Capa_1-2"><g id="Multifilar_-_Transformador_1"><line x1="278.63" y1="281.4" x2="439.2" y2="281.4" fill="none" stroke="#000" stroke-miterlimit="10" stroke-width="5"/><line x1="278.63" y1="799.05" x2="439.2" y2="799.05" fill="none" stroke="#000" stroke-miterlimit="10" stroke-width="5"/><path d="m439.09,410.91c35.76,0,64.76-28.99,64.76-64.76s-28.99-64.76-64.76-64.76" fill="none" stroke="#000" stroke-miterlimit="10" stroke-width="5"/><path d="m439.09,540.29c35.76,0,64.76-28.99,64.76-64.76s-28.99-64.76-64.76-64.76" fill="none" stroke="#000" stroke-miterlimit="10" stroke-width="5"/><path d="m439.09,669.67c35.76,0,64.76-28.99,64.76-64.76s-28.99-64.76-64.76-64.76" fill="none" stroke="#000" stroke-miterlimit="10" stroke-width="5"/><path d="m439.09,799.05c35.76,0,64.76-28.99,64.76-64.76s-28.99-64.76-64.76-64.76" fill="none" stroke="#000" stroke-miterlimit="10" stroke-width="5"/><line x1="793.74" y1="799.05" x2="633.17" y2="799.05" fill="none" stroke="#000" stroke-miterlimit="10" stroke-width="5"/><line x1="793.74" y1="281.4" x2="633.17" y2="281.4" fill="none" stroke="#000" stroke-miterlimit="10" stroke-width="5"/><path d="m633.28,669.53c-35.76,0-64.76,28.99-64.76,64.76,0,35.76,28.99,64.76,64.76,64.76" fill="none" stroke="#000" stroke-miterlimit="10" stroke-width="5"/><path d="m633.28,540.16c-35.76,0-64.76,28.99-64.76,64.76,0,35.76,28.99,64.76,64.76,64.76" fill="none" stroke="#000" stroke-miterlimit="10" stroke-width="5"/><path d="m633.28,410.78c-35.76,0-64.76,28.99-64.76,64.76,0,35.76,28.99,64.76,64.76,64.76" fill="none" stroke="#000" stroke-miterlimit="10" stroke-width="5"/><path d="m633.28,281.4c-35.76,0-64.76,28.99-64.76,64.76,0,35.76,28.99,64.76,64.76,64.76" fill="none" stroke="#000" stroke-miterlimit="10" stroke-width="5"/><line x1="535.58" y1="279.74" x2="535.58" y2="285.74" fill="none" stroke="#000" stroke-miterlimit="10" stroke-width="5"/><line x1="535.58" y1="297.53" x2="535.58" y2="786.55" fill="none" stroke="#000" stroke-dasharray="0 0 11.78 11.78" stroke-miterlimit="10" stroke-width="5"/><line x1="535.58" y1="792.45" x2="535.58" y2="798.45" fill="none" stroke="#000" stroke-miterlimit="10" stroke-width="5"/><path d="m894.1,851.19v-28.38h-48.42v-9.3l46.5-66.54h15.23v64.78h14.59v11.06h-14.59v28.38h-13.31Zm0-39.45v-34.79c0-5.45.16-10.9.48-16.35h-.48c-3.21,6.09-5.77,10.58-8.66,15.39l-25.5,35.44v.32h34.15Z"/><path d="m849.36,315.08c3.84,2.46,12.75,6.3,22.12,6.3,17.36,0,22.73-11.06,22.58-19.36-.15-13.98-12.75-19.97-25.81-19.97h-7.53v-10.14h7.53c9.83,0,22.27-5.07,22.27-16.9,0-7.99-5.07-15.05-17.51-15.05-7.99,0-15.67,3.53-19.97,6.61l-3.53-9.83c5.22-3.84,15.36-7.68,26.11-7.68,19.66,0,28.57,11.67,28.57,23.81,0,10.29-6.15,19.05-18.43,23.5v.31c12.29,2.46,22.27,11.68,22.27,25.65,0,15.98-12.44,29.96-36.41,29.96-11.21,0-21.05-3.53-25.96-6.76l3.69-10.45Z"/><path d="m158,851.19v-8.48l10.83-10.51c26.05-24.8,37.82-37.98,37.98-53.36,0-10.36-5.02-19.93-20.24-19.93-9.26,0-16.95,4.71-21.66,8.63l-4.39-9.73c7.06-5.96,17.11-10.36,28.87-10.36,21.97,0,31.23,15.07,31.23,29.66,0,18.83-13.65,34.06-35.15,54.77l-8.16,7.53v.31h45.82v11.46h-65.13Z"/><path d="m209.52,241.94h-.32l-18.09,9.76-2.72-10.73,22.73-12.17h12.01v104.05h-13.61v-90.93Z"/><rect id="Base" width="1080" height="1080" opacity="0"/></g></g></svg>