<?xml version="1.0" encoding="UTF-8"?><svg id="Capa_2" xmlns="http://www.w3.org/2000/svg" viewBox="0 0 1080 1080"><g id="Capa_1-2"><g id="Multifilar_-_Temporizador_a_la_desconexión_Contactos_"><line x1="463.6" y1="235.01" x2="463.6" y2="387.5" fill="none" stroke="#000" stroke-miterlimit="10" stroke-width="5"/><line x1="463.6" y1="692.88" x2="463.6" y2="844.99" fill="none" stroke="#000" stroke-miterlimit="10" stroke-width="5"/><line x1="342.52" y1="386.74" x2="463.6" y2="692.88" fill="none" stroke="#000" stroke-miterlimit="10" stroke-width="5"/><line x1="768.59" y1="235.01" x2="768.59" y2="387.5" fill="none" stroke="#000" stroke-miterlimit="10" stroke-width="5"/><line x1="768.59" y1="692.88" x2="768.59" y2="844.99" fill="none" stroke="#000" stroke-miterlimit="10" stroke-width="5"/><line x1="922" y1="327.27" x2="768.59" y2="692.88" fill="none" stroke="#000" stroke-miterlimit="10" stroke-width="5"/><line x1="244.16" y1="510.26" x2="846.51" y2="510.26" fill="none" stroke="#000" stroke-miterlimit="10" stroke-width="5"/><line x1="243.4" y1="569.74" x2="820.59" y2="569.74" fill="none" stroke="#000" stroke-miterlimit="10" stroke-width="5"/><line x1="767.98" y1="388.27" x2="922" y2="388.27" fill="none" stroke="#000" stroke-miterlimit="10" stroke-width="5"/><path d="m158,447.74c50.53,0,91.5,40.96,91.5,91.5s-40.96,91.5-91.5,91.5" fill="none" stroke="#000" stroke-miterlimit="10" stroke-width="5"/><path d="m406.6,300.41v.09l2.86,5.3-3.14.8-3.57-6.66v-3.52h30.5v3.99h-26.65Z"/><path d="m402.75,265.51h2.72l27.78,13.28v4.27l-26.98-13.23h-.09v14.92h-3.43v-19.24Z"/><path d="m711.53,298.86v.09l2.81,5.21-3.09.78-3.51-6.55v-3.46h29.99v3.92h-26.21Z"/><path d="m711.16,266.11v11.44l7.71,1.15c-.09-.69-.18-1.34-.18-2.45,0-2.31.51-4.61,1.62-6.46,1.34-2.35,3.92-4.29,7.71-4.29,5.86,0,10.24,4.66,10.24,11.17,0,3.28-.92,6.04-1.85,7.47l-3.09-1.02c.74-1.25,1.66-3.69,1.66-6.41,0-3.83-2.49-7.11-6.51-7.11-3.88.05-6.64,2.63-6.64,8.63,0,1.71.18,3.05.32,4.15l-14.4-1.94v-14.35h3.41Z"/><path d="m406.98,808.5v.09l2.77,5.13-3.04.77-3.45-6.44v-3.4h29.5v3.86h-25.78Z"/><path d="m425.27,794.25c-3.72,0-6.35-2.22-7.9-5.86l-.14.05c-1.54,3.27-4.08,4.67-6.63,4.67-4.67,0-7.85-3.95-7.85-9.12,0-5.72,3.59-8.58,7.26-8.58,2.5,0,5.17,1.23,6.9,4.86h.14c1.45-3.68,4.04-5.95,7.62-5.95,5.13,0,8.58,4.4,8.58,10.03,0,6.17-3.68,9.89-7.99,9.89Zm-.18-15.88c-3.59,0-5.31,2.5-6.44,6.49,1,3.45,3.27,5.31,6.08,5.31,3,.14,5.63-2.13,5.63-5.9s-2.22-5.9-5.26-5.9Zm-14.75,10.98c2.95,0,4.54-2.22,5.45-5.63-.86-2.54-2.68-4.49-5.36-4.49-2.36,0-4.81,1.41-4.81,4.99,0,3.31,2.18,5.13,4.72,5.13Z"/><path d="m711.93,808.49v.09l2.77,5.14-3.05.77-3.45-6.45v-3.41h29.54v3.86h-25.82Z"/><path d="m711.02,777c-.05.82,0,1.86.18,3,1.05,6.27,5.64,9.59,10.5,10.27v-.14c-1.86-1.41-3.41-3.86-3.41-7.14,0-5.23,3.77-8.91,9.55-8.91,5.41,0,10.41,3.68,10.41,9.82s-4.91,10.45-12.59,10.45c-5.82,0-10.41-2.09-13.32-5-2.41-2.45-3.91-5.73-4.36-9.45-.18-1.18-.23-2.18-.23-2.91h3.27Zm17.04,1.14c-4.23,0-6.77,2.41-6.77,6.09,0,2.41,1.5,4.64,3.64,5.73.45.27,1.05.45,1.77.45,4.86-.09,8.45-2.32,8.45-6.5,0-3.45-2.86-5.77-7.09-5.77Z"/><rect id="Base" width="1080" height="1080" opacity="0"/></g></g></svg>