<?xml version="1.0" encoding="UTF-8"?><svg id="Capa_2" xmlns="http://www.w3.org/2000/svg" viewBox="0 0 1080 1080"><g id="Capa_1-2"><g id="Multifilar_-_Caja_de_derivaci贸n"><line x1="158" y1="476.65" x2="922" y2="476.65" fill="none" stroke="#000" stroke-miterlimit="10" stroke-width="5"/><line x1="794.86" y1="271.35" x2="794.86" y2="679.01" fill="none" stroke="#000" stroke-miterlimit="10" stroke-width="5"/><line x1="285.14" y1="271.35" x2="285.14" y2="679.01" fill="none" stroke="#000" stroke-miterlimit="10" stroke-width="5"/><line x1="284.99" y1="678.27" x2="336.32" y2="729.6" fill="none" stroke="#000" stroke-miterlimit="10" stroke-width="5"/><line x1="743.98" y1="220.46" x2="795.31" y2="271.79" fill="none" stroke="#000" stroke-miterlimit="10" stroke-width="5"/><line x1="336.32" y1="220.46" x2="284.99" y2="271.79" fill="none" stroke="#000" stroke-miterlimit="10" stroke-width="5"/><line x1="795.31" y1="678.27" x2="743.98" y2="729.6" fill="none" stroke="#000" stroke-miterlimit="10" stroke-width="5"/><circle id="Union_punto_de_conexi贸n" cx="540.29" cy="476.06" r="12.98"/><line x1="158" y1="348.04" x2="922" y2="348.04" fill="none" stroke="#000" stroke-miterlimit="10" stroke-width="5"/><line x1="412.57" y1="603.2" x2="412.57" y2="858.95" fill="none" stroke="#000" stroke-miterlimit="10" stroke-width="5"/><line x1="540" y1="476.65" x2="540" y2="858.95" fill="none" stroke="#000" stroke-miterlimit="10" stroke-width="5"/><line x1="667.14" y1="349.22" x2="667.14" y2="859.54" fill="none" stroke="#000" stroke-miterlimit="10" stroke-width="5"/><circle id="Union_punto_de_conexi贸n-2" cx="667.73" cy="347.45" r="12.98"/><line x1="158" y1="602.9" x2="922" y2="602.9" fill="none" stroke="#000" stroke-miterlimit="10" stroke-width="5"/><circle id="Union_punto_de_conexi贸n-3" cx="412.86" cy="602.31" r="12.98"/><line x1="744.27" y1="728.64" x2="336.6" y2="728.64" fill="none" stroke="#000" stroke-miterlimit="10" stroke-width="5"/><line x1="744.27" y1="220.46" x2="335.58" y2="220.46" fill="none" stroke="#000" stroke-miterlimit="10" stroke-width="5"/><rect id="Base" width="1080" height="1080" opacity="0"/></g></g></svg>