<?xml version="1.0" encoding="UTF-8"?><svg id="Capa_2" xmlns="http://www.w3.org/2000/svg" viewBox="0 0 1080 1080"><g id="Capa_1-2"><g id="Multifilar_-_Fusible_seccionador_tripolar"><rect x="766.32" y="455.46" width="55.93" height="171.19" transform="translate(-157.59 408.52) rotate(-26.34)" fill="none" stroke="#000" stroke-miterlimit="10" stroke-width="5"/><line x1="863.99" y1="681.84" x2="723.93" y2="398.87" fill="none" stroke="#000" stroke-miterlimit="10" stroke-width="5"/><line x1="864.7" y1="823.32" x2="864.7" y2="681.84" fill="none" stroke="#000" stroke-miterlimit="10" stroke-width="5"/><line x1="808.81" y1="398.87" x2="922" y2="398.87" fill="none" stroke="#000" stroke-miterlimit="10" stroke-width="5"/><line x1="864.7" y1="257.39" x2="864.7" y2="398.87" fill="none" stroke="#000" stroke-miterlimit="10" stroke-width="5"/><rect x="483.36" y="455.46" width="55.93" height="171.19" transform="translate(-186.96 282.99) rotate(-26.34)" fill="none" stroke="#000" stroke-miterlimit="10" stroke-width="5"/><line x1="581.03" y1="681.84" x2="440.96" y2="398.87" fill="none" stroke="#000" stroke-miterlimit="10" stroke-width="5"/><line x1="581.74" y1="823.32" x2="581.74" y2="681.84" fill="none" stroke="#000" stroke-miterlimit="10" stroke-width="5"/><line x1="525.85" y1="398.87" x2="639.04" y2="398.87" fill="none" stroke="#000" stroke-miterlimit="10" stroke-width="5"/><line x1="581.74" y1="257.39" x2="581.74" y2="398.87" fill="none" stroke="#000" stroke-miterlimit="10" stroke-width="5"/><rect x="200.4" y="454.76" width="55.93" height="171.19" transform="translate(-216.01 157.39) rotate(-26.34)" fill="none" stroke="#000" stroke-miterlimit="10" stroke-width="5"/><line x1="298.07" y1="681.13" x2="158" y2="398.16" fill="none" stroke="#000" stroke-miterlimit="10" stroke-width="5"/><line x1="298.77" y1="822.61" x2="298.77" y2="681.13" fill="none" stroke="#000" stroke-miterlimit="10" stroke-width="5"/><line x1="242.89" y1="398.16" x2="356.07" y2="398.16" fill="none" stroke="#000" stroke-miterlimit="10" stroke-width="5"/><line x1="298.77" y1="256.68" x2="298.77" y2="398.16" fill="none" stroke="#000" stroke-miterlimit="10" stroke-width="5"/><path d="m245.75,289.76v.09l2.66,4.92-2.92.74-3.31-6.18v-3.26h28.3v3.7h-24.73Z" stroke="#000" stroke-miterlimit="10" stroke-width=".25"/><path d="m270.48,795.02h-2.31l-2.87-2.95c-6.76-7.11-10.36-10.32-14.56-10.36-2.83,0-5.44,1.37-5.44,5.52,0,2.53,1.28,4.62,2.35,5.91l-2.65,1.2c-1.63-1.93-2.83-4.67-2.83-7.88,0-5.99,4.11-8.52,8.09-8.52,5.14,0,9.29,3.72,14.94,9.59l2.06,2.23h.09v-12.5h3.13v17.77Z" stroke="#000" stroke-miterlimit="10" stroke-width=".25"/><path d="m548.72,301.86c.67-1.05,1.73-3.49,1.73-6.06,0-4.76-3.03-6.23-5.31-6.19-3.83.04-5.47,3.49-5.47,7.07v2.06h-2.78v-2.06c0-2.69-1.39-6.11-4.63-6.11-2.19,0-4.13,1.39-4.13,4.8,0,2.19.97,4.3,1.81,5.48l-2.69.97c-1.05-1.43-2.11-4.21-2.11-7.16,0-5.39,3.2-7.83,6.53-7.83,2.82,0,5.22,1.68,6.44,5.05h.09c.67-3.37,3.2-6.11,7.03-6.11,4.38,0,8.21,3.41,8.21,9.98,0,3.07-.97,5.77-1.85,7.11l-2.86-1.01Z"/><path d="m553.44,781.79h-7.71v13.15h-2.52l-18.07-12.63v-4.13h17.59v-3.96h3v3.96h7.71v3.61Zm-10.71,0h-9.45c-1.48,0-2.96-.04-4.44-.13v.13c1.66.87,2.87,1.57,4.18,2.35l9.62,6.92h.09v-9.27Z"/><path d="m811.28,286.24v10.62l7.15,1.07c-.09-.64-.17-1.24-.17-2.27,0-2.14.47-4.28,1.5-5.99,1.24-2.19,3.64-3.98,7.15-3.98,5.44,0,9.5,4.32,9.5,10.36,0,3.04-.86,5.6-1.71,6.93l-2.87-.94c.68-1.16,1.54-3.42,1.54-5.95,0-3.55-2.31-6.59-6.04-6.59-3.6.04-6.16,2.44-6.16,8,0,1.59.17,2.83.3,3.86l-13.36-1.8v-13.32h3.17Z"/><path d="m811.14,778.91c-.04.76,0,1.73.17,2.78.97,5.82,5.23,8.9,9.74,9.53v-.13c-1.73-1.3-3.16-3.58-3.16-6.62,0-4.85,3.5-8.27,8.86-8.27,5.02,0,9.66,3.42,9.66,9.11s-4.55,9.7-11.68,9.7c-5.4,0-9.66-1.94-12.35-4.64-2.24-2.28-3.63-5.32-4.05-8.77-.17-1.1-.21-2.02-.21-2.7h3.04Zm15.81,1.05c-3.92,0-6.28,2.24-6.28,5.65,0,2.24,1.39,4.3,3.37,5.31.42.25.97.42,1.64.42,4.51-.09,7.84-2.15,7.84-6.03,0-3.21-2.66-5.36-6.58-5.36Z"/><rect id="Base" width="1080" height="1080" opacity="0"/></g></g></svg>