<?xml version="1.0" encoding="UTF-8"?><svg id="Capa_2" xmlns="http://www.w3.org/2000/svg" viewBox="0 0 1080 1080"><g id="Capa_1-2"><g id="Multifilar_-_Amperímetro"><circle cx="540" cy="540.44" r="190.34" fill="none" stroke="#000" stroke-miterlimit="10" stroke-width="5"/><line x1="541.48" y1="158" x2="541.48" y2="350.1" fill="none" stroke="#000" stroke-miterlimit="10" stroke-width="5"/><line x1="538.52" y1="730.78" x2="538.52" y2="922" fill="none" stroke="#000" stroke-miterlimit="10" stroke-width="5"/><path d="m512.48,568.2l-15.79,47.83h-20.3l51.66-152.05h23.69l51.89,152.05h-20.98l-16.24-47.83h-53.92Zm48.52-16.06l-14.01-41.19c-3.18-9.34-5.31-17.83-7.43-26.11h-.42c-2.12,8.49-4.46,17.2-7.22,25.9l-14.01,41.4h43.1Z"/><path d="m469.53,203.24v.12l3.56,6.6-3.91.99-4.44-8.29v-4.38h37.94v4.96h-33.15Z"/><path d="m502.68,883.24h-3.15l-3.91-4.03c-9.22-9.69-14.12-14.07-19.85-14.12-3.85,0-7.41,1.87-7.41,7.53,0,3.45,1.75,6.3,3.21,8.06l-3.62,1.63c-2.22-2.63-3.85-6.36-3.85-10.74,0-8.17,5.6-11.61,11.03-11.61,7.01,0,12.67,5.08,20.37,13.07l2.8,3.04h.11v-17.04h4.26v24.22Z"/><rect id="Base" width="1080" height="1080" opacity="0"/></g></g></svg>