<?xml version="1.0" encoding="UTF-8"?><svg id="Capa_2" xmlns="http://www.w3.org/2000/svg" viewBox="0 0 1080 1080"><g id="Capa_1-2"><g id="Multifilar_-_Detector_de_nivel_de_fluidos_-_1"><ellipse cx="346.3" cy="540.64" rx="181.39" ry="90.69" fill="none" stroke="#000" stroke-miterlimit="10" stroke-width="5"/><line x1="346.3" y1="450.84" x2="346.3" y2="158" fill="none" stroke="#000" stroke-miterlimit="10" stroke-width="5"/><line x1="732.09" y1="338.57" x2="915.09" y2="702.87" fill="none" stroke="#000" stroke-miterlimit="10" stroke-width="5"/><line x1="915.09" y1="158" x2="915.09" y2="341.87" fill="none" stroke="#000" stroke-miterlimit="10" stroke-width="5"/><line x1="915.09" y1="702.87" x2="915.09" y2="922" fill="none" stroke="#000" stroke-miterlimit="10" stroke-width="5"/><path d="m877.94,866.32h-10.35v17.66h-3.39l-24.27-16.96v-5.56h23.63v-5.32h4.04v5.32h10.35v4.85Zm-14.39,0h-12.69c-1.99,0-3.98-.06-5.97-.18v.18c2.22,1.17,3.86,2.11,5.62,3.16l12.93,9.3h.12v-12.46Z"/><path d="m871.6,221.29c.91-1.41,2.32-4.7,2.32-8.15,0-6.39-4.07-8.37-7.13-8.32-5.15.06-7.35,4.7-7.35,9.5v2.77h-3.73v-2.77c0-3.62-1.87-8.2-6.22-8.2-2.94,0-5.54,1.87-5.54,6.45,0,2.94,1.3,5.77,2.43,7.35l-3.62,1.3c-1.41-1.92-2.83-5.66-2.83-9.62,0-7.24,4.3-10.52,8.77-10.52,3.79,0,7.01,2.26,8.66,6.79h.11c.9-4.53,4.3-8.2,9.45-8.2,5.88,0,11.03,4.58,11.03,13.41,0,4.13-1.3,7.75-2.49,9.56l-3.85-1.36Z"/><line x1="528.18" y1="540.64" x2="534.18" y2="540.64" fill="none" stroke="#000" stroke-miterlimit="10" stroke-width="5"/><line x1="545.91" y1="540.64" x2="821.41" y2="540.64" fill="none" stroke="#000" stroke-dasharray="0 0 11.72 11.72" stroke-miterlimit="10" stroke-width="5"/><line x1="827.27" y1="540.64" x2="833.27" y2="540.64" fill="none" stroke="#000" stroke-miterlimit="10" stroke-width="5"/><rect id="Base" width="1080" height="1080" opacity="0"/></g></g></svg>