<?xml version="1.0" encoding="UTF-8"?><svg id="Capa_2" xmlns="http://www.w3.org/2000/svg" viewBox="0 0 1080 1080"><g id="Capa_1-2"><g id="Multifilar_-_Detector_fotoeléctrico_tipo_reflex"><rect x="240.97" y="402.4" width="272.33" height="272.33" fill="none" stroke="#000" stroke-miterlimit="10" stroke-width="5"/><line x1="377.77" y1="403.04" x2="377.77" y2="266.78" fill="none" stroke="#000" stroke-miterlimit="10" stroke-width="5"/><line x1="377.77" y1="674.74" x2="377.77" y2="811.31" fill="none" stroke="#000" stroke-miterlimit="10" stroke-width="5"/><rect x="158" y="429" width="27.55" height="220.4" fill="none" stroke="#000" stroke-miterlimit="10" stroke-width="5"/><line x1="158" y1="429" x2="185.55" y2="456.87" fill="none" stroke="#000" stroke-miterlimit="10" stroke-width="5"/><line x1="158" y1="456.87" x2="185.55" y2="456.87" fill="none" stroke="#000" stroke-miterlimit="10" stroke-width="5"/><line x1="185.55" y1="483.47" x2="158" y2="456.87" fill="none" stroke="#000" stroke-miterlimit="10" stroke-width="5"/><line x1="158" y1="483.47" x2="185.55" y2="483.47" fill="none" stroke="#000" stroke-miterlimit="10" stroke-width="5"/><line x1="158.31" y1="483.47" x2="185.87" y2="511.34" fill="none" stroke="#000" stroke-miterlimit="10" stroke-width="5"/><line x1="158.31" y1="511.34" x2="185.87" y2="511.34" fill="none" stroke="#000" stroke-miterlimit="10" stroke-width="5"/><line x1="185.87" y1="537.94" x2="158.31" y2="511.34" fill="none" stroke="#000" stroke-miterlimit="10" stroke-width="5"/><line x1="158.31" y1="537.94" x2="185.87" y2="537.94" fill="none" stroke="#000" stroke-miterlimit="10" stroke-width="5"/><line x1="158.31" y1="539.2" x2="185.87" y2="567.07" fill="none" stroke="#000" stroke-miterlimit="10" stroke-width="5"/><line x1="158.31" y1="567.07" x2="185.87" y2="567.07" fill="none" stroke="#000" stroke-miterlimit="10" stroke-width="5"/><line x1="185.87" y1="593.67" x2="158.31" y2="567.07" fill="none" stroke="#000" stroke-miterlimit="10" stroke-width="5"/><line x1="158.31" y1="593.67" x2="185.87" y2="621.54" fill="none" stroke="#000" stroke-miterlimit="10" stroke-width="5"/><line x1="158.31" y1="621.54" x2="185.87" y2="621.54" fill="none" stroke="#000" stroke-miterlimit="10" stroke-width="5"/><line x1="185.87" y1="648.14" x2="158.31" y2="621.54" fill="none" stroke="#000" stroke-miterlimit="10" stroke-width="5"/><line x1="158.31" y1="593.67" x2="185.87" y2="593.67" fill="none" stroke="#000" stroke-miterlimit="10" stroke-width="5"/><line x1="350.53" y1="565.8" x2="377.77" y2="565.8" fill="none" stroke="#000" stroke-miterlimit="10" stroke-width="5"/><rect x="348.69" y="442.05" width="56.87" height="56.87" transform="translate(443.14 -128.87) rotate(45)" fill="none" stroke="#000" stroke-miterlimit="10" stroke-width="5"/><line x1="361.12" y1="446.28" x2="361.12" y2="494.69" fill="none" stroke="#000" stroke-miterlimit="10" stroke-width="5"/><line x1="393.14" y1="446.28" x2="393.14" y2="494.69" fill="none" stroke="#000" stroke-miterlimit="10" stroke-width="5"/><line x1="295.01" y1="537.94" x2="295.01" y2="648.14" fill="none" stroke="#000" stroke-miterlimit="10" stroke-width="5"/><line x1="267.78" y1="620.27" x2="322.24" y2="620.27" fill="none" stroke="#000" stroke-miterlimit="10" stroke-width="5"/><polygon points="295.01 567.7 321.61 567.7 308.31 593.75 295.01 619.79 281.71 593.75 268.41 567.7 295.01 567.7" fill="none" stroke="#000" stroke-miterlimit="10" stroke-width="5"/><polygon points="377.13 565.8 377.13 551.98 390.43 558.89 403.73 565.8 390.43 572.72 377.13 579.63 377.13 565.8"/><line x1="184.6" y1="483.47" x2="211.83" y2="483.47" fill="none" stroke="#000" stroke-miterlimit="10" stroke-width="5"/><polygon points="211.2 483.47 211.2 469.64 224.5 476.56 237.8 483.47 224.5 490.38 211.2 497.3 211.2 483.47"/><polygon points="452.06 630.68 458.36 618.37 467.05 630.58 475.74 642.79 460.75 642.89 445.76 642.99 452.06 630.68"/><line x1="350.53" y1="620.27" x2="377.77" y2="620.27" fill="none" stroke="#000" stroke-miterlimit="10" stroke-width="5"/><polygon points="377.13 620.27 377.13 606.44 390.43 613.36 403.73 620.27 390.43 627.18 377.13 634.1 377.13 620.27"/><line x1="241.6" y1="593.97" x2="214.37" y2="593.66" fill="none" stroke="#000" stroke-miterlimit="10" stroke-width="5"/><polygon points="215 593.67 214.84 607.5 201.62 600.43 188.4 593.37 201.78 586.61 215.16 579.84 215 593.67"/><line x1="432.23" y1="539.2" x2="432.23" y2="648.14" fill="none" stroke="#000" stroke-miterlimit="10" stroke-width="5"/><line x1="432.23" y1="620.27" x2="486.7" y2="648.14" fill="none" stroke="#000" stroke-miterlimit="10" stroke-width="5"/><line x1="486.7" y1="539.2" x2="432.23" y2="565.8" fill="none" stroke="#000" stroke-miterlimit="10" stroke-width="5"/><line x1="677.01" y1="404.46" x2="784.43" y2="648.49" fill="none" stroke="#000" stroke-miterlimit="10" stroke-width="5"/><line x1="649.28" y1="267" x2="649.28" y2="431.04" fill="none" stroke="#000" stroke-miterlimit="10" stroke-width="5"/><line x1="704.24" y1="430.47" x2="649.28" y2="430.47" fill="none" stroke="#000" stroke-miterlimit="10" stroke-width="5"/><line x1="866.2" y1="430.47" x2="922" y2="430.47" fill="none" stroke="#000" stroke-miterlimit="10" stroke-width="5"/><line x1="921.51" y1="268.36" x2="921.51" y2="430.38" fill="none" stroke="#000" stroke-miterlimit="10" stroke-width="5"/><line x1="784.43" y1="648.49" x2="784.14" y2="813.22" fill="none" stroke="#000" stroke-miterlimit="10" stroke-width="5"/><path d="m734.21,779.21v.08l2.55,4.73-2.81.71-3.18-5.95v-3.14h27.22v3.56h-23.79Z"/><path d="m734.21,757.73v.08l2.55,4.73-2.81.71-3.18-5.95v-3.14h27.22v3.56h-23.79Z"/><path d="m598.5,325.21v.08l2.51,4.65-2.76.7-3.13-5.84v-3.08h26.73v3.5h-23.36Z"/><path d="m621.86,311.97h-2.22l-2.76-2.84c-6.5-6.83-9.95-9.91-13.98-9.95-2.71,0-5.22,1.32-5.22,5.31,0,2.43,1.23,4.44,2.26,5.68l-2.55,1.15c-1.56-1.85-2.71-4.48-2.71-7.57,0-5.76,3.95-8.18,7.77-8.18,4.94,0,8.92,3.58,14.35,9.21l1.97,2.14h.08v-12.01h3v17.07Z"/><path d="m870.31,327.06v.08l2.55,4.73-2.81.71-3.18-5.95v-3.14h27.22v3.56h-23.79Z"/><path d="m894.1,302.19h-7.41v12.65h-2.43l-17.38-12.15v-3.98h16.92v-3.81h2.89v3.81h7.41v3.48Zm-10.3,0h-9.09c-1.42,0-2.85-.04-4.27-.13v.13c1.59.84,2.76,1.51,4.02,2.26l9.26,6.66h.08v-8.92Z"/><path d="m341.13,325.32l8.56,2.83v3.63l-27.22-9.25v-4.24l27.22-9.29v3.76l-8.56,2.91v9.65Zm-2.75-8.92l-7.83,2.66c-1.78.61-3.39,1.01-4.97,1.41v.08c1.62.4,3.27.85,4.93,1.37l7.87,2.67v-8.2Z"/><path d="m326.75,298.53v.08l2.46,4.56-2.71.69-3.07-5.74v-3.03h26.25v3.43h-22.94Z"/><path d="m341.13,778.04l8.56,2.83v3.63l-27.22-9.25v-4.24l27.22-9.29v3.76l-8.56,2.91v9.65Zm-2.75-8.92l-7.83,2.66c-1.78.61-3.39,1.01-4.97,1.41v.08c1.62.4,3.27.85,4.93,1.37l7.87,2.67v-8.2Z"/><path d="m349.69,758.96h-2.18l-2.71-2.79c-6.38-6.71-9.77-9.73-13.73-9.77-2.67,0-5.13,1.29-5.13,5.21,0,2.38,1.21,4.36,2.22,5.57l-2.5,1.13c-1.53-1.82-2.67-4.4-2.67-7.43,0-5.65,3.88-8.04,7.63-8.04,4.85,0,8.77,3.52,14.1,9.05l1.94,2.1h.08v-11.79h2.95v16.76Z"/><line x1="512.28" y1="539.6" x2="518.28" y2="539.6" fill="none" stroke="#000" stroke-miterlimit="10" stroke-width="5"/><line x1="530.75" y1="539.6" x2="723.99" y2="539.6" fill="none" stroke="#000" stroke-dasharray="0 0 12.47 12.47" stroke-miterlimit="10" stroke-width="5"/><line x1="730.22" y1="539.6" x2="736.22" y2="539.6" fill="none" stroke="#000" stroke-miterlimit="10" stroke-width="5"/><rect id="Base" width="1080" height="1080" opacity="0"/></g></g></svg>