<?xml version="1.0" encoding="UTF-8"?><svg id="Capa_2" xmlns="http://www.w3.org/2000/svg" viewBox="0 0 1080 1080"><g id="Capa_1-2"><g id="Multifilar_-_Conmutador"><line x1="541.93" y1="616.63" x2="541.93" y2="922" fill="none" stroke="#000" stroke-miterlimit="10" stroke-width="5"/><line x1="327.65" y1="250.26" x2="541.93" y2="616.63" fill="none" stroke="#000" stroke-miterlimit="10" stroke-width="5"/><line x1="204.13" y1="403.52" x2="204.13" y2="524.27" fill="none" stroke="#000" stroke-miterlimit="10" stroke-width="5"/><line x1="326.3" y1="463.74" x2="332.3" y2="463.74" fill="none" stroke="#000" stroke-miterlimit="10" stroke-width="5"/><line x1="344.75" y1="463.74" x2="438.18" y2="463.74" fill="none" stroke="#000" stroke-dasharray="0 0 12.46 12.46" stroke-miterlimit="10" stroke-width="5"/><line x1="444.41" y1="463.74" x2="450.41" y2="463.74" fill="none" stroke="#000" stroke-miterlimit="10" stroke-width="5"/><line x1="206.45" y1="463.74" x2="212.45" y2="463.74" fill="none" stroke="#000" stroke-miterlimit="10" stroke-width="5"/><line x1="222.09" y1="463.74" x2="255.83" y2="463.74" fill="none" stroke="#000" stroke-dasharray="0 0 9.64 9.64" stroke-miterlimit="10" stroke-width="5"/><line x1="260.65" y1="463.74" x2="266.65" y2="463.74" fill="none" stroke="#000" stroke-miterlimit="10" stroke-width="5"/><line x1="266.65" y1="463.74" x2="296.73" y2="524.45" fill="none" stroke="#000" stroke-miterlimit="10" stroke-width="5"/><line x1="326.3" y1="463.74" x2="296.73" y2="524.45" fill="none" stroke="#000" stroke-miterlimit="10" stroke-width="5"/><line x1="206.45" y1="309.75" x2="440.98" y2="309.75" fill="none" stroke="#000" stroke-miterlimit="10" stroke-width="5"/><line x1="204.89" y1="158" x2="204.89" y2="308.97" fill="none" stroke="#000" stroke-miterlimit="10" stroke-width="5"/><line x1="641.34" y1="309.75" x2="875.87" y2="309.75" fill="none" stroke="#000" stroke-miterlimit="10" stroke-width="5"/><line x1="875.87" y1="158" x2="875.87" y2="308.97" fill="none" stroke="#000" stroke-miterlimit="10" stroke-width="5"/><rect id="Base" width="1080" height="1080" opacity="0"/></g></g></svg>