<?xml version="1.0" encoding="UTF-8"?><svg id="Capa_2" xmlns="http://www.w3.org/2000/svg" viewBox="0 0 1080 1080"><g id="Capa_1-2"><g id="Multifilar_-_Interruptor_de_palanca"><line x1="489.89" y1="666.94" x2="489.89" y2="922" fill="none" stroke="#000" stroke-miterlimit="10" stroke-width="5"/><line x1="362.36" y1="411.29" x2="489.89" y2="666.35" fill="none" stroke="#000" stroke-miterlimit="10" stroke-width="5"/><line x1="489.89" y1="158" x2="489.89" y2="411.88" fill="none" stroke="#000" stroke-miterlimit="10" stroke-width="5"/><line x1="742.91" y1="413.36" x2="871.47" y2="413.36" fill="none" stroke="#000" stroke-miterlimit="10" stroke-width="5"/><line x1="743.42" y1="158" x2="743.42" y2="412.72" fill="none" stroke="#000" stroke-miterlimit="10" stroke-width="5"/><line x1="743.42" y1="667.6" x2="743.42" y2="922" fill="none" stroke="#000" stroke-miterlimit="10" stroke-width="5"/><line x1="871.47" y1="362.44" x2="743.42" y2="667.6" fill="none" stroke="#000" stroke-miterlimit="10" stroke-width="5"/><line x1="234.63" y1="540" x2="240.63" y2="540.01" fill="none" stroke="#000" stroke-miterlimit="10" stroke-width="5"/><line x1="252.84" y1="540.02" x2="784.03" y2="540.63" fill="none" stroke="#000" stroke-dasharray="0 0 12.21 12.21" stroke-miterlimit="10" stroke-width="5"/><line x1="790.14" y1="540.64" x2="796.14" y2="540.65" fill="none" stroke="#000" stroke-miterlimit="10" stroke-width="5"/><line x1="208.53" y1="488.45" x2="259.45" y2="590.28" fill="none" stroke="#000" stroke-miterlimit="10" stroke-width="5"/><circle cx="264.54" cy="603" r="12.73" fill="none" stroke="#000" stroke-miterlimit="10" stroke-width="5"/><path d="m441.8,211.09v.07l2.31,4.28-2.54.64-2.88-5.38v-2.84h24.62v3.22h-21.52Z"/><path d="m459.49,198.08c.61-.95,1.55-3.14,1.55-5.45,0-4.28-2.73-5.61-4.77-5.57-3.45.04-4.92,3.14-4.92,6.36v1.86h-2.5v-1.86c0-2.42-1.25-5.49-4.17-5.49-1.97,0-3.71,1.25-3.71,4.32,0,1.97.87,3.86,1.63,4.93l-2.42.87c-.95-1.29-1.89-3.79-1.89-6.44,0-4.85,2.88-7.04,5.87-7.04,2.54,0,4.7,1.51,5.8,4.55h.08c.61-3.03,2.88-5.49,6.32-5.49,3.94,0,7.39,3.07,7.39,8.98,0,2.76-.87,5.19-1.67,6.4l-2.58-.91Z"/><path d="m441.49,891.22v.08l2.39,4.43-2.62.67-2.98-5.56v-2.94h25.46v3.33h-22.25Z"/><path d="m463.73,867.94h-6.93v11.83h-2.27l-16.25-11.36v-3.72h15.82v-3.56h2.7v3.56h6.93v3.25Zm-9.63,0h-8.5c-1.33,0-2.66-.04-4-.12v.12c1.49.78,2.58,1.41,3.76,2.11l8.65,6.23h.08v-8.34Z"/><path d="m718.29,214.01h-2.08l-2.58-2.66c-6.08-6.39-9.32-9.28-13.09-9.32-2.54,0-4.89,1.23-4.89,4.97,0,2.27,1.16,4.16,2.12,5.32l-2.39,1.08c-1.46-1.73-2.54-4.2-2.54-7.09,0-5.39,3.7-7.66,7.28-7.66,4.62,0,8.36,3.35,13.44,8.63l1.85,2h.08v-11.25h2.81v15.98Z"/><path d="m696.42,186.89v.08l2.35,4.35-2.58.65-2.93-5.47v-2.89h25.03v3.27h-21.88Z"/><path d="m718.17,896.39h-2.07l-2.57-2.64c-6.05-6.36-9.27-9.24-13.03-9.27-2.53,0-4.87,1.23-4.87,4.94,0,2.26,1.15,4.14,2.11,5.29l-2.38,1.07c-1.46-1.73-2.53-4.18-2.53-7.05,0-5.36,3.68-7.63,7.24-7.63,4.6,0,8.32,3.33,13.37,8.58l1.84,1.99h.08v-11.19h2.8v15.9Z"/><path d="m718.17,876.72h-2.07l-2.57-2.64c-6.05-6.36-9.27-9.24-13.03-9.27-2.53,0-4.87,1.23-4.87,4.94,0,2.26,1.15,4.14,2.11,5.29l-2.38,1.07c-1.46-1.73-2.53-4.18-2.53-7.05,0-5.36,3.68-7.63,7.24-7.63,4.6,0,8.32,3.33,13.37,8.58l1.84,1.99h.08v-11.19h2.8v15.9Z"/><rect id="Base" width="1080" height="1080" opacity="0"/></g></g></svg>