<?xml version="1.0" encoding="UTF-8"?><svg id="Capa_2" xmlns="http://www.w3.org/2000/svg" viewBox="0 0 1080 1080"><g id="Capa_1-2"><g id="Multifilar_-_Líneas_de_Fases"><line x1="922" y1="413.32" x2="294.25" y2="413.32" fill="none" stroke="#000" stroke-miterlimit="10" stroke-width="5"/><line x1="922" y1="539.84" x2="294.25" y2="539.84" fill="none" stroke="#000" stroke-miterlimit="10" stroke-width="5"/><line x1="922" y1="666.47" x2="294.25" y2="666.47" fill="none" stroke="#000" stroke-miterlimit="10" stroke-width="5"/><path d="m158,383.06h8.2v56.63h27.14v6.88h-35.34v-63.51Z"/><path d="m217.55,393.05h-.19l-10.65,5.75-1.6-6.31,13.38-7.16h7.07v61.25h-8.01v-53.52Z"/><path d="m158,508.79h8.11v55.99h26.83v6.8h-34.94v-62.79Z"/><path d="m199.09,571.58v-5.03l6.43-6.24c15.47-14.72,22.45-22.55,22.55-31.68,0-6.15-2.98-11.83-12.02-11.83-5.5,0-10.06,2.79-12.86,5.12l-2.61-5.78c4.19-3.54,10.16-6.15,17.14-6.15,13.04,0,18.54,8.94,18.54,17.61,0,11.18-8.1,20.22-20.87,32.51l-4.85,4.47v.19h27.2v6.8h-38.66Z"/><path d="m158,634.16h7.98v55.08h26.39v6.69h-34.37v-61.77Z"/><path d="m200.34,686.68c2.29,1.47,7.61,3.76,13.2,3.76,10.35,0,13.56-6.6,13.47-11.55-.09-8.34-7.61-11.91-15.4-11.91h-4.49v-6.05h4.49c5.87,0,13.29-3.03,13.29-10.08,0-4.77-3.02-8.98-10.45-8.98-4.77,0-9.35,2.11-11.92,3.94l-2.11-5.87c3.12-2.29,9.16-4.58,15.58-4.58,11.73,0,17.04,6.97,17.04,14.2,0,6.14-3.67,11.36-11,14.02v.18c7.33,1.47,13.29,6.97,13.29,15.3,0,9.53-7.42,17.87-21.72,17.87-6.69,0-12.55-2.11-15.49-4.03l2.2-6.23Z"/><rect id="Base" width="1080" height="1080" opacity="0"/></g></g></svg>