<?xml version="1.0" encoding="UTF-8"?><svg id="Capa_2" xmlns="http://www.w3.org/2000/svg" viewBox="0 0 1080 1080"><g id="Capa_1-2"><g id="Multifilar_-_Final_de_carrera_N.O._Interruptor_de_Posición_-_1"><line x1="603.77" y1="666.94" x2="603.77" y2="922" fill="none" stroke="#000" stroke-miterlimit="10" stroke-width="5"/><line x1="476.23" y1="411.29" x2="603.77" y2="666.35" fill="none" stroke="#000" stroke-miterlimit="10" stroke-width="5"/><line x1="603.77" y1="158" x2="603.77" y2="411.88" fill="none" stroke="#000" stroke-miterlimit="10" stroke-width="5"/><line x1="556.2" y1="571.61" x2="499.19" y2="515.21" fill="none" stroke="#000" stroke-miterlimit="10" stroke-width="5"/><line x1="522.24" y1="503.68" x2="499.19" y2="515.21" fill="none" stroke="#000" stroke-miterlimit="10" stroke-width="5"/><path d="m555.88,211.74v.07l2.31,4.28-2.54.64-2.88-5.38v-2.84h24.62v3.22h-21.52Z"/><path d="m573.57,198.73c.61-.95,1.55-3.14,1.55-5.45,0-4.28-2.73-5.61-4.77-5.57-3.45.04-4.92,3.14-4.92,6.36v1.86h-2.5v-1.86c0-2.42-1.25-5.49-4.17-5.49-1.97,0-3.71,1.25-3.71,4.32,0,1.97.87,3.86,1.63,4.93l-2.42.87c-.95-1.29-1.89-3.79-1.89-6.44,0-4.85,2.88-7.04,5.87-7.04,2.54,0,4.7,1.51,5.8,4.55h.08c.61-3.03,2.88-5.49,6.32-5.49,3.94,0,7.39,3.07,7.39,8.98,0,2.76-.87,5.19-1.67,6.4l-2.58-.91Z"/><path d="m555.57,892.03v.08l2.39,4.43-2.62.67-2.98-5.56v-2.94h25.46v3.33h-22.25Z"/><path d="m577.81,868.75h-6.93v11.83h-2.27l-16.25-11.36v-3.72h15.82v-3.56h2.7v3.56h6.93v3.25Zm-9.63,0h-8.5c-1.33,0-2.66-.04-4-.12v.12c1.49.78,2.58,1.41,3.76,2.11l8.65,6.23h.08v-8.34Z"/><rect id="Base" width="1080" height="1080" opacity="0"/></g></g></svg>