<?xml version="1.0" encoding="UTF-8"?><svg id="Capa_2" xmlns="http://www.w3.org/2000/svg" viewBox="0 0 1080 1080"><g id="Capa_1-2"><g id="Multifilar_-_Protector_contra_sobretensiones_transitorias_tetrafásico"><line x1="253.42" y1="635.89" x2="253.42" y2="858.7" fill="none" stroke="#000" stroke-miterlimit="10" stroke-width="5"/><polygon points="253.9 572.23 222.07 635.89 285.73 635.89 253.9 572.23"/><line x1="253.49" y1="445.7" x2="253.49" y2="221.3" fill="none" stroke="#000" stroke-miterlimit="10" stroke-width="5"/><polygon points="253.49 509.27 285.32 444.91 221.66 444.91 253.49 509.27"/><rect x="158" y="350.71" width="190.98" height="379.92" fill="none" stroke="#000" stroke-miterlimit="10" stroke-width="5"/><line x1="250.17" y1="699.82" x2="826.51" y2="699.82" fill="none" stroke="#000" stroke-miterlimit="10" stroke-width="5"/><path d="m190.48,826.92c-.33-1.97-.61-4.55-.61-7.83,0-4.03.94-6.99,2.62-8.86,1.5-1.73,3.8-2.76,6.61-2.76s5.11.84,6.75,2.44c2.3,2.16,3.47,5.67,3.47,9.66,0,1.22-.05,2.34-.28,3.28h12.66v4.08h-31.22Zm15.23-4.08c.24-.89.33-2.02.33-3.37,0-4.92-2.39-7.92-6.75-7.92s-6.19,2.95-6.19,7.45c0,1.78.14,3.14.33,3.84h12.28Z"/><path d="m206.89,785.62v12.28h11.39v-13.69h3.42v17.77h-31.6v-17.06h3.42v12.98h9.99v-12.28h3.38Z"/><line x1="444.55" y1="635.09" x2="444.55" y2="700.34" fill="none" stroke="#000" stroke-miterlimit="10" stroke-width="5"/><polygon points="444.55 572.23 412.36 635.89 476.75 635.89 444.55 572.23"/><line x1="444.55" y1="445.67" x2="444.55" y2="221.3" fill="none" stroke="#000" stroke-miterlimit="10" stroke-width="5"/><polygon points="444.55 508.57 476.38 444.91 412.72 444.91 444.55 508.57"/><rect x="349.06" y="350.71" width="190.98" height="379.92" fill="none" stroke="#000" stroke-miterlimit="10" stroke-width="5"/><line x1="635.53" y1="635.09" x2="635.53" y2="700.34" fill="none" stroke="#000" stroke-miterlimit="10" stroke-width="5"/><polygon points="635.53 572.23 603.34 635.89 667.73 635.89 635.53 572.23"/><line x1="635.53" y1="445.67" x2="635.53" y2="221.3" fill="none" stroke="#000" stroke-miterlimit="10" stroke-width="5"/><polygon points="635.53 508.57 667.36 444.91 603.7 444.91 635.53 508.57"/><rect x="540.04" y="350.71" width="190.98" height="379.92" fill="none" stroke="#000" stroke-miterlimit="10" stroke-width="5"/><line x1="826.51" y1="635.09" x2="826.51" y2="700.34" fill="none" stroke="#000" stroke-miterlimit="10" stroke-width="5"/><polygon points="826.51 572.23 794.31 635.89 858.71 635.89 826.51 572.23"/><line x1="826.51" y1="445.67" x2="826.51" y2="221.3" fill="none" stroke="#000" stroke-miterlimit="10" stroke-width="5"/><polygon points="826.51 508.57 858.34 444.91 794.68 444.91 826.51 508.57"/><rect x="731.02" y="350.71" width="190.98" height="379.92" fill="none" stroke="#000" stroke-miterlimit="10" stroke-width="5"/><path d="m189.87,287.33v-4.11h28.38v-13.6h3.45v17.71h-31.83Z"/><path d="m194.88,257.47v.09l2.88,5.34-3.16.8-3.59-6.71v-3.54h30.7v4.01h-26.83Z"/><path d="m380.85,293.89v-4.11h28.38v-13.6h3.45v17.71h-31.83Z"/><path d="m412.68,273.05h-2.55l-3.16-3.26c-7.46-7.84-11.43-11.38-16.06-11.43-3.12,0-6,1.51-6,6.09,0,2.79,1.42,5.1,2.6,6.52l-2.93,1.32c-1.79-2.13-3.12-5.15-3.12-8.69,0-6.61,4.53-9.4,8.93-9.4,5.67,0,10.25,4.11,16.48,10.58l2.27,2.46h.09v-13.79h3.45v19.6Z"/><path d="m571.83,292.68v-4.04h27.93v-13.38h3.39v17.43h-31.32Z"/><path d="m598.46,271.21c.74-1.16,1.91-3.86,1.91-6.69,0-5.25-3.34-6.88-5.86-6.83-4.23.05-6.04,3.86-6.04,7.81v2.28h-3.07v-2.28c0-2.97-1.53-6.74-5.11-6.74-2.42,0-4.55,1.53-4.55,5.3,0,2.42,1.07,4.74,2,6.04l-2.97,1.07c-1.16-1.58-2.32-4.65-2.32-7.9,0-5.95,3.53-8.64,7.2-8.64,3.11,0,5.76,1.86,7.11,5.58h.09c.74-3.72,3.53-6.74,7.76-6.74,4.83,0,9.06,3.76,9.06,11.01,0,3.39-1.07,6.37-2.05,7.85l-3.16-1.11Z"/><path d="m794.64,277.43h-31.83v-4.49l16.1-10.2c3.73-2.36,7.08-4.2,10.34-5.72l-.05-.09c-4.25.38-8.12.47-13.08.47h-13.32v-3.87h31.83v4.16l-16.15,10.1c-3.54,2.22-7.18,4.35-10.63,5.95l.05.14c4.01-.24,7.84-.33,13.13-.33h13.6v3.87Z"/><circle cx="253.42" cy="699.82" r="13.21"/><circle cx="444.4" cy="699.82" r="13.21"/><circle cx="635.38" cy="699.82" r="13.21"/><rect id="Base" width="1080" height="1080" opacity="0"/></g></g></svg>