<?xml version="1.0" encoding="UTF-8"?><svg id="Capa_2" xmlns="http://www.w3.org/2000/svg" viewBox="0 0 1080 1080"><g id="Capa_1-2"><g id="Multifilar_-_Órgano_motor_de_un_reloj_horario_bobina_1"><circle cx="540" cy="539.52" r="190.76" fill="none" stroke="#000" stroke-miterlimit="10" stroke-width="5"/><line x1="540" y1="387.2" x2="540" y2="539.52" fill="none" stroke="#000" stroke-miterlimit="10" stroke-width="5"/><line x1="540" y1="538.1" x2="426.11" y2="538.1" fill="none" stroke="#000" stroke-miterlimit="10" stroke-width="5"/><line x1="540" y1="158" x2="540" y2="348.76" fill="none" stroke="#000" stroke-miterlimit="10" stroke-width="5"/><line x1="540" y1="922" x2="540" y2="729.33" fill="none" stroke="#000" stroke-miterlimit="10" stroke-width="5"/><path d="m468.51,201.14v.12l3.58,6.63-3.93,1-4.46-8.33v-4.4h38.15v4.99h-33.34Z"/><path d="m501.85,883.33h-3.12l-3.87-3.98c-9.12-9.58-13.97-13.91-19.62-13.97-3.81,0-7.33,1.85-7.33,7.44,0,3.4,1.73,6.23,3.17,7.97l-3.58,1.62c-2.19-2.6-3.81-6.29-3.81-10.62,0-8.08,5.54-11.49,10.91-11.49,6.92,0,12.52,5.02,20.14,12.93l2.77,3h.12v-16.85h4.21v23.95Z"/><rect id="Base" width="1080" height="1080" opacity="0"/></g></g></svg>