<?xml version="1.0" encoding="UTF-8"?><svg id="Capa_2" xmlns="http://www.w3.org/2000/svg" viewBox="0 0 1080 1080"><g id="Capa_1-2"><g id="Multifilar_-_Detector_de_movimientos_PIR_"><circle cx="217.26" cy="332.64" r="29.36"/><rect x="189.15" y="391.9" width="291.12" height="291.65" fill="none" stroke="#000" stroke-miterlimit="10" stroke-width="5"/><rect x="405.37" y="431.24" width="36.04" height="213.08" transform="translate(846.78 1075.56) rotate(-180)" fill="none" stroke="#000" stroke-miterlimit="10" stroke-width="5"/><path d="m405.37,644.32c-30-26.66-52.4-62.72-52.4-106.54,0-43.83,22.4-79.88,52.4-106.54v213.08Z"/><path d="m347.49,645.42c-30-26.14-48.97-64.67-48.97-107.64,0-42.97,18.97-81.5,48.97-107.64" fill="none" stroke="#000" stroke-miterlimit="10" stroke-width="5"/><path d="m310.8,645.42c-30-26.14-48.97-64.67-48.97-107.64,0-42.97,18.97-81.5,48.97-107.64" fill="none" stroke="#000" stroke-miterlimit="10" stroke-width="5"/><path d="m274.11,645.42c-30-26.14-48.97-64.67-48.97-107.64,0-42.97,18.97-81.5,48.97-107.64" fill="none" stroke="#000" stroke-miterlimit="10" stroke-width="5"/><line x1="217.26" y1="245.35" x2="217.26" y2="332.45" fill="none" stroke="#000" stroke-miterlimit="10" stroke-width="5"/><line x1="158" y1="332.64" x2="276.51" y2="332.64" fill="none" stroke="#000" stroke-miterlimit="10" stroke-width="5"/><line x1="334.97" y1="391.9" x2="334.97" y2="245.35" fill="none" stroke="#000" stroke-miterlimit="10" stroke-width="5"/><line x1="334.97" y1="681.88" x2="334.97" y2="832.59" fill="none" stroke="#000" stroke-miterlimit="10" stroke-width="5"/><line x1="657.94" y1="394.06" x2="773.72" y2="657.09" fill="none" stroke="#000" stroke-miterlimit="10" stroke-width="5"/><line x1="628.04" y1="245.89" x2="628.04" y2="422.71" fill="none" stroke="#000" stroke-miterlimit="10" stroke-width="5"/><line x1="687.28" y1="422.1" x2="628.04" y2="422.1" fill="none" stroke="#000" stroke-miterlimit="10" stroke-width="5"/><line x1="861.85" y1="422.1" x2="922" y2="422.1" fill="none" stroke="#000" stroke-miterlimit="10" stroke-width="5"/><line x1="921.47" y1="247.36" x2="921.47" y2="422" fill="none" stroke="#000" stroke-miterlimit="10" stroke-width="5"/><line x1="773.72" y1="657.09" x2="773.41" y2="834.65" fill="none" stroke="#000" stroke-miterlimit="10" stroke-width="5"/><path d="m719.58,798.14v.09l2.75,5.1-3.02.77-3.43-6.41v-3.38h29.34v3.84h-25.64Z"/><path d="m719.58,774.98v.09l2.75,5.1-3.02.77-3.43-6.41v-3.38h29.34v3.84h-25.64Z"/><path d="m573.31,308.68v.09l2.71,5.02-2.97.75-3.37-6.3v-3.33h28.85v3.77h-25.21Z"/><path d="m598.52,294.39h-2.4l-2.97-3.06c-7.01-7.37-10.74-10.7-15.09-10.74-2.93,0-5.64,1.42-5.64,5.73,0,2.62,1.33,4.79,2.44,6.13l-2.75,1.24c-1.69-2-2.93-4.84-2.93-8.17,0-6.21,4.26-8.83,8.39-8.83,5.33,0,9.63,3.86,15.49,9.94l2.13,2.31h.09v-12.96h3.24v18.42Z"/><path d="m866.29,310.64v.09l2.75,5.1-3.02.77-3.43-6.41v-3.39h29.34v3.84h-25.64Z"/><path d="m891.93,283.82h-7.99v13.63h-2.62l-18.73-13.09v-4.29h18.24v-4.11h3.11v4.11h7.99v3.75Zm-11.1,0h-9.79c-1.54,0-3.07-.05-4.6-.14v.14c1.72.9,2.98,1.63,4.33,2.44l9.98,7.18h.09v-9.62Z"/><path d="m295.89,308.54l9.23,3.05v3.92l-29.34-9.97v-4.57l29.34-10.01v4.05l-9.23,3.14v10.4Zm-2.96-9.62l-8.45,2.87c-1.91.66-3.66,1.09-5.35,1.52v.09c1.74.44,3.53.91,5.31,1.48l8.49,2.87v-8.84Z"/><path d="m280.39,279.67v.09l2.66,4.92-2.92.74-3.31-6.18v-3.26h28.3v3.7h-24.73Z"/><path d="m295.84,797.15l9.21,3.04v3.91l-29.27-9.94v-4.56l29.27-9.99v4.04l-9.21,3.13v10.38Zm-2.95-9.6l-8.42,2.86c-1.91.65-3.65,1.09-5.34,1.52v.09c1.74.43,3.52.91,5.3,1.47l8.47,2.87v-8.81Z"/><path d="m305.04,776.64h-2.34l-2.91-2.99c-6.86-7.21-10.51-10.47-14.76-10.51-2.87,0-5.52,1.39-5.52,5.6,0,2.56,1.3,4.69,2.39,5.99l-2.69,1.22c-1.65-1.96-2.87-4.73-2.87-7.99,0-6.08,4.17-8.64,8.21-8.64,5.21,0,9.42,3.78,15.16,9.73l2.08,2.26h.09v-12.68h3.17v18.02Z"/><line x1="480.27" y1="539.72" x2="486.27" y2="539.72" fill="none" stroke="#000" stroke-miterlimit="10" stroke-width="5"/><line x1="498.35" y1="539.72" x2="709.71" y2="539.72" fill="none" stroke="#000" stroke-dasharray="0 0 12.08 12.08" stroke-miterlimit="10" stroke-width="5"/><line x1="715.75" y1="539.72" x2="721.75" y2="539.72" fill="none" stroke="#000" stroke-miterlimit="10" stroke-width="5"/><rect id="Base" width="1080" height="1080" opacity="0"/></g></g></svg>