<?xml version="1.0" encoding="UTF-8"?><svg id="Capa_2" xmlns="http://www.w3.org/2000/svg" viewBox="0 0 1080 1080"><g id="Capa_1-2"><g id="Multifilar_-_Conmutador_de_cruzamiento"><line x1="920.23" y1="158" x2="920.23" y2="349" fill="none" stroke="#000" stroke-miterlimit="10" stroke-width="5"/><line x1="158" y1="425.05" x2="158" y2="653.18" fill="none" stroke="#000" stroke-miterlimit="10" stroke-width="5"/><line x1="310.09" y1="539.12" x2="316.09" y2="539.12" fill="none" stroke="#000" stroke-miterlimit="10" stroke-width="5"/><line x1="327.51" y1="539.12" x2="527.4" y2="539.12" fill="none" stroke="#000" stroke-dasharray="0 0 11.42 11.42" stroke-miterlimit="10" stroke-width="5"/><line x1="533.12" y1="539.12" x2="539.12" y2="539.12" fill="none" stroke="#000" stroke-miterlimit="10" stroke-width="5"/><line x1="158" y1="539.12" x2="164" y2="539.12" fill="none" stroke="#000" stroke-miterlimit="10" stroke-width="5"/><line x1="176.81" y1="539.12" x2="221.64" y2="539.12" fill="none" stroke="#000" stroke-dasharray="0 0 12.81 12.81" stroke-miterlimit="10" stroke-width="5"/><line x1="228.05" y1="539.12" x2="234.05" y2="539.12" fill="none" stroke="#000" stroke-miterlimit="10" stroke-width="5"/><line x1="234.05" y1="539.12" x2="272.95" y2="616.93" fill="none" stroke="#000" stroke-miterlimit="10" stroke-width="5"/><line x1="310.09" y1="539.12" x2="272.95" y2="616.93" fill="none" stroke="#000" stroke-miterlimit="10" stroke-width="5"/><line x1="158" y1="349.88" x2="425.05" y2="349.88" fill="none" stroke="#000" stroke-miterlimit="10" stroke-width="5"/><line x1="158" y1="158" x2="158" y2="349" fill="none" stroke="#000" stroke-miterlimit="10" stroke-width="5"/><line x1="653.19" y1="349.88" x2="921.12" y2="349.88" fill="none" stroke="#000" stroke-miterlimit="10" stroke-width="5"/><line x1="920.23" y1="731" x2="920.23" y2="922" fill="none" stroke="#000" stroke-miterlimit="10" stroke-width="5"/><line x1="158" y1="731" x2="158" y2="922" fill="none" stroke="#000" stroke-miterlimit="10" stroke-width="5"/><line x1="653.19" y1="349.88" x2="918.5" y2="349.88" fill="none" stroke="#000" stroke-miterlimit="10" stroke-width="5"/><line x1="654.07" y1="730.12" x2="922" y2="730.12" fill="none" stroke="#000" stroke-miterlimit="10" stroke-width="5"/><line x1="158" y1="730.12" x2="424.16" y2="730.12" fill="none" stroke="#000" stroke-miterlimit="10" stroke-width="5"/><line x1="271.19" y1="272.07" x2="807.05" y2="807.93" fill="none" stroke="#000" stroke-miterlimit="10" stroke-width="5"/><line x1="807.05" y1="272.07" x2="271.19" y2="807.93" fill="none" stroke="#000" stroke-miterlimit="10" stroke-width="5"/><rect id="Base" width="1080" height="1080" opacity="0"/></g></g></svg>