<?xml version="1.0" encoding="UTF-8"?><svg id="Capa_2" xmlns="http://www.w3.org/2000/svg" viewBox="0 0 1080 1080"><g id="Capa_1-2"><g id="Multifilar_-_Sirena"><line x1="385.42" y1="538.22" x2="385.42" y2="922" fill="none" stroke="#000" stroke-miterlimit="10" stroke-width="5"/><line x1="158" y1="922" x2="385.42" y2="922" fill="none" stroke="#000" stroke-miterlimit="10" stroke-width="5"/><line x1="694.58" y1="538.22" x2="694.58" y2="922" fill="none" stroke="#000" stroke-miterlimit="10" stroke-width="5"/><line x1="922" y1="922" x2="694.58" y2="922" fill="none" stroke="#000" stroke-miterlimit="10" stroke-width="5"/><polygon points="540 158 158 540 922 540 540 158" fill="none" stroke="#000" stroke-miterlimit="10" stroke-width="5"/><path d="m249.44,778.92h-.24s-13.4,7.23-13.4,7.23l-2.02-7.94,16.83-9.01h8.89s0,77.05,0,77.05h-10.08s0-67.33,0-67.33Z"/><path d="m797.63,845.6v-6.24s7.98-7.75,7.98-7.75c19.18-18.26,27.86-27.97,27.97-39.3,0-7.63-3.7-14.68-14.91-14.68-6.82,0-12.48,3.47-15.95,6.36l-3.24-7.17c5.2-4.39,12.6-7.63,21.27-7.63,16.18,0,23,11.1,23,21.84,0,13.87-10.06,25.09-25.89,40.34l-6.01,5.55v.23h33.75s0,8.44,0,8.44h-47.97Z"/><rect id="Base" width="1080" height="1080" opacity="0"/></g></g></svg>