<?xml version="1.0" encoding="UTF-8"?><svg id="Capa_2" xmlns="http://www.w3.org/2000/svg" viewBox="0 0 1080 1080"><g id="Capa_1-2"><g id="Multifilar_-_Contacto_auxiliar_de_relé_térmico_NC_1"><line x1="637.87" y1="347.48" x2="828.37" y2="347.48" fill="none" stroke="#000" stroke-miterlimit="10" stroke-width="5"/><line x1="637.87" y1="158" x2="637.87" y2="346.54" fill="none" stroke="#000" stroke-miterlimit="10" stroke-width="5"/><line x1="637.87" y1="731.75" x2="637.87" y2="922" fill="none" stroke="#000" stroke-miterlimit="10" stroke-width="5"/><line x1="828.37" y1="270.15" x2="637.87" y2="731.75" fill="none" stroke="#000" stroke-miterlimit="10" stroke-width="5"/><line x1="367.62" y1="385.43" x2="367.62" y2="538.72" fill="none" stroke="#000" stroke-miterlimit="10" stroke-width="5"/><line x1="520.51" y1="385.43" x2="367.62" y2="385.43" fill="none" stroke="#000" stroke-miterlimit="10" stroke-width="5"/><line x1="520.51" y1="538.72" x2="520.51" y2="385.43" fill="none" stroke="#000" stroke-miterlimit="10" stroke-width="5"/><line x1="251.63" y1="538.72" x2="367.62" y2="538.72" fill="none" stroke="#000" stroke-miterlimit="10" stroke-width="5"/><line x1="718.46" y1="538.72" x2="520.51" y2="538.72" fill="none" stroke="#000" stroke-miterlimit="10" stroke-width="5"/><path d="m593.51,881.48c.11-1.08,0-2.34-.17-4.05-.4-2.91-1.6-5.65-3.59-7.76-2.23-2.45-5.48-4.22-9.87-4.91v.17c2.51,2.05,3.99,5.02,3.99,8.73,0,6.68-5.02,10.96-11.35,10.96-7.02,0-13.18-5.08-13.18-12.67s6.16-12.27,15.63-12.27c8.16,0,13.87,2.74,17.4,6.39,2.8,2.85,4.51,6.79,4.96,10.78.29,1.83.34,3.42.29,4.62h-4.11Zm-21.34-1.83c4.62,0,7.87-2.8,7.87-7.13,0-3.37-1.66-5.99-3.88-7.3-.46-.29-1.03-.46-1.83-.46-6.33,0-11.18,2.34-11.18,7.59,0,4.28,3.77,7.3,9.02,7.3Z"/><path d="m563.5,833.94c-.06,1.03,0,2.34.23,3.77,1.31,7.87,7.08,12.04,13.18,12.9v-.17c-2.34-1.77-4.28-4.85-4.28-8.96,0-6.56,4.74-11.18,11.98-11.18,6.79,0,13.07,4.62,13.07,12.32s-6.16,13.12-15.81,13.12c-7.3,0-13.07-2.63-16.72-6.28-3.02-3.08-4.91-7.19-5.48-11.87-.23-1.48-.29-2.74-.29-3.65h4.11Zm21.4,1.43c-5.31,0-8.5,3.02-8.5,7.65,0,3.02,1.88,5.82,4.56,7.19.57.34,1.31.57,2.23.57,6.11-.11,10.61-2.91,10.61-8.16,0-4.34-3.59-7.25-8.9-7.25Z"/><path d="m593.51,243.67c.11-1.08,0-2.34-.17-4.05-.4-2.91-1.6-5.65-3.59-7.76-2.23-2.45-5.48-4.22-9.87-4.91v.17c2.51,2.05,3.99,5.02,3.99,8.73,0,6.68-5.02,10.96-11.35,10.96-7.02,0-13.18-5.08-13.18-12.67s6.16-12.27,15.63-12.27c8.16,0,13.87,2.74,17.4,6.39,2.8,2.85,4.51,6.79,4.96,10.78.29,1.83.34,3.42.29,4.62h-4.11Zm-21.34-1.83c4.62,0,7.87-2.8,7.87-7.13,0-3.37-1.66-5.99-3.88-7.3-.46-.29-1.03-.46-1.83-.46-6.33,0-11.18,2.34-11.18,7.59,0,4.28,3.77,7.3,9.02,7.3Z"/><path d="m564.19,195.17v14.15l9.53,1.43c-.11-.86-.23-1.65-.23-3.02,0-2.85.63-5.71,2-7.99,1.66-2.91,4.85-5.31,9.53-5.31,7.25,0,12.67,5.76,12.67,13.81,0,4.05-1.14,7.47-2.28,9.24l-3.82-1.26c.91-1.54,2.05-4.57,2.05-7.93,0-4.74-3.08-8.79-8.05-8.79-4.79.06-8.22,3.25-8.22,10.67,0,2.11.23,3.77.4,5.13l-17.8-2.4v-17.75h4.22Z"/><rect id="Base" width="1080" height="1080" opacity="0"/></g></g></svg>