<?xml version="1.0" encoding="UTF-8"?><svg id="Capa_2" xmlns="http://www.w3.org/2000/svg" viewBox="0 0 1080 1080"><g id="Capa_1-2"><g id="Multifilar_-_Transformador_2"><line x1="159.87" y1="158" x2="396.86" y2="158" fill="none" stroke="#000" stroke-miterlimit="10" stroke-width="5"/><line x1="159.87" y1="922" x2="396.86" y2="922" fill="none" stroke="#000" stroke-miterlimit="10" stroke-width="5"/><path d="m396.7,349.15c52.78,0,95.57-42.79,95.57-95.57s-42.79-95.57-95.57-95.57" fill="none" stroke="#000" stroke-miterlimit="10" stroke-width="5"/><path d="m396.7,540.1c52.78,0,95.57-42.79,95.57-95.57s-42.79-95.57-95.57-95.57" fill="none" stroke="#000" stroke-miterlimit="10" stroke-width="5"/><path d="m396.7,731.05c52.78,0,95.57-42.79,95.57-95.57s-42.79-95.57-95.57-95.57" fill="none" stroke="#000" stroke-miterlimit="10" stroke-width="5"/><path d="m396.7,922c52.78,0,95.57-42.79,95.57-95.57s-42.79-95.57-95.57-95.57" fill="none" stroke="#000" stroke-miterlimit="10" stroke-width="5"/><line x1="920.13" y1="922" x2="683.14" y2="922" fill="none" stroke="#000" stroke-miterlimit="10" stroke-width="5"/><line x1="920.13" y1="158" x2="683.14" y2="158" fill="none" stroke="#000" stroke-miterlimit="10" stroke-width="5"/><path d="m683.3,730.85c-52.78,0-95.57,42.79-95.57,95.57,0,52.78,42.79,95.57,95.57,95.57" fill="none" stroke="#000" stroke-miterlimit="10" stroke-width="5"/><path d="m683.3,539.9c-52.78,0-95.57,42.79-95.57,95.57,0,52.78,42.79,95.57,95.57,95.57" fill="none" stroke="#000" stroke-miterlimit="10" stroke-width="5"/><path d="m683.3,348.95c-52.78,0-95.57,42.79-95.57,95.57,0,52.78,42.79,95.57,95.57,95.57" fill="none" stroke="#000" stroke-miterlimit="10" stroke-width="5"/><path d="m683.3,158c-52.78,0-95.57,42.79-95.57,95.57,0,52.78,42.79,95.57,95.57,95.57" fill="none" stroke="#000" stroke-miterlimit="10" stroke-width="5"/><rect id="Base" width="1080" height="1080" opacity="0"/></g></g></svg>