<?xml version="1.0" encoding="UTF-8"?><svg id="Capa_2" xmlns="http://www.w3.org/2000/svg" viewBox="0 0 1080 1080"><g id="Capa_1-2"><g id="Multifilar_-_Interruptor_crepuscular"><line x1="284.6" y1="412.47" x2="284.6" y2="221.56" fill="none" stroke="#000" stroke-miterlimit="10" stroke-width="5"/><line x1="284.6" y1="667.81" x2="284.6" y2="857.92" fill="none" stroke="#000" stroke-miterlimit="10" stroke-width="5"/><rect x="158" y="412.47" width="253.21" height="253.21" fill="none" stroke="#000" stroke-miterlimit="10" stroke-width="5"/><path d="m285.33,600.92c34.56,0,62.57-28.02,62.57-62.57s-28.02-62.57-62.57-62.57"/><circle cx="284.69" cy="537.98" r="62.57" fill="none" stroke="#000" stroke-miterlimit="10" stroke-width="5"/><line x1="190.01" y1="537.98" x2="223.49" y2="537.98" fill="none" stroke="#000" stroke-miterlimit="10" stroke-width="5"/><line x1="284.69" y1="442.3" x2="284.69" y2="475.77" fill="none" stroke="#000" stroke-miterlimit="10" stroke-width="5"/><line x1="284.69" y1="600.92" x2="284.69" y2="634.39" fill="none" stroke="#000" stroke-miterlimit="10" stroke-width="5"/><line x1="241.29" y1="582.54" x2="217.62" y2="606.21" fill="none" stroke="#000" stroke-miterlimit="10" stroke-width="5"/><line x1="241.29" y1="492.57" x2="217.62" y2="468.9" fill="none" stroke="#000" stroke-miterlimit="10" stroke-width="5"/><path d="m243.02,288.93l10.01,3.31v4.25l-31.82-10.81v-4.96l31.82-10.86v4.39l-10.01,3.4v11.28Zm-3.21-10.43l-9.16,3.11c-2.08.71-3.96,1.18-5.81,1.65v.1c1.89.47,3.82.99,5.76,1.6l9.2,3.12v-9.58Z"/><path d="m226.21,257.62v.09l2.88,5.34-3.16.8-3.59-6.7v-3.54h30.69v4.01h-26.82Z"/><path d="m243.02,818.11l10.01,3.31v4.25l-31.82-10.81v-4.96l31.82-10.86v4.39l-10.01,3.4v11.28Zm-3.21-10.43l-9.16,3.11c-2.08.71-3.96,1.18-5.81,1.65v.1c1.89.47,3.82.99,5.76,1.6l9.2,3.12v-9.58Z"/><path d="m253.03,795.81h-2.55l-3.16-3.26c-7.46-7.84-11.42-11.38-16.05-11.42-3.12,0-6,1.51-6,6.09,0,2.79,1.42,5.1,2.6,6.52l-2.93,1.32c-1.79-2.13-3.12-5.15-3.12-8.69,0-6.61,4.53-9.39,8.92-9.39,5.67,0,10.25,4.11,16.48,10.57l2.27,2.46h.09v-13.78h3.45v19.59Z"/><line x1="635.64" y1="381.45" x2="761.2" y2="666.68" fill="none" stroke="#000" stroke-miterlimit="10" stroke-width="5"/><line x1="603.22" y1="220.77" x2="603.22" y2="412.52" fill="none" stroke="#000" stroke-miterlimit="10" stroke-width="5"/><line x1="667.46" y1="411.85" x2="603.22" y2="411.85" fill="none" stroke="#000" stroke-miterlimit="10" stroke-width="5"/><line x1="856.77" y1="411.85" x2="922" y2="411.85" fill="none" stroke="#000" stroke-miterlimit="10" stroke-width="5"/><line x1="921.43" y1="222.36" x2="921.43" y2="411.74" fill="none" stroke="#000" stroke-miterlimit="10" stroke-width="5"/><line x1="761.2" y1="666.68" x2="760.86" y2="859.23" fill="none" stroke="#000" stroke-miterlimit="10" stroke-width="5"/><path d="m702.49,819.64v.1l2.99,5.53-3.28.83-3.72-6.95v-3.67h31.82v4.16h-27.8Z"/><path d="m702.49,794.53v.1l2.99,5.53-3.28.83-3.72-6.95v-3.67h31.82v4.16h-27.8Z"/><path d="m543.87,288.86v.1l2.94,5.44-3.23.82-3.66-6.84v-3.61h31.29v4.09h-27.34Z"/><path d="m571.21,273.36h-2.6l-3.23-3.32c-7.61-7.99-11.65-11.6-16.37-11.65-3.18,0-6.11,1.54-6.11,6.21,0,2.84,1.44,5.2,2.65,6.64l-2.99,1.35c-1.83-2.17-3.18-5.25-3.18-8.86,0-6.74,4.62-9.58,9.1-9.58,5.78,0,10.44,4.19,16.8,10.78l2.31,2.5h.1v-14.06h3.51v19.98Z"/><path d="m861.58,291.14v.1l2.99,5.53-3.28.83-3.72-6.95v-3.67h31.82v4.16h-27.8Z"/><path d="m889.39,262.07h-8.66v14.78h-2.84l-20.31-14.2v-4.65h19.78v-4.45h3.38v4.45h8.66v4.06Zm-12.04,0h-10.62c-1.66,0-3.33-.05-4.99-.15v.15c1.86.98,3.23,1.76,4.7,2.64l10.82,7.78h.1v-10.43Z"/><line x1="412.12" y1="539.41" x2="418.12" y2="539.41" fill="none" stroke="#000" stroke-miterlimit="10" stroke-width="5"/><line x1="430.32" y1="539.41" x2="692.74" y2="539.41" fill="none" stroke="#000" stroke-dasharray="0 0 12.21 12.21" stroke-miterlimit="10" stroke-width="5"/><line x1="698.84" y1="539.41" x2="704.84" y2="539.41" fill="none" stroke="#000" stroke-miterlimit="10" stroke-width="5"/><rect id="Base" width="1080" height="1080" opacity="0"/></g></g></svg>