<?xml version="1.0" encoding="UTF-8"?><svg id="Capa_2" xmlns="http://www.w3.org/2000/svg" viewBox="0 0 1080 1080"><g id="Capa_1-2"><g id="Multifilar_-_Protector_contra_sobretensiones_transitorias_trifásico"><line x1="310.95" y1="654.93" x2="310.95" y2="922" fill="none" stroke="#000" stroke-miterlimit="10" stroke-width="5"/><polygon points="311.53 578.63 273.38 654.93 349.68 654.93 311.53 578.63"/><line x1="311.04" y1="426.97" x2="311.04" y2="158" fill="none" stroke="#000" stroke-miterlimit="10" stroke-width="5"/><polygon points="311.04 503.16 349.19 426.02 272.88 426.02 311.04 503.16"/><rect x="196.58" y="313.11" width="228.91" height="455.38" fill="none" stroke="#000" stroke-miterlimit="10" stroke-width="5"/><circle cx="310.95" cy="731.56" r="15.84"/><line x1="307.05" y1="731.56" x2="770.82" y2="731.56" fill="none" stroke="#000" stroke-miterlimit="10" stroke-width="5"/><path d="m235.51,883.91c-.39-2.36-.73-5.45-.73-9.39,0-4.83,1.12-8.37,3.15-10.62,1.8-2.08,4.55-3.31,7.92-3.31s6.13,1.01,8.09,2.92c2.75,2.59,4.16,6.8,4.16,11.58,0,1.46-.05,2.81-.34,3.93h15.17v4.89h-37.42Zm18.26-4.89c.28-1.07.39-2.42.39-4.04,0-5.9-2.87-9.5-8.09-9.5s-7.42,3.54-7.42,8.93c0,2.13.17,3.76.39,4.61h14.72Z"/><path d="m255.18,834.41v14.72h13.65v-16.41h4.1v21.3h-37.87v-20.45h4.1v15.56h11.97v-14.72h4.05Z"/><line x1="540.05" y1="653.98" x2="540.05" y2="732.19" fill="none" stroke="#000" stroke-miterlimit="10" stroke-width="5"/><polygon points="540.05 578.63 501.46 654.93 578.64 654.93 540.05 578.63"/><line x1="540.05" y1="426.93" x2="540.05" y2="158" fill="none" stroke="#000" stroke-miterlimit="10" stroke-width="5"/><polygon points="540.05 502.32 578.2 426.02 501.9 426.02 540.05 502.32"/><rect x="425.59" y="313.11" width="228.91" height="455.38" fill="none" stroke="#000" stroke-miterlimit="10" stroke-width="5"/><line x1="768.96" y1="653.98" x2="768.96" y2="732.19" fill="none" stroke="#000" stroke-miterlimit="10" stroke-width="5"/><polygon points="768.96 578.63 730.37 654.93 807.56 654.93 768.96 578.63"/><line x1="768.96" y1="426.93" x2="768.96" y2="158" fill="none" stroke="#000" stroke-miterlimit="10" stroke-width="5"/><polygon points="768.96 502.32 807.12 426.02 730.81 426.02 768.96 502.32"/><rect x="654.51" y="313.11" width="228.91" height="455.38" fill="none" stroke="#000" stroke-miterlimit="10" stroke-width="5"/><path d="m234.78,237.14v-4.92h34.02v-16.3h4.13v21.23h-38.15Z"/><path d="m240.78,201.35v.11l3.45,6.4-3.79.96-4.3-8.04v-4.25h36.79v4.81h-32.15Z"/><path d="m463.7,245.01v-4.93h34.02v-16.3h4.13v21.23h-38.15Z"/><path d="m501.85,220.03h-3.06l-3.79-3.91c-8.94-9.4-13.7-13.64-19.25-13.7-3.74,0-7.19,1.81-7.19,7.3,0,3.34,1.7,6.12,3.11,7.81l-3.51,1.59c-2.15-2.55-3.74-6.17-3.74-10.42,0-7.92,5.43-11.26,10.7-11.26,6.79,0,12.28,4.93,19.75,12.68l2.72,2.95h.11v-16.53h4.13v23.49Z"/><path d="m692.61,243.56v-4.85h33.47v-16.04h4.07v20.89h-37.54Z"/><path d="m724.52,217.81c.89-1.39,2.28-4.62,2.28-8.02,0-6.29-4.01-8.24-7.02-8.19-5.07.06-7.24,4.62-7.24,9.36v2.73h-3.68v-2.73c0-3.56-1.84-8.08-6.13-8.08-2.9,0-5.46,1.84-5.46,6.35,0,2.9,1.28,5.68,2.39,7.24l-3.56,1.28c-1.39-1.89-2.78-5.57-2.78-9.47,0-7.13,4.23-10.36,8.63-10.36,3.73,0,6.91,2.23,8.52,6.68h.11c.89-4.46,4.23-8.08,9.3-8.08,5.79,0,10.86,4.51,10.86,13.2,0,4.07-1.28,7.63-2.45,9.41l-3.79-1.34Z"/><circle cx="539.87" cy="731.56" r="15.84"/><rect id="Base" width="1080" height="1080" opacity="0"/></g></g></svg>