<?xml version="1.0" encoding="UTF-8"?><svg id="Capa_2" xmlns="http://www.w3.org/2000/svg" viewBox="0 0 1080 1080"><g id="Capa_1-2"><g id="Multifilar_-_Pulsador_N.O."><line x1="667.53" y1="666.94" x2="667.53" y2="922" fill="none" stroke="#000" stroke-miterlimit="10" stroke-width="5"/><line x1="540" y1="411.29" x2="667.53" y2="666.35" fill="none" stroke="#000" stroke-miterlimit="10" stroke-width="5"/><line x1="412.47" y1="462.66" x2="412.47" y2="614.98" fill="none" stroke="#000" stroke-miterlimit="10" stroke-width="5"/><line x1="412.47" y1="538.82" x2="418.47" y2="538.82" fill="none" stroke="#000" stroke-miterlimit="10" stroke-width="5"/><line x1="430.42" y1="538.82" x2="591.79" y2="538.82" fill="none" stroke="#000" stroke-dasharray="0 0 11.95 11.95" stroke-miterlimit="10" stroke-width="5"/><line x1="597.77" y1="538.82" x2="603.77" y2="538.82" fill="none" stroke="#000" stroke-miterlimit="10" stroke-width="5"/><line x1="667.53" y1="158" x2="667.53" y2="411.88" fill="none" stroke="#000" stroke-miterlimit="10" stroke-width="5"/><line x1="412.47" y1="463.25" x2="463.25" y2="463.25" fill="none" stroke="#000" stroke-miterlimit="10" stroke-width="5"/><line x1="412.47" y1="615.57" x2="463.25" y2="615.57" fill="none" stroke="#000" stroke-miterlimit="10" stroke-width="5"/><path d="m637.77,197.41c.61-.95,1.56-3.15,1.56-5.47,0-4.29-2.73-5.62-4.78-5.58-3.45.04-4.93,3.15-4.93,6.38v1.86h-2.51v-1.86c0-2.43-1.25-5.5-4.18-5.5-1.97,0-3.72,1.25-3.72,4.33,0,1.97.87,3.87,1.63,4.93l-2.43.87c-.95-1.29-1.9-3.8-1.9-6.45,0-4.86,2.89-7.06,5.88-7.06,2.54,0,4.71,1.52,5.81,4.55h.08c.61-3.04,2.88-5.5,6.34-5.5,3.95,0,7.4,3.07,7.4,9,0,2.77-.87,5.2-1.67,6.41l-2.58-.91Z"/><path d="m642.02,885.23h-6.95v11.85h-2.28l-16.28-11.38v-3.73h15.85v-3.57h2.71v3.57h6.95v3.26Zm-9.65,0h-8.51c-1.33,0-2.67-.04-4-.12v.12c1.49.79,2.59,1.41,3.77,2.12l8.67,6.24h.08v-8.36Z"/><rect id="Base" width="1080" height="1080" opacity="0"/></g></g></svg>