<?xml version="1.0" encoding="UTF-8"?><svg id="Capa_2" xmlns="http://www.w3.org/2000/svg" viewBox="0 0 1080 1080"><g id="Capa_1-2"><g id="Multifilar_-_Contacto_auxiliar_de_relé_térmico_NO_y_NC_2"><line x1="301.28" y1="398.54" x2="441.61" y2="398.54" fill="none" stroke="#000" stroke-miterlimit="10" stroke-width="5"/><line x1="301.28" y1="258.97" x2="301.28" y2="397.85" fill="none" stroke="#000" stroke-miterlimit="10" stroke-width="5"/><line x1="301.28" y1="681.59" x2="301.28" y2="821.73" fill="none" stroke="#000" stroke-miterlimit="10" stroke-width="5"/><line x1="441.61" y1="341.58" x2="301.28" y2="681.59" fill="none" stroke="#000" stroke-miterlimit="10" stroke-width="5"/><line x1="723.2" y1="257.56" x2="723.2" y2="398.78" fill="none" stroke="#000" stroke-miterlimit="10" stroke-width="5"/><line x1="723.2" y1="681.57" x2="723.2" y2="822.44" fill="none" stroke="#000" stroke-miterlimit="10" stroke-width="5"/><line x1="611.08" y1="398.07" x2="723.2" y2="681.57" fill="none" stroke="#000" stroke-miterlimit="10" stroke-width="5"/><line x1="667.1" y1="539.41" x2="661.1" y2="539.41" fill="none" stroke="#000" stroke-miterlimit="10" stroke-width="5"/><line x1="649.21" y1="539.41" x2="227.31" y2="539.41" fill="none" stroke="#000" stroke-dasharray="0 0 11.88 11.88" stroke-miterlimit="10" stroke-width="5"/><line x1="221.37" y1="539.41" x2="215.37" y2="539.41" fill="none" stroke="#000" stroke-miterlimit="10" stroke-width="5"/><line x1="158" y1="539.41" x2="158" y2="597.19" fill="none" stroke="#000" stroke-miterlimit="10" stroke-width="5"/><line x1="215.37" y1="539.41" x2="158" y2="539.41" fill="none" stroke="#000" stroke-miterlimit="10" stroke-width="5"/><line x1="215.37" y1="597.19" x2="215.37" y2="539.41" fill="none" stroke="#000" stroke-miterlimit="10" stroke-width="5"/><line x1="864.81" y1="455.27" x2="864.81" y2="511.76" fill="none" stroke="#000" stroke-miterlimit="10" stroke-width="5"/><line x1="864.81" y1="568.95" x2="922" y2="568.95" fill="none" stroke="#000" stroke-miterlimit="10" stroke-width="5"/><line x1="922" y1="511.76" x2="864.81" y2="511.76" fill="none" stroke="#000" stroke-miterlimit="10" stroke-width="5"/><line x1="864.81" y1="625.44" x2="864.81" y2="568.95" fill="none" stroke="#000" stroke-miterlimit="10" stroke-width="5"/><line x1="922" y1="568.95" x2="922" y2="511.76" fill="none" stroke="#000" stroke-miterlimit="10" stroke-width="5"/><path d="m268.61,791.88c.08-.8,0-1.72-.13-2.98-.29-2.14-1.18-4.16-2.65-5.72-1.64-1.81-4.03-3.11-7.27-3.61v.13c1.85,1.51,2.94,3.7,2.94,6.43,0,4.92-3.7,8.07-8.36,8.07-5.17,0-9.71-3.74-9.71-9.33s4.54-9.04,11.52-9.04c6.01,0,10.21,2.02,12.82,4.71,2.06,2.1,3.32,5,3.66,7.94.21,1.34.25,2.52.21,3.4h-3.03Zm-15.72-1.34c3.4,0,5.8-2.06,5.8-5.25,0-2.48-1.22-4.41-2.86-5.38-.34-.21-.76-.34-1.34-.34-4.67,0-8.24,1.72-8.24,5.59,0,3.15,2.77,5.38,6.64,5.38Z"/><path d="m246.51,756.87c-.04.76,0,1.72.17,2.77.97,5.8,5.21,8.87,9.71,9.5v-.13c-1.72-1.3-3.15-3.57-3.15-6.6,0-4.83,3.49-8.24,8.83-8.24,5,0,9.62,3.4,9.62,9.08s-4.54,9.67-11.64,9.67c-5.38,0-9.62-1.93-12.31-4.62-2.23-2.27-3.61-5.3-4.03-8.74-.17-1.09-.21-2.02-.21-2.69h3.03Zm15.76,1.05c-3.91,0-6.26,2.23-6.26,5.63,0,2.23,1.39,4.29,3.36,5.3.42.25.97.42,1.64.42,4.5-.08,7.82-2.14,7.82-6.01,0-3.19-2.65-5.34-6.56-5.34Z"/><path d="m268.61,322.08c.08-.8,0-1.72-.13-2.98-.29-2.14-1.18-4.16-2.65-5.72-1.64-1.81-4.03-3.11-7.27-3.61v.13c1.85,1.51,2.94,3.7,2.94,6.43,0,4.92-3.7,8.07-8.36,8.07-5.17,0-9.71-3.74-9.71-9.33s4.54-9.04,11.52-9.04c6.01,0,10.21,2.02,12.82,4.71,2.06,2.1,3.32,5,3.66,7.94.21,1.34.25,2.52.21,3.4h-3.03Zm-15.72-1.34c3.4,0,5.8-2.06,5.8-5.25,0-2.48-1.22-4.41-2.86-5.38-.34-.21-.76-.34-1.34-.34-4.67,0-8.24,1.72-8.24,5.59,0,3.15,2.77,5.38,6.64,5.38Z"/><path d="m247.01,286.35v10.42l7.02,1.05c-.08-.63-.17-1.22-.17-2.23,0-2.1.46-4.2,1.47-5.88,1.22-2.14,3.57-3.91,7.02-3.91,5.34,0,9.33,4.25,9.33,10.17,0,2.98-.84,5.51-1.68,6.81l-2.82-.92c.67-1.13,1.51-3.36,1.51-5.84,0-3.49-2.27-6.47-5.93-6.47-3.53.04-6.05,2.4-6.05,7.86,0,1.56.17,2.77.29,3.78l-13.11-1.77v-13.07h3.11Z"/><path d="m692.26,322.95c.09-.8,0-1.72-.13-2.98-.29-2.14-1.17-4.16-2.64-5.71-1.64-1.81-4.03-3.11-7.27-3.61v.13c1.85,1.51,2.94,3.7,2.94,6.43,0,4.92-3.7,8.07-8.36,8.07-5.17,0-9.7-3.74-9.7-9.33s4.54-9.03,11.51-9.03c6.01,0,10.21,2.02,12.81,4.71,2.06,2.1,3.32,5,3.65,7.94.21,1.34.25,2.52.21,3.4h-3.03Zm-15.71-1.34c3.4,0,5.8-2.06,5.8-5.25,0-2.48-1.22-4.41-2.86-5.38-.34-.21-.76-.34-1.34-.34-4.66,0-8.23,1.72-8.23,5.59,0,3.15,2.77,5.38,6.64,5.38Z"/><path d="m667.56,285.8h2.44l24.87,11.89v3.82l-24.16-11.85h-.09v13.36h-3.07v-17.23Z"/><path d="m692.27,791.89c.09-.8,0-1.72-.13-2.98-.29-2.14-1.17-4.16-2.65-5.72-1.64-1.81-4.03-3.11-7.27-3.61v.12c1.85,1.52,2.94,3.7,2.94,6.43,0,4.92-3.7,8.07-8.36,8.07-5.17,0-9.71-3.74-9.71-9.33s4.54-9.03,11.52-9.03c6.01,0,10.21,2.02,12.82,4.71,2.06,2.1,3.32,5,3.65,7.94.21,1.34.25,2.52.21,3.41h-3.03Zm-15.72-1.34c3.41,0,5.8-2.06,5.8-5.25,0-2.48-1.22-4.41-2.86-5.38-.34-.21-.76-.34-1.34-.34-4.66,0-8.24,1.72-8.24,5.59,0,3.15,2.77,5.38,6.64,5.38Z"/><path d="m687.94,772.79c-3.45,0-5.88-2.06-7.31-5.42l-.12.04c-1.43,3.03-3.79,4.33-6.14,4.33-4.33,0-7.27-3.66-7.27-8.45,0-5.29,3.32-7.94,6.72-7.94,2.31,0,4.79,1.13,6.39,4.5h.12c1.34-3.41,3.74-5.51,7.06-5.51,4.75,0,7.94,4.08,7.94,9.29,0,5.72-3.41,9.16-7.4,9.16Zm-13.83-4.54c2.73,0,4.2-2.06,5.04-5.21-.8-2.35-2.48-4.16-4.96-4.16-2.18,0-4.45,1.3-4.45,4.62,0,3.07,2.02,4.75,4.37,4.75Zm13.66-10.17c-3.32,0-4.92,2.31-5.97,6.01.92,3.2,3.03,4.92,5.63,4.92,2.78.13,5.21-1.97,5.21-5.46s-2.06-5.47-4.88-5.47Z"/><rect id="Base" width="1080" height="1080" opacity="0"/></g></g></svg>