<?xml version="1.0" encoding="UTF-8"?><svg id="Capa_2" xmlns="http://www.w3.org/2000/svg" viewBox="0 0 1080 1080"><g id="Capa_1-2"><g id="Multifilar_-_Extractor"><polyline points="728.6 725 728.6 731 722.6 731" fill="none" stroke="#000" stroke-miterlimit="10" stroke-width="5"/><line x1="710.66" y1="731" x2="358.57" y2="731" fill="none" stroke="#000" stroke-dasharray="0 0 11.94 11.94" stroke-miterlimit="10" stroke-width="5"/><polyline points="352.6 731 346.6 731 346.6 725" fill="none" stroke="#000" stroke-miterlimit="10" stroke-width="5"/><line x1="346.6" y1="713.06" x2="346.6" y2="360.97" fill="none" stroke="#000" stroke-dasharray="0 0 11.94 11.94" stroke-miterlimit="10" stroke-width="5"/><polyline points="346.6 355 346.6 349 352.6 349" fill="none" stroke="#000" stroke-miterlimit="10" stroke-width="5"/><line x1="364.53" y1="349" x2="716.63" y2="349" fill="none" stroke="#000" stroke-dasharray="0 0 11.94 11.94" stroke-miterlimit="10" stroke-width="5"/><polyline points="722.6 349 728.6 349 728.6 355" fill="none" stroke="#000" stroke-miterlimit="10" stroke-width="5"/><line x1="728.6" y1="366.94" x2="728.6" y2="719.03" fill="none" stroke="#000" stroke-dasharray="0 0 11.94 11.94" stroke-miterlimit="10" stroke-width="5"/><line x1="158" y1="540" x2="346.6" y2="540" fill="none" stroke="#000" stroke-miterlimit="10" stroke-width="5"/><line x1="729.23" y1="540" x2="922" y2="540" fill="none" stroke="#000" stroke-miterlimit="10" stroke-width="5"/><circle cx="537.35" cy="539.12" r="153.86" fill="none" stroke="#000" stroke-miterlimit="10" stroke-width="5"/><line x1="427.7" y1="647" x2="500.21" y2="390.56" fill="none" stroke="#000" stroke-miterlimit="10" stroke-width="5"/><line x1="648.76" y1="645.23" x2="576.25" y2="390.56" fill="none" stroke="#000" stroke-miterlimit="10" stroke-width="5"/><rect id="Base" width="1080" height="1080" opacity="0"/></g></g></svg>