<?xml version="1.0" encoding="UTF-8"?><svg id="Capa_2" xmlns="http://www.w3.org/2000/svg" viewBox="0 0 1080 1080"><g id="Capa_1-2"><g id="Multifilar_-_Transistor_FET_de_canal_N_ANSI"><circle cx="646.98" cy="540.22" r="146.48" fill="none" stroke="#000" stroke-miterlimit="10" stroke-width="5"/><line x1="705.75" y1="247.26" x2="705.75" y2="480.52" fill="none" stroke="#000" stroke-miterlimit="10" stroke-width="5"/><line x1="617.59" y1="451.13" x2="617.59" y2="629.31" fill="none" stroke="#000" stroke-miterlimit="10" stroke-width="5"/><line x1="705.75" y1="598.07" x2="705.75" y2="833.19" fill="none" stroke="#000" stroke-miterlimit="10" stroke-width="5"/><polygon points="587.4 597.66 558.37 582.79 558.37 612.53 587.4 597.66"/><line x1="617.88" y1="480.52" x2="706.04" y2="480.52" fill="none" stroke="#000" stroke-miterlimit="10" stroke-width="5"/><line x1="351.92" y1="598.07" x2="706.04" y2="598.07" fill="none" stroke="#000" stroke-miterlimit="10" stroke-width="5"/><path d="m726.87,214.07c-2.71,1.35-8.12,2.71-15.05,2.71-16.07,0-28.16-10.15-28.16-28.84s12.09-29.94,29.77-29.94c7.1,0,11.59,1.52,13.53,2.54l-1.78,6c-2.79-1.35-6.76-2.37-11.5-2.37-13.36,0-22.24,8.54-22.24,23.51,0,13.95,8.03,22.92,21.9,22.92,4.48,0,9.05-.93,12.01-2.37l1.52,5.84Z"/><path d="m286.54,570.57c3.27-.69,8.42-1.2,13.66-1.2,7.48,0,12.29,1.29,15.9,4.21,3.01,2.23,4.81,5.67,4.81,10.23,0,5.59-3.7,10.48-9.8,12.72v.17c5.5,1.38,11.94,5.93,11.94,14.52,0,4.98-1.98,8.77-4.9,11.6-4.04,3.7-10.57,5.41-20.02,5.41-5.16,0-9.11-.34-11.6-.69v-56.97Zm7.48,23.72h6.79c7.91,0,12.55-4.13,12.55-9.71,0-6.79-5.16-9.45-12.72-9.45-3.44,0-5.41.26-6.62.52v18.65Zm0,27.76c1.46.26,3.61.34,6.27.34,7.73,0,14.87-2.84,14.87-11.26,0-7.91-6.79-11.17-14.95-11.17h-6.19v22.08Z"/><path d="m719.27,894.32h-22.95v21.29h25.58v6.4h-33.2v-59.05h31.89v6.4h-24.27v18.66h22.95v6.31Z"/><rect id="Base" width="1080" height="1080" opacity="0"/></g></g></svg>