<?xml version="1.0" encoding="UTF-8"?><svg id="Capa_2" xmlns="http://www.w3.org/2000/svg" viewBox="0 0 1080 1080"><g id="Capa_1-2"><g id="Multifilar_-_Protector_Tetrapolar_contra_Sobretensiones_Permanentes"><line x1="540.61" y1="524.55" x2="540.61" y2="555.69" fill="none" stroke="#000" stroke-miterlimit="10" stroke-width="5"/><line x1="464.12" y1="371.32" x2="540.56" y2="524.2" fill="none" stroke="#000" stroke-miterlimit="10" stroke-width="5"/><line x1="540.59" y1="280.64" x2="540.59" y2="371.67" fill="none" stroke="#000" stroke-miterlimit="10" stroke-width="5"/><line x1="540.59" y1="709.26" x2="540.59" y2="800.06" fill="none" stroke="#000" stroke-miterlimit="10" stroke-width="5"/><rect x="464.42" y="555.82" width="152.35" height="152.35" fill="none" stroke="#000" stroke-miterlimit="10" stroke-width="5"/><circle cx="540.59" cy="379.65" r="7.67" fill="none" stroke="#000" stroke-miterlimit="10" stroke-width="5"/><line x1="387.74" y1="523.84" x2="387.74" y2="554.99" fill="none" stroke="#000" stroke-miterlimit="10" stroke-width="5"/><line x1="311.24" y1="370.61" x2="387.68" y2="523.49" fill="none" stroke="#000" stroke-miterlimit="10" stroke-width="5"/><line x1="265.55" y1="417.68" x2="265.55" y2="478.19" fill="none" stroke="#000" stroke-miterlimit="10" stroke-width="5"/><line x1="204.32" y1="417.68" x2="204.32" y2="478.19" fill="none" stroke="#000" stroke-miterlimit="10" stroke-width="5"/><line x1="265.55" y1="417.68" x2="204.32" y2="417.68" fill="none" stroke="#000" stroke-miterlimit="10" stroke-width="5"/><line x1="265.55" y1="478.19" x2="204.32" y2="478.19" fill="none" stroke="#000" stroke-miterlimit="10" stroke-width="5"/><line x1="387.74" y1="279.94" x2="387.74" y2="370.96" fill="none" stroke="#000" stroke-miterlimit="10" stroke-width="5"/><line x1="387.74" y1="708.57" x2="387.74" y2="800.06" fill="none" stroke="#000" stroke-miterlimit="10" stroke-width="5"/><line x1="158" y1="417.68" x2="158" y2="478.19" fill="none" stroke="#000" stroke-miterlimit="10" stroke-width="5"/><rect x="311.57" y="555.82" width="152.35" height="152.35" fill="none" stroke="#000" stroke-miterlimit="10" stroke-width="5"/><line x1="403.25" y1="586.13" x2="434.04" y2="632.13" fill="none" stroke="#000" stroke-miterlimit="10" stroke-width="5"/><line x1="403.25" y1="678.14" x2="434.04" y2="632.13" fill="none" stroke="#000" stroke-miterlimit="10" stroke-width="5"/><line x1="234.31" y1="417.68" x2="234.31" y2="478.55" fill="none" stroke="#000" stroke-miterlimit="10" stroke-width="5"/><line x1="204.29" y1="448.12" x2="265.87" y2="448.12" fill="none" stroke="#000" stroke-miterlimit="10" stroke-width="5"/><circle cx="387.74" cy="378.96" r="7.67" fill="none" stroke="#000" stroke-miterlimit="10" stroke-width="5"/><path d="m372.46,662.21c0,8.6-6.97,15.57-15.57,15.57s-15.57-6.97-15.57-15.57" fill="none" stroke="#000" stroke-miterlimit="10" stroke-width="5"/><line x1="341.32" y1="585.77" x2="341.32" y2="662.21" fill="none" stroke="#000" stroke-miterlimit="10" stroke-width="5"/><line x1="372.46" y1="585.77" x2="372.46" y2="663.63" fill="none" stroke="#000" stroke-miterlimit="10" stroke-width="5"/><line x1="556.84" y1="586.48" x2="587.62" y2="632.49" fill="none" stroke="#000" stroke-miterlimit="10" stroke-width="5"/><line x1="556.84" y1="678.49" x2="587.62" y2="632.49" fill="none" stroke="#000" stroke-miterlimit="10" stroke-width="5"/><path d="m526.05,662.57c0,8.6-6.97,15.57-15.57,15.57s-15.57-6.97-15.57-15.57" fill="none" stroke="#000" stroke-miterlimit="10" stroke-width="5"/><line x1="494.9" y1="586.13" x2="494.9" y2="662.57" fill="none" stroke="#000" stroke-miterlimit="10" stroke-width="5"/><line x1="526.05" y1="586.13" x2="526.05" y2="663.98" fill="none" stroke="#000" stroke-miterlimit="10" stroke-width="5"/><line x1="845.82" y1="524.55" x2="845.82" y2="555.69" fill="none" stroke="#000" stroke-miterlimit="10" stroke-width="5"/><line x1="769.17" y1="371.32" x2="845.61" y2="524.2" fill="none" stroke="#000" stroke-miterlimit="10" stroke-width="5"/><line x1="845.82" y1="280.64" x2="845.82" y2="371.67" fill="none" stroke="#000" stroke-miterlimit="10" stroke-width="5"/><line x1="845.82" y1="709.26" x2="845.82" y2="800.06" fill="none" stroke="#000" stroke-miterlimit="10" stroke-width="5"/><rect x="769.65" y="555.82" width="152.35" height="152.35" fill="none" stroke="#000" stroke-miterlimit="10" stroke-width="5"/><circle cx="845.82" cy="379.65" r="7.67" fill="none" stroke="#000" stroke-miterlimit="10" stroke-width="5"/><line x1="692.82" y1="523.84" x2="692.82" y2="554.99" fill="none" stroke="#000" stroke-miterlimit="10" stroke-width="5"/><line x1="616.29" y1="370.61" x2="692.73" y2="523.49" fill="none" stroke="#000" stroke-miterlimit="10" stroke-width="5"/><line x1="692.82" y1="279.94" x2="692.82" y2="370.96" fill="none" stroke="#000" stroke-miterlimit="10" stroke-width="5"/><line x1="692.82" y1="708.57" x2="692.82" y2="800.06" fill="none" stroke="#000" stroke-miterlimit="10" stroke-width="5"/><rect x="616.64" y="555.82" width="152.35" height="152.35" fill="none" stroke="#000" stroke-miterlimit="10" stroke-width="5"/><line x1="708.3" y1="586.13" x2="739.09" y2="632.13" fill="none" stroke="#000" stroke-miterlimit="10" stroke-width="5"/><line x1="708.3" y1="678.14" x2="739.09" y2="632.13" fill="none" stroke="#000" stroke-miterlimit="10" stroke-width="5"/><circle cx="692.82" cy="378.96" r="7.67" fill="none" stroke="#000" stroke-miterlimit="10" stroke-width="5"/><path d="m677.51,662.21c0,8.6-6.97,15.57-15.57,15.57s-15.57-6.97-15.57-15.57" fill="none" stroke="#000" stroke-miterlimit="10" stroke-width="5"/><line x1="646.37" y1="585.77" x2="646.37" y2="662.21" fill="none" stroke="#000" stroke-miterlimit="10" stroke-width="5"/><line x1="677.51" y1="585.77" x2="677.51" y2="663.63" fill="none" stroke="#000" stroke-miterlimit="10" stroke-width="5"/><line x1="861.89" y1="586.48" x2="892.68" y2="632.49" fill="none" stroke="#000" stroke-miterlimit="10" stroke-width="5"/><line x1="861.89" y1="678.49" x2="892.68" y2="632.49" fill="none" stroke="#000" stroke-miterlimit="10" stroke-width="5"/><path d="m831.1,662.57c0,8.6-6.97,15.57-15.57,15.57s-15.57-6.97-15.57-15.57" fill="none" stroke="#000" stroke-miterlimit="10" stroke-width="5"/><line x1="799.96" y1="586.13" x2="799.96" y2="662.57" fill="none" stroke="#000" stroke-miterlimit="10" stroke-width="5"/><line x1="831.1" y1="586.13" x2="831.1" y2="663.98" fill="none" stroke="#000" stroke-miterlimit="10" stroke-width="5"/><path d="m522.33,304.29c.36-.57.93-1.89.93-3.28,0-2.57-1.64-3.37-2.87-3.34-2.07.02-2.96,1.89-2.96,3.82v1.11h-1.5v-1.11c0-1.46-.75-3.3-2.5-3.3-1.18,0-2.23.75-2.23,2.59,0,1.18.52,2.32.98,2.96l-1.46.52c-.57-.77-1.14-2.27-1.14-3.87,0-2.91,1.73-4.23,3.53-4.23,1.52,0,2.82.91,3.48,2.73h.05c.36-1.82,1.73-3.3,3.8-3.3,2.37,0,4.44,1.84,4.44,5.39,0,1.66-.52,3.12-1,3.84l-1.55-.55Z"/><path d="m524.88,777.68h-4.16v7.1h-1.36l-9.76-6.82v-2.23h9.5v-2.14h1.62v2.14h4.16v1.95Zm-5.79,0h-5.1c-.8,0-1.6-.02-2.4-.07v.07c.89.47,1.55.85,2.26,1.27l5.2,3.74h.05v-5.01Z"/><path d="m358.66,297.6v.05l1.43,2.66-1.58.4-1.79-3.34v-1.76h15.29v2h-13.36Z"/><path d="m371.99,784.78h-1.25l-1.55-1.59c-3.65-3.83-5.59-5.56-7.85-5.59-1.52,0-2.93.74-2.93,2.98,0,1.36.69,2.49,1.27,3.19l-1.43.65c-.88-1.04-1.52-2.52-1.52-4.25,0-3.23,2.22-4.6,4.36-4.6,2.77,0,5.01,2.01,8.06,5.17l1.11,1.2h.05v-6.74h1.69v9.58Z"/><path d="m830.62,307.08h-15.29v-2.15l7.73-4.9c1.79-1.13,3.4-2.02,4.97-2.74l-.02-.05c-2.04.18-3.9.23-6.28.23h-6.4v-1.86h15.29v2l-7.76,4.85c-1.7,1.07-3.45,2.09-5.1,2.86l.02.07c1.93-.11,3.77-.16,6.3-.16h6.53v1.86Z"/><path d="m830.62,784.78h-15.29v-2.15l7.73-4.9c1.79-1.13,3.4-2.02,4.97-2.74l-.02-.05c-2.04.18-3.9.23-6.28.23h-6.4v-1.86h15.29v2l-7.76,4.85c-1.7,1.07-3.45,2.09-5.1,2.86l.02.07c1.93-.11,3.77-.16,6.3-.16h6.53v1.86Z"/><path d="m664.17,295.9v5.74l3.86.58c-.05-.35-.09-.67-.09-1.23,0-1.16.25-2.31.81-3.24.67-1.18,1.97-2.15,3.86-2.15,2.94,0,5.13,2.34,5.13,5.6,0,1.64-.46,3.03-.93,3.75l-1.55-.51c.37-.62.83-1.85.83-3.21,0-1.92-1.25-3.56-3.26-3.56-1.94.02-3.33,1.32-3.33,4.32,0,.86.09,1.53.16,2.08l-7.22-.97v-7.19h1.71Z"/><path d="m664.1,776.05c-.02.41,0,.93.09,1.5.52,3.14,2.82,4.81,5.26,5.15v-.07c-.93-.71-1.71-1.94-1.71-3.58,0-2.62,1.89-4.47,4.78-4.47,2.71,0,5.22,1.85,5.22,4.92s-2.46,5.24-6.31,5.24c-2.92,0-5.22-1.05-6.68-2.51-1.21-1.23-1.96-2.87-2.19-4.74-.09-.59-.11-1.09-.11-1.46h1.64Zm8.54.57c-2.12,0-3.39,1.21-3.39,3.05,0,1.21.75,2.32,1.82,2.87.23.14.52.23.89.23,2.44-.05,4.24-1.16,4.24-3.26,0-1.73-1.44-2.89-3.55-2.89Z"/><line x1="265.58" y1="448.12" x2="271.58" y2="448.12" fill="none" stroke="#000" stroke-miterlimit="10" stroke-width="5"/><line x1="283.35" y1="448.12" x2="795.15" y2="448.12" fill="none" stroke="#000" stroke-dasharray="0 0 11.77 11.77" stroke-miterlimit="10" stroke-width="5"/><line x1="801.04" y1="448.12" x2="807.04" y2="448.12" fill="none" stroke="#000" stroke-miterlimit="10" stroke-width="5"/><line x1="205.42" y1="448.12" x2="199.42" y2="448.12" fill="none" stroke="#000" stroke-miterlimit="10" stroke-width="5"/><line x1="187.61" y1="448.12" x2="169.9" y2="448.12" fill="none" stroke="#000" stroke-dasharray="0 0 11.81 11.81" stroke-miterlimit="10" stroke-width="5"/><line x1="164" y1="448.12" x2="158" y2="448.12" fill="none" stroke="#000" stroke-miterlimit="10" stroke-width="5"/><line x1="234.31" y1="478.19" x2="234.31" y2="484.19" fill="none" stroke="#000" stroke-miterlimit="10" stroke-width="5"/><line x1="234.31" y1="497.08" x2="234.31" y2="619.55" fill="none" stroke="#000" stroke-dasharray="0 0 12.89 12.89" stroke-miterlimit="10" stroke-width="5"/><line x1="234.31" y1="625.99" x2="234.31" y2="631.99" fill="none" stroke="#000" stroke-miterlimit="10" stroke-width="5"/><line x1="234.31" y1="631.99" x2="240.31" y2="631.99" fill="none" stroke="#000" stroke-miterlimit="10" stroke-width="5"/><line x1="253.37" y1="631.99" x2="299.06" y2="631.99" fill="none" stroke="#000" stroke-dasharray="0 0 13.06 13.06" stroke-miterlimit="10" stroke-width="5"/><line x1="305.59" y1="631.99" x2="311.59" y2="631.99" fill="none" stroke="#000" stroke-miterlimit="10" stroke-width="5"/><rect id="Base" width="1080" height="1080" opacity="0"/></g></g></svg>