<?xml version="1.0" encoding="UTF-8"?><svg id="Capa_2" xmlns="http://www.w3.org/2000/svg" viewBox="0 0 1080 1080"><g id="Capa_1-2"><g id="Multifilar_-_Puente_de_diodos_Rectificador_de_onda_completa_IEC"><polygon points="590.78 540 489.22 488.63 489.22 591.37 590.78 540" fill="none" fill-rule="evenodd" stroke="#000" stroke-miterlimit="10" stroke-width="5"/><line x1="667.55" y1="540" x2="412.45" y2="540" fill="none" stroke="#000" stroke-miterlimit="10" stroke-width="5"/><line x1="591.96" y1="488.63" x2="591.96" y2="591.37" fill="none" stroke="#000" stroke-miterlimit="10" stroke-width="5"/><rect x="359.62" y="359.62" width="360.75" height="360.75" transform="translate(540 -223.68) rotate(45)" fill="none" stroke="#000" stroke-miterlimit="10" stroke-width="5"/><line x1="158" y1="540" x2="285.55" y2="540" fill="none" stroke="#000" stroke-miterlimit="10" stroke-width="5"/><line x1="795.73" y1="540" x2="922" y2="540" fill="none" stroke="#000" stroke-miterlimit="10" stroke-width="5"/><line x1="540" y1="795.73" x2="540" y2="922" fill="none" stroke="#000" stroke-miterlimit="10" stroke-width="5"/><line x1="540" y1="158" x2="540" y2="285.55" fill="none" stroke="#000" stroke-miterlimit="10" stroke-width="5"/><path d="m564.26,189.46c-.41-10.36,5.18-15.64,12.32-15.64,4.35,0,7.67,1.35,14.61,4.66,5.28,2.49,9.12,4.35,12.95,4.35s5.49-3,5.59-8.7h6.22c.52,11.6-5.49,15.64-11.91,15.64-4.14,0-7.88-1.24-15.02-4.56-4.87-2.38-8.71-4.56-12.43-4.56s-6.01,2.59-6.22,8.81h-6.11Z"/><path d="m564.26,904.99c-.41-10.36,5.18-15.64,12.32-15.64,4.35,0,7.67,1.35,14.61,4.66,5.28,2.49,9.12,4.35,12.95,4.35s5.49-3,5.59-8.7h6.22c.52,11.6-5.49,15.64-11.91,15.64-4.14,0-7.88-1.24-15.02-4.56-4.87-2.38-8.71-4.56-12.43-4.56s-6.01,2.59-6.22,8.81h-6.11Z"/><line x1="872.26" y1="489.3" x2="922" y2="489.3" fill="none" stroke="#000" stroke-miterlimit="10" stroke-width="5"/><line x1="158" y1="489.62" x2="207.74" y2="489.62" fill="none" stroke="#000" stroke-miterlimit="10" stroke-width="5"/><line x1="897.13" y1="463.79" x2="897.13" y2="514.81" fill="none" stroke="#000" stroke-miterlimit="10" stroke-width="5"/><rect id="Base" width="1080" height="1080" opacity="0"/></g></g></svg>