<?xml version="1.0" encoding="UTF-8"?><svg id="Capa_2" xmlns="http://www.w3.org/2000/svg" viewBox="0 0 1080 1080"><g id="Capa_1-2"><g id="Multifilar_-_Contacto_auxiliar_N.O."><line x1="615.83" y1="158" x2="615.83" y2="349" fill="none" stroke="#000" stroke-miterlimit="10" stroke-width="5"/><line x1="615.83" y1="731.48" x2="615.83" y2="922" fill="none" stroke="#000" stroke-miterlimit="10" stroke-width="5"/><line x1="464.17" y1="348.05" x2="615.83" y2="731.48" fill="none" stroke="#000" stroke-miterlimit="10" stroke-width="5"/><path d="m571.45,217.91c.91-1.42,2.33-4.72,2.33-8.19,0-6.42-4.09-8.41-7.16-8.36-5.17.06-7.39,4.72-7.39,9.55v2.79h-3.75v-2.79c0-3.64-1.88-8.24-6.25-8.24-2.96,0-5.57,1.88-5.57,6.48,0,2.96,1.31,5.8,2.44,7.39l-3.64,1.31c-1.42-1.93-2.84-5.68-2.84-9.66,0-7.28,4.32-10.57,8.81-10.57,3.81,0,7.05,2.27,8.7,6.82h.11c.91-4.55,4.32-8.24,9.49-8.24,5.91,0,11.09,4.6,11.09,13.47,0,4.15-1.31,7.79-2.5,9.61l-3.87-1.36Z"/><path d="m577.82,866.05h-10.4v17.75h-3.41l-24.39-17.04v-5.58h23.74v-5.35h4.06v5.35h10.4v4.88Zm-14.46,0h-12.75c-2,0-4-.06-5.99-.18v.18c2.23,1.18,3.88,2.12,5.64,3.17l12.99,9.34h.12v-12.52Z"/><rect id="Base" width="1080" height="1080" opacity="0"/></g></g></svg>