<?xml version="1.0" encoding="UTF-8"?><svg id="Capa_2" xmlns="http://www.w3.org/2000/svg" viewBox="0 0 1080 1080"><g id="Capa_1-2"><g id="Multifilar_-_Interruptor_rotativo_N.O._y_N.C."><line x1="501.46" y1="158" x2="501.46" y2="412.67" fill="none" stroke="#000" stroke-miterlimit="10" stroke-width="5"/><line x1="501.46" y1="667.65" x2="501.46" y2="922" fill="none" stroke="#000" stroke-miterlimit="10" stroke-width="5"/><line x1="400.36" y1="412.03" x2="501.46" y2="667.65" fill="none" stroke="#000" stroke-miterlimit="10" stroke-width="5"/><line x1="756.13" y1="158" x2="756.13" y2="412.67" fill="none" stroke="#000" stroke-miterlimit="10" stroke-width="5"/><line x1="756.13" y1="667.65" x2="756.13" y2="922" fill="none" stroke="#000" stroke-miterlimit="10" stroke-width="5"/><line x1="884.22" y1="362.37" x2="756.13" y2="667.65" fill="none" stroke="#000" stroke-miterlimit="10" stroke-width="5"/><line x1="755.62" y1="413.3" x2="884.22" y2="413.3" fill="none" stroke="#000" stroke-miterlimit="10" stroke-width="5"/><line x1="247.35" y1="464.25" x2="247.35" y2="616.64" fill="none" stroke="#000" stroke-miterlimit="10" stroke-width="5"/><line x1="348.94" y1="540.44" x2="354.94" y2="540.44" fill="none" stroke="#000" stroke-miterlimit="10" stroke-width="5"/><line x1="367.07" y1="540.44" x2="797.67" y2="540.44" fill="none" stroke="#000" stroke-dasharray="0 0 12.13 12.13" stroke-miterlimit="10" stroke-width="5"/><line x1="803.73" y1="540.44" x2="809.73" y2="540.44" fill="none" stroke="#000" stroke-miterlimit="10" stroke-width="5"/><line x1="247.35" y1="540.44" x2="253.35" y2="540.44" fill="none" stroke="#000" stroke-miterlimit="10" stroke-width="5"/><line x1="266.28" y1="540.44" x2="285.68" y2="540.44" fill="none" stroke="#000" stroke-dasharray="0 0 12.93 12.93" stroke-miterlimit="10" stroke-width="5"/><line x1="292.14" y1="540.44" x2="298.14" y2="540.44" fill="none" stroke="#000" stroke-miterlimit="10" stroke-width="5"/><line x1="298.14" y1="540.44" x2="324.13" y2="592.42" fill="none" stroke="#000" stroke-miterlimit="10" stroke-width="5"/><line x1="348.94" y1="540.44" x2="324.13" y2="592.42" fill="none" stroke="#000" stroke-miterlimit="10" stroke-width="5"/><line x1="247.35" y1="464.87" x2="298.28" y2="464.87" fill="none" stroke="#000" stroke-miterlimit="10" stroke-width="5"/><line x1="195.78" y1="615.76" x2="247.98" y2="615.76" fill="none" stroke="#000" stroke-miterlimit="10" stroke-width="5"/><path d="m454.18,210.94v.08l2.31,4.28-2.54.64-2.88-5.38v-2.84h24.63v3.22h-21.53Z"/><path d="m471.88,197.94c.61-.95,1.55-3.15,1.55-5.46,0-4.28-2.73-5.61-4.77-5.57-3.45.04-4.93,3.15-4.93,6.37v1.86h-2.5v-1.86c0-2.43-1.25-5.5-4.17-5.5-1.97,0-3.71,1.25-3.71,4.32,0,1.97.87,3.87,1.63,4.93l-2.43.87c-.95-1.29-1.89-3.79-1.89-6.44,0-4.85,2.88-7.05,5.87-7.05,2.54,0,4.7,1.52,5.8,4.55h.08c.61-3.03,2.88-5.5,6.33-5.5,3.94,0,7.39,3.07,7.39,8.98,0,2.77-.87,5.19-1.67,6.4l-2.58-.91Z"/><path d="m453.87,891.36v.08l2.39,4.43-2.63.67-2.98-5.56v-2.94h25.47v3.33h-22.25Z"/><path d="m476.12,868.09h-6.93v11.83h-2.27l-16.26-11.36v-3.72h15.83v-3.57h2.7v3.57h6.93v3.25Zm-9.64,0h-8.5c-1.33,0-2.66-.04-4-.12v.12c1.49.78,2.59,1.41,3.76,2.12l8.66,6.23h.08v-8.35Z"/><path d="m730.79,213.87h-2.08l-2.58-2.66c-6.09-6.4-9.32-9.29-13.1-9.32-2.54,0-4.89,1.23-4.89,4.97,0,2.27,1.16,4.16,2.12,5.32l-2.39,1.08c-1.46-1.73-2.54-4.2-2.54-7.09,0-5.39,3.7-7.67,7.28-7.67,4.62,0,8.36,3.35,13.45,8.63l1.85,2h.08v-11.25h2.81v15.99Z"/><path d="m708.9,186.74v.08l2.35,4.35-2.58.66-2.93-5.47v-2.89h25.04v3.27h-21.88Z"/><path d="m730.79,896.53h-2.08l-2.58-2.66c-6.09-6.4-9.32-9.29-13.1-9.32-2.54,0-4.89,1.23-4.89,4.97,0,2.27,1.16,4.16,2.12,5.32l-2.39,1.08c-1.46-1.73-2.54-4.2-2.54-7.09,0-5.39,3.7-7.67,7.28-7.67,4.62,0,8.36,3.35,13.45,8.63l1.85,2h.08v-11.25h2.81v15.99Z"/><path d="m730.79,876.77h-2.08l-2.58-2.66c-6.09-6.4-9.32-9.29-13.1-9.32-2.54,0-4.89,1.23-4.89,4.97,0,2.27,1.16,4.16,2.12,5.32l-2.39,1.08c-1.46-1.73-2.54-4.2-2.54-7.09,0-5.39,3.7-7.67,7.28-7.67,4.62,0,8.36,3.35,13.45,8.63l1.85,2h.08v-11.25h2.81v15.99Z"/><rect id="Base" width="1080" height="1080" opacity="0"/></g></g></svg>