<?xml version="1.0" encoding="UTF-8"?><svg id="Capa_2" xmlns="http://www.w3.org/2000/svg" viewBox="0 0 1080 1080"><g id="Capa_1-2"><g id="Multifilar_-_Transistor_IGBT_ANSI"><circle cx="652.49" cy="540.22" r="146.48" fill="none" stroke="#000" stroke-miterlimit="10" stroke-width="5"/><line x1="711.38" y1="247.26" x2="711.38" y2="451.13" fill="none" stroke="#000" stroke-miterlimit="10" stroke-width="5"/><line x1="623.27" y1="451.13" x2="623.27" y2="629.31" fill="none" stroke="#000" stroke-miterlimit="10" stroke-width="5"/><line x1="593.26" y1="480.52" x2="593.26" y2="599.92" fill="none" stroke="#000" stroke-miterlimit="10" stroke-width="5"/><line x1="711.38" y1="628.93" x2="711.38" y2="833.19" fill="none" stroke="#000" stroke-miterlimit="10" stroke-width="5"/><line x1="623.27" y1="480.52" x2="711.38" y2="451.13" fill="none" stroke="#000" stroke-miterlimit="10" stroke-width="5"/><line x1="623.27" y1="598.07" x2="711.38" y2="628.93" fill="none" stroke="#000" stroke-miterlimit="10" stroke-width="5"/><line x1="357.43" y1="598.07" x2="592.53" y2="598.07" fill="none" stroke="#000" stroke-miterlimit="10" stroke-width="5"/><polygon points="682.9 619.55 660.53 595.81 650.56 623.84 682.9 619.55"/><path d="m732.38,214.07c-2.71,1.35-8.12,2.71-15.05,2.71-16.07,0-28.16-10.15-28.16-28.84s12.09-29.94,29.77-29.94c7.1,0,11.59,1.52,13.53,2.54l-1.78,6c-2.79-1.35-6.76-2.37-11.5-2.37-13.36,0-22.24,8.54-22.24,23.51,0,13.95,8.03,22.92,21.9,22.92,4.48,0,9.05-.93,12.01-2.37l1.52,5.84Z"/><path d="m329.45,624.95c-3.42,1.23-10.16,3.24-18.12,3.24-8.93,0-16.29-2.27-22.07-7.79-5.08-4.91-8.23-12.78-8.23-21.98.09-17.6,12.17-30.47,31.96-30.47,6.83,0,12.17,1.49,14.71,2.71l-1.84,6.22c-3.15-1.4-7.09-2.54-13.05-2.54-14.36,0-23.73,8.93-23.73,23.73s9.02,23.82,22.77,23.82c4.99,0,8.41-.71,10.16-1.58v-17.6h-12v-6.13h19.44v28.37Z"/><path d="m724.78,894.32h-22.95v21.29h25.58v6.4h-33.2v-59.05h31.89v6.4h-24.27v18.66h22.95v6.31Z"/><rect id="Base" width="1080" height="1080" opacity="0"/></g></g></svg>