<?xml version="1.0" encoding="UTF-8"?><svg id="Capa_2" xmlns="http://www.w3.org/2000/svg" viewBox="0 0 1080 1080"><g id="Capa_1-2"><g id="Multifilar_-_Interruptor_magnetotérmico_bipolar_F_N_PIA_-_1"><line x1="574.29" y1="462.75" x2="574.29" y2="493.86" fill="none" stroke="#000" stroke-miterlimit="10" stroke-width="5"/><line x1="497.93" y1="309.67" x2="574.29" y2="462.4" fill="none" stroke="#000" stroke-miterlimit="10" stroke-width="5"/><line x1="452.32" y1="355.63" x2="452.32" y2="416.44" fill="none" stroke="#000" stroke-miterlimit="10" stroke-width="5"/><line x1="390.81" y1="355.98" x2="390.81" y2="416.79" fill="none" stroke="#000" stroke-miterlimit="10" stroke-width="5"/><line x1="452.68" y1="356.34" x2="391.87" y2="356.34" fill="none" stroke="#000" stroke-miterlimit="10" stroke-width="5"/><line x1="451.97" y1="417.14" x2="391.16" y2="417.14" fill="none" stroke="#000" stroke-miterlimit="10" stroke-width="5"/><line x1="574.29" y1="158" x2="574.29" y2="310.02" fill="none" stroke="#000" stroke-miterlimit="10" stroke-width="5"/><line x1="574.65" y1="799.32" x2="574.65" y2="921.08" fill="none" stroke="#000" stroke-miterlimit="10" stroke-width="5"/><line x1="344.85" y1="355.63" x2="344.85" y2="417.14" fill="none" stroke="#000" stroke-miterlimit="10" stroke-width="5"/><rect x="498.28" y="494.75" width="152.2" height="152.2" fill="none" stroke="#000" stroke-miterlimit="10" stroke-width="5"/><rect x="498.28" y="647.65" width="152.02" height="152.02" fill="none" stroke="#000" stroke-miterlimit="10" stroke-width="5"/><line x1="574.65" y1="493.51" x2="574.65" y2="539.47" fill="none" stroke="#000" stroke-miterlimit="10" stroke-width="5"/><line x1="619.9" y1="539.47" x2="574.65" y2="539.47" fill="none" stroke="#000" stroke-miterlimit="10" stroke-width="5"/><line x1="575" y1="600.99" x2="620.25" y2="600.99" fill="none" stroke="#000" stroke-miterlimit="10" stroke-width="5"/><line x1="619.9" y1="540.18" x2="619.9" y2="600.99" fill="none" stroke="#000" stroke-miterlimit="10" stroke-width="5"/><line x1="574.65" y1="601.34" x2="574.65" y2="647.3" fill="none" stroke="#000" stroke-miterlimit="10" stroke-width="5"/><line x1="528.69" y1="676.29" x2="528.69" y2="769.27" fill="none" stroke="#000" stroke-miterlimit="10" stroke-width="5"/><line x1="558.74" y1="677" x2="620.61" y2="722.96" fill="none" stroke="#000" stroke-miterlimit="10" stroke-width="5"/><line x1="558.74" y1="768.92" x2="620.61" y2="722.96" fill="none" stroke="#000" stroke-miterlimit="10" stroke-width="5"/><line x1="421.92" y1="356.34" x2="421.92" y2="417.14" fill="none" stroke="#000" stroke-miterlimit="10" stroke-width="5"/><line x1="390.81" y1="386.03" x2="452.32" y2="386.03" fill="none" stroke="#000" stroke-miterlimit="10" stroke-width="5"/><circle cx="574.29" cy="318.86" r="7.78" fill="none" stroke="#000" stroke-miterlimit="10" stroke-width="5"/><line x1="727.38" y1="462.75" x2="727.38" y2="922" fill="none" stroke="#000" stroke-miterlimit="10" stroke-width="5"/><line x1="651.01" y1="309.67" x2="727.38" y2="462.4" fill="none" stroke="#000" stroke-miterlimit="10" stroke-width="5"/><line x1="727.38" y1="158" x2="727.38" y2="310.02" fill="none" stroke="#000" stroke-miterlimit="10" stroke-width="5"/><circle cx="727.38" cy="318.86" r="7.78" fill="none" stroke="#000" stroke-miterlimit="10" stroke-width="5"/><path d="m559.1,906.63h-1.25l-1.55-1.59c-3.65-3.84-5.59-5.57-7.86-5.59-1.53,0-2.94.74-2.94,2.98,0,1.36.69,2.5,1.27,3.19l-1.43.65c-.88-1.04-1.53-2.52-1.53-4.25,0-3.24,2.22-4.6,4.37-4.6,2.77,0,5.02,2.01,8.07,5.18l1.11,1.2h.05v-6.75h1.69v9.59Z"/><path d="m545.75,175.33v.05l1.43,2.66-1.57.4-1.79-3.34v-1.76h15.28v2h-13.35Z"/><path d="m711.86,184.84h-15.28v-2.15l7.73-4.9c1.79-1.13,3.4-2.02,4.96-2.74l-.02-.05c-2.04.18-3.9.23-6.28.23h-6.39v-1.86h15.28v1.99l-7.75,4.85c-1.7,1.07-3.45,2.09-5.1,2.86l.02.07c1.93-.11,3.76-.16,6.3-.16h6.53v1.86Z"/><path d="m711.86,906.63h-15.28v-2.15l7.73-4.9c1.79-1.13,3.4-2.02,4.96-2.74l-.02-.05c-2.04.18-3.9.23-6.28.23h-6.39v-1.86h15.28v1.99l-7.75,4.85c-1.7,1.07-3.45,2.09-5.1,2.86l.02.07c1.93-.11,3.76-.16,6.3-.16h6.53v1.86Z"/><line x1="392.22" y1="386.74" x2="386.22" y2="386.74" fill="none" stroke="#000" stroke-miterlimit="10" stroke-width="5"/><line x1="374.43" y1="386.74" x2="356.74" y2="386.74" fill="none" stroke="#000" stroke-dasharray="0 0 11.79 11.79" stroke-miterlimit="10" stroke-width="5"/><line x1="350.85" y1="386.74" x2="344.85" y2="386.74" fill="none" stroke="#000" stroke-miterlimit="10" stroke-width="5"/><line x1="421.92" y1="417.14" x2="421.92" y2="423.14" fill="none" stroke="#000" stroke-miterlimit="10" stroke-width="5"/><line x1="421.94" y1="434.88" x2="422.26" y2="710.73" fill="none" stroke="#000" stroke-dasharray="0 0 11.74 11.74" stroke-miterlimit="10" stroke-width="5"/><line x1="422.26" y1="716.6" x2="422.27" y2="722.6" fill="none" stroke="#000" stroke-miterlimit="10" stroke-width="5"/><line x1="422.27" y1="722.6" x2="428.27" y2="722.6" fill="none" stroke="#000" stroke-miterlimit="10" stroke-width="5"/><line x1="441.07" y1="722.6" x2="485.88" y2="722.6" fill="none" stroke="#000" stroke-dasharray="0 0 12.8 12.8" stroke-miterlimit="10" stroke-width="5"/><line x1="492.28" y1="722.6" x2="498.28" y2="722.6" fill="none" stroke="#000" stroke-miterlimit="10" stroke-width="5"/><line x1="422.27" y1="570.58" x2="428.27" y2="570.58" fill="none" stroke="#000" stroke-miterlimit="10" stroke-width="5"/><line x1="441.07" y1="570.58" x2="485.88" y2="570.58" fill="none" stroke="#000" stroke-dasharray="0 0 12.8 12.8" stroke-miterlimit="10" stroke-width="5"/><line x1="492.28" y1="570.58" x2="498.28" y2="570.58" fill="none" stroke="#000" stroke-miterlimit="10" stroke-width="5"/><line x1="452.32" y1="386.03" x2="458.32" y2="386.03" fill="none" stroke="#000" stroke-miterlimit="10" stroke-width="5"/><line x1="470.12" y1="386.03" x2="676.59" y2="386.03" fill="none" stroke="#000" stroke-dasharray="0 0 11.8 11.8" stroke-miterlimit="10" stroke-width="5"/><line x1="682.49" y1="386.03" x2="688.49" y2="386.03" fill="none" stroke="#000" stroke-miterlimit="10" stroke-width="5"/><rect id="Base" width="1080" height="1080" opacity="0"/></g></g></svg>