<?xml version="1.0" encoding="UTF-8"?><svg id="Capa_2" xmlns="http://www.w3.org/2000/svg" viewBox="0 0 1080 1080"><g id="Capa_1-2"><g id="Multifilar_-_Interruptor_magnetotérmico_tetrapolar_PIA_-_1"><line x1="575.92" y1="444.53" x2="575.92" y2="476.95" fill="none" stroke="#000" stroke-miterlimit="10" stroke-width="5"/><line x1="496.34" y1="285" x2="575.92" y2="444.16" fill="none" stroke="#000" stroke-miterlimit="10" stroke-width="5"/><line x1="575.92" y1="158.74" x2="575.92" y2="285.37" fill="none" stroke="#000" stroke-miterlimit="10" stroke-width="5"/><line x1="576.29" y1="795.12" x2="576.29" y2="922" fill="none" stroke="#000" stroke-miterlimit="10" stroke-width="5"/><rect x="496.53" y="477.13" width="158.61" height="158.61" fill="none" stroke="#000" stroke-miterlimit="10" stroke-width="5"/><rect x="497.26" y="636.47" width="158.05" height="158.05" fill="none" stroke="#000" stroke-miterlimit="10" stroke-width="5"/><line x1="576.29" y1="476.95" x2="576.29" y2="524.84" fill="none" stroke="#000" stroke-miterlimit="10" stroke-width="5"/><line x1="623.45" y1="523.74" x2="575.92" y2="523.74" fill="none" stroke="#000" stroke-miterlimit="10" stroke-width="5"/><line x1="576.66" y1="587.84" x2="623.45" y2="587.84" fill="none" stroke="#000" stroke-miterlimit="10" stroke-width="5"/><line x1="623.45" y1="523.74" x2="623.45" y2="587.84" fill="none" stroke="#000" stroke-miterlimit="10" stroke-width="5"/><line x1="575.55" y1="588.21" x2="575.55" y2="636.11" fill="none" stroke="#000" stroke-miterlimit="10" stroke-width="5"/><line x1="559.71" y1="667.05" x2="624.02" y2="714.95" fill="none" stroke="#000" stroke-miterlimit="10" stroke-width="5"/><line x1="559.71" y1="762.84" x2="624.02" y2="714.95" fill="none" stroke="#000" stroke-miterlimit="10" stroke-width="5"/><circle cx="575.92" cy="294.58" r="8.11" fill="none" stroke="#000" stroke-miterlimit="10" stroke-width="5"/><line x1="416.76" y1="443.79" x2="416.76" y2="476.21" fill="none" stroke="#000" stroke-miterlimit="10" stroke-width="5"/><line x1="337.18" y1="284.26" x2="416.76" y2="443.42" fill="none" stroke="#000" stroke-miterlimit="10" stroke-width="5"/><line x1="289.66" y1="332.16" x2="289.66" y2="395.53" fill="none" stroke="#000" stroke-miterlimit="10" stroke-width="5"/><line x1="225.55" y1="332.53" x2="225.55" y2="395.89" fill="none" stroke="#000" stroke-miterlimit="10" stroke-width="5"/><line x1="290.03" y1="332.89" x2="226.66" y2="332.89" fill="none" stroke="#000" stroke-miterlimit="10" stroke-width="5"/><line x1="289.29" y1="396.26" x2="225.92" y2="396.26" fill="none" stroke="#000" stroke-miterlimit="10" stroke-width="5"/><line x1="416.76" y1="158" x2="416.76" y2="284.63" fill="none" stroke="#000" stroke-miterlimit="10" stroke-width="5"/><line x1="417.13" y1="794.53" x2="417.13" y2="921.41" fill="none" stroke="#000" stroke-miterlimit="10" stroke-width="5"/><line x1="177.66" y1="332.16" x2="177.66" y2="396.26" fill="none" stroke="#000" stroke-miterlimit="10" stroke-width="5"/><rect x="337.55" y="477.13" width="158.61" height="158.61" fill="none" stroke="#000" stroke-miterlimit="10" stroke-width="5"/><rect x="337.55" y="636.47" width="158.42" height="158.42" fill="none" stroke="#000" stroke-miterlimit="10" stroke-width="5"/><line x1="417.13" y1="475.84" x2="417.13" y2="523.74" fill="none" stroke="#000" stroke-miterlimit="10" stroke-width="5"/><line x1="464.29" y1="523.74" x2="417.13" y2="523.74" fill="none" stroke="#000" stroke-miterlimit="10" stroke-width="5"/><line x1="417.5" y1="587.84" x2="464.66" y2="587.84" fill="none" stroke="#000" stroke-miterlimit="10" stroke-width="5"/><line x1="464.29" y1="524.47" x2="464.29" y2="587.84" fill="none" stroke="#000" stroke-miterlimit="10" stroke-width="5"/><line x1="417.13" y1="588.21" x2="417.13" y2="636.11" fill="none" stroke="#000" stroke-miterlimit="10" stroke-width="5"/><line x1="369.24" y1="666.32" x2="369.24" y2="763.21" fill="none" stroke="#000" stroke-miterlimit="10" stroke-width="5"/><line x1="528.39" y1="667.05" x2="528.39" y2="763.95" fill="none" stroke="#000" stroke-miterlimit="10" stroke-width="5"/><line x1="735.08" y1="444.53" x2="735.08" y2="476.95" fill="none" stroke="#000" stroke-miterlimit="10" stroke-width="5"/><line x1="655.5" y1="285" x2="735.08" y2="444.16" fill="none" stroke="#000" stroke-miterlimit="10" stroke-width="5"/><line x1="735.08" y1="158.74" x2="735.08" y2="285.37" fill="none" stroke="#000" stroke-miterlimit="10" stroke-width="5"/><line x1="735.45" y1="795.12" x2="735.45" y2="922" fill="none" stroke="#000" stroke-miterlimit="10" stroke-width="5"/><rect x="655.68" y="477.13" width="158.61" height="158.61" fill="none" stroke="#000" stroke-miterlimit="10" stroke-width="5"/><rect x="656.42" y="636.47" width="158.05" height="158.05" fill="none" stroke="#000" stroke-miterlimit="10" stroke-width="5"/><line x1="735.45" y1="476.95" x2="735.45" y2="524.84" fill="none" stroke="#000" stroke-miterlimit="10" stroke-width="5"/><line x1="782.61" y1="523.74" x2="735.08" y2="523.74" fill="none" stroke="#000" stroke-miterlimit="10" stroke-width="5"/><line x1="735.82" y1="587.84" x2="782.61" y2="587.84" fill="none" stroke="#000" stroke-miterlimit="10" stroke-width="5"/><line x1="782.61" y1="523.74" x2="782.61" y2="587.84" fill="none" stroke="#000" stroke-miterlimit="10" stroke-width="5"/><line x1="734.71" y1="588.21" x2="734.71" y2="636.11" fill="none" stroke="#000" stroke-miterlimit="10" stroke-width="5"/><line x1="718.87" y1="667.05" x2="783.18" y2="714.95" fill="none" stroke="#000" stroke-miterlimit="10" stroke-width="5"/><line x1="718.87" y1="762.84" x2="783.18" y2="714.95" fill="none" stroke="#000" stroke-miterlimit="10" stroke-width="5"/><circle cx="735.08" cy="294.58" r="8.11" fill="none" stroke="#000" stroke-miterlimit="10" stroke-width="5"/><line x1="687.55" y1="667.05" x2="687.55" y2="763.95" fill="none" stroke="#000" stroke-miterlimit="10" stroke-width="5"/><line x1="894.24" y1="444.53" x2="894.24" y2="921.63" fill="none" stroke="#000" stroke-miterlimit="10" stroke-width="5"/><line x1="814.66" y1="285" x2="894.24" y2="444.16" fill="none" stroke="#000" stroke-miterlimit="10" stroke-width="5"/><line x1="894.24" y1="158.74" x2="894.24" y2="285.37" fill="none" stroke="#000" stroke-miterlimit="10" stroke-width="5"/><circle cx="894.24" cy="294.58" r="8.11" fill="none" stroke="#000" stroke-miterlimit="10" stroke-width="5"/><line x1="400.55" y1="667.05" x2="465.03" y2="714.95" fill="none" stroke="#000" stroke-miterlimit="10" stroke-width="5"/><line x1="400.55" y1="762.84" x2="465.03" y2="714.95" fill="none" stroke="#000" stroke-miterlimit="10" stroke-width="5"/><line x1="257.97" y1="332.89" x2="257.97" y2="396.26" fill="none" stroke="#000" stroke-miterlimit="10" stroke-width="5"/><line x1="225.55" y1="363.84" x2="289.66" y2="363.84" fill="none" stroke="#000" stroke-miterlimit="10" stroke-width="5"/><circle cx="416.76" cy="293.84" r="8.11" fill="none" stroke="#000" stroke-miterlimit="10" stroke-width="5"/><path d="m386.24,176.5v.05l1.49,2.76-1.64.42-1.86-3.47v-1.83h15.89v2.08h-13.89Z"/><path d="m400.13,905.58h-1.3l-1.61-1.66c-3.8-3.99-5.82-5.8-8.18-5.82-1.59,0-3.05.77-3.05,3.1,0,1.42.72,2.6,1.32,3.32l-1.49.67c-.91-1.08-1.59-2.62-1.59-4.42,0-3.37,2.31-4.79,4.54-4.79,2.89,0,5.22,2.09,8.39,5.39l1.15,1.25h.05v-7.02h1.76v9.98Z"/><path d="m556.42,183.46c.38-.59.97-1.96.97-3.41,0-2.67-1.7-3.5-2.98-3.48-2.15.02-3.07,1.96-3.07,3.97v1.16h-1.56v-1.16c0-1.51-.78-3.43-2.6-3.43-1.23,0-2.32.78-2.32,2.7,0,1.23.54,2.41,1.02,3.07l-1.51.54c-.59-.8-1.18-2.37-1.18-4.02,0-3.03,1.8-4.4,3.67-4.4,1.58,0,2.93.95,3.62,2.84h.05c.38-1.89,1.8-3.43,3.95-3.43,2.46,0,4.61,1.92,4.61,5.61,0,1.73-.54,3.24-1.04,4l-1.61-.57Z"/><path d="m559.07,898.19h-4.33v7.38h-1.42l-10.15-7.09v-2.32h9.88v-2.23h1.69v2.23h4.33v2.03Zm-6.02,0h-5.31c-.83,0-1.66-.02-2.49-.07v.07c.93.49,1.61.88,2.35,1.32l5.4,3.89h.05v-5.21Z"/><path d="m703.91,174.73v5.96l4.02.6c-.05-.36-.1-.7-.1-1.27,0-1.2.26-2.4.84-3.37.7-1.23,2.04-2.24,4.02-2.24,3.05,0,5.34,2.43,5.34,5.82,0,1.71-.48,3.15-.96,3.9l-1.61-.53c.39-.65.87-1.92.87-3.34,0-2-1.3-3.7-3.39-3.7-2.02.02-3.46,1.37-3.46,4.5,0,.89.1,1.59.17,2.16l-7.5-1.01v-7.48h1.78Z"/><path d="m703.83,896.53c-.02.43,0,.97.09,1.56.55,3.27,2.94,5,5.47,5.35v-.07c-.97-.73-1.78-2.01-1.78-3.72,0-2.72,1.97-4.64,4.97-4.64,2.82,0,5.42,1.92,5.42,5.12s-2.56,5.45-6.56,5.45c-3.03,0-5.42-1.09-6.94-2.61-1.26-1.28-2.04-2.98-2.27-4.93-.09-.62-.12-1.14-.12-1.52h1.71Zm8.88.59c-2.2,0-3.53,1.26-3.53,3.17,0,1.26.78,2.42,1.89,2.98.24.14.54.24.92.24,2.53-.05,4.41-1.21,4.41-3.39,0-1.8-1.49-3.01-3.7-3.01Z"/><path d="m876.99,186.37h-15.91v-2.24l8.05-5.1c1.87-1.18,3.54-2.1,5.17-2.86l-.02-.05c-2.13.19-4.06.24-6.54.24h-6.66v-1.94h15.91v2.08l-8.07,5.05c-1.77,1.11-3.59,2.17-5.31,2.97l.02.07c2.01-.12,3.92-.17,6.56-.17h6.8v1.94Z"/><path d="m876.97,905.58h-15.89v-2.24l8.04-5.09c1.86-1.18,3.54-2.1,5.16-2.85l-.02-.05c-2.12.19-4.06.24-6.53.24h-6.65v-1.93h15.89v2.07l-8.07,5.05c-1.77,1.11-3.58,2.17-5.31,2.97l.02.07c2-.12,3.91-.17,6.56-.17h6.79v1.93Z"/><line x1="289.66" y1="363.84" x2="295.66" y2="363.84" fill="none" stroke="#000" stroke-miterlimit="10" stroke-width="5"/><line x1="307.43" y1="363.84" x2="842.93" y2="363.84" fill="none" stroke="#000" stroke-dasharray="0 0 11.77 11.77" stroke-miterlimit="10" stroke-width="5"/><line x1="848.82" y1="363.84" x2="854.82" y2="363.84" fill="none" stroke="#000" stroke-miterlimit="10" stroke-width="5"/><line x1="257.97" y1="396.26" x2="257.97" y2="402.26" fill="none" stroke="#000" stroke-miterlimit="10" stroke-width="5"/><line x1="257.97" y1="414.52" x2="257.97" y2="702.45" fill="none" stroke="#000" stroke-dasharray="0 0 12.25 12.25" stroke-miterlimit="10" stroke-width="5"/><line x1="257.97" y1="708.58" x2="257.97" y2="714.58" fill="none" stroke="#000" stroke-miterlimit="10" stroke-width="5"/><line x1="227.03" y1="364.58" x2="221.03" y2="364.58" fill="none" stroke="#000" stroke-miterlimit="10" stroke-width="5"/><line x1="208.57" y1="364.58" x2="189.89" y2="364.58" fill="none" stroke="#000" stroke-dasharray="0 0 12.46 12.46" stroke-miterlimit="10" stroke-width="5"/><line x1="183.66" y1="364.58" x2="177.66" y2="364.58" fill="none" stroke="#000" stroke-miterlimit="10" stroke-width="5"/><line x1="257.97" y1="714.58" x2="263.97" y2="714.58" fill="none" stroke="#000" stroke-miterlimit="10" stroke-width="5"/><line x1="277.49" y1="714.58" x2="324.79" y2="714.58" fill="none" stroke="#000" stroke-dasharray="0 0 13.52 13.52" stroke-miterlimit="10" stroke-width="5"/><line x1="331.55" y1="714.58" x2="337.55" y2="714.58" fill="none" stroke="#000" stroke-miterlimit="10" stroke-width="5"/><line x1="257.97" y1="556.16" x2="263.97" y2="556.16" fill="none" stroke="#000" stroke-miterlimit="10" stroke-width="5"/><line x1="277.49" y1="556.16" x2="324.79" y2="556.16" fill="none" stroke="#000" stroke-dasharray="0 0 13.52 13.52" stroke-miterlimit="10" stroke-width="5"/><line x1="331.55" y1="556.16" x2="337.55" y2="556.16" fill="none" stroke="#000" stroke-miterlimit="10" stroke-width="5"/><rect id="Base" width="1080" height="1080" opacity="0"/></g></g></svg>