<?xml version="1.0" encoding="UTF-8"?><svg id="Capa_2" xmlns="http://www.w3.org/2000/svg" viewBox="0 0 1080 1080"><g id="Capa_1-2"><g id="Multifilar_-_Pulsador_N.C."><line x1="591.37" y1="666.94" x2="591.37" y2="922" fill="none" stroke="#000" stroke-miterlimit="10" stroke-width="5"/><line x1="336.31" y1="462.66" x2="336.31" y2="614.98" fill="none" stroke="#000" stroke-miterlimit="10" stroke-width="5"/><line x1="591.37" y1="158" x2="591.37" y2="411.88" fill="none" stroke="#000" stroke-miterlimit="10" stroke-width="5"/><line x1="336.31" y1="463.25" x2="387.08" y2="463.25" fill="none" stroke="#000" stroke-miterlimit="10" stroke-width="5"/><line x1="336.31" y1="615.57" x2="387.08" y2="615.57" fill="none" stroke="#000" stroke-miterlimit="10" stroke-width="5"/><line x1="591.96" y1="411.29" x2="743.69" y2="411.29" fill="none" stroke="#000" stroke-miterlimit="10" stroke-width="5"/><line x1="336.31" y1="539.68" x2="342.31" y2="539.68" fill="none" stroke="#000" stroke-miterlimit="10" stroke-width="5"/><line x1="354.6" y1="539.67" x2="643.63" y2="539.38" fill="none" stroke="#000" stroke-dasharray="0 0 12.3 12.3" stroke-miterlimit="10" stroke-width="5"/><line x1="649.77" y1="539.37" x2="655.77" y2="539.36" fill="none" stroke="#000" stroke-miterlimit="10" stroke-width="5"/><line x1="743.69" y1="360.51" x2="591.37" y2="666.35" fill="none" stroke="#000" stroke-miterlimit="10" stroke-width="5"/><path d="m543.21,186.8v.08l2.39,4.43-2.62.67-2.98-5.56v-2.94h25.47v3.33h-22.25Z"/><path d="m565.47,896.53h-2.08l-2.58-2.66c-6.09-6.4-9.32-9.29-13.1-9.32-2.54,0-4.89,1.23-4.89,4.97,0,2.27,1.16,4.16,2.12,5.32l-2.39,1.08c-1.46-1.73-2.54-4.2-2.54-7.09,0-5.39,3.7-7.67,7.28-7.67,4.62,0,8.36,3.35,13.45,8.63l1.85,2h.08v-11.25h2.81v15.99Z"/><rect id="Base" width="1080" height="1080" opacity="0"/></g></g></svg>