<?xml version="1.0" encoding="UTF-8"?><svg id="Capa_2" xmlns="http://www.w3.org/2000/svg" viewBox="0 0 1080 1080"><g id="Capa_1-2"><g id="Multifilar_-_Interruptor_magnetotérmico_bipolar_PIA_-_2"><line x1="515.2" y1="158" x2="515.2" y2="412.85" fill="none" stroke="#000" stroke-miterlimit="10" stroke-width="5"/><line x1="515.2" y1="667.12" x2="515.2" y2="922" fill="none" stroke="#000" stroke-miterlimit="10" stroke-width="5"/><line x1="388.33" y1="412.85" x2="515.2" y2="667.3" fill="none" stroke="#000" stroke-miterlimit="10" stroke-width="5"/><line x1="431.05" y1="494.3" x2="314.3" y2="552.81" fill="none" stroke="#000" stroke-miterlimit="10" stroke-width="5"/><line x1="387.57" y1="629.05" x2="341.39" y2="652.2" fill="none" stroke="#000" stroke-miterlimit="10" stroke-width="5"/><polygon points="296.14 561.91 397.61 538.97 375.24 494.35 296.14 561.91"/><line x1="409.16" y1="673.42" x2="387.31" y2="629.83" fill="none" stroke="#000" stroke-miterlimit="10" stroke-width="5"/><line x1="453.52" y1="651.83" x2="409.93" y2="673.68" fill="none" stroke="#000" stroke-miterlimit="10" stroke-width="5"/><line x1="431.68" y1="608.25" x2="453.52" y2="651.83" fill="none" stroke="#000" stroke-miterlimit="10" stroke-width="5"/><line x1="476.82" y1="584.32" x2="431.16" y2="607.21" fill="none" stroke="#000" stroke-miterlimit="10" stroke-width="5"/><line x1="642.55" y1="412.85" x2="770.7" y2="667.3" fill="none" stroke="#000" stroke-miterlimit="10" stroke-width="5"/><line x1="685.27" y1="494.3" x2="568.52" y2="552.81" fill="none" stroke="#000" stroke-miterlimit="10" stroke-width="5"/><line x1="641.79" y1="629.05" x2="595.61" y2="652.2" fill="none" stroke="#000" stroke-miterlimit="10" stroke-width="5"/><polygon points="550.36 561.91 651.83 538.97 629.47 494.35 550.36 561.91"/><line x1="663.38" y1="673.42" x2="641.53" y2="629.83" fill="none" stroke="#000" stroke-miterlimit="10" stroke-width="5"/><line x1="707.74" y1="651.83" x2="664.16" y2="673.68" fill="none" stroke="#000" stroke-miterlimit="10" stroke-width="5"/><line x1="685.9" y1="608.25" x2="707.74" y2="651.83" fill="none" stroke="#000" stroke-miterlimit="10" stroke-width="5"/><line x1="731.04" y1="584.32" x2="685.38" y2="607.21" fill="none" stroke="#000" stroke-miterlimit="10" stroke-width="5"/><circle cx="514.99" cy="425.47" r="13.1" fill="none" stroke="#000" stroke-miterlimit="10" stroke-width="5"/><line x1="770.42" y1="158" x2="770.42" y2="412.85" fill="none" stroke="#000" stroke-miterlimit="10" stroke-width="5"/><line x1="770.7" y1="667.12" x2="770.7" y2="922" fill="none" stroke="#000" stroke-miterlimit="10" stroke-width="5"/><circle cx="770.42" cy="425.47" r="13.44" fill="none" stroke="#000" stroke-miterlimit="10" stroke-width="5"/><path d="m467.53,186.39v.08l2.39,4.43-2.63.67-2.98-5.57v-2.94h25.48v3.33h-22.27Z"/><path d="m489.79,896.52h-2.08l-2.58-2.66c-6.09-6.4-9.33-9.29-13.11-9.33-2.54,0-4.9,1.23-4.9,4.97,0,2.27,1.16,4.16,2.12,5.32l-2.39,1.08c-1.46-1.73-2.54-4.2-2.54-7.09,0-5.4,3.7-7.67,7.29-7.67,4.63,0,8.37,3.35,13.45,8.63l1.85,2h.08v-11.26h2.81v16Z"/><path d="m740.36,197.52c.61-.95,1.55-3.14,1.55-5.46,0-4.28-2.73-5.61-4.77-5.57-3.45.04-4.93,3.14-4.93,6.36v1.86h-2.5v-1.86c0-2.42-1.25-5.49-4.17-5.49-1.97,0-3.71,1.25-3.71,4.32,0,1.97.87,3.86,1.63,4.92l-2.42.87c-.95-1.29-1.89-3.79-1.89-6.44,0-4.85,2.88-7.05,5.87-7.05,2.54,0,4.7,1.52,5.8,4.55h.08c.61-3.03,2.88-5.49,6.33-5.49,3.94,0,7.39,3.07,7.39,8.98,0,2.77-.87,5.19-1.67,6.4l-2.58-.91Z"/><path d="m744.6,884.68h-6.94v11.84h-2.27l-16.27-11.37v-3.72h15.84v-3.57h2.7v3.57h6.94v3.25Zm-9.64,0h-8.51c-1.33,0-2.67-.04-4-.12v.12c1.49.78,2.59,1.41,3.76,2.12l8.66,6.23h.08v-8.35Z"/><line x1="453.79" y1="539.21" x2="459.79" y2="539.21" fill="none" stroke="#000" stroke-miterlimit="10" stroke-width="5"/><line x1="471.33" y1="539.21" x2="696.25" y2="539.21" fill="none" stroke="#000" stroke-dasharray="0 0 11.53 11.53" stroke-miterlimit="10" stroke-width="5"/><line x1="702.02" y1="539.21" x2="708.02" y2="539.21" fill="none" stroke="#000" stroke-miterlimit="10" stroke-width="5"/><rect id="Base" width="1080" height="1080" opacity="0"/></g></g></svg>