<?xml version="1.0" encoding="UTF-8"?><svg id="Capa_2" xmlns="http://www.w3.org/2000/svg" viewBox="0 0 1080 1080"><g id="Capa_1-2"><g id="Multifilar_-_Contacto_auxiliar_conmutado_de_relé_térmico_1"><line x1="540.44" y1="731.76" x2="540.44" y2="921.08" fill="none" stroke="#000" stroke-miterlimit="10" stroke-width="5"/><line x1="922" y1="731.76" x2="922" y2="921.08" fill="none" stroke="#000" stroke-miterlimit="10" stroke-width="5"/><line x1="731.48" y1="349.22" x2="580.5" y2="808.07" fill="none" stroke="#000" stroke-miterlimit="10" stroke-width="5"/><line x1="273.42" y1="387.14" x2="273.42" y2="539.68" fill="none" stroke="#000" stroke-miterlimit="10" stroke-width="5"/><line x1="426.05" y1="387.14" x2="273.42" y2="387.14" fill="none" stroke="#000" stroke-miterlimit="10" stroke-width="5"/><line x1="426.05" y1="539.68" x2="426.05" y2="387.14" fill="none" stroke="#000" stroke-miterlimit="10" stroke-width="5"/><line x1="158" y1="539.68" x2="273.42" y2="539.68" fill="none" stroke="#000" stroke-miterlimit="10" stroke-width="5"/><line x1="668.34" y1="539.68" x2="426.05" y2="539.68" fill="none" stroke="#000" stroke-miterlimit="10" stroke-width="5"/><line x1="731.48" y1="158.92" x2="731.48" y2="349.22" fill="none" stroke="#000" stroke-miterlimit="10" stroke-width="5"/><line x1="540.51" y1="731.26" x2="654.98" y2="731.26" fill="none" stroke="#000" stroke-miterlimit="10" stroke-width="5"/><line x1="921.12" y1="732.21" x2="806.65" y2="732.21" fill="none" stroke="#000" stroke-miterlimit="10" stroke-width="5"/><path d="m879.56,880.78c.11-1.07,0-2.31-.17-4.01-.39-2.88-1.58-5.59-3.55-7.67-2.2-2.43-5.42-4.17-9.76-4.85v.17c2.48,2.03,3.95,4.97,3.95,8.63,0,6.6-4.97,10.83-11.23,10.83-6.94,0-13.03-5.02-13.03-12.53s6.09-12.13,15.46-12.13c8.07,0,13.71,2.71,17.21,6.32,2.76,2.82,4.46,6.71,4.91,10.66.28,1.81.34,3.39.28,4.57h-4.06Zm-21.1-1.81c4.57,0,7.79-2.76,7.79-7.05,0-3.33-1.64-5.93-3.84-7.22-.45-.28-1.02-.45-1.81-.45-6.26,0-11.06,2.31-11.06,7.5,0,4.23,3.72,7.22,8.91,7.22Z"/><path d="m873.75,855.16c-4.63,0-7.9-2.76-9.82-7.28l-.17.06c-1.92,4.06-5.08,5.81-8.24,5.81-5.81,0-9.76-4.91-9.76-11.34,0-7.11,4.46-10.66,9.03-10.66,3.1,0,6.43,1.52,8.58,6.04h.17c1.81-4.57,5.02-7.39,9.48-7.39,6.38,0,10.66,5.47,10.66,12.47,0,7.67-4.57,12.3-9.93,12.3Zm-18.56-6.09c3.67,0,5.64-2.76,6.77-7-1.07-3.16-3.33-5.59-6.66-5.59-2.93,0-5.98,1.75-5.98,6.21,0,4.12,2.71,6.38,5.87,6.38Zm18.34-13.66c-4.46,0-6.6,3.1-8.01,8.07,1.24,4.29,4.06,6.6,7.56,6.6,3.72.17,7-2.65,7-7.34s-2.76-7.33-6.55-7.33Z"/><path d="m498.21,880.42c.11-1.08,0-2.33-.17-4.03-.4-2.9-1.59-5.62-3.58-7.72-2.21-2.44-5.45-4.2-9.82-4.88v.17c2.5,2.04,3.97,5,3.97,8.69,0,6.64-5,10.9-11.3,10.9-6.98,0-13.12-5.05-13.12-12.61s6.13-12.21,15.56-12.21c8.12,0,13.8,2.73,17.32,6.36,2.78,2.84,4.49,6.76,4.94,10.73.28,1.82.34,3.41.28,4.6h-4.09Zm-21.24-1.82c4.6,0,7.84-2.78,7.84-7.1,0-3.35-1.65-5.96-3.86-7.27-.45-.28-1.02-.45-1.82-.45-6.3,0-11.13,2.33-11.13,7.55,0,4.26,3.75,7.27,8.97,7.27Z"/><path d="m468.35,833.12c-.06,1.02,0,2.33.23,3.75,1.31,7.84,7.04,11.98,13.12,12.83v-.17c-2.33-1.76-4.26-4.83-4.26-8.91,0-6.53,4.71-11.13,11.92-11.13,6.76,0,13,4.6,13,12.26s-6.13,13.06-15.73,13.06c-7.27,0-13-2.61-16.64-6.25-3.01-3.07-4.88-7.15-5.45-11.81-.23-1.48-.28-2.73-.28-3.63h4.09Zm21.29,1.42c-5.28,0-8.46,3.01-8.46,7.61,0,3.01,1.87,5.79,4.54,7.15.57.34,1.31.57,2.21.57,6.08-.11,10.56-2.9,10.56-8.12,0-4.31-3.58-7.21-8.86-7.21Z"/><path d="m688.84,245.86c.11-1.07,0-2.32-.17-4.01-.4-2.88-1.58-5.6-3.56-7.69-2.2-2.43-5.43-4.18-9.78-4.86v.17c2.49,2.03,3.96,4.97,3.96,8.65,0,6.61-4.97,10.85-11.25,10.85-6.95,0-13.06-5.03-13.06-12.55s6.11-12.15,15.49-12.15c8.08,0,13.74,2.71,17.24,6.33,2.77,2.83,4.47,6.73,4.92,10.68.28,1.81.34,3.39.28,4.58h-4.07Zm-21.14-1.81c4.58,0,7.8-2.77,7.8-7.07,0-3.34-1.64-5.94-3.84-7.24-.45-.28-1.02-.45-1.81-.45-6.27,0-11.08,2.32-11.08,7.52,0,4.24,3.73,7.24,8.93,7.24Z"/><path d="m659.79,197.81v14.02l9.44,1.41c-.11-.85-.23-1.64-.23-3,0-2.83.62-5.65,1.98-7.91,1.64-2.88,4.81-5.26,9.44-5.26,7.18,0,12.55,5.71,12.55,13.68,0,4.01-1.13,7.41-2.26,9.16l-3.79-1.24c.9-1.53,2.04-4.52,2.04-7.86,0-4.69-3.05-8.71-7.97-8.71-4.75.06-8.14,3.22-8.14,10.57,0,2.09.23,3.73.4,5.09l-17.64-2.37v-17.58h4.18Z"/><rect id="Base" width="1080" height="1080" opacity="0"/></g></g></svg>