<?xml version="1.0" encoding="UTF-8"?><svg id="Capa_2" xmlns="http://www.w3.org/2000/svg" viewBox="0 0 1080 1080"><g id="Capa_1-2"><g id="Multifilar_-_Resistencia_variable_Potenciómetro_ANSI_-_1"><line x1="158" y1="539.6" x2="349.44" y2="539.6" fill="none" stroke="#000" stroke-miterlimit="10" stroke-width="5"/><line x1="730.56" y1="539.6" x2="922" y2="539.6" fill="none" stroke="#000" stroke-miterlimit="10" stroke-width="5"/><line x1="347.67" y1="500.6" x2="347.67" y2="578.6" fill="none" stroke="#000" stroke-miterlimit="10" stroke-width="5"/><line x1="425.54" y1="578.47" x2="347.67" y2="500.6" fill="none" stroke="#000" stroke-miterlimit="10" stroke-width="5"/><line x1="423.89" y1="501.24" x2="423.89" y2="579.24" fill="none" stroke="#000" stroke-miterlimit="10" stroke-width="5"/><line x1="501.77" y1="579.11" x2="423.89" y2="501.24" fill="none" stroke="#000" stroke-miterlimit="10" stroke-width="5"/><line x1="501.89" y1="501.24" x2="501.89" y2="579.24" fill="none" stroke="#000" stroke-miterlimit="10" stroke-width="5"/><line x1="579.76" y1="579.11" x2="501.89" y2="501.24" fill="none" stroke="#000" stroke-miterlimit="10" stroke-width="5"/><line x1="578.11" y1="501.24" x2="578.11" y2="579.24" fill="none" stroke="#000" stroke-miterlimit="10" stroke-width="5"/><line x1="730.56" y1="501.24" x2="730.56" y2="579.24" fill="none" stroke="#000" stroke-miterlimit="10" stroke-width="5"/><line x1="655.98" y1="579.11" x2="578.11" y2="501.24" fill="none" stroke="#000" stroke-miterlimit="10" stroke-width="5"/><line x1="654.33" y1="501.24" x2="654.33" y2="579.24" fill="none" stroke="#000" stroke-miterlimit="10" stroke-width="5"/><line x1="732.21" y1="579.11" x2="654.33" y2="501.24" fill="none" stroke="#000" stroke-miterlimit="10" stroke-width="5"/><line x1="349.14" y1="730.49" x2="693.03" y2="386.6" fill="none" stroke="#000" stroke-miterlimit="10" stroke-width="5"/><polygon points="730.39 349.51 649.07 377.24 702.66 430.83 730.39 349.51"/><rect id="Base" width="1080" height="1080" opacity="0"/></g></g></svg>