<?xml version="1.0" encoding="UTF-8"?><svg id="Capa_2" xmlns="http://www.w3.org/2000/svg" viewBox="0 0 1080 1080"><g id="Capa_1-2"><g id="Multifilar_-_Pulsadores_de_Persianas"><line x1="553.42" y1="514.89" x2="553.42" y2="634.87" fill="none" stroke="#000" stroke-miterlimit="10" stroke-width="5"/><line x1="288.82" y1="325.24" x2="338.33" y2="325.24" fill="none" stroke="#000" stroke-miterlimit="10" stroke-width="5"/><line x1="288.82" y1="467.89" x2="338.33" y2="467.89" fill="none" stroke="#000" stroke-miterlimit="10" stroke-width="5"/><line x1="433.99" y1="277.13" x2="553.42" y2="516" fill="none" stroke="#000" stroke-miterlimit="10" stroke-width="5"/><line x1="553.42" y1="158.55" x2="553.42" y2="277.13" fill="none" stroke="#000" stroke-miterlimit="10" stroke-width="5"/><line x1="290.23" y1="635.98" x2="290.23" y2="778.63" fill="none" stroke="#000" stroke-miterlimit="10" stroke-width="5"/><line x1="290.23" y1="707.31" x2="296.23" y2="707.31" fill="none" stroke="#000" stroke-miterlimit="10" stroke-width="5"/><line x1="308.18" y1="707.31" x2="612.77" y2="707.31" fill="none" stroke="#000" stroke-dasharray="0 0 11.95 11.95" stroke-miterlimit="10" stroke-width="5"/><line x1="618.75" y1="707.31" x2="624.75" y2="707.31" fill="none" stroke="#000" stroke-miterlimit="10" stroke-width="5"/><line x1="290.23" y1="325.24" x2="290.23" y2="467.89" fill="none" stroke="#000" stroke-miterlimit="10" stroke-width="5"/><line x1="290.23" y1="396.56" x2="296.23" y2="396.56" fill="none" stroke="#000" stroke-miterlimit="10" stroke-width="5"/><line x1="307.53" y1="396.56" x2="482.61" y2="396.56" fill="none" stroke="#000" stroke-dasharray="0 0 11.3 11.3" stroke-miterlimit="10" stroke-width="5"/><line x1="488.26" y1="396.56" x2="494.26" y2="396.56" fill="none" stroke="#000" stroke-miterlimit="10" stroke-width="5"/><line x1="672.85" y1="802.41" x2="672.85" y2="922" fill="none" stroke="#000" stroke-miterlimit="10" stroke-width="5"/><line x1="791.18" y1="634.87" x2="791.18" y2="158" fill="none" stroke="#000" stroke-miterlimit="10" stroke-width="5"/><line x1="553.42" y1="634.87" x2="624.19" y2="634.87" fill="none" stroke="#000" stroke-miterlimit="10" stroke-width="5"/><line x1="720.4" y1="634.87" x2="791.18" y2="634.87" fill="none" stroke="#000" stroke-miterlimit="10" stroke-width="5"/><line x1="288.82" y1="634.87" x2="338.33" y2="634.87" fill="none" stroke="#000" stroke-miterlimit="10" stroke-width="5"/><line x1="288.82" y1="778.63" x2="338.33" y2="778.63" fill="none" stroke="#000" stroke-miterlimit="10" stroke-width="5"/><line x1="577.75" y1="610.54" x2="672.85" y2="804.07" fill="none" stroke="#000" stroke-miterlimit="10" stroke-width="5"/><rect id="Base" width="1080" height="1080" opacity="0"/></g></g></svg>