<?xml version="1.0" encoding="UTF-8"?><svg id="Capa_2" xmlns="http://www.w3.org/2000/svg" viewBox="0 0 1080 1080"><g id="Capa_1-2"><g id="Multifilar_-_Dispositivo_de_seguridad_con_llave"><path d="m341.13,509.4c0-16.97-13.76-30.73-30.73-30.73s-30.73,13.76-30.73,30.73c0,8.2,3.22,15.65,8.46,21.16l-8.46,70.27h61.46l-9.03-69.67c5.58-5.56,9.03-13.26,9.03-21.76Z"/><line x1="647.16" y1="387.82" x2="767.66" y2="661.59" fill="none" stroke="#000" stroke-miterlimit="10" stroke-width="5"/><line x1="616.04" y1="233.61" x2="616.04" y2="417.64" fill="none" stroke="#000" stroke-miterlimit="10" stroke-width="5"/><line x1="677.7" y1="417" x2="616.04" y2="417" fill="none" stroke="#000" stroke-miterlimit="10" stroke-width="5"/><line x1="859.4" y1="417" x2="922" y2="417" fill="none" stroke="#000" stroke-miterlimit="10" stroke-width="5"/><line x1="921.45" y1="235.13" x2="921.45" y2="416.9" fill="none" stroke="#000" stroke-miterlimit="10" stroke-width="5"/><line x1="767.66" y1="661.59" x2="767.34" y2="846.39" fill="none" stroke="#000" stroke-miterlimit="10" stroke-width="5"/><rect x="158" y="387.71" width="304.73" height="304.73" fill="none" stroke="#000" stroke-miterlimit="10" stroke-width="5"/><path d="m711.32,808.39v.09l2.87,5.31-3.15.8-3.57-6.67v-3.52h30.54v3.99h-26.69Z"/><path d="m711.32,784.29v.09l2.87,5.31-3.15.8-3.57-6.67v-3.52h30.54v3.99h-26.69Z"/><path d="m559.08,298.96v.09l2.82,5.22-3.1.79-3.51-6.56v-3.47h30.03v3.93h-26.24Z"/><path d="m585.32,284.08h-2.5l-3.1-3.19c-7.3-7.67-11.18-11.13-15.71-11.18-3.05,0-5.87,1.48-5.87,5.96,0,2.73,1.39,4.99,2.54,6.38l-2.87,1.29c-1.76-2.08-3.05-5.04-3.05-8.5,0-6.47,4.44-9.19,8.73-9.19,5.54,0,10.02,4.02,16.12,10.35l2.22,2.4h.09v-13.49h3.37v19.17Z"/><path d="m864.01,300.99v.09l2.87,5.31-3.15.8-3.57-6.67v-3.52h30.54v3.99h-26.69Z"/><path d="m890.7,273.08h-8.32v14.19h-2.73l-19.5-13.63v-4.46h18.98v-4.28h3.24v4.28h8.32v3.9Zm-11.56,0h-10.19c-1.6,0-3.2-.05-4.79-.14v.14c1.79.94,3.1,1.69,4.51,2.54l10.38,7.47h.09v-10.01Z"/><line x1="309.41" y1="387.82" x2="309.41" y2="234.37" fill="none" stroke="#000" stroke-miterlimit="10" stroke-width="5"/><line x1="310.81" y1="693.21" x2="310.81" y2="844.92" fill="none" stroke="#000" stroke-miterlimit="10" stroke-width="5"/><path d="m270.22,298.92l9.56,3.16v4.06l-30.38-10.32v-4.73l30.38-10.37v4.19l-9.56,3.25v10.77Zm-3.07-9.96l-8.74,2.97c-1.98.68-3.79,1.13-5.54,1.58v.09c1.8.45,3.65.95,5.5,1.53l8.79,2.97v-9.15Z"/><path d="m254.18,269.04v.09l2.75,5.09-3.02.77-3.43-6.4v-3.38h29.3v3.83h-25.6Z"/><path d="m270.29,807.36l9.58,3.16v4.07l-30.47-10.35v-4.75l30.47-10.4v4.2l-9.58,3.26v10.81Zm-3.07-9.99l-8.77,2.98c-1.99.68-3.8,1.13-5.56,1.58v.09c1.81.45,3.66.95,5.52,1.54l8.82,2.98v-9.18Z"/><path d="m279.87,786.02h-2.44l-3.03-3.12c-7.14-7.51-10.94-10.9-15.37-10.94-2.98,0-5.74,1.45-5.74,5.83,0,2.67,1.36,4.88,2.49,6.24l-2.8,1.27c-1.72-2.03-2.98-4.93-2.98-8.32,0-6.33,4.34-9,8.54-9,5.43,0,9.81,3.93,15.78,10.13l2.17,2.35h.09v-13.2h3.3v18.76Z"/><line x1="462.35" y1="539.43" x2="468.35" y2="539.43" fill="none" stroke="#000" stroke-miterlimit="10" stroke-width="5"/><line x1="480.94" y1="539.43" x2="701.28" y2="539.43" fill="none" stroke="#000" stroke-dasharray="0 0 12.59 12.59" stroke-miterlimit="10" stroke-width="5"/><line x1="707.58" y1="539.43" x2="713.58" y2="539.43" fill="none" stroke="#000" stroke-miterlimit="10" stroke-width="5"/><rect id="Base" width="1080" height="1080" opacity="0"/></g></g></svg>