<?xml version="1.0" encoding="UTF-8"?><svg id="Capa_2" xmlns="http://www.w3.org/2000/svg" viewBox="0 0 1080 1080"><g id="Capa_1-2"><g id="Multifilar_-_Protector_bipolar_F_N_contra_sobretensiones_combinado"><circle cx="540.23" cy="391.81" r="5.85"/><circle cx="425.35" cy="448.72" r="5.85"/><circle cx="655.12" cy="793.91" r="5.85"/><line x1="424.91" y1="332.95" x2="425.61" y2="506.56" fill="none" stroke="#000" stroke-miterlimit="10" stroke-width="5"/><line x1="655.39" y1="448.99" x2="655.39" y2="621.31" fill="none" stroke="#000" stroke-miterlimit="10" stroke-width="5"/><line x1="655.38" y1="449.25" x2="425.08" y2="449.25" fill="none" stroke="#000" stroke-miterlimit="10" stroke-width="5"/><line x1="770.27" y1="391.81" x2="539.97" y2="391.81" fill="none" stroke="#000" stroke-miterlimit="10" stroke-width="5"/><line x1="769.74" y1="793.91" x2="654.85" y2="793.91" fill="none" stroke="#000" stroke-miterlimit="10" stroke-width="5"/><line x1="366.95" y1="218.09" x2="424.91" y2="332.95" fill="none" stroke="#000" stroke-miterlimit="10" stroke-width="5"/><line x1="332.91" y1="252.25" x2="332.91" y2="298.77" fill="none" stroke="#000" stroke-miterlimit="10" stroke-width="5"/><line x1="286.57" y1="252.25" x2="286.57" y2="298.77" fill="none" stroke="#000" stroke-miterlimit="10" stroke-width="5"/><line x1="332.91" y1="252.25" x2="286.57" y2="252.25" fill="none" stroke="#000" stroke-miterlimit="10" stroke-width="5"/><line x1="332.91" y1="298.77" x2="286.57" y2="298.77" fill="none" stroke="#000" stroke-miterlimit="10" stroke-width="5"/><line x1="425.06" y1="160" x2="425.06" y2="218.09" fill="none" stroke="#000" stroke-miterlimit="10" stroke-width="5"/><line x1="655.12" y1="736.2" x2="655.12" y2="920" fill="none" stroke="#000" stroke-miterlimit="10" stroke-width="5"/><line x1="426.15" y1="851.62" x2="426.15" y2="920" fill="none" stroke="#000" stroke-miterlimit="10" stroke-width="5"/><line x1="539.97" y1="851.62" x2="539.97" y2="920" fill="none" stroke="#000" stroke-miterlimit="10" stroke-width="5"/><line x1="252.22" y1="252.43" x2="252.22" y2="298.7" fill="none" stroke="#000" stroke-miterlimit="10" stroke-width="5"/><rect x="368.17" y="736.68" width="114.49" height="114.45" fill="none" stroke="#000" stroke-miterlimit="10" stroke-width="5"/><line x1="437.05" y1="759.34" x2="460.19" y2="793.91" fill="none" stroke="#000" stroke-miterlimit="10" stroke-width="5"/><line x1="437.05" y1="828.48" x2="460.19" y2="793.91" fill="none" stroke="#000" stroke-miterlimit="10" stroke-width="5"/><line x1="309.5" y1="252.43" x2="309.5" y2="298.7" fill="none" stroke="#000" stroke-miterlimit="10" stroke-width="5"/><line x1="286.79" y1="275.57" x2="333.07" y2="275.57" fill="none" stroke="#000" stroke-miterlimit="10" stroke-width="5"/><circle cx="425.06" cy="223.83" r="5.85" fill="none" stroke="#000" stroke-miterlimit="10" stroke-width="5"/><line x1="540.23" y1="332.95" x2="540.23" y2="736.73" fill="none" stroke="#000" stroke-miterlimit="10" stroke-width="5"/><line x1="482.7" y1="218.09" x2="540.23" y2="332.95" fill="none" stroke="#000" stroke-miterlimit="10" stroke-width="5"/><line x1="540.23" y1="160" x2="540.23" y2="218.09" fill="none" stroke="#000" stroke-miterlimit="10" stroke-width="5"/><circle cx="540.23" cy="223.83" r="5.85" fill="none" stroke="#000" stroke-miterlimit="10" stroke-width="5"/><path d="m413.91,816.51c0,6.46-5.24,11.7-11.7,11.7s-11.7-5.24-11.7-11.7" fill="none" stroke="#000" stroke-miterlimit="10" stroke-width="5"/><line x1="390.51" y1="759.07" x2="390.51" y2="816.51" fill="none" stroke="#000" stroke-miterlimit="10" stroke-width="5"/><line x1="413.91" y1="759.07" x2="413.91" y2="817.58" fill="none" stroke="#000" stroke-miterlimit="10" stroke-width="5"/><rect x="483.06" y="736.68" width="114.49" height="114.45" fill="none" stroke="#000" stroke-miterlimit="10" stroke-width="5"/><line x1="551.93" y1="759.34" x2="575.07" y2="793.91" fill="none" stroke="#000" stroke-miterlimit="10" stroke-width="5"/><line x1="551.93" y1="828.48" x2="575.07" y2="793.91" fill="none" stroke="#000" stroke-miterlimit="10" stroke-width="5"/><path d="m528.8,816.51c0,6.46-5.24,11.7-11.7,11.7s-11.7-5.24-11.7-11.7" fill="none" stroke="#000" stroke-miterlimit="10" stroke-width="5"/><line x1="505.39" y1="759.07" x2="505.39" y2="816.51" fill="none" stroke="#000" stroke-miterlimit="10" stroke-width="5"/><line x1="528.8" y1="759.07" x2="528.8" y2="817.58" fill="none" stroke="#000" stroke-miterlimit="10" stroke-width="5"/><rect x="368.17" y="506.56" width="114.49" height="114.75" fill="none" stroke="#000" stroke-miterlimit="10" stroke-width="5"/><rect x="368.17" y="621.84" width="114.35" height="114.35" fill="none" stroke="#000" stroke-miterlimit="10" stroke-width="5"/><line x1="425.61" y1="506.56" x2="425.61" y2="540.47" fill="none" stroke="#000" stroke-miterlimit="10" stroke-width="5"/><line x1="459.65" y1="540.47" x2="425.61" y2="540.47" fill="none" stroke="#000" stroke-miterlimit="10" stroke-width="5"/><line x1="425.88" y1="586.74" x2="459.92" y2="586.74" fill="none" stroke="#000" stroke-miterlimit="10" stroke-width="5"/><line x1="459.65" y1="541" x2="459.65" y2="586.74" fill="none" stroke="#000" stroke-miterlimit="10" stroke-width="5"/><line x1="425.61" y1="587.01" x2="425.61" y2="621.58" fill="none" stroke="#000" stroke-miterlimit="10" stroke-width="5"/><line x1="391.04" y1="643.39" x2="391.04" y2="713.33" fill="none" stroke="#000" stroke-miterlimit="10" stroke-width="5"/><line x1="413.65" y1="643.92" x2="460.19" y2="678.49" fill="none" stroke="#000" stroke-miterlimit="10" stroke-width="5"/><line x1="413.65" y1="713.06" x2="460.19" y2="678.49" fill="none" stroke="#000" stroke-miterlimit="10" stroke-width="5"/><rect x="597.41" y="506.56" width="115.48" height="344.56" fill="none" stroke="#000" stroke-miterlimit="10" stroke-width="5"/><polygon points="655.33 690.19 632.51 735.93 678.15 735.93 655.33 690.19"/><polygon points="655.33 667.32 678.15 621.58 632.51 621.58 655.33 667.32"/><line x1="770.27" y1="391.54" x2="770.27" y2="621.31" fill="none" stroke="#000" stroke-miterlimit="10" stroke-width="5"/><line x1="770" y1="736.2" x2="770" y2="793.64" fill="none" stroke="#000" stroke-miterlimit="10" stroke-width="5"/><rect x="712.29" y="506.56" width="115.48" height="344.56" fill="none" stroke="#000" stroke-miterlimit="10" stroke-width="5"/><polygon points="770.22 690.19 747.4 735.93 793.03 735.93 770.22 690.19"/><polygon points="770.22 667.32 793.03 621.58 747.4 621.58 770.22 667.32"/><path d="m632.36,908.85c-.12-.71-.22-1.65-.22-2.83,0-1.46.34-2.53.95-3.21.54-.63,1.37-1,2.39-1s1.85.31,2.44.88c.83.78,1.26,2.05,1.26,3.49,0,.44-.02.85-.1,1.19h4.58v1.48h-11.3Zm5.51-1.48c.08-.32.12-.73.12-1.22,0-1.78-.87-2.87-2.44-2.87s-2.24,1.07-2.24,2.7c0,.64.05,1.14.12,1.39h4.44Z"/><path d="m638.3,893.9v4.44h4.12v-4.95h1.24v6.43h-11.43v-6.17h1.24v4.7h3.61v-4.44h1.22Z"/><path d="m403.24,173.24v.04l1.08,2-1.19.3-1.35-2.52v-1.33h11.52v1.51h-10.06Z"/><path d="m413.31,908.85h-.94l-1.17-1.2c-2.75-2.89-4.22-4.2-5.92-4.22-1.15,0-2.21.56-2.21,2.25,0,1.03.52,1.88.96,2.4l-1.08.49c-.66-.78-1.15-1.9-1.15-3.21,0-2.44,1.67-3.47,3.29-3.47,2.09,0,3.78,1.52,6.08,3.9l.84.91h.03v-5.09h1.27v7.23Z"/><path d="m528.48,908.85h-11.51v-1.62l5.82-3.69c1.35-.85,2.56-1.52,3.74-2.07l-.02-.03c-1.54.14-2.94.17-4.73.17h-4.81v-1.4h11.51v1.5l-5.84,3.65c-1.28.8-2.59,1.57-3.84,2.15l.02.05c1.45-.09,2.83-.12,4.75-.12h4.92v1.4Z"/><path d="m528.48,180.38h-11.52v-1.62l5.83-3.69c1.35-.85,2.56-1.52,3.74-2.07l-.02-.03c-1.54.14-2.94.17-4.73.17h-4.82v-1.4h11.52v1.5l-5.84,3.66c-1.28.8-2.6,1.57-3.84,2.15l.02.05c1.45-.09,2.84-.12,4.75-.12h4.92v1.4Z"/><line x1="252.49" y1="275.57" x2="258.49" y2="275.57" fill="none" stroke="#000" stroke-miterlimit="10" stroke-width="5"/><line x1="266.37" y1="275.57" x2="278.18" y2="275.57" fill="none" stroke="#000" stroke-dasharray="0 0 7.88 7.88" stroke-miterlimit="10" stroke-width="5"/><line x1="282.12" y1="275.57" x2="288.12" y2="275.57" fill="none" stroke="#000" stroke-miterlimit="10" stroke-width="5"/><line x1="333.07" y1="275.57" x2="339.07" y2="275.57" fill="none" stroke="#000" stroke-miterlimit="10" stroke-width="5"/><line x1="351.89" y1="275.57" x2="499.37" y2="275.57" fill="none" stroke="#000" stroke-dasharray="0 0 12.82 12.82" stroke-miterlimit="10" stroke-width="5"/><line x1="505.78" y1="275.57" x2="511.78" y2="275.57" fill="none" stroke="#000" stroke-miterlimit="10" stroke-width="5"/><line x1="309.5" y1="300.06" x2="309.5" y2="306.06" fill="none" stroke="#000" stroke-miterlimit="10" stroke-width="5"/><line x1="309.5" y1="317.82" x2="309.5" y2="782.29" fill="none" stroke="#000" stroke-dasharray="0 0 11.76 11.76" stroke-miterlimit="10" stroke-width="5"/><line x1="309.5" y1="788.17" x2="309.5" y2="794.17" fill="none" stroke="#000" stroke-miterlimit="10" stroke-width="5"/><line x1="309.5" y1="678.76" x2="315.5" y2="678.76" fill="none" stroke="#000" stroke-miterlimit="10" stroke-width="5"/><line x1="324.89" y1="678.76" x2="357.74" y2="678.76" fill="none" stroke="#000" stroke-dasharray="0 0 9.39 9.39" stroke-miterlimit="10" stroke-width="5"/><line x1="362.44" y1="678.76" x2="368.44" y2="678.76" fill="none" stroke="#000" stroke-miterlimit="10" stroke-width="5"/><line x1="309.5" y1="563.87" x2="315.5" y2="563.87" fill="none" stroke="#000" stroke-miterlimit="10" stroke-width="5"/><line x1="324.89" y1="563.87" x2="357.74" y2="563.87" fill="none" stroke="#000" stroke-dasharray="0 0 9.39 9.39" stroke-miterlimit="10" stroke-width="5"/><line x1="362.44" y1="563.87" x2="368.44" y2="563.87" fill="none" stroke="#000" stroke-miterlimit="10" stroke-width="5"/><line x1="309.5" y1="794.17" x2="315.5" y2="794.17" fill="none" stroke="#000" stroke-miterlimit="10" stroke-width="5"/><line x1="324.89" y1="794.17" x2="357.74" y2="794.17" fill="none" stroke="#000" stroke-dasharray="0 0 9.39 9.39" stroke-miterlimit="10" stroke-width="5"/><line x1="362.44" y1="794.17" x2="368.44" y2="794.17" fill="none" stroke="#000" stroke-miterlimit="10" stroke-width="5"/><rect id="Base" width="1080" height="1080" opacity="0"/></g></g></svg>