<?xml version="1.0" encoding="UTF-8"?><svg id="Capa_2" xmlns="http://www.w3.org/2000/svg" viewBox="0 0 1080 1080"><g id="Capa_1-2"><g id="Multifilar_-_Interruptor_doble"><line x1="565.56" y1="362.2" x2="667.36" y2="539.29" fill="none" stroke="#000" stroke-miterlimit="10" stroke-width="5"/><line x1="667.75" y1="540.07" x2="412.25" y2="540.07" fill="none" stroke="#000" stroke-miterlimit="10" stroke-width="5"/><line x1="667.34" y1="158" x2="667.03" y2="361.56" fill="none" stroke="#000" stroke-miterlimit="10" stroke-width="5"/><line x1="489.22" y1="412.45" x2="489.22" y2="515.51" fill="none" stroke="#000" stroke-miterlimit="10" stroke-width="5"/><line x1="564.6" y1="463.27" x2="570.6" y2="463.27" fill="none" stroke="#000" stroke-miterlimit="10" stroke-width="5"/><line x1="579.97" y1="463.27" x2="612.76" y2="463.27" fill="none" stroke="#000" stroke-dasharray="0 0 9.37 9.37" stroke-miterlimit="10" stroke-width="5"/><line x1="617.45" y1="463.27" x2="623.45" y2="463.27" fill="none" stroke="#000" stroke-miterlimit="10" stroke-width="5"/><line x1="538.65" y1="463.27" x2="532.65" y2="463.27" fill="none" stroke="#000" stroke-miterlimit="10" stroke-width="5"/><line x1="520.72" y1="463.27" x2="502.82" y2="463.27" fill="none" stroke="#000" stroke-dasharray="0 0 11.93 11.93" stroke-miterlimit="10" stroke-width="5"/><line x1="496.85" y1="463.27" x2="490.85" y2="463.27" fill="none" stroke="#000" stroke-miterlimit="10" stroke-width="5"/><line x1="564.6" y1="463.27" x2="551.63" y2="490.33" fill="none" stroke="#000" stroke-miterlimit="10" stroke-width="5"/><line x1="538.65" y1="463.27" x2="551.63" y2="490.33" fill="none" stroke="#000" stroke-miterlimit="10" stroke-width="5"/><line x1="489.22" y1="565.13" x2="489.22" y2="668.18" fill="none" stroke="#000" stroke-miterlimit="10" stroke-width="5"/><line x1="564.6" y1="615.94" x2="570.6" y2="615.94" fill="none" stroke="#000" stroke-miterlimit="10" stroke-width="5"/><line x1="579.97" y1="615.94" x2="612.76" y2="615.94" fill="none" stroke="#000" stroke-dasharray="0 0 9.37 9.37" stroke-miterlimit="10" stroke-width="5"/><line x1="617.45" y1="615.94" x2="623.45" y2="615.94" fill="none" stroke="#000" stroke-miterlimit="10" stroke-width="5"/><line x1="538.65" y1="615.94" x2="532.65" y2="615.94" fill="none" stroke="#000" stroke-miterlimit="10" stroke-width="5"/><line x1="520.72" y1="615.94" x2="502.82" y2="615.94" fill="none" stroke="#000" stroke-dasharray="0 0 11.93 11.93" stroke-miterlimit="10" stroke-width="5"/><line x1="496.85" y1="615.94" x2="490.85" y2="615.94" fill="none" stroke="#000" stroke-miterlimit="10" stroke-width="5"/><line x1="564.6" y1="615.94" x2="551.63" y2="643" fill="none" stroke="#000" stroke-miterlimit="10" stroke-width="5"/><line x1="538.65" y1="615.94" x2="551.63" y2="643" fill="none" stroke="#000" stroke-miterlimit="10" stroke-width="5"/><line x1="565.56" y1="717.16" x2="667.51" y2="539.87" fill="none" stroke="#000" stroke-miterlimit="10" stroke-width="5"/><line x1="667.03" y1="717.8" x2="667.03" y2="922" fill="none" stroke="#000" stroke-miterlimit="10" stroke-width="5"/><rect id="Base" width="1080" height="1080" opacity="0"/></g></g></svg>