<?xml version="1.0" encoding="UTF-8"?><svg id="Capa_2" xmlns="http://www.w3.org/2000/svg" viewBox="0 0 1080 1080"><g id="Capa_1-2"><g id="Multifilar_-_Protector_contra_sobretensiones_transitorias_bifásico"><line x1="425.41" y1="654.93" x2="425.41" y2="922" fill="none" stroke="#000" stroke-miterlimit="10" stroke-width="5"/><polygon points="425.99 578.63 387.83 654.93 464.14 654.93 425.99 578.63"/><line x1="425.49" y1="426.97" x2="425.49" y2="158" fill="none" stroke="#000" stroke-miterlimit="10" stroke-width="5"/><polygon points="425.49 503.16 463.64 426.02 387.34 426.02 425.49 503.16"/><rect x="311.04" y="313.11" width="228.91" height="455.38" fill="none" stroke="#000" stroke-miterlimit="10" stroke-width="5"/><line x1="654.51" y1="653.98" x2="654.51" y2="732.19" fill="none" stroke="#000" stroke-miterlimit="10" stroke-width="5"/><polygon points="654.51 578.63 615.92 654.93 693.1 654.93 654.51 578.63"/><line x1="654.51" y1="426.93" x2="654.51" y2="158" fill="none" stroke="#000" stroke-miterlimit="10" stroke-width="5"/><polygon points="654.51 502.32 692.66 426.02 616.36 426.02 654.51 502.32"/><rect x="540.05" y="313.11" width="228.91" height="455.38" fill="none" stroke="#000" stroke-miterlimit="10" stroke-width="5"/><circle cx="425.41" cy="731.56" r="15.84"/><line x1="421.51" y1="731.56" x2="653.95" y2="731.56" fill="none" stroke="#000" stroke-miterlimit="10" stroke-width="5"/><path d="m349.97,883.91c-.39-2.36-.73-5.45-.73-9.39,0-4.83,1.12-8.37,3.15-10.62,1.8-2.08,4.55-3.31,7.92-3.31s6.13,1.01,8.09,2.92c2.75,2.59,4.16,6.8,4.16,11.58,0,1.46-.05,2.81-.34,3.93h15.17v4.89h-37.42Zm18.26-4.89c.28-1.07.39-2.42.39-4.04,0-5.9-2.87-9.5-8.09-9.5s-7.42,3.54-7.42,8.93c0,2.13.17,3.76.39,4.61h14.72Z"/><path d="m369.64,834.41v14.72h13.65v-16.41h4.1v21.3h-37.87v-20.45h4.1v15.56h11.97v-14.72h4.05Z"/><path d="m349.24,217.86v-4.92h34.02v-16.3h4.13v21.23h-38.15Z"/><path d="m616.01,224.52h-37.16v-5.24l18.8-11.91c4.35-2.76,8.27-4.91,12.07-6.67l-.06-.11c-4.96.44-9.48.55-15.27.55h-15.55v-4.52h37.16v4.85l-18.85,11.8c-4.14,2.59-8.38,5.07-12.41,6.95l.06.17c4.69-.28,9.15-.39,15.33-.39h15.88v4.52Z"/><rect id="Base" width="1080" height="1080" opacity="0"/></g></g></svg>