<?xml version="1.0" encoding="UTF-8"?><svg id="Capa_2" xmlns="http://www.w3.org/2000/svg" viewBox="0 0 1080 1080"><g id="Capa_1-2"><g id="Multifilar_-_Resistencia_regulable_Trimmer_ANSI"><line x1="158" y1="520.65" x2="349.44" y2="520.65" fill="none" stroke="#000" stroke-miterlimit="10" stroke-width="5"/><line x1="730.56" y1="520.65" x2="922" y2="520.65" fill="none" stroke="#000" stroke-miterlimit="10" stroke-width="5"/><line x1="347.67" y1="481.66" x2="347.67" y2="559.65" fill="none" stroke="#000" stroke-miterlimit="10" stroke-width="5"/><line x1="425.54" y1="559.53" x2="347.67" y2="481.66" fill="none" stroke="#000" stroke-miterlimit="10" stroke-width="5"/><line x1="423.89" y1="482.3" x2="423.89" y2="560.29" fill="none" stroke="#000" stroke-miterlimit="10" stroke-width="5"/><line x1="501.77" y1="560.17" x2="423.89" y2="482.3" fill="none" stroke="#000" stroke-miterlimit="10" stroke-width="5"/><line x1="501.89" y1="482.3" x2="501.89" y2="560.29" fill="none" stroke="#000" stroke-miterlimit="10" stroke-width="5"/><line x1="579.76" y1="560.17" x2="501.89" y2="482.3" fill="none" stroke="#000" stroke-miterlimit="10" stroke-width="5"/><line x1="578.11" y1="482.3" x2="578.11" y2="560.29" fill="none" stroke="#000" stroke-miterlimit="10" stroke-width="5"/><line x1="730.56" y1="482.3" x2="730.56" y2="560.29" fill="none" stroke="#000" stroke-miterlimit="10" stroke-width="5"/><line x1="655.98" y1="560.17" x2="578.11" y2="482.3" fill="none" stroke="#000" stroke-miterlimit="10" stroke-width="5"/><line x1="654.33" y1="482.3" x2="654.33" y2="560.29" fill="none" stroke="#000" stroke-miterlimit="10" stroke-width="5"/><line x1="732.21" y1="560.17" x2="654.33" y2="482.3" fill="none" stroke="#000" stroke-miterlimit="10" stroke-width="5"/><line x1="349.14" y1="711.55" x2="693.03" y2="368.45" fill="none" stroke="#000" stroke-miterlimit="10" stroke-width="5"/><line x1="654.33" y1="368.45" x2="730.56" y2="368.45" fill="none" stroke="#000" stroke-miterlimit="10" stroke-width="5"/><rect id="Base" width="1080" height="1080" opacity="0"/></g></g></svg>