<?xml version="1.0" encoding="UTF-8"?><svg id="Capa_2" xmlns="http://www.w3.org/2000/svg" viewBox="0 0 1080 1080"><g id="Capa_1-2"><g id="Multifilar_-_Máquina_Compuesta_Compound_"><line x1="845.23" y1="179.67" x2="888.84" y2="179.67" fill="none" stroke="#000" stroke-miterlimit="10" stroke-width="5"/><circle cx="866.1" cy="593.9" r="7.48"/><line x1="866.45" y1="448.29" x2="866.45" y2="922" fill="none" stroke="#000" stroke-miterlimit="10" stroke-width="5"/><g id="Multifilar_-_Transformador"><path d="m866.46,410.83c-10.16,0-18.39,8.23-18.39,18.39,0,10.16,8.23,18.39,18.39,18.39" fill="none" stroke="#000" stroke-miterlimit="10" stroke-width="5"/><path d="m866.46,374.09c-10.16,0-18.39,8.23-18.39,18.39s8.23,18.39,18.39,18.39" fill="none" stroke="#000" stroke-miterlimit="10" stroke-width="5"/><path d="m866.46,337.35c-10.16,0-18.39,8.23-18.39,18.39,0,10.16,8.23,18.39,18.39,18.39" fill="none" stroke="#000" stroke-miterlimit="10" stroke-width="5"/><path d="m866.46,300.6c-10.16,0-18.39,8.23-18.39,18.39,0,10.16,8.23,18.39,18.39,18.39" fill="none" stroke="#000" stroke-miterlimit="10" stroke-width="5"/></g><line x1="866.45" y1="300.99" x2="866.45" y2="222.86" fill="none" stroke="#000" stroke-miterlimit="10" stroke-width="5"/><path d="m539.06,378.14c29.19,0,57.51,5.72,84.16,16.99,25.75,10.89,48.87,26.48,68.73,46.34,19.86,19.86,35.45,42.98,46.34,68.73,11.27,26.65,16.99,54.97,16.99,84.16s-5.72,57.51-16.99,84.16c-10.89,25.75-26.48,48.87-46.34,68.73s-42.98,35.45-68.73,46.34c-26.65,11.27-54.97,16.99-84.16,16.99s-57.51-5.72-84.16-16.99c-25.75-10.89-48.87-26.48-68.73-46.34-19.86-19.86-35.45-42.98-46.34-68.73-11.27-26.65-16.99-54.97-16.99-84.16s5.72-57.51,16.99-84.16c10.89-25.75,26.48-48.87,46.34-68.73,19.86-19.86,42.98-35.45,68.73-46.34,26.65-11.27,54.97-16.99,84.16-16.99m0-5c-122.18,0-221.23,99.05-221.23,221.23s99.05,221.23,221.23,221.23,221.23-99.05,221.23-221.23-99.05-221.23-221.23-221.23h0Z"/><line x1="473.08" y1="660" x2="606.07" y2="660" fill="none" stroke="#000" stroke-miterlimit="10" stroke-width="5"/><line x1="472.96" y1="681.25" x2="503.19" y2="681.25" fill="none" stroke="#000" stroke-miterlimit="10" stroke-width="5"/><line x1="524.8" y1="681.25" x2="554.35" y2="681.25" fill="none" stroke="#000" stroke-miterlimit="10" stroke-width="5"/><circle cx="866.22" cy="594.36" r="7.51"/><circle cx="212.1" cy="594.36" r="7.51"/><line x1="213.19" y1="223.09" x2="213.19" y2="921.27" fill="none" stroke="#000" stroke-miterlimit="10" stroke-width="5"/><line x1="319.79" y1="594.36" x2="218.26" y2="594.36" fill="none" stroke="#000" stroke-miterlimit="10" stroke-width="5"/><line x1="575.91" y1="681.25" x2="605.95" y2="681.25" fill="none" stroke="#000" stroke-miterlimit="10" stroke-width="5"/><line x1="865.95" y1="594.36" x2="759.26" y2="594.36" fill="none" stroke="#000" stroke-miterlimit="10" stroke-width="5"/><g id="Multifilar_-_Transformador-2"><path d="m502.21,921.95c0-10.19-8.26-18.45-18.45-18.45-10.19,0-18.45,8.26-18.45,18.45" fill="none" stroke="#000" stroke-miterlimit="10" stroke-width="5"/><path d="m539.08,921.95c0-10.19-8.26-18.45-18.45-18.45-10.19,0-18.45,8.26-18.45,18.45" fill="none" stroke="#000" stroke-miterlimit="10" stroke-width="5"/><path d="m575.96,921.95c0-10.19-8.26-18.45-18.45-18.45-10.19,0-18.45,8.26-18.45,18.45" fill="none" stroke="#000" stroke-miterlimit="10" stroke-width="5"/><path d="m612.83,921.95c0-10.19-8.26-18.45-18.45-18.45-10.19,0-18.45,8.26-18.45,18.45" fill="none" stroke="#000" stroke-miterlimit="10" stroke-width="5"/></g><line x1="213.19" y1="921.27" x2="464.97" y2="921.27" fill="none" stroke="#000" stroke-miterlimit="10" stroke-width="5"/><line x1="613.14" y1="921.96" x2="866.22" y2="921.96" fill="none" stroke="#000" stroke-miterlimit="10" stroke-width="5"/><path d="m215.67,158v19.26h19.1v4.92h-19.1v19.43h-5.41v-19.43h-19.1v-4.92h19.1v-19.26h5.41Z"/><path d="m286.9,565.49l-2.3,6.97h-2.96l7.52-22.15h3.45l7.56,22.15h-3.06l-2.37-6.97h-7.85Zm7.26-2.23l-2.17-6.37c-.49-1.45-.82-2.76-1.15-4.04h-.07c-.33,1.31-.69,2.66-1.12,4.01l-2.17,6.41h6.67Z"/><path d="m779.89,550.89c1.21-.25,3.12-.45,5.06-.45,2.77,0,4.55.48,5.89,1.56,1.11.83,1.78,2.1,1.78,3.79,0,2.07-1.37,3.88-3.63,4.71v.06c2.04.51,4.42,2.2,4.42,5.38,0,1.85-.73,3.25-1.81,4.3-1.5,1.37-3.91,2.01-7.42,2.01-1.91,0-3.37-.13-4.3-.25v-21.1Zm2.77,8.78h2.51c2.93,0,4.65-1.53,4.65-3.6,0-2.51-1.91-3.5-4.71-3.5-1.27,0-2.01.1-2.45.19v6.91Zm0,10.28c.54.1,1.34.13,2.32.13,2.86,0,5.51-1.05,5.51-4.17,0-2.93-2.51-4.14-5.54-4.14h-2.29v8.18Z"/><path d="m452.62,898.27c-1.01.51-3.04,1.01-5.64,1.01-6.02,0-10.54-3.8-10.54-10.8s4.53-11.21,11.15-11.21c2.66,0,4.34.57,5.07.95l-.67,2.25c-1.05-.51-2.53-.89-4.31-.89-5,0-8.33,3.2-8.33,8.8,0,5.22,3.01,8.58,8.2,8.58,1.68,0,3.39-.35,4.5-.89l.57,2.19Z"/><path d="m627.74,877.93c1.69-.25,3.69-.45,5.89-.45,3.98,0,6.81.92,8.69,2.67,1.91,1.75,3.02,4.23,3.02,7.7s-1.08,6.37-3.09,8.34c-2.01,2.01-5.32,3.09-9.48,3.09-1.97,0-3.63-.1-5.03-.25v-21.1Zm2.77,18.97c.7.13,1.72.16,2.8.16,5.92,0,9.13-3.31,9.13-9.1.03-5.06-2.83-8.28-8.69-8.28-1.43,0-2.51.13-3.25.29v16.93Z"/><path d="m834.95,277.36v8.43h7.82v-9.39h2.35v12.19h-21.68v-11.71h2.35v8.91h6.85v-8.43h2.32Z"/><path d="m823.43,475.04v-11.68h2.35v8.88h7.21v-8.2h2.32v8.2h9.81v2.8h-21.68Z"/><path d="m563.49,521.72c-.49-9.12-1.07-20.09-.97-28.24h-.29c-2.23,7.67-4.95,15.82-8.25,24.84l-11.55,31.73h-6.4l-10.58-31.15c-3.11-9.22-5.72-17.66-7.57-25.43h-.19c-.19,8.15-.68,19.12-1.26,28.92l-1.75,28.05h-8.05l4.56-65.41h10.77l11.16,31.64c2.72,8.05,4.95,15.24,6.6,22.03h.29c1.65-6.6,3.98-13.78,6.89-22.03l11.65-31.64h10.77l4.08,65.41h-8.25l-1.65-28.73Z"/><rect id="Base" width="1080" height="1080" opacity="0"/></g></g></svg>