<?xml version="1.0" encoding="UTF-8"?><svg id="Capa_2" xmlns="http://www.w3.org/2000/svg" viewBox="0 0 1080 1080"><g id="Capa_1-2"><g id="Multifilar_-_Demultiplexor"><rect x="402.24" y="158" width="229.06" height="611.77" fill="none" stroke="#000" stroke-miterlimit="10" stroke-width="5"/><line x1="325.88" y1="463.89" x2="402.24" y2="463.89" fill="none" stroke="#000" stroke-miterlimit="10" stroke-width="5"/><line x1="631.29" y1="425.71" x2="706.69" y2="425.71" fill="none" stroke="#000" stroke-miterlimit="10" stroke-width="5"/><line x1="631.29" y1="502.06" x2="706.69" y2="502.06" fill="none" stroke="#000" stroke-miterlimit="10" stroke-width="5"/><line x1="631.29" y1="578.41" x2="706.69" y2="578.41" fill="none" stroke="#000" stroke-miterlimit="10" stroke-width="5"/><line x1="631.29" y1="654.77" x2="706.69" y2="654.77" fill="none" stroke="#000" stroke-miterlimit="10" stroke-width="5"/><line x1="631.29" y1="731.12" x2="706.69" y2="731.12" fill="none" stroke="#000" stroke-miterlimit="10" stroke-width="5"/><line x1="631.29" y1="196.65" x2="706.69" y2="196.65" fill="none" stroke="#000" stroke-miterlimit="10" stroke-width="5"/><line x1="631.29" y1="273.01" x2="706.69" y2="273.01" fill="none" stroke="#000" stroke-miterlimit="10" stroke-width="5"/><line x1="631.29" y1="349.36" x2="706.69" y2="349.36" fill="none" stroke="#000" stroke-miterlimit="10" stroke-width="5"/><line x1="439.46" y1="846.6" x2="439.46" y2="770.25" fill="none" stroke="#000" stroke-miterlimit="10" stroke-width="5"/><line x1="515.81" y1="846.6" x2="515.81" y2="770.25" fill="none" stroke="#000" stroke-miterlimit="10" stroke-width="5"/><line x1="592.16" y1="846.6" x2="592.16" y2="770.25" fill="none" stroke="#000" stroke-miterlimit="10" stroke-width="5"/><path d="m796.61,206.03c0,6.34-2.35,9.84-6.48,9.84-3.64,0-6.11-3.41-6.17-9.58,0-6.25,2.7-9.7,6.48-9.7s6.17,3.5,6.17,9.44Zm-10.13.29c0,4.85,1.49,7.6,3.79,7.6,2.58,0,3.82-3.01,3.82-7.77s-1.18-7.6-3.79-7.6c-2.21,0-3.82,2.7-3.82,7.77Z"/><path d="m787.69,276.19h-.06l-3.19,1.72-.48-1.89,4.01-2.14h2.12v18.34h-2.4v-16.03Z"/><path d="m783.96,368.57v-1.52l1.95-1.89c4.68-4.46,6.8-6.83,6.83-9.59,0-1.86-.9-3.58-3.64-3.58-1.66,0-3.05.85-3.89,1.55l-.79-1.75c1.27-1.07,3.08-1.86,5.19-1.86,3.95,0,5.61,2.71,5.61,5.33,0,3.39-2.45,6.12-6.32,9.85l-1.47,1.35v.06h8.24v2.06h-11.71Z"/><path d="m784.64,441.76c.71.45,2.34,1.16,4.06,1.16,3.19,0,4.18-2.03,4.15-3.56-.03-2.57-2.34-3.67-4.74-3.67h-1.38v-1.86h1.38c1.81,0,4.09-.93,4.09-3.1,0-1.47-.93-2.77-3.22-2.77-1.47,0-2.88.65-3.67,1.21l-.65-1.81c.96-.71,2.82-1.41,4.8-1.41,3.61,0,5.25,2.15,5.25,4.37,0,1.89-1.13,3.5-3.39,4.32v.06c2.26.45,4.09,2.14,4.09,4.71,0,2.93-2.29,5.5-6.69,5.5-2.06,0-3.87-.65-4.77-1.24l.68-1.92Z"/><path d="m450.38,905.97h-.06l-3.19,1.72-.48-1.89,4.01-2.14h2.12v18.34h-2.4v-16.03Z"/><path d="m521.23,922v-1.52l1.95-1.89c4.68-4.46,6.8-6.83,6.83-9.59,0-1.86-.9-3.58-3.64-3.58-1.66,0-3.05.85-3.89,1.55l-.79-1.75c1.27-1.07,3.08-1.86,5.19-1.86,3.95,0,5.61,2.71,5.61,5.33,0,3.39-2.45,6.12-6.32,9.85l-1.47,1.35v.06h8.24v2.06h-11.71Z"/><path d="m598.52,918.84c.71.45,2.34,1.16,4.06,1.16,3.19,0,4.18-2.03,4.15-3.56-.03-2.57-2.34-3.67-4.74-3.67h-1.38v-1.86h1.38c1.81,0,4.09-.93,4.09-3.1,0-1.47-.93-2.77-3.22-2.77-1.47,0-2.88.65-3.67,1.21l-.65-1.81c.96-.71,2.82-1.41,4.8-1.41,3.61,0,5.25,2.15,5.25,4.37,0,1.89-1.13,3.5-3.39,4.32v.06c2.26.45,4.09,2.14,4.09,4.71,0,2.93-2.29,5.5-6.69,5.5-2.06,0-3.87-.65-4.77-1.24l.68-1.92Z"/><path d="m792.48,521.28v-4.99h-8.52v-1.64l8.18-11.71h2.68v11.4h2.57v1.95h-2.57v4.99h-2.34Zm0-6.94v-6.12c0-.96.03-1.92.08-2.88h-.08c-.56,1.07-1.02,1.86-1.52,2.71l-4.49,6.24v.06h6.01Z"/><path d="m794.99,581.06h-7l-.71,4.71c.42-.06.82-.11,1.5-.11,1.41,0,2.82.31,3.95.99,1.44.82,2.62,2.4,2.62,4.71,0,3.58-2.85,6.26-6.83,6.26-2,0-3.7-.56-4.57-1.13l.62-1.89c.76.45,2.26,1.02,3.92,1.02,2.34,0,4.35-1.52,4.35-3.98-.03-2.37-1.61-4.06-5.28-4.06-1.04,0-1.86.11-2.54.2l1.18-8.8h8.78v2.09Z"/><path d="m794.74,657.08c-.51-.03-1.16,0-1.86.11-3.89.65-5.95,3.5-6.38,6.52h.08c.87-1.16,2.4-2.12,4.43-2.12,3.25,0,5.53,2.34,5.53,5.93,0,3.36-2.29,6.46-6.09,6.46s-6.49-3.05-6.49-7.82c0-3.61,1.3-6.46,3.1-8.27,1.52-1.5,3.56-2.43,5.87-2.71.73-.11,1.35-.14,1.81-.14v2.03Zm-.71,10.58c0-2.62-1.5-4.2-3.78-4.2-1.5,0-2.88.93-3.56,2.26-.17.28-.28.65-.28,1.1.06,3.02,1.44,5.25,4.04,5.25,2.14,0,3.58-1.78,3.58-4.4Z"/><path d="m795.53,731.99v1.64l-7.99,16.7h-2.57l7.96-16.23v-.06h-8.97v-2.06h11.57Z"/><path d="m419.68,915.63c2.14,1.32,5.27,2.42,8.57,2.42,4.89,0,7.74-2.59,7.74-6.32,0-3.46-1.98-5.44-6.97-7.36-6.04-2.14-9.78-5.27-9.78-10.49,0-5.77,4.78-10.05,11.97-10.05,3.79,0,6.54.88,8.18,1.82l-1.32,3.9c-1.21-.66-3.68-1.76-7.03-1.76-5.05,0-6.97,3.02-6.97,5.55,0,3.46,2.25,5.16,7.36,7.14,6.26,2.42,9.45,5.43,9.45,10.87,0,5.71-4.23,10.66-12.96,10.66-3.57,0-7.47-1.05-9.45-2.36l1.21-4.01Z"/><path d="m496.03,915.63c2.14,1.32,5.27,2.42,8.57,2.42,4.89,0,7.74-2.59,7.74-6.32,0-3.46-1.98-5.44-6.97-7.36-6.04-2.14-9.78-5.27-9.78-10.49,0-5.77,4.78-10.05,11.97-10.05,3.79,0,6.54.88,8.18,1.82l-1.32,3.9c-1.21-.66-3.68-1.76-7.03-1.76-5.05,0-6.97,3.02-6.97,5.55,0,3.46,2.25,5.16,7.36,7.14,6.26,2.42,9.45,5.43,9.45,10.87,0,5.71-4.23,10.66-12.96,10.66-3.57,0-7.47-1.05-9.45-2.36l1.21-4.01Z"/><path d="m572.38,915.63c2.14,1.32,5.27,2.42,8.57,2.42,4.89,0,7.74-2.59,7.74-6.32,0-3.46-1.98-5.44-6.97-7.36-6.04-2.14-9.78-5.27-9.78-10.49,0-5.77,4.78-10.05,11.97-10.05,3.79,0,6.54.88,8.18,1.82l-1.32,3.9c-1.21-.66-3.68-1.76-7.03-1.76-5.05,0-6.97,3.02-6.97,5.55,0,3.46,2.25,5.16,7.36,7.14,6.26,2.42,9.45,5.43,9.45,10.87,0,5.71-4.23,10.66-12.96,10.66-3.57,0-7.47-1.05-9.45-2.36l1.21-4.01Z"/><path d="m287.55,444.8v38.3h-4.94v-38.3h4.94Z"/><path d="m775.2,215.74c-4.43-1.17-8.77-2.48-12.56-3.8-.68-.24-1.36-.49-1.99-.49-7.79-.29-14.46-6.04-14.46-16.61s6.43-17.29,15.29-17.29,14.71,6.91,14.71,16.6c0,8.43-3.89,13.83-9.35,15.73v.19c3.26.83,6.82,1.61,9.6,2.1l-1.22,3.55Zm-3.5-21.38c0-6.57-3.41-13.34-10.37-13.34s-10.67,6.62-10.62,13.73c-.05,6.96,3.8,13.24,10.42,13.24s10.57-6.14,10.57-13.63Z"/><path d="m775.2,292.09c-4.43-1.17-8.77-2.48-12.56-3.8-.68-.24-1.36-.49-1.99-.49-7.79-.29-14.46-6.04-14.46-16.61s6.43-17.29,15.29-17.29,14.71,6.91,14.71,16.6c0,8.43-3.89,13.83-9.35,15.73v.19c3.26.83,6.82,1.61,9.6,2.1l-1.22,3.55Zm-3.5-21.38c0-6.57-3.41-13.34-10.37-13.34s-10.67,6.62-10.62,13.73c-.05,6.96,3.8,13.24,10.42,13.24s10.57-6.14,10.57-13.63Z"/><path d="m775.2,368.45c-4.43-1.17-8.77-2.48-12.56-3.8-.68-.24-1.36-.49-1.99-.49-7.79-.29-14.46-6.04-14.46-16.61s6.43-17.29,15.29-17.29,14.71,6.91,14.71,16.6c0,8.43-3.89,13.83-9.35,15.73v.19c3.26.83,6.82,1.61,9.6,2.1l-1.22,3.55Zm-3.5-21.38c0-6.57-3.41-13.34-10.37-13.34s-10.67,6.62-10.62,13.73c-.05,6.96,3.8,13.24,10.42,13.24s10.57-6.14,10.57-13.63Z"/><path d="m775.2,444.8c-4.43-1.17-8.77-2.48-12.56-3.8-.68-.24-1.36-.49-1.99-.49-7.79-.29-14.46-6.04-14.46-16.61s6.43-17.29,15.29-17.29,14.71,6.91,14.71,16.6c0,8.43-3.89,13.83-9.35,15.73v.19c3.26.83,6.82,1.61,9.6,2.1l-1.22,3.55Zm-3.5-21.38c0-6.57-3.41-13.34-10.37-13.34s-10.67,6.62-10.62,13.73c-.05,6.96,3.8,13.24,10.42,13.24s10.57-6.14,10.57-13.63Z"/><path d="m775.2,521.15c-4.43-1.17-8.77-2.48-12.56-3.8-.68-.24-1.36-.49-1.99-.49-7.79-.29-14.46-6.04-14.46-16.61s6.43-17.29,15.29-17.29,14.71,6.91,14.71,16.6c0,8.43-3.89,13.83-9.35,15.73v.19c3.26.83,6.82,1.61,9.6,2.1l-1.22,3.55Zm-3.5-21.38c0-6.57-3.41-13.34-10.37-13.34s-10.67,6.62-10.62,13.73c-.05,6.96,3.8,13.24,10.42,13.24s10.57-6.14,10.57-13.63Z"/><path d="m775.2,597.5c-4.43-1.17-8.77-2.48-12.56-3.8-.68-.24-1.36-.49-1.99-.49-7.79-.29-14.46-6.04-14.46-16.61s6.43-17.29,15.29-17.29,14.71,6.91,14.71,16.6c0,8.43-3.89,13.83-9.35,15.73v.19c3.26.83,6.82,1.61,9.6,2.1l-1.22,3.55Zm-3.5-21.38c0-6.57-3.41-13.34-10.37-13.34s-10.67,6.62-10.62,13.73c-.05,6.96,3.8,13.24,10.42,13.24s10.57-6.14,10.57-13.63Z"/><path d="m775.2,673.86c-4.43-1.17-8.77-2.48-12.56-3.8-.68-.24-1.36-.49-1.99-.49-7.79-.29-14.46-6.04-14.46-16.61s6.43-17.29,15.29-17.29,14.71,6.91,14.71,16.6c0,8.43-3.89,13.83-9.35,15.73v.19c3.26.83,6.82,1.61,9.6,2.1l-1.22,3.55Zm-3.5-21.38c0-6.57-3.41-13.34-10.37-13.34s-10.67,6.62-10.62,13.73c-.05,6.96,3.8,13.24,10.42,13.24s10.57-6.14,10.57-13.63Z"/><path d="m775.2,750.21c-4.43-1.17-8.77-2.48-12.56-3.8-.68-.24-1.36-.49-1.99-.49-7.79-.29-14.46-6.04-14.46-16.61s6.43-17.29,15.29-17.29,14.71,6.91,14.71,16.6c0,8.43-3.89,13.83-9.35,15.73v.19c3.26.83,6.82,1.61,9.6,2.1l-1.22,3.55Zm-3.5-21.38c0-6.57-3.41-13.34-10.37-13.34s-10.67,6.62-10.62,13.73c-.05,6.96,3.8,13.24,10.42,13.24s10.57-6.14,10.57-13.63Z"/><rect id="Base" width="1080" height="1080" opacity="0"/></g></g></svg>