<?xml version="1.0" encoding="UTF-8"?><svg id="Capa_2" xmlns="http://www.w3.org/2000/svg" viewBox="0 0 1080 1080"><g id="Capa_1-2"><g id="Multifilar_-_Motor_trifásico_con_6_bornes"><path d="m478.2,287.01c34.18,0,67.34,6.69,98.55,19.89,30.15,12.75,57.23,31.01,80.48,54.26,23.25,23.25,41.51,50.33,54.26,80.48,13.2,31.21,19.89,64.37,19.89,98.55s-6.69,67.34-19.89,98.55c-12.75,30.15-31.01,57.23-54.26,80.48-23.25,23.25-50.33,41.51-80.48,54.26-31.21,13.2-64.37,19.89-98.55,19.89s-67.34-6.69-98.55-19.89c-30.15-12.75-57.23-31.01-80.48-54.26-23.25-23.25-41.51-50.33-54.26-80.48-13.2-31.21-19.89-64.37-19.89-98.55s6.69-67.34,19.89-98.55c12.75-30.15,31.01-57.23,54.26-80.48s50.33-41.51,80.48-54.26c31.21-13.2,64.37-19.89,98.55-19.89m0-5c-142.59,0-258.18,115.59-258.18,258.18s115.59,258.18,258.18,258.18,258.18-115.59,258.18-258.18-115.59-258.18-258.18-258.18h0Z"/><line x1="351.01" y1="158" x2="351.01" y2="318.02" fill="none" stroke="#000" stroke-miterlimit="10" stroke-width="5"/><line x1="478.6" y1="158" x2="478.6" y2="284.94" fill="none" stroke="#000" stroke-miterlimit="10" stroke-width="5"/><line x1="604.92" y1="158" x2="604.92" y2="318.02" fill="none" stroke="#000" stroke-miterlimit="10" stroke-width="5"/><line x1="351.01" y1="761.98" x2="351.01" y2="922" fill="none" stroke="#000" stroke-miterlimit="10" stroke-width="5"/><line x1="478.6" y1="796.78" x2="478.6" y2="922" fill="none" stroke="#000" stroke-miterlimit="10" stroke-width="5"/><line x1="604.92" y1="761.98" x2="604.92" y2="922" fill="none" stroke="#000" stroke-miterlimit="10" stroke-width="5"/><line x1="859.74" y1="158" x2="859.74" y2="539.13" fill="none" stroke="#000" stroke-miterlimit="10" stroke-width="5"/><line x1="735.98" y1="540.4" x2="859.98" y2="540.4" fill="none" stroke="#000" stroke-miterlimit="10" stroke-width="5"/><g id="Multifilar_-_Terminal"><path id="Terminal" d="m655.29,577.94c0,20.68-16.76,37.45-37.45,37.45-20.68,0-37.62-18.64-37.62-37.62,0-17.24-16.94-37.45-37.62-37.45s-37.45,16.76-37.45,37.45" fill="none" stroke="#000" stroke-miterlimit="10" stroke-width="5"/></g><path d="m300.81,213.86h14.82c5.61,0,7.99-2.49,7.99-5.83,0-3.71-2.45-6.09-7.99-6.09h-14.82v-3.27h14.6c7.69,0,10.85,4.05,10.85,9.47,0,5.13-2.93,8.99-10.7,8.99h-14.75v-3.27Z"/><path d="m304.75,187.11v.07l2.27,4.2-2.49.63-2.82-5.27v-2.79h24.15v3.16h-21.1Z"/><path d="m453.38,208.58l-25.34,8.27v-3.53l12.48-3.95c3.42-1.09,6.5-2.03,9.47-2.71v-.08c-2.93-.71-6.13-1.77-9.44-2.89l-12.52-4.29v-3.5l25.34,9.06v3.61Z"/><path d="m432.02,187.15v.08l2.29,4.25-2.52.64-2.86-5.34v-2.82h24.44v3.2h-21.35Z"/><path d="m579.86,219.76l-24.6,6.24v-3.36l12.44-2.92c3.07-.73,6.13-1.39,8.5-1.82v-.07c-2.44-.4-5.36-1.17-8.54-2.01l-12.41-3.28v-3.32l12.48-2.99c2.92-.69,5.84-1.35,8.43-1.71v-.07c-2.7-.51-5.44-1.2-8.5-1.97l-12.41-3.25v-3.25l24.6,6.97v3.32l-12.81,3.1c-3.14.77-5.55,1.28-8.03,1.61v.07c2.44.44,4.85.99,8.03,1.9l12.81,3.5v3.32Z"/><path d="m559.14,187.06v.07l2.23,4.12-2.45.62-2.77-5.18v-2.74h23.72v3.1h-20.73Z"/><path d="m810.21,218.1c-.26-1.57-.49-3.63-.49-6.26,0-3.22.75-5.58,2.1-7.08,1.2-1.39,3.04-2.21,5.28-2.21s4.08.67,5.4,1.95c1.84,1.72,2.77,4.53,2.77,7.72,0,.97-.04,1.87-.22,2.62h10.12v3.26h-24.96Zm12.18-3.26c.19-.71.26-1.61.26-2.7,0-3.94-1.91-6.33-5.4-6.33s-4.95,2.36-4.95,5.96c0,1.42.11,2.51.26,3.07h9.82Z"/><path d="m823.33,185.08v9.82h9.11v-10.94h2.74v14.2h-25.26v-13.64h2.74v10.38h7.98v-9.82h2.7Z"/><path d="m506.48,456.12c-.57-10.7-1.25-23.56-1.14-33.13h-.34c-2.62,8.99-5.8,18.56-9.68,29.14l-13.55,37.22h-7.51l-12.41-36.54c-3.64-10.81-6.72-20.72-8.88-29.83h-.23c-.23,9.56-.8,22.43-1.48,33.92l-2.05,32.9h-9.45l5.35-76.72h12.64l13.09,37.11c3.19,9.45,5.81,17.87,7.74,25.84h.34c1.94-7.74,4.67-16.16,8.08-25.84l13.66-37.11h12.64l4.78,76.72h-9.68l-1.93-33.7Z"/><path d="m325.98,889.97l-25.17,6.39v-3.44l12.73-2.99c3.14-.75,6.27-1.42,8.7-1.87v-.07c-2.5-.41-5.49-1.2-8.74-2.05l-12.7-3.36v-3.4l12.77-3.06c2.99-.71,5.97-1.38,8.63-1.75v-.07c-2.76-.52-5.56-1.23-8.7-2.02l-12.7-3.32v-3.32l25.17,7.13v3.4l-13.11,3.17c-3.21.78-5.68,1.31-8.21,1.64v.07c2.5.45,4.97,1.01,8.21,1.94l13.11,3.58v3.4Z"/><path d="m325.98,863.64h-2.02l-2.5-2.58c-5.9-6.2-9.04-9-12.7-9.04-2.46,0-4.74,1.2-4.74,4.82,0,2.2,1.12,4.03,2.05,5.15l-2.31,1.05c-1.42-1.68-2.46-4.07-2.46-6.87,0-5.23,3.59-7.43,7.06-7.43,4.48,0,8.1,3.25,13.03,8.36l1.79,1.94h.07v-10.9h2.73v15.5Z"/><path d="m428.04,893.08h14.82c5.61,0,7.99-2.49,7.99-5.83,0-3.71-2.45-6.09-7.99-6.09h-14.82v-3.27h14.6c7.69,0,10.85,4.05,10.85,9.47,0,5.13-2.93,8.99-10.7,8.99h-14.75v-3.27Z"/><path d="m453.08,873.43h-2.01l-2.49-2.56c-5.87-6.17-8.99-8.95-12.63-8.99-2.45,0-4.72,1.19-4.72,4.79,0,2.19,1.11,4.01,2.04,5.13l-2.3,1.04c-1.41-1.67-2.45-4.05-2.45-6.83,0-5.2,3.57-7.39,7.02-7.39,4.46,0,8.06,3.23,12.96,8.32l1.78,1.93h.07v-10.85h2.71v15.42Z"/><path d="m580.71,888.04l-25.45,8.31v-3.55l12.53-3.96c3.44-1.09,6.53-2.04,9.51-2.72v-.08c-2.94-.72-6.15-1.77-9.48-2.91l-12.57-4.3v-3.51l25.45,9.1v3.62Z"/><path d="m580.71,873.74h-2.04l-2.53-2.6c-5.97-6.27-9.14-9.1-12.84-9.14-2.49,0-4.79,1.21-4.79,4.87,0,2.23,1.13,4.08,2.08,5.21l-2.34,1.06c-1.44-1.7-2.49-4.11-2.49-6.95,0-5.29,3.62-7.51,7.14-7.51,4.53,0,8.19,3.28,13.18,8.46l1.81,1.96h.08v-11.02h2.76v15.67Z"/><path d="m356.96,604c2.82,1.81,9.38,4.63,16.27,4.63,12.77,0,16.72-8.13,16.61-14.24-.11-10.28-9.38-14.69-18.98-14.69h-5.54v-7.46h5.54c7.23,0,16.38-3.73,16.38-12.43,0-5.87-3.73-11.07-12.88-11.07-5.87,0-11.52,2.6-14.69,4.86l-2.6-7.23c3.84-2.82,11.3-5.65,19.21-5.65,14.46,0,21.01,8.59,21.01,17.51,0,7.57-4.52,14.01-13.56,17.29v.22c9.04,1.81,16.38,8.59,16.38,18.87,0,11.75-9.15,22.03-26.78,22.03-8.25,0-15.48-2.6-19.09-4.97l2.71-7.68Z"/><rect id="Base" width="1080" height="1080" opacity="0"/></g></g></svg>