<?xml version="1.0" encoding="UTF-8"?><svg id="Capa_2" xmlns="http://www.w3.org/2000/svg" viewBox="0 0 1080 1080"><g id="Capa_1-2"><g id="Multifilar_-_Motor_trifásico_con_rotor_en_cortocircuito"><path d="m466.09,311.28c40.92,0,80.61,8.01,117.97,23.8,36.09,15.26,68.51,37.1,96.34,64.92,27.84,27.83,49.69,60.23,64.96,96.31,15.8,37.35,23.82,77.04,23.82,117.96s-8.01,80.62-23.82,117.99c-15.27,36.1-37.12,68.53-64.96,96.37-27.84,27.85-60.25,49.71-96.34,64.99-37.36,15.81-77.06,23.83-117.97,23.83s-80.61-8.01-117.97-23.82c-36.09-15.27-68.5-37.12-96.34-64.96-27.84-27.84-49.69-60.25-64.96-96.34-15.8-37.36-23.82-77.05-23.82-117.97s8.01-80.61,23.82-117.97c15.26-36.09,37.12-68.5,64.96-96.34,27.84-27.84,60.25-49.69,96.34-64.96,37.36-15.8,77.05-23.82,117.97-23.82m0-5c-170.15,0-308.09,137.93-308.09,308.09s137.93,308.09,308.09,308.09,308.09-138.03,308.09-308.18-137.93-307.99-308.09-307.99h0Z"/><line x1="773.7" y1="614.27" x2="922" y2="614.27" fill="none" stroke="#000" stroke-miterlimit="10" stroke-width="5"/><line x1="314.32" y1="157.55" x2="314.32" y2="351.13" fill="none" stroke="#000" stroke-miterlimit="10" stroke-width="5"/><line x1="466.56" y1="157.55" x2="466.56" y2="310.45" fill="none" stroke="#000" stroke-miterlimit="10" stroke-width="5"/><line x1="618.8" y1="157.55" x2="618.8" y2="351.13" fill="none" stroke="#000" stroke-miterlimit="10" stroke-width="5"/><line x1="921.38" y1="157.55" x2="922" y2="614.27" fill="none" stroke="#000" stroke-miterlimit="10" stroke-width="5"/><g id="Multifilar_-_Terminal"><path id="Terminal" d="m677.62,659.08c0,24.68-20.01,44.69-44.69,44.69-24.68,0-44.9-22.24-44.9-44.9,0-20.58-20.22-44.69-44.9-44.69s-44.69,20.01-44.69,44.69" fill="none" stroke="#000" stroke-miterlimit="10" stroke-width="5"/></g><path d="m499.82,513.41c-.68-12.71-1.49-27.98-1.35-39.34h-.41c-3.11,10.68-6.89,22.04-11.49,34.61l-16.09,44.21h-8.92l-14.74-43.4c-4.33-12.84-7.98-24.6-10.54-35.42h-.27c-.27,11.36-.95,26.63-1.76,40.29l-2.43,39.07h-11.22l6.35-91.12h15.01l15.55,44.07c3.78,11.22,6.89,21.22,9.19,30.69h.41c2.3-9.19,5.54-19.2,9.6-30.69l16.22-44.07h15.01l5.68,91.12h-11.49l-2.3-40.02Z"/><path d="m254.5,225.07h17.69c6.69,0,9.53-2.97,9.53-6.96,0-4.43-2.93-7.27-9.53-7.27h-17.69v-3.9h17.42c9.18,0,12.95,4.83,12.95,11.31,0,6.12-3.5,10.73-12.77,10.73h-17.6v-3.9Z"/><path d="m259.2,193.15v.09l2.7,5.01-2.97.75-3.37-6.3v-3.33h28.82v3.77h-25.18Z"/><path d="m436.73,218.9l-30.37,9.91v-4.24l14.96-4.73c4.1-1.31,7.8-2.43,11.36-3.24v-.09c-3.51-.86-7.35-2.12-11.31-3.47l-15.01-5.14v-4.19l30.37,10.86v4.33Z"/><path d="m411.14,193.21v.09l2.75,5.09-3.02.77-3.42-6.4v-3.38h29.29v3.83h-25.6Z"/><path d="m588.6,233.59l-30.37,7.71v-4.15l15.37-3.61c3.79-.9,7.57-1.71,10.5-2.25v-.09c-3.02-.5-6.62-1.44-10.54-2.48l-15.32-4.06v-4.1l15.41-3.69c3.61-.86,7.21-1.67,10.41-2.12v-.09c-3.33-.63-6.71-1.49-10.5-2.43l-15.32-4.01v-4.01l30.37,8.61v4.1l-15.82,3.83c-3.88.95-6.85,1.58-9.91,1.98v.09c3.02.54,5.99,1.22,9.91,2.34l15.82,4.33v4.1Z"/><path d="m563,193.21v.09l2.75,5.09-3.02.77-3.42-6.4v-3.38h29.29v3.83h-25.6Z"/><path d="m862.53,230.13c-.31-1.88-.58-4.34-.58-7.47,0-3.85.89-6.66,2.5-8.45,1.43-1.66,3.62-2.64,6.31-2.64s4.88.8,6.44,2.33c2.19,2.06,3.31,5.41,3.31,9.21,0,1.16-.04,2.24-.27,3.13h12.08v3.89h-29.79Zm14.54-3.89c.22-.85.31-1.92.31-3.22,0-4.7-2.28-7.56-6.44-7.56s-5.9,2.82-5.9,7.11c0,1.7.13,3,.31,3.67h11.72Z"/><path d="m878.18,190.72v11.72h10.87v-13.06h3.27v16.95h-30.15v-16.28h3.27v12.39h9.53v-11.72h3.22Z"/><path d="m321.52,690.13c3.38,2.16,11.23,5.55,19.49,5.55,15.29,0,20.03-9.75,19.9-17.05-.14-12.32-11.23-17.6-22.74-17.6h-6.63v-8.93h6.63c8.66,0,19.63-4.47,19.63-14.89,0-7.04-4.47-13.26-15.43-13.26-7.04,0-13.8,3.11-17.6,5.82l-3.11-8.66c4.6-3.38,13.54-6.77,23.01-6.77,17.32,0,25.18,10.29,25.18,20.98,0,9.07-5.41,16.78-16.24,20.71v.27c10.83,2.17,19.63,10.29,19.63,22.6,0,14.07-10.96,26.39-32.08,26.39-9.88,0-18.54-3.11-22.87-5.95l3.25-9.2Z"/><rect id="Base" width="1080" height="1080" opacity="0"/></g></g></svg>