<?xml version="1.0" encoding="UTF-8"?><svg id="Capa_2" xmlns="http://www.w3.org/2000/svg" viewBox="0 0 1080 1080"><g id="Capa_1-2"><g id="Multifilar_-_Flanco_negativo"><line x1="158" y1="540" x2="389.11" y2="540" fill="none" stroke="#000" stroke-miterlimit="10" stroke-width="5"/><line x1="694.71" y1="540" x2="922" y2="540" fill="none" stroke="#000" stroke-miterlimit="10" stroke-width="5"/><line x1="385.29" y1="463.6" x2="385.29" y2="616.4" fill="none" stroke="#000" stroke-miterlimit="10" stroke-width="5"/><line x1="694.71" y1="463.6" x2="694.71" y2="616.4" fill="none" stroke="#000" stroke-miterlimit="10" stroke-width="5"/><path d="m512.32,576.88v-73.76h10.39l23.64,37.32c5.47,8.65,9.74,16.42,13.24,23.97l.22-.11c-.88-9.85-1.1-18.83-1.1-30.31v-30.86h8.97v73.76h-9.63l-23.42-37.42c-5.14-8.21-10.06-16.64-13.78-24.62l-.33.11c.55,9.3.77,18.16.77,30.42v31.52h-8.97Z"/><rect id="Base" width="1080" height="1080" opacity="0"/></g></g></svg>