<?xml version="1.0" encoding="UTF-8"?><svg id="Capa_2" xmlns="http://www.w3.org/2000/svg" viewBox="0 0 1080 1080"><g id="Capa_1-2"><g id="Multifilar_-_Contador_tipo_JK_Sincrono_Decendente"><g id="Multifilar_-_Biestable_o_flip-flop_tipo_JK_sincrono"><rect x="123.88" y="463.47" width="80.39" height="133.99" fill="none" stroke="#000" stroke-miterlimit="10" stroke-width="5"/><line x1="43.99" y1="490.27" x2="123.55" y2="490.27" fill="none" stroke="#000" stroke-miterlimit="10" stroke-width="5"/><line x1="204.27" y1="490.27" x2="391.85" y2="490.27" fill="none" stroke="#000" stroke-miterlimit="10" stroke-width="5"/><line x1="204.27" y1="570.41" x2="231.07" y2="570.41" fill="none" stroke="#000" stroke-miterlimit="10" stroke-width="5"/><line x1="96.86" y1="570.41" x2="123.55" y2="570.41" fill="none" stroke="#000" stroke-miterlimit="10" stroke-width="5"/><line x1="43.99" y1="530.47" x2="123.55" y2="530.47" fill="none" stroke="#000" stroke-miterlimit="10" stroke-width="5"/><polygon points="136.78 530.47 124.05 523.87 124.05 537.07 136.78 530.47" fill="none" stroke="#000" stroke-miterlimit="10" stroke-width="5"/><path d="m138.14,483.57h1.7v8.82c0,3.5-1.72,4.58-3.99,4.58-.63,0-1.39-.14-1.82-.31l.25-1.39c.35.14.86.25,1.43.25,1.53,0,2.42-.68,2.42-3.27v-8.68Z"/><path d="m132.21,563.96h1.73v6.46h.06c.36-.52.72-.99,1.05-1.43l4.1-5.03h2.15l-4.85,5.69,5.23,7.71h-2.05l-4.41-6.58-1.27,1.47v5.11h-1.73v-13.4Z"/><path d="m152.94,536.44c-.61.31-1.84.61-3.41.61-3.64,0-6.38-2.3-6.38-6.53s2.74-6.78,6.74-6.78c1.61,0,2.62.34,3.07.57l-.4,1.36c-.63-.31-1.53-.54-2.61-.54-3.03,0-5.04,1.94-5.04,5.33,0,3.16,1.82,5.19,4.96,5.19,1.01,0,2.05-.21,2.72-.54l.34,1.32Z"/><path d="m155.04,523.95h1.67v11.51h5.52v1.4h-7.18v-12.91Z"/><path d="m164.08,523.95h1.67v6.23h.06c.35-.5.69-.96,1.02-1.38l3.95-4.85h2.07l-4.67,5.48,5.04,7.43h-1.97l-4.25-6.34-1.23,1.42v4.92h-1.67v-12.91Z"/><path d="m195.4,496.97c-1.56-.41-3.08-.87-4.41-1.33-.24-.09-.48-.17-.7-.17-2.73-.1-5.08-2.12-5.08-5.83s2.26-6.07,5.37-6.07,5.16,2.43,5.16,5.83c0,2.96-1.37,4.85-3.28,5.52v.07c1.15.29,2.39.56,3.37.74l-.43,1.25Zm-1.23-7.5c0-2.31-1.2-4.68-3.64-4.68s-3.74,2.32-3.73,4.82c-.02,2.44,1.33,4.65,3.66,4.65s3.71-2.15,3.71-4.78Z"/><path d="m195.3,578.03c-1.55-.41-3.06-.87-4.38-1.32-.24-.08-.48-.17-.7-.17-2.72-.1-5.04-2.1-5.04-5.79s2.24-6.02,5.33-6.02,5.13,2.41,5.13,5.79c0,2.94-1.36,4.82-3.26,5.48v.07c1.14.29,2.38.56,3.34.73l-.42,1.24Zm-1.22-7.45c0-2.29-1.19-4.65-3.61-4.65s-3.72,2.31-3.7,4.79c-.02,2.43,1.32,4.62,3.63,4.62s3.68-2.14,3.68-4.75Z"/><line x1="185.09" y1="563.43" x2="195.81" y2="563.43" fill="none" stroke="#000" stroke-miterlimit="10" stroke-width="2"/></g><g id="Multifilar_-_Biestable_o_flip-flop_tipo_JK_sincrono-2"><rect x="391.85" y="463.47" width="80.39" height="133.99" fill="none" stroke="#000" stroke-miterlimit="10" stroke-width="5"/><line x1="472.25" y1="490.27" x2="525.34" y2="490.27" fill="none" stroke="#000" stroke-miterlimit="10" stroke-width="5"/><line x1="472.25" y1="570.41" x2="499.04" y2="570.41" fill="none" stroke="#000" stroke-miterlimit="10" stroke-width="5"/><line x1="364.72" y1="570.41" x2="391.52" y2="570.41" fill="none" stroke="#000" stroke-miterlimit="10" stroke-width="5"/><line x1="337.76" y1="530.47" x2="391.52" y2="530.47" fill="none" stroke="#000" stroke-miterlimit="10" stroke-width="5"/><polygon points="404.75 530.47 392.02 523.87 392.02 537.07 404.75 530.47" fill="none" stroke="#000" stroke-miterlimit="10" stroke-width="5"/><path d="m406.11,483.57h1.7v8.82c0,3.5-1.72,4.58-3.99,4.58-.63,0-1.39-.14-1.82-.31l.25-1.39c.35.14.86.25,1.43.25,1.53,0,2.42-.68,2.42-3.27v-8.68Z"/><path d="m400.18,563.96h1.73v6.46h.06c.36-.52.72-.99,1.05-1.43l4.1-5.03h2.15l-4.85,5.69,5.23,7.71h-2.05l-4.41-6.58-1.27,1.47v5.11h-1.73v-13.4Z"/><path d="m420.91,536.44c-.61.31-1.84.61-3.41.61-3.64,0-6.38-2.3-6.38-6.53s2.74-6.78,6.74-6.78c1.61,0,2.62.34,3.07.57l-.4,1.36c-.63-.31-1.53-.54-2.61-.54-3.03,0-5.04,1.94-5.04,5.33,0,3.16,1.82,5.19,4.96,5.19,1.01,0,2.05-.21,2.72-.54l.34,1.32Z"/><path d="m423.01,523.95h1.67v11.51h5.52v1.4h-7.18v-12.91Z"/><path d="m432.06,523.95h1.67v6.23h.06c.35-.5.69-.96,1.02-1.38l3.95-4.85h2.07l-4.67,5.48,5.04,7.43h-1.97l-4.25-6.34-1.23,1.42v4.92h-1.67v-12.91Z"/><path d="m463.38,496.97c-1.56-.41-3.08-.87-4.41-1.33-.24-.09-.48-.17-.7-.17-2.73-.1-5.08-2.12-5.08-5.83s2.26-6.07,5.37-6.07,5.16,2.43,5.16,5.83c0,2.96-1.37,4.85-3.28,5.52v.07c1.15.29,2.39.56,3.37.74l-.43,1.25Zm-1.23-7.5c0-2.31-1.2-4.68-3.64-4.68s-3.74,2.32-3.73,4.82c-.02,2.44,1.33,4.65,3.66,4.65s3.71-2.15,3.71-4.78Z"/><path d="m463.27,578.03c-1.55-.41-3.06-.87-4.38-1.32-.24-.08-.48-.17-.7-.17-2.72-.1-5.04-2.1-5.04-5.79s2.24-6.02,5.33-6.02,5.13,2.41,5.13,5.79c0,2.94-1.36,4.82-3.26,5.48v.07c1.14.29,2.38.56,3.34.73l-.42,1.24Zm-1.22-7.45c0-2.29-1.19-4.65-3.61-4.65s-3.72,2.31-3.7,4.79c-.02,2.43,1.32,4.62,3.63,4.62s3.68-2.14,3.68-4.75Z"/><line x1="453.07" y1="563.43" x2="463.78" y2="563.43" fill="none" stroke="#000" stroke-miterlimit="10" stroke-width="2"/></g><g id="Multifilar_-_Biestable_o_flip-flop_tipo_JK_sincrono-3"><rect x="659.83" y="463.47" width="80.39" height="133.99" fill="none" stroke="#000" stroke-miterlimit="10" stroke-width="5"/><line x1="646.09" y1="490.27" x2="659.49" y2="490.27" fill="none" stroke="#000" stroke-miterlimit="10" stroke-width="5"/><line x1="740.22" y1="490.27" x2="793.48" y2="490.27" fill="none" stroke="#000" stroke-miterlimit="10" stroke-width="5"/><line x1="740.22" y1="570.41" x2="767.01" y2="570.41" fill="none" stroke="#000" stroke-miterlimit="10" stroke-width="5"/><line x1="646.09" y1="570.41" x2="659.49" y2="570.41" fill="none" stroke="#000" stroke-miterlimit="10" stroke-width="5"/><line x1="605.73" y1="530.47" x2="659.49" y2="530.47" fill="none" stroke="#000" stroke-miterlimit="10" stroke-width="5"/><polygon points="672.72 530.47 659.99 523.87 659.99 537.07 672.72 530.47" fill="none" stroke="#000" stroke-miterlimit="10" stroke-width="5"/><path d="m674.08,483.57h1.7v8.82c0,3.5-1.72,4.58-3.99,4.58-.63,0-1.39-.14-1.82-.31l.25-1.39c.35.14.86.25,1.43.25,1.53,0,2.42-.68,2.42-3.27v-8.68Z"/><path d="m668.15,563.96h1.73v6.46h.06c.36-.52.72-.99,1.05-1.43l4.1-5.03h2.15l-4.85,5.69,5.23,7.71h-2.05l-4.41-6.58-1.27,1.47v5.11h-1.73v-13.4Z"/><path d="m688.89,536.44c-.61.31-1.84.61-3.41.61-3.64,0-6.38-2.3-6.38-6.53s2.74-6.78,6.74-6.78c1.61,0,2.62.34,3.07.57l-.4,1.36c-.63-.31-1.53-.54-2.61-.54-3.03,0-5.04,1.94-5.04,5.33,0,3.16,1.82,5.19,4.96,5.19,1.01,0,2.05-.21,2.72-.54l.34,1.32Z"/><path d="m690.98,523.95h1.67v11.51h5.52v1.4h-7.18v-12.91Z"/><path d="m700.03,523.95h1.67v6.23h.06c.35-.5.69-.96,1.02-1.38l3.95-4.85h2.07l-4.67,5.48,5.04,7.43h-1.97l-4.25-6.34-1.23,1.42v4.92h-1.67v-12.91Z"/><path d="m731.35,496.97c-1.56-.41-3.08-.87-4.41-1.33-.24-.09-.48-.17-.7-.17-2.73-.1-5.08-2.12-5.08-5.83s2.26-6.07,5.37-6.07,5.16,2.43,5.16,5.83c0,2.96-1.37,4.85-3.28,5.52v.07c1.15.29,2.39.56,3.37.74l-.43,1.25Zm-1.23-7.5c0-2.31-1.2-4.68-3.64-4.68s-3.74,2.32-3.73,4.82c-.02,2.44,1.33,4.65,3.66,4.65s3.71-2.15,3.71-4.78Z"/><path d="m731.24,578.03c-1.55-.41-3.06-.87-4.38-1.32-.24-.08-.48-.17-.7-.17-2.72-.1-5.04-2.1-5.04-5.79s2.24-6.02,5.33-6.02,5.13,2.41,5.13,5.79c0,2.94-1.36,4.82-3.26,5.48v.07c1.14.29,2.38.56,3.34.73l-.42,1.24Zm-1.22-7.45c0-2.29-1.19-4.65-3.61-4.65s-3.72,2.31-3.7,4.79c-.02,2.43,1.32,4.62,3.63,4.62s3.68-2.14,3.68-4.75Z"/><line x1="721.04" y1="563.43" x2="731.76" y2="563.43" fill="none" stroke="#000" stroke-miterlimit="10" stroke-width="2"/></g><g id="Multifilar_-_Biestable_o_flip-flop_tipo_JK_sincrono-4"><rect x="927.8" y="463.47" width="80.39" height="133.99" fill="none" stroke="#000" stroke-miterlimit="10" stroke-width="5"/><line x1="914.06" y1="490.27" x2="927.46" y2="490.27" fill="none" stroke="#000" stroke-miterlimit="10" stroke-width="5"/><line x1="1008.19" y1="490.27" x2="1035.07" y2="490.27" fill="none" stroke="#000" stroke-miterlimit="10" stroke-width="5"/><line x1="1008.19" y1="570.41" x2="1035.07" y2="570.41" fill="none" stroke="#000" stroke-miterlimit="10" stroke-width="5"/><line x1="914.06" y1="570.41" x2="927.46" y2="570.41" fill="none" stroke="#000" stroke-miterlimit="10" stroke-width="5"/><line x1="873.7" y1="530.47" x2="927.46" y2="530.47" fill="none" stroke="#000" stroke-miterlimit="10" stroke-width="5"/><polygon points="940.69 530.47 927.96 523.87 927.96 537.07 940.69 530.47" fill="none" stroke="#000" stroke-miterlimit="10" stroke-width="5"/><path d="m942.06,483.57h1.7v8.82c0,3.5-1.72,4.58-3.99,4.58-.63,0-1.39-.14-1.82-.31l.25-1.39c.35.14.86.25,1.43.25,1.53,0,2.42-.68,2.42-3.27v-8.68Z"/><path d="m936.12,563.96h1.73v6.46h.06c.36-.52.72-.99,1.05-1.43l4.1-5.03h2.15l-4.85,5.69,5.23,7.71h-2.05l-4.41-6.58-1.27,1.47v5.11h-1.73v-13.4Z"/><path d="m956.86,536.44c-.61.31-1.84.61-3.41.61-3.64,0-6.38-2.3-6.38-6.53s2.74-6.78,6.74-6.78c1.61,0,2.62.34,3.07.57l-.4,1.36c-.63-.31-1.53-.54-2.61-.54-3.03,0-5.04,1.94-5.04,5.33,0,3.16,1.82,5.19,4.96,5.19,1.01,0,2.05-.21,2.72-.54l.34,1.32Z"/><path d="m958.95,523.95h1.67v11.51h5.52v1.4h-7.18v-12.91Z"/><path d="m968,523.95h1.67v6.23h.06c.35-.5.69-.96,1.02-1.38l3.95-4.85h2.07l-4.67,5.48,5.04,7.43h-1.97l-4.25-6.34-1.23,1.42v4.92h-1.67v-12.91Z"/><path d="m999.32,496.97c-1.56-.41-3.08-.87-4.41-1.33-.24-.09-.48-.17-.7-.17-2.73-.1-5.08-2.12-5.08-5.83s2.26-6.07,5.37-6.07,5.16,2.43,5.16,5.83c0,2.96-1.37,4.85-3.28,5.52v.07c1.15.29,2.39.56,3.37.74l-.43,1.25Zm-1.23-7.5c0-2.31-1.2-4.68-3.64-4.68s-3.74,2.32-3.73,4.82c-.02,2.44,1.33,4.65,3.66,4.65s3.71-2.15,3.71-4.78Z"/><path d="m999.21,578.03c-1.55-.41-3.06-.87-4.38-1.32-.24-.08-.48-.17-.7-.17-2.72-.1-5.04-2.1-5.04-5.79s2.24-6.02,5.33-6.02,5.13,2.41,5.13,5.79c0,2.94-1.36,4.82-3.26,5.48v.07c1.14.29,2.38.56,3.34.73l-.42,1.24Zm-1.22-7.45c0-2.29-1.19-4.65-3.61-4.65s-3.72,2.31-3.7,4.79c-.02,2.43,1.32,4.62,3.63,4.62s3.68-2.14,3.68-4.75Z"/><line x1="989.01" y1="563.43" x2="999.73" y2="563.43" fill="none" stroke="#000" stroke-miterlimit="10" stroke-width="2"/></g><line x1="257.53" y1="490.27" x2="257.53" y2="396.6" fill="none" stroke="#000" stroke-miterlimit="10" stroke-width="5"/><line x1="525.34" y1="490.27" x2="525.34" y2="450.39" fill="none" stroke="#000" stroke-miterlimit="10" stroke-width="5"/><line x1="793.48" y1="490.27" x2="793.48" y2="450.39" fill="none" stroke="#000" stroke-miterlimit="10" stroke-width="5"/><path d="m238.13,691.25c-3.12-.82-6.16-1.75-8.84-2.67-.48-.17-.96-.34-1.4-.34-5.48-.21-10.17-4.25-10.17-11.68s4.52-12.16,10.75-12.16,10.34,4.86,10.34,11.68c0,5.92-2.74,9.72-6.57,11.06v.14c2.29.58,4.79,1.13,6.75,1.47l-.86,2.5Zm-2.47-15.03c0-4.62-2.4-9.38-7.29-9.38s-7.5,4.66-7.46,9.66c-.03,4.9,2.67,9.31,7.33,9.31s7.43-4.31,7.43-9.59Z"/><path d="m246.96,679.54h-.04l-2.33,1.26-.35-1.38,2.93-1.57h1.55v13.4h-1.75v-11.71Z"/><path d="m506.1,691.25c-3.12-.82-6.16-1.75-8.84-2.67-.48-.17-.96-.34-1.4-.34-5.48-.21-10.17-4.25-10.17-11.68s4.52-12.16,10.75-12.16,10.34,4.86,10.34,11.68c0,5.92-2.74,9.72-6.57,11.06v.14c2.29.58,4.79,1.13,6.75,1.47l-.86,2.5Zm-2.47-15.03c0-4.62-2.4-9.38-7.29-9.38s-7.5,4.66-7.46,9.66c-.03,4.9,2.67,9.31,7.33,9.31s7.43-4.31,7.43-9.59Z"/><path d="m774.08,691.25c-3.12-.82-6.16-1.75-8.84-2.67-.48-.17-.96-.34-1.4-.34-5.48-.21-10.17-4.25-10.17-11.68s4.52-12.16,10.75-12.16,10.34,4.86,10.34,11.68c0,5.92-2.74,9.72-6.57,11.06v.14c2.29.58,4.79,1.13,6.75,1.47l-.86,2.5Zm-2.47-15.03c0-4.62-2.4-9.38-7.29-9.38s-7.5,4.66-7.46,9.66c-.03,4.9,2.67,9.31,7.33,9.31s7.43-4.31,7.43-9.59Z"/><path d="m1042.05,691.25c-3.12-.82-6.16-1.75-8.84-2.67-.48-.17-.96-.34-1.4-.34-5.48-.21-10.17-4.25-10.17-11.68s4.52-12.16,10.75-12.16,10.34,4.86,10.34,11.68c0,5.92-2.74,9.72-6.57,11.06v.14c2.29.58,4.79,1.13,6.75,1.47l-.86,2.5Zm-2.47-15.03c0-4.62-2.4-9.38-7.29-9.38s-7.5,4.66-7.46,9.66c-.03,4.9,2.67,9.31,7.33,9.31s7.43-4.31,7.43-9.59Z"/><path d="m512.26,691.25v-1.08l1.38-1.34c3.31-3.15,4.81-4.82,4.82-6.78,0-1.32-.64-2.53-2.57-2.53-1.18,0-2.15.6-2.75,1.1l-.56-1.24c.9-.76,2.17-1.32,3.67-1.32,2.79,0,3.97,1.91,3.97,3.77,0,2.39-1.73,4.33-4.47,6.96l-1.04.96v.04h5.82v1.46h-8.27Z"/><path d="m780.51,689.02c.5.32,1.65.82,2.87.82,2.25,0,2.95-1.44,2.93-2.51-.02-1.82-1.65-2.59-3.35-2.59h-.98v-1.32h.98c1.28,0,2.89-.66,2.89-2.19,0-1.04-.66-1.95-2.27-1.95-1.04,0-2.03.46-2.59.86l-.46-1.28c.68-.5,1.99-1,3.39-1,2.55,0,3.71,1.51,3.71,3.09,0,1.34-.8,2.47-2.39,3.05v.04c1.59.32,2.89,1.52,2.89,3.33,0,2.07-1.61,3.89-4.72,3.89-1.45,0-2.73-.46-3.37-.88l.48-1.36Z"/><path d="m1054.41,691.25v-3.65h-6.23v-1.2l5.98-8.55h1.96v8.33h1.87v1.42h-1.87v3.65h-1.71Zm0-5.07v-4.47c0-.7.02-1.4.06-2.1h-.06c-.41.78-.74,1.36-1.11,1.98l-3.28,4.56v.04h4.39Z"/><g id="Multifilar_-_AND_Y_ANSI"><line x1="257.53" y1="396.6" x2="540.05" y2="396.6" fill="none" stroke="#000" stroke-miterlimit="10" stroke-width="5"/><line x1="525.34" y1="450.39" x2="540.05" y2="450.39" fill="none" stroke="#000" stroke-miterlimit="10" stroke-width="5"/><line x1="619.77" y1="423.4" x2="646.09" y2="423.4" fill="none" stroke="#000" stroke-miterlimit="10" stroke-width="5"/><path d="m592.97,463.59h-53.26v-80.39h53.26c16.1,6.5,27.47,21.76,27.47,40.2s-11.36,33.7-27.47,40.2Z" fill="none" stroke="#000" stroke-miterlimit="10" stroke-width="5"/></g><g id="Multifilar_-_AND_Y_ANSI-2"><line x1="646.09" y1="396.6" x2="808.02" y2="396.6" fill="none" stroke="#000" stroke-miterlimit="10" stroke-width="5"/><line x1="793.31" y1="450.39" x2="808.02" y2="450.39" fill="none" stroke="#000" stroke-miterlimit="10" stroke-width="5"/><line x1="887.74" y1="423.4" x2="914.06" y2="423.4" fill="none" stroke="#000" stroke-miterlimit="10" stroke-width="5"/><path d="m860.94,463.59h-53.26v-80.39h53.26c16.1,6.5,27.47,21.76,27.47,40.2s-11.36,33.7-27.47,40.2Z" fill="none" stroke="#000" stroke-miterlimit="10" stroke-width="5"/></g><line x1="646.09" y1="396.6" x2="646.09" y2="570.41" fill="none" stroke="#000" stroke-miterlimit="10" stroke-width="5"/><line x1="914.06" y1="423.4" x2="914.06" y2="570.41" fill="none" stroke="#000" stroke-miterlimit="10" stroke-width="5"/><line x1="70.46" y1="623.92" x2="873.7" y2="623.92" fill="none" stroke="#000" stroke-miterlimit="10" stroke-width="5"/><line x1="873.7" y1="530.47" x2="873.7" y2="623.92" fill="none" stroke="#000" stroke-miterlimit="10" stroke-width="5"/><line x1="605.73" y1="530.47" x2="605.73" y2="623.92" fill="none" stroke="#000" stroke-miterlimit="10" stroke-width="5"/><line x1="337.76" y1="530.47" x2="337.76" y2="623.92" fill="none" stroke="#000" stroke-miterlimit="10" stroke-width="5"/><line x1="70.46" y1="530.47" x2="70.46" y2="623.92" fill="none" stroke="#000" stroke-miterlimit="10" stroke-width="5"/><g id="Unifilar_-_Unión_punto_de_conexión"><circle id="Union_punto_de_conexión" cx="70.12" cy="530.47" r="6.7"/></g><g id="Unifilar_-_Unión_punto_de_conexión-2"><circle id="Union_punto_de_conexión-2" cx="257.7" cy="490.27" r="6.7"/></g><g id="Unifilar_-_Unión_punto_de_conexión-3"><circle id="Union_punto_de_conexión-3" cx="606.06" cy="624.26" r="6.7"/></g><g id="Unifilar_-_Unión_punto_de_conexión-4"><circle id="Union_punto_de_conexión-4" cx="337.42" cy="623.59" r="6.7"/></g><g id="Unifilar_-_Unión_punto_de_conexión-5"><circle id="Union_punto_de_conexión-5" cx="646.26" cy="423.28" r="6.7"/></g><g id="Multifilar_-_Entrada_Lógica"><rect x="3.27" y="517.07" width="40.2" height="26.8" fill="none" stroke="#000" stroke-miterlimit="10" stroke-width="5"/><path d="m27.72,530.33c0,4.36-1.62,6.77-4.46,6.77-2.51,0-4.21-2.35-4.25-6.6,0-4.3,1.86-6.67,4.46-6.67s4.25,2.41,4.25,6.5Zm-6.97.2c0,3.34,1.03,5.23,2.61,5.23,1.78,0,2.63-2.07,2.63-5.35s-.81-5.23-2.61-5.23c-1.52,0-2.63,1.86-2.63,5.35Z"/></g><path d="m18.13,476.87v11.84h11.79v3.02h-11.79v11.94h-3.34v-11.94H3v-3.02h11.79v-11.84h3.34Z"/><line x1="231.07" y1="570.33" x2="231.07" y2="651.39" fill="none" stroke="#000" stroke-miterlimit="10" stroke-width="5"/><line x1="499.21" y1="570.66" x2="499.21" y2="651.72" fill="none" stroke="#000" stroke-miterlimit="10" stroke-width="5"/><line x1="766.51" y1="570.66" x2="766.51" y2="651.72" fill="none" stroke="#000" stroke-miterlimit="10" stroke-width="5"/><line x1="1035.07" y1="570.66" x2="1035.15" y2="651.72" fill="none" stroke="#000" stroke-miterlimit="10" stroke-width="5"/><g id="Unifilar_-_Unión_punto_de_conexión-6"><circle id="Union_punto_de_conexión-6" cx="97.09" cy="490.27" r="6.7"/></g><g id="Unifilar_-_Unión_punto_de_conexión-7"><circle id="Union_punto_de_conexión-7" cx="364.72" cy="490.27" r="6.7"/></g><g id="Unifilar_-_Unión_punto_de_conexión-8"><circle id="Union_punto_de_conexión-8" cx="914.23" cy="490.27" r="6.7"/></g><g id="Unifilar_-_Unión_punto_de_conexión-9"><circle id="Union_punto_de_conexión-9" cx="646.26" cy="490.27" r="6.7"/></g><line x1="96.86" y1="490.27" x2="96.86" y2="570.37" fill="none" stroke="#000" stroke-miterlimit="10" stroke-width="5"/><line x1="364.72" y1="570.37" x2="364.72" y2="490.27" fill="none" stroke="#000" stroke-miterlimit="10" stroke-width="5"/><rect id="Base" width="1080" height="1080" opacity="0"/></g></g></svg>