<?xml version="1.0" encoding="UTF-8"?><svg id="Capa_2" xmlns="http://www.w3.org/2000/svg" viewBox="0 0 1080 1080"><g id="Capa_1-2"><g id="Multifilar_-_Grupos_de_conexion_estrella_Y_"><g id="Multifilar_-_Bobina_o_inductor_en_general_"><path d="m372,790.09c-9.1-9.1-23.87-9.1-32.97,0-9.1,9.1-9.1,23.87,0,32.97" fill="none" stroke="#000" stroke-miterlimit="10" stroke-width="5"/><path d="m404.93,757.15c-9.1-9.1-23.87-9.1-32.97,0-9.1,9.1-9.1,23.87,0,32.97" fill="none" stroke="#000" stroke-miterlimit="10" stroke-width="5"/><path d="m437.87,724.21c-9.1-9.1-23.87-9.1-32.97,0-9.1,9.1-9.1,23.87,0,32.97" fill="none" stroke="#000" stroke-miterlimit="10" stroke-width="5"/><path d="m470.81,691.27c-9.1-9.1-23.87-9.1-32.97,0-9.1,9.1-9.1,23.87,0,32.97" fill="none" stroke="#000" stroke-miterlimit="10" stroke-width="5"/><line x1="537.03" y1="625.7" x2="471.13" y2="691.59" fill="none" stroke="#000" stroke-miterlimit="10" stroke-width="5"/><line x1="339.68" y1="823.71" x2="273.78" y2="889.6" fill="none" stroke="#000" stroke-miterlimit="10" stroke-width="5"/></g><g id="Multifilar_-_Bobina_o_inductor_en_general_-2"><path d="m706.47,790.73c-9.1,9.1-9.1,23.87,0,32.97s23.87,9.1,32.97,0" fill="none" stroke="#000" stroke-miterlimit="10" stroke-width="5"/><path d="m673.53,757.79c-9.1,9.1-9.1,23.87,0,32.97,9.1,9.1,23.87,9.1,32.97,0" fill="none" stroke="#000" stroke-miterlimit="10" stroke-width="5"/><path d="m640.6,724.86c-9.1,9.1-9.1,23.87,0,32.97s23.87,9.1,32.97,0" fill="none" stroke="#000" stroke-miterlimit="10" stroke-width="5"/><path d="m607.66,691.92c-9.1,9.1-9.1,23.87,0,32.97,9.1,9.1,23.87,9.1,32.97,0" fill="none" stroke="#000" stroke-miterlimit="10" stroke-width="5"/><line x1="542.09" y1="625.7" x2="607.98" y2="691.59" fill="none" stroke="#000" stroke-miterlimit="10" stroke-width="5"/><line x1="740.1" y1="823.05" x2="805.99" y2="888.94" fill="none" stroke="#000" stroke-miterlimit="10" stroke-width="5"/></g><g id="Unifilar_-_Unión_punto_de_conexión"><circle id="Union_punto_de_conexión" cx="540.35" cy="626.13" r="9.32"/></g><g id="Multifilar_-_Bobina_o_inductor_en_general_-3"><path d="m539.47,483.58c-12.88,0-23.31,10.44-23.31,23.31s10.44,23.31,23.31,23.31" fill="none" stroke="#000" stroke-miterlimit="10" stroke-width="5"/><path d="m539.47,437c-12.88,0-23.31,10.44-23.31,23.31s10.44,23.31,23.31,23.31" fill="none" stroke="#000" stroke-miterlimit="10" stroke-width="5"/><path d="m539.47,390.42c-12.88,0-23.31,10.44-23.31,23.31s10.44,23.31,23.31,23.31" fill="none" stroke="#000" stroke-miterlimit="10" stroke-width="5"/><path d="m539.47,343.84c-12.88,0-23.31,10.44-23.31,23.31s10.44,23.31,23.31,23.31" fill="none" stroke="#000" stroke-miterlimit="10" stroke-width="5"/><line x1="539.93" y1="250.65" x2="539.93" y2="343.84" fill="none" stroke="#000" stroke-miterlimit="10" stroke-width="5"/><line x1="540.39" y1="530.21" x2="540.39" y2="623.4" fill="none" stroke="#000" stroke-miterlimit="10" stroke-width="5"/></g><g id="Multifilar_-_Terminal_o_punto_de_conexión"><circle id="Terminal" cx="540.82" cy="231.49" r="18.64" fill="none" stroke="#000" stroke-miterlimit="10" stroke-width="5"/></g><g id="Multifilar_-_Terminal_o_punto_de_conexión-2"><circle id="Terminal-2" cx="820.38" cy="902.43" r="18.64" fill="none" stroke="#000" stroke-miterlimit="10" stroke-width="5"/></g><g id="Multifilar_-_Terminal_o_punto_de_conexión-3"><circle id="Terminal-3" cx="260.33" cy="903.36" r="18.64" fill="none" stroke="#000" stroke-miterlimit="10" stroke-width="5"/></g><path d="m520.87,158h4.73v32.7h15.67v3.97h-20.41v-36.68Z"/><path d="m555.28,163.77h-.11l-6.15,3.32-.93-3.65,7.73-4.14h4.08v35.37h-4.63v-30.91Z"/><path d="m158.17,885.32h4.73v32.7h15.67v3.97h-20.41v-36.68Z"/><path d="m182.18,922v-2.94l3.76-3.65c9.03-8.6,13.12-13.17,13.17-18.5,0-3.59-1.74-6.91-7.02-6.91-3.21,0-5.88,1.63-7.51,2.99l-1.52-3.37c2.45-2.07,5.93-3.59,10.01-3.59,7.62,0,10.83,5.22,10.83,10.28,0,6.53-4.73,11.81-12.19,18.99l-2.83,2.61v.11h15.89v3.97h-22.58Z"/><path d="m875.89,884.73h4.73v32.7h15.67v3.97h-20.41v-36.68Z"/><path d="m901.04,915.91c1.36.87,4.52,2.23,7.84,2.23,6.15,0,8.05-3.92,8-6.86-.06-4.95-4.52-7.07-9.14-7.07h-2.67v-3.59h2.67c3.48,0,7.89-1.79,7.89-5.99,0-2.83-1.8-5.33-6.2-5.33-2.83,0-5.55,1.25-7.07,2.34l-1.25-3.48c1.85-1.36,5.44-2.72,9.25-2.72,6.97,0,10.12,4.14,10.12,8.43,0,3.65-2.18,6.75-6.53,8.33v.11c4.35.87,7.89,4.13,7.89,9.09,0,5.66-4.41,10.61-12.9,10.61-3.97,0-7.45-1.25-9.2-2.39l1.3-3.7Z"/><rect id="Base" width="1080" height="1080" opacity="0"/></g></g></svg>