<?xml version="1.0" encoding="UTF-8"?><svg id="Capa_2" xmlns="http://www.w3.org/2000/svg" viewBox="0 0 1080 1080"><g id="Capa_1-2"><g id="Multifilar_-_Grupos_de_conexion_triangulo_D_"><g id="Multifilar_-_Bobina_o_inductor_en_general_"><path d="m491.37,754.2c0-13.54-10.98-24.52-24.52-24.52s-24.52,10.98-24.52,24.52" fill="none" stroke="#000" stroke-miterlimit="10" stroke-width="5"/><path d="m540.37,754.2c0-13.54-10.98-24.52-24.52-24.52s-24.52,10.98-24.52,24.52" fill="none" stroke="#000" stroke-miterlimit="10" stroke-width="5"/><path d="m589.36,754.2c0-13.54-10.98-24.52-24.52-24.52s-24.52,10.98-24.52,24.52" fill="none" stroke="#000" stroke-miterlimit="10" stroke-width="5"/><path d="m638.36,754.2c0-13.54-10.98-24.52-24.52-24.52s-24.52,10.98-24.52,24.52" fill="none" stroke="#000" stroke-miterlimit="10" stroke-width="5"/><line x1="736.37" y1="754.69" x2="638.36" y2="754.69" fill="none" stroke="#000" stroke-miterlimit="10" stroke-width="5"/><line x1="442.33" y1="755.18" x2="344.32" y2="755.18" fill="none" stroke="#000" stroke-miterlimit="10" stroke-width="5"/></g><g id="Multifilar_-_Bobina_o_inductor_en_general_-2"><path d="m614.56,542.61c11.74-6.76,15.78-21.75,9.02-33.49-6.76-11.74-21.75-15.78-33.49-9.02" fill="none" stroke="#000" stroke-miterlimit="10" stroke-width="5"/><path d="m639,585.07c11.74-6.76,15.78-21.75,9.02-33.49-6.76-11.74-21.75-15.78-33.49-9.02" fill="none" stroke="#000" stroke-miterlimit="10" stroke-width="5"/><path d="m663.45,627.53c11.74-6.76,15.78-21.75,9.02-33.49-6.76-11.74-21.75-15.78-33.49-9.02" fill="none" stroke="#000" stroke-miterlimit="10" stroke-width="5"/><path d="m687.89,669.99c11.74-6.76,15.78-21.75,9.02-33.49-6.76-11.74-21.75-15.78-33.49-9.02" fill="none" stroke="#000" stroke-miterlimit="10" stroke-width="5"/><line x1="736.37" y1="755.18" x2="687.47" y2="670.23" fill="none" stroke="#000" stroke-miterlimit="10" stroke-width="5"/><line x1="589.25" y1="500.59" x2="540.36" y2="415.64" fill="none" stroke="#000" stroke-miterlimit="10" stroke-width="5"/></g><g id="Multifilar_-_Bobina_o_inductor_en_general_-3"><path d="m466.12,542.61c-11.74-6.76-15.78-21.75-9.02-33.49,6.76-11.74,21.75-15.78,33.49-9.02" fill="none" stroke="#000" stroke-miterlimit="10" stroke-width="5"/><path d="m441.68,585.07c-11.74-6.76-15.78-21.75-9.02-33.49s21.75-15.78,33.49-9.02" fill="none" stroke="#000" stroke-miterlimit="10" stroke-width="5"/><path d="m417.24,627.53c-11.74-6.76-15.78-21.75-9.02-33.49,6.76-11.74,21.75-15.78,33.49-9.02" fill="none" stroke="#000" stroke-miterlimit="10" stroke-width="5"/><path d="m392.8,669.99c-11.74-6.76-15.78-21.75-9.02-33.49,6.76-11.74,21.75-15.78,33.49-9.02" fill="none" stroke="#000" stroke-miterlimit="10" stroke-width="5"/><line x1="344.32" y1="755.18" x2="393.21" y2="670.23" fill="none" stroke="#000" stroke-miterlimit="10" stroke-width="5"/><line x1="491.43" y1="500.59" x2="540.33" y2="415.64" fill="none" stroke="#000" stroke-miterlimit="10" stroke-width="5"/></g><line x1="800.36" y1="819.17" x2="735.91" y2="754.71" fill="none" stroke="#000" stroke-miterlimit="10" stroke-width="5"/><line x1="280.38" y1="818.82" x2="344.83" y2="754.37" fill="none" stroke="#000" stroke-miterlimit="10" stroke-width="5"/><line x1="540.37" y1="415.56" x2="540.37" y2="324.4" fill="none" stroke="#000" stroke-miterlimit="10" stroke-width="5"/><g id="Unifilar_-_Unión_punto_de_conexión"><circle id="Union_punto_de_conexión" cx="735.42" cy="754.09" r="9.8"/></g><g id="Unifilar_-_Unión_punto_de_conexión-2"><circle id="Union_punto_de_conexión-2" cx="345.33" cy="754.09" r="9.8"/></g><g id="Unifilar_-_Unión_punto_de_conexión-3"><circle id="Union_punto_de_conexión-3" cx="540.37" cy="416.92" r="9.8"/></g><g id="Multifilar_-_Terminal_o_punto_de_conexión"><circle id="Terminal" cx="540.37" cy="304.7" r="19.6" fill="none" stroke="#000" stroke-miterlimit="10" stroke-width="5"/></g><g id="Multifilar_-_Terminal_o_punto_de_conexión-2"><circle id="Terminal-2" cx="815.3" cy="833.97" r="19.6" fill="none" stroke="#000" stroke-miterlimit="10" stroke-width="5"/></g><g id="Multifilar_-_Terminal_o_punto_de_conexión-3"><circle id="Terminal-3" cx="265.44" cy="833.97" r="19.6" fill="none" stroke="#000" stroke-miterlimit="10" stroke-width="5"/></g><path d="m519.88,226.43h4.98v34.4h16.48v4.18h-21.46v-38.58Z"/><path d="m556.07,232.5h-.11l-6.47,3.49-.97-3.84,8.13-4.35h4.29v37.2h-4.87v-32.51Z"/><path d="m158,813.86h4.98v34.4h16.48v4.18h-21.46v-38.58Z"/><path d="m183.25,852.43v-3.09l3.95-3.84c9.5-9.04,13.79-13.85,13.85-19.46,0-3.78-1.83-7.27-7.38-7.27-3.38,0-6.18,1.72-7.9,3.15l-1.6-3.55c2.58-2.17,6.24-3.78,10.53-3.78,8.01,0,11.39,5.49,11.39,10.82,0,6.87-4.98,12.42-12.82,19.98l-2.98,2.75v.11h16.71v4.18h-23.75Z"/><path d="m873.68,813.54h4.98v34.4h16.48v4.18h-21.46v-38.58Z"/><path d="m900.14,846.34c1.43.92,4.75,2.35,8.24,2.35,6.47,0,8.47-4.12,8.41-7.21-.06-5.21-4.75-7.44-9.62-7.44h-2.8v-3.78h2.8c3.66,0,8.3-1.89,8.3-6.3,0-2.98-1.89-5.61-6.52-5.61-2.98,0-5.84,1.32-7.44,2.46l-1.32-3.66c1.95-1.43,5.72-2.86,9.73-2.86,7.33,0,10.65,4.35,10.65,8.87,0,3.84-2.29,7.1-6.87,8.76v.12c4.58.92,8.3,4.35,8.3,9.56,0,5.95-4.64,11.16-13.56,11.16-4.18,0-7.84-1.32-9.67-2.52l1.37-3.89Z"/><rect id="Base" width="1080" height="1080" opacity="0"/></g></g></svg>