<?xml version="1.0" encoding="UTF-8"?><svg id="Capa_2" xmlns="http://www.w3.org/2000/svg" viewBox="0 0 1080 1080"><g id="Capa_1-2"><g id="Multifilar_-_Negación"><line x1="158" y1="540" x2="389.11" y2="540" fill="none" stroke="#000" stroke-miterlimit="10" stroke-width="5"/><line x1="694.71" y1="540" x2="922" y2="540" fill="none" stroke="#000" stroke-miterlimit="10" stroke-width="5"/><line x1="385.29" y1="463.6" x2="385.29" y2="616.4" fill="none" stroke="#000" stroke-miterlimit="10" stroke-width="5"/><line x1="694.71" y1="463.6" x2="694.71" y2="616.4" fill="none" stroke="#000" stroke-miterlimit="10" stroke-width="5"/><path d="m444.25,576.99v-73.99h10.43l23.71,37.43c5.49,8.68,9.77,16.47,13.28,24.04l.22-.11c-.88-9.89-1.1-18.89-1.1-30.41v-30.96h9v73.99h-9.66l-23.49-37.54c-5.16-8.23-10.1-16.69-13.83-24.7l-.33.11c.55,9.33.77,18.22.77,30.51v31.61h-9Z"/><path d="m579.74,539.23c0,25.47-15.48,38.97-34.36,38.97s-33.26-15.15-33.26-37.54c0-23.49,14.6-38.86,34.36-38.86s33.26,15.48,33.26,37.43Zm-57.41,1.21c0,15.81,8.56,29.97,23.6,29.97s23.71-13.94,23.71-30.74c0-14.7-7.68-30.08-23.6-30.08s-23.71,14.6-23.71,30.84Z"/><path d="m603.48,511.13h-22.51v-8.12h54.78v8.12h-22.61v65.86h-9.66v-65.86Z"/><rect id="Base" width="1080" height="1080" opacity="0"/></g></g></svg>