<?xml version="1.0" encoding="UTF-8"?><svg id="Capa_2" xmlns="http://www.w3.org/2000/svg" viewBox="0 0 1080 1080"><g id="Capa_1-2"><g id="Multifilar_-_Señales_de_reloj_por_nivel_bajo"><rect x="310.8" y="158" width="611.2" height="764" fill="none" stroke="#000" stroke-miterlimit="10" stroke-width="4"/><line x1="158" y1="540" x2="234.4" y2="540" fill="none" stroke="#000" stroke-miterlimit="10" stroke-width="4"/><path d="m520.94,574.63c-3.51,1.76-10.54,3.51-19.54,3.51-20.86,0-36.55-13.17-36.55-37.43s15.7-38.86,38.64-38.86c9.22,0,15.04,1.98,17.56,3.29l-2.3,7.79c-3.62-1.76-8.78-3.07-14.93-3.07-17.34,0-28.87,11.09-28.87,30.51,0,18.11,10.43,29.75,28.43,29.75,5.82,0,11.74-1.21,15.59-3.07l1.98,7.57Z"/><path d="m532.91,503.07h9.55v65.97h31.61v8.01h-41.16v-73.98Z"/><path d="m584.72,503.07h9.55v35.67h.33c1.98-2.85,3.95-5.49,5.82-7.9l22.61-27.77h11.85l-26.78,31.39,28.87,42.59h-11.3l-24.37-36.33-7.02,8.12v28.21h-9.55v-73.98Z"/><circle cx="272.6" cy="540" r="38.2" fill="none" stroke="#000" stroke-miterlimit="10" stroke-width="4"/><rect id="Base" width="1080" height="1080" opacity="0"/></g></g></svg>