<?xml version="1.0" encoding="UTF-8"?><svg id="Capa_2" xmlns="http://www.w3.org/2000/svg" viewBox="0 0 1080 1080"><g id="Capa_1-2"><g id="Multifilar_-_Máquina_Shunt_o_Derivación"><path d="m538.93,378.34c29.22,0,57.57,5.72,84.25,17.01,25.77,10.9,48.92,26.51,68.8,46.39,19.88,19.88,35.49,43.03,46.39,68.8,11.28,26.68,17.01,55.03,17.01,84.25s-5.72,57.57-17.01,84.25c-10.9,25.77-26.51,48.92-46.39,68.8-19.88,19.88-43.03,35.49-68.8,46.39-26.68,11.28-55.03,17.01-84.25,17.01s-57.57-5.72-84.25-17.01c-25.77-10.9-48.92-26.51-68.8-46.39-19.88-19.88-35.49-43.03-46.39-68.8-11.28-26.68-17.01-55.03-17.01-84.25s5.72-57.57,17.01-84.25c10.9-25.77,26.51-48.92,46.39-68.8s43.03-35.49,68.8-46.39c26.68-11.28,55.03-17.01,84.25-17.01m0-5c-122.3,0-221.44,99.14-221.44,221.44s99.14,221.44,221.44,221.44,221.44-99.14,221.44-221.44-99.14-221.44-221.44-221.44h0Z"/><line x1="472.88" y1="660.48" x2="606.01" y2="660.48" fill="none" stroke="#000" stroke-miterlimit="10" stroke-width="5"/><line x1="472.77" y1="681.75" x2="503.02" y2="681.75" fill="none" stroke="#000" stroke-miterlimit="10" stroke-width="5"/><line x1="524.66" y1="681.75" x2="554.23" y2="681.75" fill="none" stroke="#000" stroke-miterlimit="10" stroke-width="5"/><line x1="575.82" y1="681.75" x2="605.89" y2="681.75" fill="none" stroke="#000" stroke-miterlimit="10" stroke-width="5"/><circle cx="866.4" cy="594.78" r="7.52"/><circle cx="211.66" cy="594.78" r="7.52"/><line x1="212.75" y1="223.47" x2="212.75" y2="922" fill="none" stroke="#000" stroke-miterlimit="10" stroke-width="5"/><line x1="319.46" y1="594.78" x2="217.83" y2="594.78" fill="none" stroke="#000" stroke-miterlimit="10" stroke-width="5"/><line x1="866.13" y1="594.78" x2="759.34" y2="594.78" fill="none" stroke="#000" stroke-miterlimit="10" stroke-width="5"/><line x1="867.49" y1="223.47" x2="867.49" y2="921.59" fill="none" stroke="#000" stroke-miterlimit="10" stroke-width="5"/><line x1="212.75" y1="922" x2="466.04" y2="921.58" fill="none" stroke="#000" stroke-miterlimit="10" stroke-width="5"/><line x1="613.7" y1="921.58" x2="867.49" y2="921.59" fill="none" stroke="#000" stroke-miterlimit="10" stroke-width="5"/><g id="Multifilar_-_Transformador"><path d="m502.98,921.58c0-10.2-8.27-18.47-18.47-18.47-10.2,0-18.47,8.27-18.47,18.47" fill="none" stroke="#000" stroke-miterlimit="10" stroke-width="5"/><path d="m539.89,921.58c0-10.2-8.27-18.47-18.47-18.47-10.2,0-18.47,8.27-18.47,18.47" fill="none" stroke="#000" stroke-miterlimit="10" stroke-width="5"/><path d="m576.8,921.58c0-10.2-8.27-18.47-18.47-18.47-10.2,0-18.47,8.27-18.47,18.47" fill="none" stroke="#000" stroke-miterlimit="10" stroke-width="5"/><path d="m613.7,921.58c0-10.2-8.27-18.47-18.47-18.47-10.2,0-18.47,8.27-18.47,18.47" fill="none" stroke="#000" stroke-miterlimit="10" stroke-width="5"/></g><path d="m215.34,158v19.28h19v4.92h-19v19.44h-5.38v-19.44h-19v-4.92h19v-19.28h5.38Z"/><line x1="845.4" y1="179.28" x2="889.04" y2="179.28" fill="none" stroke="#000" stroke-miterlimit="10" stroke-width="5"/><path d="m286.61,565.92l-2.29,6.93h-2.94l7.48-22.03h3.43l7.52,22.03h-3.04l-2.35-6.93h-7.81Zm7.22-2.22l-2.16-6.34c-.49-1.44-.82-2.75-1.14-4.02h-.07c-.33,1.31-.69,2.65-1.11,3.99l-2.16,6.37h6.63Z"/><path d="m779.93,551.26c1.21-.26,3.12-.45,5.07-.45,2.77,0,4.56.48,5.89,1.56,1.12.83,1.78,2.1,1.78,3.79,0,2.07-1.37,3.89-3.63,4.72v.06c2.04.51,4.43,2.2,4.43,5.38,0,1.85-.73,3.25-1.82,4.3-1.5,1.37-3.92,2.01-7.42,2.01-1.91,0-3.38-.13-4.3-.25v-21.12Zm2.77,8.79h2.52c2.93,0,4.65-1.53,4.65-3.6,0-2.52-1.91-3.5-4.72-3.5-1.27,0-2.01.1-2.45.19v6.91Zm0,10.29c.54.1,1.34.13,2.33.13,2.87,0,5.51-1.05,5.51-4.17,0-2.93-2.52-4.14-5.54-4.14h-2.29v8.19Z"/><path d="m452.55,898.99c-1,.5-3.01,1-5.59,1-5.97,0-10.46-3.77-10.46-10.71s4.49-11.12,11.05-11.12c2.64,0,4.3.57,5.02.94l-.66,2.23c-1.04-.5-2.51-.88-4.27-.88-4.96,0-8.26,3.17-8.26,8.73,0,5.18,2.98,8.51,8.13,8.51,1.66,0,3.36-.35,4.46-.88l.57,2.17Z"/><path d="m627.16,878.61c1.69-.26,3.7-.45,5.89-.45,3.98,0,6.82.92,8.7,2.68,1.91,1.75,3.03,4.24,3.03,7.71s-1.08,6.37-3.09,8.35c-2.01,2.01-5.32,3.09-9.49,3.09-1.98,0-3.63-.1-5.03-.25v-21.12Zm2.77,18.99c.7.13,1.72.16,2.8.16,5.93,0,9.14-3.31,9.14-9.11.03-5.07-2.84-8.28-8.7-8.28-1.43,0-2.52.13-3.25.29v16.95Z"/><path d="m563.38,522.07c-.49-9.13-1.07-20.11-.97-28.27h-.29c-2.23,7.67-4.95,15.83-8.26,24.87l-11.56,31.76h-6.41l-10.59-31.18c-3.11-9.23-5.73-17.68-7.58-25.45h-.19c-.19,8.16-.68,19.14-1.26,28.95l-1.75,28.07h-8.06l4.57-65.47h10.78l11.17,31.67c2.72,8.06,4.95,15.25,6.6,22.05h.29c1.65-6.61,3.98-13.79,6.9-22.05l11.66-31.67h10.78l4.08,65.47h-8.26l-1.65-28.75Z"/><rect id="Base" width="1080" height="1080" opacity="0"/></g></g></svg>