<?xml version="1.0" encoding="UTF-8"?><svg id="Capa_2" xmlns="http://www.w3.org/2000/svg" viewBox="0 0 1080 1080"><g id="Capa_1-2"><g id="Multifilar_-_Máquina_de_Excitación_Independiente"><g id="Multifilar_-_Transformador"><path d="m503.77,901.66c0-9.91-8.04-17.95-17.95-17.95-9.91,0-17.95,8.04-17.95,17.95" fill="none" stroke="#000" stroke-miterlimit="10" stroke-width="5"/><path d="m539.64,901.66c0-9.91-8.04-17.95-17.95-17.95-9.91,0-17.95,8.04-17.95,17.95" fill="none" stroke="#000" stroke-miterlimit="10" stroke-width="5"/><path d="m575.51,901.66c0-9.91-8.04-17.95-17.95-17.95-9.91,0-17.95,8.04-17.95,17.95" fill="none" stroke="#000" stroke-miterlimit="10" stroke-width="5"/><path d="m611.37,901.66c0-9.91-8.04-17.95-17.95-17.95-9.91,0-17.95,8.04-17.95,17.95" fill="none" stroke="#000" stroke-miterlimit="10" stroke-width="5"/></g><line x1="220.82" y1="901.1" x2="467.55" y2="901.1" fill="none" stroke="#000" stroke-miterlimit="10" stroke-width="5"/><line x1="611.68" y1="901.1" x2="857.76" y2="901.1" fill="none" stroke="#000" stroke-miterlimit="10" stroke-width="5"/><line x1="857.76" y1="582.75" x2="857.76" y2="221.14" fill="none" stroke="#000" stroke-miterlimit="10" stroke-width="5"/><path d="m539.08,372.41c28.4,0,55.94,5.56,81.87,16.53,25.05,10.59,47.54,25.76,66.86,45.08,19.32,19.32,34.49,41.81,45.08,66.86,10.97,25.93,16.53,53.47,16.53,81.87s-5.56,55.94-16.53,81.87c-10.59,25.05-25.76,47.54-45.08,66.86s-41.81,34.49-66.86,45.08c-25.93,10.97-53.47,16.53-81.87,16.53s-55.94-5.56-81.87-16.53c-25.05-10.59-47.54-25.76-66.86-45.08-19.32-19.32-34.49-41.81-45.08-66.86-10.97-25.93-16.53-53.47-16.53-81.87s5.56-55.94,16.53-81.87c10.59-25.05,25.76-47.54,45.08-66.86,19.32-19.32,41.81-34.49,66.86-45.08,25.93-10.97,53.47-16.53,81.87-16.53m0-5c-118.93,0-215.34,96.41-215.34,215.34s96.41,215.34,215.34,215.34,215.34-96.41,215.34-215.34-96.41-215.34-215.34-215.34h0Z"/><line x1="474.86" y1="646.64" x2="604.31" y2="646.64" fill="none" stroke="#000" stroke-miterlimit="10" stroke-width="5"/><line x1="474.74" y1="667.32" x2="504.17" y2="667.32" fill="none" stroke="#000" stroke-miterlimit="10" stroke-width="5"/><line x1="525.21" y1="667.32" x2="553.97" y2="667.32" fill="none" stroke="#000" stroke-miterlimit="10" stroke-width="5"/><line x1="220.82" y1="221.36" x2="220.82" y2="582.75" fill="none" stroke="#000" stroke-miterlimit="10" stroke-width="5"/><line x1="325.66" y1="582.75" x2="220.82" y2="582.75" fill="none" stroke="#000" stroke-miterlimit="10" stroke-width="5"/><line x1="857.76" y1="582.75" x2="753.43" y2="582.75" fill="none" stroke="#000" stroke-miterlimit="10" stroke-width="5"/><line x1="837.11" y1="179.09" x2="879.56" y2="179.09" fill="none" stroke="#000" stroke-miterlimit="10" stroke-width="5"/><path d="m773.5,540.43c1.18-.25,3.04-.43,4.93-.43,2.7,0,4.43.46,5.73,1.52,1.08.81,1.73,2.04,1.73,3.69,0,2.01-1.33,3.78-3.53,4.59v.06c1.98.5,4.31,2.14,4.31,5.24,0,1.8-.71,3.16-1.77,4.18-1.46,1.33-3.81,1.95-7.22,1.95-1.86,0-3.28-.12-4.18-.25v-20.54Zm2.7,8.55h2.45c2.85,0,4.52-1.49,4.52-3.5,0-2.45-1.86-3.41-4.59-3.41-1.24,0-1.95.09-2.39.19v6.72Zm0,10.01c.53.09,1.3.12,2.26.12,2.79,0,5.36-1.02,5.36-4.06,0-2.85-2.45-4.03-5.39-4.03h-2.23v7.96Z"/><path d="m249.32,858.33h2.7v13.97c0,5.55-2.73,7.25-6.32,7.25-.99,0-2.2-.22-2.88-.5l.4-2.2c.56.22,1.36.4,2.26.4,2.42,0,3.84-1.08,3.84-5.17v-13.76Z"/><path d="m181.85,879.56v18.75h18.59v4.79h-18.59v18.91h-5.26v-18.91h-18.59v-4.79h18.59v-18.75h5.26Z"/><line x1="879.56" y1="901.1" x2="922" y2="901.1" fill="none" stroke="#000" stroke-miterlimit="10" stroke-width="5"/><path d="m822.12,858.33h2.74v10.23h.09c.57-.82,1.13-1.57,1.67-2.27l6.49-7.97h3.4l-7.68,9.01,8.28,12.22h-3.24l-6.99-10.42-2.02,2.33v8.09h-2.74v-21.22Z"/><line x1="574.95" y1="667.32" x2="604.2" y2="667.32" fill="none" stroke="#000" stroke-miterlimit="10" stroke-width="5"/><path d="m224.3,158v18.75h18.59v4.79h-18.59v18.91h-5.26v-18.91h-18.59v-4.79h18.59v-18.75h5.26Z"/><path d="m293.63,554.44l-2.24,6.78h-2.88l7.32-21.56h3.36l7.36,21.56h-2.97l-2.3-6.78h-7.64Zm7.07-2.17l-2.11-6.2c-.48-1.41-.8-2.69-1.12-3.93h-.06c-.32,1.28-.67,2.59-1.09,3.9l-2.11,6.24h6.49Z"/><path d="m562.86,512.04c-.47-8.88-1.04-19.55-.95-27.49h-.28c-2.17,7.46-4.82,15.4-8.03,24.18l-11.24,30.89h-6.23l-10.3-30.32c-3.02-8.97-5.57-17.19-7.37-24.75h-.19c-.19,7.93-.66,18.61-1.23,28.15l-1.7,27.3h-7.84l4.44-63.67h10.48l10.86,30.79c2.64,7.84,4.82,14.83,6.42,21.44h.28c1.61-6.42,3.87-13.41,6.71-21.44l11.34-30.79h10.48l3.97,63.67h-8.03l-1.61-27.96Z"/><rect id="Base" width="1080" height="1080" opacity="0"/></g></g></svg>