<?xml version="1.0" encoding="UTF-8"?><svg id="Capa_2" xmlns="http://www.w3.org/2000/svg" viewBox="0 0 1080 1080"><g id="Capa_1-2"><g id="Multifilar_-_Flanco_positivo"><line x1="158" y1="540" x2="389.11" y2="540" fill="none" stroke="#000" stroke-miterlimit="10" stroke-width="5"/><line x1="694.71" y1="540" x2="922" y2="540" fill="none" stroke="#000" stroke-miterlimit="10" stroke-width="5"/><line x1="385.29" y1="463.6" x2="385.29" y2="616.4" fill="none" stroke="#000" stroke-miterlimit="10" stroke-width="5"/><line x1="694.71" y1="463.6" x2="694.71" y2="616.4" fill="none" stroke="#000" stroke-miterlimit="10" stroke-width="5"/><path d="m517.29,504.27c4.59-.77,10.61-1.43,18.27-1.43,9.41,0,16.3,2.19,20.68,6.13,4.05,3.5,6.46,8.87,6.46,15.42s-1.97,11.93-5.69,15.76c-5.03,5.36-13.24,8.1-22.54,8.1-2.85,0-5.47-.12-7.66-.66v29.55h-9.52v-72.88Zm9.52,35.56c2.08.55,4.7.77,7.88.77,11.49,0,18.49-5.58,18.49-15.75s-6.89-14.45-17.4-14.45c-4.16,0-7.33.33-8.97.77v28.67Z"/><rect id="Base" width="1080" height="1080" opacity="0"/></g></g></svg>