<?xml version="1.0" encoding="UTF-8"?><svg id="Capa_2" xmlns="http://www.w3.org/2000/svg" viewBox="0 0 1080 1080"><g id="Capa_1-2"><g id="Multifilar_-_Biestable_o_flip-flop_tipo_RS_asincrono"><rect x="378.92" y="283.31" width="308.02" height="513.37" fill="none" stroke="#000" stroke-miterlimit="10" stroke-width="5"/><line x1="274.96" y1="385.99" x2="377.64" y2="385.99" fill="none" stroke="#000" stroke-miterlimit="10" stroke-width="5"/><line x1="686.94" y1="385.99" x2="789.62" y2="385.99" fill="none" stroke="#000" stroke-miterlimit="10" stroke-width="5"/><line x1="686.94" y1="692.73" x2="789.62" y2="692.73" fill="none" stroke="#000" stroke-miterlimit="10" stroke-width="5"/><line x1="274.96" y1="692.73" x2="377.64" y2="692.73" fill="none" stroke="#000" stroke-miterlimit="10" stroke-width="5"/><path d="m918.37,437.33c-11.92-3.15-23.58-6.68-33.79-10.22-1.83-.66-3.67-1.31-5.36-1.31-20.95-.78-38.9-16.24-38.9-44.66s17.29-46.49,41.12-46.49,39.55,18.6,39.55,44.65c0,22.66-10.47,37.19-25.14,42.3v.52c8.78,2.23,18.34,4.32,25.81,5.64l-3.27,9.56Zm-9.44-57.49c0-17.68-9.16-35.88-27.89-35.88s-28.69,17.81-28.56,36.93c-.13,18.73,10.22,35.62,28.02,35.62s28.42-16.5,28.42-36.67Z"/><path d="m918.03,745.35c-11.95-3.15-23.64-6.7-33.88-10.24-1.84-.66-3.68-1.31-5.38-1.31-21.01-.79-39-16.28-39-44.77s17.33-46.61,41.22-46.61,39.65,18.64,39.65,44.77c0,22.72-10.5,37.29-25.21,42.41v.52c8.8,2.23,18.39,4.34,25.87,5.65l-3.28,9.58Zm-9.46-57.64c0-17.73-9.18-35.97-27.96-35.97s-28.76,17.85-28.63,37.02c-.13,18.78,10.24,35.71,28.09,35.71s28.49-16.54,28.49-36.76Z"/><line x1="839.08" y1="632.41" x2="922" y2="632.41" fill="none" stroke="#000" stroke-miterlimit="10" stroke-width="3"/><path d="m167.36,728.21c5.76,3.55,14.18,6.5,23.05,6.5,13.15,0,20.83-6.94,20.83-16.99,0-9.3-5.32-14.62-18.76-19.79-16.25-5.76-26.3-14.18-26.3-28.21,0-15.51,12.85-27.04,32.21-27.04,10.19,0,17.58,2.36,22.01,4.87l-3.55,10.49c-3.25-1.77-9.89-4.73-18.91-4.73-13.59,0-18.76,8.13-18.76,14.92,0,9.3,6.06,13.89,19.79,19.2,16.85,6.5,25.41,14.63,25.41,29.25,0,15.37-11.37,28.67-34.87,28.67-9.6,0-20.09-2.81-25.41-6.36l3.25-10.78Z"/><path d="m158,336.77c6.65-1.37,16.18-2.12,25.25-2.12,14.06,0,23.14,2.57,29.48,8.31,5.15,4.54,8.02,11.5,8.02,19.36,0,13.47-8.46,22.38-19.2,26.02v.46c7.86,2.72,12.55,9.97,14.97,20.56,3.33,14.21,5.75,24.05,7.87,27.97h-13.61c-1.66-2.87-3.93-11.65-6.8-24.34-3.03-14.06-8.47-19.36-20.41-19.81h-12.4v44.15h-13.16v-100.56Zm13.16,46.42h13.46c14.06,0,22.98-7.71,22.98-19.36,0-13.15-9.52-18.9-23.44-19.05-6.35,0-10.88.6-13,1.21v37.2Z"/><rect id="Base" width="1080" height="1080" opacity="0"/></g></g></svg>