<?xml version="1.0" encoding="UTF-8"?><svg id="Capa_2" xmlns="http://www.w3.org/2000/svg" viewBox="0 0 1080 1080"><g id="Capa_1-2"><g id="Multifilar_-_Bobina_de_activación"><line x1="158" y1="540" x2="389.11" y2="540" fill="none" stroke="#000" stroke-miterlimit="10" stroke-width="5"/><line x1="694.71" y1="540" x2="922" y2="540" fill="none" stroke="#000" stroke-miterlimit="10" stroke-width="5"/><path d="m423.49,617.35c-21.1,0-38.2-34.63-38.2-77.35s17.1-77.35,38.2-77.35" fill="none" stroke="#000" stroke-miterlimit="10" stroke-width="5"/><path d="m656.51,462.65c21.1,0,38.2,34.63,38.2,77.35s-17.1,77.35-38.2,77.35" fill="none" stroke="#000" stroke-miterlimit="10" stroke-width="5"/><path d="m520.08,565.33c4.27,2.63,10.51,4.82,17.07,4.82,9.74,0,15.43-5.15,15.43-12.59,0-6.9-3.95-10.83-13.9-14.66-12.04-4.27-19.48-10.51-19.48-20.9,0-11.49,9.52-20.03,23.85-20.03,7.55,0,13.03,1.76,16.31,3.62l-2.63,7.77c-2.41-1.32-7.33-3.5-14.01-3.5-10.07,0-13.9,6.01-13.9,11.05,0,6.9,4.49,10.28,14.67,14.23,12.47,4.81,18.83,10.83,18.83,21.66,0,11.39-8.43,21.23-25.83,21.23-7.11,0-14.88-2.08-18.82-4.7l2.41-7.99Z"/><rect id="Base" width="1080" height="1080" opacity="0"/></g></g></svg>