<?xml version="1.0" encoding="UTF-8"?><svg id="Capa_2" xmlns="http://www.w3.org/2000/svg" viewBox="0 0 1080 1080"><g id="Capa_1-2"><g id="Multifilar_-_Biestable_o_flip-flop_tipo_D_Data_sincrono"><rect x="475.54" y="328.98" width="253.22" height="422.04" fill="none" stroke="#000" stroke-miterlimit="10" stroke-width="5"/><line x1="390.08" y1="413.39" x2="474.48" y2="413.39" fill="none" stroke="#000" stroke-miterlimit="10" stroke-width="5"/><line x1="728.76" y1="413.39" x2="813.17" y2="413.39" fill="none" stroke="#000" stroke-miterlimit="10" stroke-width="5"/><path d="m919.02,455.59c-9.8-2.59-19.38-5.49-27.78-8.4-1.51-.54-3.02-1.08-4.41-1.08-17.23-.64-31.98-13.35-31.98-36.71s14.21-38.22,33.8-38.22,32.51,15.29,32.51,36.71c0,18.63-8.61,30.58-20.67,34.78v.43c7.21,1.83,15.08,3.55,21.21,4.63l-2.69,7.86Zm-7.76-47.26c0-14.53-7.53-29.5-22.92-29.5s-23.58,14.64-23.48,30.36c-.11,15.4,8.4,29.28,23.04,29.28s23.36-13.57,23.36-30.14Z"/><line x1="728.76" y1="666.35" x2="813.17" y2="666.35" fill="none" stroke="#000" stroke-miterlimit="10" stroke-width="5"/><path d="m918.73,708.82c-9.83-2.59-19.43-5.51-27.85-8.42-1.51-.54-3.02-1.08-4.42-1.08-17.27-.65-32.06-13.39-32.06-36.81s14.25-38.31,33.89-38.31,32.6,15.33,32.6,36.8c0,18.68-8.63,30.65-20.72,34.86v.43c7.23,1.84,15.12,3.56,21.27,4.64l-2.7,7.88Zm-7.78-47.38c0-14.57-7.55-29.57-22.98-29.57s-23.64,14.68-23.54,30.44c-.11,15.44,8.42,29.36,23.1,29.36s23.42-13.6,23.42-30.22Z"/><line x1="853.83" y1="615.97" x2="922" y2="615.97" fill="none" stroke="#000" stroke-miterlimit="10" stroke-width="3"/><line x1="390.08" y1="666.35" x2="474.48" y2="666.35" fill="none" stroke="#000" stroke-miterlimit="10" stroke-width="5"/><polygon points="516.16 666.35 476.07 645.56 476.07 687.13 516.16 666.35" fill="none" stroke="#000" stroke-miterlimit="10" stroke-width="5"/><path d="m220.06,704.67c-3.89,1.94-11.66,3.89-21.62,3.89-23.08,0-40.45-14.58-40.45-41.42s17.37-42.99,42.75-42.99c10.2,0,16.64,2.19,19.43,3.64l-2.55,8.62c-4.01-1.95-9.72-3.4-16.51-3.4-19.19,0-31.94,12.27-31.94,33.76,0,20.04,11.54,32.92,31.46,32.92,6.43,0,12.99-1.34,17.25-3.4l2.19,8.38Z"/><path d="m233.34,625.48h10.57v72.99h34.98v8.87h-45.54v-81.86Z"/><path d="m290.69,625.48h10.57v39.47h.36c2.19-3.16,4.38-6.07,6.44-8.75l25.02-30.73h13.12l-29.63,34.74,31.94,47.12h-12.5l-26.96-40.2-7.77,8.98v31.21h-10.57v-81.86Z"/><path d="m280.38,372.94c6.53-.99,14.29-1.73,22.79-1.73,15.4,0,26.36,3.57,33.63,10.35,7.39,6.77,11.7,16.38,11.7,29.81s-4.19,24.64-11.95,32.27c-7.76,7.76-20.57,11.95-36.71,11.95-7.64,0-14.04-.37-19.46-.99v-81.67Zm10.72,73.42c2.71.49,6.65.62,10.84.62,22.91,0,35.35-12.81,35.35-35.23.12-19.59-10.96-32.03-33.63-32.03-5.54,0-9.73.49-12.56,1.11v65.53Z"/><rect id="Base" width="1080" height="1080" opacity="0"/></g></g></svg>