<?xml version="1.0" encoding="UTF-8"?><svg id="Capa_2" xmlns="http://www.w3.org/2000/svg" viewBox="0 0 1080 1080"><g id="Capa_1-2"><g id="Multifilar_-_Biestable_o_flip-flop_tipo_T_asincrono"><rect x="385.68" y="286.51" width="304.19" height="506.98" fill="none" stroke="#000" stroke-miterlimit="10" stroke-width="5"/><line x1="689.87" y1="387.91" x2="791.27" y2="387.91" fill="none" stroke="#000" stroke-miterlimit="10" stroke-width="5"/><line x1="689.87" y1="690.83" x2="791.27" y2="690.83" fill="none" stroke="#000" stroke-miterlimit="10" stroke-width="5"/><path d="m918.42,438.6c-11.77-3.11-23.28-6.6-33.37-10.09-1.81-.65-3.62-1.3-5.3-1.3-20.69-.77-38.42-16.04-38.42-44.1s17.07-45.91,40.61-45.91,39.06,18.37,39.06,44.1c0,22.38-10.34,36.73-24.83,41.78v.52c8.67,2.2,18.11,4.27,25.48,5.57l-3.23,9.44Zm-9.32-56.78c0-17.46-9.05-35.44-27.54-35.44s-28.33,17.59-28.2,36.47c-.13,18.5,10.09,35.18,27.67,35.18s28.06-16.3,28.06-36.21Z"/><path d="m918.08,742.79c-11.8-3.11-23.34-6.61-33.46-10.11-1.82-.65-3.63-1.3-5.31-1.3-20.75-.78-38.51-16.08-38.51-44.21s17.11-46.03,40.71-46.03,39.16,18.41,39.16,44.21c0,22.43-10.37,36.82-24.89,41.88v.52c8.69,2.21,18.16,4.28,25.55,5.58l-3.24,9.46Zm-9.34-56.92c0-17.5-9.07-35.53-27.61-35.53s-28.4,17.63-28.27,36.56c-.13,18.54,10.11,35.27,27.75,35.27s28.14-16.34,28.14-36.3Z"/><line x1="840.11" y1="631.26" x2="922" y2="631.26" fill="none" stroke="#000" stroke-miterlimit="10" stroke-width="3"/><line x1="283.02" y1="540" x2="384.42" y2="540" fill="none" stroke="#000" stroke-miterlimit="10" stroke-width="5"/><path d="m188.84,500.43h-30.84v-11.13h75.07v11.13h-30.99v90.27h-13.24v-90.27Z"/><rect id="Base" width="1080" height="1080" opacity="0"/></g></g></svg>