<?xml version="1.0" encoding="UTF-8"?><svg id="Capa_2" xmlns="http://www.w3.org/2000/svg" viewBox="0 0 1080 1080"><g id="Capa_1-2"><g id="Multifilar_-_Contador_tipo_T_Sincrono_Ascendente"><g id="Multifilar_-_Biestable_o_flip-flop_tipo_T_sincrono"><rect x="121.11" y="465.52" width="78.55" height="130.91" fill="none" stroke="#000" stroke-miterlimit="10" stroke-width="5"/><line x1="43.05" y1="491.7" x2="120.78" y2="491.7" fill="none" stroke="#000" stroke-miterlimit="10" stroke-width="5"/><line x1="199.66" y1="491.7" x2="382.94" y2="491.7" fill="none" stroke="#000" stroke-miterlimit="10" stroke-width="5"/><line x1="199.66" y1="570" x2="226.01" y2="569.96" fill="none" stroke="#000" stroke-miterlimit="10" stroke-width="5"/><path d="m191.76,498.25c-1.52-.4-3.01-.85-4.31-1.3-.23-.08-.47-.17-.68-.17-2.67-.1-4.96-2.07-4.96-5.69s2.2-5.93,5.24-5.93,5.04,2.37,5.04,5.69c0,2.89-1.34,4.74-3.21,5.39v.07c1.12.28,2.34.55,3.29.72l-.42,1.22Zm-1.2-7.33c0-2.25-1.17-4.58-3.56-4.58s-3.66,2.27-3.64,4.71c-.02,2.39,1.3,4.54,3.57,4.54s3.62-2.1,3.62-4.68Z"/><path d="m133.72,486.59h-3.98v-1.44h9.69v1.44h-4v11.65h-1.71v-11.65Z"/><path d="m191.66,577.45c-1.51-.4-2.99-.85-4.28-1.29-.23-.08-.46-.17-.68-.17-2.65-.1-4.93-2.06-4.93-5.65s2.19-5.89,5.21-5.89,5.01,2.35,5.01,5.65c0,2.87-1.33,4.71-3.18,5.36v.07c1.11.28,2.32.55,3.27.71l-.41,1.21Zm-1.19-7.28c0-2.24-1.16-4.54-3.53-4.54s-3.63,2.25-3.62,4.68c-.02,2.37,1.29,4.51,3.55,4.51s3.6-2.09,3.6-4.64Z"/><line x1="181.69" y1="563.19" x2="192.16" y2="563.19" fill="none" stroke="#000" stroke-miterlimit="10" stroke-width="2"/><line x1="43.05" y1="530.84" x2="120.78" y2="530.81" fill="none" stroke="#000" stroke-miterlimit="10" stroke-width="5"/><polygon points="133.71 530.91 121.28 524.46 121.28 537.36 133.71 530.91" fill="none" stroke="#000" stroke-miterlimit="10" stroke-width="5"/><path d="m150.28,536.81c-.6.3-1.8.6-3.33.6-3.56,0-6.23-2.25-6.23-6.38s2.68-6.63,6.59-6.63c1.57,0,2.56.34,3,.56l-.39,1.33c-.62-.3-1.5-.52-2.55-.52-2.96,0-4.92,1.89-4.92,5.2,0,3.09,1.78,5.07,4.85,5.07.99,0,2-.21,2.66-.52l.34,1.29Z"/><path d="m152.32,524.61h1.63v11.25h5.39v1.37h-7.02v-12.62Z"/><path d="m161.16,524.61h1.63v6.08h.06c.34-.49.67-.94.99-1.35l3.86-4.74h2.02l-4.57,5.35,4.92,7.26h-1.93l-4.16-6.2-1.2,1.38v4.81h-1.63v-12.62Z"/></g><g id="Multifilar_-_Biestable_o_flip-flop_tipo_T_sincrono-2"><rect x="382.94" y="465.52" width="78.55" height="130.91" fill="none" stroke="#000" stroke-miterlimit="10" stroke-width="5"/><line x1="461.49" y1="491.7" x2="513.36" y2="491.7" fill="none" stroke="#000" stroke-miterlimit="10" stroke-width="5"/><line x1="461.49" y1="570" x2="487.67" y2="570" fill="none" stroke="#000" stroke-miterlimit="10" stroke-width="5"/><path d="m453.59,498.25c-1.52-.4-3.01-.85-4.31-1.3-.23-.08-.47-.17-.68-.17-2.67-.1-4.96-2.07-4.96-5.69s2.2-5.93,5.24-5.93,5.04,2.37,5.04,5.69c0,2.89-1.34,4.74-3.21,5.39v.07c1.12.28,2.34.55,3.29.72l-.42,1.22Zm-1.2-7.33c0-2.25-1.17-4.58-3.56-4.58s-3.66,2.27-3.64,4.71c-.02,2.39,1.3,4.54,3.57,4.54s3.62-2.1,3.62-4.68Z"/><path d="m395.55,486.59h-3.98v-1.44h9.69v1.44h-4v11.65h-1.71v-11.65Z"/><path d="m453.49,577.45c-1.51-.4-2.99-.85-4.28-1.29-.23-.08-.46-.17-.68-.17-2.65-.1-4.93-2.06-4.93-5.65s2.19-5.89,5.21-5.89,5.01,2.35,5.01,5.65c0,2.87-1.33,4.71-3.18,5.36v.07c1.11.28,2.32.55,3.27.71l-.41,1.21Zm-1.19-7.28c0-2.24-1.16-4.54-3.53-4.54s-3.63,2.25-3.62,4.68c-.02,2.37,1.29,4.51,3.55,4.51s3.6-2.09,3.6-4.64Z"/><line x1="443.52" y1="563.19" x2="453.99" y2="563.19" fill="none" stroke="#000" stroke-miterlimit="10" stroke-width="2"/><line x1="330.08" y1="530.91" x2="382.61" y2="530.91" fill="none" stroke="#000" stroke-miterlimit="10" stroke-width="5"/><polygon points="395.54 530.91 383.1 524.46 383.1 537.36 395.54 530.91" fill="none" stroke="#000" stroke-miterlimit="10" stroke-width="5"/><path d="m412.1,536.81c-.6.3-1.8.6-3.33.6-3.56,0-6.23-2.25-6.23-6.38s2.68-6.63,6.59-6.63c1.57,0,2.56.34,3,.56l-.39,1.33c-.62-.3-1.5-.52-2.55-.52-2.96,0-4.92,1.89-4.92,5.2,0,3.09,1.78,5.07,4.85,5.07.99,0,2-.21,2.66-.52l.34,1.29Z"/><path d="m414.15,524.61h1.63v11.25h5.39v1.37h-7.02v-12.62Z"/><path d="m422.99,524.61h1.63v6.08h.06c.34-.49.67-.94.99-1.35l3.86-4.74h2.02l-4.57,5.35,4.92,7.26h-1.93l-4.16-6.2-1.2,1.38v4.81h-1.63v-12.62Z"/></g><g id="Multifilar_-_Biestable_o_flip-flop_tipo_T_sincrono-3"><rect x="644.77" y="465.52" width="78.55" height="130.91" fill="none" stroke="#000" stroke-miterlimit="10" stroke-width="5"/><line x1="631.35" y1="491.7" x2="644.44" y2="491.7" fill="none" stroke="#000" stroke-miterlimit="10" stroke-width="5"/><line x1="723.32" y1="491.7" x2="775.36" y2="491.7" fill="none" stroke="#000" stroke-miterlimit="10" stroke-width="5"/><line x1="723.32" y1="570" x2="749.5" y2="570" fill="none" stroke="#000" stroke-miterlimit="10" stroke-width="5"/><path d="m715.42,498.25c-1.52-.4-3.01-.85-4.31-1.3-.23-.08-.47-.17-.68-.17-2.67-.1-4.96-2.07-4.96-5.69s2.2-5.93,5.24-5.93,5.04,2.37,5.04,5.69c0,2.89-1.34,4.74-3.21,5.39v.07c1.12.28,2.34.55,3.29.72l-.42,1.22Zm-1.2-7.33c0-2.25-1.17-4.58-3.56-4.58s-3.66,2.27-3.64,4.71c-.02,2.39,1.3,4.54,3.57,4.54s3.62-2.1,3.62-4.68Z"/><path d="m657.38,486.59h-3.98v-1.44h9.69v1.44h-4v11.65h-1.71v-11.65Z"/><path d="m715.32,577.45c-1.51-.4-2.99-.85-4.28-1.29-.23-.08-.46-.17-.68-.17-2.65-.1-4.93-2.06-4.93-5.65s2.19-5.89,5.21-5.89,5.01,2.35,5.01,5.65c0,2.87-1.33,4.71-3.18,5.36v.07c1.11.28,2.32.55,3.27.71l-.41,1.21Zm-1.19-7.28c0-2.24-1.16-4.54-3.53-4.54s-3.63,2.25-3.62,4.68c-.02,2.37,1.29,4.51,3.55,4.51s3.6-2.09,3.6-4.64Z"/><line x1="705.35" y1="563.19" x2="715.82" y2="563.19" fill="none" stroke="#000" stroke-miterlimit="10" stroke-width="2"/><line x1="591.91" y1="530.91" x2="644.44" y2="530.91" fill="none" stroke="#000" stroke-miterlimit="10" stroke-width="5"/><polygon points="657.37 530.91 644.93 524.46 644.93 537.36 657.37 530.91" fill="none" stroke="#000" stroke-miterlimit="10" stroke-width="5"/><path d="m673.93,536.81c-.6.3-1.8.6-3.33.6-3.56,0-6.23-2.25-6.23-6.38s2.68-6.63,6.59-6.63c1.57,0,2.56.34,3,.56l-.39,1.33c-.62-.3-1.5-.52-2.55-.52-2.96,0-4.92,1.89-4.92,5.2,0,3.09,1.78,5.07,4.85,5.07.99,0,2-.21,2.66-.52l.34,1.29Z"/><path d="m675.98,524.61h1.63v11.25h5.39v1.37h-7.02v-12.62Z"/><path d="m684.82,524.61h1.63v6.08h.06c.34-.49.67-.94.99-1.35l3.86-4.74h2.02l-4.57,5.35,4.92,7.26h-1.93l-4.16-6.2-1.2,1.38v4.81h-1.63v-12.62Z"/></g><g id="Multifilar_-_Biestable_o_flip-flop_tipo_T_sincrono-4"><rect x="906.54" y="465.52" width="78.6" height="130.91" fill="none" stroke="#000" stroke-miterlimit="10" stroke-width="5"/><line x1="893.18" y1="491.7" x2="906.54" y2="491.7" fill="none" stroke="#000" stroke-miterlimit="10" stroke-width="5"/><line x1="985.15" y1="491.7" x2="1037.02" y2="491.7" fill="none" stroke="#000" stroke-miterlimit="10" stroke-width="5"/><line x1="985.15" y1="570" x2="1011.41" y2="570" fill="none" stroke="#000" stroke-miterlimit="10" stroke-width="5"/><path d="m977.25,498.25c-1.52-.4-3.01-.85-4.31-1.3-.23-.08-.47-.17-.68-.17-2.67-.1-4.96-2.07-4.96-5.69s2.2-5.93,5.24-5.93,5.04,2.37,5.04,5.69c0,2.89-1.34,4.74-3.21,5.39v.07c1.12.28,2.34.55,3.29.72l-.42,1.22Zm-1.2-7.33c0-2.25-1.17-4.58-3.56-4.58s-3.66,2.27-3.64,4.71c-.02,2.39,1.3,4.54,3.57,4.54s3.62-2.1,3.62-4.68Z"/><path d="m919.21,486.59h-3.98v-1.44h9.69v1.44h-4v11.65h-1.71v-11.65Z"/><path d="m977.15,577.45c-1.51-.4-2.99-.85-4.28-1.29-.23-.08-.46-.17-.68-.17-2.65-.1-4.93-2.06-4.93-5.65s2.19-5.89,5.21-5.89,5.01,2.35,5.01,5.65c0,2.87-1.33,4.71-3.18,5.36v.07c1.11.28,2.32.55,3.27.71l-.41,1.21Zm-1.19-7.28c0-2.24-1.16-4.54-3.53-4.54s-3.63,2.25-3.62,4.68c-.02,2.37,1.29,4.51,3.55,4.51s3.6-2.09,3.6-4.64Z"/><line x1="967.18" y1="563.19" x2="977.65" y2="563.19" fill="none" stroke="#000" stroke-miterlimit="10" stroke-width="2"/><line x1="853.74" y1="530.91" x2="906.54" y2="530.91" fill="none" stroke="#000" stroke-miterlimit="10" stroke-width="5"/><polygon points="919.2 530.91 906.54 524.46 906.54 537.36 919.2 530.91" fill="none" stroke="#000" stroke-miterlimit="10" stroke-width="5"/><path d="m935.76,536.81c-.6.3-1.8.6-3.33.6-3.56,0-6.23-2.25-6.23-6.38s2.68-6.63,6.59-6.63c1.57,0,2.56.34,3,.56l-.39,1.33c-.62-.3-1.5-.52-2.55-.52-2.96,0-4.92,1.89-4.92,5.2,0,3.09,1.78,5.07,4.85,5.07.99,0,2-.21,2.66-.52l.34,1.29Z"/><path d="m937.81,524.61h1.63v11.25h5.39v1.37h-7.02v-12.62Z"/><path d="m946.65,524.61h1.63v6.08h.06c.34-.49.67-.94.99-1.35l3.86-4.74h2.02l-4.57,5.35,4.92,7.26h-1.93l-4.16-6.2-1.2,1.38v4.81h-1.63v-12.62Z"/></g><line x1="251.7" y1="648.96" x2="251.7" y2="400.18" fill="none" stroke="#000" stroke-miterlimit="10" stroke-width="5"/><line x1="513.36" y1="648.96" x2="513.36" y2="452.73" fill="none" stroke="#000" stroke-miterlimit="10" stroke-width="5"/><line x1="775.36" y1="648.96" x2="775.36" y2="452.73" fill="none" stroke="#000" stroke-miterlimit="10" stroke-width="5"/><line x1="1037.02" y1="648.96" x2="1037.02" y2="491.7" fill="none" stroke="#000" stroke-miterlimit="10" stroke-width="5"/><path d="m258.93,688.07c-3.05-.8-6.02-1.71-8.63-2.61-.47-.17-.94-.34-1.37-.34-5.35-.2-9.94-4.15-9.94-11.41s4.42-11.88,10.51-11.88,10.1,4.75,10.1,11.41c0,5.79-2.68,9.5-6.42,10.81v.13c2.24.57,4.68,1.1,6.59,1.44l-.84,2.44Zm-2.41-14.69c0-4.52-2.34-9.17-7.13-9.17s-7.33,4.55-7.29,9.44c-.03,4.78,2.61,9.1,7.16,9.1s7.26-4.21,7.26-9.37Z"/><path d="m267.55,676.63h-.04l-2.28,1.23-.34-1.35,2.86-1.53h1.51v13.09h-1.71v-11.44Z"/><path d="m520.76,688.07c-3.05-.8-6.02-1.71-8.63-2.61-.47-.17-.94-.34-1.37-.34-5.35-.2-9.94-4.15-9.94-11.41s4.42-11.88,10.51-11.88,10.1,4.75,10.1,11.41c0,5.79-2.68,9.5-6.42,10.81v.13c2.24.57,4.68,1.1,6.59,1.44l-.84,2.44Zm-2.41-14.69c0-4.52-2.34-9.17-7.13-9.17s-7.33,4.55-7.29,9.44c-.03,4.78,2.61,9.1,7.16,9.1s7.26-4.21,7.26-9.37Z"/><path d="m782.58,688.07c-3.05-.8-6.02-1.71-8.63-2.61-.47-.17-.94-.34-1.37-.34-5.35-.2-9.94-4.15-9.94-11.41s4.42-11.88,10.51-11.88,10.1,4.75,10.1,11.41c0,5.79-2.68,9.5-6.42,10.81v.13c2.24.57,4.68,1.1,6.59,1.44l-.84,2.44Zm-2.41-14.69c0-4.52-2.34-9.17-7.13-9.17s-7.33,4.55-7.29,9.44c-.03,4.78,2.61,9.1,7.16,9.1s7.26-4.21,7.26-9.37Z"/><path d="m1044.41,688.07c-3.05-.8-6.02-1.71-8.63-2.61-.47-.17-.94-.34-1.37-.34-5.35-.2-9.94-4.15-9.94-11.41s4.42-11.88,10.51-11.88,10.1,4.75,10.1,11.41c0,5.79-2.68,9.5-6.42,10.81v.13c2.24.57,4.68,1.1,6.59,1.44l-.84,2.44Zm-2.41-14.69c0-4.52-2.34-9.17-7.13-9.17s-7.33,4.55-7.29,9.44c-.03,4.78,2.61,9.1,7.16,9.1s7.26-4.21,7.26-9.37Z"/><path d="m526.77,688.07v-1.05l1.34-1.31c3.23-3.08,4.7-4.71,4.71-6.62,0-1.28-.62-2.47-2.51-2.47-1.15,0-2.1.58-2.69,1.07l-.55-1.21c.88-.74,2.12-1.29,3.58-1.29,2.73,0,3.88,1.87,3.88,3.68,0,2.34-1.69,4.23-4.36,6.8l-1.01.94v.04h5.69v1.42h-8.08Z"/><path d="m788.87,685.89c.49.31,1.62.8,2.81.8,2.2,0,2.88-1.4,2.86-2.45-.02-1.77-1.62-2.53-3.27-2.53h-.95v-1.28h.95c1.25,0,2.82-.64,2.82-2.14,0-1.01-.64-1.91-2.22-1.91-1.01,0-1.99.45-2.53.84l-.45-1.25c.66-.49,1.95-.97,3.31-.97,2.49,0,3.62,1.48,3.62,3.02,0,1.31-.78,2.42-2.34,2.98v.04c1.56.31,2.82,1.48,2.82,3.25,0,2.03-1.58,3.8-4.62,3.8-1.42,0-2.67-.45-3.29-.86l.47-1.32Z"/><path d="m1056.5,688.07v-3.57h-6.08v-1.17l5.84-8.36h1.91v8.14h1.83v1.39h-1.83v3.57h-1.67Zm0-4.95v-4.37c0-.69.02-1.37.06-2.05h-.06c-.4.77-.72,1.33-1.09,1.93l-3.2,4.45v.04h4.29Z"/><g id="Multifilar_-_AND_Y_ANSI"><line x1="251.7" y1="400.18" x2="527.74" y2="400.18" fill="none" stroke="#000" stroke-miterlimit="10" stroke-width="5"/><line x1="513.36" y1="452.73" x2="527.74" y2="452.73" fill="none" stroke="#000" stroke-miterlimit="10" stroke-width="5"/><line x1="605.63" y1="426.36" x2="631.35" y2="426.36" fill="none" stroke="#000" stroke-miterlimit="10" stroke-width="5"/><path d="m579.45,465.63h-52.04v-78.55h52.04c15.73,6.35,26.84,21.27,26.84,39.27s-11.1,32.92-26.84,39.27Z" fill="none" stroke="#000" stroke-miterlimit="10" stroke-width="5"/></g><g id="Multifilar_-_AND_Y_ANSI-2"><line x1="631.35" y1="400.18" x2="789.56" y2="400.18" fill="none" stroke="#000" stroke-miterlimit="10" stroke-width="5"/><line x1="775.19" y1="452.73" x2="789.56" y2="452.73" fill="none" stroke="#000" stroke-miterlimit="10" stroke-width="5"/><line x1="867.46" y1="426.36" x2="893.18" y2="426.36" fill="none" stroke="#000" stroke-miterlimit="10" stroke-width="5"/><path d="m841.28,465.63h-52.04v-78.55h52.04c15.73,6.35,26.84,21.27,26.84,39.27s-11.1,32.92-26.84,39.27Z" fill="none" stroke="#000" stroke-miterlimit="10" stroke-width="5"/></g><line x1="631.35" y1="400.18" x2="631.35" y2="491.7" fill="none" stroke="#000" stroke-miterlimit="10" stroke-width="5"/><line x1="893.18" y1="426.36" x2="893.18" y2="491.7" fill="none" stroke="#000" stroke-miterlimit="10" stroke-width="5"/><line x1="68.91" y1="622.29" x2="853.74" y2="622.29" fill="none" stroke="#000" stroke-miterlimit="10" stroke-width="5"/><line x1="853.74" y1="530.98" x2="853.74" y2="622.29" fill="none" stroke="#000" stroke-miterlimit="10" stroke-width="5"/><line x1="591.91" y1="530.98" x2="591.91" y2="622.29" fill="none" stroke="#000" stroke-miterlimit="10" stroke-width="5"/><line x1="330.08" y1="530.98" x2="330.08" y2="622.29" fill="none" stroke="#000" stroke-miterlimit="10" stroke-width="5"/><line x1="68.91" y1="530.98" x2="68.91" y2="622.29" fill="none" stroke="#000" stroke-miterlimit="10" stroke-width="5"/><g id="Unifilar_-_Unión_punto_de_conexión"><circle id="Union_punto_de_conexión" cx="68.58" cy="530.98" r="6.55"/></g><g id="Unifilar_-_Unión_punto_de_conexión-2"><circle id="Union_punto_de_conexión-2" cx="251.86" cy="491.7" r="6.55"/></g><g id="Unifilar_-_Unión_punto_de_conexión-3"><circle id="Union_punto_de_conexión-3" cx="513.69" cy="491.7" r="6.55"/></g><g id="Unifilar_-_Unión_punto_de_conexión-4"><circle id="Union_punto_de_conexión-4" cx="775.52" cy="491.7" r="6.55"/></g><g id="Unifilar_-_Unión_punto_de_conexión-5"><circle id="Union_punto_de_conexión-5" cx="592.24" cy="622.62" r="6.55"/></g><g id="Unifilar_-_Unión_punto_de_conexión-6"><circle id="Union_punto_de_conexión-6" cx="329.76" cy="621.96" r="6.55"/></g><g id="Unifilar_-_Unión_punto_de_conexión-7"><circle id="Union_punto_de_conexión-7" cx="631.51" cy="426.24" r="6.55"/></g><g id="Multifilar_-_Entrada_Lógica"><rect x="3.26" y="517.88" width="39.27" height="26.18" fill="none" stroke="#000" stroke-miterlimit="10" stroke-width="5"/><path d="m27.15,530.84c0,4.26-1.58,6.62-4.36,6.62-2.45,0-4.11-2.3-4.15-6.44,0-4.21,1.81-6.52,4.36-6.52s4.15,2.35,4.15,6.35Zm-6.81.19c0,3.26,1,5.11,2.55,5.11,1.74,0,2.57-2.03,2.57-5.23s-.79-5.11-2.55-5.11c-1.49,0-2.57,1.81-2.57,5.23Z"/></g><path d="m17.79,478.61v11.57h11.52v2.95h-11.52v11.66h-3.26v-11.66H3v-2.95h11.52v-11.57h3.26Z"/><rect id="Base" width="1080" height="1080" opacity="0"/></g></g></svg>