<?xml version="1.0" encoding="UTF-8"?><svg id="Capa_2" xmlns="http://www.w3.org/2000/svg" viewBox="0 0 1080 1080"><g id="Capa_1-2"><g id="Multifilar_-_Biestable_o_flip-flop_tipo_RS_asincrono_Puertas_NOR"><circle cx="608.91" cy="246.15" r="13.96" fill="none" stroke="#000" stroke-miterlimit="10" stroke-width="5"/><path d="m417.91,158.26c97.37,0,176.31,70.31,176.31,87.89s-78.94,87.89-176.31,87.89" fill="none" stroke="#000" stroke-miterlimit="10" stroke-width="5"/><path d="m416.45,158c35.32,14.25,60.24,47.73,60.24,88.15s-24.92,73.9-60.24,88.15" fill="none" stroke="#000" stroke-miterlimit="10" stroke-width="5"/><circle cx="608.91" cy="833.85" r="13.96" fill="none" stroke="#000" stroke-miterlimit="10" stroke-width="5"/><path d="m417.91,745.96c97.37,0,176.31,70.31,176.31,87.89s-78.94,87.89-176.31,87.89" fill="none" stroke="#000" stroke-miterlimit="10" stroke-width="5"/><path d="m416.45,745.69c35.32,14.25,60.24,47.73,60.24,88.15s-24.92,73.9-60.24,88.15" fill="none" stroke="#000" stroke-miterlimit="10" stroke-width="5"/><line x1="359.88" y1="775.08" x2="456.85" y2="775.08" fill="none" stroke="#000" stroke-miterlimit="10" stroke-width="5"/><line x1="270.26" y1="893.04" x2="456.85" y2="893.04" fill="none" stroke="#000" stroke-miterlimit="10" stroke-width="5"/><line x1="622.87" y1="833.85" x2="799.91" y2="833.85" fill="none" stroke="#000" stroke-miterlimit="10" stroke-width="5"/><line x1="270.26" y1="187.38" x2="456.85" y2="187.38" fill="none" stroke="#000" stroke-miterlimit="10" stroke-width="5"/><line x1="359.88" y1="305.35" x2="456.85" y2="305.35" fill="none" stroke="#000" stroke-miterlimit="10" stroke-width="5"/><line x1="622.87" y1="246.15" x2="799.91" y2="246.15" fill="none" stroke="#000" stroke-miterlimit="10" stroke-width="5"/><line x1="358.41" y1="686.19" x2="358.41" y2="774.34" fill="none" stroke="#000" stroke-miterlimit="10" stroke-width="5"/><line x1="359.88" y1="393.81" x2="359.88" y2="305.66" fill="none" stroke="#000" stroke-miterlimit="10" stroke-width="5"/><line x1="681.64" y1="833.11" x2="681.64" y2="686.19" fill="none" stroke="#000" stroke-miterlimit="10" stroke-width="5"/><line x1="681.64" y1="245.42" x2="681.64" y2="392.34" fill="none" stroke="#000" stroke-miterlimit="10" stroke-width="5"/><line x1="359.88" y1="393.81" x2="681.64" y2="686.19" fill="none" stroke="#000" stroke-miterlimit="10" stroke-width="5"/><line x1="358.41" y1="686.19" x2="681.64" y2="392.34" fill="none" stroke="#000" stroke-miterlimit="10" stroke-width="5"/><g id="Unifilar_-_Unión_punto_de_conexión"><circle id="Union_punto_de_conexión" cx="682.38" cy="246.15" r="14.69"/></g><g id="Unifilar_-_Unión_punto_de_conexión-2"><circle id="Union_punto_de_conexión-2" cx="682.38" cy="833.85" r="14.69"/></g><path d="m203.61,159.21c3.81-.78,9.26-1.21,14.45-1.21,8.05,0,13.24,1.47,16.88,4.76,2.94,2.6,4.59,6.58,4.59,11.08,0,7.7-4.85,12.81-10.99,14.89v.26c4.5,1.56,7.18,5.71,8.57,11.77,1.9,8.14,3.29,13.76,4.5,16.01h-7.79c-.95-1.64-2.25-6.66-3.89-13.93-1.73-8.05-4.85-11.08-11.69-11.34h-7.1v25.27h-7.53v-57.56Zm7.53,26.57h7.7c8.05,0,13.16-4.41,13.16-11.08,0-7.53-5.45-10.82-13.42-10.91-3.64,0-6.23.35-7.44.69v21.29Z"/><path d="m208.97,912.19c3.3,2.03,8.12,3.72,13.19,3.72,7.53,0,11.92-3.97,11.92-9.72,0-5.33-3.04-8.37-10.74-11.33-9.3-3.3-15.05-8.12-15.05-16.15,0-8.88,7.36-15.47,18.43-15.47,5.83,0,10.06,1.35,12.6,2.79l-2.03,6c-1.86-1.01-5.67-2.7-10.82-2.7-7.78,0-10.74,4.65-10.74,8.54,0,5.33,3.47,7.95,11.33,10.99,9.64,3.72,14.54,8.37,14.54,16.74,0,8.79-6.51,16.41-19.96,16.41-5.5,0-11.5-1.61-14.55-3.63l1.86-6.17Z"/><path d="m873.97,275.54c-6.82-1.8-13.49-3.82-19.34-5.85-1.05-.37-2.1-.75-3.07-.75-11.99-.45-22.26-9.29-22.26-25.56s9.9-26.61,23.54-26.61,22.64,10.64,22.64,25.56c0,12.97-6,21.29-14.39,24.21v.3c5.02,1.27,10.49,2.47,14.77,3.22l-1.88,5.47Zm-5.4-32.91c0-10.12-5.25-20.54-15.97-20.54s-16.42,10.19-16.34,21.14c-.08,10.72,5.85,20.39,16.04,20.39s16.27-9.45,16.27-20.99Z"/><path d="m874.51,863.23c-6.82-1.8-13.49-3.82-19.34-5.85-1.05-.37-2.1-.75-3.07-.75-11.99-.45-22.26-9.29-22.26-25.56s9.9-26.61,23.54-26.61,22.64,10.64,22.64,25.56c0,12.97-6,21.29-14.39,24.21v.3c5.02,1.27,10.49,2.47,14.77,3.22l-1.88,5.47Zm-5.4-32.91c0-10.12-5.25-20.54-15.97-20.54s-16.42,10.19-16.34,21.14c-.08,10.72,5.85,20.39,16.04,20.39s16.27-9.45,16.27-20.99Z"/><line x1="829.3" y1="798.58" x2="876.31" y2="798.58" fill="none" stroke="#000" stroke-miterlimit="10" stroke-width="3"/><rect id="Base" width="1080" height="1080" opacity="0"/></g></g></svg>