<?xml version="1.0" encoding="UTF-8"?><svg id="Capa_2" xmlns="http://www.w3.org/2000/svg" viewBox="0 0 1080 1080"><g id="Capa_1-2"><g id="Multifilar_-_Biestable_o_flip-flop_tipo_RS_sincrono_Puertas_NOR"><circle cx="760.83" cy="362.94" r="8.41" fill="none" stroke="#000" stroke-miterlimit="10" stroke-width="5"/><path d="m645.74,309.98c58.67,0,106.23,42.37,106.23,52.96s-47.56,52.96-106.23,52.96" fill="none" stroke="#000" stroke-miterlimit="10" stroke-width="5"/><path d="m644.86,309.83c21.28,8.59,36.3,28.76,36.3,53.12s-15.02,44.53-36.3,53.12" fill="none" stroke="#000" stroke-miterlimit="10" stroke-width="5"/><circle cx="760.83" cy="717.06" r="8.41" fill="none" stroke="#000" stroke-miterlimit="10" stroke-width="5"/><path d="m645.74,664.1c58.67,0,106.23,42.37,106.23,52.96s-47.56,52.96-106.23,52.96" fill="none" stroke="#000" stroke-miterlimit="10" stroke-width="5"/><path d="m644.86,663.94c21.28,8.59,36.3,28.76,36.3,53.12s-15.02,44.53-36.3,53.12" fill="none" stroke="#000" stroke-miterlimit="10" stroke-width="5"/><line x1="610.78" y1="681.65" x2="669.2" y2="681.65" fill="none" stroke="#000" stroke-miterlimit="10" stroke-width="5"/><line x1="556.77" y1="752.72" x2="669.2" y2="752.72" fill="none" stroke="#000" stroke-miterlimit="10" stroke-width="5"/><line x1="769.24" y1="717.06" x2="875.92" y2="717.06" fill="none" stroke="#000" stroke-miterlimit="10" stroke-width="5"/><line x1="556.77" y1="327.53" x2="669.2" y2="327.53" fill="none" stroke="#000" stroke-miterlimit="10" stroke-width="5"/><line x1="610.78" y1="398.61" x2="669.2" y2="398.61" fill="none" stroke="#000" stroke-miterlimit="10" stroke-width="5"/><line x1="769.24" y1="362.94" x2="875.92" y2="362.94" fill="none" stroke="#000" stroke-miterlimit="10" stroke-width="5"/><line x1="609.89" y1="628.09" x2="609.89" y2="681.2" fill="none" stroke="#000" stroke-miterlimit="10" stroke-width="5"/><line x1="610.78" y1="451.91" x2="610.78" y2="398.8" fill="none" stroke="#000" stroke-miterlimit="10" stroke-width="5"/><line x1="804.65" y1="716.61" x2="804.65" y2="628.09" fill="none" stroke="#000" stroke-miterlimit="10" stroke-width="5"/><line x1="804.65" y1="362.5" x2="804.65" y2="451.03" fill="none" stroke="#000" stroke-miterlimit="10" stroke-width="5"/><line x1="610.78" y1="451.91" x2="804.65" y2="628.09" fill="none" stroke="#000" stroke-miterlimit="10" stroke-width="5"/><line x1="609.89" y1="628.09" x2="804.65" y2="451.03" fill="none" stroke="#000" stroke-miterlimit="10" stroke-width="5"/><g id="Unifilar_-_Unión_punto_de_conexión"><circle id="Union_punto_de_conexión" cx="805.1" cy="362.94" r="8.85"/></g><g id="Unifilar_-_Unión_punto_de_conexión-2"><circle id="Union_punto_de_conexión-2" cx="805.1" cy="717.06" r="8.85"/></g><path d="m920.54,380.65c-4.11-1.08-8.13-2.3-11.65-3.52-.63-.23-1.26-.45-1.85-.45-7.23-.27-13.41-5.6-13.41-15.4s5.96-16.03,14.18-16.03,13.64,6.41,13.64,15.4c0,7.81-3.61,12.83-8.67,14.59v.18c3.03.77,6.32,1.49,8.9,1.94l-1.13,3.3Zm-3.25-19.83c0-6.1-3.16-12.38-9.62-12.38s-9.89,6.14-9.85,12.74c-.05,6.46,3.52,12.29,9.67,12.29s9.8-5.69,9.8-12.65Z"/><path d="m920.87,734.76c-4.11-1.08-8.13-2.3-11.65-3.52-.63-.23-1.26-.45-1.85-.45-7.23-.27-13.41-5.6-13.41-15.4s5.96-16.03,14.18-16.03,13.64,6.41,13.64,15.4c0,7.81-3.61,12.83-8.67,14.59v.18c3.03.77,6.32,1.49,8.9,1.94l-1.13,3.3Zm-3.25-19.83c0-6.1-3.16-12.38-9.62-12.38s-9.89,6.14-9.85,12.74c-.05,6.46,3.52,12.29,9.67,12.29s9.8-5.69,9.8-12.65Z"/><line x1="893.63" y1="695.81" x2="921.95" y2="695.81" fill="none" stroke="#000" stroke-miterlimit="10" stroke-width="3"/><line x1="255.78" y1="292.09" x2="450.55" y2="292.09" fill="none" stroke="#000" stroke-miterlimit="10" stroke-width="5"/><line x1="362.02" y1="363.05" x2="450.55" y2="363.05" fill="none" stroke="#000" stroke-miterlimit="10" stroke-width="5"/><path d="m520.49,380.47h-70.38v-106.06h70.38c21.28,8.57,36.3,28.71,36.3,53.03s-15.02,44.45-36.3,53.03Z" fill="none" stroke="#000" stroke-miterlimit="10" stroke-width="5"/><line x1="362.01" y1="363.24" x2="362.01" y2="717.65" fill="none" stroke="#000" stroke-miterlimit="10" stroke-width="5"/><line x1="255.78" y1="540.44" x2="362.01" y2="540.44" fill="none" stroke="#000" stroke-miterlimit="10" stroke-width="5"/><line x1="362.02" y1="717.2" x2="450.55" y2="717.2" fill="none" stroke="#000" stroke-miterlimit="10" stroke-width="5"/><line x1="255.78" y1="788.16" x2="450.55" y2="788.16" fill="none" stroke="#000" stroke-miterlimit="10" stroke-width="5"/><path d="m520.49,805.59h-70.38v-106.06h70.38c21.28,8.57,36.3,28.71,36.3,53.03s-15.02,44.45-36.3,53.03Z" fill="none" stroke="#000" stroke-miterlimit="10" stroke-width="5"/><path d="m215.62,275.14c2.29-.47,5.58-.73,8.71-.73,4.85,0,7.98.89,10.17,2.87,1.77,1.56,2.76,3.96,2.76,6.68,0,4.64-2.92,7.72-6.62,8.97v.16c2.71.94,4.33,3.44,5.16,7.09,1.15,4.9,1.98,8.29,2.71,9.65h-4.69c-.57-.99-1.36-4.02-2.35-8.4-1.04-4.85-2.92-6.68-7.04-6.83h-4.28v15.23h-4.54v-34.68Zm4.54,16.01h4.64c4.85,0,7.93-2.66,7.93-6.68,0-4.54-3.29-6.52-8.08-6.57-2.19,0-3.76.21-4.49.42v12.83Z"/><path d="m218.84,799.68c1.99,1.22,4.89,2.24,7.95,2.24,4.53,0,7.18-2.39,7.18-5.86,0-3.21-1.83-5.04-6.47-6.83-5.6-1.99-9.07-4.89-9.07-9.73,0-5.35,4.43-9.32,11.11-9.32,3.52,0,6.06.81,7.59,1.68l-1.22,3.62c-1.12-.61-3.41-1.63-6.52-1.63-4.69,0-6.47,2.8-6.47,5.15,0,3.21,2.09,4.79,6.83,6.62,5.81,2.24,8.76,5.04,8.76,10.09,0,5.3-3.92,9.89-12.02,9.89-3.31,0-6.93-.97-8.76-2.19l1.12-3.72Z"/><g id="Unifilar_-_Unión_punto_de_conexión-3"><circle id="Union_punto_de_conexión-3" cx="361.57" cy="540" r="8.85"/></g><path d="m184.24,556.34c-1.64.82-4.93,1.64-9.14,1.64-9.76,0-17.1-6.16-17.1-17.51s7.34-18.18,18.07-18.18c4.31,0,7.04.92,8.22,1.54l-1.08,3.65c-1.69-.82-4.11-1.44-6.98-1.44-8.11,0-13.5,5.19-13.5,14.27,0,8.47,4.88,13.91,13.3,13.91,2.72,0,5.49-.56,7.29-1.44l.92,3.54Z"/><path d="m189.84,522.86h4.47v30.86h14.79v3.75h-19.26v-34.61Z"/><path d="m214.07,522.86h4.47v16.69h.15c.92-1.34,1.85-2.57,2.72-3.7l10.58-12.99h5.55l-12.53,14.69,13.5,19.92h-5.29l-11.4-17-3.29,3.8v13.2h-4.47v-34.61Z"/><rect id="Base" width="1080" height="1080" opacity="0"/></g></g></svg>