<?xml version="1.0" encoding="UTF-8"?><svg id="Capa_2" xmlns="http://www.w3.org/2000/svg" viewBox="0 0 1080 1080"><g id="Capa_1-2"><g id="Multifilar_-_Biestable_o_flip-flop_tipo_JK_sincrono"><rect x="475.54" y="328.98" width="253.22" height="422.04" fill="none" stroke="#000" stroke-miterlimit="10" stroke-width="5"/><line x1="390.08" y1="413.39" x2="474.48" y2="413.39" fill="none" stroke="#000" stroke-miterlimit="10" stroke-width="5"/><line x1="728.76" y1="413.39" x2="813.17" y2="413.39" fill="none" stroke="#000" stroke-miterlimit="10" stroke-width="5"/><line x1="728.76" y1="665.56" x2="813.17" y2="665.56" fill="none" stroke="#000" stroke-miterlimit="10" stroke-width="5"/><line x1="390.08" y1="665.56" x2="474.48" y2="665.56" fill="none" stroke="#000" stroke-miterlimit="10" stroke-width="5"/><line x1="390.08" y1="540" x2="474.48" y2="540" fill="none" stroke="#000" stroke-miterlimit="10" stroke-width="5"/><polygon points="516.16 540 476.07 519.21 476.07 560.79 516.16 540" fill="none" stroke="#000" stroke-miterlimit="10" stroke-width="5"/><path d="m220.06,578.32c-3.89,1.94-11.66,3.89-21.62,3.89-23.08,0-40.45-14.58-40.45-41.42s17.37-42.99,42.75-42.99c10.2,0,16.64,2.19,19.43,3.64l-2.55,8.62c-4.01-1.95-9.72-3.4-16.51-3.4-19.19,0-31.94,12.27-31.94,33.76,0,20.04,11.54,32.92,31.46,32.92,6.43,0,12.99-1.34,17.25-3.4l2.19,8.38Z"/><path d="m233.34,499.13h10.57v72.99h34.98v8.87h-45.54v-81.86Z"/><path d="m290.69,499.13h10.57v39.47h.36c2.19-3.16,4.38-6.07,6.44-8.75l25.02-30.73h13.12l-29.63,34.74,31.94,47.12h-12.5l-26.96-40.2-7.77,8.98v31.21h-10.57v-81.86Z"/><path d="m337.78,371.18h10.72v55.58c0,22.05-10.84,28.83-25.13,28.83-3.94,0-8.75-.86-11.46-1.97l1.61-8.75c2.22.86,5.42,1.61,9,1.61,9.61,0,15.28-4.31,15.28-20.58v-54.71Z"/><path d="m288.88,624.41h10.9v40.7h.37c2.25-3.25,4.51-6.26,6.64-9.03l25.8-31.67h13.53l-30.56,35.81,32.94,48.59h-12.9l-27.8-41.45-8.02,9.26v32.19h-10.9v-84.41Z"/><path d="m919.02,455.59c-9.8-2.59-19.38-5.49-27.78-8.4-1.51-.54-3.02-1.08-4.41-1.08-17.23-.64-31.98-13.35-31.98-36.71s14.21-38.22,33.8-38.22,32.51,15.29,32.51,36.71c0,18.63-8.61,30.58-20.67,34.78v.43c7.21,1.83,15.08,3.55,21.21,4.63l-2.69,7.86Zm-7.76-47.26c0-14.53-7.53-29.5-22.92-29.5s-23.58,14.64-23.48,30.36c-.11,15.4,8.4,29.28,23.04,29.28s23.36-13.57,23.36-30.14Z"/><path d="m918.73,708.82c-9.83-2.59-19.43-5.51-27.85-8.42-1.51-.54-3.02-1.08-4.42-1.08-17.27-.65-32.06-13.39-32.06-36.81s14.25-38.31,33.89-38.31,32.6,15.33,32.6,36.8c0,18.68-8.63,30.65-20.72,34.86v.43c7.23,1.84,15.12,3.56,21.27,4.64l-2.7,7.88Zm-7.78-47.38c0-14.57-7.55-29.57-22.98-29.57s-23.64,14.68-23.54,30.44c-.11,15.44,8.42,29.36,23.1,29.36s23.42-13.6,23.42-30.22Z"/><line x1="853.83" y1="615.97" x2="922" y2="615.97" fill="none" stroke="#000" stroke-miterlimit="10" stroke-width="3"/><rect id="Base" width="1080" height="1080" opacity="0"/></g></g></svg>