<?xml version="1.0" encoding="UTF-8"?><svg id="Capa_2" xmlns="http://www.w3.org/2000/svg" viewBox="0 0 1080 1080"><g id="Capa_1-2"><g id="Multifilar_-_Motor_trifásico_con_rotor_bobinado"><line x1="378.53" y1="158" x2="378.53" y2="313.28" fill="none" stroke="#000" stroke-miterlimit="10" stroke-width="5"/><path d="m473.82,351.95c25.46,0,50.15,4.98,73.4,14.82,22.45,9.5,42.62,23.09,59.94,40.41,17.32,17.32,30.92,37.49,40.41,59.94,9.83,23.24,14.82,47.94,14.82,73.4s-4.98,50.15-14.82,73.4c-9.5,22.45-23.09,42.62-40.41,59.94-17.32,17.32-37.49,30.92-59.94,40.41-23.24,9.83-47.94,14.82-73.4,14.82s-50.15-4.98-73.4-14.82c-22.45-9.5-42.62-23.09-59.94-40.41-17.32-17.32-30.92-37.49-40.41-59.94-9.83-23.24-14.82-47.94-14.82-73.4s4.98-50.15,14.82-73.4c9.5-22.45,23.09-42.62,40.41-59.94,17.32-17.32,37.49-30.92,59.94-40.41,23.24-9.83,47.94-14.82,73.4-14.82m0-5c-106.9,0-193.56,86.66-193.56,193.56s86.66,193.56,193.56,193.56,193.56-86.66,193.56-193.56-86.66-193.56-193.56-193.56h0Z"/><path d="m474.12,296.78c33.11,0,65.22,6.48,95.45,19.27,29.2,12.35,55.43,30.03,77.95,52.55,22.52,22.52,40.2,48.75,52.55,77.95,12.79,30.23,19.27,62.34,19.27,95.45s-6.48,65.22-19.27,95.45c-12.35,29.2-30.03,55.43-52.55,77.95-22.52,22.52-48.75,40.2-77.95,52.55-30.23,12.79-62.34,19.27-95.45,19.27s-65.22-6.48-95.45-19.27c-29.2-12.35-55.42-30.03-77.95-52.55-22.52-22.52-40.2-48.75-52.55-77.95-12.79-30.23-19.27-62.34-19.27-95.45s6.48-65.22,19.27-95.45c12.35-29.2,30.03-55.42,52.55-77.95,22.52-22.52,48.75-40.2,77.95-52.55,30.23-12.79,62.34-19.27,95.45-19.27m0-5c-138.19,0-250.22,112.03-250.22,250.22s112.03,250.22,250.22,250.22,250.22-112.03,250.22-250.22-112.03-250.22-250.22-250.22h0Z"/><line x1="474.12" y1="158" x2="474.12" y2="294.67" fill="none" stroke="#000" stroke-miterlimit="10" stroke-width="5"/><line x1="569.72" y1="158" x2="569.72" y2="313.28" fill="none" stroke="#000" stroke-miterlimit="10" stroke-width="5"/><line x1="723.13" y1="540.81" x2="856.04" y2="540.81" fill="none" stroke="#000" stroke-miterlimit="10" stroke-width="5"/><line x1="856.1" y1="158" x2="856.1" y2="540.81" fill="none" stroke="#000" stroke-miterlimit="10" stroke-width="5"/><line x1="378.53" y1="706.99" x2="378.53" y2="922" fill="none" stroke="#000" stroke-miterlimit="10" stroke-width="5"/><line x1="474.12" y1="732.88" x2="474.12" y2="922" fill="none" stroke="#000" stroke-miterlimit="10" stroke-width="5"/><line x1="569.72" y1="706.99" x2="569.72" y2="922" fill="none" stroke="#000" stroke-miterlimit="10" stroke-width="5"/><g id="Multifilar_-_Terminal"><path id="Terminal" d="m606.75,568.49c0,15.53-12.59,28.12-28.12,28.12-15.53,0-28.26-14-28.26-28.26,0-12.95-12.72-28.12-28.26-28.12s-28.12,12.59-28.12,28.12" fill="none" stroke="#000" stroke-miterlimit="10" stroke-width="5"/></g><path d="m340.5,200.53h11.13c4.21,0,6-1.87,6-4.38,0-2.79-1.84-4.58-6-4.58h-11.13v-2.46h10.96c5.78,0,8.15,3.04,8.15,7.11,0,3.85-2.2,6.75-8.04,6.75h-11.08v-2.46Z"/><path d="m343.46,180.44v.06l1.7,3.15-1.87.47-2.12-3.96v-2.09h18.14v2.37h-15.85Z"/><path d="m455,196.47l-18.94,6.18v-2.64l9.33-2.95c2.56-.81,4.86-1.52,7.08-2.02v-.06c-2.19-.53-4.58-1.32-7.05-2.16l-9.36-3.2v-2.61l18.94,6.77v2.7Z"/><path d="m439.04,180.46v.06l1.71,3.17-1.88.48-2.14-3.99v-2.11h18.26v2.39h-15.96Z"/><path d="m550.73,205.89l-19.11,4.85v-2.61l9.67-2.27c2.38-.57,4.76-1.08,6.61-1.42v-.06c-1.9-.31-4.17-.91-6.64-1.56l-9.64-2.55v-2.58l9.7-2.33c2.27-.54,4.54-1.05,6.55-1.33v-.06c-2.1-.4-4.22-.94-6.61-1.53l-9.64-2.52v-2.52l19.11,5.42v2.58l-9.95,2.41c-2.44.6-4.31.99-6.24,1.25v.06c1.9.34,3.77.77,6.24,1.47l9.95,2.72v2.58Z"/><path d="m534.62,180.48v.06l1.73,3.2-1.9.48-2.15-4.03v-2.13h18.43v2.41h-16.11Z"/><path d="m494.79,477.66c-.42-7.96-.93-17.54-.85-24.65h-.25c-1.95,6.69-4.32,13.81-7.2,21.69l-10.08,27.7h-5.59l-9.24-27.2c-2.71-8.05-5-15.42-6.61-22.2h-.17c-.17,7.12-.59,16.69-1.1,25.25l-1.52,24.48h-7.03l3.98-57.1h9.4l9.74,27.62c2.37,7.03,4.32,13.3,5.76,19.23h.25c1.44-5.76,3.47-12.03,6.02-19.23l10.17-27.62h9.4l3.56,57.1h-7.2l-1.44-25.08Z"/><path d="m436.06,904.32v-2.44h16.89v-8.09h2.05v10.54h-18.94Z"/><path d="m340.5,904.32v-2.47h9.22v-.09c-.74-.51-1.42-1.02-2.04-1.5l-7.17-5.84v-3.06l8.11,6.92,11-7.46v2.92l-9.39,6.3,2.1,1.81h7.29v2.47h-19.11Z"/><path d="m542.34,887.7c-2.67.14-5.87.31-8.25.28v.08c2.24.65,4.62,1.45,7.26,2.41l9.27,3.37v1.87l-9.1,3.09c-2.69.91-5.16,1.67-7.43,2.21v.06c2.38.06,5.59.2,8.45.37l8.2.51v2.35l-19.11-1.33v-3.15l9.24-3.26c2.35-.79,4.45-1.45,6.44-1.93v-.08c-1.93-.48-4.03-1.16-6.44-2.01l-9.24-3.4v-3.15l19.11-1.19v2.41l-8.39.48Z"/><path d="m818.66,203.71c-.2-1.18-.37-2.73-.37-4.7,0-2.42.56-4.19,1.58-5.32.9-1.04,2.28-1.66,3.97-1.66s3.07.51,4.05,1.46c1.38,1.29,2.08,3.41,2.08,5.8,0,.73-.03,1.41-.17,1.97h7.6v2.45h-18.75Zm9.15-2.45c.14-.53.2-1.21.2-2.03,0-2.96-1.44-4.76-4.05-4.76s-3.72,1.77-3.72,4.48c0,1.07.08,1.89.2,2.31h7.37Z"/><path d="m828.51,178.91v7.37h6.84v-8.22h2.05v10.67h-18.97v-10.25h2.05v7.8h6v-7.37h2.03Z"/><path d="m382.5,588.97c2.13,1.36,7.08,3.5,12.29,3.5,9.64,0,12.63-6.14,12.54-10.75-.09-7.76-7.08-11.09-14.33-11.09h-4.18v-5.63h4.18c5.46,0,12.37-2.82,12.37-9.39,0-4.44-2.82-8.36-9.73-8.36-4.44,0-8.7,1.96-11.09,3.67l-1.96-5.46c2.9-2.13,8.53-4.27,14.5-4.27,10.92,0,15.87,6.48,15.87,13.23,0,5.72-3.41,10.58-10.24,13.05v.17c6.83,1.37,12.37,6.48,12.37,14.25,0,8.87-6.91,16.64-20.22,16.64-6.23,0-11.69-1.96-14.42-3.75l2.05-5.8Z"/><rect id="Base" width="1080" height="1080" opacity="0"/></g></g></svg>