<?xml version="1.0" encoding="UTF-8"?><svg id="Capa_2" xmlns="http://www.w3.org/2000/svg" viewBox="0 0 1080 1080"><g id="Capa_1-2"><g id="Unifilar_-_Clase_de_protección_en_aparato_eléctrico_clase_III"><rect x="269.89" y="269.89" width="540.23" height="540.23" transform="translate(540 -223.68) rotate(45)" fill="none" stroke="#000" stroke-miterlimit="10" stroke-width="5"/><path d="m513.27,459.29h-79.75l-8.04,53.7c4.82-.64,9.32-1.28,17.05-1.28,16.08,0,32.15,3.53,45.01,11.25,16.42,9.33,29.9,27.34,29.9,53.7,0,40.85-32.47,71.39-77.82,71.39-22.83,0-42.12-6.43-52.08-12.86l7.07-21.55c8.69,5.15,25.71,11.57,44.7,11.57,26.68,0,49.51-17.36,49.51-45.34-.31-27.01-18.33-46.31-60.12-46.31-11.91,0-21.23,1.28-28.95,2.25l13.5-100.33h100.02v23.8Z"/><path d="m692.47,537.75c0,71.07-26.37,110.3-72.66,110.3-40.85,0-68.5-38.27-69.15-107.4,0-70.09,30.24-108.69,72.69-108.69s69.12,39.24,69.12,105.79Zm-113.51,3.22c0,54.34,16.73,85.21,42.44,85.21,28.93,0,42.76-33.76,42.76-87.14s-13.17-85.23-42.44-85.23c-24.74,0-42.76,30.23-42.76,87.15Z"/><rect id="Base" width="1080" height="1080" opacity="0"/></g></g></svg>