<?xml version="1.0" encoding="UTF-8"?><svg id="Capa_2" xmlns="http://www.w3.org/2000/svg" viewBox="0 0 1080 1080"><g id="Capa_1-2"><g id="Multifilar_-_Biestable_o_flip-flop_tipo_D_Data_asincrono"><rect x="390.39" y="288.73" width="301.52" height="502.53" fill="none" stroke="#000" stroke-miterlimit="10" stroke-width="5"/><line x1="691.91" y1="389.24" x2="792.41" y2="389.24" fill="none" stroke="#000" stroke-miterlimit="10" stroke-width="5"/><line x1="691.91" y1="689.5" x2="792.41" y2="689.5" fill="none" stroke="#000" stroke-miterlimit="10" stroke-width="5"/><path d="m918.45,439.49c-11.67-3.08-23.08-6.54-33.08-10-1.8-.64-3.59-1.28-5.25-1.28-20.51-.77-38.08-15.9-38.08-43.72s16.92-45.51,40.25-45.51,38.72,18.2,38.72,43.71c0,22.18-10.25,36.41-24.61,41.41v.51c8.59,2.18,17.95,4.23,25.26,5.52l-3.2,9.36Zm-9.24-56.28c0-17.31-8.97-35.13-27.3-35.13s-28.08,17.43-27.95,36.15c-.13,18.34,10,34.87,27.43,34.87s27.82-16.15,27.82-35.89Z"/><path d="m918.11,741.01c-11.7-3.09-23.14-6.56-33.16-10.03-1.8-.64-3.6-1.29-5.26-1.29-20.56-.77-38.18-15.94-38.18-43.83s16.96-45.62,40.35-45.62,38.81,18.25,38.81,43.82c0,22.24-10.28,36.5-24.68,41.51v.51c8.61,2.19,18,4.24,25.33,5.53l-3.21,9.38Zm-9.26-56.42c0-17.35-8.99-35.21-27.37-35.21s-28.15,17.48-28.02,36.24c-.13,18.38,10.03,34.96,27.5,34.96s27.89-16.19,27.89-35.98Z"/><line x1="840.83" y1="630.46" x2="922" y2="630.46" fill="none" stroke="#000" stroke-miterlimit="10" stroke-width="3"/><line x1="288.62" y1="540" x2="389.13" y2="540" fill="none" stroke="#000" stroke-miterlimit="10" stroke-width="5"/><path d="m158,491.83c7.77-1.17,17.01-2.05,27.14-2.05,18.34,0,31.39,4.25,40.04,12.32,8.8,8.07,13.93,19.51,13.93,35.5s-4.99,29.34-14.23,38.43c-9.24,9.24-24.49,14.23-43.71,14.23-9.09,0-16.72-.44-23.17-1.17v-97.25Zm12.76,87.42c3.23.59,7.92.73,12.91.73,27.28,0,42.1-15.26,42.1-41.95.15-23.32-13.05-38.14-40.04-38.14-6.6,0-11.59.59-14.96,1.32v78.03Z"/><rect id="Base" width="1080" height="1080" opacity="0"/></g></g></svg>