<?xml version="1.0" encoding="UTF-8"?><svg id="Capa_2" xmlns="http://www.w3.org/2000/svg" viewBox="0 0 1080 1080"><g id="Capa_1-2"><g id="Multifilar_-_Motor_monofásico"><path d="m466.4,310.86c40.92,0,80.61,8.01,117.97,23.81,36.09,15.26,68.5,37.12,96.34,64.95,27.83,27.84,49.69,60.25,64.95,96.34,15.8,37.36,23.81,77.05,23.81,117.97s-8.01,80.61-23.81,117.97c-15.26,36.09-37.12,68.5-64.95,96.34-27.84,27.84-60.25,49.69-96.34,64.95-37.36,15.8-77.05,23.81-117.97,23.81s-80.61-8.01-117.97-23.81c-36.09-15.26-68.5-37.12-96.34-64.95-27.84-27.84-49.69-60.25-64.95-96.34-15.8-37.36-23.81-77.05-23.81-117.97s8.01-80.61,23.81-117.97c15.26-36.09,37.12-68.5,64.95-96.34,27.84-27.83,60.25-49.69,96.34-64.95,37.36-15.8,77.05-23.81,117.97-23.81m0-5c-170.14,0-308.07,137.93-308.07,308.07s137.93,308.07,308.07,308.07,308.07-137.93,308.07-308.07-137.93-308.07-308.07-308.07h0Z"/><line x1="314.64" y1="158" x2="314.64" y2="350.33" fill="none" stroke="#000" stroke-miterlimit="10" stroke-width="5"/><line x1="619.11" y1="158" x2="619.11" y2="350.33" fill="none" stroke="#000" stroke-miterlimit="10" stroke-width="5"/><line x1="921.67" y1="158" x2="921.67" y2="614.18" fill="none" stroke="#000" stroke-miterlimit="10" stroke-width="5"/><line x1="773.99" y1="614.18" x2="921.67" y2="614.18" fill="none" stroke="#000" stroke-miterlimit="10" stroke-width="5"/><g id="Multifilar_-_Terminal"><path id="Terminal" d="m676.09,658.43c0,24.68-20.01,44.69-44.69,44.69-24.68,0-44.9-22.24-44.9-44.9,0-20.58-20.22-44.69-44.9-44.69s-44.69,20.01-44.69,44.69" fill="none" stroke="#000" stroke-miterlimit="10" stroke-width="5"/></g><path d="m498.13,512.5c-.67-12.64-1.48-27.83-1.35-39.12h-.4c-3.09,10.62-6.86,21.92-11.43,34.42l-16,43.96h-8.87l-14.66-43.16c-4.3-12.77-7.93-24.47-10.49-35.23h-.27c-.27,11.29-.94,26.49-1.75,40.07l-2.42,38.86h-11.16l6.32-90.62h14.92l15.46,43.83c3.76,11.16,6.86,21.11,9.14,30.52h.4c2.29-9.14,5.51-19.09,9.55-30.52l16.13-43.83h14.92l5.65,90.62h-11.43l-2.28-39.8Z"/><path d="m861,229.7c-.32-1.91-.59-4.4-.59-7.58,0-3.9.91-6.76,2.54-8.57,1.45-1.68,3.68-2.68,6.4-2.68s4.95.82,6.53,2.36c2.22,2.09,3.36,5.49,3.36,9.35,0,1.18-.04,2.27-.27,3.18h12.25v3.95h-30.21Zm14.74-3.95c.23-.86.32-1.95.32-3.27,0-4.76-2.31-7.67-6.53-7.67s-5.99,2.86-5.99,7.21c0,1.72.14,3.04.32,3.72h11.89Z"/><path d="m876.88,189.73v11.89h11.02v-13.25h3.31v17.19h-30.58v-16.51h3.31v12.57h9.66v-11.89h3.27Z"/><path d="m587.21,211.27h-30.51v-4.3l15.43-9.78c3.58-2.26,6.79-4.03,9.91-5.48l-.05-.09c-4.07.36-7.78.45-12.54.45h-12.76v-3.71h30.51v3.98l-15.48,9.69c-3.39,2.13-6.88,4.16-10.18,5.7l.05.14c3.85-.23,7.51-.32,12.58-.32h13.04v3.71Z"/><path d="m253,206.51h17.69c6.69,0,9.53-2.97,9.53-6.96,0-4.43-2.93-7.27-9.53-7.27h-17.69v-3.9h17.42c9.18,0,12.95,4.83,12.95,11.31,0,6.12-3.5,10.73-12.77,10.73h-17.6v-3.9Z"/><path d="m347.45,625.03h-.28l-15.84,8.55-2.38-9.39,19.9-10.65h10.51v91.11h-11.91v-79.62Z"/><rect id="Base" width="1080" height="1080" opacity="0"/></g></g></svg>