<?xml version="1.0" encoding="UTF-8"?><svg id="Capa_2" xmlns="http://www.w3.org/2000/svg" viewBox="0 0 1080 1080"><g id="Capa_1-2"><g id="Multifilar_-_Bobina_de_desactivación"><line x1="158" y1="540" x2="389.11" y2="540" fill="none" stroke="#000" stroke-miterlimit="10" stroke-width="5"/><line x1="694.71" y1="540" x2="922" y2="540" fill="none" stroke="#000" stroke-miterlimit="10" stroke-width="5"/><path d="m423.49,617.35c-21.1,0-38.2-34.63-38.2-77.35s17.1-77.35,38.2-77.35" fill="none" stroke="#000" stroke-miterlimit="10" stroke-width="5"/><path d="m656.51,462.65c21.1,0,38.2,34.63,38.2,77.35s-17.1,77.35-38.2,77.35" fill="none" stroke="#000" stroke-miterlimit="10" stroke-width="5"/><path d="m515.98,504.38c4.82-.99,11.71-1.53,18.27-1.53,10.18,0,16.74,1.86,21.34,6.01,3.72,3.29,5.8,8.32,5.8,14.01,0,9.75-6.13,16.2-13.9,18.83v.33c5.69,1.97,9.09,7.22,10.83,14.88,2.41,10.28,4.16,17.4,5.69,20.24h-9.85c-1.21-2.08-2.85-8.43-4.93-17.62-2.19-10.18-6.13-14.01-14.77-14.34h-8.97v31.95h-9.52v-72.77Zm9.52,33.59h9.74c10.18,0,16.64-5.58,16.64-14.01,0-9.52-6.9-13.68-16.96-13.78-4.6,0-7.88.44-9.41.87v26.92Z"/><rect id="Base" width="1080" height="1080" opacity="0"/></g></g></svg>