<?xml version="1.0" encoding="UTF-8"?><svg id="Capa_2" xmlns="http://www.w3.org/2000/svg" viewBox="0 0 1080 1080"><g id="Capa_1-2"><g id="Multifilar_-_Biestable_o_flip-flop_tipo_JK_asincrono"><rect x="383.25" y="285.36" width="305.57" height="509.28" fill="none" stroke="#000" stroke-miterlimit="10" stroke-width="5"/><line x1="280.12" y1="387.21" x2="381.97" y2="387.21" fill="none" stroke="#000" stroke-miterlimit="10" stroke-width="5"/><line x1="688.82" y1="387.21" x2="790.67" y2="387.21" fill="none" stroke="#000" stroke-miterlimit="10" stroke-width="5"/><line x1="688.82" y1="691.51" x2="790.67" y2="691.51" fill="none" stroke="#000" stroke-miterlimit="10" stroke-width="5"/><line x1="280.12" y1="691.51" x2="381.97" y2="691.51" fill="none" stroke="#000" stroke-miterlimit="10" stroke-width="5"/><path d="m217,336.29h12.94v67.07c0,26.61-13.08,34.79-30.33,34.79-4.76,0-10.56-1.04-13.83-2.38l1.94-10.56c2.68,1.04,6.54,1.94,10.85,1.94,11.59,0,18.43-5.21,18.43-24.83v-66.02Z"/><path d="m158,641.86h13.15v49.11h.45c2.72-3.93,5.45-7.56,8.01-10.89l31.13-38.22h16.32l-36.87,43.22,39.75,58.64h-15.57l-33.55-50.02-9.67,11.17v38.85h-13.15v-101.86Z"/><path d="m918.4,438.14c-11.83-3.12-23.39-6.63-33.52-10.13-1.82-.65-3.64-1.3-5.32-1.3-20.79-.78-38.59-16.11-38.59-44.3s17.15-46.12,40.79-46.12,39.24,18.45,39.24,44.3c0,22.48-10.39,36.9-24.94,41.97v.52c8.71,2.21,18.2,4.29,25.6,5.59l-3.25,9.48Zm-9.36-57.03c0-17.54-9.09-35.6-27.66-35.6s-28.46,17.67-28.33,36.63c-.13,18.58,10.13,35.34,27.8,35.34s28.19-16.37,28.19-36.37Z"/><path d="m918.06,743.71c-11.86-3.13-23.45-6.64-33.61-10.16-1.82-.65-3.65-1.3-5.33-1.3-20.84-.78-38.69-16.15-38.69-44.42s17.19-46.23,40.89-46.23,39.34,18.5,39.34,44.41c0,22.54-10.41,36.99-25.01,42.07v.52c8.73,2.22,18.24,4.3,25.67,5.6l-3.26,9.51Zm-9.39-57.18c0-17.58-9.11-35.69-27.73-35.69s-28.53,17.71-28.4,36.73c-.13,18.63,10.16,35.43,27.87,35.43s28.26-16.41,28.26-36.47Z"/><line x1="839.74" y1="631.67" x2="922" y2="631.67" fill="none" stroke="#000" stroke-miterlimit="10" stroke-width="3"/><rect id="Base" width="1080" height="1080" opacity="0"/></g></g></svg>