<?xml version="1.0" encoding="UTF-8"?><svg id="Capa_2" xmlns="http://www.w3.org/2000/svg" viewBox="0 0 1080 1080"><g id="Capa_1-2"><g id="Multifilar_-_Máquina_Serie"><path d="m539.57,422.39c31.89,0,62.82,6.24,91.94,18.56,28.13,11.9,53.39,28.93,75.08,50.62,21.69,21.69,38.73,46.95,50.62,75.08,12.32,29.12,18.56,60.05,18.56,91.94s-6.24,62.82-18.56,91.94c-11.9,28.13-28.93,53.39-50.62,75.08-21.69,21.69-46.95,38.73-75.08,50.62-29.12,12.32-60.05,18.56-91.94,18.56s-62.82-6.24-91.94-18.56c-28.13-11.9-53.39-28.93-75.08-50.62-21.69-21.69-38.73-46.95-50.62-75.08-12.32-29.12-18.56-60.05-18.56-91.94s6.24-62.82,18.56-91.94c11.9-28.13,28.93-53.39,50.62-75.08s46.95-38.73,75.08-50.62c29.12-12.32,60.05-18.56,91.94-18.56m0-5c-133.21,0-241.2,107.99-241.2,241.2s107.99,241.2,241.2,241.2,241.2-107.99,241.2-241.2-107.99-241.2-241.2-241.2h0Z"/><g id="Multifilar_-_Transformador"><path d="m897.82,458.17c-11.11,0-20.12,9.01-20.12,20.12s9.01,20.12,20.12,20.12" fill="none" stroke="#000" stroke-miterlimit="10" stroke-width="5"/><path d="m897.82,417.97c-11.11,0-20.12,9.01-20.12,20.12,0,11.11,9.01,20.12,20.12,20.12" fill="none" stroke="#000" stroke-miterlimit="10" stroke-width="5"/><path d="m897.82,377.77c-11.11,0-20.12,9.01-20.12,20.12,0,11.11,9.01,20.12,20.12,20.12" fill="none" stroke="#000" stroke-miterlimit="10" stroke-width="5"/><path d="m897.82,337.57c-11.11,0-20.12,9.01-20.12,20.12,0,11.11,9.01,20.12,20.12,20.12" fill="none" stroke="#000" stroke-miterlimit="10" stroke-width="5"/></g><line x1="181.9" y1="251.62" x2="181.9" y2="659.96" fill="none" stroke="#000" stroke-miterlimit="10" stroke-width="5"/><line x1="298.86" y1="658.59" x2="181.33" y2="658.59" fill="none" stroke="#000" stroke-miterlimit="10" stroke-width="5"/><line x1="897.8" y1="658.59" x2="779.65" y2="658.59" fill="none" stroke="#000" stroke-miterlimit="10" stroke-width="5"/><line x1="897.8" y1="337.98" x2="897.8" y2="251.62" fill="none" stroke="#000" stroke-miterlimit="10" stroke-width="5"/><line x1="897.8" y1="498.04" x2="897.8" y2="658.84" fill="none" stroke="#000" stroke-miterlimit="10" stroke-width="5"/><line x1="468.38" y1="729.78" x2="612.22" y2="729.78" fill="none" stroke="#000" stroke-miterlimit="10" stroke-width="5"/><line x1="468.38" y1="752.78" x2="497.56" y2="752.78" fill="none" stroke="#000" stroke-miterlimit="10" stroke-width="5"/><line x1="526.21" y1="752.78" x2="554.73" y2="752.78" fill="none" stroke="#000" stroke-miterlimit="10" stroke-width="5"/><line x1="583.38" y1="752.78" x2="612.39" y2="752.78" fill="none" stroke="#000" stroke-miterlimit="10" stroke-width="5"/><path d="m184.84,180.21v21.09h20.91v5.39h-20.91v21.27h-5.92v-21.27h-20.91v-5.39h20.91v-21.09h5.92Z"/><line x1="874.25" y1="204.08" x2="922" y2="204.08" fill="none" stroke="#000" stroke-miterlimit="10" stroke-width="5"/><path d="m565.72,578.36c-.53-9.99-1.17-22-1.06-30.92h-.32c-2.44,8.4-5.42,17.32-9.03,27.2l-12.65,34.75h-7.01l-11.58-34.11c-3.4-10.1-6.27-19.34-8.29-27.84h-.21c-.21,8.93-.74,20.93-1.38,31.67l-1.91,30.71h-8.82l5-71.62h11.8l12.22,34.64c2.98,8.82,5.42,16.68,7.23,24.12h.32c1.81-7.23,4.36-15.09,7.55-24.12l12.75-34.64h11.8l4.46,71.62h-9.03l-1.81-31.46Z"/><path d="m260.27,624.71l-2.96,8.97h-3.81l9.69-28.53h4.44l9.74,28.53h-3.94l-3.05-8.97h-10.12Zm9.36-2.88l-2.79-8.21c-.64-1.86-1.06-3.56-1.48-5.21h-.08c-.42,1.69-.89,3.43-1.44,5.16l-2.79,8.25h8.59Z"/><path d="m802.11,610.3c1.32-.28,3.4-.49,5.51-.49,3.02,0,4.96.52,6.42,1.7,1.21.9,1.94,2.29,1.94,4.13,0,2.25-1.49,4.23-3.95,5.13v.07c2.22.56,4.82,2.39,4.82,5.86,0,2.01-.8,3.54-1.98,4.68-1.63,1.49-4.27,2.19-8.08,2.19-2.08,0-3.68-.14-4.68-.28v-23Zm3.02,9.57h2.74c3.19,0,5.06-1.66,5.06-3.92,0-2.74-2.08-3.82-5.13-3.82-1.39,0-2.19.1-2.67.21v7.53Zm0,11.2c.59.1,1.46.14,2.53.14,3.12,0,6-1.14,6-4.54,0-3.19-2.74-4.51-6.03-4.51h-2.5v8.91Z"/><path d="m863.06,310.95v9.28h8.61v-10.34h2.59v13.43h-23.87v-12.89h2.59v9.81h7.54v-9.28h2.55Z"/><path d="m850.38,527.17v-12.86h2.59v9.78h7.93v-9.03h2.55v9.03h10.8v3.08h-23.87Z"/><rect id="Base" width="1080" height="1080" opacity="0"/></g></g></svg>