<?xml version="1.0" encoding="UTF-8"?><svg id="Capa_2" xmlns="http://www.w3.org/2000/svg" viewBox="0 0 1080 1080"><g id="Capa_1-2"><g id="Multifilar_-_Contador_tipo_T_Asincrono_Ascendente"><g id="Multifilar_-_Biestable_o_flip-flop_tipo_T_sincrono"><rect x="105.54" y="459.33" width="80.44" height="134.06" fill="none" stroke="#000" stroke-miterlimit="10" stroke-width="5"/><line x1="78.46" y1="486.15" x2="105.21" y2="486.15" fill="none" stroke="#000" stroke-miterlimit="10" stroke-width="5"/><line x1="185.98" y1="486.15" x2="239.77" y2="486.15" fill="none" stroke="#000" stroke-miterlimit="10" stroke-width="5"/><path d="m177.89,492.85c-1.56-.41-3.08-.87-4.41-1.33-.24-.09-.48-.17-.7-.17-2.74-.1-5.08-2.12-5.08-5.83s2.26-6.07,5.37-6.07,5.16,2.43,5.16,5.83c0,2.96-1.37,4.86-3.28,5.52v.07c1.15.29,2.39.56,3.37.74l-.43,1.25Zm-1.23-7.51c0-2.31-1.2-4.69-3.64-4.69s-3.75,2.33-3.73,4.82c-.02,2.45,1.33,4.65,3.66,4.65s3.71-2.15,3.71-4.79Z"/><path d="m118.45,480.92h-4.08v-1.47h9.93v1.47h-4.1v11.93h-1.75v-11.93Z"/><path d="m177.79,573.96c-1.55-.41-3.06-.87-4.38-1.32-.24-.09-.48-.17-.7-.17-2.72-.1-5.04-2.11-5.04-5.79s2.24-6.03,5.33-6.03,5.13,2.41,5.13,5.79c0,2.94-1.36,4.82-3.26,5.49v.07c1.14.29,2.38.56,3.35.73l-.42,1.24Zm-1.22-7.46c0-2.29-1.19-4.65-3.62-4.65s-3.72,2.31-3.7,4.79c-.02,2.43,1.32,4.62,3.63,4.62s3.69-2.14,3.69-4.75Z"/><line x1="167.58" y1="559.35" x2="178.3" y2="559.35" fill="none" stroke="#000" stroke-miterlimit="10" stroke-width="2"/><polygon points="118.44 526.3 105.71 519.69 105.71 532.9 118.44 526.3" fill="none" stroke="#000" stroke-miterlimit="10" stroke-width="5"/><path d="m135.41,532.34c-.61.31-1.84.61-3.41.61-3.64,0-6.38-2.3-6.38-6.54s2.74-6.79,6.75-6.79c1.61,0,2.63.34,3.07.58l-.4,1.36c-.63-.31-1.53-.54-2.61-.54-3.03,0-5.04,1.94-5.04,5.33,0,3.16,1.82,5.2,4.96,5.2,1.02,0,2.05-.21,2.72-.54l.34,1.32Z"/><path d="m137.5,519.85h1.67v11.52h5.52v1.4h-7.19v-12.92Z"/><path d="m146.55,519.85h1.67v6.23h.06c.35-.5.69-.96,1.02-1.38l3.95-4.85h2.07l-4.68,5.48,5.04,7.44h-1.97l-4.26-6.34-1.23,1.42v4.93h-1.67v-12.92Z"/></g><g id="Multifilar_-_Biestable_o_flip-flop_tipo_T_sincrono-2"><rect x="373.66" y="459.33" width="80.44" height="134.06" fill="none" stroke="#000" stroke-miterlimit="10" stroke-width="5"/><line x1="346.41" y1="486.15" x2="373.33" y2="486.15" fill="none" stroke="#000" stroke-miterlimit="10" stroke-width="5"/><line x1="454.1" y1="486.15" x2="507.89" y2="486.15" fill="none" stroke="#000" stroke-miterlimit="10" stroke-width="5"/><path d="m446.01,492.85c-1.56-.41-3.08-.87-4.41-1.33-.24-.09-.48-.17-.7-.17-2.74-.1-5.08-2.12-5.08-5.83s2.26-6.07,5.37-6.07,5.16,2.43,5.16,5.83c0,2.96-1.37,4.86-3.28,5.52v.07c1.15.29,2.39.56,3.37.74l-.43,1.25Zm-1.23-7.51c0-2.31-1.2-4.69-3.64-4.69s-3.75,2.33-3.73,4.82c-.02,2.45,1.33,4.65,3.66,4.65s3.71-2.15,3.71-4.79Z"/><path d="m386.58,480.92h-4.08v-1.47h9.93v1.47h-4.1v11.93h-1.75v-11.93Z"/><path d="m445.91,573.96c-1.55-.41-3.06-.87-4.38-1.32-.24-.09-.48-.17-.7-.17-2.72-.1-5.04-2.11-5.04-5.79s2.24-6.03,5.33-6.03,5.13,2.41,5.13,5.79c0,2.94-1.36,4.82-3.26,5.49v.07c1.14.29,2.38.56,3.35.73l-.42,1.24Zm-1.22-7.46c0-2.29-1.19-4.65-3.62-4.65s-3.72,2.31-3.7,4.79c-.02,2.43,1.32,4.62,3.63,4.62s3.69-2.14,3.69-4.75Z"/><line x1="435.7" y1="559.35" x2="446.42" y2="559.35" fill="none" stroke="#000" stroke-miterlimit="10" stroke-width="2"/><line x1="319.7" y1="525.98" x2="373.33" y2="525.98" fill="none" stroke="#000" stroke-miterlimit="10" stroke-width="5"/><polygon points="386.57 526.3 373.83 519.69 373.83 532.9 386.57 526.3" fill="none" stroke="#000" stroke-miterlimit="10" stroke-width="5"/><path d="m403.53,532.34c-.61.31-1.84.61-3.41.61-3.64,0-6.38-2.3-6.38-6.54s2.74-6.79,6.75-6.79c1.61,0,2.63.34,3.07.58l-.4,1.36c-.63-.31-1.53-.54-2.61-.54-3.03,0-5.04,1.94-5.04,5.33,0,3.16,1.82,5.2,4.96,5.2,1.02,0,2.05-.21,2.72-.54l.34,1.32Z"/><path d="m405.62,519.85h1.67v11.52h5.52v1.4h-7.19v-12.92Z"/><path d="m414.68,519.85h1.67v6.23h.06c.35-.5.69-.96,1.02-1.38l3.95-4.85h2.07l-4.68,5.48,5.04,7.44h-1.97l-4.26-6.34-1.23,1.42v4.93h-1.67v-12.92Z"/></g><g id="Multifilar_-_Biestable_o_flip-flop_tipo_T_sincrono-3"><rect x="641.79" y="459.33" width="80.44" height="134.06" fill="none" stroke="#000" stroke-miterlimit="10" stroke-width="5"/><line x1="614.53" y1="485.64" x2="641.45" y2="486.15" fill="none" stroke="#000" stroke-miterlimit="10" stroke-width="5"/><line x1="722.22" y1="486.15" x2="776.02" y2="486.15" fill="none" stroke="#000" stroke-miterlimit="10" stroke-width="5"/><path d="m714.14,492.85c-1.56-.41-3.08-.87-4.41-1.33-.24-.09-.48-.17-.7-.17-2.74-.1-5.08-2.12-5.08-5.83s2.26-6.07,5.37-6.07,5.16,2.43,5.16,5.83c0,2.96-1.37,4.86-3.28,5.52v.07c1.15.29,2.39.56,3.37.74l-.43,1.25Zm-1.23-7.51c0-2.31-1.2-4.69-3.64-4.69s-3.75,2.33-3.73,4.82c-.02,2.45,1.33,4.65,3.66,4.65s3.71-2.15,3.71-4.79Z"/><path d="m654.7,480.92h-4.08v-1.47h9.93v1.47h-4.1v11.93h-1.75v-11.93Z"/><path d="m714.03,573.96c-1.55-.41-3.06-.87-4.38-1.32-.24-.09-.48-.17-.7-.17-2.72-.1-5.04-2.11-5.04-5.79s2.24-6.03,5.33-6.03,5.13,2.41,5.13,5.79c0,2.94-1.36,4.82-3.26,5.49v.07c1.14.29,2.38.56,3.35.73l-.42,1.24Zm-1.22-7.46c0-2.29-1.19-4.65-3.62-4.65s-3.72,2.31-3.7,4.79c-.02,2.43,1.32,4.62,3.63,4.62s3.69-2.14,3.69-4.75Z"/><line x1="703.82" y1="559.35" x2="714.55" y2="559.35" fill="none" stroke="#000" stroke-miterlimit="10" stroke-width="2"/><line x1="587.83" y1="525.98" x2="641.45" y2="525.98" fill="none" stroke="#000" stroke-miterlimit="10" stroke-width="5"/><polygon points="654.69 526.3 641.96 519.69 641.96 532.9 654.69 526.3" fill="none" stroke="#000" stroke-miterlimit="10" stroke-width="5"/><path d="m671.65,532.34c-.61.31-1.84.61-3.41.61-3.64,0-6.38-2.3-6.38-6.54s2.74-6.79,6.75-6.79c1.61,0,2.63.34,3.07.58l-.4,1.36c-.63-.31-1.53-.54-2.61-.54-3.03,0-5.04,1.94-5.04,5.33,0,3.16,1.82,5.2,4.96,5.2,1.02,0,2.05-.21,2.72-.54l.34,1.32Z"/><path d="m673.75,519.85h1.67v11.52h5.52v1.4h-7.19v-12.92Z"/><path d="m682.8,519.85h1.67v6.23h.06c.35-.5.69-.96,1.02-1.38l3.95-4.85h2.07l-4.68,5.48,5.04,7.44h-1.97l-4.26-6.34-1.23,1.42v4.93h-1.67v-12.92Z"/></g><g id="Multifilar_-_Biestable_o_flip-flop_tipo_T_sincrono-4"><rect x="909.86" y="459.33" width="80.49" height="134.06" fill="none" stroke="#000" stroke-miterlimit="10" stroke-width="5"/><line x1="882.72" y1="485.98" x2="909.86" y2="486.15" fill="none" stroke="#000" stroke-miterlimit="10" stroke-width="5"/><line x1="990.35" y1="486.15" x2="1044.14" y2="486.15" fill="none" stroke="#000" stroke-miterlimit="10" stroke-width="5"/><line x1="990.35" y1="566.33" x2="1017.24" y2="566.33" fill="none" stroke="#000" stroke-miterlimit="10" stroke-width="5"/><path d="m982.26,492.85c-1.56-.41-3.08-.87-4.41-1.33-.24-.09-.48-.17-.7-.17-2.74-.1-5.08-2.12-5.08-5.83s2.26-6.07,5.37-6.07,5.16,2.43,5.16,5.83c0,2.96-1.37,4.86-3.28,5.52v.07c1.15.29,2.39.56,3.37.74l-.43,1.25Zm-1.23-7.51c0-2.31-1.2-4.69-3.64-4.69s-3.75,2.33-3.73,4.82c-.02,2.45,1.33,4.65,3.66,4.65s3.71-2.15,3.71-4.79Z"/><path d="m922.82,480.92h-4.08v-1.47h9.93v1.47h-4.1v11.93h-1.75v-11.93Z"/><path d="m982.16,573.96c-1.55-.41-3.06-.87-4.38-1.32-.24-.09-.48-.17-.7-.17-2.72-.1-5.04-2.11-5.04-5.79s2.24-6.03,5.33-6.03,5.13,2.41,5.13,5.79c0,2.94-1.36,4.82-3.26,5.49v.07c1.14.29,2.38.56,3.35.73l-.42,1.24Zm-1.22-7.46c0-2.29-1.19-4.65-3.62-4.65s-3.72,2.31-3.7,4.79c-.02,2.43,1.32,4.62,3.63,4.62s3.69-2.14,3.69-4.75Z"/><line x1="971.95" y1="559.35" x2="982.67" y2="559.35" fill="none" stroke="#000" stroke-miterlimit="10" stroke-width="2"/><line x1="855.95" y1="525.98" x2="909.86" y2="525.98" fill="none" stroke="#000" stroke-miterlimit="10" stroke-width="5"/><polygon points="922.81 526.3 909.86 519.69 909.86 532.9 922.81 526.3" fill="none" stroke="#000" stroke-miterlimit="10" stroke-width="5"/><path d="m939.78,532.34c-.61.31-1.84.61-3.41.61-3.64,0-6.38-2.3-6.38-6.54s2.74-6.79,6.75-6.79c1.61,0,2.63.34,3.07.58l-.4,1.36c-.63-.31-1.53-.54-2.61-.54-3.03,0-5.04,1.94-5.04,5.33,0,3.16,1.82,5.2,4.96,5.2,1.02,0,2.05-.21,2.72-.54l.34,1.32Z"/><path d="m941.87,519.85h1.67v11.52h5.52v1.4h-7.19v-12.92Z"/><path d="m950.92,519.85h1.67v6.23h.06c.35-.5.69-.96,1.02-1.38l3.95-4.85h2.07l-4.68,5.48,5.04,7.44h-1.97l-4.26-6.34-1.23,1.42v4.93h-1.67v-12.92Z"/></g><g id="Multifilar_-_Entrada_Lógica"><rect x="11" y="512.96" width="40.22" height="26.81" fill="none" stroke="#000" stroke-miterlimit="10" stroke-width="5"/><line x1="51.05" y1="526.2" x2="105.21" y2="526.2" fill="none" stroke="#000" stroke-miterlimit="10" stroke-width="5"/><path d="m35.47,526.23c0,4.37-1.62,6.78-4.47,6.78-2.51,0-4.21-2.35-4.25-6.6,0-4.31,1.86-6.68,4.47-6.68s4.25,2.41,4.25,6.5Zm-6.97.2c0,3.34,1.03,5.24,2.61,5.24,1.78,0,2.63-2.07,2.63-5.35s-.81-5.24-2.61-5.24c-1.52,0-2.63,1.86-2.63,5.36Z"/></g><path d="m26.54,419.12v11.84h11.8v3.02h-11.8v11.94h-3.34v-11.94h-11.8v-3.02h11.8v-11.84h3.34Z"/><line x1="78.46" y1="432.19" x2="882.72" y2="432.19" fill="none" stroke="#000" stroke-miterlimit="10" stroke-width="5"/><line x1="882.72" y1="485.92" x2="882.72" y2="432.19" fill="none" stroke="#000" stroke-miterlimit="10" stroke-width="5"/><line x1="614.53" y1="485.92" x2="614.53" y2="432.19" fill="none" stroke="#000" stroke-miterlimit="10" stroke-width="5"/><line x1="346.41" y1="485.92" x2="346.41" y2="432.19" fill="none" stroke="#000" stroke-miterlimit="10" stroke-width="5"/><line x1="78.46" y1="485.81" x2="78.46" y2="432.19" fill="none" stroke="#000" stroke-miterlimit="10" stroke-width="5"/><line x1="185.98" y1="566.33" x2="319.54" y2="566.33" fill="none" stroke="#000" stroke-miterlimit="10" stroke-width="5"/><line x1="319.54" y1="525.98" x2="319.54" y2="566.33" fill="none" stroke="#000" stroke-miterlimit="10" stroke-width="5"/><line x1="454.1" y1="566.33" x2="587.66" y2="566.33" fill="none" stroke="#000" stroke-miterlimit="10" stroke-width="5"/><line x1="587.66" y1="525.98" x2="587.66" y2="566.33" fill="none" stroke="#000" stroke-miterlimit="10" stroke-width="5"/><line x1="722.22" y1="566.33" x2="855.78" y2="566.33" fill="none" stroke="#000" stroke-miterlimit="10" stroke-width="5"/><line x1="855.78" y1="525.98" x2="855.78" y2="566.33" fill="none" stroke="#000" stroke-miterlimit="10" stroke-width="5"/><line x1="52.08" y1="432.19" x2="78.46" y2="432.19" fill="none" stroke="#000" stroke-miterlimit="10" stroke-width="5"/><line x1="239.77" y1="486.15" x2="239.77" y2="619.87" fill="none" stroke="#000" stroke-miterlimit="10" stroke-width="5"/><line x1="507.89" y1="485.92" x2="507.89" y2="619.87" fill="none" stroke="#000" stroke-miterlimit="10" stroke-width="5"/><line x1="776.02" y1="485.92" x2="776.02" y2="619.87" fill="none" stroke="#000" stroke-miterlimit="10" stroke-width="5"/><line x1="1044.14" y1="485.81" x2="1044.14" y2="619.87" fill="none" stroke="#000" stroke-miterlimit="10" stroke-width="5"/><g id="Unifilar_-_Unión_punto_de_conexión"><circle id="Union_punto_de_conexión" cx="78.56" cy="431.85" r="6.7"/></g><g id="Unifilar_-_Unión_punto_de_conexión-2"><circle id="Union_punto_de_conexión-2" cx="346.68" cy="431.85" r="6.7"/></g><g id="Unifilar_-_Unión_punto_de_conexión-3"><circle id="Union_punto_de_conexión-3" cx="614.81" cy="431.85" r="6.7"/></g><path d="m246.67,660.43c-3.12-.82-6.17-1.75-8.84-2.67-.48-.17-.96-.34-1.4-.34-5.48-.21-10.17-4.25-10.17-11.68s4.52-12.16,10.76-12.16,10.35,4.87,10.35,11.68c0,5.93-2.74,9.73-6.58,11.07v.14c2.29.58,4.8,1.13,6.75,1.47l-.86,2.5Zm-2.47-15.04c0-4.63-2.4-9.39-7.3-9.39s-7.5,4.66-7.47,9.66c-.03,4.9,2.67,9.32,7.33,9.32s7.43-4.32,7.43-9.59Z"/><path d="m255.5,648.71h-.04l-2.33,1.26-.35-1.38,2.93-1.57h1.55v13.41h-1.75v-11.72Z"/><path d="m514.79,660.43c-3.12-.82-6.17-1.75-8.84-2.67-.48-.17-.96-.34-1.4-.34-5.48-.21-10.17-4.25-10.17-11.68s4.52-12.16,10.76-12.16,10.35,4.87,10.35,11.68c0,5.93-2.74,9.73-6.58,11.07v.14c2.29.58,4.8,1.13,6.75,1.47l-.86,2.5Zm-2.47-15.04c0-4.63-2.4-9.39-7.3-9.39s-7.5,4.66-7.47,9.66c-.03,4.9,2.67,9.32,7.33,9.32s7.43-4.32,7.43-9.59Z"/><path d="m782.92,660.43c-3.12-.82-6.17-1.75-8.84-2.67-.48-.17-.96-.34-1.4-.34-5.48-.21-10.17-4.25-10.17-11.68s4.52-12.16,10.76-12.16,10.35,4.87,10.35,11.68c0,5.93-2.74,9.73-6.58,11.07v.14c2.29.58,4.8,1.13,6.75,1.47l-.86,2.5Zm-2.47-15.04c0-4.63-2.4-9.39-7.3-9.39s-7.5,4.66-7.47,9.66c-.03,4.9,2.67,9.32,7.33,9.32s7.43-4.32,7.43-9.59Z"/><path d="m1051.04,660.43c-3.12-.82-6.17-1.75-8.84-2.67-.48-.17-.96-.34-1.4-.34-5.48-.21-10.17-4.25-10.17-11.68s4.52-12.16,10.76-12.16,10.35,4.87,10.35,11.68c0,5.93-2.74,9.73-6.58,11.07v.14c2.29.58,4.8,1.13,6.75,1.47l-.86,2.5Zm-2.47-15.04c0-4.63-2.4-9.39-7.3-9.39s-7.5,4.66-7.47,9.66c-.03,4.9,2.67,9.32,7.33,9.32s7.43-4.32,7.43-9.59Z"/><path d="m520.95,660.43v-1.08l1.38-1.34c3.31-3.15,4.81-4.83,4.83-6.78,0-1.32-.64-2.53-2.57-2.53-1.18,0-2.16.6-2.75,1.1l-.56-1.24c.9-.76,2.18-1.32,3.67-1.32,2.79,0,3.97,1.92,3.97,3.77,0,2.39-1.73,4.33-4.47,6.96l-1.04.96v.04h5.83v1.46h-8.28Z"/><path d="m789.36,658.19c.5.32,1.66.82,2.87.82,2.25,0,2.95-1.44,2.93-2.51-.02-1.82-1.66-2.59-3.35-2.59h-.98v-1.32h.98c1.28,0,2.89-.66,2.89-2.19,0-1.04-.66-1.96-2.27-1.96-1.04,0-2.03.46-2.59.86l-.46-1.28c.68-.5,1.99-1,3.39-1,2.55,0,3.71,1.52,3.71,3.09,0,1.34-.8,2.47-2.39,3.05v.04c1.6.32,2.89,1.52,2.89,3.33,0,2.07-1.61,3.89-4.73,3.89-1.46,0-2.73-.46-3.37-.88l.48-1.36Z"/><path d="m1063.41,660.43v-3.65h-6.23v-1.2l5.98-8.56h1.96v8.33h1.88v1.42h-1.88v3.65h-1.71Zm0-5.07v-4.48c0-.7.02-1.4.06-2.1h-.06c-.41.78-.74,1.36-1.11,1.98l-3.28,4.56v.04h4.39Z"/><rect id="Base" width="1080" height="1080" opacity="0"/></g></g></svg>