<?xml version="1.0" encoding="UTF-8"?><svg id="Capa_2" xmlns="http://www.w3.org/2000/svg" viewBox="0 0 1080 1080"><g id="Capa_1-2"><g id="Multifilar_-_Biestable_o_flip-flop_tipo_RS_sincrono"><rect x="475.54" y="328.98" width="253.22" height="422.04" fill="none" stroke="#000" stroke-miterlimit="10" stroke-width="5"/><line x1="390.08" y1="413.39" x2="474.48" y2="413.39" fill="none" stroke="#000" stroke-miterlimit="10" stroke-width="5"/><line x1="728.76" y1="413.39" x2="813.17" y2="413.39" fill="none" stroke="#000" stroke-miterlimit="10" stroke-width="5"/><line x1="728.76" y1="665.56" x2="813.17" y2="665.56" fill="none" stroke="#000" stroke-miterlimit="10" stroke-width="5"/><line x1="390.08" y1="665.56" x2="474.48" y2="665.56" fill="none" stroke="#000" stroke-miterlimit="10" stroke-width="5"/><path d="m919.02,455.59c-9.8-2.59-19.38-5.49-27.78-8.4-1.51-.54-3.02-1.08-4.41-1.08-17.23-.64-31.98-13.35-31.98-36.71s14.21-38.22,33.8-38.22,32.51,15.29,32.51,36.71c0,18.63-8.61,30.58-20.67,34.78v.43c7.21,1.83,15.08,3.55,21.21,4.63l-2.69,7.86Zm-7.76-47.26c0-14.53-7.53-29.5-22.92-29.5s-23.58,14.64-23.48,30.36c-.11,15.4,8.4,29.28,23.04,29.28s23.36-13.57,23.36-30.14Z"/><path d="m918.73,708.82c-9.83-2.59-19.43-5.51-27.85-8.42-1.51-.54-3.02-1.08-4.42-1.08-17.27-.65-32.06-13.39-32.06-36.81s14.25-38.31,33.89-38.31,32.6,15.33,32.6,36.8c0,18.68-8.63,30.65-20.72,34.86v.43c7.23,1.84,15.12,3.56,21.27,4.64l-2.7,7.88Zm-7.78-47.38c0-14.57-7.55-29.57-22.98-29.57s-23.64,14.68-23.54,30.44c-.11,15.44,8.42,29.36,23.1,29.36s23.42-13.6,23.42-30.22Z"/><line x1="853.83" y1="615.97" x2="922" y2="615.97" fill="none" stroke="#000" stroke-miterlimit="10" stroke-width="3"/><polygon points="516.16 540 476.07 519.21 476.07 560.79 516.16 540" fill="none" stroke="#000" stroke-miterlimit="10" stroke-width="5"/><path d="m220.06,578.32c-3.89,1.94-11.66,3.89-21.62,3.89-23.08,0-40.45-14.58-40.45-41.42s17.37-42.99,42.75-42.99c10.2,0,16.64,2.19,19.43,3.64l-2.55,8.62c-4.01-1.95-9.72-3.4-16.51-3.4-19.19,0-31.94,12.27-31.94,33.76,0,20.04,11.54,32.92,31.46,32.92,6.43,0,12.99-1.34,17.25-3.4l2.19,8.38Z"/><path d="m233.34,499.13h10.57v72.99h34.98v8.87h-45.54v-81.86Z"/><path d="m290.69,499.13h10.57v39.47h.36c2.19-3.16,4.38-6.07,6.44-8.75l25.02-30.73h13.12l-29.63,34.74,31.94,47.12h-12.5l-26.96-40.2-7.77,8.98v31.21h-10.57v-81.86Z"/><line x1="390.08" y1="540" x2="474.48" y2="540" fill="none" stroke="#000" stroke-miterlimit="10" stroke-width="5"/><path d="m301.62,694.72c4.74,2.92,11.66,5.35,18.95,5.35,10.81,0,17.12-5.71,17.12-13.97,0-7.65-4.37-12.02-15.42-16.27-13.36-4.74-21.62-11.66-21.62-23.19,0-12.75,10.57-22.23,26.48-22.23,8.38,0,14.45,1.94,18.1,4.01l-2.92,8.62c-2.67-1.46-8.13-3.89-15.55-3.89-11.17,0-15.42,6.68-15.42,12.27,0,7.65,4.98,11.42,16.27,15.79,13.85,5.35,20.89,12.03,20.89,24.05,0,12.63-9.35,23.57-28.66,23.57-7.89,0-16.51-2.31-20.89-5.23l2.67-8.87Z"/><path d="m293.92,372.93c5.47-1.12,13.3-1.74,20.76-1.74,11.56,0,19.02,2.12,24.24,6.83,4.23,3.74,6.59,9.45,6.59,15.91,0,11.07-6.96,18.4-15.79,21.39v.37c6.46,2.24,10.31,8.2,12.3,16.9,2.74,11.68,4.73,19.77,6.47,23h-11.19c-1.37-2.36-3.23-9.58-5.59-20.01-2.49-11.56-6.96-15.91-16.78-16.29h-10.19v36.3h-10.82v-82.67Zm10.82,38.16h11.06c11.56,0,18.89-6.34,18.89-15.91,0-10.81-7.83-15.54-19.27-15.66-5.22,0-8.95.5-10.69.99v30.58Z"/><rect id="Base" width="1080" height="1080" opacity="0"/></g></g></svg>