<?xml version="1.0" encoding="UTF-8"?><svg id="Capa_2" xmlns="http://www.w3.org/2000/svg" viewBox="0 0 1080 1080"><g id="Capa_1-2"><g id="Unifilar_-_Representación_de_Derivaciones"><circle cx="539.89" cy="417.84" r="21.06"/><line x1="922" y1="417.63" x2="158" y2="417.63" fill="none" stroke="#000" stroke-miterlimit="10" stroke-width="5"/><line x1="540.11" y1="799.3" x2="540.11" y2="416.88" fill="none" stroke="#000" stroke-miterlimit="10" stroke-width="5"/><line x1="233.71" y1="493.62" x2="386.92" y2="340.41" fill="none" stroke="#000" stroke-miterlimit="10" stroke-width="5"/><path d="m291.24,341.46v-4.96l6.34-6.16c15.26-14.52,22.15-22.24,22.24-31.25,0-6.07-2.94-11.67-11.86-11.67-5.42,0-9.93,2.76-12.68,5.06l-2.57-5.7c4.14-3.49,10.02-6.07,16.91-6.07,12.87,0,18.29,8.82,18.29,17.37,0,11.03-8,19.95-20.59,32.08l-4.78,4.41v.18h26.84v6.71h-38.15Z"/><line x1="846.85" y1="340.37" x2="693.56" y2="493.65" fill="none" stroke="#000" stroke-miterlimit="10" stroke-width="5"/><path d="m751.13,341.46v-4.96l6.34-6.16c15.26-14.52,22.15-22.24,22.24-31.25,0-6.07-2.94-11.67-11.86-11.67-5.42,0-9.93,2.76-12.69,5.05l-2.57-5.7c4.14-3.49,10.02-6.07,16.91-6.07,12.87,0,18.29,8.82,18.29,17.37,0,11.03-8,19.95-20.59,32.08l-4.78,4.41v.18h26.84v6.71h-38.15Z"/><line x1="463.63" y1="723.58" x2="616.6" y2="570.61" fill="none" stroke="#000" stroke-miterlimit="10" stroke-width="5"/><path d="m624.07,677.47v-4.96l6.34-6.16c15.26-14.52,22.15-22.24,22.24-31.25,0-6.07-2.94-11.67-11.86-11.67-5.42,0-9.93,2.76-12.69,5.05l-2.57-5.7c4.14-3.49,10.02-6.07,16.91-6.07,12.87,0,18.29,8.82,18.29,17.37,0,11.03-8,19.95-20.59,32.08l-4.78,4.41v.18h26.84v6.71h-38.15Z"/><rect id="Base" width="1080" height="1080" opacity="0"/></g></g></svg>