<?xml version="1.0" encoding="UTF-8"?><svg id="Capa_2" xmlns="http://www.w3.org/2000/svg" viewBox="0 0 1080 1080"><g id="Capa_1-2"><g id="Unifilar_-_Líneas_de_3_Conductores"><line x1="922" y1="581.75" x2="158" y2="581.75" fill="none" stroke="#000" stroke-miterlimit="10" stroke-width="5"/><line x1="606.83" y1="514.28" x2="471.89" y2="649.22" fill="none" stroke="#000" stroke-miterlimit="10" stroke-width="5"/><path d="m530.4,462.62c1.42.91,4.72,2.33,8.19,2.33,6.42,0,8.41-4.09,8.36-7.16-.06-5.17-4.72-7.39-9.55-7.39h-2.78v-3.75h2.78c3.64,0,8.24-1.87,8.24-6.25,0-2.96-1.88-5.57-6.48-5.57-2.96,0-5.8,1.31-7.39,2.44l-1.31-3.64c1.93-1.42,5.68-2.84,9.66-2.84,7.28,0,10.57,4.32,10.57,8.81,0,3.81-2.27,7.05-6.82,8.7v.12c4.55.91,8.24,4.32,8.24,9.49,0,5.91-4.61,11.08-13.47,11.08-4.15,0-7.79-1.31-9.61-2.5l1.36-3.86Z"/><rect id="Base" width="1080" height="1080" opacity="0"/></g></g></svg>