<?xml version="1.0" encoding="UTF-8"?><svg id="Capa_1" xmlns="http://www.w3.org/2000/svg" viewBox="0 0 1080 1080"><rect id="Base" width="1080" height="1080" style="fill:#000; opacity:0; stroke-width:0px;"/><g id="Unifilar_-_Óhmetro"><line x1="158" y1="540" x2="413.38" y2="540" style="fill:none; stroke:#000; stroke-miterlimit:10; stroke-width:5px;"/><circle cx="668.05" cy="540" r="253.95" style="fill:none; stroke:#000; stroke-miterlimit:10; stroke-width:5px;"/><path d="M571.78,641.46v-20.48h43.04v-1.19c-19.89-16.33-39.18-46.01-39.18-84.59,0-56.99,40.07-97.06,93.2-97.06s90.23,41.85,90.23,94.68c0,40.96-19.59,70.34-39.47,86.97v1.19h43.63v20.48h-75.09v-16.33c23.75-16.32,44.22-48.08,44.22-88.15,0-36.51-21.67-77.77-64.11-77.77s-65.6,38.88-65.6,78.06,20.78,73.02,44.52,87.86v16.33h-75.39Z" style="fill:#000; stroke-width:0px;"/></g></svg>