<?xml version="1.0" encoding="UTF-8"?><svg id="Capa_2" xmlns="http://www.w3.org/2000/svg" viewBox="0 0 1080 1080"><g id="Capa_1-2"><g id="Unifilar_-_Contador_de_energía"><rect x="399.69" y="158.86" width="521.79" height="762.28" fill="none" stroke="#000" stroke-miterlimit="10" stroke-width="5"/><line x1="399.16" y1="400.2" x2="922" y2="400.2" fill="none" stroke="#000" stroke-miterlimit="10" stroke-width="5"/><line x1="158" y1="586.88" x2="400.54" y2="586.88" fill="none" stroke="#000" stroke-miterlimit="10" stroke-width="5"/><path d="m557.54,730.76l-36.15-142.51h19.45l16.92,72.1c4.23,17.76,8.04,35.52,10.57,49.27h.42c2.33-14.17,6.77-31.08,11.63-49.48l19.03-71.89h19.24l17.34,72.31c4.02,16.91,7.82,33.83,9.94,48.84h.42c2.96-15.65,6.98-31.5,11.42-49.27l18.82-71.89h18.82l-40.39,142.51h-19.24l-17.97-74.22c-4.44-18.18-7.4-32.14-9.31-46.52h-.42c-2.54,14.17-5.71,28.12-11,46.52l-20.3,74.22h-19.24Z"/><path d="m711.45,580.64h18.61v63.86h.42c2.96-5.29,7.61-9.94,13.32-13.11,5.5-3.17,12.05-5.28,19.03-5.28,13.74,0,35.73,8.46,35.73,43.77v60.9h-18.61v-58.78c0-16.49-6.13-30.45-23.68-30.45-12.05,0-21.57,8.46-24.95,18.61-1.06,2.54-1.27,5.29-1.27,8.88v61.74h-18.61v-150.12Z"/><rect id="Base" width="1080" height="1080" opacity="0"/></g></g></svg>