<?xml version="1.0" encoding="UTF-8"?><svg id="Capa_2" xmlns="http://www.w3.org/2000/svg" viewBox="0 0 1080 1080"><g id="Capa_1-2"><g id="Unifilar_-_Caja_de_derivación"><circle id="Union_punto_de_conexión" cx="540.29" cy="412.41" r="12.98"/><line x1="240.99" y1="457.93" x2="330.26" y2="368.66" fill="none" stroke="#000" stroke-miterlimit="10" stroke-width="5"/><line x1="750.62" y1="458.23" x2="839.89" y2="368.96" fill="none" stroke="#000" stroke-miterlimit="10" stroke-width="5"/><line x1="412.51" y1="413.39" x2="540.61" y2="285.29" fill="none" stroke="#000" stroke-miterlimit="10" stroke-width="5"/><line x1="539.94" y1="285.29" x2="668.04" y2="413.39" fill="none" stroke="#000" stroke-miterlimit="10" stroke-width="5"/><line x1="412.51" y1="412.72" x2="540.61" y2="540.82" fill="none" stroke="#000" stroke-miterlimit="10" stroke-width="5"/><line x1="539.94" y1="540.82" x2="668.04" y2="412.72" fill="none" stroke="#000" stroke-miterlimit="10" stroke-width="5"/><line x1="158" y1="413.3" x2="922" y2="413.3" fill="none" stroke="#000" stroke-miterlimit="10" stroke-width="5"/><line x1="541.18" y1="414.18" x2="541.18" y2="794.71" fill="none" stroke="#000" stroke-miterlimit="10" stroke-width="5"/><path d="m279.09,333.52c.91.58,3.03,1.5,5.26,1.5,4.13,0,5.4-2.63,5.37-4.6-.04-3.32-3.03-4.75-6.13-4.75h-1.79v-2.41h1.79c2.34,0,5.29-1.21,5.29-4.02,0-1.9-1.21-3.58-4.16-3.58-1.9,0-3.72.84-4.75,1.57l-.84-2.34c1.24-.91,3.65-1.83,6.21-1.83,4.67,0,6.79,2.78,6.79,5.66,0,2.45-1.46,4.53-4.38,5.59v.07c2.92.58,5.29,2.78,5.29,6.1,0,3.8-2.96,7.12-8.65,7.12-2.67,0-5-.84-6.17-1.61l.88-2.48Z"/><line x1="496.54" y1="712.33" x2="585.82" y2="623.06" fill="none" stroke="#000" stroke-miterlimit="10" stroke-width="5"/><path d="m617.72,675.87c.91.58,3.03,1.5,5.26,1.5,4.13,0,5.4-2.63,5.37-4.6-.04-3.32-3.03-4.75-6.13-4.75h-1.79v-2.41h1.79c2.34,0,5.29-1.21,5.29-4.02,0-1.9-1.21-3.58-4.16-3.58-1.9,0-3.72.84-4.75,1.57l-.84-2.34c1.24-.91,3.65-1.83,6.21-1.83,4.67,0,6.79,2.78,6.79,5.66,0,2.45-1.46,4.53-4.38,5.59v.07c2.92.58,5.29,2.78,5.29,6.1,0,3.8-2.96,7.12-8.65,7.12-2.67,0-5-.84-6.17-1.61l.88-2.48Z"/><path d="m788.72,333.52c.91.58,3.03,1.5,5.26,1.5,4.13,0,5.4-2.63,5.37-4.6-.04-3.32-3.03-4.75-6.13-4.75h-1.79v-2.41h1.79c2.34,0,5.29-1.21,5.29-4.02,0-1.9-1.21-3.58-4.16-3.58-1.9,0-3.72.84-4.75,1.57l-.84-2.34c1.24-.91,3.65-1.83,6.21-1.83,4.67,0,6.79,2.78,6.79,5.66,0,2.45-1.46,4.53-4.38,5.59v.07c2.92.58,5.29,2.78,5.29,6.1,0,3.8-2.96,7.12-8.65,7.12-2.67,0-5-.84-6.17-1.61l.88-2.48Z"/><rect id="Base" width="1080" height="1080" opacity="0"/></g></g></svg>