<?xml version="1.0" encoding="UTF-8"?><svg id="Capa_2" xmlns="http://www.w3.org/2000/svg" viewBox="0 0 1080 1080"><g id="Capa_1-2"><g id="Unifilar_-_Horno_eléctrico_2"><rect x="412.36" y="285.18" width="509.64" height="509.64" transform="translate(1334.36 1080) rotate(180)" fill="none" stroke="#000" stroke-miterlimit="10" stroke-width="5"/><line x1="158" y1="540" x2="411.88" y2="540" fill="none" stroke="#000" stroke-miterlimit="10" stroke-width="5"/><line x1="512.65" y1="540.72" x2="818.42" y2="540.72" fill="none" stroke="#000" stroke-miterlimit="10" stroke-width="5"/><line x1="512.65" y1="642.64" x2="818.42" y2="642.64" fill="none" stroke="#000" stroke-miterlimit="10" stroke-width="5"/><polyline points="512.65 436.43 563.14 436.43 818.42 436.43" fill="none" stroke="#000" stroke-miterlimit="10" stroke-width="5"/><path d="m563.14,436.19s-1.19-50.49,51.2-51.2c52.38-.71,50.49,104.48,102.4,104.03,51.91-.45,51.2-52.83,51.2-52.83" fill="none" stroke="#000" stroke-miterlimit="10" stroke-width="5"/><path d="m563.14,538.11s-1.19-50.49,51.2-51.2c52.38-.71,50.49,104.48,102.4,104.03,51.91-.45,51.2-52.83,51.2-52.83" fill="none" stroke="#000" stroke-miterlimit="10" stroke-width="5"/><path d="m563.14,642.4s-1.19-50.49,51.2-51.2c52.38-.71,50.49,104.48,102.4,104.03,51.91-.45,51.2-52.83,51.2-52.83" fill="none" stroke="#000" stroke-miterlimit="10" stroke-width="5"/><rect id="Base" width="1080" height="1080" opacity="0"/></g></g></svg>