<?xml version="1.0" encoding="UTF-8"?><svg id="Capa_2" xmlns="http://www.w3.org/2000/svg" viewBox="0 0 1080 1080"><g id="Capa_1-2"><g id="Unifilar_-_Corriente_Alterna_trifasica"><g id="Multifilar_-_Terminal"><path id="Terminal" d="m922,540.34c0,79.69-64.6,144.29-144.29,144.29-79.69,0-144.96-71.81-144.96-144.96,0-66.44-65.27-144.29-144.96-144.29s-144.29,64.6-144.29,144.29" fill="none" stroke="#000" stroke-miterlimit="10" stroke-width="5"/></g><path d="m162.13,580.77c4.3,2.75,14.29,7.06,24.79,7.06,19.46,0,25.48-12.39,25.31-21.69-.18-15.66-14.29-22.38-28.92-22.38h-8.43v-11.36h8.43c11.02,0,24.96-5.68,24.96-18.94,0-8.95-5.68-16.87-19.62-16.87-8.96,0-17.56,3.96-22.38,7.4l-3.96-11.02c5.85-4.3,17.21-8.61,29.26-8.61,22.04,0,32.02,13.09,32.02,26.68,0,11.54-6.89,21.35-20.66,26.34v.35c13.77,2.75,24.96,13.08,24.96,28.75,0,17.9-13.95,33.56-40.8,33.56-12.57,0-23.58-3.96-29.09-7.58l4.13-11.7Z"/><rect id="Base" width="1080" height="1080" opacity="0"/></g></g></svg>