<?xml version="1.0" encoding="UTF-8"?><svg id="Capa_2" xmlns="http://www.w3.org/2000/svg" viewBox="0 0 1080 1080"><g id="Capa_1-2"><g id="Unifilar_-_Receptor_fotoeléctrico"><rect x="411.61" y="284.81" width="510.39" height="510.39" fill="none" stroke="#000" stroke-miterlimit="10" stroke-width="5"/><line x1="415.18" y1="538.81" x2="158" y2="538.81" fill="none" stroke="#000" stroke-miterlimit="10" stroke-width="5"/><line x1="514.88" y1="591.04" x2="565.92" y2="591.04" fill="none" stroke="#000" stroke-miterlimit="10" stroke-width="5"/><rect x="613.51" y="359.11" width="106.59" height="106.59" transform="translate(486.92 -350.71) rotate(45)" fill="none" stroke="#000" stroke-miterlimit="10" stroke-width="5"/><line x1="636.8" y1="367.04" x2="636.8" y2="457.77" fill="none" stroke="#000" stroke-miterlimit="10" stroke-width="5"/><line x1="696.82" y1="367.04" x2="696.82" y2="457.77" fill="none" stroke="#000" stroke-miterlimit="10" stroke-width="5"/><polygon points="564.73 591.04 564.73 565.12 589.66 578.08 614.58 591.04 589.66 604 564.73 616.95 564.73 591.04"/><polygon points="705.15 712.62 716.95 689.55 733.24 712.44 749.53 735.33 721.44 735.51 693.35 735.69 705.15 712.62"/><line x1="514.88" y1="693.12" x2="565.92" y2="693.12" fill="none" stroke="#000" stroke-miterlimit="10" stroke-width="5"/><polygon points="564.73 693.12 564.73 667.2 589.66 680.16 614.58 693.12 589.66 706.07 564.73 719.03 564.73 693.12"/><line x1="667.99" y1="541.19" x2="667.99" y2="745.34" fill="none" stroke="#000" stroke-miterlimit="10" stroke-width="5"/><line x1="667.99" y1="693.12" x2="770.07" y2="745.34" fill="none" stroke="#000" stroke-miterlimit="10" stroke-width="5"/><line x1="770.07" y1="541.19" x2="667.99" y2="591.04" fill="none" stroke="#000" stroke-miterlimit="10" stroke-width="5"/><rect id="Base" width="1080" height="1080" opacity="0"/></g></g></svg>