<?xml version="1.0" encoding="UTF-8"?><svg id="Capa_2" xmlns="http://www.w3.org/2000/svg" viewBox="0 0 1080 1080"><g id="Capa_1-2"><g id="Unifilar_-_Detector_de_incendios"><rect x="411.35" y="284.67" width="510.65" height="510.65" fill="none" stroke="#000" stroke-miterlimit="10" stroke-width="5"/><line x1="158" y1="540" x2="411.35" y2="540" fill="none" stroke="#000" stroke-miterlimit="10" stroke-width="5"/><path d="m669.29,742.57s-131.49-36.26-135.8-125.71c-4.31-89.44,84.07-142.63,137.96-142.63-21.56,19.34-77.6,58.02-73.29,106.37,6.25,70.13,71.13,161.97,71.13,161.97Z" fill="none" stroke="#000" stroke-miterlimit="10" stroke-width="5"/><path d="m669.29,742.57s-71.13-101.53-71.13-161.97c0-48.35,47.77-88.75,73.29-106.37,28.02-19.34,64.67-31.43,56.05-137.79,28.02,19.34,56.93,111.2,56.05,149.88-.64,27.76-19.23,66.72-40.04,100.81-8.19,13.41-16.72,26.07-24.63,36.99-27.36,37.76-49.58,118.45-49.58,118.45Z" fill="none" stroke="#000" stroke-miterlimit="10" stroke-width="5"/><path d="m669.29,742.57c45.27-12.09,74.18-31.88,92.69-55.6,30.18-38.68,8.62-94.28-8.62-116.04-15.09,21.76-79.76,118.45-84.07,171.64Z" fill="none" stroke="#000" stroke-miterlimit="10" stroke-width="5"/><rect id="Base" width="1080" height="1080" opacity="0"/></g></g></svg>