<?xml version="1.0" encoding="UTF-8"?><svg id="Capa_2" xmlns="http://www.w3.org/2000/svg" viewBox="0 0 1080 1080"><g id="Capa_1-2"><g id="Unifilar_-_Detector_de_inundación"><rect x="545.24" y="336.63" width="187.82" height="51.4" rx="10.06" ry="10.06"/><rect x="393.12" y="470.31" width="187.82" height="51.4" rx="10.06" ry="10.06" transform="translate(983.03 8.98) rotate(90)"/><circle cx="641.05" cy="496.01" r="77.74"/><path d="m821.11,591.71c0-85.66-51.4-68.53-108.51-69.81,0-18.2,0-29.5,0-51.4,60.92-.62,159.9-12.04,160.38,121.21h-51.88Z"/><rect x="592.68" y="389.01" width="97.07" height="51.4" transform="translate(1055.93 -226.51) rotate(90)"/><path d="m871.28,660.98c-.05-.3-.12-.6-.24-.9l-20.41-49.94c-1.4-3.43-6.25-3.43-7.66,0l-20.41,49.94c-.12.3-.19.6-.24.9-.79,2.47-1.22,5.09-1.22,7.82,0,14.19,11.51,25.7,25.7,25.7s25.7-11.51,25.7-25.7c0-2.73-.43-5.35-1.22-7.82Z"/><rect x="485.88" y="470.31" width="97.07" height="51.4" transform="translate(1068.83 992.02) rotate(180)"/><rect x="411.83" y="284.92" width="510.17" height="510.17" fill="none" stroke="#000" stroke-miterlimit="10" stroke-width="5"/><line x1="158" y1="540" x2="411.83" y2="540" fill="none" stroke="#000" stroke-miterlimit="10" stroke-width="5"/><rect id="Base" width="1080" height="1080" opacity="0"/></g></g></svg>