<?xml version="1.0" encoding="UTF-8"?><svg id="Capa_2" xmlns="http://www.w3.org/2000/svg" viewBox="0 0 1080 1080"><g id="Capa_1-2"><g id="Unifilar_-_Detector_de_proximidad_inductivo"><rect x="370.56" y="328.66" width="422.68" height="422.68" fill="none" stroke="#000" stroke-miterlimit="10" stroke-width="5"/><line x1="373.5" y1="539.02" x2="158" y2="539.02" fill="none" stroke="#000" stroke-miterlimit="10" stroke-width="5"/><rect x="537.76" y="390.19" width="88.27" height="88.27" transform="translate(477.55 -284.25) rotate(45)" fill="none" stroke="#000" stroke-miterlimit="10" stroke-width="5"/><line x1="557.04" y1="396.76" x2="557.04" y2="471.9" fill="none" stroke="#000" stroke-miterlimit="10" stroke-width="5"/><line x1="606.75" y1="396.76" x2="606.75" y2="471.9" fill="none" stroke="#000" stroke-miterlimit="10" stroke-width="5"/><rect x="878.75" y="454.48" width="42.76" height="173" fill="none" stroke="#000" stroke-miterlimit="10" stroke-width="5"/><line x1="879.24" y1="454.48" x2="922" y2="497.73" fill="none" stroke="#000" stroke-miterlimit="10" stroke-width="5"/><line x1="922" y1="539.02" x2="879.24" y2="497.73" fill="none" stroke="#000" stroke-miterlimit="10" stroke-width="5"/><line x1="879.24" y1="540.98" x2="922" y2="584.23" fill="none" stroke="#000" stroke-miterlimit="10" stroke-width="5"/><line x1="922" y1="625.52" x2="879.24" y2="584.23" fill="none" stroke="#000" stroke-miterlimit="10" stroke-width="5"/><path d="m454.11,666.8c0-35.29,28.61-63.89,63.89-63.89s63.89,28.61,63.89,63.89" fill="none" stroke="#000" stroke-miterlimit="10" stroke-width="5"/><path d="m581.89,666.8c0-35.29,28.61-63.89,63.89-63.89s63.89,28.61,63.89,63.89" fill="none" stroke="#000" stroke-miterlimit="10" stroke-width="5"/><rect id="Base" width="1080" height="1080" opacity="0"/></g></g></svg>