<?xml version="1.0" encoding="UTF-8"?><svg id="Capa_2" xmlns="http://www.w3.org/2000/svg" viewBox="0 0 1080 1080"><g id="Capa_1-2"><g id="Unifilar_-_Detector_fotoeléctrico_tipo_reflex"><rect x="367.78" y="327.6" width="424.8" height="424.8" fill="none" stroke="#000" stroke-miterlimit="10" stroke-width="5"/><line x1="370.75" y1="539.01" x2="158" y2="539.01" fill="none" stroke="#000" stroke-miterlimit="10" stroke-width="5"/><rect x="878.53" y="369.09" width="42.98" height="343.79" fill="none" stroke="#000" stroke-miterlimit="10" stroke-width="5"/><line x1="878.53" y1="369.09" x2="921.51" y2="412.56" fill="none" stroke="#000" stroke-miterlimit="10" stroke-width="5"/><line x1="878.53" y1="412.56" x2="921.51" y2="412.56" fill="none" stroke="#000" stroke-miterlimit="10" stroke-width="5"/><line x1="921.51" y1="454.05" x2="878.53" y2="412.56" fill="none" stroke="#000" stroke-miterlimit="10" stroke-width="5"/><line x1="878.53" y1="454.05" x2="921.51" y2="454.05" fill="none" stroke="#000" stroke-miterlimit="10" stroke-width="5"/><line x1="879.02" y1="454.05" x2="922" y2="497.52" fill="none" stroke="#000" stroke-miterlimit="10" stroke-width="5"/><line x1="879.02" y1="497.52" x2="922" y2="497.52" fill="none" stroke="#000" stroke-miterlimit="10" stroke-width="5"/><line x1="922" y1="539.01" x2="879.02" y2="497.52" fill="none" stroke="#000" stroke-miterlimit="10" stroke-width="5"/><line x1="879.02" y1="539.01" x2="922" y2="539.01" fill="none" stroke="#000" stroke-miterlimit="10" stroke-width="5"/><line x1="879.02" y1="540.99" x2="922" y2="584.46" fill="none" stroke="#000" stroke-miterlimit="10" stroke-width="5"/><line x1="879.02" y1="584.46" x2="922" y2="584.46" fill="none" stroke="#000" stroke-miterlimit="10" stroke-width="5"/><line x1="922" y1="625.95" x2="879.02" y2="584.46" fill="none" stroke="#000" stroke-miterlimit="10" stroke-width="5"/><line x1="879.02" y1="625.95" x2="922" y2="669.42" fill="none" stroke="#000" stroke-miterlimit="10" stroke-width="5"/><line x1="879.02" y1="669.42" x2="922" y2="669.42" fill="none" stroke="#000" stroke-miterlimit="10" stroke-width="5"/><line x1="922" y1="710.91" x2="879.02" y2="669.42" fill="none" stroke="#000" stroke-miterlimit="10" stroke-width="5"/><line x1="879.02" y1="625.95" x2="922" y2="625.95" fill="none" stroke="#000" stroke-miterlimit="10" stroke-width="5"/><line x1="538.69" y1="582.48" x2="581.17" y2="582.48" fill="none" stroke="#000" stroke-miterlimit="10" stroke-width="5"/><rect x="535.82" y="389.44" width="88.72" height="88.72" transform="translate(476.67 -283.19) rotate(45)" fill="none" stroke="#000" stroke-miterlimit="10" stroke-width="5"/><line x1="555.21" y1="396.04" x2="555.21" y2="471.56" fill="none" stroke="#000" stroke-miterlimit="10" stroke-width="5"/><line x1="605.16" y1="396.04" x2="605.16" y2="471.56" fill="none" stroke="#000" stroke-miterlimit="10" stroke-width="5"/><line x1="452.08" y1="539.01" x2="452.08" y2="710.91" fill="none" stroke="#000" stroke-miterlimit="10" stroke-width="5"/><line x1="409.6" y1="667.44" x2="494.56" y2="667.44" fill="none" stroke="#000" stroke-miterlimit="10" stroke-width="5"/><polygon points="452.08 585.44 493.58 585.44 472.83 626.07 452.08 666.7 431.34 626.07 410.59 585.44 452.08 585.44" fill="none" stroke="#000" stroke-miterlimit="10" stroke-width="5"/><polygon points="580.18 582.48 580.18 560.91 600.93 571.7 621.68 582.48 600.93 593.26 580.18 604.05 580.18 582.48"/><line x1="791.6" y1="454.05" x2="834.08" y2="454.05" fill="none" stroke="#000" stroke-miterlimit="10" stroke-width="5"/><polygon points="833.09 454.05 833.09 432.48 853.83 443.27 874.58 454.05 853.83 464.84 833.09 475.62 833.09 454.05"/><polygon points="697.06 683.68 706.88 664.47 720.44 683.52 734 702.58 710.61 702.73 687.23 702.88 697.06 683.68"/><line x1="538.69" y1="667.44" x2="581.17" y2="667.44" fill="none" stroke="#000" stroke-miterlimit="10" stroke-width="5"/><polygon points="580.18 667.44 580.18 645.87 600.93 656.66 621.68 667.44 600.93 678.23 580.18 689.01 580.18 667.44"/><line x1="880.51" y1="626.42" x2="838.03" y2="625.94" fill="none" stroke="#000" stroke-miterlimit="10" stroke-width="5"/><polygon points="839.02 625.95 838.77 647.52 818.15 636.5 797.53 625.48 818.39 614.93 839.26 604.38 839.02 625.95"/><line x1="666.13" y1="540.99" x2="666.13" y2="710.91" fill="none" stroke="#000" stroke-miterlimit="10" stroke-width="5"/><line x1="666.13" y1="667.44" x2="751.09" y2="710.91" fill="none" stroke="#000" stroke-miterlimit="10" stroke-width="5"/><line x1="751.09" y1="540.99" x2="666.13" y2="582.48" fill="none" stroke="#000" stroke-miterlimit="10" stroke-width="5"/><rect id="Base" width="1080" height="1080" opacity="0"/></g></g></svg>