<?xml version="1.0" encoding="UTF-8"?><svg id="Capa_2" xmlns="http://www.w3.org/2000/svg" viewBox="0 0 1080 1080"><g id="Capa_1-2"><g id="Unifilar_-_Líneas_de_Fases"><line x1="922" y1="582.1" x2="158" y2="582.1" fill="none" stroke="#000" stroke-miterlimit="10" stroke-width="5"/><line x1="492.88" y1="514.63" x2="357.95" y2="649.57" fill="none" stroke="#000" stroke-miterlimit="10" stroke-width="5"/><line x1="606.83" y1="514.63" x2="471.89" y2="649.57" fill="none" stroke="#000" stroke-miterlimit="10" stroke-width="5"/><line x1="722.09" y1="514.63" x2="587.15" y2="649.57" fill="none" stroke="#000" stroke-miterlimit="10" stroke-width="5"/><path d="m440.52,430.43h5.05v34.88h16.71v4.24h-21.76v-39.11Z"/><path d="m477.2,436.58h-.12l-6.56,3.54-.99-3.89,8.24-4.41h4.35v37.72h-4.93v-32.96Z"/><path d="m509.35,451.96v3.77h-14.33v-3.77h14.33Z"/><path d="m515.51,430.43h5.05v34.88h16.71v4.24h-21.76v-39.11Z"/><path d="m541.1,469.55v-3.13l4-3.89c9.63-9.17,13.99-14.04,14.04-19.73,0-3.83-1.86-7.37-7.49-7.37-3.42,0-6.27,1.74-8.01,3.19l-1.63-3.6c2.61-2.21,6.33-3.83,10.68-3.83,8.12,0,11.55,5.57,11.55,10.97,0,6.96-5.05,12.59-13,20.25l-3.02,2.79v.12h16.94v4.24h-24.08Z"/><path d="m584.34,451.96v3.77h-14.33v-3.77h14.33Z"/><path d="m590.5,430.43h5.05v34.88h16.71v4.24h-21.76v-39.11Z"/><path d="m617.31,463.69c1.45.93,4.82,2.38,8.36,2.38,6.56,0,8.59-4.18,8.53-7.31-.06-5.28-4.82-7.54-9.75-7.54h-2.84v-3.83h2.84c3.71,0,8.42-1.91,8.42-6.38,0-3.02-1.92-5.69-6.62-5.69-3.02,0-5.92,1.33-7.54,2.5l-1.33-3.71c1.97-1.45,5.8-2.9,9.86-2.9,7.43,0,10.79,4.41,10.79,9,0,3.89-2.32,7.2-6.96,8.88v.12c4.64.93,8.42,4.41,8.42,9.69,0,6.04-4.7,11.32-13.75,11.32-4.24,0-7.95-1.33-9.81-2.55l1.39-3.95Z"/><rect id="Base" width="1080" height="1080" opacity="0"/></g></g></svg>