<?xml version="1.0" encoding="UTF-8"?><svg id="Capa_2" xmlns="http://www.w3.org/2000/svg" viewBox="0 0 1080 1080"><g id="Capa_1-2"><g id="Unifilar_-_Caja_de_empalmes"><line x1="158" y1="540.53" x2="922" y2="540.53" fill="none" stroke="#000" stroke-miterlimit="10" stroke-width="5"/><line x1="240.99" y1="584.58" x2="330.26" y2="495.31" fill="none" stroke="#000" stroke-miterlimit="10" stroke-width="5"/><line x1="750.52" y1="585.17" x2="839.8" y2="495.9" fill="none" stroke="#000" stroke-miterlimit="10" stroke-width="5"/><line x1="412.51" y1="540.33" x2="540.61" y2="412.23" fill="none" stroke="#000" stroke-miterlimit="10" stroke-width="5"/><line x1="539.94" y1="412.23" x2="668.04" y2="540.33" fill="none" stroke="#000" stroke-miterlimit="10" stroke-width="5"/><line x1="412.51" y1="539.67" x2="540.61" y2="667.77" fill="none" stroke="#000" stroke-miterlimit="10" stroke-width="5"/><line x1="539.94" y1="667.77" x2="668.04" y2="539.67" fill="none" stroke="#000" stroke-miterlimit="10" stroke-width="5"/><circle id="Union_punto_de_conexión" cx="540.29" cy="539.35" r="12.98"/><path d="m278.49,460.09c1,.64,3.31,1.63,5.74,1.63,4.5,0,5.89-2.87,5.85-5.02-.04-3.62-3.31-5.18-6.69-5.18h-1.95v-2.63h1.95c2.55,0,5.78-1.31,5.78-4.38,0-2.07-1.31-3.9-4.54-3.9-2.07,0-4.06.92-5.18,1.71l-.92-2.55c1.35-1,3.98-1.99,6.77-1.99,5.1,0,7.41,3.03,7.41,6.17,0,2.67-1.59,4.94-4.78,6.09v.08c3.19.64,5.78,3.03,5.78,6.65,0,4.14-3.23,7.77-9.44,7.77-2.91,0-5.46-.92-6.73-1.75l.96-2.71Z"/><path d="m788.22,460.09c1,.64,3.31,1.63,5.74,1.63,4.5,0,5.89-2.87,5.85-5.02-.04-3.62-3.31-5.18-6.69-5.18h-1.95v-2.63h1.95c2.55,0,5.78-1.31,5.78-4.38,0-2.07-1.31-3.9-4.54-3.9-2.07,0-4.06.92-5.18,1.71l-.92-2.55c1.35-1,3.98-1.99,6.77-1.99,5.1,0,7.41,3.03,7.41,6.17,0,2.67-1.59,4.94-4.78,6.09v.08c3.19.64,5.78,3.03,5.78,6.65,0,4.14-3.23,7.77-9.44,7.77-2.91,0-5.46-.92-6.73-1.75l.96-2.71Z"/><rect id="Base" width="1080" height="1080" opacity="0"/></g></g></svg>