<?xml version="1.0" encoding="UTF-8"?><svg id="Capa_2" xmlns="http://www.w3.org/2000/svg" viewBox="0 0 1080 1080"><g id="Capa_1-2"><g id="Unifilar_-_Detector_fotoeléctrico_de_proximidad"><rect x="369.04" y="328.08" width="423.84" height="423.84" fill="none" stroke="#000" stroke-miterlimit="10" stroke-width="5"/><line x1="372" y1="539.01" x2="158" y2="539.01" fill="none" stroke="#000" stroke-miterlimit="10" stroke-width="5"/><line x1="539.56" y1="582.38" x2="581.94" y2="582.38" fill="none" stroke="#000" stroke-miterlimit="10" stroke-width="5"/><rect x="536.7" y="389.78" width="88.52" height="88.52" transform="translate(477.07 -283.67) rotate(45)" fill="none" stroke="#000" stroke-miterlimit="10" stroke-width="5"/><line x1="556.04" y1="396.37" x2="556.04" y2="471.71" fill="none" stroke="#000" stroke-miterlimit="10" stroke-width="5"/><line x1="605.88" y1="396.37" x2="605.88" y2="471.71" fill="none" stroke="#000" stroke-miterlimit="10" stroke-width="5"/><line x1="453.15" y1="539.01" x2="453.15" y2="710.52" fill="none" stroke="#000" stroke-miterlimit="10" stroke-width="5"/><line x1="410.77" y1="667.15" x2="495.53" y2="667.15" fill="none" stroke="#000" stroke-miterlimit="10" stroke-width="5"/><polygon points="453.15 585.34 494.55 585.34 473.85 625.88 453.15 666.41 432.45 625.88 411.75 585.34 453.15 585.34" fill="none" stroke="#000" stroke-miterlimit="10" stroke-width="5"/><polygon points="580.96 582.38 580.96 560.86 601.66 571.62 622.36 582.38 601.66 593.14 580.96 603.9 580.96 582.38"/><polygon points="697.57 683.35 707.37 664.19 720.9 683.2 734.42 702.21 711.09 702.36 687.77 702.51 697.57 683.35"/><line x1="539.56" y1="667.15" x2="581.94" y2="667.15" fill="none" stroke="#000" stroke-miterlimit="10" stroke-width="5"/><polygon points="580.96 667.15 580.96 645.63 601.66 656.39 622.36 667.15 601.66 677.91 580.96 688.67 580.96 667.15"/><line x1="666.71" y1="540.99" x2="666.71" y2="710.52" fill="none" stroke="#000" stroke-miterlimit="10" stroke-width="5"/><line x1="666.71" y1="667.15" x2="751.48" y2="710.52" fill="none" stroke="#000" stroke-miterlimit="10" stroke-width="5"/><line x1="751.48" y1="540.99" x2="666.71" y2="582.38" fill="none" stroke="#000" stroke-miterlimit="10" stroke-width="5"/><rect x="878.63" y="454.25" width="42.88" height="173.48" fill="none" stroke="#000" stroke-miterlimit="10" stroke-width="5"/><line x1="879.12" y1="454.25" x2="922" y2="497.62" fill="none" stroke="#000" stroke-miterlimit="10" stroke-width="5"/><line x1="922" y1="539.01" x2="879.12" y2="497.62" fill="none" stroke="#000" stroke-miterlimit="10" stroke-width="5"/><line x1="879.12" y1="540.99" x2="922" y2="584.36" fill="none" stroke="#000" stroke-miterlimit="10" stroke-width="5"/><line x1="922" y1="625.75" x2="879.12" y2="584.36" fill="none" stroke="#000" stroke-miterlimit="10" stroke-width="5"/><rect id="Base" width="1080" height="1080" opacity="0"/></g></g></svg>