<?xml version="1.0" encoding="UTF-8"?><svg id="Capa_2" xmlns="http://www.w3.org/2000/svg" viewBox="0 0 1080 1080"><g id="Capa_1-2"><g id="Unifilar_-_Regletero_de_bornas_de_conexión"><rect x="494.44" y="158" width="153.15" height="379.79" fill="none" stroke="#000" stroke-miterlimit="10" stroke-width="5"/><line x1="571.46" y1="922" x2="571.46" y2="537.79" fill="none" stroke="#000" stroke-miterlimit="10" stroke-width="5"/><line x1="502.92" y1="800.65" x2="640.01" y2="663.56" fill="none" stroke="#000" stroke-miterlimit="10" stroke-width="5"/><path d="m455.19,716.78h-14.45l-1.46,9.73c.87-.12,1.69-.23,3.09-.23,2.91,0,5.83.64,8.16,2.04,2.97,1.69,5.42,4.95,5.42,9.73,0,7.4-5.89,12.94-14.1,12.94-4.14,0-7.63-1.17-9.44-2.33l1.28-3.9c1.57.93,4.66,2.1,8.1,2.1,4.84,0,8.97-3.15,8.97-8.22-.06-4.89-3.32-8.39-10.9-8.39-2.16,0-3.85.23-5.25.41l2.45-18.18h18.12v4.31Z"/><rect id="Base" width="1080" height="1080" opacity="0"/></g></g></svg>