<?xml version="1.0" encoding="UTF-8"?><svg id="Capa_2" xmlns="http://www.w3.org/2000/svg" viewBox="0 0 1080 1080"><g id="Capa_1-2"><g id="Unifilar_-_Interruptor_diferencial"><line x1="666.77" y1="537.88" x2="666.77" y2="922" fill="none" stroke="#000" stroke-miterlimit="10" stroke-width="5"/><rect x="362.01" y="387.65" width="101.71" height="101.71" fill="none" stroke="#000" stroke-miterlimit="10" stroke-width="5"/><line x1="412.86" y1="388.59" x2="412.86" y2="488.41" fill="none" stroke="#000" stroke-miterlimit="10" stroke-width="5"/><line x1="362.95" y1="438.5" x2="462.77" y2="438.5" fill="none" stroke="#000" stroke-miterlimit="10" stroke-width="5"/><line x1="541.96" y1="285.23" x2="666.99" y2="537.88" fill="none" stroke="#000" stroke-miterlimit="10" stroke-width="5"/><line x1="260.07" y1="393.64" x2="260.07" y2="482.38" fill="none" stroke="#000" stroke-miterlimit="10" stroke-width="5"/><line x1="666.77" y1="158" x2="666.77" y2="285.23" fill="none" stroke="#000" stroke-miterlimit="10" stroke-width="5"/><circle cx="666.77" cy="297.95" r="12.72" fill="none" stroke="#000" stroke-miterlimit="10" stroke-width="5"/><rect x="261.25" y="666.32" width="100.42" height="50.21" fill="none" stroke="#000" stroke-miterlimit="10" stroke-width="5"/><path d="m769.78,743.61c27.69,0,50.14-22.66,50.14-50.62s-22.45-50.62-50.14-50.62h-204.85c-27.69,0-50.14,22.66-50.14,50.62s22.45,50.62,50.14,50.62h204.85Z" fill="none" stroke="#000" stroke-miterlimit="10" stroke-width="5"/><path d="m311.04,668.18v-25.51l207.71-.57c25.91,0,46.92,22.67,46.92,50.63s-21.01,50.63-46.92,50.63l-207.71.52v-26.08" fill="none" stroke="#000" stroke-miterlimit="10" stroke-width="5"/><line x1="413.46" y1="692.32" x2="407.46" y2="692.32" fill="none" stroke="#000" stroke-miterlimit="10" stroke-width="5"/><line x1="394.07" y1="692.32" x2="373.99" y2="692.32" fill="none" stroke="#000" stroke-dasharray="0 0 13.39 13.39" stroke-miterlimit="10" stroke-width="5"/><line x1="367.29" y1="692.32" x2="361.29" y2="692.32" fill="none" stroke="#000" stroke-miterlimit="10" stroke-width="5"/><line x1="413.58" y1="493.07" x2="413.57" y2="499.07" fill="none" stroke="#000" stroke-miterlimit="10" stroke-width="5"/><line x1="413.56" y1="511.56" x2="413.47" y2="680.08" fill="none" stroke="#000" stroke-dasharray="0 0 12.48 12.48" stroke-miterlimit="10" stroke-width="5"/><line x1="413.46" y1="686.32" x2="413.46" y2="692.32" fill="none" stroke="#000" stroke-miterlimit="10" stroke-width="5"/><line x1="463.08" y1="438.01" x2="469.08" y2="438.01" fill="none" stroke="#000" stroke-miterlimit="10" stroke-width="5"/><line x1="481.98" y1="438.01" x2="604.57" y2="438.01" fill="none" stroke="#000" stroke-dasharray="0 0 12.9 12.9" stroke-miterlimit="10" stroke-width="5"/><line x1="611.02" y1="438.01" x2="617.02" y2="438.01" fill="none" stroke="#000" stroke-miterlimit="10" stroke-width="5"/><line x1="362.57" y1="438.01" x2="356.57" y2="438.01" fill="none" stroke="#000" stroke-miterlimit="10" stroke-width="5"/><line x1="343.64" y1="438.01" x2="272.54" y2="438.01" fill="none" stroke="#000" stroke-dasharray="0 0 12.93 12.93" stroke-miterlimit="10" stroke-width="5"/><line x1="266.07" y1="438.01" x2="260.07" y2="438.01" fill="none" stroke="#000" stroke-miterlimit="10" stroke-width="5"/><rect id="Base" width="1080" height="1080" opacity="0"/></g></g></svg>