<?xml version="1.0" encoding="UTF-8"?><svg id="Capa_2" xmlns="http://www.w3.org/2000/svg" viewBox="0 0 1080 1080"><g id="Capa_1-2"><g id="Unifilar_-_Protector_bipolar_F_N_contra_sobretensiones_combinado"><circle cx="539.58" cy="415.86" r="6.29"/><line x1="539.9" y1="354.15" x2="540.18" y2="478" fill="none" stroke="#000" stroke-miterlimit="10" stroke-width="5"/><line x1="663.3" y1="416.15" x2="663.3" y2="601.29" fill="none" stroke="#000" stroke-miterlimit="10" stroke-width="5"/><line x1="663.58" y1="416.15" x2="539.3" y2="416.43" fill="none" stroke="#000" stroke-miterlimit="10" stroke-width="5"/><line x1="477.87" y1="230.43" x2="539.58" y2="353.86" fill="none" stroke="#000" stroke-miterlimit="10" stroke-width="5"/><line x1="441.67" y1="268.15" x2="441.67" y2="317.91" fill="none" stroke="#000" stroke-miterlimit="10" stroke-width="5"/><line x1="392.17" y1="268.15" x2="392.17" y2="317.91" fill="none" stroke="#000" stroke-miterlimit="10" stroke-width="5"/><line x1="441.84" y1="268.51" x2="392.35" y2="268.51" fill="none" stroke="#000" stroke-miterlimit="10" stroke-width="5"/><line x1="441.84" y1="318.27" x2="392.35" y2="318.27" fill="none" stroke="#000" stroke-miterlimit="10" stroke-width="5"/><line x1="540.04" y1="158" x2="540.04" y2="230.72" fill="none" stroke="#000" stroke-miterlimit="10" stroke-width="5"/><line x1="663.01" y1="724.72" x2="663.01" y2="922" fill="none" stroke="#000" stroke-miterlimit="10" stroke-width="5"/><line x1="540.44" y1="848.43" x2="540.44" y2="922" fill="none" stroke="#000" stroke-miterlimit="10" stroke-width="5"/><line x1="355.43" y1="268.18" x2="355.43" y2="317.89" fill="none" stroke="#000" stroke-miterlimit="10" stroke-width="5"/><rect x="478.15" y="725.23" width="123" height="122.96" fill="none" stroke="#000" stroke-miterlimit="10" stroke-width="5"/><line x1="552.15" y1="749.57" x2="577.01" y2="786.72" fill="none" stroke="#000" stroke-miterlimit="10" stroke-width="5"/><line x1="552.15" y1="823.86" x2="577.01" y2="786.72" fill="none" stroke="#000" stroke-miterlimit="10" stroke-width="5"/><line x1="417.09" y1="268.46" x2="417.09" y2="317.6" fill="none" stroke="#000" stroke-miterlimit="10" stroke-width="5"/><line x1="392.24" y1="293.03" x2="441.95" y2="293.03" fill="none" stroke="#000" stroke-miterlimit="10" stroke-width="5"/><circle cx="540.04" cy="237.86" r="6.29" fill="none" stroke="#000" stroke-miterlimit="10" stroke-width="5"/><path d="m527.3,811c0,6.94-5.63,12.57-12.57,12.57s-12.57-5.63-12.57-12.57" fill="none" stroke="#000" stroke-miterlimit="10" stroke-width="5"/><line x1="502.15" y1="749.29" x2="502.15" y2="811" fill="none" stroke="#000" stroke-miterlimit="10" stroke-width="5"/><line x1="527.3" y1="749.29" x2="527.3" y2="812.15" fill="none" stroke="#000" stroke-miterlimit="10" stroke-width="5"/><rect x="478.15" y="478" width="123" height="123.29" fill="none" stroke="#000" stroke-miterlimit="10" stroke-width="5"/><rect x="478.15" y="601.86" width="122.86" height="122.86" fill="none" stroke="#000" stroke-miterlimit="10" stroke-width="5"/><line x1="539.87" y1="478" x2="539.87" y2="514.43" fill="none" stroke="#000" stroke-miterlimit="10" stroke-width="5"/><line x1="576.44" y1="514.43" x2="539.87" y2="514.43" fill="none" stroke="#000" stroke-miterlimit="10" stroke-width="5"/><line x1="540.15" y1="564.15" x2="576.72" y2="564.15" fill="none" stroke="#000" stroke-miterlimit="10" stroke-width="5"/><line x1="576.44" y1="515" x2="576.44" y2="564.15" fill="none" stroke="#000" stroke-miterlimit="10" stroke-width="5"/><line x1="539.87" y1="564.43" x2="539.87" y2="601.58" fill="none" stroke="#000" stroke-miterlimit="10" stroke-width="5"/><line x1="502.72" y1="625" x2="502.72" y2="700.15" fill="none" stroke="#000" stroke-miterlimit="10" stroke-width="5"/><line x1="527.01" y1="625.58" x2="577.01" y2="662.72" fill="none" stroke="#000" stroke-miterlimit="10" stroke-width="5"/><line x1="527.01" y1="699.86" x2="577.01" y2="662.72" fill="none" stroke="#000" stroke-miterlimit="10" stroke-width="5"/><rect x="478.15" y="478" width="246.93" height="370.18" fill="none" stroke="#000" stroke-miterlimit="10" stroke-width="5"/><polygon points="663.24 675.29 638.72 724.43 687.75 724.43 663.24 675.29"/><polygon points="663.24 650.72 687.75 601.58 638.72 601.58 663.24 650.72"/><path d="m632.45,909.89c-.19-1.15-.36-2.66-.36-4.58,0-2.36.55-4.09,1.54-5.18.88-1.01,2.22-1.62,3.87-1.62s2.99.49,3.95,1.43c1.34,1.26,2.03,3.32,2.03,5.65,0,.71-.03,1.37-.16,1.92h7.41v2.39h-18.27Zm8.91-2.39c.14-.52.19-1.18.19-1.97,0-2.88-1.4-4.64-3.95-4.64s-3.62,1.73-3.62,4.36c0,1.04.08,1.84.19,2.25h7.19Z"/><path d="m642.05,885.73v7.19h6.67v-8.01h2v10.39h-18.49v-9.98h2v7.6h5.84v-7.19h1.97Z"/><line x1="354.92" y1="293.03" x2="360.92" y2="293.03" fill="none" stroke="#000" stroke-miterlimit="10" stroke-width="5"/><line x1="369.33" y1="293.03" x2="381.95" y2="293.03" fill="none" stroke="#000" stroke-dasharray="0 0 8.41 8.41" stroke-miterlimit="10" stroke-width="5"/><line x1="386.15" y1="293.03" x2="392.15" y2="293.03" fill="none" stroke="#000" stroke-miterlimit="10" stroke-width="5"/><line x1="440.72" y1="293.03" x2="446.72" y2="293.03" fill="none" stroke="#000" stroke-miterlimit="10" stroke-width="5"/><line x1="458.1" y1="293.03" x2="497.9" y2="293.03" fill="none" stroke="#000" stroke-dasharray="0 0 11.37 11.37" stroke-miterlimit="10" stroke-width="5"/><line x1="503.58" y1="293.03" x2="509.58" y2="293.03" fill="none" stroke="#000" stroke-miterlimit="10" stroke-width="5"/><line x1="417.09" y1="317.86" x2="417.09" y2="323.86" fill="none" stroke="#000" stroke-miterlimit="10" stroke-width="5"/><line x1="417.09" y1="335.58" x2="417.09" y2="775.14" fill="none" stroke="#000" stroke-dasharray="0 0 11.72 11.72" stroke-miterlimit="10" stroke-width="5"/><line x1="417.09" y1="781" x2="417.09" y2="787" fill="none" stroke="#000" stroke-miterlimit="10" stroke-width="5"/><line x1="416.15" y1="539.58" x2="422.15" y2="539.58" fill="none" stroke="#000" stroke-miterlimit="10" stroke-width="5"/><line x1="432.21" y1="539.58" x2="467.41" y2="539.58" fill="none" stroke="#000" stroke-dasharray="0 0 10.06 10.06" stroke-miterlimit="10" stroke-width="5"/><line x1="472.44" y1="539.58" x2="478.44" y2="539.58" fill="none" stroke="#000" stroke-miterlimit="10" stroke-width="5"/><line x1="416.15" y1="663" x2="422.15" y2="663" fill="none" stroke="#000" stroke-miterlimit="10" stroke-width="5"/><line x1="432.21" y1="663" x2="467.41" y2="663" fill="none" stroke="#000" stroke-dasharray="0 0 10.06 10.06" stroke-miterlimit="10" stroke-width="5"/><line x1="472.44" y1="663" x2="478.44" y2="663" fill="none" stroke="#000" stroke-miterlimit="10" stroke-width="5"/><line x1="417.09" y1="787" x2="423.09" y2="787" fill="none" stroke="#000" stroke-miterlimit="10" stroke-width="5"/><line x1="432.96" y1="787" x2="467.5" y2="787" fill="none" stroke="#000" stroke-dasharray="0 0 9.87 9.87" stroke-miterlimit="10" stroke-width="5"/><line x1="472.44" y1="787" x2="478.44" y2="787" fill="none" stroke="#000" stroke-miterlimit="10" stroke-width="5"/><rect id="Base" width="1080" height="1080" opacity="0"/></g></g></svg>