<?xml version="1.0" encoding="UTF-8"?><svg id="Capa_2" xmlns="http://www.w3.org/2000/svg" viewBox="0 0 1080 1080"><g id="Capa_1-2"><g id="Unifilar_-_Detector_de_proximidad_capacitivo"><rect x="368.67" y="327.94" width="424.12" height="424.12" fill="none" stroke="#000" stroke-miterlimit="10" stroke-width="5"/><line x1="371.63" y1="539.01" x2="158" y2="539.01" fill="none" stroke="#000" stroke-miterlimit="10" stroke-width="5"/><rect x="536.44" y="389.68" width="88.57" height="88.57" transform="translate(476.96 -283.53) rotate(45)" fill="none" stroke="#000" stroke-miterlimit="10" stroke-width="5"/><line x1="623.14" y1="540.55" x2="623.14" y2="709.3" fill="none" stroke="#000" stroke-miterlimit="10" stroke-width="5"/><line x1="538.32" y1="540.55" x2="538.32" y2="709.3" fill="none" stroke="#000" stroke-miterlimit="10" stroke-width="5"/><line x1="453.5" y1="624.93" x2="538.32" y2="624.93" fill="none" stroke="#000" stroke-miterlimit="10" stroke-width="5"/><line x1="623.14" y1="624.93" x2="707.97" y2="624.93" fill="none" stroke="#000" stroke-miterlimit="10" stroke-width="5"/><line x1="555.8" y1="396.28" x2="555.8" y2="471.67" fill="none" stroke="#000" stroke-miterlimit="10" stroke-width="5"/><line x1="605.67" y1="396.28" x2="605.67" y2="471.67" fill="none" stroke="#000" stroke-miterlimit="10" stroke-width="5"/><rect x="878.6" y="454.19" width="42.91" height="173.59" fill="none" stroke="#000" stroke-miterlimit="10" stroke-width="5"/><line x1="879.09" y1="454.19" x2="922" y2="497.59" fill="none" stroke="#000" stroke-miterlimit="10" stroke-width="5"/><line x1="922" y1="539.01" x2="879.09" y2="497.59" fill="none" stroke="#000" stroke-miterlimit="10" stroke-width="5"/><line x1="879.09" y1="540.99" x2="922" y2="584.38" fill="none" stroke="#000" stroke-miterlimit="10" stroke-width="5"/><line x1="922" y1="625.81" x2="879.09" y2="584.38" fill="none" stroke="#000" stroke-miterlimit="10" stroke-width="5"/><rect id="Base" width="1080" height="1080" opacity="0"/></g></g></svg>