<?xml version="1.0" encoding="UTF-8"?><svg id="Capa_2" xmlns="http://www.w3.org/2000/svg" viewBox="0 0 1080 1080"><g id="Capa_1-2"><g id="Unifilar_-_Protector_contra_sobretensiones_transitorias"><rect x="425.65" y="310.8" width="228.69" height="456.49" fill="none" stroke="#000" stroke-miterlimit="10" stroke-width="5"/><line x1="540" y1="650.78" x2="540" y2="922" fill="none" stroke="#000" stroke-miterlimit="10" stroke-width="5"/><line x1="540" y1="425.4" x2="540" y2="158" fill="none" stroke="#000" stroke-miterlimit="10" stroke-width="5"/><polygon points="540 577.25 501.8 653.65 578.2 653.65 540 577.25"/><polygon points="540 500.84 578.2 424.45 501.8 424.45 540 500.84"/><path d="m464.33,882.73c-.39-2.36-.73-5.46-.73-9.4,0-4.84,1.13-8.38,3.15-10.63,1.8-2.08,4.56-3.32,7.93-3.32s6.13,1.01,8.1,2.92c2.76,2.59,4.16,6.81,4.16,11.59,0,1.46-.06,2.81-.34,3.94h15.19v4.9h-37.47Zm18.28-4.9c.28-1.07.39-2.42.39-4.05,0-5.91-2.87-9.51-8.1-9.51s-7.43,3.55-7.43,8.95c0,2.14.17,3.77.39,4.61h14.74Z"/><path d="m484.02,833.17v14.74h13.67v-16.43h4.11v21.32h-37.92v-20.48h4.11v15.58h11.98v-14.74h4.05Z"/><rect id="Base" width="1080" height="1080" opacity="0"/></g></g></svg>