<?xml version="1.0" encoding="UTF-8"?><svg id="Capa_2" xmlns="http://www.w3.org/2000/svg" viewBox="0 0 1080 1080"><g id="Capa_1-2"><g id="Unifilar_-_Reactancia_-_2"><path d="m413.6,617.15c0-34.75,27.81-62.54,62.55-62.54s62.91,27.79,62.91,62.54" fill="none" stroke="#000" stroke-miterlimit="10" stroke-width="5"/><path d="m540.36,617.15c0-34.75,28.17-62.54,62.91-62.54s62.91,27.79,62.91,62.54" fill="none" stroke="#000" stroke-miterlimit="10" stroke-width="5"/><path d="m667.47,617.15c0-34.75,28.17-62.54,62.91-62.54s62.91,27.79,62.91,62.54" fill="none" stroke="#000" stroke-miterlimit="10" stroke-width="5"/><path d="m794.59,617.15c0-34.75,28.17-62.54,62.91-62.54s62.84,27.79,62.84,62.54" fill="none" stroke="#000" stroke-miterlimit="10" stroke-width="5"/><line x1="413.93" y1="513.59" x2="922" y2="513.59" fill="none" stroke="#000" stroke-miterlimit="10" stroke-width="5"/><line x1="158" y1="617.15" x2="413.6" y2="617.15" fill="none" stroke="#000" stroke-miterlimit="10" stroke-width="5"/><line x1="413.93" y1="462.85" x2="922" y2="462.85" fill="none" stroke="#000" stroke-miterlimit="10" stroke-width="5"/><rect id="Base" width="1080" height="1080" opacity="0"/></g></g></svg>