<?xml version="1.0" encoding="UTF-8"?><svg id="Capa_2" xmlns="http://www.w3.org/2000/svg" viewBox="0 0 1080 1080"><g id="Capa_1-2"><g id="Unifilar_-_Detector_de_movimientos_PIR_"><rect x="411.75" y="284.87" width="510.25" height="510.25" fill="none" stroke="#000" stroke-miterlimit="10" stroke-width="5"/><line x1="158" y1="540" x2="411.75" y2="540" fill="none" stroke="#000" stroke-miterlimit="10" stroke-width="5"/><rect x="489.08" y="365.23" width="59.12" height="349.57" fill="none" stroke="#000" stroke-miterlimit="10" stroke-width="5"/><path d="m548.2,365.23c49.22,44.11,86.23,102.28,86.23,174.79,0,72.5-37.01,130.68-86.23,174.79v-349.57Z"/><path d="m618.5,363.43c49.22,42.88,80.34,106.09,80.34,176.58,0,70.49-31.12,133.7-80.34,176.58" fill="none" stroke="#000" stroke-miterlimit="10" stroke-width="5"/><path d="m691.02,363.43c49.22,42.88,80.34,106.09,80.34,176.58,0,70.49-31.12,133.7-80.34,176.58" fill="none" stroke="#000" stroke-miterlimit="10" stroke-width="5"/><path d="m763.54,363.43c49.22,42.88,80.34,106.09,80.34,176.58,0,70.49-31.12,133.7-80.34,176.58" fill="none" stroke="#000" stroke-miterlimit="10" stroke-width="5"/><rect id="Base" width="1080" height="1080" opacity="0"/></g></g></svg>