<?xml version="1.0" encoding="UTF-8"?><svg id="Capa_2" xmlns="http://www.w3.org/2000/svg" viewBox="0 0 1080 1080"><g id="Capa_1-2"><g id="Unifilar_-_Protector_bipolar_contra_sobretensiones_permanentes"><circle cx="641.58" cy="298.21" r="12.98" fill="none" stroke="#000" stroke-miterlimit="10" stroke-width="5"/><rect x="538.99" y="565.44" width="204.4" height="204.4" fill="none" stroke="#000" stroke-miterlimit="10" stroke-width="5"/><line x1="667.12" y1="715.66" x2="717.97" y2="665.35" fill="none" stroke="#000" stroke-miterlimit="10" stroke-width="5"/><line x1="667.12" y1="616.27" x2="717.97" y2="665.35" fill="none" stroke="#000" stroke-miterlimit="10" stroke-width="5"/><line x1="641.19" y1="469.79" x2="641.19" y2="566.06" fill="none" stroke="#000" stroke-miterlimit="10" stroke-width="5"/><line x1="641.19" y1="769.45" x2="641.19" y2="922" fill="none" stroke="#000" stroke-miterlimit="10" stroke-width="5"/><rect x="413.23" y="338.06" width="100" height="100" fill="none" stroke="#000" stroke-miterlimit="10" stroke-width="5"/><line x1="463.23" y1="338.51" x2="463.23" y2="437.61" fill="none" stroke="#000" stroke-miterlimit="10" stroke-width="5"/><line x1="414.01" y1="388.06" x2="512.45" y2="388.06" fill="none" stroke="#000" stroke-miterlimit="10" stroke-width="5"/><line x1="463.8" y1="438.49" x2="463.8" y2="444.49" fill="none" stroke="#000" stroke-miterlimit="10" stroke-width="5"/><line x1="463.8" y1="455.86" x2="463.8" y2="654.8" fill="none" stroke="#000" stroke-dasharray="0 0 11.37 11.37" stroke-miterlimit="10" stroke-width="5"/><line x1="463.8" y1="660.49" x2="463.8" y2="666.49" fill="none" stroke="#000" stroke-miterlimit="10" stroke-width="5"/><line x1="464.36" y1="666.97" x2="470.36" y2="666.97" fill="none" stroke="#000" stroke-miterlimit="10" stroke-width="5"/><line x1="482.96" y1="666.97" x2="527.06" y2="666.97" fill="none" stroke="#000" stroke-dasharray="0 0 12.6 12.6" stroke-miterlimit="10" stroke-width="5"/><line x1="533.36" y1="666.97" x2="539.36" y2="666.97" fill="none" stroke="#000" stroke-miterlimit="10" stroke-width="5"/><line x1="539.36" y1="285.12" x2="641.19" y2="469.79" fill="none" stroke="#000" stroke-miterlimit="10" stroke-width="5"/><line x1="514.24" y1="388.06" x2="520.24" y2="388.06" fill="none" stroke="#000" stroke-miterlimit="10" stroke-width="5"/><line x1="534.31" y1="388.06" x2="583.54" y2="388.06" fill="none" stroke="#000" stroke-dasharray="0 0 14.07 14.07" stroke-miterlimit="10" stroke-width="5"/><line x1="590.57" y1="388.06" x2="596.57" y2="388.06" fill="none" stroke="#000" stroke-miterlimit="10" stroke-width="5"/><line x1="337.88" y1="388.06" x2="343.88" y2="388.06" fill="none" stroke="#000" stroke-miterlimit="10" stroke-width="5"/><line x1="356.33" y1="388.06" x2="399.93" y2="388.06" fill="none" stroke="#000" stroke-dasharray="0 0 12.46 12.46" stroke-miterlimit="10" stroke-width="5"/><line x1="406.16" y1="388.06" x2="412.16" y2="388.06" fill="none" stroke="#000" stroke-miterlimit="10" stroke-width="5"/><line x1="336.61" y1="335.97" x2="336.61" y2="438.16" fill="none" stroke="#000" stroke-miterlimit="10" stroke-width="5"/><path d="m588.39,616.27v59.3c0,22.44,6.84,31.96,16.03,31.96,10.21,0,16.74-9.81,16.74-31.96v-59.3h8.98v58.41c0,30.77-11.13,43.4-26.03,43.4-14.09,0-24.7-11.74-24.7-42.8v-59h8.98Z"/><line x1="641.58" y1="158" x2="641.58" y2="285.12" fill="none" stroke="#000" stroke-miterlimit="10" stroke-width="5"/><rect id="Base" width="1080" height="1080" opacity="0"/></g></g></svg>