<?xml version="1.0" encoding="UTF-8"?><svg id="Capa_2" xmlns="http://www.w3.org/2000/svg" viewBox="0 0 1080 1080"><g id="Capa_1-2"><g id="Unifilar_-_Watímetro"><rect x="411.09" y="284.54" width="510.91" height="510.91" fill="none" stroke="#000" stroke-miterlimit="10" stroke-width="5"/><line x1="158" y1="540" x2="411.09" y2="540" fill="none" stroke="#000" stroke-miterlimit="10" stroke-width="5"/><path d="m593.8,642.18l-51.85-204.36h27.9l24.26,103.39c6.06,25.47,11.52,50.94,15.16,70.65h.61c3.33-20.31,9.7-44.57,16.68-70.95l27.29-103.09h27.59l24.86,103.7c5.76,24.26,11.22,48.51,14.25,70.04h.61c4.25-22.44,10.01-45.18,16.37-70.65l26.99-103.09h26.99l-57.91,204.36h-27.59l-25.77-106.43c-6.37-26.08-10.61-46.09-13.34-66.71h-.61c-3.64,20.31-8.19,40.33-15.77,66.71l-29.11,106.43h-27.59Z"/><rect id="Base" width="1080" height="1080" opacity="0"/></g></g></svg>