<?xml version="1.0" encoding="UTF-8"?><svg id="Capa_2" xmlns="http://www.w3.org/2000/svg" viewBox="0 0 1080 1080"><g id="Capa_1-2"><g id="Unifilar_-_Emisor_fotoeléctrico"><rect x="413.34" y="285.67" width="508.66" height="508.66" fill="none" stroke="#000" stroke-miterlimit="10" stroke-width="5"/><line x1="416.89" y1="538.82" x2="158" y2="538.82" fill="none" stroke="#000" stroke-miterlimit="10" stroke-width="5"/><line x1="771.77" y1="590.87" x2="822.63" y2="590.87" fill="none" stroke="#000" stroke-miterlimit="10" stroke-width="5"/><rect x="614.56" y="359.72" width="106.23" height="106.23" transform="translate(487.48 -351.2) rotate(45)" fill="none" stroke="#000" stroke-miterlimit="10" stroke-width="5"/><line x1="637.76" y1="367.63" x2="637.76" y2="458.04" fill="none" stroke="#000" stroke-miterlimit="10" stroke-width="5"/><line x1="697.58" y1="367.63" x2="697.58" y2="458.04" fill="none" stroke="#000" stroke-miterlimit="10" stroke-width="5"/><line x1="668.07" y1="538.82" x2="668.07" y2="744.65" fill="none" stroke="#000" stroke-miterlimit="10" stroke-width="5"/><line x1="617.2" y1="692.6" x2="718.93" y2="692.6" fill="none" stroke="#000" stroke-miterlimit="10" stroke-width="5"/><polygon points="668.07 594.41 717.75 594.41 692.91 643.06 668.07 691.71 643.22 643.06 618.38 594.41 668.07 594.41" fill="none" stroke="#000" stroke-miterlimit="10" stroke-width="5"/><polygon points="821.45 590.87 821.45 565.04 846.29 577.95 871.13 590.87 846.29 603.78 821.45 616.69 821.45 590.87"/><line x1="771.77" y1="692.6" x2="822.63" y2="692.6" fill="none" stroke="#000" stroke-miterlimit="10" stroke-width="5"/><polygon points="821.45 692.6 821.45 666.77 846.29 679.68 871.13 692.6 846.29 705.51 821.45 718.42 821.45 692.6"/><rect id="Base" width="1080" height="1080" opacity="0"/></g></g></svg>