<?xml version="1.0" encoding="UTF-8"?><svg id="Capa_2" xmlns="http://www.w3.org/2000/svg" viewBox="0 0 1080 1080"><g id="Capa_1-2"><g id="Unifilar_-_Interruptor_diferencial_rearmable"><line x1="664.86" y1="566.74" x2="664.86" y2="922" fill="none" stroke="#000" stroke-miterlimit="10" stroke-width="5"/><rect x="393.03" y="431.26" width="89.61" height="90.67" fill="none" stroke="#000" stroke-miterlimit="10" stroke-width="5"/><line x1="437.84" y1="430.75" x2="437.84" y2="522.44" fill="none" stroke="#000" stroke-miterlimit="10" stroke-width="5"/><line x1="388.47" y1="476.6" x2="487.21" y2="476.6" fill="none" stroke="#000" stroke-miterlimit="10" stroke-width="5"/><line x1="552.2" y1="339.58" x2="664.55" y2="566.55" fill="none" stroke="#000" stroke-miterlimit="10" stroke-width="5"/><line x1="278.83" y1="430.44" x2="278.83" y2="522.75" fill="none" stroke="#000" stroke-miterlimit="10" stroke-width="5"/><line x1="664.86" y1="158" x2="664.86" y2="339.66" fill="none" stroke="#000" stroke-miterlimit="10" stroke-width="5"/><circle cx="664.86" cy="351.5" r="11.92" fill="none" stroke="#000" stroke-miterlimit="10" stroke-width="5"/><polygon points="512.24 476.6 573.59 517.66 573.59 435.54 512.24 476.6" fill="none" stroke="#000" stroke-miterlimit="10" stroke-width="5"/><rect x="278.7" y="704.11" width="90.79" height="44.02" fill="none" stroke="#000" stroke-miterlimit="10" stroke-width="5"/><path d="m756.59,771.18c24.7,0,44.72-20.02,44.72-44.72s-20.02-44.72-44.72-44.72h-182.69c-24.7,0-44.72,20.02-44.72,44.72s20.02,44.72,44.72,44.72h182.69Z" fill="none" stroke="#000" stroke-miterlimit="10" stroke-width="5"/><path d="m323.78,704.44v-23.33l206.45-.51c24.7,0,44.72,20.02,44.72,44.72s-20.02,44.72-44.72,44.72l-206.45.46v-21.81" fill="none" stroke="#000" stroke-miterlimit="10" stroke-width="5"/><rect x="392.06" y="203.39" width="91.55" height="136.28" fill="none" stroke="#000" stroke-miterlimit="10" stroke-width="5"/><line x1="481.84" y1="476.6" x2="487.84" y2="476.6" fill="none" stroke="#000" stroke-miterlimit="10" stroke-width="5"/><line x1="499.41" y1="476.6" x2="609.39" y2="476.6" fill="none" stroke="#000" stroke-dasharray="0 0 11.58 11.58" stroke-miterlimit="10" stroke-width="5"/><line x1="615.18" y1="476.6" x2="621.18" y2="476.6" fill="none" stroke="#000" stroke-miterlimit="10" stroke-width="5"/><line x1="437.84" y1="430.4" x2="437.84" y2="424.4" fill="none" stroke="#000" stroke-miterlimit="10" stroke-width="5"/><line x1="437.84" y1="413.14" x2="437.84" y2="351.21" fill="none" stroke="#000" stroke-dasharray="0 0 11.26 11.26" stroke-miterlimit="10" stroke-width="5"/><line x1="437.84" y1="345.58" x2="437.84" y2="339.58" fill="none" stroke="#000" stroke-miterlimit="10" stroke-width="5"/><line x1="391.05" y1="476.6" x2="385.05" y2="476.6" fill="none" stroke="#000" stroke-miterlimit="10" stroke-width="5"/><line x1="373.9" y1="476.6" x2="290.27" y2="476.6" fill="none" stroke="#000" stroke-dasharray="0 0 11.15 11.15" stroke-miterlimit="10" stroke-width="5"/><line x1="284.7" y1="476.6" x2="278.7" y2="476.6" fill="none" stroke="#000" stroke-miterlimit="10" stroke-width="5"/><line x1="437.58" y1="725.26" x2="431.58" y2="725.26" fill="none" stroke="#000" stroke-miterlimit="10" stroke-width="5"/><line x1="420.36" y1="725.26" x2="381.1" y2="725.26" fill="none" stroke="#000" stroke-dasharray="0 0 11.22 11.22" stroke-miterlimit="10" stroke-width="5"/><line x1="375.49" y1="725.26" x2="369.49" y2="725.26" fill="none" stroke="#000" stroke-miterlimit="10" stroke-width="5"/><line x1="437.58" y1="725.26" x2="437.59" y2="719.26" fill="none" stroke="#000" stroke-miterlimit="10" stroke-width="5"/><line x1="437.6" y1="707.96" x2="437.82" y2="532.81" fill="none" stroke="#000" stroke-dasharray="0 0 11.3 11.3" stroke-miterlimit="10" stroke-width="5"/><line x1="437.83" y1="527.16" x2="437.84" y2="521.16" fill="none" stroke="#000" stroke-miterlimit="10" stroke-width="5"/><rect id="Base" width="1080" height="1080" opacity="0"/></g></g></svg>