<?xml version="1.0" encoding="UTF-8"?><svg id="Capa_2" xmlns="http://www.w3.org/2000/svg" viewBox="0 0 1080 1080"><g id="Capa_1-2"><g id="Unifilar_-_Protector_tetrapolar_contra_sobretensiones_combinado"><line x1="540.26" y1="350.16" x2="540.55" y2="477.48" fill="none" stroke="#000" stroke-miterlimit="10" stroke-width="5"/><line x1="667.28" y1="413.3" x2="667.28" y2="604.22" fill="none" stroke="#000" stroke-miterlimit="10" stroke-width="5"/><line x1="667.57" y1="413.68" x2="539.96" y2="413.97" fill="none" stroke="#000" stroke-miterlimit="10" stroke-width="5"/><line x1="476.89" y1="222.99" x2="540.26" y2="349.87" fill="none" stroke="#000" stroke-miterlimit="10" stroke-width="5"/><line x1="438.76" y1="260.26" x2="438.76" y2="311.69" fill="none" stroke="#000" stroke-miterlimit="10" stroke-width="5"/><line x1="387.42" y1="260.26" x2="387.42" y2="311.69" fill="none" stroke="#000" stroke-miterlimit="10" stroke-width="5"/><line x1="438.76" y1="260.26" x2="387.42" y2="260.26" fill="none" stroke="#000" stroke-miterlimit="10" stroke-width="5"/><line x1="438.76" y1="311.69" x2="387.42" y2="311.69" fill="none" stroke="#000" stroke-miterlimit="10" stroke-width="5"/><line x1="540.26" y1="158" x2="540.26" y2="221.98" fill="none" stroke="#000" stroke-miterlimit="10" stroke-width="5"/><line x1="667.62" y1="731.09" x2="667.62" y2="921.71" fill="none" stroke="#000" stroke-miterlimit="10" stroke-width="5"/><line x1="540.5" y1="858.27" x2="540.5" y2="922" fill="none" stroke="#000" stroke-miterlimit="10" stroke-width="5"/><line x1="349.28" y1="259.87" x2="349.28" y2="311.44" fill="none" stroke="#000" stroke-miterlimit="10" stroke-width="5"/><rect x="476.62" y="731" width="127.05" height="127.65" fill="none" stroke="#000" stroke-miterlimit="10" stroke-width="5"/><line x1="553.16" y1="756.65" x2="578.69" y2="794.83" fill="none" stroke="#000" stroke-miterlimit="10" stroke-width="5"/><line x1="553.16" y1="833.01" x2="578.69" y2="794.83" fill="none" stroke="#000" stroke-miterlimit="10" stroke-width="5"/><line x1="413.09" y1="260.26" x2="413.09" y2="310.95" fill="none" stroke="#000" stroke-miterlimit="10" stroke-width="5"/><line x1="387.57" y1="285.75" x2="438.61" y2="285.75" fill="none" stroke="#000" stroke-miterlimit="10" stroke-width="5"/><ellipse cx="540.26" cy="228.08" rx="6.45" ry="6.46" fill="none" stroke="#000" stroke-miterlimit="10" stroke-width="5"/><path d="m527.64,819.79c0,7.14-5.78,12.92-12.91,12.92s-12.91-5.79-12.91-12.92" fill="none" stroke="#000" stroke-miterlimit="10" stroke-width="5"/><line x1="501.83" y1="756.35" x2="501.83" y2="819.79" fill="none" stroke="#000" stroke-miterlimit="10" stroke-width="5"/><line x1="527.64" y1="756.35" x2="527.64" y2="820.97" fill="none" stroke="#000" stroke-miterlimit="10" stroke-width="5"/><rect x="476.62" y="476.65" width="127.05" height="127.01" fill="none" stroke="#000" stroke-miterlimit="10" stroke-width="5"/><rect x="476.62" y="604.3" width="127.05" height="126.79" fill="none" stroke="#000" stroke-miterlimit="10" stroke-width="5"/><line x1="540.55" y1="477.48" x2="540.55" y2="514.93" fill="none" stroke="#000" stroke-miterlimit="10" stroke-width="5"/><line x1="578.1" y1="514.93" x2="540.55" y2="514.93" fill="none" stroke="#000" stroke-miterlimit="10" stroke-width="5"/><line x1="540.84" y1="566.03" x2="578.39" y2="566.03" fill="none" stroke="#000" stroke-miterlimit="10" stroke-width="5"/><line x1="578.1" y1="515.52" x2="578.1" y2="566.03" fill="none" stroke="#000" stroke-miterlimit="10" stroke-width="5"/><line x1="540.55" y1="566.33" x2="540.55" y2="604.51" fill="none" stroke="#000" stroke-miterlimit="10" stroke-width="5"/><line x1="502.41" y1="628.59" x2="502.41" y2="705.84" fill="none" stroke="#000" stroke-miterlimit="10" stroke-width="5"/><line x1="527.35" y1="629.18" x2="578.69" y2="667.36" fill="none" stroke="#000" stroke-miterlimit="10" stroke-width="5"/><line x1="527.35" y1="705.54" x2="578.69" y2="667.36" fill="none" stroke="#000" stroke-miterlimit="10" stroke-width="5"/><rect x="476.62" y="476.65" width="254.1" height="382" fill="none" stroke="#000" stroke-miterlimit="10" stroke-width="5"/><polygon points="667.22 680.28 642.05 730.8 692.39 730.8 667.22 680.28"/><polygon points="667.22 655.03 692.39 604.51 642.05 604.51 667.22 655.03"/><ellipse cx="540.89" cy="413.82" rx="6.45" ry="6.46"/><path d="m642.39,909.58c-.13-.79-.24-1.82-.24-3.14,0-1.61.38-2.8,1.05-3.55.6-.69,1.52-1.11,2.64-1.11s2.04.34,2.7.98c.92.86,1.39,2.27,1.39,3.87,0,.49-.02.94-.11,1.31h5.06v1.63h-12.49Zm6.09-1.63c.09-.36.13-.81.13-1.35,0-1.97-.96-3.17-2.7-3.17s-2.48,1.18-2.48,2.98c0,.71.06,1.26.13,1.54h4.91Z"/><path d="m648.96,893.05v4.92h4.56v-5.48h1.37v7.11h-12.64v-6.83h1.37v5.2h3.99v-4.92h1.35Z"/><line x1="349.58" y1="285.75" x2="355.58" y2="285.75" fill="none" stroke="#000" stroke-miterlimit="10" stroke-width="5"/><line x1="364.11" y1="285.75" x2="376.9" y2="285.75" fill="none" stroke="#000" stroke-dasharray="0 0 8.53 8.53" stroke-miterlimit="10" stroke-width="5"/><line x1="381.16" y1="285.75" x2="387.16" y2="285.75" fill="none" stroke="#000" stroke-miterlimit="10" stroke-width="5"/><line x1="438.76" y1="285.75" x2="444.76" y2="285.75" fill="none" stroke="#000" stroke-miterlimit="10" stroke-width="5"/><line x1="456.23" y1="285.75" x2="496.39" y2="285.75" fill="none" stroke="#000" stroke-dasharray="0 0 11.47 11.47" stroke-miterlimit="10" stroke-width="5"/><line x1="502.13" y1="285.75" x2="508.13" y2="285.75" fill="none" stroke="#000" stroke-miterlimit="10" stroke-width="5"/><line x1="413.09" y1="312.86" x2="413.09" y2="318.86" fill="none" stroke="#000" stroke-miterlimit="10" stroke-width="5"/><line x1="413.09" y1="330.92" x2="413.23" y2="783.09" fill="none" stroke="#000" stroke-dasharray="0 0 12.06 12.06" stroke-miterlimit="10" stroke-width="5"/><line x1="413.23" y1="789.12" x2="413.23" y2="795.12" fill="none" stroke="#000" stroke-miterlimit="10" stroke-width="5"/><line x1="413.23" y1="795.12" x2="419.23" y2="795.12" fill="none" stroke="#000" stroke-miterlimit="10" stroke-width="5"/><line x1="429.68" y1="795.12" x2="466.25" y2="795.12" fill="none" stroke="#000" stroke-dasharray="0 0 10.45 10.45" stroke-miterlimit="10" stroke-width="5"/><line x1="471.48" y1="795.12" x2="477.48" y2="795.12" fill="none" stroke="#000" stroke-miterlimit="10" stroke-width="5"/><line x1="413.23" y1="667.66" x2="419.23" y2="667.66" fill="none" stroke="#000" stroke-miterlimit="10" stroke-width="5"/><line x1="429.68" y1="667.66" x2="466.25" y2="667.66" fill="none" stroke="#000" stroke-dasharray="0 0 10.45 10.45" stroke-miterlimit="10" stroke-width="5"/><line x1="471.48" y1="667.66" x2="477.48" y2="667.66" fill="none" stroke="#000" stroke-miterlimit="10" stroke-width="5"/><line x1="413.23" y1="540.78" x2="419.23" y2="540.78" fill="none" stroke="#000" stroke-miterlimit="10" stroke-width="5"/><line x1="429.68" y1="540.78" x2="466.25" y2="540.78" fill="none" stroke="#000" stroke-dasharray="0 0 10.45 10.45" stroke-miterlimit="10" stroke-width="5"/><line x1="471.48" y1="540.78" x2="477.48" y2="540.78" fill="none" stroke="#000" stroke-miterlimit="10" stroke-width="5"/><rect id="Base" width="1080" height="1080" opacity="0"/></g></g></svg>