<?xml version="1.0" encoding="UTF-8"?><svg id="Capa_2" xmlns="http://www.w3.org/2000/svg" viewBox="0 0 1080 1080"><g id="Capa_1-2"><g id="Unifilar_-_Telerruptor_Temporizado"><rect x="335.32" y="262.12" width="586.68" height="586.68" fill="none" stroke="#000" stroke-miterlimit="10" stroke-width="5"/><line x1="158" y1="555.47" x2="335.32" y2="555.47" fill="none" stroke="#000" stroke-miterlimit="10" stroke-width="5"/><path d="m454.9,377.45v350.86h350.86v-350.86h-350.86Zm309.34,249.83c-2.48,3.68-9.47.3-12.76-.94-12.12-4.56-21.58-13.65-29.94-23.2-19.16-21.88-33.42-47.5-50.42-70.96-8.05-11.11-16.99-22.42-28.4-30.35-12.16-8.46-21.62-3.8-31.78,5.29-23.36,20.9-38.23,50.32-56.2,75.54-9.05,12.7-18.68,25.87-31.17,35.48-6.01,4.63-12.96,8.85-20.56,10.19-8.8,1.56-7.54-2.82-7.54-10.2-.04,0-.09,0-.13,0,0-7.26-.82-7.97,5.55-10.62,5.53-2.3,10.2-5.3,14.67-9.34,11.09-10.02,19.9-22.87,28.29-35.1,16.13-23.52,30.48-49,50.79-69.34,19.37-19.39,43.3-23.47,65.22-5.19,21.07,17.57,35.64,43.23,50.71,65.67,7.96,11.85,15.99,23.84,25.3,34.7,3.7,4.31,7.64,8.44,12.08,12.02,2.34,1.88,4.87,3.88,7.58,5.22,2.55,1.27,7.04,1.46,8.79,3.88,1.57,2.17,1.26,15.26-.07,17.24Z"/><rect id="Base" width="1080" height="1080" opacity="0"/></g></g></svg>